  0
SECTION
  2
HEADER
  9
$ACADVER
  1
AC1024
  9
$ACADMAINTVER
 70
6
  9
$DWGCODEPAGE
  3
ANSI_1252
  9
$LASTSAVEDBY
  1
ezdxf
  9
$INSBASE
 10
0.0
 20
0.0
 30
0.0
  9
$EXTMIN
 10
1e+20
 20
1e+20
 30
1e+20
  9
$EXTMAX
 10
-1e+20
 20
-1e+20
 30
-1e+20
  9
$LIMMIN
 10
0.0
 20
0.0
  9
$LIMMAX
 10
420.0
 20
297.0
  9
$ORTHOMODE
 70
0
  9
$REGENMODE
 70
1
  9
$FILLMODE
 70
1
  9
$QTEXTMODE
 70
0
  9
$MIRRTEXT
 70
1
  9
$LTSCALE
 40
1.0
  9
$ATTMODE
 70
1
  9
$TEXTSIZE
 40
2.5
  9
$TRACEWID
 40
1.0
  9
$TEXTSTYLE
  7
OpenSans
  9
$CLAYER
  8
0
  9
$CELTYPE
  6
ByLayer
  9
$CECOLOR
 62
256
  9
$CELTSCALE
 40
1.0
  9
$DISPSILH
 70
0
  9
$DIMSCALE
 40
1.0
  9
$DIMASZ
 40
0.175
  9
$DIMEXO
 40
0.125
  9
$DIMDLI
 40
3.75
  9
$DIMRND
 40
0.0
  9
$DIMDLE
 40
0.0
  9
$DIMEXE
 40
0.375
  9
$DIMTP
 40
0.0
  9
$DIMTM
 40
0.0
  9
$DIMTXT
 40
0.25
  9
$DIMCEN
 40
2.5
  9
$DIMTSZ
 40
0.0
  9
$DIMTOL
 70
0
  9
$DIMLIM
 70
0
  9
$DIMTIH
 70
0
  9
$DIMTOH
 70
0
  9
$DIMSE1
 70
0
  9
$DIMSE2
 70
0
  9
$DIMTAD
 70
1
  9
$DIMZIN
 70
12
  9
$DIMBLK
  1
ARCHTICK
  9
$DIMASO
 70
1
  9
$DIMSHO
 70
1
  9
$DIMPOST
  1

  9
$DIMAPOST
  1

  9
$DIMALT
 70
0
  9
$DIMALTD
 70
3
  9
$DIMALTF
 40
0.03937007874
  9
$DIMLFAC
 40
100.0
  9
$DIMTOFL
 70
1
  9
$DIMTVP
 40
0.0
  9
$DIMTIX
 70
0
  9
$DIMSOXD
 70
0
  9
$DIMSAH
 70
0
  9
$DIMBLK1
  1

  9
$DIMBLK2
  1

  9
$DIMSTYLE
  2
EZDXF
  9
$DIMCLRD
 70
0
  9
$DIMCLRE
 70
0
  9
$DIMCLRT
 70
0
  9
$DIMTFAC
 40
0.5
  9
$DIMGAP
 40
0.1
  9
$DIMJUST
 70
0
  9
$DIMSD1
 70
0
  9
$DIMSD2
 70
0
  9
$DIMTOLJ
 70
0
  9
$DIMTZIN
 70
8
  9
$DIMALTZ
 70
0
  9
$DIMALTTZ
 70
0
  9
$DIMUPT
 70
1
  9
$DIMDEC
 70
2
  9
$DIMTDEC
 70
2
  9
$DIMALTU
 70
2
  9
$DIMALTTD
 70
3
  9
$DIMTXSTY
  7
OpenSansCondensed-Light
  9
$DIMAUNIT
 70
0
  9
$DIMADEC
 70
2
  9
$DIMALTRND
 40
0.0
  9
$DIMAZIN
 70
3
  9
$DIMDSEP
 70
46
  9
$DIMATFIT
 70
3
  9
$DIMFRAC
 70
0
  9
$DIMLDRBLK
  1

  9
$DIMLUNIT
 70
2
  9
$DIMLWD
 70
-2
  9
$DIMLWE
 70
-2
  9
$DIMTMOVE
 70
2
  9
$DIMFXL
 40
1.0
  9
$DIMFXLON
 70
0
  9
$DIMJOGANG
 40
0.785398163397
  9
$DIMTFILL
 70
0
  9
$DIMTFILLCLR
 70
0
  9
$DIMARCSYM
 70
0
  9
$DIMLTYPE
  6

  9
$DIMLTEX1
  6

  9
$DIMLTEX2
  6

  9
$DIMTXTDIRECTION
 70
0
  9
$LUNITS
 70
2
  9
$LUPREC
 70
4
  9
$SKETCHINC
 40
1.0
  9
$FILLETRAD
 40
10.0
  9
$AUNITS
 70
0
  9
$AUPREC
 70
2
  9
$MENU
  1
.
  9
$ELEVATION
 40
0.0
  9
$PELEVATION
 40
0.0
  9
$THICKNESS
 40
0.0
  9
$LIMCHECK
 70
0
  9
$CHAMFERA
 40
0.0
  9
$CHAMFERB
 40
0.0
  9
$CHAMFERC
 40
0.0
  9
$CHAMFERD
 40
0.0
  9
$SKPOLY
 70
0
  9
$TDCREATE
 40
2461129.5507175927
  9
$TDUCREATE
 40
2458532.153996898
  9
$TDUPDATE
 40
2461129.5507175927
  9
$TDUUPDATE
 40
2458532.1544311
  9
$TDINDWG
 40
0.0
  9
$TDUSRTIMER
 40
0.0
  9
$USRTIMER
 70
1
  9
$ANGBASE
 50
0.0
  9
$ANGDIR
 70
0
  9
$PDMODE
 70
0
  9
$PDSIZE
 40
0.0
  9
$PLINEWID
 40
0.0
  9
$SPLFRAME
 70
0
  9
$SPLINETYPE
 70
6
  9
$SPLINESEGS
 70
8
  9
$HANDSEED
  5
1D8
  9
$SURFTAB1
 70
6
  9
$SURFTAB2
 70
6
  9
$SURFTYPE
 70
6
  9
$SURFU
 70
6
  9
$SURFV
 70
6
  9
$UCSBASE
  2

  9
$UCSNAME
  2

  9
$UCSORG
 10
0.0
 20
0.0
 30
0.0
  9
$UCSXDIR
 10
1.0
 20
0.0
 30
0.0
  9
$UCSYDIR
 10
0.0
 20
1.0
 30
0.0
  9
$UCSORTHOREF
  2

  9
$UCSORTHOVIEW
 70
0
  9
$UCSORGTOP
 10
0.0
 20
0.0
 30
0.0
  9
$UCSORGBOTTOM
 10
0.0
 20
0.0
 30
0.0
  9
$UCSORGLEFT
 10
0.0
 20
0.0
 30
0.0
  9
$UCSORGRIGHT
 10
0.0
 20
0.0
 30
0.0
  9
$UCSORGFRONT
 10
0.0
 20
0.0
 30
0.0
  9
$UCSORGBACK
 10
0.0
 20
0.0
 30
0.0
  9
$PUCSBASE
  2

  9
$PUCSNAME
  2

  9
$PUCSORG
 10
0.0
 20
0.0
 30
0.0
  9
$PUCSXDIR
 10
1.0
 20
0.0
 30
0.0
  9
$PUCSYDIR
 10
0.0
 20
1.0
 30
0.0
  9
$PUCSORTHOREF
  2

  9
$PUCSORTHOVIEW
 70
0
  9
$PUCSORGTOP
 10
0.0
 20
0.0
 30
0.0
  9
$PUCSORGBOTTOM
 10
0.0
 20
0.0
 30
0.0
  9
$PUCSORGLEFT
 10
0.0
 20
0.0
 30
0.0
  9
$PUCSORGRIGHT
 10
0.0
 20
0.0
 30
0.0
  9
$PUCSORGFRONT
 10
0.0
 20
0.0
 30
0.0
  9
$PUCSORGBACK
 10
0.0
 20
0.0
 30
0.0
  9
$USERI1
 70
0
  9
$USERI2
 70
0
  9
$USERI3
 70
0
  9
$USERI4
 70
0
  9
$USERI5
 70
0
  9
$USERR1
 40
0.0
  9
$USERR2
 40
0.0
  9
$USERR3
 40
0.0
  9
$USERR4
 40
0.0
  9
$USERR5
 40
0.0
  9
$WORLDVIEW
 70
1
  9
$SHADEDGE
 70
3
  9
$SHADEDIF
 70
70
  9
$TILEMODE
 70
1
  9
$MAXACTVP
 70
64
  9
$PINSBASE
 10
0.0
 20
0.0
 30
0.0
  9
$PLIMCHECK
 70
0
  9
$PEXTMIN
 10
1e+20
 20
1e+20
 30
1e+20
  9
$PEXTMAX
 10
-1e+20
 20
-1e+20
 30
-1e+20
  9
$PLIMMIN
 10
0.0
 20
0.0
  9
$PLIMMAX
 10
420.0
 20
297.0
  9
$UNITMODE
 70
0
  9
$VISRETAIN
 70
1
  9
$PLINEGEN
 70
0
  9
$PSLTSCALE
 70
1
  9
$TREEDEPTH
 70
3020
  9
$CMLSTYLE
  2
Standard
  9
$CMLJUST
 70
0
  9
$CMLSCALE
 40
20.0
  9
$PROXYGRAPHICS
 70
1
  9
$MEASUREMENT
 70
1
  9
$CELWEIGHT
370
-1
  9
$ENDCAPS
280
0
  9
$JOINSTYLE
280
0
  9
$LWDISPLAY
290
0
  9
$INSUNITS
 70
6
  9
$HYPERLINKBASE
  1

  9
$STYLESHEET
  1

  9
$XEDIT
290
1
  9
$CEPSNTYPE
380
0
  9
$PSTYLEMODE
290
1
  9
$FINGERPRINTGUID
  2
{0AA5E0C3-2893-4BE8-80BD-2F233DC77A3A}
  9
$VERSIONGUID
  2
{BEF877EB-0D29-4A58-930F-B70AA4C04E43}
  9
$EXTNAMES
290
1
  9
$PSVPSCALE
 40
0.0
  9
$OLESTARTUP
290
0
  9
$SORTENTS
280
127
  9
$INDEXCTL
280
0
  9
$HIDETEXT
280
1
  9
$XCLIPFRAME
280
1
  9
$HALOGAP
280
0
  9
$OBSCOLOR
 70
257
  9
$OBSLTYPE
280
0
  9
$INTERSECTIONDISPLAY
280
0
  9
$INTERSECTIONCOLOR
 70
257
  9
$DIMASSOC
280
2
  9
$PROJECTNAME
  1

  9
$CAMERADISPLAY
290
0
  9
$LENSLENGTH
 40
50.0
  9
$CAMERAHEIGHT
 40
0.0
  9
$STEPSPERSEC
 40
24.0
  9
$STEPSIZE
 40
100.0
  9
$3DDWFPREC
 40
2.0
  9
$PSOLWIDTH
 40
0.005
  9
$PSOLHEIGHT
 40
0.08
  9
$LOFTANG1
 40
1.570796326795
  9
$LOFTANG2
 40
1.570796326795
  9
$LOFTMAG1
 40
0.0
  9
$LOFTMAG2
 40
0.0
  9
$LOFTPARAM
 70
7
  9
$LOFTNORMALS
280
1
  9
$LATITUDE
 40
37.795
  9
$LONGITUDE
 40
-122.394
  9
$NORTHDIRECTION
 40
0.0
  9
$TIMEZONE
 70
-8000
  9
$LIGHTGLYPHDISPLAY
280
1
  9
$TILEMODELIGHTSYNCH
280
1
  9
$CMATERIAL
347
20
  9
$SOLIDHIST
280
0
  9
$SHOWHIST
280
1
  9
$DWFFRAME
280
2
  9
$DGNFRAME
280
2
  9
$REALWORLDSCALE
290
1
  9
$INTERFERECOLOR
 62
256
  9
$CSHADOW
280
0
  9
$SHADOWPLANELOCATION
 40
0.0
  0
ENDSEC
  0
SECTION
  2
CLASSES
  0
CLASS
  1
ACDBDICTIONARYWDFLT
  2
AcDbDictionaryWithDefault
  3
ObjectDBX Classes
 90
0
 91
0
280
0
281
0
  0
CLASS
  1
SUN
  2
AcDbSun
  3
SCENEOE
 90
1153
 91
0
280
0
281
0
  0
CLASS
  1
VISUALSTYLE
  2
AcDbVisualStyle
  3
ObjectDBX Classes
 90
4095
 91
0
280
0
281
0
  0
CLASS
  1
MATERIAL
  2
AcDbMaterial
  3
ObjectDBX Classes
 90
1153
 91
0
280
0
281
0
  0
CLASS
  1
SCALE
  2
AcDbScale
  3
ObjectDBX Classes
 90
1153
 91
0
280
0
281
0
  0
CLASS
  1
TABLESTYLE
  2
AcDbTableStyle
  3
ObjectDBX Classes
 90
4095
 91
0
280
0
281
0
  0
CLASS
  1
MLEADERSTYLE
  2
AcDbMLeaderStyle
  3
ACDB_MLEADERSTYLE_CLASS
 90
4095
 91
0
280
0
281
0
  0
CLASS
  1
DICTIONARYVAR
  2
AcDbDictionaryVar
  3
ObjectDBX Classes
 90
0
 91
0
280
0
281
0
  0
CLASS
  1
CELLSTYLEMAP
  2
AcDbCellStyleMap
  3
ObjectDBX Classes
 90
1152
 91
0
280
0
281
0
  0
CLASS
  1
MENTALRAYRENDERSETTINGS
  2
AcDbMentalRayRenderSettings
  3
SCENEOE
 90
1024
 91
0
280
0
281
0
  0
CLASS
  1
ACDBDETAILVIEWSTYLE
  2
AcDbDetailViewStyle
  3
ObjectDBX Classes
 90
1025
 91
0
280
0
281
0
  0
CLASS
  1
ACDBSECTIONVIEWSTYLE
  2
AcDbSectionViewStyle
  3
ObjectDBX Classes
 90
1025
 91
0
280
0
281
0
  0
CLASS
  1
RASTERVARIABLES
  2
AcDbRasterVariables
  3
ISM
 90
0
 91
0
280
0
281
0
  0
CLASS
  1
LAYOUT
  2
AcDbLayout
  3
ObjectDBX Classes
 90
0
 91
0
280
0
281
0
  0
CLASS
  1
ACDBPLACEHOLDER
  2
AcDbPlaceHolder
  3
ObjectDBX Classes
 90
0
 91
0
280
0
281
0
  0
ENDSEC
  0
SECTION
  2
TABLES
  0
TABLE
  2
VPORT
  5
8
330
0
100
AcDbSymbolTable
 70
1
  0
VPORT
  5
23
330
8
100
AcDbSymbolTableRecord
100
AcDbViewportTableRecord
  2
*Active
 70
0
 10
0.0
 20
0.0
 11
1.0
 21
1.0
 12
0.0
 22
0.0
 13
0.0
 23
0.0
 14
0.5
 24
0.5
 15
0.5
 25
0.5
 16
0.0
 26
0.0
 36
1.0
 17
0.0
 27
0.0
 37
0.0
 40
1000.0
 41
1.34
 42
50.0
 43
0.0
 44
0.0
 50
0.0
 51
0.0
 71
0
 72
1000
 73
1
 74
3
 75
0
 76
0
 77
0
 78
0
281
0
 65
0
146
0.0
  0
ENDTAB
  0
TABLE
  2
LTYPE
  5
2
330
0
100
AcDbSymbolTable
 70
21
  0
LTYPE
  5
24
330
2
100
AcDbSymbolTableRecord
100
AcDbLinetypeTableRecord
  2
ByBlock
 70
0
  3

 72
65
 73
0
 40
0.0
  0
LTYPE
  5
25
330
2
100
AcDbSymbolTableRecord
100
AcDbLinetypeTableRecord
  2
ByLayer
 70
0
  3

 72
65
 73
0
 40
0.0
  0
LTYPE
  5
26
330
2
100
AcDbSymbolTableRecord
100
AcDbLinetypeTableRecord
  2
Continuous
 70
0
  3

 72
65
 73
0
 40
0.0
  0
LTYPE
  5
2F
330
2
100
AcDbSymbolTableRecord
100
AcDbLinetypeTableRecord
  2
CENTER
 70
0
  3
Center ____ _ ____ _ ____ _ ____ _ ____ _ ____
 72
65
 73
4
 40
5.08
 49
3.175
 74
0
 49
-0.635
 74
0
 49
0.635
 74
0
 49
-0.635
 74
0
  0
LTYPE
  5
30
330
2
100
AcDbSymbolTableRecord
100
AcDbLinetypeTableRecord
  2
CENTERX2
 70
0
  3
Center (2x) ________  __  ________  __  ________
 72
65
 73
4
 40
8.89
 49
6.35
 74
0
 49
-0.635
 74
0
 49
1.27
 74
0
 49
-0.635
 74
0
  0
LTYPE
  5
31
330
2
100
AcDbSymbolTableRecord
100
AcDbLinetypeTableRecord
  2
CENTER2
 70
0
  3
Center (.5x) ____ _ ____ _ ____ _ ____ _ ____
 72
65
 73
4
 40
2.54
 49
1.587
 74
0
 49
-0.318
 74
0
 49
0.318
 74
0
 49
-0.318
 74
0
  0
LTYPE
  5
32
330
2
100
AcDbSymbolTableRecord
100
AcDbLinetypeTableRecord
  2
DASHED
 70
0
  3
Dashed __ __ __ __ __ __ __ __ __ __ __ __ __ _
 72
65
 73
2
 40
1.524
 49
1.27
 74
0
 49
-0.254
 74
0
  0
LTYPE
  5
33
330
2
100
AcDbSymbolTableRecord
100
AcDbLinetypeTableRecord
  2
DASHEDX2
 70
0
  3
Dashed (2x) ____  ____  ____  ____  ____  ____
 72
65
 73
2
 40
3.048
 49
2.54
 74
0
 49
-0.508
 74
0
  0
LTYPE
  5
34
330
2
100
AcDbSymbolTableRecord
100
AcDbLinetypeTableRecord
  2
DASHED2
 70
0
  3
Dashed (.5x) _ _ _ _ _ _ _ _ _ _ _ _ _ _
 72
65
 73
2
 40
0.762
 49
0.635
 74
0
 49
-0.127
 74
0
  0
LTYPE
  5
35
330
2
100
AcDbSymbolTableRecord
100
AcDbLinetypeTableRecord
  2
PHANTOM
 70
0
  3
Phantom ______  __  __  ______  __  __  ______
 72
65
 73
6
 40
6.35
 49
3.175
 74
0
 49
-0.635
 74
0
 49
0.635
 74
0
 49
-0.635
 74
0
 49
0.635
 74
0
 49
-0.635
 74
0
  0
LTYPE
  5
36
330
2
100
AcDbSymbolTableRecord
100
AcDbLinetypeTableRecord
  2
PHANTOMX2
 70
0
  3
Phantom (2x)____________    ____    ____    ____________
 72
65
 73
6
 40
10.795
 49
6.35
 74
0
 49
-0.635
 74
0
 49
1.27
 74
0
 49
-0.635
 74
0
 49
1.27
 74
0
 49
-0.635
 74
0
  0
LTYPE
  5
37
330
2
100
AcDbSymbolTableRecord
100
AcDbLinetypeTableRecord
  2
PHANTOM2
 70
0
  3
Phantom (.5x) ___ _ _ ___ _ _ ___ _ _ ___ _ _ ___
 72
65
 73
6
 40
3.175
 49
1.587
 74
0
 49
-0.318
 74
0
 49
0.318
 74
0
 49
-0.318
 74
0
 49
0.318
 74
0
 49
-0.318
 74
0
  0
LTYPE
  5
38
330
2
100
AcDbSymbolTableRecord
100
AcDbLinetypeTableRecord
  2
DASHDOT
 70
0
  3
Dash dot __ . __ . __ . __ . __ . __ . __ . __
 72
65
 73
4
 40
3.556
 49
2.54
 74
0
 49
-0.508
 74
0
 49
0.0
 74
0
 49
-0.508
 74
0
  0
LTYPE
  5
39
330
2
100
AcDbSymbolTableRecord
100
AcDbLinetypeTableRecord
  2
DASHDOTX2
 70
0
  3
Dash dot (2x) ____  .  ____  .  ____  .  ____
 72
65
 73
4
 40
6.096
 49
5.08
 74
0
 49
-0.508
 74
0
 49
0.0
 74
0
 49
-0.508
 74
0
  0
LTYPE
  5
3A
330
2
100
AcDbSymbolTableRecord
100
AcDbLinetypeTableRecord
  2
DASHDOT2
 70
0
  3
Dash dot (.5x) _ . _ . _ . _ . _ . _ . _ . _
 72
65
 73
4
 40
1.778
 49
1.27
 74
0
 49
-0.254
 74
0
 49
0.0
 74
0
 49
-0.254
 74
0
  0
LTYPE
  5
3B
330
2
100
AcDbSymbolTableRecord
100
AcDbLinetypeTableRecord
  2
DOT
 70
0
  3
Dot .  .  .  .  .  .  .  .  .  .  .  .  .  .  .  .
 72
65
 73
2
 40
0.508
 49
0.0
 74
0
 49
-0.508
 74
0
  0
LTYPE
  5
3C
330
2
100
AcDbSymbolTableRecord
100
AcDbLinetypeTableRecord
  2
DOTX2
 70
0
  3
Dot (2x) .    .    .    .    .    .    .    . 
 72
65
 73
2
 40
1.016
 49
0.0
 74
0
 49
-1.016
 74
0
  0
LTYPE
  5
3D
330
2
100
AcDbSymbolTableRecord
100
AcDbLinetypeTableRecord
  2
DOT2
 70
0
  3
Dot (.5) . . . . . . . . . . . . . . . . . . . 
 72
65
 73
2
 40
0.254
 49
0.0
 74
0
 49
-0.254
 74
0
  0
LTYPE
  5
3E
330
2
100
AcDbSymbolTableRecord
100
AcDbLinetypeTableRecord
  2
DIVIDE
 70
0
  3
Divide __ . . __ . . __ . . __ . . __ . . __
 72
65
 73
6
 40
4.064
 49
2.54
 74
0
 49
-0.508
 74
0
 49
0.0
 74
0
 49
-0.508
 74
0
 49
0.0
 74
0
 49
-0.508
 74
0
  0
LTYPE
  5
3F
330
2
100
AcDbSymbolTableRecord
100
AcDbLinetypeTableRecord
  2
DIVIDEX2
 70
0
  3
Divide (2x) ____  . .  ____  . .  ____  . .  ____
 72
65
 73
6
 40
6.604
 49
5.08
 74
0
 49
-0.508
 74
0
 49
0.0
 74
0
 49
-0.508
 74
0
 49
0.0
 74
0
 49
-0.508
 74
0
  0
LTYPE
  5
40
330
2
100
AcDbSymbolTableRecord
100
AcDbLinetypeTableRecord
  2
DIVIDE2
 70
0
  3
Divide(.5x) _ . _ . _ . _ . _ . _ . _ . _
 72
65
 73
6
 40
2.032
 49
1.27
 74
0
 49
-0.254
 74
0
 49
0.0
 74
0
 49
-0.254
 74
0
 49
0.0
 74
0
 49
-0.254
 74
0
  0
ENDTAB
  0
TABLE
  2
LAYER
  5
1
330
0
100
AcDbSymbolTable
 70
10
  0
LAYER
  5
27
330
1
100
AcDbSymbolTableRecord
100
AcDbLayerTableRecord
  2
0
 70
0
 62
7
  6
Continuous
370
-3
390
13
347
21
  0
LAYER
  5
28
330
1
100
AcDbSymbolTableRecord
100
AcDbLayerTableRecord
  2
Defpoints
 70
0
 62
7
  6
Continuous
290
0
370
-3
390
13
347
21
  0
LAYER
  5
8B
330
1
100
AcDbSymbolTableRecord
100
AcDbLayerTableRecord
  2
OUTLINE
 70
0
 62
7
  6
Continuous
370
-3
390
13
347
21
  0
LAYER
  5
8C
330
1
100
AcDbSymbolTableRecord
100
AcDbLayerTableRecord
  2
STRUCTURE
 70
0
 62
3
  6
Continuous
370
-3
390
13
347
21
  0
LAYER
  5
8D
330
1
100
AcDbSymbolTableRecord
100
AcDbLayerTableRecord
  2
DIMENSION
 70
0
 62
1
  6
Continuous
370
-3
390
13
347
21
  0
LAYER
  5
8E
330
1
100
AcDbSymbolTableRecord
100
AcDbLayerTableRecord
  2
CENTERLINE
 70
0
 62
5
  6
Continuous
370
-3
390
13
347
21
  0
LAYER
  5
8F
330
1
100
AcDbSymbolTableRecord
100
AcDbLayerTableRecord
  2
SPAR
 70
0
 62
6
  6
Continuous
370
-3
390
13
347
21
  0
LAYER
  5
90
330
1
100
AcDbSymbolTableRecord
100
AcDbLayerTableRecord
  2
HIDDEN
 70
0
 62
8
  6
Continuous
370
-3
390
13
347
21
  0
LAYER
  5
91
330
1
100
AcDbSymbolTableRecord
100
AcDbLayerTableRecord
  2
TEXT
 70
0
 62
7
  6
Continuous
370
-3
390
13
347
21
  0
LAYER
  5
92
330
1
100
AcDbSymbolTableRecord
100
AcDbLayerTableRecord
  2
RIB
 70
0
 62
4
  6
Continuous
370
-3
390
13
347
21
  0
ENDTAB
  0
TABLE
  2
STYLE
  5
5
330
0
100
AcDbSymbolTable
 70
26
  0
STYLE
  5
29
330
5
100
AcDbSymbolTableRecord
100
AcDbTextStyleTableRecord
  2
Standard
 70
0
 40
0.0
 41
1.0
 50
0.0
 71
0
 42
2.5
  3
txt
  4

  0
STYLE
  5
41
330
5
100
AcDbSymbolTableRecord
100
AcDbTextStyleTableRecord
  2
OpenSans-Light
 70
0
 40
0.0
 41
1.0
 50
0.0
 71
0
 42
2.5
  3
OpenSans-Light.ttf
  4

  0
STYLE
  5
42
330
5
100
AcDbSymbolTableRecord
100
AcDbTextStyleTableRecord
  2
OpenSans-Light-Italic
 70
0
 40
0.0
 41
1.0
 50
0.0
 71
0
 42
2.5
  3
OpenSans-LightItalic.ttf
  4

  0
STYLE
  5
43
330
5
100
AcDbSymbolTableRecord
100
AcDbTextStyleTableRecord
  2
OpenSans
 70
0
 40
0.0
 41
1.0
 50
0.0
 71
0
 42
2.5
  3
OpenSans-Regular.ttf
  4

  0
STYLE
  5
44
330
5
100
AcDbSymbolTableRecord
100
AcDbTextStyleTableRecord
  2
OpenSans-Italic
 70
0
 40
0.0
 41
1.0
 50
0.0
 71
0
 42
2.5
  3
OpenSans-Italic.ttf
  4

  0
STYLE
  5
45
330
5
100
AcDbSymbolTableRecord
100
AcDbTextStyleTableRecord
  2
OpenSans-SemiBold
 70
0
 40
0.0
 41
1.0
 50
0.0
 71
0
 42
2.5
  3
OpenSans-SemiBold.ttf
  4

  0
STYLE
  5
46
330
5
100
AcDbSymbolTableRecord
100
AcDbTextStyleTableRecord
  2
OpenSans-SemiBoldItalic
 70
0
 40
0.0
 41
1.0
 50
0.0
 71
0
 42
2.5
  3
OpenSans-SemiBoldItalic.ttf
  4

  0
STYLE
  5
47
330
5
100
AcDbSymbolTableRecord
100
AcDbTextStyleTableRecord
  2
OpenSans-Bold
 70
0
 40
0.0
 41
1.0
 50
0.0
 71
0
 42
2.5
  3
OpenSans-Bold.ttf
  4

  0
STYLE
  5
48
330
5
100
AcDbSymbolTableRecord
100
AcDbTextStyleTableRecord
  2
OpenSans-BoldItalic
 70
0
 40
0.0
 41
1.0
 50
0.0
 71
0
 42
2.5
  3
OpenSans-BoldItalic.ttf
  4

  0
STYLE
  5
49
330
5
100
AcDbSymbolTableRecord
100
AcDbTextStyleTableRecord
  2
OpenSans-ExtraBold
 70
0
 40
0.0
 41
1.0
 50
0.0
 71
0
 42
2.5
  3
OpenSans-ExtraBold.ttf
  4

  0
STYLE
  5
4A
330
5
100
AcDbSymbolTableRecord
100
AcDbTextStyleTableRecord
  2
OpenSans-ExtraBoldItalic
 70
0
 40
0.0
 41
1.0
 50
0.0
 71
0
 42
2.5
  3
OpenSans-ExtraBoldItalic.ttf
  4

  0
STYLE
  5
4B
330
5
100
AcDbSymbolTableRecord
100
AcDbTextStyleTableRecord
  2
OpenSansCondensed-Bold
 70
0
 40
0.0
 41
1.0
 50
0.0
 71
0
 42
2.5
  3
OpenSansCondensed-Bold.ttf
  4

  0
STYLE
  5
4C
330
5
100
AcDbSymbolTableRecord
100
AcDbTextStyleTableRecord
  2
OpenSansCondensed-Light
 70
0
 40
0.0
 41
1.0
 50
0.0
 71
0
 42
2.5
  3
OpenSansCondensed-Light.ttf
  4

  0
STYLE
  5
4D
330
5
100
AcDbSymbolTableRecord
100
AcDbTextStyleTableRecord
  2
OpenSansCondensed-Italic
 70
0
 40
0.0
 41
1.0
 50
0.0
 71
0
 42
2.5
  3
OpenSansCondensed-LightItalic.ttf
  4

  0
STYLE
  5
4E
330
5
100
AcDbSymbolTableRecord
100
AcDbTextStyleTableRecord
  2
LiberationSans
 70
0
 40
0.0
 41
1.0
 50
0.0
 71
0
 42
2.5
  3
LiberationSans-Regular.ttf
  4

  0
STYLE
  5
4F
330
5
100
AcDbSymbolTableRecord
100
AcDbTextStyleTableRecord
  2
LiberationSans-Bold
 70
0
 40
0.0
 41
1.0
 50
0.0
 71
0
 42
2.5
  3
LiberationSans-Bold.ttf
  4

  0
STYLE
  5
50
330
5
100
AcDbSymbolTableRecord
100
AcDbTextStyleTableRecord
  2
LiberationSans-BoldItalic
 70
0
 40
0.0
 41
1.0
 50
0.0
 71
0
 42
2.5
  3
LiberationSans-BoldItalic.ttf
  4

  0
STYLE
  5
51
330
5
100
AcDbSymbolTableRecord
100
AcDbTextStyleTableRecord
  2
LiberationSans-Italic
 70
0
 40
0.0
 41
1.0
 50
0.0
 71
0
 42
2.5
  3
LiberationSans-Italic.ttf
  4

  0
STYLE
  5
52
330
5
100
AcDbSymbolTableRecord
100
AcDbTextStyleTableRecord
  2
LiberationSerif
 70
0
 40
0.0
 41
1.0
 50
0.0
 71
0
 42
2.5
  3
LiberationSerif-Regular.ttf
  4

  0
STYLE
  5
53
330
5
100
AcDbSymbolTableRecord
100
AcDbTextStyleTableRecord
  2
LiberationSerif-Bold
 70
0
 40
0.0
 41
1.0
 50
0.0
 71
0
 42
2.5
  3
LiberationSerif-Bold.ttf
  4

  0
STYLE
  5
54
330
5
100
AcDbSymbolTableRecord
100
AcDbTextStyleTableRecord
  2
LiberationSerif-BoldItalic
 70
0
 40
0.0
 41
1.0
 50
0.0
 71
0
 42
2.5
  3
LiberationSerif-BoldItalic.ttf
  4

  0
STYLE
  5
55
330
5
100
AcDbSymbolTableRecord
100
AcDbTextStyleTableRecord
  2
LiberationSerif-Italic
 70
0
 40
0.0
 41
1.0
 50
0.0
 71
0
 42
2.5
  3
LiberationSerif-Italic.ttf
  4

  0
STYLE
  5
56
330
5
100
AcDbSymbolTableRecord
100
AcDbTextStyleTableRecord
  2
LiberationMono
 70
0
 40
0.0
 41
1.0
 50
0.0
 71
0
 42
2.5
  3
LiberationMono-Regular.ttf
  4

  0
STYLE
  5
57
330
5
100
AcDbSymbolTableRecord
100
AcDbTextStyleTableRecord
  2
LiberationMono-Bold
 70
0
 40
0.0
 41
1.0
 50
0.0
 71
0
 42
2.5
  3
LiberationMono-Bold.ttf
  4

  0
STYLE
  5
58
330
5
100
AcDbSymbolTableRecord
100
AcDbTextStyleTableRecord
  2
LiberationMono-BoldItalic
 70
0
 40
0.0
 41
1.0
 50
0.0
 71
0
 42
2.5
  3
LiberationMono-BoldItalic.ttf
  4

  0
STYLE
  5
59
330
5
100
AcDbSymbolTableRecord
100
AcDbTextStyleTableRecord
  2
LiberationMono-Italic
 70
0
 40
0.0
 41
1.0
 50
0.0
 71
0
 42
2.5
  3
LiberationMono-Italic.ttf
  4

  0
ENDTAB
  0
TABLE
  2
VIEW
  5
7
330
0
100
AcDbSymbolTable
 70
0
  0
ENDTAB
  0
TABLE
  2
UCS
  5
6
330
0
100
AcDbSymbolTable
 70
0
  0
ENDTAB
  0
TABLE
  2
APPID
  5
3
330
0
100
AcDbSymbolTable
 70
3
  0
APPID
  5
2A
330
3
100
AcDbSymbolTableRecord
100
AcDbRegAppTableRecord
  2
ACAD
 70
0
  0
APPID
  5
1D5
330
3
100
AcDbSymbolTableRecord
100
AcDbRegAppTableRecord
  2
HATCHBACKGROUNDCOLOR
 70
0
  0
APPID
  5
1D6
330
3
100
AcDbSymbolTableRecord
100
AcDbRegAppTableRecord
  2
EZDXF
 70
0
  0
ENDTAB
  0
TABLE
  2
DIMSTYLE
  5
4
330
0
100
AcDbSymbolTable
 70
13
100
AcDbDimStyleTable
  0
DIMSTYLE
105
2B
330
4
100
AcDbSymbolTableRecord
100
AcDbDimStyleTableRecord
  2
Standard
 70
0
 40
1.0
 41
2.5
 42
0.625
 43
3.75
 44
1.25
 45
0.0
 46
0.0
 47
0.0
 48
0.0
 49
2.5
140
2.5
141
2.5
142
0.0
143
0.03937007874
144
1.0
145
0.0
146
1.0
147
0.625
148
0.0
 69
0
 70
0
 71
0
 72
0
 73
0
 74
0
 75
0
 76
0
 77
1
 78
8
 79
3
170
0
171
3
172
1
173
0
174
0
175
0
176
0
177
0
178
0
179
2
271
2
272
2
273
2
274
3
275
0
276
0
277
2
278
44
279
0
280
0
281
0
282
0
283
0
284
8
285
0
286
0
288
0
289
3
290
0
371
-2
372
-2
  0
DIMSTYLE
105
73
330
4
100
AcDbSymbolTableRecord
100
AcDbDimStyleTableRecord
  2
EZDXF
 70
0
 40
1.0
 41
0.175
 42
0.125
 43
3.75
 44
0.375
 45
0.0
 46
0.0
 47
0.0
 48
0.0
 49
2.5
140
0.25
141
2.5
142
0.0
143
0.03937007874
144
100.0
145
0.0
146
0.5
147
0.1
148
0.0
 69
0
 70
0
 71
0
 72
0
 73
0
 74
0
 75
0
 76
0
 77
1
 78
12
 79
3
170
0
171
3
172
1
173
0
174
0
175
0
176
0
177
0
178
0
179
2
271
2
272
2
273
2
274
3
275
0
276
0
277
2
278
46
279
2
280
0
281
0
282
0
283
0
284
8
285
0
286
0
288
1
289
3
290
0
340
4C
342
74
371
-2
372
-2
  0
DIMSTYLE
105
7C
330
4
100
AcDbSymbolTableRecord
100
AcDbDimStyleTableRecord
  2
EZ_M_100_H25_CM
 70
0
 40
1.0
 41
0.25
 42
0.125
 43
3.75
 44
0.375
 45
0.0
 46
0.0
 47
0.0
 48
0.0
 49
2.5
140
0.25
141
2.5
142
0.125
143
0.03937007874
144
100.0
145
0.0
146
0.5
147
0.1
148
0.0
 69
0
 70
0
 71
0
 72
0
 73
0
 74
0
 75
0
 76
0
 77
1
 78
12
 79
3
170
0
171
3
172
1
173
0
174
0
175
0
176
0
177
0
178
0
179
2
271
2
272
2
273
2
274
3
275
0
276
0
277
2
278
46
279
2
280
0
281
0
282
0
283
0
284
8
285
0
286
0
288
1
289
3
290
0
340
4C
371
-2
372
-2
  0
DIMSTYLE
105
7D
330
4
100
AcDbSymbolTableRecord
100
AcDbDimStyleTableRecord
  2
EZ_M_50_H25_CM
 70
0
 40
1.0
 41
0.125
 42
0.0625
 43
3.75
 44
0.1875
 45
0.0
 46
0.0
 47
0.0
 48
0.0
 49
2.5
140
0.125
141
2.5
142
0.0625
143
0.03937007874
144
100.0
145
0.0
146
0.5
147
0.05
148
0.0
 69
0
 70
0
 71
0
 72
0
 73
0
 74
0
 75
0
 76
0
 77
1
 78
12
 79
3
170
0
171
3
172
1
173
0
174
0
175
0
176
0
177
0
178
0
179
2
271
2
272
2
273
2
274
3
275
0
276
0
277
2
278
46
279
2
280
0
281
0
282
0
283
0
284
8
285
0
286
0
288
1
289
3
290
0
340
4C
371
-2
372
-2
  0
DIMSTYLE
105
7E
330
4
100
AcDbSymbolTableRecord
100
AcDbDimStyleTableRecord
  2
EZ_M_25_H25_CM
 70
0
 40
1.0
 41
0.0625
 42
0.03125
 43
3.75
 44
0.09375
 45
0.0
 46
0.0
 47
0.0
 48
0.0
 49
2.5
140
0.0625
141
2.5
142
0.03125
143
0.03937007874
144
100.0
145
0.0
146
0.5
147
0.025
148
0.0
 69
0
 70
0
 71
0
 72
0
 73
0
 74
0
 75
0
 76
0
 77
1
 78
12
 79
3
170
0
171
3
172
1
173
0
174
0
175
0
176
0
177
0
178
0
179
2
271
2
272
2
273
2
274
3
275
0
276
0
277
2
278
46
279
2
280
0
281
0
282
0
283
0
284
8
285
0
286
0
288
1
289
3
290
0
340
4C
371
-2
372
-2
  0
DIMSTYLE
105
7F
330
4
100
AcDbSymbolTableRecord
100
AcDbDimStyleTableRecord
  2
EZ_M_20_H25_CM
 70
0
 40
1.0
 41
0.05
 42
0.025
 43
3.75
 44
0.07500000000000001
 45
0.0
 46
0.0
 47
0.0
 48
0.0
 49
2.5
140
0.05
141
2.5
142
0.025
143
0.03937007874
144
100.0
145
0.0
146
0.5
147
0.020000000000000004
148
0.0
 69
0
 70
0
 71
0
 72
0
 73
0
 74
0
 75
0
 76
0
 77
1
 78
12
 79
3
170
0
171
3
172
1
173
0
174
0
175
0
176
0
177
0
178
0
179
2
271
2
272
2
273
2
274
3
275
0
276
0
277
2
278
46
279
2
280
0
281
0
282
0
283
0
284
8
285
0
286
0
288
1
289
3
290
0
340
4C
371
-2
372
-2
  0
DIMSTYLE
105
80
330
4
100
AcDbSymbolTableRecord
100
AcDbDimStyleTableRecord
  2
EZ_M_10_H25_CM
 70
0
 40
1.0
 41
0.025
 42
0.0125
 43
3.75
 44
0.037500000000000006
 45
0.0
 46
0.0
 47
0.0
 48
0.0
 49
2.5
140
0.025
141
2.5
142
0.0125
143
0.03937007874
144
100.0
145
0.0
146
0.5
147
0.010000000000000002
148
0.0
 69
0
 70
0
 71
0
 72
0
 73
0
 74
0
 75
0
 76
0
 77
1
 78
12
 79
3
170
0
171
3
172
1
173
0
174
0
175
0
176
0
177
0
178
0
179
2
271
2
272
2
273
2
274
3
275
0
276
0
277
2
278
46
279
2
280
0
281
0
282
0
283
0
284
8
285
0
286
0
288
1
289
3
290
0
340
4C
371
-2
372
-2
  0
DIMSTYLE
105
81
330
4
100
AcDbSymbolTableRecord
100
AcDbDimStyleTableRecord
  2
EZ_M_5_H25_CM
 70
0
 40
1.0
 41
0.0125
 42
0.00625
 43
3.75
 44
0.018750000000000003
 45
0.0
 46
0.0
 47
0.0
 48
0.0
 49
2.5
140
0.0125
141
2.5
142
0.00625
143
0.03937007874
144
100.0
145
0.0
146
0.5
147
0.005000000000000001
148
0.0
 69
0
 70
0
 71
0
 72
0
 73
0
 74
0
 75
0
 76
0
 77
1
 78
12
 79
3
170
0
171
3
172
1
173
0
174
0
175
0
176
0
177
0
178
0
179
2
271
2
272
2
273
2
274
3
275
0
276
0
277
2
278
46
279
2
280
0
281
0
282
0
283
0
284
8
285
0
286
0
288
1
289
3
290
0
340
4C
371
-2
372
-2
  0
DIMSTYLE
105
82
330
4
100
AcDbSymbolTableRecord
100
AcDbDimStyleTableRecord
  2
EZ_M_1_H25_CM
 70
0
 40
1.0
 41
0.0025
 42
0.00125
 43
3.75
 44
0.00375
 45
0.0
 46
0.0
 47
0.0
 48
0.0
 49
2.5
140
0.0025
141
2.5
142
0.00125
143
0.03937007874
144
100.0
145
0.0
146
0.5
147
0.001
148
0.0
 69
0
 70
0
 71
0
 72
0
 73
0
 74
0
 75
0
 76
0
 77
1
 78
12
 79
3
170
0
171
3
172
1
173
0
174
0
175
0
176
0
177
0
178
0
179
2
271
2
272
2
273
2
274
3
275
0
276
0
277
2
278
46
279
2
280
0
281
0
282
0
283
0
284
8
285
0
286
0
288
1
289
3
290
0
340
4C
371
-2
372
-2
  0
DIMSTYLE
105
83
330
4
100
AcDbSymbolTableRecord
100
AcDbDimStyleTableRecord
  2
EZ_RADIUS
 70
0
 40
1.0
 41
0.25
 42
0.125
 43
3.75
 44
0.375
 45
0.0
 46
0.0
 47
0.0
 48
0.0
 49
2.5
140
0.25
141
0.0
142
0.0
143
0.03937007874
144
100.0
145
0.0
146
0.5
147
0.1
148
0.0
 69
0
 70
0
 71
0
 72
0
 73
0
 74
0
 75
0
 76
0
 77
1
 78
12
 79
3
170
0
171
3
172
0
173
0
174
0
175
0
176
0
177
0
178
0
179
2
271
2
272
2
273
2
274
3
275
0
276
0
277
2
278
46
279
1
280
0
281
0
282
0
283
0
284
8
285
0
286
0
288
1
289
3
290
0
340
4C
342
84
371
-2
372
-2
  0
DIMSTYLE
105
88
330
4
100
AcDbSymbolTableRecord
100
AcDbDimStyleTableRecord
  2
EZ_RADIUS_INSIDE
 70
0
 40
1.0
 41
0.25
 42
0.125
 43
3.75
 44
0.375
 45
0.0
 46
0.0
 47
0.0
 48
0.0
 49
2.5
140
0.25
141
0.0
142
0.0
143
0.03937007874
144
100.0
145
0.0
146
0.5
147
0.1
148
0.0
 69
0
 70
0
 71
0
 72
0
 73
0
 74
0
 75
0
 76
0
 77
0
 78
12
 79
3
170
0
171
3
172
0
173
0
174
1
175
0
176
0
177
0
178
0
179
2
271
2
272
2
273
2
274
3
275
0
276
0
277
2
278
46
279
0
280
0
281
0
282
0
283
0
284
8
285
0
286
0
288
1
289
0
290
0
340
4C
342
84
371
-2
372
-2
  0
DIMSTYLE
105
89
330
4
100
AcDbSymbolTableRecord
100
AcDbDimStyleTableRecord
  2
EZ_CURVED
 70
0
 40
1.0
 41
0.25
 42
0.125
 43
3.75
 44
0.375
 45
0.0
 46
0.0
 47
0.0
 48
0.0
 49
2.5
140
0.25
141
2.5
142
0.0
143
0.03937007874
144
100.0
145
0.0
146
0.5
147
0.1
148
0.0
 69
0
 70
0
 71
0
 72
0
 73
0
 74
0
 75
0
 76
0
 77
1
 78
12
 79
2
 90
2
170
0
171
3
172
1
173
0
174
0
175
0
176
0
177
0
178
0
179
2
271
2
272
2
273
2
274
3
275
0
276
0
277
2
278
46
279
2
280
0
281
0
282
0
283
0
284
8
285
0
286
0
288
1
289
3
290
0
340
4C
371
-2
372
-2
  0
DIMSTYLE
105
8A
330
4
100
AcDbSymbolTableRecord
100
AcDbDimStyleTableRecord
  2
COMP
 70
0
 40
1.0
 41
1.5
 42
0.5
 43
3.75
 44
0.8
 45
0.0
 46
0.0
 47
0.0
 48
0.0
 49
2.5
140
2.5
141
2.5
142
0.0
143
0.03937007874
144
1.0
145
0.0
146
1.0
147
0.6
148
0.0
 69
0
 70
0
 71
0
 72
0
 73
0
 74
0
 75
0
 76
0
 77
1
 78
8
 79
3
170
0
171
3
172
1
173
0
174
0
175
0
176
0
177
0
178
0
179
2
271
2
272
2
273
2
274
3
275
0
276
0
277
2
278
44
279
0
280
0
281
0
282
0
283
0
284
8
285
0
286
0
288
0
289
3
290
0
371
-2
372
-2
  0
ENDTAB
  0
TABLE
  2
BLOCK_RECORD
  5
9
330
0
100
AcDbSymbolTable
 70
7
  0
BLOCK_RECORD
  5
17
330
9
100
AcDbSymbolTableRecord
100
AcDbBlockTableRecord
  2
*Model_Space
340
1A
 70
0
280
1
281
0
  0
BLOCK_RECORD
  5
1B
330
9
100
AcDbSymbolTableRecord
100
AcDbBlockTableRecord
  2
*Paper_Space
340
1E
 70
0
280
1
281
0
  0
BLOCK_RECORD
  5
74
330
9
100
AcDbSymbolTableRecord
100
AcDbBlockTableRecord
  2
_ARCHTICK
340
0
 70
0
280
1
281
0
  0
BLOCK_RECORD
  5
78
330
9
100
AcDbSymbolTableRecord
100
AcDbBlockTableRecord
  2
_CLOSEDFILLED
340
0
 70
0
280
1
281
0
  0
BLOCK_RECORD
  5
84
330
9
100
AcDbSymbolTableRecord
100
AcDbBlockTableRecord
  2
_CLOSEDBLANK
340
0
 70
0
280
1
281
0
  0
BLOCK_RECORD
  5
1B6
330
9
100
AcDbSymbolTableRecord
100
AcDbBlockTableRecord
  2
*D1
340
0
 70
0
280
1
281
0
  0
BLOCK_RECORD
  5
1C6
330
9
100
AcDbSymbolTableRecord
100
AcDbBlockTableRecord
  2
*D2
340
0
 70
0
280
1
281
0
  0
ENDTAB
  0
ENDSEC
  0
SECTION
  2
BLOCKS
  0
BLOCK
  5
18
330
17
100
AcDbEntity
  8
0
100
AcDbBlockBegin
  2
*Model_Space
 70
0
 10
0.0
 20
0.0
 30
0.0
  3
*Model_Space
  1

  0
ENDBLK
  5
19
330
17
100
AcDbEntity
  8
0
100
AcDbBlockEnd
  0
BLOCK
  5
1C
330
1B
100
AcDbEntity
  8
0
100
AcDbBlockBegin
  2
*Paper_Space
 70
0
 10
0.0
 20
0.0
 30
0.0
  3
*Paper_Space
  1

  0
ENDBLK
  5
1D
330
1B
100
AcDbEntity
  8
0
100
AcDbBlockEnd
  0
BLOCK
  5
75
330
74
100
AcDbEntity
  8
0
100
AcDbBlockBegin
  2
_ARCHTICK
 70
0
 10
0.0
 20
0.0
 30
0.0
  3
_ARCHTICK
  1

  0
LWPOLYLINE
  5
77
330
74
100
AcDbEntity
  8
0
  6
BYBLOCK
 62
0
100
AcDbPolyline
 90
2
 70
0
 43
0.15
 10
-0.5
 20
-0.5
 10
0.5
 20
0.5
  0
ENDBLK
  5
76
330
74
100
AcDbEntity
  8
0
100
AcDbBlockEnd
  0
BLOCK
  5
79
330
78
100
AcDbEntity
  8
0
100
AcDbBlockBegin
  2
_CLOSEDFILLED
 70
0
 10
0.0
 20
0.0
 30
0.0
  3
_CLOSEDFILLED
  1

  0
SOLID
  5
7B
330
78
100
AcDbEntity
  8
0
  6
BYBLOCK
 62
0
100
AcDbTrace
 10
-1.0
 20
0.16439898372402537
 30
0.0
 11
0.0
 21
0.0
 31
0.0
 12
-1.0
 22
-0.16439898372402537
 32
0.0
 13
-1.0
 23
-0.16439898372402537
 33
0.0
  0
ENDBLK
  5
7A
330
78
100
AcDbEntity
  8
0
100
AcDbBlockEnd
  0
BLOCK
  5
85
330
84
100
AcDbEntity
  8
0
100
AcDbBlockBegin
  2
_CLOSEDBLANK
 70
0
 10
0.0
 20
0.0
 30
0.0
  3
_CLOSEDBLANK
  1

  0
LWPOLYLINE
  5
87
330
84
100
AcDbEntity
  8
0
  6
BYBLOCK
 62
0
100
AcDbPolyline
 90
3
 70
1
 10
-1.0
 20
0.16439898372402537
 10
0.0
 20
0.0
 10
-1.0
 20
-0.16439898372402537
  0
ENDBLK
  5
86
330
84
100
AcDbEntity
  8
0
100
AcDbBlockEnd
  0
BLOCK
  5
1B7
330
1B6
100
AcDbEntity
  8
0
100
AcDbBlockBegin
  2
*D1
 70
1
 10
0.0
 20
0.0
 30
0.0
  3
*D1
  1

  0
LINE
  5
1B9
330
1B6
100
AcDbEntity
  8
0
100
AcDbLine
 10
29.5
 20
280.0
 30
0.0
 11
19.2
 21
280.0
 31
0.0
  0
LINE
  5
1BA
330
1B6
100
AcDbEntity
  8
0
100
AcDbLine
 10
29.5
 20
495.0
 30
0.0
 11
19.2
 21
495.0
 31
0.0
  0
INSERT
  5
1BB
330
1B6
100
AcDbEntity
  8
0
100
AcDbBlockReference
  2
_CLOSEDFILLED
 10
20.0
 20
280.0
 30
0.0
 41
1.5
 42
1.5
 50
270.0
  0
INSERT
  5
1BD
330
1B6
100
AcDbEntity
  8
0
100
AcDbBlockReference
  2
_CLOSEDFILLED
 10
20.0
 20
495.0
 30
0.0
 41
1.5
 42
1.5
 50
90.0
  0
LINE
  5
1BF
330
1B6
100
AcDbEntity
  8
0
100
AcDbLine
 10
20.0
 20
281.5
 30
0.0
 11
20.0
 21
383.75
 31
0.0
  0
LINE
  5
1C0
330
1B6
100
AcDbEntity
  8
0
100
AcDbLine
 10
20.0
 20
391.25
 30
0.0
 11
20.0
 21
493.5
 31
0.0
  0
MTEXT
  5
1C1
330
1B6
100
AcDbEntity
  8
0
100
AcDbMText
 10
20.0
 20
387.5
 30
0.0
 40
2.5
 71
5
  1
215
  7
OpenSansCondensed-Light
 50
90.0
  0
POINT
  5
1C2
330
1B6
100
AcDbEntity
  8
Defpoints
100
AcDbPoint
 10
20.0
 20
280.0
 30
0.0
  0
POINT
  5
1C3
330
1B6
100
AcDbEntity
  8
Defpoints
100
AcDbPoint
 10
30.0
 20
280.0
 30
0.0
  0
POINT
  5
1C4
330
1B6
100
AcDbEntity
  8
Defpoints
100
AcDbPoint
 10
30.0
 20
495.0
 30
0.0
  0
ENDBLK
  5
1B8
330
1B6
100
AcDbEntity
  8
0
100
AcDbBlockEnd
  0
BLOCK
  5
1C7
330
1C6
100
AcDbEntity
  8
0
100
AcDbBlockBegin
  2
*D2
 70
1
 10
0.0
 20
0.0
 30
0.0
  3
*D2
  1

  0
LINE
  5
1C9
330
1C6
100
AcDbEntity
  8
0
100
AcDbLine
 10
30.0
 20
280.5
 30
0.0
 11
30.0
 21
510.8
 31
0.0
  0
LINE
  5
1CA
330
1C6
100
AcDbEntity
  8
0
100
AcDbLine
 10
141.55
 20
280.5
 30
0.0
 11
141.55
 21
510.8
 31
0.0
  0
INSERT
  5
1CB
330
1C6
100
AcDbEntity
  8
0
100
AcDbBlockReference
  2
_CLOSEDFILLED
 10
30.0
 20
510.0
 30
0.0
 41
1.5
 42
1.5
 50
180.0
  0
INSERT
  5
1CD
330
1C6
100
AcDbEntity
  8
0
100
AcDbBlockReference
  2
_CLOSEDFILLED
 10
141.55
 20
510.0
 30
0.0
 41
1.5
 42
1.5
  0
LINE
  5
1CF
330
1C6
100
AcDbEntity
  8
0
100
AcDbLine
 10
31.5
 20
510.0
 30
0.0
 11
78.275
 21
510.0
 31
0.0
  0
LINE
  5
1D0
330
1C6
100
AcDbEntity
  8
0
100
AcDbLine
 10
93.275
 20
510.0
 30
0.0
 11
140.05
 21
510.0
 31
0.0
  0
MTEXT
  5
1D1
330
1C6
100
AcDbEntity
  8
0
100
AcDbMText
 10
85.775
 20
510.0
 30
0.0
 40
2.5
 71
5
  1
111,55
  7
OpenSansCondensed-Light
  0
POINT
  5
1D2
330
1C6
100
AcDbEntity
  8
Defpoints
100
AcDbPoint
 10
30.0
 20
510.0
 30
0.0
  0
POINT
  5
1D3
330
1C6
100
AcDbEntity
  8
Defpoints
100
AcDbPoint
 10
30.0
 20
280.0
 30
0.0
  0
POINT
  5
1D4
330
1C6
100
AcDbEntity
  8
Defpoints
100
AcDbPoint
 10
141.55
 20
280.0
 30
0.0
  0
ENDBLK
  5
1C8
330
1C6
100
AcDbEntity
  8
0
100
AcDbBlockEnd
  0
ENDSEC
  0
SECTION
  2
ENTITIES
  0
LINE
  5
93
330
17
100
AcDbEntity
  8
OUTLINE
100
AcDbLine
 10
30.0
 20
280.0
 30
0.0
 11
30.0
 21
286.665
 31
0.0
  0
LINE
  5
94
330
17
100
AcDbEntity
  8
OUTLINE
100
AcDbLine
 10
141.55
 20
280.0
 30
0.0
 11
140.3472
 21
286.665
 31
0.0
  0
LINE
  5
95
330
17
100
AcDbEntity
  8
OUTLINE
100
AcDbLine
 10
30.0
 20
286.665
 30
0.0
 11
30.0
 21
293.33
 31
0.0
  0
LINE
  5
96
330
17
100
AcDbEntity
  8
OUTLINE
100
AcDbLine
 10
140.3472
 20
286.665
 30
0.0
 11
139.1444
 21
293.33
 31
0.0
  0
LINE
  5
97
330
17
100
AcDbEntity
  8
OUTLINE
100
AcDbLine
 10
30.0
 20
293.33
 30
0.0
 11
30.0
 21
299.995
 31
0.0
  0
LINE
  5
98
330
17
100
AcDbEntity
  8
OUTLINE
100
AcDbLine
 10
139.1444
 20
293.33
 30
0.0
 11
137.9416
 21
299.995
 31
0.0
  0
LINE
  5
99
330
17
100
AcDbEntity
  8
OUTLINE
100
AcDbLine
 10
30.0
 20
299.995
 30
0.0
 11
30.0
 21
306.66
 31
0.0
  0
LINE
  5
9A
330
17
100
AcDbEntity
  8
OUTLINE
100
AcDbLine
 10
137.9416
 20
299.995
 30
0.0
 11
136.7388
 21
306.66
 31
0.0
  0
LINE
  5
9B
330
17
100
AcDbEntity
  8
OUTLINE
100
AcDbLine
 10
30.0
 20
306.66
 30
0.0
 11
30.0
 21
313.325
 31
0.0
  0
LINE
  5
9C
330
17
100
AcDbEntity
  8
OUTLINE
100
AcDbLine
 10
136.7388
 20
306.66
 30
0.0
 11
135.536
 21
313.325
 31
0.0
  0
LINE
  5
9D
330
17
100
AcDbEntity
  8
OUTLINE
100
AcDbLine
 10
30.0
 20
313.325
 30
0.0
 11
30.0
 21
319.99
 31
0.0
  0
LINE
  5
9E
330
17
100
AcDbEntity
  8
OUTLINE
100
AcDbLine
 10
135.536
 20
313.325
 30
0.0
 11
134.3332
 21
319.99
 31
0.0
  0
LINE
  5
9F
330
17
100
AcDbEntity
  8
OUTLINE
100
AcDbLine
 10
30.0
 20
319.99
 30
0.0
 11
30.0
 21
326.65500000000003
 31
0.0
  0
LINE
  5
A0
330
17
100
AcDbEntity
  8
OUTLINE
100
AcDbLine
 10
134.3332
 20
319.99
 30
0.0
 11
133.1304
 21
326.65500000000003
 31
0.0
  0
LINE
  5
A1
330
17
100
AcDbEntity
  8
OUTLINE
100
AcDbLine
 10
30.0
 20
326.65500000000003
 30
0.0
 11
30.0
 21
333.32
 31
0.0
  0
LINE
  5
A2
330
17
100
AcDbEntity
  8
OUTLINE
100
AcDbLine
 10
133.1304
 20
326.65500000000003
 30
0.0
 11
131.92759999999998
 21
333.32
 31
0.0
  0
LINE
  5
A3
330
17
100
AcDbEntity
  8
OUTLINE
100
AcDbLine
 10
30.0
 20
333.32
 30
0.0
 11
30.0
 21
339.985
 31
0.0
  0
LINE
  5
A4
330
17
100
AcDbEntity
  8
OUTLINE
100
AcDbLine
 10
131.92759999999998
 20
333.32
 30
0.0
 11
130.72480000000002
 21
339.985
 31
0.0
  0
LINE
  5
A5
330
17
100
AcDbEntity
  8
OUTLINE
100
AcDbLine
 10
30.0
 20
339.985
 30
0.0
 11
30.0
 21
346.65
 31
0.0
  0
LINE
  5
A6
330
17
100
AcDbEntity
  8
OUTLINE
100
AcDbLine
 10
130.72480000000002
 20
339.985
 30
0.0
 11
129.522
 21
346.65
 31
0.0
  0
LINE
  5
A7
330
17
100
AcDbEntity
  8
OUTLINE
100
AcDbLine
 10
30.0
 20
346.65
 30
0.0
 11
30.0
 21
353.315
 31
0.0
  0
LINE
  5
A8
330
17
100
AcDbEntity
  8
OUTLINE
100
AcDbLine
 10
129.522
 20
346.65
 30
0.0
 11
128.3192
 21
353.315
 31
0.0
  0
LINE
  5
A9
330
17
100
AcDbEntity
  8
OUTLINE
100
AcDbLine
 10
30.0
 20
353.315
 30
0.0
 11
30.0
 21
359.98
 31
0.0
  0
LINE
  5
AA
330
17
100
AcDbEntity
  8
OUTLINE
100
AcDbLine
 10
128.3192
 20
353.315
 30
0.0
 11
127.1164
 21
359.98
 31
0.0
  0
LINE
  5
AB
330
17
100
AcDbEntity
  8
OUTLINE
100
AcDbLine
 10
30.0
 20
359.98
 30
0.0
 11
30.0
 21
366.645
 31
0.0
  0
LINE
  5
AC
330
17
100
AcDbEntity
  8
OUTLINE
100
AcDbLine
 10
127.1164
 20
359.98
 30
0.0
 11
125.91359999999999
 21
366.645
 31
0.0
  0
LINE
  5
AD
330
17
100
AcDbEntity
  8
OUTLINE
100
AcDbLine
 10
30.0
 20
366.645
 30
0.0
 11
30.0
 21
373.31
 31
0.0
  0
LINE
  5
AE
330
17
100
AcDbEntity
  8
OUTLINE
100
AcDbLine
 10
125.91359999999999
 20
366.645
 30
0.0
 11
124.71079999999999
 21
373.31
 31
0.0
  0
LINE
  5
AF
330
17
100
AcDbEntity
  8
OUTLINE
100
AcDbLine
 10
30.0
 20
373.31
 30
0.0
 11
30.0
 21
379.975
 31
0.0
  0
LINE
  5
B0
330
17
100
AcDbEntity
  8
OUTLINE
100
AcDbLine
 10
124.71079999999999
 20
373.31
 30
0.0
 11
123.50800000000001
 21
379.975
 31
0.0
  0
LINE
  5
B1
330
17
100
AcDbEntity
  8
OUTLINE
100
AcDbLine
 10
30.0
 20
379.975
 30
0.0
 11
30.0
 21
386.64
 31
0.0
  0
LINE
  5
B2
330
17
100
AcDbEntity
  8
OUTLINE
100
AcDbLine
 10
123.50800000000001
 20
379.975
 30
0.0
 11
122.3052
 21
386.64
 31
0.0
  0
LINE
  5
B3
330
17
100
AcDbEntity
  8
OUTLINE
100
AcDbLine
 10
30.0
 20
386.64
 30
0.0
 11
30.0
 21
393.305
 31
0.0
  0
LINE
  5
B4
330
17
100
AcDbEntity
  8
OUTLINE
100
AcDbLine
 10
122.3052
 20
386.64
 30
0.0
 11
121.1024
 21
393.305
 31
0.0
  0
LINE
  5
B5
330
17
100
AcDbEntity
  8
OUTLINE
100
AcDbLine
 10
30.0
 20
393.305
 30
0.0
 11
30.0
 21
399.97
 31
0.0
  0
LINE
  5
B6
330
17
100
AcDbEntity
  8
OUTLINE
100
AcDbLine
 10
121.1024
 20
393.305
 30
0.0
 11
119.8996
 21
399.97
 31
0.0
  0
LINE
  5
B7
330
17
100
AcDbEntity
  8
OUTLINE
100
AcDbLine
 10
30.0
 20
399.97
 30
0.0
 11
30.0
 21
406.635
 31
0.0
  0
LINE
  5
B8
330
17
100
AcDbEntity
  8
OUTLINE
100
AcDbLine
 10
119.8996
 20
399.97
 30
0.0
 11
118.6968
 21
406.635
 31
0.0
  0
LINE
  5
B9
330
17
100
AcDbEntity
  8
OUTLINE
100
AcDbLine
 10
30.0
 20
406.635
 30
0.0
 11
30.0
 21
413.3
 31
0.0
  0
LINE
  5
BA
330
17
100
AcDbEntity
  8
OUTLINE
100
AcDbLine
 10
118.6968
 20
406.635
 30
0.0
 11
117.494
 21
413.3
 31
0.0
  0
LINE
  5
BB
330
17
100
AcDbEntity
  8
OUTLINE
100
AcDbLine
 10
30.0
 20
413.3
 30
0.0
 11
30.0
 21
419.96500000000003
 31
0.0
  0
LINE
  5
BC
330
17
100
AcDbEntity
  8
OUTLINE
100
AcDbLine
 10
117.494
 20
413.3
 30
0.0
 11
116.29119999999999
 21
419.96500000000003
 31
0.0
  0
LINE
  5
BD
330
17
100
AcDbEntity
  8
OUTLINE
100
AcDbLine
 10
30.0
 20
419.96500000000003
 30
0.0
 11
30.0
 21
426.63
 31
0.0
  0
LINE
  5
BE
330
17
100
AcDbEntity
  8
OUTLINE
100
AcDbLine
 10
116.29119999999999
 20
419.96500000000003
 30
0.0
 11
115.0884
 21
426.63
 31
0.0
  0
LINE
  5
BF
330
17
100
AcDbEntity
  8
OUTLINE
100
AcDbLine
 10
30.0
 20
426.63
 30
0.0
 11
30.0
 21
433.29499999999996
 31
0.0
  0
LINE
  5
C0
330
17
100
AcDbEntity
  8
OUTLINE
100
AcDbLine
 10
115.0884
 20
426.63
 30
0.0
 11
113.8856
 21
433.29499999999996
 31
0.0
  0
LINE
  5
C1
330
17
100
AcDbEntity
  8
OUTLINE
100
AcDbLine
 10
30.0
 20
433.29499999999996
 30
0.0
 11
30.0
 21
439.96000000000004
 31
0.0
  0
LINE
  5
C2
330
17
100
AcDbEntity
  8
OUTLINE
100
AcDbLine
 10
113.8856
 20
433.29499999999996
 30
0.0
 11
112.68279999999999
 21
439.96000000000004
 31
0.0
  0
LINE
  5
C3
330
17
100
AcDbEntity
  8
OUTLINE
100
AcDbLine
 10
30.0
 20
439.96000000000004
 30
0.0
 11
30.0
 21
446.625
 31
0.0
  0
LINE
  5
C4
330
17
100
AcDbEntity
  8
OUTLINE
100
AcDbLine
 10
112.68279999999999
 20
439.96000000000004
 30
0.0
 11
111.48
 21
446.625
 31
0.0
  0
LINE
  5
C5
330
17
100
AcDbEntity
  8
OUTLINE
100
AcDbLine
 10
30.0
 20
446.625
 30
0.0
 11
30.0
 21
453.28999999999996
 31
0.0
  0
LINE
  5
C6
330
17
100
AcDbEntity
  8
OUTLINE
100
AcDbLine
 10
111.48
 20
446.625
 30
0.0
 11
110.27720000000001
 21
453.28999999999996
 31
0.0
  0
LINE
  5
C7
330
17
100
AcDbEntity
  8
OUTLINE
100
AcDbLine
 10
30.0
 20
453.28999999999996
 30
0.0
 11
30.0
 21
459.95500000000004
 31
0.0
  0
LINE
  5
C8
330
17
100
AcDbEntity
  8
OUTLINE
100
AcDbLine
 10
110.27720000000001
 20
453.28999999999996
 30
0.0
 11
109.0744
 21
459.95500000000004
 31
0.0
  0
LINE
  5
C9
330
17
100
AcDbEntity
  8
OUTLINE
100
AcDbLine
 10
30.0
 20
459.95500000000004
 30
0.0
 11
30.0
 21
466.62
 31
0.0
  0
LINE
  5
CA
330
17
100
AcDbEntity
  8
OUTLINE
100
AcDbLine
 10
109.0744
 20
459.95500000000004
 30
0.0
 11
107.8716
 21
466.62
 31
0.0
  0
LINE
  5
CB
330
17
100
AcDbEntity
  8
OUTLINE
100
AcDbLine
 10
30.0
 20
466.62
 30
0.0
 11
30.0
 21
473.285
 31
0.0
  0
LINE
  5
CC
330
17
100
AcDbEntity
  8
OUTLINE
100
AcDbLine
 10
107.8716
 20
466.62
 30
0.0
 11
106.6688
 21
473.285
 31
0.0
  0
LINE
  5
CD
330
17
100
AcDbEntity
  8
OUTLINE
100
AcDbLine
 10
30.0
 20
473.285
 30
0.0
 11
30.0
 21
479.95000000000005
 31
0.0
  0
LINE
  5
CE
330
17
100
AcDbEntity
  8
OUTLINE
100
AcDbLine
 10
106.6688
 20
473.285
 30
0.0
 11
105.466
 21
479.95000000000005
 31
0.0
  0
LINE
  5
CF
330
17
100
AcDbEntity
  8
OUTLINE
100
AcDbLine
 10
30.0
 20
479.95000000000005
 30
0.0
 11
63.0
 21
495.0
 31
0.0
  0
LINE
  5
D0
330
17
100
AcDbEntity
  8
OUTLINE
100
AcDbLine
 10
105.466
 20
479.95000000000005
 30
0.0
 11
121.19999999999999
 21
495.0
 31
0.0
  0
LINE
  5
D1
330
17
100
AcDbEntity
  8
OUTLINE
100
AcDbLine
 10
30.0
 20
280.0
 30
0.0
 11
141.55
 21
280.0
 31
0.0
  0
LINE
  5
D2
330
17
100
AcDbEntity
  8
OUTLINE
100
AcDbLine
 10
63.0
 20
495.0
 30
0.0
 11
121.19999999999999
 21
495.0
 31
0.0
  0
CIRCLE
  5
D3
330
17
100
AcDbEntity
  8
SPAR
100
AcDbCircle
 10
58.75
 20
280.0
 30
0.0
 40
1.5
  0
CIRCLE
  5
D4
330
17
100
AcDbEntity
  8
SPAR
100
AcDbCircle
 10
104.75
 20
280.0
 30
0.0
 40
1.0
  0
CIRCLE
  5
D5
330
17
100
AcDbEntity
  8
SPAR
100
AcDbCircle
 10
56.25
 20
333.75
 30
0.0
 40
1.5
  0
CIRCLE
  5
D6
330
17
100
AcDbEntity
  8
SPAR
100
AcDbCircle
 10
98.25
 20
333.75
 30
0.0
 40
1.0
  0
CIRCLE
  5
D7
330
17
100
AcDbEntity
  8
SPAR
100
AcDbCircle
 10
53.75
 20
387.5
 30
0.0
 40
1.5
  0
CIRCLE
  5
D8
330
17
100
AcDbEntity
  8
SPAR
100
AcDbCircle
 10
91.75
 20
387.5
 30
0.0
 40
1.0
  0
CIRCLE
  5
D9
330
17
100
AcDbEntity
  8
SPAR
100
AcDbCircle
 10
51.25
 20
441.25
 30
0.0
 40
1.5
  0
CIRCLE
  5
DA
330
17
100
AcDbEntity
  8
SPAR
100
AcDbCircle
 10
85.25
 20
441.25
 30
0.0
 40
1.0
  0
CIRCLE
  5
DB
330
17
100
AcDbEntity
  8
SPAR
100
AcDbCircle
 10
49.45
 20
479.95000000000005
 30
0.0
 40
1.5
  0
CIRCLE
  5
DC
330
17
100
AcDbEntity
  8
SPAR
100
AcDbCircle
 10
80.57
 20
479.95000000000005
 30
0.0
 40
1.0
  0
LINE
  5
DD
330
17
100
AcDbEntity
  8
CENTERLINE
100
AcDbLine
 10
58.75
 20
280.0
 30
0.0
 11
49.45
 21
479.95000000000005
 31
0.0
  0
LINE
  5
DE
330
17
100
AcDbEntity
  8
CENTERLINE
100
AcDbLine
 10
104.75
 20
280.0
 30
0.0
 11
80.57
 21
479.95000000000005
 31
0.0
  0
LINE
  5
DF
330
17
100
AcDbEntity
  8
RIB
100
AcDbLine
 10
30.45
 20
280.0
 30
0.0
 11
141.10000000000002
 21
280.0
 31
0.0
  0
LINE
  5
E0
330
17
100
AcDbEntity
  8
RIB
100
AcDbLine
 10
30.45
 20
305.0
 30
0.0
 11
136.58837209302328
 21
305.0
 31
0.0
  0
LINE
  5
E1
330
17
100
AcDbEntity
  8
RIB
100
AcDbLine
 10
30.45
 20
330.0
 30
0.0
 11
132.07674418604654
 21
330.0
 31
0.0
  0
LINE
  5
E2
330
17
100
AcDbEntity
  8
RIB
100
AcDbLine
 10
30.45
 20
355.0
 30
0.0
 11
127.56511627906978
 21
355.0
 31
0.0
  0
LINE
  5
E3
330
17
100
AcDbEntity
  8
RIB
100
AcDbLine
 10
30.45
 20
380.0
 30
0.0
 11
123.05348837209301
 21
380.0
 31
0.0
  0
LINE
  5
E4
330
17
100
AcDbEntity
  8
RIB
100
AcDbLine
 10
30.45
 20
405.0
 30
0.0
 11
118.54186046511627
 21
405.0
 31
0.0
  0
LINE
  5
E5
330
17
100
AcDbEntity
  8
RIB
100
AcDbLine
 10
30.45
 20
430.0
 30
0.0
 11
114.03023255813952
 21
430.0
 31
0.0
  0
LINE
  5
E6
330
17
100
AcDbEntity
  8
RIB
100
AcDbLine
 10
30.45
 20
455.0
 30
0.0
 11
109.51860465116279
 21
455.0
 31
0.0
  0
LINE
  5
E7
330
17
100
AcDbEntity
  8
OUTLINE
100
AcDbLine
 10
30.0
 20
70.0
 30
0.0
 11
32.231
 21
71.67233221484001
 31
0.0
  0
LINE
  5
E8
330
17
100
AcDbEntity
  8
OUTLINE
100
AcDbLine
 10
30.0
 20
70.0
 30
0.0
 11
32.231
 21
68.32766778515999
 31
0.0
  0
LINE
  5
E9
330
17
100
AcDbEntity
  8
OUTLINE
100
AcDbLine
 10
32.231
 20
71.67233221484001
 30
0.0
 11
34.462
 21
72.28910868736764
 31
0.0
  0
LINE
  5
EA
330
17
100
AcDbEntity
  8
OUTLINE
100
AcDbLine
 10
32.231
 20
68.32766778515999
 30
0.0
 11
34.462
 21
67.71089131263236
 31
0.0
  0
LINE
  5
EB
330
17
100
AcDbEntity
  8
OUTLINE
100
AcDbLine
 10
34.462
 20
72.28910868736764
 30
0.0
 11
36.693
 21
72.72364094809224
 31
0.0
  0
LINE
  5
EC
330
17
100
AcDbEntity
  8
OUTLINE
100
AcDbLine
 10
34.462
 20
67.71089131263236
 30
0.0
 11
36.693
 21
67.27635905190776
 31
0.0
  0
LINE
  5
ED
330
17
100
AcDbEntity
  8
OUTLINE
100
AcDbLine
 10
36.693
 20
72.72364094809224
 30
0.0
 11
38.924
 21
73.05933443571199
 31
0.0
  0
LINE
  5
EE
330
17
100
AcDbEntity
  8
OUTLINE
100
AcDbLine
 10
36.693
 20
67.27635905190776
 30
0.0
 11
38.924
 21
66.94066556428801
 31
0.0
  0
LINE
  5
EF
330
17
100
AcDbEntity
  8
OUTLINE
100
AcDbLine
 10
38.924
 20
73.05933443571199
 30
0.0
 11
41.155
 21
73.32878693725306
 31
0.0
  0
LINE
  5
F0
330
17
100
AcDbEntity
  8
OUTLINE
100
AcDbLine
 10
38.924
 20
66.94066556428801
 30
0.0
 11
41.155
 21
66.67121306274694
 31
0.0
  0
LINE
  5
F1
330
17
100
AcDbEntity
  8
OUTLINE
100
AcDbLine
 10
41.155
 20
73.32878693725306
 30
0.0
 11
43.385999999999996
 21
73.54893797811239
 31
0.0
  0
LINE
  5
F2
330
17
100
AcDbEntity
  8
OUTLINE
100
AcDbLine
 10
41.155
 20
66.67121306274694
 30
0.0
 11
43.385999999999996
 21
66.45106202188761
 31
0.0
  0
LINE
  5
F3
330
17
100
AcDbEntity
  8
OUTLINE
100
AcDbLine
 10
43.385999999999996
 20
73.54893797811239
 30
0.0
 11
45.617000000000004
 21
73.73002639128984
 31
0.0
  0
LINE
  5
F4
330
17
100
AcDbEntity
  8
OUTLINE
100
AcDbLine
 10
43.385999999999996
 20
66.45106202188761
 30
0.0
 11
45.617000000000004
 21
66.26997360871016
 31
0.0
  0
LINE
  5
F5
330
17
100
AcDbEntity
  8
OUTLINE
100
AcDbLine
 10
45.617000000000004
 20
73.73002639128984
 30
0.0
 11
47.848
 21
73.87886709791788
 31
0.0
  0
LINE
  5
F6
330
17
100
AcDbEntity
  8
OUTLINE
100
AcDbLine
 10
45.617000000000004
 20
66.26997360871016
 30
0.0
 11
47.848
 21
66.12113290208212
 31
0.0
  0
LINE
  5
F7
330
17
100
AcDbEntity
  8
OUTLINE
100
AcDbLine
 10
47.848
 20
73.87886709791788
 30
0.0
 11
50.07899999999999
 21
74.00031337106779
 31
0.0
  0
LINE
  5
F8
330
17
100
AcDbEntity
  8
OUTLINE
100
AcDbLine
 10
47.848
 20
66.12113290208212
 30
0.0
 11
50.07899999999999
 21
65.99968662893221
 31
0.0
  0
LINE
  5
F9
330
17
100
AcDbEntity
  8
OUTLINE
100
AcDbLine
 10
50.07899999999999
 20
74.00031337106779
 30
0.0
 11
52.31
 21
74.0979996667206
 31
0.0
  0
LINE
  5
FA
330
17
100
AcDbEntity
  8
OUTLINE
100
AcDbLine
 10
50.07899999999999
 20
65.99968662893221
 30
0.0
 11
52.31
 21
65.9020003332794
 31
0.0
  0
LINE
  5
FB
330
17
100
AcDbEntity
  8
OUTLINE
100
AcDbLine
 10
52.31
 20
74.0979996667206
 30
0.0
 11
54.541
 21
74.17475546173814
 31
0.0
  0
LINE
  5
FC
330
17
100
AcDbEntity
  8
OUTLINE
100
AcDbLine
 10
52.31
 20
65.9020003332794
 30
0.0
 11
54.541
 21
65.82524453826186
 31
0.0
  0
LINE
  5
FD
330
17
100
AcDbEntity
  8
OUTLINE
100
AcDbLine
 10
54.541
 20
74.17475546173814
 30
0.0
 11
56.772
 21
74.23285238846368
 31
0.0
  0
LINE
  5
FE
330
17
100
AcDbEntity
  8
OUTLINE
100
AcDbLine
 10
54.541
 20
65.82524453826186
 30
0.0
 11
56.772
 21
65.76714761153632
 31
0.0
  0
LINE
  5
FF
330
17
100
AcDbEntity
  8
OUTLINE
100
AcDbLine
 10
56.772
 20
74.23285238846368
 30
0.0
 11
59.003
 21
74.27416005960123
 31
0.0
  0
LINE
  5
100
330
17
100
AcDbEntity
  8
OUTLINE
100
AcDbLine
 10
56.772
 20
65.76714761153632
 30
0.0
 11
59.003
 21
65.72583994039877
 31
0.0
  0
LINE
  5
101
330
17
100
AcDbEntity
  8
OUTLINE
100
AcDbLine
 10
59.003
 20
74.27416005960123
 30
0.0
 11
61.234
 21
74.30024871533509
 31
0.0
  0
LINE
  5
102
330
17
100
AcDbEntity
  8
OUTLINE
100
AcDbLine
 10
59.003
 20
65.72583994039877
 30
0.0
 11
61.234
 21
65.69975128466491
 31
0.0
  0
LINE
  5
103
330
17
100
AcDbEntity
  8
OUTLINE
100
AcDbLine
 10
61.234
 20
74.30024871533509
 30
0.0
 11
63.464999999999996
 21
74.31245932241897
 31
0.0
  0
LINE
  5
104
330
17
100
AcDbEntity
  8
OUTLINE
100
AcDbLine
 10
61.234
 20
65.69975128466491
 30
0.0
 11
63.464999999999996
 21
65.68754067758103
 31
0.0
  0
LINE
  5
105
330
17
100
AcDbEntity
  8
OUTLINE
100
AcDbLine
 10
63.464999999999996
 20
74.31245932241897
 30
0.0
 11
65.696
 21
74.31195291523363
 31
0.0
  0
LINE
  5
106
330
17
100
AcDbEntity
  8
OUTLINE
100
AcDbLine
 10
63.464999999999996
 20
65.68754067758103
 30
0.0
 11
65.696
 21
65.68804708476637
 31
0.0
  0
LINE
  5
107
330
17
100
AcDbEntity
  8
OUTLINE
100
AcDbLine
 10
65.696
 20
74.31195291523363
 30
0.0
 11
67.927
 21
74.29974623122071
 31
0.0
  0
LINE
  5
108
330
17
100
AcDbEntity
  8
OUTLINE
100
AcDbLine
 10
65.696
 20
65.68804708476637
 30
0.0
 11
67.927
 21
65.70025376877929
 31
0.0
  0
LINE
  5
109
330
17
100
AcDbEntity
  8
OUTLINE
100
AcDbLine
 10
67.927
 20
74.29974623122071
 30
0.0
 11
70.15799999999999
 21
74.27673802507563
 31
0.0
  0
LINE
  5
10A
330
17
100
AcDbEntity
  8
OUTLINE
100
AcDbLine
 10
67.927
 20
65.70025376877929
 30
0.0
 11
70.15799999999999
 21
65.72326197492437
 31
0.0
  0
LINE
  5
10B
330
17
100
AcDbEntity
  8
OUTLINE
100
AcDbLine
 10
70.15799999999999
 20
74.27673802507563
 30
0.0
 11
72.389
 21
74.24372887904781
 31
0.0
  0
LINE
  5
10C
330
17
100
AcDbEntity
  8
OUTLINE
100
AcDbLine
 10
70.15799999999999
 20
65.72326197492437
 30
0.0
 11
72.389
 21
65.75627112095219
 31
0.0
  0
LINE
  5
10D
330
17
100
AcDbEntity
  8
OUTLINE
100
AcDbLine
 10
72.389
 20
74.24372887904781
 30
0.0
 11
74.62
 21
74.20143637242825
 31
0.0
  0
LINE
  5
10E
330
17
100
AcDbEntity
  8
OUTLINE
100
AcDbLine
 10
72.389
 20
65.75627112095219
 30
0.0
 11
74.62
 21
65.79856362757175
 31
0.0
  0
LINE
  5
10F
330
17
100
AcDbEntity
  8
OUTLINE
100
AcDbLine
 10
74.62
 20
74.20143637242825
 30
0.0
 11
76.851
 21
74.1505068736209
 31
0.0
  0
LINE
  5
110
330
17
100
AcDbEntity
  8
OUTLINE
100
AcDbLine
 10
74.62
 20
65.79856362757175
 30
0.0
 11
76.851
 21
65.8494931263791
 31
0.0
  0
LINE
  5
111
330
17
100
AcDbEntity
  8
OUTLINE
100
AcDbLine
 10
76.851
 20
74.1505068736209
 30
0.0
 11
79.082
 21
74.09152483078111
 31
0.0
  0
LINE
  5
112
330
17
100
AcDbEntity
  8
OUTLINE
100
AcDbLine
 10
76.851
 20
65.8494931263791
 30
0.0
 11
79.082
 21
65.90847516921889
 31
0.0
  0
LINE
  5
113
330
17
100
AcDbEntity
  8
OUTLINE
100
AcDbLine
 10
79.082
 20
74.09152483078111
 30
0.0
 11
81.31299999999999
 21
74.02502018052297
 31
0.0
  0
LINE
  5
114
330
17
100
AcDbEntity
  8
OUTLINE
100
AcDbLine
 10
79.082
 20
65.90847516921889
 30
0.0
 11
81.31299999999999
 21
65.97497981947703
 31
0.0
  0
LINE
  5
115
330
17
100
AcDbEntity
  8
OUTLINE
100
AcDbLine
 10
81.31299999999999
 20
74.02502018052297
 30
0.0
 11
83.544
 21
73.95147432065006
 31
0.0
  0
LINE
  5
116
330
17
100
AcDbEntity
  8
OUTLINE
100
AcDbLine
 10
81.31299999999999
 20
65.97497981947703
 30
0.0
 11
83.544
 21
66.04852567934994
 31
0.0
  0
LINE
  5
117
330
17
100
AcDbEntity
  8
OUTLINE
100
AcDbLine
 10
83.544
 20
73.95147432065006
 30
0.0
 11
85.775
 21
73.87132497310712
 31
0.0
  0
LINE
  5
118
330
17
100
AcDbEntity
  8
OUTLINE
100
AcDbLine
 10
83.544
 20
66.04852567934994
 30
0.0
 11
85.775
 21
66.12867502689288
 31
0.0
  0
LINE
  5
119
330
17
100
AcDbEntity
  8
OUTLINE
100
AcDbLine
 10
85.775
 20
73.87132497310712
 30
0.0
 11
88.006
 21
73.78497017923489
 31
0.0
  0
LINE
  5
11A
330
17
100
AcDbEntity
  8
OUTLINE
100
AcDbLine
 10
85.775
 20
66.12867502689288
 30
0.0
 11
88.006
 21
66.21502982076511
 31
0.0
  0
LINE
  5
11B
330
17
100
AcDbEntity
  8
OUTLINE
100
AcDbLine
 10
88.006
 20
73.78497017923489
 30
0.0
 11
90.237
 21
73.6927716093729
 31
0.0
  0
LINE
  5
11C
330
17
100
AcDbEntity
  8
OUTLINE
100
AcDbLine
 10
88.006
 20
66.21502982076511
 30
0.0
 11
90.237
 21
66.3072283906271
 31
0.0
  0
LINE
  5
11D
330
17
100
AcDbEntity
  8
OUTLINE
100
AcDbLine
 10
90.237
 20
73.6927716093729
 30
0.0
 11
92.468
 21
73.5950573253679
 31
0.0
  0
LINE
  5
11E
330
17
100
AcDbEntity
  8
OUTLINE
100
AcDbLine
 10
90.237
 20
66.3072283906271
 30
0.0
 11
92.468
 21
66.4049426746321
 31
0.0
  0
LINE
  5
11F
330
17
100
AcDbEntity
  8
OUTLINE
100
AcDbLine
 10
92.468
 20
73.5950573253679
 30
0.0
 11
94.699
 21
73.4921241026231
 31
0.0
  0
LINE
  5
120
330
17
100
AcDbEntity
  8
OUTLINE
100
AcDbLine
 10
92.468
 20
66.4049426746321
 30
0.0
 11
94.699
 21
66.5078758973769
 31
0.0
  0
LINE
  5
121
330
17
100
AcDbEntity
  8
OUTLINE
100
AcDbLine
 10
94.699
 20
73.4921241026231
 30
0.0
 11
96.92999999999999
 21
73.38423939459653
 31
0.0
  0
LINE
  5
122
330
17
100
AcDbEntity
  8
OUTLINE
100
AcDbLine
 10
94.699
 20
66.5078758973769
 30
0.0
 11
96.92999999999999
 21
66.61576060540347
 31
0.0
  0
LINE
  5
123
330
17
100
AcDbEntity
  8
OUTLINE
100
AcDbLine
 10
96.92999999999999
 20
73.38423939459653
 30
0.0
 11
99.16099999999999
 21
73.27164300482214
 31
0.0
  0
LINE
  5
124
330
17
100
AcDbEntity
  8
OUTLINE
100
AcDbLine
 10
96.92999999999999
 20
66.61576060540347
 30
0.0
 11
99.16099999999999
 21
66.72835699517786
 31
0.0
  0
LINE
  5
125
330
17
100
AcDbEntity
  8
OUTLINE
100
AcDbLine
 10
99.16099999999999
 20
73.27164300482214
 30
0.0
 11
101.392
 21
73.15454851797617
 31
0.0
  0
LINE
  5
126
330
17
100
AcDbEntity
  8
OUTLINE
100
AcDbLine
 10
99.16099999999999
 20
66.72835699517786
 30
0.0
 11
101.392
 21
66.84545148202383
 31
0.0
  0
LINE
  5
127
330
17
100
AcDbEntity
  8
OUTLINE
100
AcDbLine
 10
101.392
 20
73.15454851797617
 30
0.0
 11
103.623
 21
73.0331445311178
 31
0.0
  0
LINE
  5
128
330
17
100
AcDbEntity
  8
OUTLINE
100
AcDbLine
 10
101.392
 20
66.84545148202383
 30
0.0
 11
103.623
 21
66.9668554688822
 31
0.0
  0
LINE
  5
129
330
17
100
AcDbEntity
  8
OUTLINE
100
AcDbLine
 10
103.623
 20
73.0331445311178
 30
0.0
 11
105.85400000000001
 21
72.90759571818397
 31
0.0
  0
LINE
  5
12A
330
17
100
AcDbEntity
  8
OUTLINE
100
AcDbLine
 10
103.623
 20
66.9668554688822
 30
0.0
 11
105.85400000000001
 21
67.09240428181603
 31
0.0
  0
LINE
  5
12B
330
17
100
AcDbEntity
  8
OUTLINE
100
AcDbLine
 10
105.85400000000001
 20
72.90759571818397
 30
0.0
 11
108.085
 21
72.77804375453576
 31
0.0
  0
LINE
  5
12C
330
17
100
AcDbEntity
  8
OUTLINE
100
AcDbLine
 10
105.85400000000001
 20
67.09240428181603
 30
0.0
 11
108.085
 21
67.22195624546424
 31
0.0
  0
LINE
  5
12D
330
17
100
AcDbEntity
  8
OUTLINE
100
AcDbLine
 10
108.085
 20
72.77804375453576
 30
0.0
 11
110.31599999999999
 21
72.64460812340747
 31
0.0
  0
LINE
  5
12E
330
17
100
AcDbEntity
  8
OUTLINE
100
AcDbLine
 10
108.085
 20
67.22195624546424
 30
0.0
 11
110.31599999999999
 21
67.35539187659253
 31
0.0
  0
LINE
  5
12F
330
17
100
AcDbEntity
  8
OUTLINE
100
AcDbLine
 10
110.31599999999999
 20
72.64460812340747
 30
0.0
 11
112.547
 21
72.50738682218886
 31
0.0
  0
LINE
  5
130
330
17
100
AcDbEntity
  8
OUTLINE
100
AcDbLine
 10
110.31599999999999
 20
67.35539187659253
 30
0.0
 11
112.547
 21
67.49261317781114
 31
0.0
  0
LINE
  5
131
330
17
100
AcDbEntity
  8
OUTLINE
100
AcDbLine
 10
112.547
 20
72.50738682218886
 30
0.0
 11
114.77799999999999
 21
72.36645698333965
 31
0.0
  0
LINE
  5
132
330
17
100
AcDbEntity
  8
OUTLINE
100
AcDbLine
 10
112.547
 20
67.49261317781114
 30
0.0
 11
114.77799999999999
 21
67.63354301666035
 31
0.0
  0
LINE
  5
133
330
17
100
AcDbEntity
  8
OUTLINE
100
AcDbLine
 10
114.77799999999999
 20
72.36645698333965
 30
0.0
 11
117.009
 21
72.22187542221852
 31
0.0
  0
LINE
  5
134
330
17
100
AcDbEntity
  8
OUTLINE
100
AcDbLine
 10
114.77799999999999
 20
67.63354301666035
 30
0.0
 11
117.009
 21
67.77812457778148
 31
0.0
  0
LINE
  5
135
330
17
100
AcDbEntity
  8
OUTLINE
100
AcDbLine
 10
117.009
 20
72.22187542221852
 30
0.0
 11
119.24000000000001
 21
72.0736791220741
 31
0.0
  0
LINE
  5
136
330
17
100
AcDbEntity
  8
OUTLINE
100
AcDbLine
 10
117.009
 20
67.77812457778148
 30
0.0
 11
119.24000000000001
 21
67.9263208779259
 31
0.0
  0
LINE
  5
137
330
17
100
AcDbEntity
  8
OUTLINE
100
AcDbLine
 10
119.24000000000001
 20
72.0736791220741
 30
0.0
 11
121.47099999999999
 21
71.92188566478882
 31
0.0
  0
LINE
  5
138
330
17
100
AcDbEntity
  8
OUTLINE
100
AcDbLine
 10
119.24000000000001
 20
67.9263208779259
 30
0.0
 11
121.47099999999999
 21
68.07811433521118
 31
0.0
  0
LINE
  5
139
330
17
100
AcDbEntity
  8
OUTLINE
100
AcDbLine
 10
121.47099999999999
 20
71.92188566478882
 30
0.0
 11
123.702
 21
71.76649361461236
 31
0.0
  0
LINE
  5
13A
330
17
100
AcDbEntity
  8
OUTLINE
100
AcDbLine
 10
121.47099999999999
 20
68.07811433521118
 30
0.0
 11
123.702
 21
68.23350638538764
 31
0.0
  0
LINE
  5
13B
330
17
100
AcDbEntity
  8
OUTLINE
100
AcDbLine
 10
123.702
 20
71.76649361461236
 30
0.0
 11
125.93299999999999
 21
71.60748286100758
 31
0.0
  0
LINE
  5
13C
330
17
100
AcDbEntity
  8
OUTLINE
100
AcDbLine
 10
123.702
 20
68.23350638538764
 30
0.0
 11
125.93299999999999
 21
68.39251713899242
 31
0.0
  0
LINE
  5
13D
330
17
100
AcDbEntity
  8
OUTLINE
100
AcDbLine
 10
125.93299999999999
 20
71.60748286100758
 30
0.0
 11
128.164
 21
71.44481492581062
 31
0.0
  0
LINE
  5
13E
330
17
100
AcDbEntity
  8
OUTLINE
100
AcDbLine
 10
125.93299999999999
 20
68.39251713899242
 30
0.0
 11
128.164
 21
68.55518507418938
 31
0.0
  0
LINE
  5
13F
330
17
100
AcDbEntity
  8
OUTLINE
100
AcDbLine
 10
128.164
 20
71.44481492581062
 30
0.0
 11
130.39499999999998
 21
71.27843323914281
 31
0.0
  0
LINE
  5
140
330
17
100
AcDbEntity
  8
OUTLINE
100
AcDbLine
 10
128.164
 20
68.55518507418938
 30
0.0
 11
130.39499999999998
 21
68.72156676085719
 31
0.0
  0
LINE
  5
141
330
17
100
AcDbEntity
  8
OUTLINE
100
AcDbLine
 10
130.39499999999998
 20
71.27843323914281
 30
0.0
 11
132.62599999999998
 21
71.10826338787426
 31
0.0
  0
LINE
  5
142
330
17
100
AcDbEntity
  8
OUTLINE
100
AcDbLine
 10
130.39499999999998
 20
68.72156676085719
 30
0.0
 11
132.62599999999998
 21
68.89173661212574
 31
0.0
  0
LINE
  5
143
330
17
100
AcDbEntity
  8
OUTLINE
100
AcDbLine
 10
132.62599999999998
 20
71.10826338787426
 30
0.0
 11
134.857
 21
70.93421333990425
 31
0.0
  0
LINE
  5
144
330
17
100
AcDbEntity
  8
OUTLINE
100
AcDbLine
 10
132.62599999999998
 20
68.89173661212574
 30
0.0
 11
134.857
 21
69.06578666009575
 31
0.0
  0
LINE
  5
145
330
17
100
AcDbEntity
  8
OUTLINE
100
AcDbLine
 10
134.857
 20
70.93421333990425
 30
0.0
 11
137.088
 21
70.75617364707475
 31
0.0
  0
LINE
  5
146
330
17
100
AcDbEntity
  8
OUTLINE
100
AcDbLine
 10
134.857
 20
69.06578666009575
 30
0.0
 11
137.088
 21
69.24382635292525
 31
0.0
  0
LINE
  5
147
330
17
100
AcDbEntity
  8
OUTLINE
100
AcDbLine
 10
137.088
 20
70.75617364707475
 30
0.0
 11
139.31900000000002
 21
70.57401762915352
 31
0.0
  0
LINE
  5
148
330
17
100
AcDbEntity
  8
OUTLINE
100
AcDbLine
 10
137.088
 20
69.24382635292525
 30
0.0
 11
139.31900000000002
 21
69.42598237084648
 31
0.0
  0
LINE
  5
149
330
17
100
AcDbEntity
  8
OUTLINE
100
AcDbLine
 10
139.31900000000002
 20
70.57401762915352
 30
0.0
 11
141.55
 21
70.38760154100157
 31
0.0
  0
LINE
  5
14A
330
17
100
AcDbEntity
  8
OUTLINE
100
AcDbLine
 10
139.31900000000002
 20
69.42598237084648
 30
0.0
 11
141.55
 21
69.61239845899843
 31
0.0
  0
LINE
  5
14B
330
17
100
AcDbEntity
  8
OUTLINE
100
AcDbLine
 10
141.55
 20
70.38760154100157
 30
0.0
 11
141.55
 21
69.61239845899843
 31
0.0
  0
LINE
  5
14C
330
17
100
AcDbEntity
  8
STRUCTURE
100
AcDbLine
 10
30.0
 20
70.0
 30
0.0
 11
32.231
 21
71.22233221484001
 31
0.0
  0
LINE
  5
14D
330
17
100
AcDbEntity
  8
STRUCTURE
100
AcDbLine
 10
30.0
 20
70.0
 30
0.0
 11
32.231
 21
68.77766778515999
 31
0.0
  0
LINE
  5
14E
330
17
100
AcDbEntity
  8
STRUCTURE
100
AcDbLine
 10
32.231
 20
71.22233221484001
 30
0.0
 11
34.462
 21
71.83910868736764
 31
0.0
  0
LINE
  5
14F
330
17
100
AcDbEntity
  8
STRUCTURE
100
AcDbLine
 10
32.231
 20
68.77766778515999
 30
0.0
 11
34.462
 21
68.16089131263236
 31
0.0
  0
LINE
  5
150
330
17
100
AcDbEntity
  8
STRUCTURE
100
AcDbLine
 10
34.462
 20
71.83910868736764
 30
0.0
 11
36.693
 21
72.27364094809224
 31
0.0
  0
LINE
  5
151
330
17
100
AcDbEntity
  8
STRUCTURE
100
AcDbLine
 10
34.462
 20
68.16089131263236
 30
0.0
 11
36.693
 21
67.72635905190776
 31
0.0
  0
LINE
  5
152
330
17
100
AcDbEntity
  8
STRUCTURE
100
AcDbLine
 10
36.693
 20
72.27364094809224
 30
0.0
 11
38.924
 21
72.609334435712
 31
0.0
  0
LINE
  5
153
330
17
100
AcDbEntity
  8
STRUCTURE
100
AcDbLine
 10
36.693
 20
67.72635905190776
 30
0.0
 11
38.924
 21
67.390665564288
 31
0.0
  0
LINE
  5
154
330
17
100
AcDbEntity
  8
STRUCTURE
100
AcDbLine
 10
38.924
 20
72.609334435712
 30
0.0
 11
41.155
 21
72.87878693725307
 31
0.0
  0
LINE
  5
155
330
17
100
AcDbEntity
  8
STRUCTURE
100
AcDbLine
 10
38.924
 20
67.390665564288
 30
0.0
 11
41.155
 21
67.12121306274693
 31
0.0
  0
LINE
  5
156
330
17
100
AcDbEntity
  8
STRUCTURE
100
AcDbLine
 10
41.155
 20
72.87878693725307
 30
0.0
 11
43.385999999999996
 21
73.09893797811239
 31
0.0
  0
LINE
  5
157
330
17
100
AcDbEntity
  8
STRUCTURE
100
AcDbLine
 10
41.155
 20
67.12121306274693
 30
0.0
 11
43.385999999999996
 21
66.90106202188761
 31
0.0
  0
LINE
  5
158
330
17
100
AcDbEntity
  8
STRUCTURE
100
AcDbLine
 10
43.385999999999996
 20
73.09893797811239
 30
0.0
 11
45.617000000000004
 21
73.28002639128984
 31
0.0
  0
LINE
  5
159
330
17
100
AcDbEntity
  8
STRUCTURE
100
AcDbLine
 10
43.385999999999996
 20
66.90106202188761
 30
0.0
 11
45.617000000000004
 21
66.71997360871016
 31
0.0
  0
LINE
  5
15A
330
17
100
AcDbEntity
  8
STRUCTURE
100
AcDbLine
 10
45.617000000000004
 20
73.28002639128984
 30
0.0
 11
47.848
 21
73.42886709791787
 31
0.0
  0
LINE
  5
15B
330
17
100
AcDbEntity
  8
STRUCTURE
100
AcDbLine
 10
45.617000000000004
 20
66.71997360871016
 30
0.0
 11
47.848
 21
66.57113290208213
 31
0.0
  0
LINE
  5
15C
330
17
100
AcDbEntity
  8
STRUCTURE
100
AcDbLine
 10
47.848
 20
73.42886709791787
 30
0.0
 11
50.07899999999999
 21
73.55031337106779
 31
0.0
  0
LINE
  5
15D
330
17
100
AcDbEntity
  8
STRUCTURE
100
AcDbLine
 10
47.848
 20
66.57113290208213
 30
0.0
 11
50.07899999999999
 21
66.44968662893221
 31
0.0
  0
LINE
  5
15E
330
17
100
AcDbEntity
  8
STRUCTURE
100
AcDbLine
 10
50.07899999999999
 20
73.55031337106779
 30
0.0
 11
52.31
 21
73.6479996667206
 31
0.0
  0
LINE
  5
15F
330
17
100
AcDbEntity
  8
STRUCTURE
100
AcDbLine
 10
50.07899999999999
 20
66.44968662893221
 30
0.0
 11
52.31
 21
66.3520003332794
 31
0.0
  0
LINE
  5
160
330
17
100
AcDbEntity
  8
STRUCTURE
100
AcDbLine
 10
52.31
 20
73.6479996667206
 30
0.0
 11
54.541
 21
73.72475546173814
 31
0.0
  0
LINE
  5
161
330
17
100
AcDbEntity
  8
STRUCTURE
100
AcDbLine
 10
52.31
 20
66.3520003332794
 30
0.0
 11
54.541
 21
66.27524453826186
 31
0.0
  0
LINE
  5
162
330
17
100
AcDbEntity
  8
STRUCTURE
100
AcDbLine
 10
54.541
 20
73.72475546173814
 30
0.0
 11
56.772
 21
73.78285238846368
 31
0.0
  0
LINE
  5
163
330
17
100
AcDbEntity
  8
STRUCTURE
100
AcDbLine
 10
54.541
 20
66.27524453826186
 30
0.0
 11
56.772
 21
66.21714761153632
 31
0.0
  0
LINE
  5
164
330
17
100
AcDbEntity
  8
STRUCTURE
100
AcDbLine
 10
56.772
 20
73.78285238846368
 30
0.0
 11
59.003
 21
73.82416005960123
 31
0.0
  0
LINE
  5
165
330
17
100
AcDbEntity
  8
STRUCTURE
100
AcDbLine
 10
56.772
 20
66.21714761153632
 30
0.0
 11
59.003
 21
66.17583994039877
 31
0.0
  0
LINE
  5
166
330
17
100
AcDbEntity
  8
STRUCTURE
100
AcDbLine
 10
59.003
 20
73.82416005960123
 30
0.0
 11
61.234
 21
73.85024871533508
 31
0.0
  0
LINE
  5
167
330
17
100
AcDbEntity
  8
STRUCTURE
100
AcDbLine
 10
59.003
 20
66.17583994039877
 30
0.0
 11
61.234
 21
66.14975128466492
 31
0.0
  0
LINE
  5
168
330
17
100
AcDbEntity
  8
STRUCTURE
100
AcDbLine
 10
61.234
 20
73.85024871533508
 30
0.0
 11
63.464999999999996
 21
73.86245932241897
 31
0.0
  0
LINE
  5
169
330
17
100
AcDbEntity
  8
STRUCTURE
100
AcDbLine
 10
61.234
 20
66.14975128466492
 30
0.0
 11
63.464999999999996
 21
66.13754067758103
 31
0.0
  0
LINE
  5
16A
330
17
100
AcDbEntity
  8
STRUCTURE
100
AcDbLine
 10
63.464999999999996
 20
73.86245932241897
 30
0.0
 11
65.696
 21
73.86195291523364
 31
0.0
  0
LINE
  5
16B
330
17
100
AcDbEntity
  8
STRUCTURE
100
AcDbLine
 10
63.464999999999996
 20
66.13754067758103
 30
0.0
 11
65.696
 21
66.13804708476636
 31
0.0
  0
LINE
  5
16C
330
17
100
AcDbEntity
  8
STRUCTURE
100
AcDbLine
 10
65.696
 20
73.86195291523364
 30
0.0
 11
67.927
 21
73.8497462312207
 31
0.0
  0
LINE
  5
16D
330
17
100
AcDbEntity
  8
STRUCTURE
100
AcDbLine
 10
65.696
 20
66.13804708476636
 30
0.0
 11
67.927
 21
66.1502537687793
 31
0.0
  0
LINE
  5
16E
330
17
100
AcDbEntity
  8
STRUCTURE
100
AcDbLine
 10
67.927
 20
73.8497462312207
 30
0.0
 11
70.15799999999999
 21
73.82673802507563
 31
0.0
  0
LINE
  5
16F
330
17
100
AcDbEntity
  8
STRUCTURE
100
AcDbLine
 10
67.927
 20
66.1502537687793
 30
0.0
 11
70.15799999999999
 21
66.17326197492437
 31
0.0
  0
LINE
  5
170
330
17
100
AcDbEntity
  8
STRUCTURE
100
AcDbLine
 10
70.15799999999999
 20
73.82673802507563
 30
0.0
 11
72.389
 21
73.79372887904782
 31
0.0
  0
LINE
  5
171
330
17
100
AcDbEntity
  8
STRUCTURE
100
AcDbLine
 10
70.15799999999999
 20
66.17326197492437
 30
0.0
 11
72.389
 21
66.20627112095218
 31
0.0
  0
LINE
  5
172
330
17
100
AcDbEntity
  8
STRUCTURE
100
AcDbLine
 10
72.389
 20
73.79372887904782
 30
0.0
 11
74.62
 21
73.75143637242824
 31
0.0
  0
LINE
  5
173
330
17
100
AcDbEntity
  8
STRUCTURE
100
AcDbLine
 10
72.389
 20
66.20627112095218
 30
0.0
 11
74.62
 21
66.24856362757176
 31
0.0
  0
LINE
  5
174
330
17
100
AcDbEntity
  8
STRUCTURE
100
AcDbLine
 10
74.62
 20
73.75143637242824
 30
0.0
 11
76.851
 21
73.7005068736209
 31
0.0
  0
LINE
  5
175
330
17
100
AcDbEntity
  8
STRUCTURE
100
AcDbLine
 10
74.62
 20
66.24856362757176
 30
0.0
 11
76.851
 21
66.2994931263791
 31
0.0
  0
LINE
  5
176
330
17
100
AcDbEntity
  8
STRUCTURE
100
AcDbLine
 10
76.851
 20
73.7005068736209
 30
0.0
 11
79.082
 21
73.64152483078111
 31
0.0
  0
LINE
  5
177
330
17
100
AcDbEntity
  8
STRUCTURE
100
AcDbLine
 10
76.851
 20
66.2994931263791
 30
0.0
 11
79.082
 21
66.35847516921889
 31
0.0
  0
LINE
  5
178
330
17
100
AcDbEntity
  8
STRUCTURE
100
AcDbLine
 10
79.082
 20
73.64152483078111
 30
0.0
 11
81.31299999999999
 21
73.57502018052297
 31
0.0
  0
LINE
  5
179
330
17
100
AcDbEntity
  8
STRUCTURE
100
AcDbLine
 10
79.082
 20
66.35847516921889
 30
0.0
 11
81.31299999999999
 21
66.42497981947703
 31
0.0
  0
LINE
  5
17A
330
17
100
AcDbEntity
  8
STRUCTURE
100
AcDbLine
 10
81.31299999999999
 20
73.57502018052297
 30
0.0
 11
83.544
 21
73.50147432065006
 31
0.0
  0
LINE
  5
17B
330
17
100
AcDbEntity
  8
STRUCTURE
100
AcDbLine
 10
81.31299999999999
 20
66.42497981947703
 30
0.0
 11
83.544
 21
66.49852567934994
 31
0.0
  0
LINE
  5
17C
330
17
100
AcDbEntity
  8
STRUCTURE
100
AcDbLine
 10
83.544
 20
73.50147432065006
 30
0.0
 11
85.775
 21
73.42132497310712
 31
0.0
  0
LINE
  5
17D
330
17
100
AcDbEntity
  8
STRUCTURE
100
AcDbLine
 10
83.544
 20
66.49852567934994
 30
0.0
 11
85.775
 21
66.57867502689288
 31
0.0
  0
LINE
  5
17E
330
17
100
AcDbEntity
  8
STRUCTURE
100
AcDbLine
 10
85.775
 20
73.42132497310712
 30
0.0
 11
88.006
 21
73.33497017923489
 31
0.0
  0
LINE
  5
17F
330
17
100
AcDbEntity
  8
STRUCTURE
100
AcDbLine
 10
85.775
 20
66.57867502689288
 30
0.0
 11
88.006
 21
66.66502982076511
 31
0.0
  0
LINE
  5
180
330
17
100
AcDbEntity
  8
STRUCTURE
100
AcDbLine
 10
88.006
 20
73.33497017923489
 30
0.0
 11
90.237
 21
73.2427716093729
 31
0.0
  0
LINE
  5
181
330
17
100
AcDbEntity
  8
STRUCTURE
100
AcDbLine
 10
88.006
 20
66.66502982076511
 30
0.0
 11
90.237
 21
66.7572283906271
 31
0.0
  0
LINE
  5
182
330
17
100
AcDbEntity
  8
STRUCTURE
100
AcDbLine
 10
90.237
 20
73.2427716093729
 30
0.0
 11
92.468
 21
73.1450573253679
 31
0.0
  0
LINE
  5
183
330
17
100
AcDbEntity
  8
STRUCTURE
100
AcDbLine
 10
90.237
 20
66.7572283906271
 30
0.0
 11
92.468
 21
66.8549426746321
 31
0.0
  0
LINE
  5
184
330
17
100
AcDbEntity
  8
STRUCTURE
100
AcDbLine
 10
92.468
 20
73.1450573253679
 30
0.0
 11
94.699
 21
73.04212410262309
 31
0.0
  0
LINE
  5
185
330
17
100
AcDbEntity
  8
STRUCTURE
100
AcDbLine
 10
92.468
 20
66.8549426746321
 30
0.0
 11
94.699
 21
66.95787589737691
 31
0.0
  0
LINE
  5
186
330
17
100
AcDbEntity
  8
STRUCTURE
100
AcDbLine
 10
94.699
 20
73.04212410262309
 30
0.0
 11
96.92999999999999
 21
72.93423939459653
 31
0.0
  0
LINE
  5
187
330
17
100
AcDbEntity
  8
STRUCTURE
100
AcDbLine
 10
94.699
 20
66.95787589737691
 30
0.0
 11
96.92999999999999
 21
67.06576060540347
 31
0.0
  0
LINE
  5
188
330
17
100
AcDbEntity
  8
STRUCTURE
100
AcDbLine
 10
96.92999999999999
 20
72.93423939459653
 30
0.0
 11
99.16099999999999
 21
72.82164300482214
 31
0.0
  0
LINE
  5
189
330
17
100
AcDbEntity
  8
STRUCTURE
100
AcDbLine
 10
96.92999999999999
 20
67.06576060540347
 30
0.0
 11
99.16099999999999
 21
67.17835699517786
 31
0.0
  0
LINE
  5
18A
330
17
100
AcDbEntity
  8
STRUCTURE
100
AcDbLine
 10
99.16099999999999
 20
72.82164300482214
 30
0.0
 11
101.392
 21
72.70454851797618
 31
0.0
  0
LINE
  5
18B
330
17
100
AcDbEntity
  8
STRUCTURE
100
AcDbLine
 10
99.16099999999999
 20
67.17835699517786
 30
0.0
 11
101.392
 21
67.29545148202382
 31
0.0
  0
LINE
  5
18C
330
17
100
AcDbEntity
  8
STRUCTURE
100
AcDbLine
 10
101.392
 20
72.70454851797618
 30
0.0
 11
103.623
 21
72.5831445311178
 31
0.0
  0
LINE
  5
18D
330
17
100
AcDbEntity
  8
STRUCTURE
100
AcDbLine
 10
101.392
 20
67.29545148202382
 30
0.0
 11
103.623
 21
67.4168554688822
 31
0.0
  0
LINE
  5
18E
330
17
100
AcDbEntity
  8
STRUCTURE
100
AcDbLine
 10
103.623
 20
72.5831445311178
 30
0.0
 11
105.85400000000001
 21
72.45759571818397
 31
0.0
  0
LINE
  5
18F
330
17
100
AcDbEntity
  8
STRUCTURE
100
AcDbLine
 10
103.623
 20
67.4168554688822
 30
0.0
 11
105.85400000000001
 21
67.54240428181603
 31
0.0
  0
LINE
  5
190
330
17
100
AcDbEntity
  8
STRUCTURE
100
AcDbLine
 10
105.85400000000001
 20
72.45759571818397
 30
0.0
 11
108.085
 21
72.32804375453576
 31
0.0
  0
LINE
  5
191
330
17
100
AcDbEntity
  8
STRUCTURE
100
AcDbLine
 10
105.85400000000001
 20
67.54240428181603
 30
0.0
 11
108.085
 21
67.67195624546424
 31
0.0
  0
LINE
  5
192
330
17
100
AcDbEntity
  8
STRUCTURE
100
AcDbLine
 10
108.085
 20
72.32804375453576
 30
0.0
 11
110.31599999999999
 21
72.19460812340746
 31
0.0
  0
LINE
  5
193
330
17
100
AcDbEntity
  8
STRUCTURE
100
AcDbLine
 10
108.085
 20
67.67195624546424
 30
0.0
 11
110.31599999999999
 21
67.80539187659254
 31
0.0
  0
LINE
  5
194
330
17
100
AcDbEntity
  8
STRUCTURE
100
AcDbLine
 10
110.31599999999999
 20
72.19460812340746
 30
0.0
 11
112.547
 21
72.05738682218886
 31
0.0
  0
LINE
  5
195
330
17
100
AcDbEntity
  8
STRUCTURE
100
AcDbLine
 10
110.31599999999999
 20
67.80539187659254
 30
0.0
 11
112.547
 21
67.94261317781114
 31
0.0
  0
LINE
  5
196
330
17
100
AcDbEntity
  8
STRUCTURE
100
AcDbLine
 10
112.547
 20
72.05738682218886
 30
0.0
 11
114.77799999999999
 21
71.91645698333964
 31
0.0
  0
LINE
  5
197
330
17
100
AcDbEntity
  8
STRUCTURE
100
AcDbLine
 10
112.547
 20
67.94261317781114
 30
0.0
 11
114.77799999999999
 21
68.08354301666036
 31
0.0
  0
LINE
  5
198
330
17
100
AcDbEntity
  8
STRUCTURE
100
AcDbLine
 10
114.77799999999999
 20
71.91645698333964
 30
0.0
 11
117.009
 21
71.77187542221851
 31
0.0
  0
LINE
  5
199
330
17
100
AcDbEntity
  8
STRUCTURE
100
AcDbLine
 10
114.77799999999999
 20
68.08354301666036
 30
0.0
 11
117.009
 21
68.22812457778149
 31
0.0
  0
LINE
  5
19A
330
17
100
AcDbEntity
  8
STRUCTURE
100
AcDbLine
 10
117.009
 20
71.77187542221851
 30
0.0
 11
119.24000000000001
 21
71.6236791220741
 31
0.0
  0
LINE
  5
19B
330
17
100
AcDbEntity
  8
STRUCTURE
100
AcDbLine
 10
117.009
 20
68.22812457778149
 30
0.0
 11
119.24000000000001
 21
68.3763208779259
 31
0.0
  0
LINE
  5
19C
330
17
100
AcDbEntity
  8
STRUCTURE
100
AcDbLine
 10
119.24000000000001
 20
71.6236791220741
 30
0.0
 11
121.47099999999999
 21
71.47188566478881
 31
0.0
  0
LINE
  5
19D
330
17
100
AcDbEntity
  8
STRUCTURE
100
AcDbLine
 10
119.24000000000001
 20
68.3763208779259
 30
0.0
 11
121.47099999999999
 21
68.52811433521119
 31
0.0
  0
LINE
  5
19E
330
17
100
AcDbEntity
  8
STRUCTURE
100
AcDbLine
 10
121.47099999999999
 20
71.47188566478881
 30
0.0
 11
123.702
 21
71.31649361461236
 31
0.0
  0
LINE
  5
19F
330
17
100
AcDbEntity
  8
STRUCTURE
100
AcDbLine
 10
121.47099999999999
 20
68.52811433521119
 30
0.0
 11
123.702
 21
68.68350638538764
 31
0.0
  0
LINE
  5
1A0
330
17
100
AcDbEntity
  8
STRUCTURE
100
AcDbLine
 10
123.702
 20
71.31649361461236
 30
0.0
 11
125.93299999999999
 21
71.15748286100758
 31
0.0
  0
LINE
  5
1A1
330
17
100
AcDbEntity
  8
STRUCTURE
100
AcDbLine
 10
123.702
 20
68.68350638538764
 30
0.0
 11
125.93299999999999
 21
68.84251713899242
 31
0.0
  0
LINE
  5
1A2
330
17
100
AcDbEntity
  8
STRUCTURE
100
AcDbLine
 10
125.93299999999999
 20
71.15748286100758
 30
0.0
 11
128.164
 21
70.99481492581062
 31
0.0
  0
LINE
  5
1A3
330
17
100
AcDbEntity
  8
STRUCTURE
100
AcDbLine
 10
125.93299999999999
 20
68.84251713899242
 30
0.0
 11
128.164
 21
69.00518507418938
 31
0.0
  0
LINE
  5
1A4
330
17
100
AcDbEntity
  8
STRUCTURE
100
AcDbLine
 10
128.164
 20
70.99481492581062
 30
0.0
 11
130.39499999999998
 21
70.82843323914281
 31
0.0
  0
LINE
  5
1A5
330
17
100
AcDbEntity
  8
STRUCTURE
100
AcDbLine
 10
128.164
 20
69.00518507418938
 30
0.0
 11
130.39499999999998
 21
69.17156676085719
 31
0.0
  0
LINE
  5
1A6
330
17
100
AcDbEntity
  8
STRUCTURE
100
AcDbLine
 10
130.39499999999998
 20
70.82843323914281
 30
0.0
 11
132.62599999999998
 21
70.65826338787427
 31
0.0
  0
LINE
  5
1A7
330
17
100
AcDbEntity
  8
STRUCTURE
100
AcDbLine
 10
130.39499999999998
 20
69.17156676085719
 30
0.0
 11
132.62599999999998
 21
69.34173661212573
 31
0.0
  0
LINE
  5
1A8
330
17
100
AcDbEntity
  8
STRUCTURE
100
AcDbLine
 10
132.62599999999998
 20
70.65826338787427
 30
0.0
 11
134.857
 21
70.48421333990424
 31
0.0
  0
LINE
  5
1A9
330
17
100
AcDbEntity
  8
STRUCTURE
100
AcDbLine
 10
132.62599999999998
 20
69.34173661212573
 30
0.0
 11
134.857
 21
69.51578666009576
 31
0.0
  0
LINE
  5
1AA
330
17
100
AcDbEntity
  8
STRUCTURE
100
AcDbLine
 10
134.857
 20
70.48421333990424
 30
0.0
 11
137.088
 21
70.30617364707474
 31
0.0
  0
LINE
  5
1AB
330
17
100
AcDbEntity
  8
STRUCTURE
100
AcDbLine
 10
134.857
 20
69.51578666009576
 30
0.0
 11
137.088
 21
69.69382635292526
 31
0.0
  0
LINE
  5
1AC
330
17
100
AcDbEntity
  8
STRUCTURE
100
AcDbLine
 10
137.088
 20
70.30617364707474
 30
0.0
 11
139.31900000000002
 21
70.12401762915353
 31
0.0
  0
LINE
  5
1AD
330
17
100
AcDbEntity
  8
STRUCTURE
100
AcDbLine
 10
137.088
 20
69.69382635292526
 30
0.0
 11
139.31900000000002
 21
69.87598237084647
 31
0.0
  0
LINE
  5
1AE
330
17
100
AcDbEntity
  8
STRUCTURE
100
AcDbLine
 10
139.31900000000002
 20
70.12401762915353
 30
0.0
 11
141.55
 21
70.0
 31
0.0
  0
LINE
  5
1AF
330
17
100
AcDbEntity
  8
STRUCTURE
100
AcDbLine
 10
139.31900000000002
 20
69.87598237084647
 30
0.0
 11
141.55
 21
70.0
 31
0.0
  0
CIRCLE
  5
1B0
330
17
100
AcDbEntity
  8
SPAR
100
AcDbCircle
 10
58.75
 20
70.0
 30
0.0
 40
1.5
  0
CIRCLE
  5
1B1
330
17
100
AcDbEntity
  8
SPAR
100
AcDbCircle
 10
104.75
 20
70.0
 30
0.0
 40
1.0
  0
TEXT
  5
1B2
330
17
100
AcDbEntity
  8
TEXT
100
AcDbText
 10
30.0
 20
10.0
 30
0.0
 40
5.0
  1
HStab_Right — Component Drawing
100
AcDbText
  0
TEXT
  5
1B3
330
17
100
AcDbEntity
  8
TEXT
100
AcDbText
 10
30.0
 20
3.0
 30
0.0
 40
2.5
  1
Mirror of HStab_Left | HT-14 root → HT-13 tip | 215mm span | 115/75mm chord
100
AcDbText
  0
TEXT
  5
1B4
330
17
100
AcDbEntity
  8
TEXT
100
AcDbText
 10
30.0
 20
-3.0
 30
0.0
 40
2.0
  1
SCALE 1:1 | ALL DIMS IN mm | LW-PLA 0.45mm vase mode
100
AcDbText
  0
DIMENSION
  5
1B5
330
17
100
AcDbEntity
  8
0
100
AcDbDimension
280
0
  2
*D1
  3
COMP
 10
20.0
 20
280.0
 30
0.0
 11
20.0
 21
387.5
 31
0.0
 70
32
 71
5
  1
<>
100
AcDbAlignedDimension
 13
30.0
 23
280.0
 33
0.0
 14
30.0
 24
495.0
 34
0.0
 50
90.0
100
AcDbRotatedDimension
  0
DIMENSION
  5
1C5
330
17
100
AcDbEntity
  8
0
100
AcDbDimension
280
0
  2
*D2
  3
COMP
 10
30.0
 20
510.0
 30
0.0
 11
85.775
 21
510.0
 31
0.0
 70
32
 71
5
  1
<>
100
AcDbAlignedDimension
 13
30.0
 23
280.0
 33
0.0
 14
141.55
 24
280.0
 34
0.0
 50
0.0
100
AcDbRotatedDimension
  0
ENDSEC
  0
SECTION
  2
OBJECTS
  0
DICTIONARY
  5
A
330
0
100
AcDbDictionary
281
1
  3
ACAD_COLOR
350
B
  3
ACAD_GROUP
350
C
  3
ACAD_LAYOUT
350
D
  3
ACAD_MATERIAL
350
E
  3
ACAD_MLEADERSTYLE
350
F
  3
ACAD_MLINESTYLE
350
10
  3
ACAD_PLOTSETTINGS
350
11
  3
ACAD_PLOTSTYLENAME
350
12
  3
ACAD_SCALELIST
350
14
  3
ACAD_TABLESTYLE
350
15
  3
ACAD_VISUALSTYLE
350
16
  3
EZDXF_META
350
2D
  0
DICTIONARY
  5
B
330
A
100
AcDbDictionary
281
1
  0
DICTIONARY
  5
C
330
A
100
AcDbDictionary
281
1
  0
DICTIONARY
  5
D
330
A
100
AcDbDictionary
281
1
  3
Model
350
1A
  3
Layout1
350
1E
  0
DICTIONARY
  5
E
330
A
100
AcDbDictionary
281
1
  3
ByBlock
350
1F
  3
ByLayer
350
20
  3
Global
350
21
  0
DICTIONARY
  5
F
330
A
100
AcDbDictionary
281
1
  3
Standard
350
2C
  0
DICTIONARY
  5
10
330
A
100
AcDbDictionary
281
1
  3
Standard
350
22
  0
DICTIONARY
  5
11
330
A
100
AcDbDictionary
281
1
  0
ACDBDICTIONARYWDFLT
  5
12
330
A
100
AcDbDictionary
281
1
  3
Normal
350
13
100
AcDbDictionaryWithDefault
340
13
  0
ACDBPLACEHOLDER
  5
13
330
12
  0
DICTIONARY
  5
14
330
A
100
AcDbDictionary
281
1
  0
DICTIONARY
  5
15
330
A
100
AcDbDictionary
281
1
  0
DICTIONARY
  5
16
330
A
100
AcDbDictionary
281
1
  3
2dWireframe
350
5A
  3
Basic
350
5B
  3
Brighten
350
5C
  3
ColorChange
350
5D
  3
Conceptual
350
5E
  3
Dim
350
5F
  3
EdgeColorOff
350
60
  3
Facepattern
350
61
  3
Flat
350
62
  3
FlatWithEdges
350
63
  3
Gouraud
350
64
  3
GouraudWithEdges
350
65
  3
Hidden
350
66
  3
JitterOff
350
67
  3
Linepattern
350
68
  3
Modeling
350
69
  3
OverhangOff
350
6A
  3
Realistic
350
6B
  3
Shaded
350
6C
  3
Shaded with edges
350
6D
  3
Shades of Gray
350
6E
  3
Sketchy
350
6F
  3
Thicken
350
70
  3
Wireframe
350
71
  3
X-Ray
350
72
  0
LAYOUT
  5
1A
330
D
100
AcDbPlotSettings
  1

  4
A3
  6

 40
7.5
 41
20.0
 42
7.5
 43
20.0
 44
420.0
 45
297.0
 46
0.0
 47
0.0
 48
0.0
 49
0.0
140
0.0
141
0.0
142
1.0
143
1.0
 70
1024
 72
1
 73
0
 74
5
  7

 75
16
 76
0
 77
2
 78
300
147
1.0
148
0.0
149
0.0
100
AcDbLayout
  1
Model
 70
1
 71
0
 10
0.0
 20
0.0
 11
420.0
 21
297.0
 12
0.0
 22
0.0
 32
0.0
 14
1e+20
 24
1e+20
 34
1e+20
 15
-1e+20
 25
-1e+20
 35
-1e+20
146
0.0
 13
0.0
 23
0.0
 33
0.0
 16
1.0
 26
0.0
 36
0.0
 17
0.0
 27
1.0
 37
0.0
 76
1
330
17
  0
LAYOUT
  5
1E
330
D
100
AcDbPlotSettings
  1

  4
A3
  6

 40
7.5
 41
20.0
 42
7.5
 43
20.0
 44
420.0
 45
297.0
 46
0.0
 47
0.0
 48
0.0
 49
0.0
140
0.0
141
0.0
142
1.0
143
1.0
 70
0
 72
1
 73
0
 74
5
  7

 75
16
 76
0
 77
2
 78
300
147
1.0
148
0.0
149
0.0
100
AcDbLayout
  1
Layout1
 70
1
 71
1
 10
0.0
 20
0.0
 11
420.0
 21
297.0
 12
0.0
 22
0.0
 32
0.0
 14
1e+20
 24
1e+20
 34
1e+20
 15
-1e+20
 25
-1e+20
 35
-1e+20
146
0.0
 13
0.0
 23
0.0
 33
0.0
 16
1.0
 26
0.0
 36
0.0
 17
0.0
 27
1.0
 37
0.0
 76
1
330
1B
  0
MATERIAL
  5
1F
102
{ACAD_REACTORS
330
E
102
}
330
E
100
AcDbMaterial
  1
ByBlock
  2

 70
0
 40
1.0
 71
1
 41
1.0
 91
-1023410177
 42
1.0
 72
1
  3

 73
1
 74
1
 75
1
 44
0.5
 73
0
 45
1.0
 46
1.0
 77
1
  4

 78
1
 79
1
170
1
 48
1.0
171
1
  6

172
1
173
1
174
1
140
1.0
141
1.0
175
1
  7

176
1
177
1
178
1
143
1.0
179
1
  8

270
1
271
1
272
1
145
1.0
146
1.0
273
1
  9

274
1
275
1
276
1
 42
1.0
 72
1
  3

 73
1
 74
1
 75
1
 94
63
  0
MATERIAL
  5
20
102
{ACAD_REACTORS
330
E
102
}
330
E
100
AcDbMaterial
  1
ByLayer
  2

 70
0
 40
1.0
 71
1
 41
1.0
 91
-1023410177
 42
1.0
 72
1
  3

 73
1
 74
1
 75
1
 44
0.5
 73
0
 45
1.0
 46
1.0
 77
1
  4

 78
1
 79
1
170
1
 48
1.0
171
1
  6

172
1
173
1
174
1
140
1.0
141
1.0
175
1
  7

176
1
177
1
178
1
143
1.0
179
1
  8

270
1
271
1
272
1
145
1.0
146
1.0
273
1
  9

274
1
275
1
276
1
 42
1.0
 72
1
  3

 73
1
 74
1
 75
1
 94
63
  0
MATERIAL
  5
21
102
{ACAD_REACTORS
330
E
102
}
330
E
100
AcDbMaterial
  1
Global
  2

 70
0
 40
1.0
 71
1
 41
1.0
 91
-1023410177
 42
1.0
 72
1
  3

 73
1
 74
1
 75
1
 44
0.5
 73
0
 45
1.0
 46
1.0
 77
1
  4

 78
1
 79
1
170
1
 48
1.0
171
1
  6

172
1
173
1
174
1
140
1.0
141
1.0
175
1
  7

176
1
177
1
178
1
143
1.0
179
1
  8

270
1
271
1
272
1
145
1.0
146
1.0
273
1
  9

274
1
275
1
276
1
 42
1.0
 72
1
  3

 73
1
 74
1
 75
1
 94
63
  0
MLINESTYLE
  5
22
102
{ACAD_REACTORS
330
10
102
}
330
10
100
AcDbMlineStyle
  2
Standard
 70
0
  3

 62
256
 51
90.0
 52
90.0
 71
2
 49
0.5
 62
256
  6
BYLAYER
 49
-0.5
 62
256
  6
BYLAYER
  0
MLEADERSTYLE
  5
2C
102
{ACAD_REACTORS
330
F
102
}
330
F
100
AcDbMLeaderStyle
179
2
170
2
171
1
172
0
 90
2
 40
0.0
 41
0.0
173
1
 91
-1056964608
 92
-2
290
1
 42
2.0
291
1
 43
8.0
  3
Standard
 44
4.0
300

342
29
174
1
175
1
176
0
178
1
 93
-1056964608
 45
4.0
292
0
297
0
 46
4.0
 94
-1056964608
 47
1.0
 49
1.0
140
1.0
294
1
141
0.0
177
0
142
1.0
295
0
296
0
143
3.75
271
0
272
9
273
9
  0
DICTIONARY
  5
2D
330
A
100
AcDbDictionary
280
1
281
1
  3
CREATED_BY_EZDXF
350
2E
  3
WRITTEN_BY_EZDXF
350
1D7
  0
DICTIONARYVAR
  5
2E
330
2D
100
DictionaryVariables
280
0
  1
1.4.3 @ 2026-03-29T11:13:02.494570+00:00
  0
VISUALSTYLE
  5
5A
102
{ACAD_REACTORS
330
16
102
}
330
16
100
AcDbVisualStyle
  2
2dWireframe
 70
4
 90
0
 40
0.6
 62
7
290
0
291
0
  0
VISUALSTYLE
  5
5B
102
{ACAD_REACTORS
330
16
102
}
330
16
100
AcDbVisualStyle
  2
Basic
 70
7
 90
1
 40
0.6
 62
7
290
0
291
1
  0
VISUALSTYLE
  5
5C
102
{ACAD_REACTORS
330
16
102
}
330
16
100
AcDbVisualStyle
  2
Brighten
 70
12
 90
2
 40
0.6
 62
7
290
0
291
1
  0
VISUALSTYLE
  5
5D
102
{ACAD_REACTORS
330
16
102
}
330
16
100
AcDbVisualStyle
  2
ColorChange
 70
16
 90
2
 40
0.6
 62
8
290
0
291
1
  0
VISUALSTYLE
  5
5E
102
{ACAD_REACTORS
330
16
102
}
330
16
100
AcDbVisualStyle
  2
Conceptual
 70
9
 90
3
 40
0.6
 62
7
290
0
291
0
  0
VISUALSTYLE
  5
5F
102
{ACAD_REACTORS
330
16
102
}
330
16
100
AcDbVisualStyle
  2
Dim
 70
11
 90
2
 40
0.6
 62
7
290
0
291
1
  0
VISUALSTYLE
  5
60
102
{ACAD_REACTORS
330
16
102
}
330
16
100
AcDbVisualStyle
  2
EdgeColorOff
 70
22
 90
2
 40
0.6
 62
7
290
0
291
1
  0
VISUALSTYLE
  5
61
102
{ACAD_REACTORS
330
16
102
}
330
16
100
AcDbVisualStyle
  2
Facepattern
 70
15
 90
2
 40
0.6
 62
7
290
0
291
1
  0
VISUALSTYLE
  5
62
102
{ACAD_REACTORS
330
16
102
}
330
16
100
AcDbVisualStyle
  2
Flat
 70
0
 90
2
 40
0.6
 62
7
290
0
291
1
  0
VISUALSTYLE
  5
63
102
{ACAD_REACTORS
330
16
102
}
330
16
100
AcDbVisualStyle
  2
FlatWithEdges
 70
1
 90
2
 40
0.6
 62
7
290
0
291
1
  0
VISUALSTYLE
  5
64
102
{ACAD_REACTORS
330
16
102
}
330
16
100
AcDbVisualStyle
  2
Gouraud
 70
2
 90
2
 40
0.6
 62
7
290
0
291
1
  0
VISUALSTYLE
  5
65
102
{ACAD_REACTORS
330
16
102
}
330
16
100
AcDbVisualStyle
  2
GouraudWithEdges
 70
3
 90
2
 40
0.6
 62
7
290
0
291
1
  0
VISUALSTYLE
  5
66
102
{ACAD_REACTORS
330
16
102
}
330
16
100
AcDbVisualStyle
  2
Hidden
 70
6
 90
1
 40
0.6
 62
7
290
0
291
0
  0
VISUALSTYLE
  5
67
102
{ACAD_REACTORS
330
16
102
}
330
16
100
AcDbVisualStyle
  2
JitterOff
 70
20
 90
2
 40
0.6
 62
7
290
0
291
1
  0
VISUALSTYLE
  5
68
102
{ACAD_REACTORS
330
16
102
}
330
16
100
AcDbVisualStyle
  2
Linepattern
 70
14
 90
2
 40
0.6
 62
7
290
0
291
1
  0
VISUALSTYLE
  5
69
102
{ACAD_REACTORS
330
16
102
}
330
16
100
AcDbVisualStyle
  2
Modeling
 70
10
 90
2
 40
0.6
 62
7
290
0
291
0
  0
VISUALSTYLE
  5
6A
102
{ACAD_REACTORS
330
16
102
}
330
16
100
AcDbVisualStyle
  2
OverhangOff
 70
21
 90
2
 40
0.6
 62
7
290
0
291
1
  0
VISUALSTYLE
  5
6B
102
{ACAD_REACTORS
330
16
102
}
330
16
100
AcDbVisualStyle
  2
Realistic
 70
8
 90
2
 40
0.6
 62
7
290
0
291
0
  0
VISUALSTYLE
  5
6C
102
{ACAD_REACTORS
330
16
102
}
330
16
100
AcDbVisualStyle
  2
Shaded
 70
27
 90
2
 40
0.6
 62
7
290
0
291
0
  0
VISUALSTYLE
  5
6D
102
{ACAD_REACTORS
330
16
102
}
330
16
100
AcDbVisualStyle
  2
Shaded with edges
 70
26
 90
2
 40
0.6
 62
7
290
0
291
0
  0
VISUALSTYLE
  5
6E
102
{ACAD_REACTORS
330
16
102
}
330
16
100
AcDbVisualStyle
  2
Shades of Gray
 70
23
 90
2
 40
0.6
 62
7
290
0
291
0
  0
VISUALSTYLE
  5
6F
102
{ACAD_REACTORS
330
16
102
}
330
16
100
AcDbVisualStyle
  2
Sketchy
 70
24
 90
1
 40
0.6
 62
7
290
0
291
0
  0
VISUALSTYLE
  5
70
102
{ACAD_REACTORS
330
16
102
}
330
16
100
AcDbVisualStyle
  2
Thicken
 70
13
 90
2
 40
0.6
 62
7
290
0
291
1
  0
VISUALSTYLE
  5
71
102
{ACAD_REACTORS
330
16
102
}
330
16
100
AcDbVisualStyle
  2
Wireframe
 70
5
 90
0
 40
0.6
 62
7
290
0
291
0
  0
VISUALSTYLE
  5
72
102
{ACAD_REACTORS
330
16
102
}
330
16
100
AcDbVisualStyle
  2
X-Ray
 70
25
 90
2
 40
0.5
 62
7
290
0
291
0
  0
DICTIONARYVAR
  5
1D7
330
2D
100
DictionaryVariables
280
0
  1
1.4.3 @ 2026-03-29T11:13:02.508576+00:00
  0
ENDSEC
  0
EOF
