  0
SECTION
  2
HEADER
  9
$ACADVER
  1
AC1024
  9
$ACADMAINTVER
 70
6
  9
$DWGCODEPAGE
  3
ANSI_1252
  9
$LASTSAVEDBY
  1
ezdxf
  9
$INSBASE
 10
0.0
 20
0.0
 30
0.0
  9
$EXTMIN
 10
1e+20
 20
1e+20
 30
1e+20
  9
$EXTMAX
 10
-1e+20
 20
-1e+20
 30
-1e+20
  9
$LIMMIN
 10
0.0
 20
0.0
  9
$LIMMAX
 10
420.0
 20
297.0
  9
$ORTHOMODE
 70
0
  9
$REGENMODE
 70
1
  9
$FILLMODE
 70
1
  9
$QTEXTMODE
 70
0
  9
$MIRRTEXT
 70
1
  9
$LTSCALE
 40
1.0
  9
$ATTMODE
 70
1
  9
$TEXTSIZE
 40
2.5
  9
$TRACEWID
 40
1.0
  9
$TEXTSTYLE
  7
OpenSans
  9
$CLAYER
  8
0
  9
$CELTYPE
  6
ByLayer
  9
$CECOLOR
 62
256
  9
$CELTSCALE
 40
1.0
  9
$DISPSILH
 70
0
  9
$DIMSCALE
 40
1.0
  9
$DIMASZ
 40
0.175
  9
$DIMEXO
 40
0.125
  9
$DIMDLI
 40
3.75
  9
$DIMRND
 40
0.0
  9
$DIMDLE
 40
0.0
  9
$DIMEXE
 40
0.375
  9
$DIMTP
 40
0.0
  9
$DIMTM
 40
0.0
  9
$DIMTXT
 40
0.25
  9
$DIMCEN
 40
2.5
  9
$DIMTSZ
 40
0.0
  9
$DIMTOL
 70
0
  9
$DIMLIM
 70
0
  9
$DIMTIH
 70
0
  9
$DIMTOH
 70
0
  9
$DIMSE1
 70
0
  9
$DIMSE2
 70
0
  9
$DIMTAD
 70
1
  9
$DIMZIN
 70
12
  9
$DIMBLK
  1
ARCHTICK
  9
$DIMASO
 70
1
  9
$DIMSHO
 70
1
  9
$DIMPOST
  1

  9
$DIMAPOST
  1

  9
$DIMALT
 70
0
  9
$DIMALTD
 70
3
  9
$DIMALTF
 40
0.03937007874
  9
$DIMLFAC
 40
100.0
  9
$DIMTOFL
 70
1
  9
$DIMTVP
 40
0.0
  9
$DIMTIX
 70
0
  9
$DIMSOXD
 70
0
  9
$DIMSAH
 70
0
  9
$DIMBLK1
  1

  9
$DIMBLK2
  1

  9
$DIMSTYLE
  2
EZDXF
  9
$DIMCLRD
 70
0
  9
$DIMCLRE
 70
0
  9
$DIMCLRT
 70
0
  9
$DIMTFAC
 40
0.5
  9
$DIMGAP
 40
0.1
  9
$DIMJUST
 70
0
  9
$DIMSD1
 70
0
  9
$DIMSD2
 70
0
  9
$DIMTOLJ
 70
0
  9
$DIMTZIN
 70
8
  9
$DIMALTZ
 70
0
  9
$DIMALTTZ
 70
0
  9
$DIMUPT
 70
1
  9
$DIMDEC
 70
2
  9
$DIMTDEC
 70
2
  9
$DIMALTU
 70
2
  9
$DIMALTTD
 70
3
  9
$DIMTXSTY
  7
OpenSansCondensed-Light
  9
$DIMAUNIT
 70
0
  9
$DIMADEC
 70
2
  9
$DIMALTRND
 40
0.0
  9
$DIMAZIN
 70
3
  9
$DIMDSEP
 70
46
  9
$DIMATFIT
 70
3
  9
$DIMFRAC
 70
0
  9
$DIMLDRBLK
  1

  9
$DIMLUNIT
 70
2
  9
$DIMLWD
 70
-2
  9
$DIMLWE
 70
-2
  9
$DIMTMOVE
 70
2
  9
$DIMFXL
 40
1.0
  9
$DIMFXLON
 70
0
  9
$DIMJOGANG
 40
0.785398163397
  9
$DIMTFILL
 70
0
  9
$DIMTFILLCLR
 70
0
  9
$DIMARCSYM
 70
0
  9
$DIMLTYPE
  6

  9
$DIMLTEX1
  6

  9
$DIMLTEX2
  6

  9
$DIMTXTDIRECTION
 70
0
  9
$LUNITS
 70
2
  9
$LUPREC
 70
4
  9
$SKETCHINC
 40
1.0
  9
$FILLETRAD
 40
10.0
  9
$AUNITS
 70
0
  9
$AUPREC
 70
2
  9
$MENU
  1
.
  9
$ELEVATION
 40
0.0
  9
$PELEVATION
 40
0.0
  9
$THICKNESS
 40
0.0
  9
$LIMCHECK
 70
0
  9
$CHAMFERA
 40
0.0
  9
$CHAMFERB
 40
0.0
  9
$CHAMFERC
 40
0.0
  9
$CHAMFERD
 40
0.0
  9
$SKPOLY
 70
0
  9
$TDCREATE
 40
2461133.581215278
  9
$TDUCREATE
 40
2458532.153996898
  9
$TDUPDATE
 40
2461133.581215278
  9
$TDUUPDATE
 40
2458532.1544311
  9
$TDINDWG
 40
0.0
  9
$TDUSRTIMER
 40
0.0
  9
$USRTIMER
 70
1
  9
$ANGBASE
 50
0.0
  9
$ANGDIR
 70
0
  9
$PDMODE
 70
0
  9
$PDSIZE
 40
0.0
  9
$PLINEWID
 40
0.0
  9
$SPLFRAME
 70
0
  9
$SPLINETYPE
 70
6
  9
$SPLINESEGS
 70
8
  9
$HANDSEED
  5
158
  9
$SURFTAB1
 70
6
  9
$SURFTAB2
 70
6
  9
$SURFTYPE
 70
6
  9
$SURFU
 70
6
  9
$SURFV
 70
6
  9
$UCSBASE
  2

  9
$UCSNAME
  2

  9
$UCSORG
 10
0.0
 20
0.0
 30
0.0
  9
$UCSXDIR
 10
1.0
 20
0.0
 30
0.0
  9
$UCSYDIR
 10
0.0
 20
1.0
 30
0.0
  9
$UCSORTHOREF
  2

  9
$UCSORTHOVIEW
 70
0
  9
$UCSORGTOP
 10
0.0
 20
0.0
 30
0.0
  9
$UCSORGBOTTOM
 10
0.0
 20
0.0
 30
0.0
  9
$UCSORGLEFT
 10
0.0
 20
0.0
 30
0.0
  9
$UCSORGRIGHT
 10
0.0
 20
0.0
 30
0.0
  9
$UCSORGFRONT
 10
0.0
 20
0.0
 30
0.0
  9
$UCSORGBACK
 10
0.0
 20
0.0
 30
0.0
  9
$PUCSBASE
  2

  9
$PUCSNAME
  2

  9
$PUCSORG
 10
0.0
 20
0.0
 30
0.0
  9
$PUCSXDIR
 10
1.0
 20
0.0
 30
0.0
  9
$PUCSYDIR
 10
0.0
 20
1.0
 30
0.0
  9
$PUCSORTHOREF
  2

  9
$PUCSORTHOVIEW
 70
0
  9
$PUCSORGTOP
 10
0.0
 20
0.0
 30
0.0
  9
$PUCSORGBOTTOM
 10
0.0
 20
0.0
 30
0.0
  9
$PUCSORGLEFT
 10
0.0
 20
0.0
 30
0.0
  9
$PUCSORGRIGHT
 10
0.0
 20
0.0
 30
0.0
  9
$PUCSORGFRONT
 10
0.0
 20
0.0
 30
0.0
  9
$PUCSORGBACK
 10
0.0
 20
0.0
 30
0.0
  9
$USERI1
 70
0
  9
$USERI2
 70
0
  9
$USERI3
 70
0
  9
$USERI4
 70
0
  9
$USERI5
 70
0
  9
$USERR1
 40
0.0
  9
$USERR2
 40
0.0
  9
$USERR3
 40
0.0
  9
$USERR4
 40
0.0
  9
$USERR5
 40
0.0
  9
$WORLDVIEW
 70
1
  9
$SHADEDGE
 70
3
  9
$SHADEDIF
 70
70
  9
$TILEMODE
 70
1
  9
$MAXACTVP
 70
64
  9
$PINSBASE
 10
0.0
 20
0.0
 30
0.0
  9
$PLIMCHECK
 70
0
  9
$PEXTMIN
 10
1e+20
 20
1e+20
 30
1e+20
  9
$PEXTMAX
 10
-1e+20
 20
-1e+20
 30
-1e+20
  9
$PLIMMIN
 10
0.0
 20
0.0
  9
$PLIMMAX
 10
420.0
 20
297.0
  9
$UNITMODE
 70
0
  9
$VISRETAIN
 70
1
  9
$PLINEGEN
 70
0
  9
$PSLTSCALE
 70
1
  9
$TREEDEPTH
 70
3020
  9
$CMLSTYLE
  2
Standard
  9
$CMLJUST
 70
0
  9
$CMLSCALE
 40
20.0
  9
$PROXYGRAPHICS
 70
1
  9
$MEASUREMENT
 70
1
  9
$CELWEIGHT
370
-1
  9
$ENDCAPS
280
0
  9
$JOINSTYLE
280
0
  9
$LWDISPLAY
290
0
  9
$INSUNITS
 70
6
  9
$HYPERLINKBASE
  1

  9
$STYLESHEET
  1

  9
$XEDIT
290
1
  9
$CEPSNTYPE
380
0
  9
$PSTYLEMODE
290
1
  9
$FINGERPRINTGUID
  2
{46FD59E0-912F-48E8-B70D-29C10492CF76}
  9
$VERSIONGUID
  2
{569F8ECA-558F-45C1-A33E-9319FD31C923}
  9
$EXTNAMES
290
1
  9
$PSVPSCALE
 40
0.0
  9
$OLESTARTUP
290
0
  9
$SORTENTS
280
127
  9
$INDEXCTL
280
0
  9
$HIDETEXT
280
1
  9
$XCLIPFRAME
280
1
  9
$HALOGAP
280
0
  9
$OBSCOLOR
 70
257
  9
$OBSLTYPE
280
0
  9
$INTERSECTIONDISPLAY
280
0
  9
$INTERSECTIONCOLOR
 70
257
  9
$DIMASSOC
280
2
  9
$PROJECTNAME
  1

  9
$CAMERADISPLAY
290
0
  9
$LENSLENGTH
 40
50.0
  9
$CAMERAHEIGHT
 40
0.0
  9
$STEPSPERSEC
 40
24.0
  9
$STEPSIZE
 40
100.0
  9
$3DDWFPREC
 40
2.0
  9
$PSOLWIDTH
 40
0.005
  9
$PSOLHEIGHT
 40
0.08
  9
$LOFTANG1
 40
1.570796326795
  9
$LOFTANG2
 40
1.570796326795
  9
$LOFTMAG1
 40
0.0
  9
$LOFTMAG2
 40
0.0
  9
$LOFTPARAM
 70
7
  9
$LOFTNORMALS
280
1
  9
$LATITUDE
 40
37.795
  9
$LONGITUDE
 40
-122.394
  9
$NORTHDIRECTION
 40
0.0
  9
$TIMEZONE
 70
-8000
  9
$LIGHTGLYPHDISPLAY
280
1
  9
$TILEMODELIGHTSYNCH
280
1
  9
$CMATERIAL
347
20
  9
$SOLIDHIST
280
0
  9
$SHOWHIST
280
1
  9
$DWFFRAME
280
2
  9
$DGNFRAME
280
2
  9
$REALWORLDSCALE
290
1
  9
$INTERFERECOLOR
 62
256
  9
$CSHADOW
280
0
  9
$SHADOWPLANELOCATION
 40
0.0
  0
ENDSEC
  0
SECTION
  2
CLASSES
  0
CLASS
  1
ACDBDICTIONARYWDFLT
  2
AcDbDictionaryWithDefault
  3
ObjectDBX Classes
 90
0
 91
0
280
0
281
0
  0
CLASS
  1
SUN
  2
AcDbSun
  3
SCENEOE
 90
1153
 91
0
280
0
281
0
  0
CLASS
  1
VISUALSTYLE
  2
AcDbVisualStyle
  3
ObjectDBX Classes
 90
4095
 91
0
280
0
281
0
  0
CLASS
  1
MATERIAL
  2
AcDbMaterial
  3
ObjectDBX Classes
 90
1153
 91
0
280
0
281
0
  0
CLASS
  1
SCALE
  2
AcDbScale
  3
ObjectDBX Classes
 90
1153
 91
0
280
0
281
0
  0
CLASS
  1
TABLESTYLE
  2
AcDbTableStyle
  3
ObjectDBX Classes
 90
4095
 91
0
280
0
281
0
  0
CLASS
  1
MLEADERSTYLE
  2
AcDbMLeaderStyle
  3
ACDB_MLEADERSTYLE_CLASS
 90
4095
 91
0
280
0
281
0
  0
CLASS
  1
DICTIONARYVAR
  2
AcDbDictionaryVar
  3
ObjectDBX Classes
 90
0
 91
0
280
0
281
0
  0
CLASS
  1
CELLSTYLEMAP
  2
AcDbCellStyleMap
  3
ObjectDBX Classes
 90
1152
 91
0
280
0
281
0
  0
CLASS
  1
MENTALRAYRENDERSETTINGS
  2
AcDbMentalRayRenderSettings
  3
SCENEOE
 90
1024
 91
0
280
0
281
0
  0
CLASS
  1
ACDBDETAILVIEWSTYLE
  2
AcDbDetailViewStyle
  3
ObjectDBX Classes
 90
1025
 91
0
280
0
281
0
  0
CLASS
  1
ACDBSECTIONVIEWSTYLE
  2
AcDbSectionViewStyle
  3
ObjectDBX Classes
 90
1025
 91
0
280
0
281
0
  0
CLASS
  1
RASTERVARIABLES
  2
AcDbRasterVariables
  3
ISM
 90
0
 91
0
280
0
281
0
  0
CLASS
  1
ACDBPLACEHOLDER
  2
AcDbPlaceHolder
  3
ObjectDBX Classes
 90
0
 91
0
280
0
281
0
  0
CLASS
  1
LAYOUT
  2
AcDbLayout
  3
ObjectDBX Classes
 90
0
 91
0
280
0
281
0
  0
ENDSEC
  0
SECTION
  2
TABLES
  0
TABLE
  2
VPORT
  5
8
330
0
100
AcDbSymbolTable
 70
1
  0
VPORT
  5
23
330
8
100
AcDbSymbolTableRecord
100
AcDbViewportTableRecord
  2
*Active
 70
0
 10
0.0
 20
0.0
 11
1.0
 21
1.0
 12
0.0
 22
0.0
 13
0.0
 23
0.0
 14
0.5
 24
0.5
 15
0.5
 25
0.5
 16
0.0
 26
0.0
 36
1.0
 17
0.0
 27
0.0
 37
0.0
 40
1000.0
 41
1.34
 42
50.0
 43
0.0
 44
0.0
 50
0.0
 51
0.0
 71
0
 72
1000
 73
1
 74
3
 75
0
 76
0
 77
0
 78
0
281
0
 65
0
146
0.0
  0
ENDTAB
  0
TABLE
  2
LTYPE
  5
2
330
0
100
AcDbSymbolTable
 70
21
  0
LTYPE
  5
24
330
2
100
AcDbSymbolTableRecord
100
AcDbLinetypeTableRecord
  2
ByBlock
 70
0
  3

 72
65
 73
0
 40
0.0
  0
LTYPE
  5
25
330
2
100
AcDbSymbolTableRecord
100
AcDbLinetypeTableRecord
  2
ByLayer
 70
0
  3

 72
65
 73
0
 40
0.0
  0
LTYPE
  5
26
330
2
100
AcDbSymbolTableRecord
100
AcDbLinetypeTableRecord
  2
Continuous
 70
0
  3

 72
65
 73
0
 40
0.0
  0
LTYPE
  5
2F
330
2
100
AcDbSymbolTableRecord
100
AcDbLinetypeTableRecord
  2
CENTER
 70
0
  3
Center ____ _ ____ _ ____ _ ____ _ ____ _ ____
 72
65
 73
4
 40
5.08
 49
3.175
 74
0
 49
-0.635
 74
0
 49
0.635
 74
0
 49
-0.635
 74
0
  0
LTYPE
  5
30
330
2
100
AcDbSymbolTableRecord
100
AcDbLinetypeTableRecord
  2
CENTERX2
 70
0
  3
Center (2x) ________  __  ________  __  ________
 72
65
 73
4
 40
8.89
 49
6.35
 74
0
 49
-0.635
 74
0
 49
1.27
 74
0
 49
-0.635
 74
0
  0
LTYPE
  5
31
330
2
100
AcDbSymbolTableRecord
100
AcDbLinetypeTableRecord
  2
CENTER2
 70
0
  3
Center (.5x) ____ _ ____ _ ____ _ ____ _ ____
 72
65
 73
4
 40
2.54
 49
1.587
 74
0
 49
-0.318
 74
0
 49
0.318
 74
0
 49
-0.318
 74
0
  0
LTYPE
  5
32
330
2
100
AcDbSymbolTableRecord
100
AcDbLinetypeTableRecord
  2
DASHED
 70
0
  3
Dashed __ __ __ __ __ __ __ __ __ __ __ __ __ _
 72
65
 73
2
 40
1.524
 49
1.27
 74
0
 49
-0.254
 74
0
  0
LTYPE
  5
33
330
2
100
AcDbSymbolTableRecord
100
AcDbLinetypeTableRecord
  2
DASHEDX2
 70
0
  3
Dashed (2x) ____  ____  ____  ____  ____  ____
 72
65
 73
2
 40
3.048
 49
2.54
 74
0
 49
-0.508
 74
0
  0
LTYPE
  5
34
330
2
100
AcDbSymbolTableRecord
100
AcDbLinetypeTableRecord
  2
DASHED2
 70
0
  3
Dashed (.5x) _ _ _ _ _ _ _ _ _ _ _ _ _ _
 72
65
 73
2
 40
0.762
 49
0.635
 74
0
 49
-0.127
 74
0
  0
LTYPE
  5
35
330
2
100
AcDbSymbolTableRecord
100
AcDbLinetypeTableRecord
  2
PHANTOM
 70
0
  3
Phantom ______  __  __  ______  __  __  ______
 72
65
 73
6
 40
6.35
 49
3.175
 74
0
 49
-0.635
 74
0
 49
0.635
 74
0
 49
-0.635
 74
0
 49
0.635
 74
0
 49
-0.635
 74
0
  0
LTYPE
  5
36
330
2
100
AcDbSymbolTableRecord
100
AcDbLinetypeTableRecord
  2
PHANTOMX2
 70
0
  3
Phantom (2x)____________    ____    ____    ____________
 72
65
 73
6
 40
10.795
 49
6.35
 74
0
 49
-0.635
 74
0
 49
1.27
 74
0
 49
-0.635
 74
0
 49
1.27
 74
0
 49
-0.635
 74
0
  0
LTYPE
  5
37
330
2
100
AcDbSymbolTableRecord
100
AcDbLinetypeTableRecord
  2
PHANTOM2
 70
0
  3
Phantom (.5x) ___ _ _ ___ _ _ ___ _ _ ___ _ _ ___
 72
65
 73
6
 40
3.175
 49
1.587
 74
0
 49
-0.318
 74
0
 49
0.318
 74
0
 49
-0.318
 74
0
 49
0.318
 74
0
 49
-0.318
 74
0
  0
LTYPE
  5
38
330
2
100
AcDbSymbolTableRecord
100
AcDbLinetypeTableRecord
  2
DASHDOT
 70
0
  3
Dash dot __ . __ . __ . __ . __ . __ . __ . __
 72
65
 73
4
 40
3.556
 49
2.54
 74
0
 49
-0.508
 74
0
 49
0.0
 74
0
 49
-0.508
 74
0
  0
LTYPE
  5
39
330
2
100
AcDbSymbolTableRecord
100
AcDbLinetypeTableRecord
  2
DASHDOTX2
 70
0
  3
Dash dot (2x) ____  .  ____  .  ____  .  ____
 72
65
 73
4
 40
6.096
 49
5.08
 74
0
 49
-0.508
 74
0
 49
0.0
 74
0
 49
-0.508
 74
0
  0
LTYPE
  5
3A
330
2
100
AcDbSymbolTableRecord
100
AcDbLinetypeTableRecord
  2
DASHDOT2
 70
0
  3
Dash dot (.5x) _ . _ . _ . _ . _ . _ . _ . _
 72
65
 73
4
 40
1.778
 49
1.27
 74
0
 49
-0.254
 74
0
 49
0.0
 74
0
 49
-0.254
 74
0
  0
LTYPE
  5
3B
330
2
100
AcDbSymbolTableRecord
100
AcDbLinetypeTableRecord
  2
DOT
 70
0
  3
Dot .  .  .  .  .  .  .  .  .  .  .  .  .  .  .  .
 72
65
 73
2
 40
0.508
 49
0.0
 74
0
 49
-0.508
 74
0
  0
LTYPE
  5
3C
330
2
100
AcDbSymbolTableRecord
100
AcDbLinetypeTableRecord
  2
DOTX2
 70
0
  3
Dot (2x) .    .    .    .    .    .    .    . 
 72
65
 73
2
 40
1.016
 49
0.0
 74
0
 49
-1.016
 74
0
  0
LTYPE
  5
3D
330
2
100
AcDbSymbolTableRecord
100
AcDbLinetypeTableRecord
  2
DOT2
 70
0
  3
Dot (.5) . . . . . . . . . . . . . . . . . . . 
 72
65
 73
2
 40
0.254
 49
0.0
 74
0
 49
-0.254
 74
0
  0
LTYPE
  5
3E
330
2
100
AcDbSymbolTableRecord
100
AcDbLinetypeTableRecord
  2
DIVIDE
 70
0
  3
Divide __ . . __ . . __ . . __ . . __ . . __
 72
65
 73
6
 40
4.064
 49
2.54
 74
0
 49
-0.508
 74
0
 49
0.0
 74
0
 49
-0.508
 74
0
 49
0.0
 74
0
 49
-0.508
 74
0
  0
LTYPE
  5
3F
330
2
100
AcDbSymbolTableRecord
100
AcDbLinetypeTableRecord
  2
DIVIDEX2
 70
0
  3
Divide (2x) ____  . .  ____  . .  ____  . .  ____
 72
65
 73
6
 40
6.604
 49
5.08
 74
0
 49
-0.508
 74
0
 49
0.0
 74
0
 49
-0.508
 74
0
 49
0.0
 74
0
 49
-0.508
 74
0
  0
LTYPE
  5
40
330
2
100
AcDbSymbolTableRecord
100
AcDbLinetypeTableRecord
  2
DIVIDE2
 70
0
  3
Divide(.5x) _ . _ . _ . _ . _ . _ . _ . _
 72
65
 73
6
 40
2.032
 49
1.27
 74
0
 49
-0.254
 74
0
 49
0.0
 74
0
 49
-0.254
 74
0
 49
0.0
 74
0
 49
-0.254
 74
0
  0
ENDTAB
  0
TABLE
  2
LAYER
  5
1
330
0
100
AcDbSymbolTable
 70
14
  0
LAYER
  5
27
330
1
100
AcDbSymbolTableRecord
100
AcDbLayerTableRecord
  2
0
 70
0
 62
7
  6
Continuous
370
-3
390
13
347
21
  0
LAYER
  5
28
330
1
100
AcDbSymbolTableRecord
100
AcDbLayerTableRecord
  2
Defpoints
 70
0
 62
7
  6
Continuous
290
0
370
-3
390
13
347
21
  0
LAYER
  5
8A
330
1
100
AcDbSymbolTableRecord
100
AcDbLayerTableRecord
  2
BORDER
 70
0
 62
7
  6
Continuous
370
-3
390
13
347
21
  0
LAYER
  5
8B
330
1
100
AcDbSymbolTableRecord
100
AcDbLayerTableRecord
  2
TITLEBLOCK
 70
0
 62
7
  6
Continuous
370
-3
390
13
347
21
  0
LAYER
  5
8C
330
1
100
AcDbSymbolTableRecord
100
AcDbLayerTableRecord
  2
ORIENTATION
 70
0
 62
7
  6
Continuous
370
-3
390
13
347
21
  0
LAYER
  5
8D
330
1
100
AcDbSymbolTableRecord
100
AcDbLayerTableRecord
  2
OUTLINE
 70
0
 62
7
  6
Continuous
370
-3
390
13
347
21
  0
LAYER
  5
8E
330
1
100
AcDbSymbolTableRecord
100
AcDbLayerTableRecord
  2
HIDDEN
 70
0
 62
7
  6
Continuous
370
-3
390
13
347
21
  0
LAYER
  5
8F
330
1
100
AcDbSymbolTableRecord
100
AcDbLayerTableRecord
  2
CENTERLINE
 70
0
 62
5
  6
Continuous
370
-3
390
13
347
21
  0
LAYER
  5
90
330
1
100
AcDbSymbolTableRecord
100
AcDbLayerTableRecord
  2
SPAR
 70
0
 62
3
  6
Continuous
370
-3
390
13
347
21
  0
LAYER
  5
91
330
1
100
AcDbSymbolTableRecord
100
AcDbLayerTableRecord
  2
WALL
 70
0
 62
6
  6
Continuous
370
-3
390
13
347
21
  0
LAYER
  5
92
330
1
100
AcDbSymbolTableRecord
100
AcDbLayerTableRecord
  2
SECTION
 70
0
 62
4
  6
Continuous
370
-3
390
13
347
21
  0
LAYER
  5
93
330
1
100
AcDbSymbolTableRecord
100
AcDbLayerTableRecord
  2
HATCH
 70
0
 62
252
  6
Continuous
370
-3
390
13
347
21
  0
LAYER
  5
94
330
1
100
AcDbSymbolTableRecord
100
AcDbLayerTableRecord
  2
DIMENSION
 70
0
 62
1
  6
Continuous
370
-3
390
13
347
21
  0
LAYER
  5
95
330
1
100
AcDbSymbolTableRecord
100
AcDbLayerTableRecord
  2
TEXT
 70
0
 62
7
  6
Continuous
370
-3
390
13
347
21
  0
ENDTAB
  0
TABLE
  2
STYLE
  5
5
330
0
100
AcDbSymbolTable
 70
26
  0
STYLE
  5
29
330
5
100
AcDbSymbolTableRecord
100
AcDbTextStyleTableRecord
  2
Standard
 70
0
 40
0.0
 41
1.0
 50
0.0
 71
0
 42
2.5
  3
txt
  4

  0
STYLE
  5
41
330
5
100
AcDbSymbolTableRecord
100
AcDbTextStyleTableRecord
  2
OpenSans-Light
 70
0
 40
0.0
 41
1.0
 50
0.0
 71
0
 42
2.5
  3
OpenSans-Light.ttf
  4

  0
STYLE
  5
42
330
5
100
AcDbSymbolTableRecord
100
AcDbTextStyleTableRecord
  2
OpenSans-Light-Italic
 70
0
 40
0.0
 41
1.0
 50
0.0
 71
0
 42
2.5
  3
OpenSans-LightItalic.ttf
  4

  0
STYLE
  5
43
330
5
100
AcDbSymbolTableRecord
100
AcDbTextStyleTableRecord
  2
OpenSans
 70
0
 40
0.0
 41
1.0
 50
0.0
 71
0
 42
2.5
  3
OpenSans-Regular.ttf
  4

  0
STYLE
  5
44
330
5
100
AcDbSymbolTableRecord
100
AcDbTextStyleTableRecord
  2
OpenSans-Italic
 70
0
 40
0.0
 41
1.0
 50
0.0
 71
0
 42
2.5
  3
OpenSans-Italic.ttf
  4

  0
STYLE
  5
45
330
5
100
AcDbSymbolTableRecord
100
AcDbTextStyleTableRecord
  2
OpenSans-SemiBold
 70
0
 40
0.0
 41
1.0
 50
0.0
 71
0
 42
2.5
  3
OpenSans-SemiBold.ttf
  4

  0
STYLE
  5
46
330
5
100
AcDbSymbolTableRecord
100
AcDbTextStyleTableRecord
  2
OpenSans-SemiBoldItalic
 70
0
 40
0.0
 41
1.0
 50
0.0
 71
0
 42
2.5
  3
OpenSans-SemiBoldItalic.ttf
  4

  0
STYLE
  5
47
330
5
100
AcDbSymbolTableRecord
100
AcDbTextStyleTableRecord
  2
OpenSans-Bold
 70
0
 40
0.0
 41
1.0
 50
0.0
 71
0
 42
2.5
  3
OpenSans-Bold.ttf
  4

  0
STYLE
  5
48
330
5
100
AcDbSymbolTableRecord
100
AcDbTextStyleTableRecord
  2
OpenSans-BoldItalic
 70
0
 40
0.0
 41
1.0
 50
0.0
 71
0
 42
2.5
  3
OpenSans-BoldItalic.ttf
  4

  0
STYLE
  5
49
330
5
100
AcDbSymbolTableRecord
100
AcDbTextStyleTableRecord
  2
OpenSans-ExtraBold
 70
0
 40
0.0
 41
1.0
 50
0.0
 71
0
 42
2.5
  3
OpenSans-ExtraBold.ttf
  4

  0
STYLE
  5
4A
330
5
100
AcDbSymbolTableRecord
100
AcDbTextStyleTableRecord
  2
OpenSans-ExtraBoldItalic
 70
0
 40
0.0
 41
1.0
 50
0.0
 71
0
 42
2.5
  3
OpenSans-ExtraBoldItalic.ttf
  4

  0
STYLE
  5
4B
330
5
100
AcDbSymbolTableRecord
100
AcDbTextStyleTableRecord
  2
OpenSansCondensed-Bold
 70
0
 40
0.0
 41
1.0
 50
0.0
 71
0
 42
2.5
  3
OpenSansCondensed-Bold.ttf
  4

  0
STYLE
  5
4C
330
5
100
AcDbSymbolTableRecord
100
AcDbTextStyleTableRecord
  2
OpenSansCondensed-Light
 70
0
 40
0.0
 41
1.0
 50
0.0
 71
0
 42
2.5
  3
OpenSansCondensed-Light.ttf
  4

  0
STYLE
  5
4D
330
5
100
AcDbSymbolTableRecord
100
AcDbTextStyleTableRecord
  2
OpenSansCondensed-Italic
 70
0
 40
0.0
 41
1.0
 50
0.0
 71
0
 42
2.5
  3
OpenSansCondensed-LightItalic.ttf
  4

  0
STYLE
  5
4E
330
5
100
AcDbSymbolTableRecord
100
AcDbTextStyleTableRecord
  2
LiberationSans
 70
0
 40
0.0
 41
1.0
 50
0.0
 71
0
 42
2.5
  3
LiberationSans-Regular.ttf
  4

  0
STYLE
  5
4F
330
5
100
AcDbSymbolTableRecord
100
AcDbTextStyleTableRecord
  2
LiberationSans-Bold
 70
0
 40
0.0
 41
1.0
 50
0.0
 71
0
 42
2.5
  3
LiberationSans-Bold.ttf
  4

  0
STYLE
  5
50
330
5
100
AcDbSymbolTableRecord
100
AcDbTextStyleTableRecord
  2
LiberationSans-BoldItalic
 70
0
 40
0.0
 41
1.0
 50
0.0
 71
0
 42
2.5
  3
LiberationSans-BoldItalic.ttf
  4

  0
STYLE
  5
51
330
5
100
AcDbSymbolTableRecord
100
AcDbTextStyleTableRecord
  2
LiberationSans-Italic
 70
0
 40
0.0
 41
1.0
 50
0.0
 71
0
 42
2.5
  3
LiberationSans-Italic.ttf
  4

  0
STYLE
  5
52
330
5
100
AcDbSymbolTableRecord
100
AcDbTextStyleTableRecord
  2
LiberationSerif
 70
0
 40
0.0
 41
1.0
 50
0.0
 71
0
 42
2.5
  3
LiberationSerif-Regular.ttf
  4

  0
STYLE
  5
53
330
5
100
AcDbSymbolTableRecord
100
AcDbTextStyleTableRecord
  2
LiberationSerif-Bold
 70
0
 40
0.0
 41
1.0
 50
0.0
 71
0
 42
2.5
  3
LiberationSerif-Bold.ttf
  4

  0
STYLE
  5
54
330
5
100
AcDbSymbolTableRecord
100
AcDbTextStyleTableRecord
  2
LiberationSerif-BoldItalic
 70
0
 40
0.0
 41
1.0
 50
0.0
 71
0
 42
2.5
  3
LiberationSerif-BoldItalic.ttf
  4

  0
STYLE
  5
55
330
5
100
AcDbSymbolTableRecord
100
AcDbTextStyleTableRecord
  2
LiberationSerif-Italic
 70
0
 40
0.0
 41
1.0
 50
0.0
 71
0
 42
2.5
  3
LiberationSerif-Italic.ttf
  4

  0
STYLE
  5
56
330
5
100
AcDbSymbolTableRecord
100
AcDbTextStyleTableRecord
  2
LiberationMono
 70
0
 40
0.0
 41
1.0
 50
0.0
 71
0
 42
2.5
  3
LiberationMono-Regular.ttf
  4

  0
STYLE
  5
57
330
5
100
AcDbSymbolTableRecord
100
AcDbTextStyleTableRecord
  2
LiberationMono-Bold
 70
0
 40
0.0
 41
1.0
 50
0.0
 71
0
 42
2.5
  3
LiberationMono-Bold.ttf
  4

  0
STYLE
  5
58
330
5
100
AcDbSymbolTableRecord
100
AcDbTextStyleTableRecord
  2
LiberationMono-BoldItalic
 70
0
 40
0.0
 41
1.0
 50
0.0
 71
0
 42
2.5
  3
LiberationMono-BoldItalic.ttf
  4

  0
STYLE
  5
59
330
5
100
AcDbSymbolTableRecord
100
AcDbTextStyleTableRecord
  2
LiberationMono-Italic
 70
0
 40
0.0
 41
1.0
 50
0.0
 71
0
 42
2.5
  3
LiberationMono-Italic.ttf
  4

  0
ENDTAB
  0
TABLE
  2
VIEW
  5
7
330
0
100
AcDbSymbolTable
 70
0
  0
ENDTAB
  0
TABLE
  2
UCS
  5
6
330
0
100
AcDbSymbolTable
 70
0
  0
ENDTAB
  0
TABLE
  2
APPID
  5
3
330
0
100
AcDbSymbolTable
 70
3
  0
APPID
  5
2A
330
3
100
AcDbSymbolTableRecord
100
AcDbRegAppTableRecord
  2
ACAD
 70
0
  0
APPID
  5
155
330
3
100
AcDbSymbolTableRecord
100
AcDbRegAppTableRecord
  2
HATCHBACKGROUNDCOLOR
 70
0
  0
APPID
  5
156
330
3
100
AcDbSymbolTableRecord
100
AcDbRegAppTableRecord
  2
EZDXF
 70
0
  0
ENDTAB
  0
TABLE
  2
DIMSTYLE
  5
4
330
0
100
AcDbSymbolTable
 70
13
100
AcDbDimStyleTable
  0
DIMSTYLE
105
2B
330
4
100
AcDbSymbolTableRecord
100
AcDbDimStyleTableRecord
  2
Standard
 70
0
 40
1.0
 41
2.5
 42
0.625
 43
3.75
 44
1.25
 45
0.0
 46
0.0
 47
0.0
 48
0.0
 49
2.5
140
2.5
141
2.5
142
0.0
143
0.03937007874
144
1.0
145
0.0
146
1.0
147
0.625
148
0.0
 69
0
 70
0
 71
0
 72
0
 73
0
 74
0
 75
0
 76
0
 77
1
 78
8
 79
3
170
0
171
3
172
1
173
0
174
0
175
0
176
0
177
0
178
0
179
2
271
2
272
2
273
2
274
3
275
0
276
0
277
2
278
44
279
0
280
0
281
0
282
0
283
0
284
8
285
0
286
0
288
0
289
3
290
0
371
-2
372
-2
  0
DIMSTYLE
105
73
330
4
100
AcDbSymbolTableRecord
100
AcDbDimStyleTableRecord
  2
EZDXF
 70
0
 40
1.0
 41
0.175
 42
0.125
 43
3.75
 44
0.375
 45
0.0
 46
0.0
 47
0.0
 48
0.0
 49
2.5
140
0.25
141
2.5
142
0.0
143
0.03937007874
144
100.0
145
0.0
146
0.5
147
0.1
148
0.0
 69
0
 70
0
 71
0
 72
0
 73
0
 74
0
 75
0
 76
0
 77
1
 78
12
 79
3
170
0
171
3
172
1
173
0
174
0
175
0
176
0
177
0
178
0
179
2
271
2
272
2
273
2
274
3
275
0
276
0
277
2
278
46
279
2
280
0
281
0
282
0
283
0
284
8
285
0
286
0
288
1
289
3
290
0
340
4C
342
74
371
-2
372
-2
  0
DIMSTYLE
105
7C
330
4
100
AcDbSymbolTableRecord
100
AcDbDimStyleTableRecord
  2
EZ_M_100_H25_CM
 70
0
 40
1.0
 41
0.25
 42
0.125
 43
3.75
 44
0.375
 45
0.0
 46
0.0
 47
0.0
 48
0.0
 49
2.5
140
0.25
141
2.5
142
0.125
143
0.03937007874
144
100.0
145
0.0
146
0.5
147
0.1
148
0.0
 69
0
 70
0
 71
0
 72
0
 73
0
 74
0
 75
0
 76
0
 77
1
 78
12
 79
3
170
0
171
3
172
1
173
0
174
0
175
0
176
0
177
0
178
0
179
2
271
2
272
2
273
2
274
3
275
0
276
0
277
2
278
46
279
2
280
0
281
0
282
0
283
0
284
8
285
0
286
0
288
1
289
3
290
0
340
4C
371
-2
372
-2
  0
DIMSTYLE
105
7D
330
4
100
AcDbSymbolTableRecord
100
AcDbDimStyleTableRecord
  2
EZ_M_50_H25_CM
 70
0
 40
1.0
 41
0.125
 42
0.0625
 43
3.75
 44
0.1875
 45
0.0
 46
0.0
 47
0.0
 48
0.0
 49
2.5
140
0.125
141
2.5
142
0.0625
143
0.03937007874
144
100.0
145
0.0
146
0.5
147
0.05
148
0.0
 69
0
 70
0
 71
0
 72
0
 73
0
 74
0
 75
0
 76
0
 77
1
 78
12
 79
3
170
0
171
3
172
1
173
0
174
0
175
0
176
0
177
0
178
0
179
2
271
2
272
2
273
2
274
3
275
0
276
0
277
2
278
46
279
2
280
0
281
0
282
0
283
0
284
8
285
0
286
0
288
1
289
3
290
0
340
4C
371
-2
372
-2
  0
DIMSTYLE
105
7E
330
4
100
AcDbSymbolTableRecord
100
AcDbDimStyleTableRecord
  2
EZ_M_25_H25_CM
 70
0
 40
1.0
 41
0.0625
 42
0.03125
 43
3.75
 44
0.09375
 45
0.0
 46
0.0
 47
0.0
 48
0.0
 49
2.5
140
0.0625
141
2.5
142
0.03125
143
0.03937007874
144
100.0
145
0.0
146
0.5
147
0.025
148
0.0
 69
0
 70
0
 71
0
 72
0
 73
0
 74
0
 75
0
 76
0
 77
1
 78
12
 79
3
170
0
171
3
172
1
173
0
174
0
175
0
176
0
177
0
178
0
179
2
271
2
272
2
273
2
274
3
275
0
276
0
277
2
278
46
279
2
280
0
281
0
282
0
283
0
284
8
285
0
286
0
288
1
289
3
290
0
340
4C
371
-2
372
-2
  0
DIMSTYLE
105
7F
330
4
100
AcDbSymbolTableRecord
100
AcDbDimStyleTableRecord
  2
EZ_M_20_H25_CM
 70
0
 40
1.0
 41
0.05
 42
0.025
 43
3.75
 44
0.07500000000000001
 45
0.0
 46
0.0
 47
0.0
 48
0.0
 49
2.5
140
0.05
141
2.5
142
0.025
143
0.03937007874
144
100.0
145
0.0
146
0.5
147
0.020000000000000004
148
0.0
 69
0
 70
0
 71
0
 72
0
 73
0
 74
0
 75
0
 76
0
 77
1
 78
12
 79
3
170
0
171
3
172
1
173
0
174
0
175
0
176
0
177
0
178
0
179
2
271
2
272
2
273
2
274
3
275
0
276
0
277
2
278
46
279
2
280
0
281
0
282
0
283
0
284
8
285
0
286
0
288
1
289
3
290
0
340
4C
371
-2
372
-2
  0
DIMSTYLE
105
80
330
4
100
AcDbSymbolTableRecord
100
AcDbDimStyleTableRecord
  2
EZ_M_10_H25_CM
 70
0
 40
1.0
 41
0.025
 42
0.0125
 43
3.75
 44
0.037500000000000006
 45
0.0
 46
0.0
 47
0.0
 48
0.0
 49
2.5
140
0.025
141
2.5
142
0.0125
143
0.03937007874
144
100.0
145
0.0
146
0.5
147
0.010000000000000002
148
0.0
 69
0
 70
0
 71
0
 72
0
 73
0
 74
0
 75
0
 76
0
 77
1
 78
12
 79
3
170
0
171
3
172
1
173
0
174
0
175
0
176
0
177
0
178
0
179
2
271
2
272
2
273
2
274
3
275
0
276
0
277
2
278
46
279
2
280
0
281
0
282
0
283
0
284
8
285
0
286
0
288
1
289
3
290
0
340
4C
371
-2
372
-2
  0
DIMSTYLE
105
81
330
4
100
AcDbSymbolTableRecord
100
AcDbDimStyleTableRecord
  2
EZ_M_5_H25_CM
 70
0
 40
1.0
 41
0.0125
 42
0.00625
 43
3.75
 44
0.018750000000000003
 45
0.0
 46
0.0
 47
0.0
 48
0.0
 49
2.5
140
0.0125
141
2.5
142
0.00625
143
0.03937007874
144
100.0
145
0.0
146
0.5
147
0.005000000000000001
148
0.0
 69
0
 70
0
 71
0
 72
0
 73
0
 74
0
 75
0
 76
0
 77
1
 78
12
 79
3
170
0
171
3
172
1
173
0
174
0
175
0
176
0
177
0
178
0
179
2
271
2
272
2
273
2
274
3
275
0
276
0
277
2
278
46
279
2
280
0
281
0
282
0
283
0
284
8
285
0
286
0
288
1
289
3
290
0
340
4C
371
-2
372
-2
  0
DIMSTYLE
105
82
330
4
100
AcDbSymbolTableRecord
100
AcDbDimStyleTableRecord
  2
EZ_M_1_H25_CM
 70
0
 40
1.0
 41
0.0025
 42
0.00125
 43
3.75
 44
0.00375
 45
0.0
 46
0.0
 47
0.0
 48
0.0
 49
2.5
140
0.0025
141
2.5
142
0.00125
143
0.03937007874
144
100.0
145
0.0
146
0.5
147
0.001
148
0.0
 69
0
 70
0
 71
0
 72
0
 73
0
 74
0
 75
0
 76
0
 77
1
 78
12
 79
3
170
0
171
3
172
1
173
0
174
0
175
0
176
0
177
0
178
0
179
2
271
2
272
2
273
2
274
3
275
0
276
0
277
2
278
46
279
2
280
0
281
0
282
0
283
0
284
8
285
0
286
0
288
1
289
3
290
0
340
4C
371
-2
372
-2
  0
DIMSTYLE
105
83
330
4
100
AcDbSymbolTableRecord
100
AcDbDimStyleTableRecord
  2
EZ_RADIUS
 70
0
 40
1.0
 41
0.25
 42
0.125
 43
3.75
 44
0.375
 45
0.0
 46
0.0
 47
0.0
 48
0.0
 49
2.5
140
0.25
141
0.0
142
0.0
143
0.03937007874
144
100.0
145
0.0
146
0.5
147
0.1
148
0.0
 69
0
 70
0
 71
0
 72
0
 73
0
 74
0
 75
0
 76
0
 77
1
 78
12
 79
3
170
0
171
3
172
0
173
0
174
0
175
0
176
0
177
0
178
0
179
2
271
2
272
2
273
2
274
3
275
0
276
0
277
2
278
46
279
1
280
0
281
0
282
0
283
0
284
8
285
0
286
0
288
1
289
3
290
0
340
4C
342
84
371
-2
372
-2
  0
DIMSTYLE
105
88
330
4
100
AcDbSymbolTableRecord
100
AcDbDimStyleTableRecord
  2
EZ_RADIUS_INSIDE
 70
0
 40
1.0
 41
0.25
 42
0.125
 43
3.75
 44
0.375
 45
0.0
 46
0.0
 47
0.0
 48
0.0
 49
2.5
140
0.25
141
0.0
142
0.0
143
0.03937007874
144
100.0
145
0.0
146
0.5
147
0.1
148
0.0
 69
0
 70
0
 71
0
 72
0
 73
0
 74
0
 75
0
 76
0
 77
0
 78
12
 79
3
170
0
171
3
172
0
173
0
174
1
175
0
176
0
177
0
178
0
179
2
271
2
272
2
273
2
274
3
275
0
276
0
277
2
278
46
279
0
280
0
281
0
282
0
283
0
284
8
285
0
286
0
288
1
289
0
290
0
340
4C
342
84
371
-2
372
-2
  0
DIMSTYLE
105
89
330
4
100
AcDbSymbolTableRecord
100
AcDbDimStyleTableRecord
  2
EZ_CURVED
 70
0
 40
1.0
 41
0.25
 42
0.125
 43
3.75
 44
0.375
 45
0.0
 46
0.0
 47
0.0
 48
0.0
 49
2.5
140
0.25
141
2.5
142
0.0
143
0.03937007874
144
100.0
145
0.0
146
0.5
147
0.1
148
0.0
 69
0
 70
0
 71
0
 72
0
 73
0
 74
0
 75
0
 76
0
 77
1
 78
12
 79
2
 90
2
170
0
171
3
172
1
173
0
174
0
175
0
176
0
177
0
178
0
179
2
271
2
272
2
273
2
274
3
275
0
276
0
277
2
278
46
279
2
280
0
281
0
282
0
283
0
284
8
285
0
286
0
288
1
289
3
290
0
340
4C
371
-2
372
-2
  0
DIMSTYLE
105
96
330
4
100
AcDbSymbolTableRecord
100
AcDbDimStyleTableRecord
  2
AEROFORGE
 70
0
 40
1.0
 41
1.5
 42
0.5
 43
3.75
 44
0.8
 45
0.0
 46
0.0
 47
0.0
 48
0.0
 49
2.5
140
2.5
141
2.5
142
0.0
143
0.03937007874
144
1.0
145
0.0
146
1.0
147
0.6
148
0.0
 69
0
 70
0
 71
0
 72
0
 73
0
 74
0
 75
0
 76
0
 77
1
 78
8
 79
3
170
0
171
3
172
1
173
0
174
0
175
0
176
0
177
0
178
0
179
2
271
2
272
2
273
2
274
3
275
0
276
0
277
2
278
44
279
0
280
0
281
0
282
0
283
0
284
8
285
0
286
0
288
0
289
3
290
0
371
-2
372
-2
  0
ENDTAB
  0
TABLE
  2
BLOCK_RECORD
  5
9
330
0
100
AcDbSymbolTable
 70
7
  0
BLOCK_RECORD
  5
17
330
9
100
AcDbSymbolTableRecord
100
AcDbBlockTableRecord
  2
*Model_Space
340
1A
 70
0
280
1
281
0
  0
BLOCK_RECORD
  5
1B
330
9
100
AcDbSymbolTableRecord
100
AcDbBlockTableRecord
  2
*Paper_Space
340
1E
 70
0
280
1
281
0
  0
BLOCK_RECORD
  5
74
330
9
100
AcDbSymbolTableRecord
100
AcDbBlockTableRecord
  2
_ARCHTICK
340
0
 70
0
280
1
281
0
  0
BLOCK_RECORD
  5
78
330
9
100
AcDbSymbolTableRecord
100
AcDbBlockTableRecord
  2
_CLOSEDFILLED
340
0
 70
0
280
1
281
0
  0
BLOCK_RECORD
  5
84
330
9
100
AcDbSymbolTableRecord
100
AcDbBlockTableRecord
  2
_CLOSEDBLANK
340
0
 70
0
280
1
281
0
  0
BLOCK_RECORD
  5
128
330
9
100
AcDbSymbolTableRecord
100
AcDbBlockTableRecord
  2
*D1
340
0
 70
0
280
1
281
0
  0
BLOCK_RECORD
  5
137
330
9
100
AcDbSymbolTableRecord
100
AcDbBlockTableRecord
  2
*D2
340
0
 70
0
280
1
281
0
  0
ENDTAB
  0
ENDSEC
  0
SECTION
  2
BLOCKS
  0
BLOCK
  5
18
330
17
100
AcDbEntity
  8
0
100
AcDbBlockBegin
  2
*Model_Space
 70
0
 10
0.0
 20
0.0
 30
0.0
  3
*Model_Space
  1

  0
ENDBLK
  5
19
330
17
100
AcDbEntity
  8
0
100
AcDbBlockEnd
  0
BLOCK
  5
1C
330
1B
100
AcDbEntity
  8
0
100
AcDbBlockBegin
  2
*Paper_Space
 70
0
 10
0.0
 20
0.0
 30
0.0
  3
*Paper_Space
  1

  0
ENDBLK
  5
1D
330
1B
100
AcDbEntity
  8
0
100
AcDbBlockEnd
  0
BLOCK
  5
75
330
74
100
AcDbEntity
  8
0
100
AcDbBlockBegin
  2
_ARCHTICK
 70
0
 10
0.0
 20
0.0
 30
0.0
  3
_ARCHTICK
  1

  0
LWPOLYLINE
  5
77
330
74
100
AcDbEntity
  8
0
  6
BYBLOCK
 62
0
100
AcDbPolyline
 90
2
 70
0
 43
0.15
 10
-0.5
 20
-0.5
 10
0.5
 20
0.5
  0
ENDBLK
  5
76
330
74
100
AcDbEntity
  8
0
100
AcDbBlockEnd
  0
BLOCK
  5
79
330
78
100
AcDbEntity
  8
0
100
AcDbBlockBegin
  2
_CLOSEDFILLED
 70
0
 10
0.0
 20
0.0
 30
0.0
  3
_CLOSEDFILLED
  1

  0
SOLID
  5
7B
330
78
100
AcDbEntity
  8
0
  6
BYBLOCK
 62
0
100
AcDbTrace
 10
-1.0
 20
0.16439898372402537
 30
0.0
 11
0.0
 21
0.0
 31
0.0
 12
-1.0
 22
-0.16439898372402537
 32
0.0
 13
-1.0
 23
-0.16439898372402537
 33
0.0
  0
ENDBLK
  5
7A
330
78
100
AcDbEntity
  8
0
100
AcDbBlockEnd
  0
BLOCK
  5
85
330
84
100
AcDbEntity
  8
0
100
AcDbBlockBegin
  2
_CLOSEDBLANK
 70
0
 10
0.0
 20
0.0
 30
0.0
  3
_CLOSEDBLANK
  1

  0
LWPOLYLINE
  5
87
330
84
100
AcDbEntity
  8
0
  6
BYBLOCK
 62
0
100
AcDbPolyline
 90
3
 70
1
 10
-1.0
 20
0.16439898372402537
 10
0.0
 20
0.0
 10
-1.0
 20
-0.16439898372402537
  0
ENDBLK
  5
86
330
84
100
AcDbEntity
  8
0
100
AcDbBlockEnd
  0
BLOCK
  5
129
330
128
100
AcDbEntity
  8
0
100
AcDbBlockBegin
  2
*D1
 70
1
 10
0.0
 20
0.0
 30
0.0
  3
*D1
  1

  0
LINE
  5
12B
330
128
100
AcDbEntity
  8
0
100
AcDbLine
 10
50.0
 20
127.875
 30
0.0
 11
50.0
 21
119.625
 31
0.0
  0
LINE
  5
12C
330
128
100
AcDbEntity
  8
0
100
AcDbLine
 10
637.52
 20
127.875
 30
0.0
 11
637.52
 21
119.625
 31
0.0
  0
INSERT
  5
12D
330
128
100
AcDbEntity
  8
DIMENSION
100
AcDbBlockReference
  2
_ARCHTICK
 10
50.0
 20
120.0
 30
0.0
 41
0.175
 42
0.175
 50
180.0
  0
INSERT
  5
12F
330
128
100
AcDbEntity
  8
DIMENSION
100
AcDbBlockReference
  2
_ARCHTICK
 10
637.52
 20
120.0
 30
0.0
 41
0.175
 42
0.175
  0
LINE
  5
131
330
128
100
AcDbEntity
  8
0
100
AcDbLine
 10
50.0
 20
120.0
 30
0.0
 11
637.52
 21
120.0
 31
0.0
  0
MTEXT
  5
132
330
128
100
AcDbEntity
  8
DIMENSION
100
AcDbMText
 10
343.76
 20
120.225
 30
0.0
 40
0.25
 71
5
  1
58752
  7
OpenSansCondensed-Light
  0
POINT
  5
133
330
128
100
AcDbEntity
  8
Defpoints
100
AcDbPoint
 10
50.0
 20
120.0
 30
0.0
  0
POINT
  5
134
330
128
100
AcDbEntity
  8
Defpoints
100
AcDbPoint
 10
50.0
 20
128.0
 30
0.0
  0
POINT
  5
135
330
128
100
AcDbEntity
  8
Defpoints
100
AcDbPoint
 10
637.52
 20
128.0
 30
0.0
  0
ENDBLK
  5
12A
330
128
100
AcDbEntity
  8
0
100
AcDbBlockEnd
  0
BLOCK
  5
138
330
137
100
AcDbEntity
  8
0
100
AcDbBlockBegin
  2
*D2
 70
1
 10
0.0
 20
0.0
 30
0.0
  3
*D2
  1

  0
LINE
  5
13A
330
137
100
AcDbEntity
  8
0
100
AcDbLine
 10
67.875
 20
260.0
 30
0.0
 11
59.625
 21
260.0
 31
0.0
  0
LINE
  5
13B
330
137
100
AcDbEntity
  8
0
100
AcDbLine
 10
67.875
 20
210.0
 30
0.0
 11
59.625
 21
210.0
 31
0.0
  0
INSERT
  5
13C
330
137
100
AcDbEntity
  8
DIMENSION
100
AcDbBlockReference
  2
_ARCHTICK
 10
60.0
 20
260.0
 30
0.0
 41
0.175
 42
0.175
 50
270.0
  0
INSERT
  5
13E
330
137
100
AcDbEntity
  8
DIMENSION
100
AcDbBlockReference
  2
_ARCHTICK
 10
60.0
 20
210.0
 30
0.0
 41
0.175
 42
0.175
 50
90.0
  0
LINE
  5
140
330
137
100
AcDbEntity
  8
0
100
AcDbLine
 10
60.0
 20
260.0
 30
0.0
 11
60.0
 21
210.0
 31
0.0
  0
MTEXT
  5
141
330
137
100
AcDbEntity
  8
DIMENSION
100
AcDbMText
 10
60.225
 20
235.0
 30
0.0
 40
0.25
 71
5
  1
5000
  7
OpenSansCondensed-Light
 50
90.0
  0
POINT
  5
142
330
137
100
AcDbEntity
  8
Defpoints
100
AcDbPoint
 10
60.0
 20
260.0
 30
0.0
  0
POINT
  5
143
330
137
100
AcDbEntity
  8
Defpoints
100
AcDbPoint
 10
68.0
 20
260.0
 30
0.0
  0
POINT
  5
144
330
137
100
AcDbEntity
  8
Defpoints
100
AcDbPoint
 10
68.0
 20
210.0
 30
0.0
  0
ENDBLK
  5
139
330
137
100
AcDbEntity
  8
0
100
AcDbBlockEnd
  0
ENDSEC
  0
SECTION
  2
ENTITIES
  0
LINE
  5
97
330
17
100
AcDbEntity
  8
BORDER
100
AcDbLine
 10
20.0
 20
10.0
 30
0.0
 11
831.0
 21
10.0
 31
0.0
  0
LINE
  5
98
330
17
100
AcDbEntity
  8
BORDER
100
AcDbLine
 10
831.0
 20
10.0
 30
0.0
 11
831.0
 21
584.0
 31
0.0
  0
LINE
  5
99
330
17
100
AcDbEntity
  8
BORDER
100
AcDbLine
 10
831.0
 20
584.0
 30
0.0
 11
20.0
 21
584.0
 31
0.0
  0
LINE
  5
9A
330
17
100
AcDbEntity
  8
BORDER
100
AcDbLine
 10
20.0
 20
584.0
 30
0.0
 11
20.0
 21
10.0
 31
0.0
  0
LINE
  5
9B
330
17
100
AcDbEntity
  8
BORDER
100
AcDbLine
 10
425.5
 20
5.0
 30
0.0
 11
425.5
 21
10.0
 31
0.0
  0
LINE
  5
9C
330
17
100
AcDbEntity
  8
BORDER
100
AcDbLine
 10
425.5
 20
584.0
 30
0.0
 11
425.5
 21
589.0
 31
0.0
  0
LINE
  5
9D
330
17
100
AcDbEntity
  8
BORDER
100
AcDbLine
 10
15.0
 20
297.0
 30
0.0
 11
20.0
 21
297.0
 31
0.0
  0
LINE
  5
9E
330
17
100
AcDbEntity
  8
BORDER
100
AcDbLine
 10
831.0
 20
297.0
 30
0.0
 11
836.0
 21
297.0
 31
0.0
  0
LINE
  5
9F
330
17
100
AcDbEntity
  8
BORDER
100
AcDbLine
 10
20.0
 20
81.75
 30
0.0
 11
23.0
 21
81.75
 31
0.0
  0
LINE
  5
A0
330
17
100
AcDbEntity
  8
BORDER
100
AcDbLine
 10
828.0
 20
81.75
 30
0.0
 11
831.0
 21
81.75
 31
0.0
  0
TEXT
  5
A1
330
17
100
AcDbEntity
  8
BORDER
100
AcDbText
 10
21.0
 20
44.875
 30
0.0
 40
2.5
  1
A
 11
21.0
 21
44.875
 31
0.0
100
AcDbText
  0
TEXT
  5
A2
330
17
100
AcDbEntity
  8
BORDER
100
AcDbText
 10
827.5
 20
44.875
 30
0.0
 40
2.5
  1
A
 11
827.5
 21
44.875
 31
0.0
100
AcDbText
  0
LINE
  5
A3
330
17
100
AcDbEntity
  8
BORDER
100
AcDbLine
 10
20.0
 20
153.5
 30
0.0
 11
23.0
 21
153.5
 31
0.0
  0
LINE
  5
A4
330
17
100
AcDbEntity
  8
BORDER
100
AcDbLine
 10
828.0
 20
153.5
 30
0.0
 11
831.0
 21
153.5
 31
0.0
  0
TEXT
  5
A5
330
17
100
AcDbEntity
  8
BORDER
100
AcDbText
 10
21.0
 20
116.625
 30
0.0
 40
2.5
  1
B
 11
21.0
 21
116.625
 31
0.0
100
AcDbText
  0
TEXT
  5
A6
330
17
100
AcDbEntity
  8
BORDER
100
AcDbText
 10
827.5
 20
116.625
 30
0.0
 40
2.5
  1
B
 11
827.5
 21
116.625
 31
0.0
100
AcDbText
  0
LINE
  5
A7
330
17
100
AcDbEntity
  8
BORDER
100
AcDbLine
 10
20.0
 20
225.25
 30
0.0
 11
23.0
 21
225.25
 31
0.0
  0
LINE
  5
A8
330
17
100
AcDbEntity
  8
BORDER
100
AcDbLine
 10
828.0
 20
225.25
 30
0.0
 11
831.0
 21
225.25
 31
0.0
  0
TEXT
  5
A9
330
17
100
AcDbEntity
  8
BORDER
100
AcDbText
 10
21.0
 20
188.375
 30
0.0
 40
2.5
  1
C
 11
21.0
 21
188.375
 31
0.0
100
AcDbText
  0
TEXT
  5
AA
330
17
100
AcDbEntity
  8
BORDER
100
AcDbText
 10
827.5
 20
188.375
 30
0.0
 40
2.5
  1
C
 11
827.5
 21
188.375
 31
0.0
100
AcDbText
  0
LINE
  5
AB
330
17
100
AcDbEntity
  8
BORDER
100
AcDbLine
 10
20.0
 20
297.0
 30
0.0
 11
23.0
 21
297.0
 31
0.0
  0
LINE
  5
AC
330
17
100
AcDbEntity
  8
BORDER
100
AcDbLine
 10
828.0
 20
297.0
 30
0.0
 11
831.0
 21
297.0
 31
0.0
  0
TEXT
  5
AD
330
17
100
AcDbEntity
  8
BORDER
100
AcDbText
 10
21.0
 20
260.125
 30
0.0
 40
2.5
  1
D
 11
21.0
 21
260.125
 31
0.0
100
AcDbText
  0
TEXT
  5
AE
330
17
100
AcDbEntity
  8
BORDER
100
AcDbText
 10
827.5
 20
260.125
 30
0.0
 40
2.5
  1
D
 11
827.5
 21
260.125
 31
0.0
100
AcDbText
  0
LINE
  5
AF
330
17
100
AcDbEntity
  8
BORDER
100
AcDbLine
 10
20.0
 20
368.75
 30
0.0
 11
23.0
 21
368.75
 31
0.0
  0
LINE
  5
B0
330
17
100
AcDbEntity
  8
BORDER
100
AcDbLine
 10
828.0
 20
368.75
 30
0.0
 11
831.0
 21
368.75
 31
0.0
  0
TEXT
  5
B1
330
17
100
AcDbEntity
  8
BORDER
100
AcDbText
 10
21.0
 20
331.875
 30
0.0
 40
2.5
  1
E
 11
21.0
 21
331.875
 31
0.0
100
AcDbText
  0
TEXT
  5
B2
330
17
100
AcDbEntity
  8
BORDER
100
AcDbText
 10
827.5
 20
331.875
 30
0.0
 40
2.5
  1
E
 11
827.5
 21
331.875
 31
0.0
100
AcDbText
  0
LINE
  5
B3
330
17
100
AcDbEntity
  8
BORDER
100
AcDbLine
 10
20.0
 20
440.5
 30
0.0
 11
23.0
 21
440.5
 31
0.0
  0
LINE
  5
B4
330
17
100
AcDbEntity
  8
BORDER
100
AcDbLine
 10
828.0
 20
440.5
 30
0.0
 11
831.0
 21
440.5
 31
0.0
  0
TEXT
  5
B5
330
17
100
AcDbEntity
  8
BORDER
100
AcDbText
 10
21.0
 20
403.625
 30
0.0
 40
2.5
  1
F
 11
21.0
 21
403.625
 31
0.0
100
AcDbText
  0
TEXT
  5
B6
330
17
100
AcDbEntity
  8
BORDER
100
AcDbText
 10
827.5
 20
403.625
 30
0.0
 40
2.5
  1
F
 11
827.5
 21
403.625
 31
0.0
100
AcDbText
  0
LINE
  5
B7
330
17
100
AcDbEntity
  8
BORDER
100
AcDbLine
 10
20.0
 20
512.25
 30
0.0
 11
23.0
 21
512.25
 31
0.0
  0
LINE
  5
B8
330
17
100
AcDbEntity
  8
BORDER
100
AcDbLine
 10
828.0
 20
512.25
 30
0.0
 11
831.0
 21
512.25
 31
0.0
  0
TEXT
  5
B9
330
17
100
AcDbEntity
  8
BORDER
100
AcDbText
 10
21.0
 20
475.375
 30
0.0
 40
2.5
  1
G
 11
21.0
 21
475.375
 31
0.0
100
AcDbText
  0
TEXT
  5
BA
330
17
100
AcDbEntity
  8
BORDER
100
AcDbText
 10
827.5
 20
475.375
 30
0.0
 40
2.5
  1
G
 11
827.5
 21
475.375
 31
0.0
100
AcDbText
  0
LINE
  5
BB
330
17
100
AcDbEntity
  8
BORDER
100
AcDbLine
 10
20.0
 20
584.0
 30
0.0
 11
23.0
 21
584.0
 31
0.0
  0
LINE
  5
BC
330
17
100
AcDbEntity
  8
BORDER
100
AcDbLine
 10
828.0
 20
584.0
 30
0.0
 11
831.0
 21
584.0
 31
0.0
  0
TEXT
  5
BD
330
17
100
AcDbEntity
  8
BORDER
100
AcDbText
 10
21.0
 20
547.125
 30
0.0
 40
2.5
  1
H
 11
21.0
 21
547.125
 31
0.0
100
AcDbText
  0
TEXT
  5
BE
330
17
100
AcDbEntity
  8
BORDER
100
AcDbText
 10
827.5
 20
547.125
 30
0.0
 40
2.5
  1
H
 11
827.5
 21
547.125
 31
0.0
100
AcDbText
  0
LINE
  5
BF
330
17
100
AcDbEntity
  8
BORDER
100
AcDbLine
 10
87.58333333333333
 20
10.0
 30
0.0
 11
87.58333333333333
 21
13.0
 31
0.0
  0
LINE
  5
C0
330
17
100
AcDbEntity
  8
BORDER
100
AcDbLine
 10
87.58333333333333
 20
581.0
 30
0.0
 11
87.58333333333333
 21
584.0
 31
0.0
  0
TEXT
  5
C1
330
17
100
AcDbEntity
  8
BORDER
100
AcDbText
 10
52.791666666666664
 20
10.5
 30
0.0
 40
2.0
  1
1
 11
52.791666666666664
 21
10.5
 31
0.0
100
AcDbText
  0
TEXT
  5
C2
330
17
100
AcDbEntity
  8
BORDER
100
AcDbText
 10
52.791666666666664
 20
581.0
 30
0.0
 40
2.0
  1
1
 11
52.791666666666664
 21
581.0
 31
0.0
100
AcDbText
  0
LINE
  5
C3
330
17
100
AcDbEntity
  8
BORDER
100
AcDbLine
 10
155.16666666666666
 20
10.0
 30
0.0
 11
155.16666666666666
 21
13.0
 31
0.0
  0
LINE
  5
C4
330
17
100
AcDbEntity
  8
BORDER
100
AcDbLine
 10
155.16666666666666
 20
581.0
 30
0.0
 11
155.16666666666666
 21
584.0
 31
0.0
  0
TEXT
  5
C5
330
17
100
AcDbEntity
  8
BORDER
100
AcDbText
 10
120.375
 20
10.5
 30
0.0
 40
2.0
  1
2
 11
120.375
 21
10.5
 31
0.0
100
AcDbText
  0
TEXT
  5
C6
330
17
100
AcDbEntity
  8
BORDER
100
AcDbText
 10
120.375
 20
581.0
 30
0.0
 40
2.0
  1
2
 11
120.375
 21
581.0
 31
0.0
100
AcDbText
  0
LINE
  5
C7
330
17
100
AcDbEntity
  8
BORDER
100
AcDbLine
 10
222.75
 20
10.0
 30
0.0
 11
222.75
 21
13.0
 31
0.0
  0
LINE
  5
C8
330
17
100
AcDbEntity
  8
BORDER
100
AcDbLine
 10
222.75
 20
581.0
 30
0.0
 11
222.75
 21
584.0
 31
0.0
  0
TEXT
  5
C9
330
17
100
AcDbEntity
  8
BORDER
100
AcDbText
 10
187.95833333333331
 20
10.5
 30
0.0
 40
2.0
  1
3
 11
187.95833333333331
 21
10.5
 31
0.0
100
AcDbText
  0
TEXT
  5
CA
330
17
100
AcDbEntity
  8
BORDER
100
AcDbText
 10
187.95833333333331
 20
581.0
 30
0.0
 40
2.0
  1
3
 11
187.95833333333331
 21
581.0
 31
0.0
100
AcDbText
  0
LINE
  5
CB
330
17
100
AcDbEntity
  8
BORDER
100
AcDbLine
 10
290.3333333333333
 20
10.0
 30
0.0
 11
290.3333333333333
 21
13.0
 31
0.0
  0
LINE
  5
CC
330
17
100
AcDbEntity
  8
BORDER
100
AcDbLine
 10
290.3333333333333
 20
581.0
 30
0.0
 11
290.3333333333333
 21
584.0
 31
0.0
  0
TEXT
  5
CD
330
17
100
AcDbEntity
  8
BORDER
100
AcDbText
 10
255.54166666666663
 20
10.5
 30
0.0
 40
2.0
  1
4
 11
255.54166666666663
 21
10.5
 31
0.0
100
AcDbText
  0
TEXT
  5
CE
330
17
100
AcDbEntity
  8
BORDER
100
AcDbText
 10
255.54166666666663
 20
581.0
 30
0.0
 40
2.0
  1
4
 11
255.54166666666663
 21
581.0
 31
0.0
100
AcDbText
  0
LINE
  5
CF
330
17
100
AcDbEntity
  8
BORDER
100
AcDbLine
 10
357.91666666666663
 20
10.0
 30
0.0
 11
357.91666666666663
 21
13.0
 31
0.0
  0
LINE
  5
D0
330
17
100
AcDbEntity
  8
BORDER
100
AcDbLine
 10
357.91666666666663
 20
581.0
 30
0.0
 11
357.91666666666663
 21
584.0
 31
0.0
  0
TEXT
  5
D1
330
17
100
AcDbEntity
  8
BORDER
100
AcDbText
 10
323.125
 20
10.5
 30
0.0
 40
2.0
  1
5
 11
323.125
 21
10.5
 31
0.0
100
AcDbText
  0
TEXT
  5
D2
330
17
100
AcDbEntity
  8
BORDER
100
AcDbText
 10
323.125
 20
581.0
 30
0.0
 40
2.0
  1
5
 11
323.125
 21
581.0
 31
0.0
100
AcDbText
  0
LINE
  5
D3
330
17
100
AcDbEntity
  8
BORDER
100
AcDbLine
 10
425.5
 20
10.0
 30
0.0
 11
425.5
 21
13.0
 31
0.0
  0
LINE
  5
D4
330
17
100
AcDbEntity
  8
BORDER
100
AcDbLine
 10
425.5
 20
581.0
 30
0.0
 11
425.5
 21
584.0
 31
0.0
  0
TEXT
  5
D5
330
17
100
AcDbEntity
  8
BORDER
100
AcDbText
 10
390.7083333333333
 20
10.5
 30
0.0
 40
2.0
  1
6
 11
390.7083333333333
 21
10.5
 31
0.0
100
AcDbText
  0
TEXT
  5
D6
330
17
100
AcDbEntity
  8
BORDER
100
AcDbText
 10
390.7083333333333
 20
581.0
 30
0.0
 40
2.0
  1
6
 11
390.7083333333333
 21
581.0
 31
0.0
100
AcDbText
  0
LINE
  5
D7
330
17
100
AcDbEntity
  8
BORDER
100
AcDbLine
 10
493.0833333333333
 20
10.0
 30
0.0
 11
493.0833333333333
 21
13.0
 31
0.0
  0
LINE
  5
D8
330
17
100
AcDbEntity
  8
BORDER
100
AcDbLine
 10
493.0833333333333
 20
581.0
 30
0.0
 11
493.0833333333333
 21
584.0
 31
0.0
  0
TEXT
  5
D9
330
17
100
AcDbEntity
  8
BORDER
100
AcDbText
 10
458.29166666666663
 20
10.5
 30
0.0
 40
2.0
  1
7
 11
458.29166666666663
 21
10.5
 31
0.0
100
AcDbText
  0
TEXT
  5
DA
330
17
100
AcDbEntity
  8
BORDER
100
AcDbText
 10
458.29166666666663
 20
581.0
 30
0.0
 40
2.0
  1
7
 11
458.29166666666663
 21
581.0
 31
0.0
100
AcDbText
  0
LINE
  5
DB
330
17
100
AcDbEntity
  8
BORDER
100
AcDbLine
 10
560.6666666666666
 20
10.0
 30
0.0
 11
560.6666666666666
 21
13.0
 31
0.0
  0
LINE
  5
DC
330
17
100
AcDbEntity
  8
BORDER
100
AcDbLine
 10
560.6666666666666
 20
581.0
 30
0.0
 11
560.6666666666666
 21
584.0
 31
0.0
  0
TEXT
  5
DD
330
17
100
AcDbEntity
  8
BORDER
100
AcDbText
 10
525.875
 20
10.5
 30
0.0
 40
2.0
  1
8
 11
525.875
 21
10.5
 31
0.0
100
AcDbText
  0
TEXT
  5
DE
330
17
100
AcDbEntity
  8
BORDER
100
AcDbText
 10
525.875
 20
581.0
 30
0.0
 40
2.0
  1
8
 11
525.875
 21
581.0
 31
0.0
100
AcDbText
  0
LINE
  5
DF
330
17
100
AcDbEntity
  8
BORDER
100
AcDbLine
 10
628.25
 20
10.0
 30
0.0
 11
628.25
 21
13.0
 31
0.0
  0
LINE
  5
E0
330
17
100
AcDbEntity
  8
BORDER
100
AcDbLine
 10
628.25
 20
581.0
 30
0.0
 11
628.25
 21
584.0
 31
0.0
  0
TEXT
  5
E1
330
17
100
AcDbEntity
  8
BORDER
100
AcDbText
 10
593.4583333333333
 20
10.5
 30
0.0
 40
2.0
  1
9
 11
593.4583333333333
 21
10.5
 31
0.0
100
AcDbText
  0
TEXT
  5
E2
330
17
100
AcDbEntity
  8
BORDER
100
AcDbText
 10
593.4583333333333
 20
581.0
 30
0.0
 40
2.0
  1
9
 11
593.4583333333333
 21
581.0
 31
0.0
100
AcDbText
  0
LINE
  5
E3
330
17
100
AcDbEntity
  8
BORDER
100
AcDbLine
 10
695.8333333333333
 20
10.0
 30
0.0
 11
695.8333333333333
 21
13.0
 31
0.0
  0
LINE
  5
E4
330
17
100
AcDbEntity
  8
BORDER
100
AcDbLine
 10
695.8333333333333
 20
581.0
 30
0.0
 11
695.8333333333333
 21
584.0
 31
0.0
  0
TEXT
  5
E5
330
17
100
AcDbEntity
  8
BORDER
100
AcDbText
 10
661.0416666666666
 20
10.5
 30
0.0
 40
2.0
  1
10
 11
661.0416666666666
 21
10.5
 31
0.0
100
AcDbText
  0
TEXT
  5
E6
330
17
100
AcDbEntity
  8
BORDER
100
AcDbText
 10
661.0416666666666
 20
581.0
 30
0.0
 40
2.0
  1
10
 11
661.0416666666666
 21
581.0
 31
0.0
100
AcDbText
  0
LINE
  5
E7
330
17
100
AcDbEntity
  8
BORDER
100
AcDbLine
 10
763.4166666666666
 20
10.0
 30
0.0
 11
763.4166666666666
 21
13.0
 31
0.0
  0
LINE
  5
E8
330
17
100
AcDbEntity
  8
BORDER
100
AcDbLine
 10
763.4166666666666
 20
581.0
 30
0.0
 11
763.4166666666666
 21
584.0
 31
0.0
  0
TEXT
  5
E9
330
17
100
AcDbEntity
  8
BORDER
100
AcDbText
 10
728.625
 20
10.5
 30
0.0
 40
2.0
  1
11
 11
728.625
 21
10.5
 31
0.0
100
AcDbText
  0
TEXT
  5
EA
330
17
100
AcDbEntity
  8
BORDER
100
AcDbText
 10
728.625
 20
581.0
 30
0.0
 40
2.0
  1
11
 11
728.625
 21
581.0
 31
0.0
100
AcDbText
  0
LINE
  5
EB
330
17
100
AcDbEntity
  8
BORDER
100
AcDbLine
 10
831.0
 20
10.0
 30
0.0
 11
831.0
 21
13.0
 31
0.0
  0
LINE
  5
EC
330
17
100
AcDbEntity
  8
BORDER
100
AcDbLine
 10
831.0
 20
581.0
 30
0.0
 11
831.0
 21
584.0
 31
0.0
  0
TEXT
  5
ED
330
17
100
AcDbEntity
  8
BORDER
100
AcDbText
 10
796.2083333333333
 20
10.5
 30
0.0
 40
2.0
  1
12
 11
796.2083333333333
 21
10.5
 31
0.0
100
AcDbText
  0
TEXT
  5
EE
330
17
100
AcDbEntity
  8
BORDER
100
AcDbText
 10
796.2083333333333
 20
581.0
 30
0.0
 40
2.0
  1
12
 11
796.2083333333333
 21
581.0
 31
0.0
100
AcDbText
  0
LINE
  5
EF
330
17
100
AcDbEntity
  8
TITLEBLOCK
100
AcDbLine
 10
661.0
 20
10.0
 30
0.0
 11
831.0
 21
10.0
 31
0.0
  0
LINE
  5
F0
330
17
100
AcDbEntity
  8
TITLEBLOCK
100
AcDbLine
 10
661.0
 20
46.0
 30
0.0
 11
831.0
 21
46.0
 31
0.0
  0
LINE
  5
F1
330
17
100
AcDbEntity
  8
TITLEBLOCK
100
AcDbLine
 10
661.0
 20
10.0
 30
0.0
 11
661.0
 21
46.0
 31
0.0
  0
LINE
  5
F2
330
17
100
AcDbEntity
  8
TITLEBLOCK
100
AcDbLine
 10
831.0
 20
10.0
 30
0.0
 11
831.0
 21
46.0
 31
0.0
  0
LINE
  5
F3
330
17
100
AcDbEntity
  8
TITLEBLOCK
100
AcDbLine
 10
661.0
 20
19.0
 30
0.0
 11
831.0
 21
19.0
 31
0.0
  0
LINE
  5
F4
330
17
100
AcDbEntity
  8
TITLEBLOCK
100
AcDbLine
 10
661.0
 20
28.0
 30
0.0
 11
831.0
 21
28.0
 31
0.0
  0
LINE
  5
F5
330
17
100
AcDbEntity
  8
TITLEBLOCK
100
AcDbLine
 10
661.0
 20
37.0
 30
0.0
 11
831.0
 21
37.0
 31
0.0
  0
TEXT
  5
F6
330
17
100
AcDbEntity
  8
TITLEBLOCK
100
AcDbText
 10
664.0
 20
39.0
 30
0.0
 40
3.5
  1
AEROFORGE — Fuselage_Assembly
 11
664.0
 21
39.0
 31
0.0
100
AcDbText
  0
TEXT
  5
F7
330
17
100
AcDbEntity
  8
TITLEBLOCK
100
AcDbText
 10
664.0
 20
30.0
 30
0.0
 40
2.0
  1
Plain top-level fuselage OML concept. Clean parent sheet for aerodynamic shape review.
 11
664.0
 21
30.0
 31
0.0
100
AcDbText
  0
TEXT
  5
F8
330
17
100
AcDbEntity
  8
TITLEBLOCK
100
AcDbText
 10
664.0
 20
21.0
 30
0.0
 40
2.0
  1
Top-level outer mold line concept only
 11
664.0
 21
21.0
 31
0.0
100
AcDbText
  0
TEXT
  5
F9
330
17
100
AcDbEntity
  8
TITLEBLOCK
100
AcDbText
 10
664.0
 20
12.0
 30
0.0
 40
1.8
  1
Scale: 1:2 | Units: mm | Date: 2026-03-30 | Mass: Concept review | Rev: v4 | Status: TOP-LEVEL REVIEW
 11
664.0
 21
12.0
 31
0.0
100
AcDbText
  0
LINE
  5
FA
330
17
100
AcDbEntity
  8
TITLEBLOCK
100
AcDbLine
 10
811.0
 20
12.0
 30
0.0
 11
819.0
 21
12.0
 31
0.0
  0
LINE
  5
FB
330
17
100
AcDbEntity
  8
TITLEBLOCK
100
AcDbLine
 10
813.0
 20
18.0
 30
0.0
 11
817.0
 21
18.0
 31
0.0
  0
LINE
  5
FC
330
17
100
AcDbEntity
  8
TITLEBLOCK
100
AcDbLine
 10
811.0
 20
12.0
 30
0.0
 11
813.0
 21
18.0
 31
0.0
  0
LINE
  5
FD
330
17
100
AcDbEntity
  8
TITLEBLOCK
100
AcDbLine
 10
819.0
 20
12.0
 30
0.0
 11
817.0
 21
18.0
 31
0.0
  0
CIRCLE
  5
FE
330
17
100
AcDbEntity
  8
TITLEBLOCK
100
AcDbCircle
 10
807.0
 20
15.0
 30
0.0
 40
3.0
  0
LINE
  5
FF
330
17
100
AcDbEntity
  8
TITLEBLOCK
100
AcDbLine
 10
810.0
 20
15.0
 30
0.0
 11
811.0
 21
15.0
 31
0.0
  0
LINE
  5
100
330
17
100
AcDbEntity
  8
ORIENTATION
100
AcDbLine
 10
45.0
 20
569.0
 30
0.0
 11
30.0
 21
569.0
 31
0.0
  0
LINE
  5
101
330
17
100
AcDbEntity
  8
ORIENTATION
100
AcDbLine
 10
30.0
 20
569.0
 30
0.0
 11
32.0
 21
570.0
 31
0.0
  0
LINE
  5
102
330
17
100
AcDbEntity
  8
ORIENTATION
100
AcDbLine
 10
30.0
 20
569.0
 30
0.0
 11
32.0
 21
568.0
 31
0.0
  0
TEXT
  5
103
330
17
100
AcDbEntity
  8
ORIENTATION
100
AcDbText
 10
29.0
 20
571.0
 30
0.0
 40
2.5
  1
FWD
 11
29.0
 21
571.0
 31
0.0
100
AcDbText
  0
LINE
  5
104
330
17
100
AcDbEntity
  8
ORIENTATION
100
AcDbLine
 10
50.0
 20
584.0
 30
0.0
 11
50.0
 21
569.0
 31
0.0
  0
LINE
  5
105
330
17
100
AcDbEntity
  8
ORIENTATION
100
AcDbLine
 10
50.0
 20
569.0
 30
0.0
 11
49.0
 21
571.0
 31
0.0
  0
LINE
  5
106
330
17
100
AcDbEntity
  8
ORIENTATION
100
AcDbLine
 10
50.0
 20
569.0
 30
0.0
 11
51.0
 21
571.0
 31
0.0
  0
TEXT
  5
107
330
17
100
AcDbEntity
  8
ORIENTATION
100
AcDbText
 10
52.0
 20
571.0
 30
0.0
 40
2.0
  1
UP
 11
52.0
 21
571.0
 31
0.0
100
AcDbText
  0
TEXT
  5
108
330
17
100
AcDbEntity
  8
TEXT
100
AcDbText
 10
50.0
 20
528.0
 30
0.0
 40
4.2
  1
SIDE VIEW — FUSELAGE OML REFERENCE
 11
50.0
 21
528.0
 31
0.0
100
AcDbText
  0
LWPOLYLINE
  5
109
330
17
100
AcDbEntity
  8
OUTLINE
100
AcDbPolyline
 90
15
 70
0
 10
50.0
 20
430.0
 10
56.480000000000004
 20
434.32
 10
66.2
 20
438.64
 10
79.7
 20
439.45
 10
98.6
 20
441.34
 10
131.0
 20
441.88
 10
163.4
 20
440.8
 10
190.4
 20
439.18
 10
222.8
 20
438.1
 10
239.0
 20
437.02
 10
282.20000000000005
 20
435.4
 10
320.0
 20
434.32
 10
401.0
 20
433.51
 10
460.40000000000003
 20
433.132
 10
503.6
 20
432.7
  0
LWPOLYLINE
  5
10A
330
17
100
AcDbEntity
  8
OUTLINE
100
AcDbPolyline
 90
19
 70
0
 10
50.0
 20
430.0
 10
56.480000000000004
 20
425.68
 10
66.2
 20
421.36
 10
79.7
 20
420.55
 10
98.6
 20
418.66
 10
131.0
 20
418.12
 10
163.4
 20
418.93
 10
190.4
 20
420.82
 10
222.8
 20
421.63
 10
239.0
 20
422.44
 10
282.20000000000005
 20
424.06
 10
320.0
 20
425.68
 10
401.0
 20
426.49
 10
460.40000000000003
 20
426.868
 10
503.6
 20
427.3
 10
529.52
 20
427.57
 10
560.84
 20
427.894
 10
609.44
 20
428.812
 10
637.52
 20
430.0
  0
LWPOLYLINE
  5
10B
330
17
100
AcDbEntity
  8
OUTLINE
100
AcDbPolyline
 90
3
 70
0
 10
519.8
 20
432.53125
 10
537.08
 20
433.4466896551724
 10
556.52
 20
435.12068965517244
  0
LWPOLYLINE
  5
10C
330
17
100
AcDbEntity
  8
OUTLINE
100
AcDbPolyline
 90
3
 70
0
 10
619.1600000000001
 20
435.12068965517244
 10
614.1488
 20
433.2306896551724
 10
637.52
 20
430.0
  0
LWPOLYLINE
  5
10D
330
17
100
AcDbEntity
  8
OUTLINE
100
AcDbPolyline
 90
34
 70
0
 10
556.52
 20
435.12068965517244
 10
556.5603037707745
 20
440.8581896551724
 10
556.676215731868
 20
446.5956896551724
 10
556.8662259009812
 20
452.3331896551724
 10
557.1311643059555
 20
458.07068965517243
 10
557.473369493725
 20
463.80818965517244
 10
557.8966728600179
 20
469.5456896551724
 10
558.4066419799841
 20
475.2831896551724
 10
559.0110655162277
 20
481.0206896551724
 10
559.7207852584049
 20
486.75818965517243
 10
560.5511259026504
 20
492.49568965517244
 10
561.5244776754901
 20
498.2331896551724
 10
562.6753694516724
 20
503.9706896551724
 10
564.0617663921576
 20
509.7081896551724
 10
565.7956835110274
 20
515.4456896551724
 10
568.161931001984
 20
521.1831896551724
 10
574.0160000000001
 20
526.9206896551724
 10
597.7760000000001
 20
526.9206896551724
 10
604.9309732197974
 20
521.1831896551724
 10
607.8230534865221
 20
515.4456896551724
 10
609.9422855206965
 20
509.7081896551724
 10
611.6367706701784
 20
503.9706896551724
 10
613.043416174401
 20
498.2331896551724
 10
614.2330683412054
 20
492.49568965517244
 10
615.2479291286165
 20
486.75818965517243
 10
616.115364369055
 20
481.0206896551724
 10
616.8541042466862
 20
475.2831896551724
 10
617.477399837756
 20
469.5456896551724
 10
617.9947706187806
 20
463.80818965517244
 10
618.4130214038323
 20
458.07068965517243
 10
618.7368350099119
 20
452.3331896551724
 10
618.9690696610504
 20
446.5956896551724
 10
619.1107398357203
 20
440.8581896551724
 10
619.1600000000001
 20
435.12068965517244
  0
LINE
  5
10E
330
17
100
AcDbEntity
  8
CENTERLINE
100
AcDbLine
 10
603.5
 20
435.12068965517244
 30
0.0
 11
592.0736000000002
 21
526.9206896551724
 31
0.0
  0
LINE
  5
10F
330
17
100
AcDbEntity
  8
CENTERLINE
100
AcDbLine
 10
40.0
 20
430.0
 30
0.0
 11
645.08
 21
430.0
 31
0.0
  0
LWPOLYLINE
  5
110
330
17
100
AcDbEntity
  8
OUTLINE
100
AcDbPolyline
 90
140
 70
1
 10
595.9412744
 20
467.3525289255172
 10
595.51486016
 20
467.36998820551725
 10
594.746843
 20
467.40159332551724
 10
593.81914352
 20
467.44008020551723
 10
592.758779
 20
467.48430188551725
 10
591.613412
 20
467.5323467655172
 10
590.42382332
 20
467.5826218455172
 10
589.2143540000001
 20
467.6341076055173
 10
587.9959638800001
 20
467.68603940551725
 10
586.77368684
 20
467.73835352551725
 10
585.5495619200001
 20
467.79054020551723
 10
584.32454492
 20
467.84291804551725
 10
583.0990818800001
 20
467.89516844551724
 10
581.8734276800001
 20
467.94754628551726
 10
580.64764604
 20
467.9996692455172
 10
579.4219281200001
 20
468.05198336551723
 10
578.1962102
 20
468.1039788855172
 10
576.97049228
 20
468.15622928551727
 10
575.74471064
 20
468.20822480551726
 10
574.51912016
 20
468.26022032551725
 10
573.29333852
 20
468.31247072551724
 10
572.0677480400001
 20
468.3644025255172
 10
570.84234872
 20
468.41665292551727
 10
569.6167582400001
 20
468.46864844551726
 10
568.3916138000001
 20
468.52070768551727
 10
567.16640564
 20
468.57289436551724
 10
565.9412612
 20
468.62469872551725
 10
564.71637164
 20
468.67669424551724
 10
563.49192812
 20
468.72798884551725
 10
562.26691112
 20
468.78055784551725
 10
561.04367828
 20
468.83446496551727
 10
559.82082776
 20
468.8872888455172
 10
558.59823212
 20
468.93998528551725
 10
557.3809889600001
 20
468.99147104551724
 10
556.1650202000001
 20
469.0416186855172
 10
554.95408532
 20
469.09049192551726
 10
553.7476745600001
 20
469.1367526455172
 10
552.54419492
 20
469.18084688551727
 10
551.3482979600001
 20
469.22162768551726
 10
550.15552328
 20
469.25852156551724
 10
548.9713508
 20
469.29120992551725
 10
547.79342288
 20
469.31803604551726
 10
546.62447948
 20
469.33912736551724
 10
545.46668708
 20
469.3525722855172
 10
544.3210652
 20
469.3581796455172
 10
543.19411328
 20
469.3541015655172
 10
542.08806152
 20
469.33995572551726
 10
541.0136786
 20
469.31408540551723
 10
539.97867464
 20
469.27636316551724
 10
538.99961684
 20
469.22583320551723
 10
538.09077848
 20
469.16389736551724
 10
537.2683444400001
 20
469.09093796551724
 10
536.5387504400001
 20
469.00969496551727
 10
535.9026974000001
 20
468.9215064855172
 10
535.35171056
 20
468.82904876551726
 10
534.87763376
 20
468.73512548551724
 10
534.4699532000001
 20
468.64107476551726
 10
534.1181550800001
 20
468.54785240551723
 10
533.8130637200001
 20
468.45539468551726
 10
533.5466504
 20
468.36370160551724
 10
533.31273428
 20
468.27264572551724
 10
533.1065363600001
 20
468.18139868551725
 10
532.924106
 20
468.08932328551725
 10
532.76263952
 20
467.9961009255172
 10
532.62041648
 20
467.9007120855172
 10
532.4964810800001
 20
467.80207352551724
 10
532.3910882
 20
467.69884712551726
 10
532.30748756
 20
467.58912128551725
 10
532.2509042
 20
467.47155788551726
 10
532.2233134400001
 20
467.3487057255172
 10
532.22337716
 20
467.22566240551726
 10
532.2508404800001
 20
467.10287396551723
 10
532.30748756
 20
466.98537428551725
 10
532.3911519200001
 20
466.87558472551723
 10
532.4965448
 20
466.77242204551726
 10
532.62041648
 20
466.67371976551726
 10
532.76263952
 20
466.57826720551725
 10
532.924106
 20
466.48510856551724
 10
533.1065363600001
 20
466.39309688551725
 10
533.31273428
 20
466.30178612551725
 10
533.54671412
 20
466.21066652551724
 10
533.81312744
 20
466.1190371655172
 10
534.1182188
 20
466.02651572551724
 10
534.4699532000001
 20
465.9332933655173
 10
534.87769748
 20
465.83924264551723
 10
535.35171056
 20
465.7453193655172
 10
535.9026974000001
 20
465.65286164551725
 10
536.5387504400001
 20
465.56460944551725
 10
537.2683444400001
 20
465.4833664455172
 10
538.0907147600001
 20
465.4104070455172
 10
538.99955312
 20
465.34834376551726
 10
539.97867464
 20
465.29781380551725
 10
541.01361488
 20
465.26002784551724
 10
542.0879978
 20
465.2341575255172
 10
543.19404956
 20
465.22001168551725
 10
544.3210652
 20
465.21586988551724
 10
545.46668708
 20
465.22147724551724
 10
546.62447948
 20
465.23479472551725
 10
547.79342288
 20
465.25588604551723
 10
548.97128708
 20
465.28271216551724
 10
550.15552328
 20
465.31533680551723
 10
551.34823424
 20
465.35223068551727
 10
552.54419492
 20
465.39294776551725
 10
553.7476745600001
 20
465.4369782855172
 10
554.95408532
 20
465.48323900551725
 10
556.1650202000001
 20
465.53204852551727
 10
557.3809889600001
 20
465.58213244551723
 10
558.59823212
 20
465.6336182055172
 10
559.8207640400001
 20
465.68625092551724
 10
561.04361456
 20
465.73901108551723
 10
562.26691112
 20
465.79285448551724
 10
563.49192812
 20
465.84542348551724
 10
564.7162442
 20
465.89665436551724
 10
565.94119748
 20
465.9486498855172
 10
567.16634192
 20
466.0003905255172
 10
568.39148636
 20
466.05251348551724
 10
569.6167582400001
 20
466.10457272551724
 10
570.84222128
 20
466.1565045255172
 10
572.0677480400001
 20
466.20875492551727
 10
573.2932748000001
 20
466.26062300551723
 10
574.51899272
 20
466.31280968551727
 10
575.74464692
 20
466.36480520551726
 10
576.9704285600001
 20
466.41673700551723
 10
578.19614648
 20
466.46892368551727
 10
579.4219281200001
 20
466.52085548551725
 10
580.64770976
 20
466.57316960551725
 10
581.8734276800001
 20
466.62522884551726
 10
583.09901816
 20
466.6776066855172
 10
584.3244812
 20
466.72972964551724
 10
585.5494982
 20
466.78210748551726
 10
586.77368684
 20
466.83429416551724
 10
587.9959638800001
 20
466.8865445655172
 10
589.21429028
 20
466.93841264551725
 10
590.42382332
 20
466.98989840551724
 10
591.613412
 20
467.04010976551723
 10
592.758779
 20
467.08809092551724
 10
593.8192072400001
 20
467.13231260551726
 10
594.7469067200001
 20
467.17073576551724
 10
595.51479644
 20
467.20240460551724
 10
595.9412744
 20
467.21980016551726
  0
LINE
  5
111
330
17
100
AcDbEntity
  8
HIDDEN
100
AcDbLine
 10
551.6492000000001
 20
465.88206896551725
 30
0.0
 11
558.6692
 21
465.88206896551725
 31
0.0
  0
LINE
  5
112
330
17
100
AcDbEntity
  8
HIDDEN
100
AcDbLine
 10
558.6692
 20
465.88206896551725
 30
0.0
 11
558.6692
 21
468.69006896551724
 31
0.0
  0
LINE
  5
113
330
17
100
AcDbEntity
  8
HIDDEN
100
AcDbLine
 10
558.6692
 20
468.69006896551724
 30
0.0
 11
551.6492000000001
 21
468.69006896551724
 31
0.0
  0
LINE
  5
114
330
17
100
AcDbEntity
  8
HIDDEN
100
AcDbLine
 10
551.6492000000001
 20
468.69006896551724
 30
0.0
 11
551.6492000000001
 21
465.88206896551725
 31
0.0
  0
TEXT
  5
115
330
17
100
AcDbEntity
  8
TEXT
100
AcDbText
 10
565.1592
 20
475.28606896551725
 30
0.0
 40
1.8
  1
HSTAB ROOT / ATTACH
 11
565.1592
 21
475.28606896551725
 31
0.0
100
AcDbText
  0
TEXT
  5
116
330
17
100
AcDbEntity
  8
TEXT
100
AcDbText
 10
50.0
 20
293.0
 30
0.0
 40
4.2
  1
TOP VIEW — FUSELAGE OML / WING FAIRING IDEA
 11
50.0
 21
293.0
 31
0.0
100
AcDbText
  0
LWPOLYLINE
  5
117
330
17
100
AcDbEntity
  8
OUTLINE
100
AcDbPolyline
 90
20
 70
0
 10
50.0
 20
235.0
 10
56.480000000000004
 20
237.97
 10
66.2
 20
243.64
 10
79.7
 20
244.45
 10
98.6
 20
246.61
 10
120.2
 20
247.852
 10
141.8
 20
248.392
 10
163.4
 20
248.068
 10
182.3
 20
247.096
 10
201.20000000000002
 20
245.692
 10
222.8
 20
244.072
 10
255.20000000000002
 20
242.344
 10
298.4
 20
240.67
 10
352.40000000000003
 20
239.428
 10
428.0
 20
238.402
 10
492.8
 20
237.7
 10
536.0
 20
237.214
 10
579.2
 20
236.836
 10
622.4000000000001
 20
236.08
 10
637.52
 20
235.0
  0
LWPOLYLINE
  5
118
330
17
100
AcDbEntity
  8
OUTLINE
100
AcDbPolyline
 90
20
 70
0
 10
50.0
 20
235.0
 10
56.480000000000004
 20
232.03
 10
66.2
 20
226.36
 10
79.7
 20
225.55
 10
98.6
 20
223.39
 10
120.2
 20
222.148
 10
141.8
 20
221.608
 10
163.4
 20
221.932
 10
182.3
 20
222.904
 10
201.20000000000002
 20
224.308
 10
222.8
 20
225.928
 10
255.20000000000002
 20
227.656
 10
298.4
 20
229.33
 10
352.40000000000003
 20
230.572
 10
428.0
 20
231.598
 10
492.8
 20
232.3
 10
536.0
 20
232.786
 10
579.2
 20
233.164
 10
622.4000000000001
 20
233.92
 10
637.52
 20
235.0
  0
LINE
  5
119
330
17
100
AcDbEntity
  8
CENTERLINE
100
AcDbLine
 10
40.0
 20
235.0
 30
0.0
 11
645.08
 21
235.0
 31
0.0
  0
LINE
  5
11A
330
17
100
AcDbEntity
  8
SECTION
100
AcDbLine
 10
79.7
 20
217.55
 30
0.0
 11
79.7
 21
252.45
 31
0.0
  0
TEXT
  5
11B
330
17
100
AcDbEntity
  8
TEXT
100
AcDbText
 10
69.7
 20
256.45
 30
0.0
 40
1.8
  1
NOSE
 11
69.7
 21
256.45
 31
0.0
100
AcDbText
  0
LINE
  5
11C
330
17
100
AcDbEntity
  8
SECTION
100
AcDbLine
 10
141.8
 20
213.608
 30
0.0
 11
141.8
 21
256.392
 31
0.0
  0
TEXT
  5
11D
330
17
100
AcDbEntity
  8
TEXT
100
AcDbText
 10
131.8
 20
260.392
 30
0.0
 40
1.8
  1
MAX POD
 11
131.8
 21
260.392
 31
0.0
100
AcDbText
  0
LINE
  5
11E
330
17
100
AcDbEntity
  8
SECTION
100
AcDbLine
 10
190.4
 20
215.50571428571428
 30
0.0
 11
190.4
 21
254.49428571428572
 31
0.0
  0
TEXT
  5
11F
330
17
100
AcDbEntity
  8
TEXT
100
AcDbText
 10
180.4
 20
258.49428571428575
 30
0.0
 40
1.8
  1
WING LE
 11
180.4
 21
258.49428571428575
 31
0.0
100
AcDbText
  0
LINE
  5
120
330
17
100
AcDbEntity
  8
SECTION
100
AcDbLine
 10
460.40000000000003
 20
223.949
 30
0.0
 11
460.40000000000003
 21
246.051
 31
0.0
  0
TEXT
  5
121
330
17
100
AcDbEntity
  8
TEXT
100
AcDbText
 10
450.40000000000003
 20
250.051
 30
0.0
 40
1.8
  1
TAIL START
 11
450.40000000000003
 21
250.051
 31
0.0
100
AcDbText
  0
LINE
  5
122
330
17
100
AcDbEntity
  8
SECTION
100
AcDbLine
 10
555.1592
 20
224.953643
 30
0.0
 11
555.1592
 21
245.046357
 31
0.0
  0
TEXT
  5
123
330
17
100
AcDbEntity
  8
TEXT
100
AcDbText
 10
545.1592
 20
249.046357
 30
0.0
 40
1.8
  1
HSTAB ATTACH
 11
545.1592
 21
249.046357
 31
0.0
100
AcDbText
  0
TEXT
  5
124
330
17
100
AcDbEntity
  8
TEXT
100
AcDbText
 10
90.0
 20
72.0
 30
0.0
 40
2.0
  1
Plain top-view aerodynamic idea only. Internal architecture is intentionally omitted here.
 11
90.0
 21
72.0
 31
0.0
100
AcDbText
  0
TEXT
  5
125
330
17
100
AcDbEntity
  8
TEXT
100
AcDbText
 10
90.0
 20
58.0
 30
0.0
 40
2.0
  1
Wing-root fairing is shown as a smoother OML shoulder instead of the older stepped blend.
 11
90.0
 21
58.0
 31
0.0
100
AcDbText
  0
TEXT
  5
126
330
17
100
AcDbEntity
  8
TEXT
100
AcDbText
 10
90.0
 20
44.0
 30
0.0
 40
2.0
  1
Tail architecture and side-view internals stay with the fuselage aero/structural review.
 11
90.0
 21
44.0
 31
0.0
100
AcDbText
  0
DIMENSION
  5
127
330
17
100
AcDbEntity
  8
DIMENSION
100
AcDbDimension
280
0
  2
*D1
  3
EZDXF
 10
50.0
 20
120.0
 30
0.0
 11
343.76
 21
120.225
 31
0.0
 70
32
 71
5
  1
<>
100
AcDbAlignedDimension
 13
50.0
 23
128.0
 33
0.0
 14
637.52
 24
128.0
 34
0.0
 50
0.0
100
AcDbRotatedDimension
  0
DIMENSION
  5
136
330
17
100
AcDbEntity
  8
DIMENSION
100
AcDbDimension
280
0
  2
*D2
  3
EZDXF
 10
60.0
 20
260.0
 30
0.0
 11
60.225
 21
235.0
 31
0.0
 70
32
 71
5
  1
<>
100
AcDbAlignedDimension
 13
68.0
 23
260.0
 33
0.0
 14
68.0
 24
210.0
 34
0.0
 50
90.0
100
AcDbRotatedDimension
  0
TEXT
  5
145
330
17
100
AcDbEntity
  8
TEXT
100
AcDbText
 10
625.0
 20
460.0
 30
0.0
 40
3.0
  1
SEC A — MOTOR FACE
 11
625.0
 21
460.0
 31
0.0
100
AcDbText
  0
ELLIPSE
  5
146
330
17
100
AcDbEntity
  8
OUTLINE
100
AcDbEllipse
 10
660.0
 20
430.0
 30
0.0
 11
8.0
 21
0.0
 31
0.0
 40
1.0
 41
0.0
 42
6.283185307179586
  0
LINE
  5
147
330
17
100
AcDbEntity
  8
CENTERLINE
100
AcDbLine
 10
660.0
 20
417.0
 30
0.0
 11
660.0
 21
443.0
 31
0.0
  0
LINE
  5
148
330
17
100
AcDbEntity
  8
CENTERLINE
100
AcDbLine
 10
647.0
 20
430.0
 30
0.0
 11
673.0
 21
430.0
 31
0.0
  0
TEXT
  5
149
330
17
100
AcDbEntity
  8
TEXT
100
AcDbText
 10
625.0
 20
372.0
 30
0.0
 40
3.0
  1
SEC B — MAX POD
 11
625.0
 21
372.0
 31
0.0
100
AcDbText
  0
ELLIPSE
  5
14A
330
17
100
AcDbEntity
  8
OUTLINE
100
AcDbEllipse
 10
660.0
 20
342.0
 30
0.0
 11
11.954545454545455
 21
0.0
 31
0.0
 40
0.8821292775665398
 41
0.0
 42
6.283185307179586
  0
LINE
  5
14B
330
17
100
AcDbEntity
  8
CENTERLINE
100
AcDbLine
 10
660.0
 20
326.45454545454544
 30
0.0
 11
660.0
 21
357.54545454545456
 31
0.0
  0
LINE
  5
14C
330
17
100
AcDbEntity
  8
CENTERLINE
100
AcDbLine
 10
643.0454545454545
 20
342.0
 30
0.0
 11
676.9545454545455
 21
342.0
 31
0.0
  0
TEXT
  5
14D
330
17
100
AcDbEntity
  8
TEXT
100
AcDbText
 10
625.0
 20
284.0
 30
0.0
 40
3.0
  1
SEC C — WING LE
 11
625.0
 21
284.0
 31
0.0
100
AcDbText
  0
ELLIPSE
  5
14E
330
17
100
AcDbEntity
  8
OUTLINE
100
AcDbEllipse
 10
660.0
 20
254.0
 30
0.0
 11
9.5
 21
0.0
 31
0.0
 40
0.8947368421052632
 41
0.0
 42
6.283185307179586
  0
LINE
  5
14F
330
17
100
AcDbEntity
  8
CENTERLINE
100
AcDbLine
 10
660.0
 20
240.5
 30
0.0
 11
660.0
 21
267.5
 31
0.0
  0
LINE
  5
150
330
17
100
AcDbEntity
  8
CENTERLINE
100
AcDbLine
 10
645.5
 20
254.0
 30
0.0
 11
674.5
 21
254.0
 31
0.0
  0
TEXT
  5
151
330
17
100
AcDbEntity
  8
TEXT
100
AcDbText
 10
625.0
 20
196.0
 30
0.0
 40
3.0
  1
SEC D — TAIL START
 11
625.0
 21
196.0
 31
0.0
100
AcDbText
  0
ELLIPSE
  5
152
330
17
100
AcDbEntity
  8
OUTLINE
100
AcDbEllipse
 10
660.0
 20
166.0
 30
0.0
 11
0.0
 21
4.5
 31
0.0
 40
0.6111111111111112
 41
0.0
 42
6.283185307179586
  0
LINE
  5
153
330
17
100
AcDbEntity
  8
CENTERLINE
100
AcDbLine
 10
660.0
 20
155.0
 30
0.0
 11
660.0
 21
177.0
 31
0.0
  0
LINE
  5
154
330
17
100
AcDbEntity
  8
CENTERLINE
100
AcDbLine
 10
649.0
 20
166.0
 30
0.0
 11
671.0
 21
166.0
 31
0.0
  0
ENDSEC
  0
SECTION
  2
OBJECTS
  0
DICTIONARY
  5
A
330
0
100
AcDbDictionary
281
1
  3
ACAD_COLOR
350
B
  3
ACAD_GROUP
350
C
  3
ACAD_LAYOUT
350
D
  3
ACAD_MATERIAL
350
E
  3
ACAD_MLEADERSTYLE
350
F
  3
ACAD_MLINESTYLE
350
10
  3
ACAD_PLOTSETTINGS
350
11
  3
ACAD_PLOTSTYLENAME
350
12
  3
ACAD_SCALELIST
350
14
  3
ACAD_TABLESTYLE
350
15
  3
ACAD_VISUALSTYLE
350
16
  3
EZDXF_META
350
2D
  0
DICTIONARY
  5
B
330
A
100
AcDbDictionary
281
1
  0
DICTIONARY
  5
C
330
A
100
AcDbDictionary
281
1
  0
DICTIONARY
  5
D
330
A
100
AcDbDictionary
281
1
  3
Model
350
1A
  3
Layout1
350
1E
  0
DICTIONARY
  5
E
330
A
100
AcDbDictionary
281
1
  3
ByBlock
350
1F
  3
ByLayer
350
20
  3
Global
350
21
  0
DICTIONARY
  5
F
330
A
100
AcDbDictionary
281
1
  3
Standard
350
2C
  0
DICTIONARY
  5
10
330
A
100
AcDbDictionary
281
1
  3
Standard
350
22
  0
DICTIONARY
  5
11
330
A
100
AcDbDictionary
281
1
  0
ACDBDICTIONARYWDFLT
  5
12
330
A
100
AcDbDictionary
281
1
  3
Normal
350
13
100
AcDbDictionaryWithDefault
340
13
  0
ACDBPLACEHOLDER
  5
13
330
12
  0
DICTIONARY
  5
14
330
A
100
AcDbDictionary
281
1
  0
DICTIONARY
  5
15
330
A
100
AcDbDictionary
281
1
  0
DICTIONARY
  5
16
330
A
100
AcDbDictionary
281
1
  3
2dWireframe
350
5A
  3
Basic
350
5B
  3
Brighten
350
5C
  3
ColorChange
350
5D
  3
Conceptual
350
5E
  3
Dim
350
5F
  3
EdgeColorOff
350
60
  3
Facepattern
350
61
  3
Flat
350
62
  3
FlatWithEdges
350
63
  3
Gouraud
350
64
  3
GouraudWithEdges
350
65
  3
Hidden
350
66
  3
JitterOff
350
67
  3
Linepattern
350
68
  3
Modeling
350
69
  3
OverhangOff
350
6A
  3
Realistic
350
6B
  3
Shaded
350
6C
  3
Shaded with edges
350
6D
  3
Shades of Gray
350
6E
  3
Sketchy
350
6F
  3
Thicken
350
70
  3
Wireframe
350
71
  3
X-Ray
350
72
  0
LAYOUT
  5
1A
330
D
100
AcDbPlotSettings
  1

  4
A3
  6

 40
7.5
 41
20.0
 42
7.5
 43
20.0
 44
420.0
 45
297.0
 46
0.0
 47
0.0
 48
0.0
 49
0.0
140
0.0
141
0.0
142
1.0
143
1.0
 70
1024
 72
1
 73
0
 74
5
  7

 75
16
 76
0
 77
2
 78
300
147
1.0
148
0.0
149
0.0
100
AcDbLayout
  1
Model
 70
1
 71
0
 10
0.0
 20
0.0
 11
420.0
 21
297.0
 12
0.0
 22
0.0
 32
0.0
 14
1e+20
 24
1e+20
 34
1e+20
 15
-1e+20
 25
-1e+20
 35
-1e+20
146
0.0
 13
0.0
 23
0.0
 33
0.0
 16
1.0
 26
0.0
 36
0.0
 17
0.0
 27
1.0
 37
0.0
 76
1
330
17
  0
LAYOUT
  5
1E
330
D
100
AcDbPlotSettings
  1

  4
A3
  6

 40
7.5
 41
20.0
 42
7.5
 43
20.0
 44
420.0
 45
297.0
 46
0.0
 47
0.0
 48
0.0
 49
0.0
140
0.0
141
0.0
142
1.0
143
1.0
 70
0
 72
1
 73
0
 74
5
  7

 75
16
 76
0
 77
2
 78
300
147
1.0
148
0.0
149
0.0
100
AcDbLayout
  1
Layout1
 70
1
 71
1
 10
0.0
 20
0.0
 11
420.0
 21
297.0
 12
0.0
 22
0.0
 32
0.0
 14
1e+20
 24
1e+20
 34
1e+20
 15
-1e+20
 25
-1e+20
 35
-1e+20
146
0.0
 13
0.0
 23
0.0
 33
0.0
 16
1.0
 26
0.0
 36
0.0
 17
0.0
 27
1.0
 37
0.0
 76
1
330
1B
  0
MATERIAL
  5
1F
102
{ACAD_REACTORS
330
E
102
}
330
E
100
AcDbMaterial
  1
ByBlock
  2

 70
0
 40
1.0
 71
1
 41
1.0
 91
-1023410177
 42
1.0
 72
1
  3

 73
1
 74
1
 75
1
 44
0.5
 73
0
 45
1.0
 46
1.0
 77
1
  4

 78
1
 79
1
170
1
 48
1.0
171
1
  6

172
1
173
1
174
1
140
1.0
141
1.0
175
1
  7

176
1
177
1
178
1
143
1.0
179
1
  8

270
1
271
1
272
1
145
1.0
146
1.0
273
1
  9

274
1
275
1
276
1
 42
1.0
 72
1
  3

 73
1
 74
1
 75
1
 94
63
  0
MATERIAL
  5
20
102
{ACAD_REACTORS
330
E
102
}
330
E
100
AcDbMaterial
  1
ByLayer
  2

 70
0
 40
1.0
 71
1
 41
1.0
 91
-1023410177
 42
1.0
 72
1
  3

 73
1
 74
1
 75
1
 44
0.5
 73
0
 45
1.0
 46
1.0
 77
1
  4

 78
1
 79
1
170
1
 48
1.0
171
1
  6

172
1
173
1
174
1
140
1.0
141
1.0
175
1
  7

176
1
177
1
178
1
143
1.0
179
1
  8

270
1
271
1
272
1
145
1.0
146
1.0
273
1
  9

274
1
275
1
276
1
 42
1.0
 72
1
  3

 73
1
 74
1
 75
1
 94
63
  0
MATERIAL
  5
21
102
{ACAD_REACTORS
330
E
102
}
330
E
100
AcDbMaterial
  1
Global
  2

 70
0
 40
1.0
 71
1
 41
1.0
 91
-1023410177
 42
1.0
 72
1
  3

 73
1
 74
1
 75
1
 44
0.5
 73
0
 45
1.0
 46
1.0
 77
1
  4

 78
1
 79
1
170
1
 48
1.0
171
1
  6

172
1
173
1
174
1
140
1.0
141
1.0
175
1
  7

176
1
177
1
178
1
143
1.0
179
1
  8

270
1
271
1
272
1
145
1.0
146
1.0
273
1
  9

274
1
275
1
276
1
 42
1.0
 72
1
  3

 73
1
 74
1
 75
1
 94
63
  0
MLINESTYLE
  5
22
102
{ACAD_REACTORS
330
10
102
}
330
10
100
AcDbMlineStyle
  2
Standard
 70
0
  3

 62
256
 51
90.0
 52
90.0
 71
2
 49
0.5
 62
256
  6
BYLAYER
 49
-0.5
 62
256
  6
BYLAYER
  0
MLEADERSTYLE
  5
2C
102
{ACAD_REACTORS
330
F
102
}
330
F
100
AcDbMLeaderStyle
179
2
170
2
171
1
172
0
 90
2
 40
0.0
 41
0.0
173
1
 91
-1056964608
 92
-2
290
1
 42
2.0
291
1
 43
8.0
  3
Standard
 44
4.0
300

342
29
174
1
175
1
176
0
178
1
 93
-1056964608
 45
4.0
292
0
297
0
 46
4.0
 94
-1056964608
 47
1.0
 49
1.0
140
1.0
294
1
141
0.0
177
0
142
1.0
295
0
296
0
143
3.75
271
0
272
9
273
9
  0
DICTIONARY
  5
2D
330
A
100
AcDbDictionary
280
1
281
1
  3
CREATED_BY_EZDXF
350
2E
  3
WRITTEN_BY_EZDXF
350
157
  0
DICTIONARYVAR
  5
2E
330
2D
100
DictionaryVariables
280
0
  1
1.4.3 @ 2026-04-02T11:56:57.869011+00:00
  0
VISUALSTYLE
  5
5A
102
{ACAD_REACTORS
330
16
102
}
330
16
100
AcDbVisualStyle
  2
2dWireframe
 70
4
 90
0
 40
0.6
 62
7
290
0
291
0
  0
VISUALSTYLE
  5
5B
102
{ACAD_REACTORS
330
16
102
}
330
16
100
AcDbVisualStyle
  2
Basic
 70
7
 90
1
 40
0.6
 62
7
290
0
291
1
  0
VISUALSTYLE
  5
5C
102
{ACAD_REACTORS
330
16
102
}
330
16
100
AcDbVisualStyle
  2
Brighten
 70
12
 90
2
 40
0.6
 62
7
290
0
291
1
  0
VISUALSTYLE
  5
5D
102
{ACAD_REACTORS
330
16
102
}
330
16
100
AcDbVisualStyle
  2
ColorChange
 70
16
 90
2
 40
0.6
 62
8
290
0
291
1
  0
VISUALSTYLE
  5
5E
102
{ACAD_REACTORS
330
16
102
}
330
16
100
AcDbVisualStyle
  2
Conceptual
 70
9
 90
3
 40
0.6
 62
7
290
0
291
0
  0
VISUALSTYLE
  5
5F
102
{ACAD_REACTORS
330
16
102
}
330
16
100
AcDbVisualStyle
  2
Dim
 70
11
 90
2
 40
0.6
 62
7
290
0
291
1
  0
VISUALSTYLE
  5
60
102
{ACAD_REACTORS
330
16
102
}
330
16
100
AcDbVisualStyle
  2
EdgeColorOff
 70
22
 90
2
 40
0.6
 62
7
290
0
291
1
  0
VISUALSTYLE
  5
61
102
{ACAD_REACTORS
330
16
102
}
330
16
100
AcDbVisualStyle
  2
Facepattern
 70
15
 90
2
 40
0.6
 62
7
290
0
291
1
  0
VISUALSTYLE
  5
62
102
{ACAD_REACTORS
330
16
102
}
330
16
100
AcDbVisualStyle
  2
Flat
 70
0
 90
2
 40
0.6
 62
7
290
0
291
1
  0
VISUALSTYLE
  5
63
102
{ACAD_REACTORS
330
16
102
}
330
16
100
AcDbVisualStyle
  2
FlatWithEdges
 70
1
 90
2
 40
0.6
 62
7
290
0
291
1
  0
VISUALSTYLE
  5
64
102
{ACAD_REACTORS
330
16
102
}
330
16
100
AcDbVisualStyle
  2
Gouraud
 70
2
 90
2
 40
0.6
 62
7
290
0
291
1
  0
VISUALSTYLE
  5
65
102
{ACAD_REACTORS
330
16
102
}
330
16
100
AcDbVisualStyle
  2
GouraudWithEdges
 70
3
 90
2
 40
0.6
 62
7
290
0
291
1
  0
VISUALSTYLE
  5
66
102
{ACAD_REACTORS
330
16
102
}
330
16
100
AcDbVisualStyle
  2
Hidden
 70
6
 90
1
 40
0.6
 62
7
290
0
291
0
  0
VISUALSTYLE
  5
67
102
{ACAD_REACTORS
330
16
102
}
330
16
100
AcDbVisualStyle
  2
JitterOff
 70
20
 90
2
 40
0.6
 62
7
290
0
291
1
  0
VISUALSTYLE
  5
68
102
{ACAD_REACTORS
330
16
102
}
330
16
100
AcDbVisualStyle
  2
Linepattern
 70
14
 90
2
 40
0.6
 62
7
290
0
291
1
  0
VISUALSTYLE
  5
69
102
{ACAD_REACTORS
330
16
102
}
330
16
100
AcDbVisualStyle
  2
Modeling
 70
10
 90
2
 40
0.6
 62
7
290
0
291
0
  0
VISUALSTYLE
  5
6A
102
{ACAD_REACTORS
330
16
102
}
330
16
100
AcDbVisualStyle
  2
OverhangOff
 70
21
 90
2
 40
0.6
 62
7
290
0
291
1
  0
VISUALSTYLE
  5
6B
102
{ACAD_REACTORS
330
16
102
}
330
16
100
AcDbVisualStyle
  2
Realistic
 70
8
 90
2
 40
0.6
 62
7
290
0
291
0
  0
VISUALSTYLE
  5
6C
102
{ACAD_REACTORS
330
16
102
}
330
16
100
AcDbVisualStyle
  2
Shaded
 70
27
 90
2
 40
0.6
 62
7
290
0
291
0
  0
VISUALSTYLE
  5
6D
102
{ACAD_REACTORS
330
16
102
}
330
16
100
AcDbVisualStyle
  2
Shaded with edges
 70
26
 90
2
 40
0.6
 62
7
290
0
291
0
  0
VISUALSTYLE
  5
6E
102
{ACAD_REACTORS
330
16
102
}
330
16
100
AcDbVisualStyle
  2
Shades of Gray
 70
23
 90
2
 40
0.6
 62
7
290
0
291
0
  0
VISUALSTYLE
  5
6F
102
{ACAD_REACTORS
330
16
102
}
330
16
100
AcDbVisualStyle
  2
Sketchy
 70
24
 90
1
 40
0.6
 62
7
290
0
291
0
  0
VISUALSTYLE
  5
70
102
{ACAD_REACTORS
330
16
102
}
330
16
100
AcDbVisualStyle
  2
Thicken
 70
13
 90
2
 40
0.6
 62
7
290
0
291
1
  0
VISUALSTYLE
  5
71
102
{ACAD_REACTORS
330
16
102
}
330
16
100
AcDbVisualStyle
  2
Wireframe
 70
5
 90
0
 40
0.6
 62
7
290
0
291
0
  0
VISUALSTYLE
  5
72
102
{ACAD_REACTORS
330
16
102
}
330
16
100
AcDbVisualStyle
  2
X-Ray
 70
25
 90
2
 40
0.5
 62
7
290
0
291
0
  0
DICTIONARYVAR
  5
157
330
2D
100
DictionaryVariables
280
0
  1
1.4.3 @ 2026-04-02T11:56:57.882010+00:00
  0
ENDSEC
  0
EOF
