  0
SECTION
  2
HEADER
  9
$ACADVER
  1
AC1024
  9
$ACADMAINTVER
 70
6
  9
$DWGCODEPAGE
  3
ANSI_1252
  9
$LASTSAVEDBY
  1
ezdxf
  9
$INSBASE
 10
0.0
 20
0.0
 30
0.0
  9
$EXTMIN
 10
1e+20
 20
1e+20
 30
1e+20
  9
$EXTMAX
 10
-1e+20
 20
-1e+20
 30
-1e+20
  9
$LIMMIN
 10
0.0
 20
0.0
  9
$LIMMAX
 10
420.0
 20
297.0
  9
$ORTHOMODE
 70
0
  9
$REGENMODE
 70
1
  9
$FILLMODE
 70
1
  9
$QTEXTMODE
 70
0
  9
$MIRRTEXT
 70
1
  9
$LTSCALE
 40
1.0
  9
$ATTMODE
 70
1
  9
$TEXTSIZE
 40
2.5
  9
$TRACEWID
 40
1.0
  9
$TEXTSTYLE
  7
OpenSans
  9
$CLAYER
  8
0
  9
$CELTYPE
  6
ByLayer
  9
$CECOLOR
 62
256
  9
$CELTSCALE
 40
1.0
  9
$DISPSILH
 70
0
  9
$DIMSCALE
 40
1.0
  9
$DIMASZ
 40
0.175
  9
$DIMEXO
 40
0.125
  9
$DIMDLI
 40
3.75
  9
$DIMRND
 40
0.0
  9
$DIMDLE
 40
0.0
  9
$DIMEXE
 40
0.375
  9
$DIMTP
 40
0.0
  9
$DIMTM
 40
0.0
  9
$DIMTXT
 40
0.25
  9
$DIMCEN
 40
2.5
  9
$DIMTSZ
 40
0.0
  9
$DIMTOL
 70
0
  9
$DIMLIM
 70
0
  9
$DIMTIH
 70
0
  9
$DIMTOH
 70
0
  9
$DIMSE1
 70
0
  9
$DIMSE2
 70
0
  9
$DIMTAD
 70
1
  9
$DIMZIN
 70
12
  9
$DIMBLK
  1
ARCHTICK
  9
$DIMASO
 70
1
  9
$DIMSHO
 70
1
  9
$DIMPOST
  1

  9
$DIMAPOST
  1

  9
$DIMALT
 70
0
  9
$DIMALTD
 70
3
  9
$DIMALTF
 40
0.03937007874
  9
$DIMLFAC
 40
100.0
  9
$DIMTOFL
 70
1
  9
$DIMTVP
 40
0.0
  9
$DIMTIX
 70
0
  9
$DIMSOXD
 70
0
  9
$DIMSAH
 70
0
  9
$DIMBLK1
  1

  9
$DIMBLK2
  1

  9
$DIMSTYLE
  2
EZDXF
  9
$DIMCLRD
 70
0
  9
$DIMCLRE
 70
0
  9
$DIMCLRT
 70
0
  9
$DIMTFAC
 40
0.5
  9
$DIMGAP
 40
0.1
  9
$DIMJUST
 70
0
  9
$DIMSD1
 70
0
  9
$DIMSD2
 70
0
  9
$DIMTOLJ
 70
0
  9
$DIMTZIN
 70
8
  9
$DIMALTZ
 70
0
  9
$DIMALTTZ
 70
0
  9
$DIMUPT
 70
1
  9
$DIMDEC
 70
2
  9
$DIMTDEC
 70
2
  9
$DIMALTU
 70
2
  9
$DIMALTTD
 70
3
  9
$DIMTXSTY
  7
OpenSansCondensed-Light
  9
$DIMAUNIT
 70
0
  9
$DIMADEC
 70
2
  9
$DIMALTRND
 40
0.0
  9
$DIMAZIN
 70
3
  9
$DIMDSEP
 70
46
  9
$DIMATFIT
 70
3
  9
$DIMFRAC
 70
0
  9
$DIMLDRBLK
  1

  9
$DIMLUNIT
 70
2
  9
$DIMLWD
 70
-2
  9
$DIMLWE
 70
-2
  9
$DIMTMOVE
 70
2
  9
$DIMFXL
 40
1.0
  9
$DIMFXLON
 70
0
  9
$DIMJOGANG
 40
0.785398163397
  9
$DIMTFILL
 70
0
  9
$DIMTFILLCLR
 70
0
  9
$DIMARCSYM
 70
0
  9
$DIMLTYPE
  6

  9
$DIMLTEX1
  6

  9
$DIMLTEX2
  6

  9
$DIMTXTDIRECTION
 70
0
  9
$LUNITS
 70
2
  9
$LUPREC
 70
4
  9
$SKETCHINC
 40
1.0
  9
$FILLETRAD
 40
10.0
  9
$AUNITS
 70
0
  9
$AUPREC
 70
2
  9
$MENU
  1
.
  9
$ELEVATION
 40
0.0
  9
$PELEVATION
 40
0.0
  9
$THICKNESS
 40
0.0
  9
$LIMCHECK
 70
0
  9
$CHAMFERA
 40
0.0
  9
$CHAMFERB
 40
0.0
  9
$CHAMFERC
 40
0.0
  9
$CHAMFERD
 40
0.0
  9
$SKPOLY
 70
0
  9
$TDCREATE
 40
2461131.6010185187
  9
$TDUCREATE
 40
2458532.153996898
  9
$TDUPDATE
 40
2461131.6010185187
  9
$TDUUPDATE
 40
2458532.1544311
  9
$TDINDWG
 40
0.0
  9
$TDUSRTIMER
 40
0.0
  9
$USRTIMER
 70
1
  9
$ANGBASE
 50
0.0
  9
$ANGDIR
 70
0
  9
$PDMODE
 70
0
  9
$PDSIZE
 40
0.0
  9
$PLINEWID
 40
0.0
  9
$SPLFRAME
 70
0
  9
$SPLINETYPE
 70
6
  9
$SPLINESEGS
 70
8
  9
$HANDSEED
  5
490
  9
$SURFTAB1
 70
6
  9
$SURFTAB2
 70
6
  9
$SURFTYPE
 70
6
  9
$SURFU
 70
6
  9
$SURFV
 70
6
  9
$UCSBASE
  2

  9
$UCSNAME
  2

  9
$UCSORG
 10
0.0
 20
0.0
 30
0.0
  9
$UCSXDIR
 10
1.0
 20
0.0
 30
0.0
  9
$UCSYDIR
 10
0.0
 20
1.0
 30
0.0
  9
$UCSORTHOREF
  2

  9
$UCSORTHOVIEW
 70
0
  9
$UCSORGTOP
 10
0.0
 20
0.0
 30
0.0
  9
$UCSORGBOTTOM
 10
0.0
 20
0.0
 30
0.0
  9
$UCSORGLEFT
 10
0.0
 20
0.0
 30
0.0
  9
$UCSORGRIGHT
 10
0.0
 20
0.0
 30
0.0
  9
$UCSORGFRONT
 10
0.0
 20
0.0
 30
0.0
  9
$UCSORGBACK
 10
0.0
 20
0.0
 30
0.0
  9
$PUCSBASE
  2

  9
$PUCSNAME
  2

  9
$PUCSORG
 10
0.0
 20
0.0
 30
0.0
  9
$PUCSXDIR
 10
1.0
 20
0.0
 30
0.0
  9
$PUCSYDIR
 10
0.0
 20
1.0
 30
0.0
  9
$PUCSORTHOREF
  2

  9
$PUCSORTHOVIEW
 70
0
  9
$PUCSORGTOP
 10
0.0
 20
0.0
 30
0.0
  9
$PUCSORGBOTTOM
 10
0.0
 20
0.0
 30
0.0
  9
$PUCSORGLEFT
 10
0.0
 20
0.0
 30
0.0
  9
$PUCSORGRIGHT
 10
0.0
 20
0.0
 30
0.0
  9
$PUCSORGFRONT
 10
0.0
 20
0.0
 30
0.0
  9
$PUCSORGBACK
 10
0.0
 20
0.0
 30
0.0
  9
$USERI1
 70
0
  9
$USERI2
 70
0
  9
$USERI3
 70
0
  9
$USERI4
 70
0
  9
$USERI5
 70
0
  9
$USERR1
 40
0.0
  9
$USERR2
 40
0.0
  9
$USERR3
 40
0.0
  9
$USERR4
 40
0.0
  9
$USERR5
 40
0.0
  9
$WORLDVIEW
 70
1
  9
$SHADEDGE
 70
3
  9
$SHADEDIF
 70
70
  9
$TILEMODE
 70
1
  9
$MAXACTVP
 70
64
  9
$PINSBASE
 10
0.0
 20
0.0
 30
0.0
  9
$PLIMCHECK
 70
0
  9
$PEXTMIN
 10
1e+20
 20
1e+20
 30
1e+20
  9
$PEXTMAX
 10
-1e+20
 20
-1e+20
 30
-1e+20
  9
$PLIMMIN
 10
0.0
 20
0.0
  9
$PLIMMAX
 10
420.0
 20
297.0
  9
$UNITMODE
 70
0
  9
$VISRETAIN
 70
1
  9
$PLINEGEN
 70
0
  9
$PSLTSCALE
 70
1
  9
$TREEDEPTH
 70
3020
  9
$CMLSTYLE
  2
Standard
  9
$CMLJUST
 70
0
  9
$CMLSCALE
 40
20.0
  9
$PROXYGRAPHICS
 70
1
  9
$MEASUREMENT
 70
1
  9
$CELWEIGHT
370
-1
  9
$ENDCAPS
280
0
  9
$JOINSTYLE
280
0
  9
$LWDISPLAY
290
0
  9
$INSUNITS
 70
6
  9
$HYPERLINKBASE
  1

  9
$STYLESHEET
  1

  9
$XEDIT
290
1
  9
$CEPSNTYPE
380
0
  9
$PSTYLEMODE
290
1
  9
$FINGERPRINTGUID
  2
{25173977-8333-4DA4-ABC5-47C6A504908F}
  9
$VERSIONGUID
  2
{F46F480C-DB90-460F-86F1-3053A106633C}
  9
$EXTNAMES
290
1
  9
$PSVPSCALE
 40
0.0
  9
$OLESTARTUP
290
0
  9
$SORTENTS
280
127
  9
$INDEXCTL
280
0
  9
$HIDETEXT
280
1
  9
$XCLIPFRAME
280
1
  9
$HALOGAP
280
0
  9
$OBSCOLOR
 70
257
  9
$OBSLTYPE
280
0
  9
$INTERSECTIONDISPLAY
280
0
  9
$INTERSECTIONCOLOR
 70
257
  9
$DIMASSOC
280
2
  9
$PROJECTNAME
  1

  9
$CAMERADISPLAY
290
0
  9
$LENSLENGTH
 40
50.0
  9
$CAMERAHEIGHT
 40
0.0
  9
$STEPSPERSEC
 40
24.0
  9
$STEPSIZE
 40
100.0
  9
$3DDWFPREC
 40
2.0
  9
$PSOLWIDTH
 40
0.005
  9
$PSOLHEIGHT
 40
0.08
  9
$LOFTANG1
 40
1.570796326795
  9
$LOFTANG2
 40
1.570796326795
  9
$LOFTMAG1
 40
0.0
  9
$LOFTMAG2
 40
0.0
  9
$LOFTPARAM
 70
7
  9
$LOFTNORMALS
280
1
  9
$LATITUDE
 40
37.795
  9
$LONGITUDE
 40
-122.394
  9
$NORTHDIRECTION
 40
0.0
  9
$TIMEZONE
 70
-8000
  9
$LIGHTGLYPHDISPLAY
280
1
  9
$TILEMODELIGHTSYNCH
280
1
  9
$CMATERIAL
347
20
  9
$SOLIDHIST
280
0
  9
$SHOWHIST
280
1
  9
$DWFFRAME
280
2
  9
$DGNFRAME
280
2
  9
$REALWORLDSCALE
290
1
  9
$INTERFERECOLOR
 62
256
  9
$CSHADOW
280
0
  9
$SHADOWPLANELOCATION
 40
0.0
  0
ENDSEC
  0
SECTION
  2
CLASSES
  0
CLASS
  1
ACDBDICTIONARYWDFLT
  2
AcDbDictionaryWithDefault
  3
ObjectDBX Classes
 90
0
 91
0
280
0
281
0
  0
CLASS
  1
SUN
  2
AcDbSun
  3
SCENEOE
 90
1153
 91
0
280
0
281
0
  0
CLASS
  1
VISUALSTYLE
  2
AcDbVisualStyle
  3
ObjectDBX Classes
 90
4095
 91
0
280
0
281
0
  0
CLASS
  1
MATERIAL
  2
AcDbMaterial
  3
ObjectDBX Classes
 90
1153
 91
0
280
0
281
0
  0
CLASS
  1
SCALE
  2
AcDbScale
  3
ObjectDBX Classes
 90
1153
 91
0
280
0
281
0
  0
CLASS
  1
TABLESTYLE
  2
AcDbTableStyle
  3
ObjectDBX Classes
 90
4095
 91
0
280
0
281
0
  0
CLASS
  1
MLEADERSTYLE
  2
AcDbMLeaderStyle
  3
ACDB_MLEADERSTYLE_CLASS
 90
4095
 91
0
280
0
281
0
  0
CLASS
  1
DICTIONARYVAR
  2
AcDbDictionaryVar
  3
ObjectDBX Classes
 90
0
 91
0
280
0
281
0
  0
CLASS
  1
CELLSTYLEMAP
  2
AcDbCellStyleMap
  3
ObjectDBX Classes
 90
1152
 91
0
280
0
281
0
  0
CLASS
  1
MENTALRAYRENDERSETTINGS
  2
AcDbMentalRayRenderSettings
  3
SCENEOE
 90
1024
 91
0
280
0
281
0
  0
CLASS
  1
ACDBDETAILVIEWSTYLE
  2
AcDbDetailViewStyle
  3
ObjectDBX Classes
 90
1025
 91
0
280
0
281
0
  0
CLASS
  1
ACDBSECTIONVIEWSTYLE
  2
AcDbSectionViewStyle
  3
ObjectDBX Classes
 90
1025
 91
0
280
0
281
0
  0
CLASS
  1
RASTERVARIABLES
  2
AcDbRasterVariables
  3
ISM
 90
0
 91
0
280
0
281
0
  0
CLASS
  1
LAYOUT
  2
AcDbLayout
  3
ObjectDBX Classes
 90
0
 91
0
280
0
281
0
  0
CLASS
  1
ACDBPLACEHOLDER
  2
AcDbPlaceHolder
  3
ObjectDBX Classes
 90
0
 91
0
280
0
281
0
  0
ENDSEC
  0
SECTION
  2
TABLES
  0
TABLE
  2
VPORT
  5
8
330
0
100
AcDbSymbolTable
 70
1
  0
VPORT
  5
23
330
8
100
AcDbSymbolTableRecord
100
AcDbViewportTableRecord
  2
*Active
 70
0
 10
0.0
 20
0.0
 11
1.0
 21
1.0
 12
0.0
 22
0.0
 13
0.0
 23
0.0
 14
0.5
 24
0.5
 15
0.5
 25
0.5
 16
0.0
 26
0.0
 36
1.0
 17
0.0
 27
0.0
 37
0.0
 40
1000.0
 41
1.34
 42
50.0
 43
0.0
 44
0.0
 50
0.0
 51
0.0
 71
0
 72
1000
 73
1
 74
3
 75
0
 76
0
 77
0
 78
0
281
0
 65
0
146
0.0
  0
ENDTAB
  0
TABLE
  2
LTYPE
  5
2
330
0
100
AcDbSymbolTable
 70
21
  0
LTYPE
  5
24
330
2
100
AcDbSymbolTableRecord
100
AcDbLinetypeTableRecord
  2
ByBlock
 70
0
  3

 72
65
 73
0
 40
0.0
  0
LTYPE
  5
25
330
2
100
AcDbSymbolTableRecord
100
AcDbLinetypeTableRecord
  2
ByLayer
 70
0
  3

 72
65
 73
0
 40
0.0
  0
LTYPE
  5
26
330
2
100
AcDbSymbolTableRecord
100
AcDbLinetypeTableRecord
  2
Continuous
 70
0
  3

 72
65
 73
0
 40
0.0
  0
LTYPE
  5
2F
330
2
100
AcDbSymbolTableRecord
100
AcDbLinetypeTableRecord
  2
CENTER
 70
0
  3
Center ____ _ ____ _ ____ _ ____ _ ____ _ ____
 72
65
 73
4
 40
5.08
 49
3.175
 74
0
 49
-0.635
 74
0
 49
0.635
 74
0
 49
-0.635
 74
0
  0
LTYPE
  5
30
330
2
100
AcDbSymbolTableRecord
100
AcDbLinetypeTableRecord
  2
CENTERX2
 70
0
  3
Center (2x) ________  __  ________  __  ________
 72
65
 73
4
 40
8.89
 49
6.35
 74
0
 49
-0.635
 74
0
 49
1.27
 74
0
 49
-0.635
 74
0
  0
LTYPE
  5
31
330
2
100
AcDbSymbolTableRecord
100
AcDbLinetypeTableRecord
  2
CENTER2
 70
0
  3
Center (.5x) ____ _ ____ _ ____ _ ____ _ ____
 72
65
 73
4
 40
2.54
 49
1.587
 74
0
 49
-0.318
 74
0
 49
0.318
 74
0
 49
-0.318
 74
0
  0
LTYPE
  5
32
330
2
100
AcDbSymbolTableRecord
100
AcDbLinetypeTableRecord
  2
DASHED
 70
0
  3
Dashed __ __ __ __ __ __ __ __ __ __ __ __ __ _
 72
65
 73
2
 40
1.524
 49
1.27
 74
0
 49
-0.254
 74
0
  0
LTYPE
  5
33
330
2
100
AcDbSymbolTableRecord
100
AcDbLinetypeTableRecord
  2
DASHEDX2
 70
0
  3
Dashed (2x) ____  ____  ____  ____  ____  ____
 72
65
 73
2
 40
3.048
 49
2.54
 74
0
 49
-0.508
 74
0
  0
LTYPE
  5
34
330
2
100
AcDbSymbolTableRecord
100
AcDbLinetypeTableRecord
  2
DASHED2
 70
0
  3
Dashed (.5x) _ _ _ _ _ _ _ _ _ _ _ _ _ _
 72
65
 73
2
 40
0.762
 49
0.635
 74
0
 49
-0.127
 74
0
  0
LTYPE
  5
35
330
2
100
AcDbSymbolTableRecord
100
AcDbLinetypeTableRecord
  2
PHANTOM
 70
0
  3
Phantom ______  __  __  ______  __  __  ______
 72
65
 73
6
 40
6.35
 49
3.175
 74
0
 49
-0.635
 74
0
 49
0.635
 74
0
 49
-0.635
 74
0
 49
0.635
 74
0
 49
-0.635
 74
0
  0
LTYPE
  5
36
330
2
100
AcDbSymbolTableRecord
100
AcDbLinetypeTableRecord
  2
PHANTOMX2
 70
0
  3
Phantom (2x)____________    ____    ____    ____________
 72
65
 73
6
 40
10.795
 49
6.35
 74
0
 49
-0.635
 74
0
 49
1.27
 74
0
 49
-0.635
 74
0
 49
1.27
 74
0
 49
-0.635
 74
0
  0
LTYPE
  5
37
330
2
100
AcDbSymbolTableRecord
100
AcDbLinetypeTableRecord
  2
PHANTOM2
 70
0
  3
Phantom (.5x) ___ _ _ ___ _ _ ___ _ _ ___ _ _ ___
 72
65
 73
6
 40
3.175
 49
1.587
 74
0
 49
-0.318
 74
0
 49
0.318
 74
0
 49
-0.318
 74
0
 49
0.318
 74
0
 49
-0.318
 74
0
  0
LTYPE
  5
38
330
2
100
AcDbSymbolTableRecord
100
AcDbLinetypeTableRecord
  2
DASHDOT
 70
0
  3
Dash dot __ . __ . __ . __ . __ . __ . __ . __
 72
65
 73
4
 40
3.556
 49
2.54
 74
0
 49
-0.508
 74
0
 49
0.0
 74
0
 49
-0.508
 74
0
  0
LTYPE
  5
39
330
2
100
AcDbSymbolTableRecord
100
AcDbLinetypeTableRecord
  2
DASHDOTX2
 70
0
  3
Dash dot (2x) ____  .  ____  .  ____  .  ____
 72
65
 73
4
 40
6.096
 49
5.08
 74
0
 49
-0.508
 74
0
 49
0.0
 74
0
 49
-0.508
 74
0
  0
LTYPE
  5
3A
330
2
100
AcDbSymbolTableRecord
100
AcDbLinetypeTableRecord
  2
DASHDOT2
 70
0
  3
Dash dot (.5x) _ . _ . _ . _ . _ . _ . _ . _
 72
65
 73
4
 40
1.778
 49
1.27
 74
0
 49
-0.254
 74
0
 49
0.0
 74
0
 49
-0.254
 74
0
  0
LTYPE
  5
3B
330
2
100
AcDbSymbolTableRecord
100
AcDbLinetypeTableRecord
  2
DOT
 70
0
  3
Dot .  .  .  .  .  .  .  .  .  .  .  .  .  .  .  .
 72
65
 73
2
 40
0.508
 49
0.0
 74
0
 49
-0.508
 74
0
  0
LTYPE
  5
3C
330
2
100
AcDbSymbolTableRecord
100
AcDbLinetypeTableRecord
  2
DOTX2
 70
0
  3
Dot (2x) .    .    .    .    .    .    .    . 
 72
65
 73
2
 40
1.016
 49
0.0
 74
0
 49
-1.016
 74
0
  0
LTYPE
  5
3D
330
2
100
AcDbSymbolTableRecord
100
AcDbLinetypeTableRecord
  2
DOT2
 70
0
  3
Dot (.5) . . . . . . . . . . . . . . . . . . . 
 72
65
 73
2
 40
0.254
 49
0.0
 74
0
 49
-0.254
 74
0
  0
LTYPE
  5
3E
330
2
100
AcDbSymbolTableRecord
100
AcDbLinetypeTableRecord
  2
DIVIDE
 70
0
  3
Divide __ . . __ . . __ . . __ . . __ . . __
 72
65
 73
6
 40
4.064
 49
2.54
 74
0
 49
-0.508
 74
0
 49
0.0
 74
0
 49
-0.508
 74
0
 49
0.0
 74
0
 49
-0.508
 74
0
  0
LTYPE
  5
3F
330
2
100
AcDbSymbolTableRecord
100
AcDbLinetypeTableRecord
  2
DIVIDEX2
 70
0
  3
Divide (2x) ____  . .  ____  . .  ____  . .  ____
 72
65
 73
6
 40
6.604
 49
5.08
 74
0
 49
-0.508
 74
0
 49
0.0
 74
0
 49
-0.508
 74
0
 49
0.0
 74
0
 49
-0.508
 74
0
  0
LTYPE
  5
40
330
2
100
AcDbSymbolTableRecord
100
AcDbLinetypeTableRecord
  2
DIVIDE2
 70
0
  3
Divide(.5x) _ . _ . _ . _ . _ . _ . _ . _
 72
65
 73
6
 40
2.032
 49
1.27
 74
0
 49
-0.254
 74
0
 49
0.0
 74
0
 49
-0.254
 74
0
 49
0.0
 74
0
 49
-0.254
 74
0
  0
ENDTAB
  0
TABLE
  2
LAYER
  5
1
330
0
100
AcDbSymbolTable
 70
14
  0
LAYER
  5
27
330
1
100
AcDbSymbolTableRecord
100
AcDbLayerTableRecord
  2
0
 70
0
 62
7
  6
Continuous
370
-3
390
13
347
21
  0
LAYER
  5
28
330
1
100
AcDbSymbolTableRecord
100
AcDbLayerTableRecord
  2
Defpoints
 70
0
 62
7
  6
Continuous
290
0
370
-3
390
13
347
21
  0
LAYER
  5
8A
330
1
100
AcDbSymbolTableRecord
100
AcDbLayerTableRecord
  2
BORDER
 70
0
 62
7
  6
Continuous
370
-3
390
13
347
21
  0
LAYER
  5
8B
330
1
100
AcDbSymbolTableRecord
100
AcDbLayerTableRecord
  2
TITLEBLOCK
 70
0
 62
7
  6
Continuous
370
-3
390
13
347
21
  0
LAYER
  5
8C
330
1
100
AcDbSymbolTableRecord
100
AcDbLayerTableRecord
  2
ORIENTATION
 70
0
 62
7
  6
Continuous
370
-3
390
13
347
21
  0
LAYER
  5
8D
330
1
100
AcDbSymbolTableRecord
100
AcDbLayerTableRecord
  2
OUTLINE
 70
0
 62
7
  6
Continuous
370
-3
390
13
347
21
  0
LAYER
  5
8E
330
1
100
AcDbSymbolTableRecord
100
AcDbLayerTableRecord
  2
HIDDEN
 70
0
 62
7
  6
Continuous
370
-3
390
13
347
21
  0
LAYER
  5
8F
330
1
100
AcDbSymbolTableRecord
100
AcDbLayerTableRecord
  2
CENTERLINE
 70
0
 62
5
  6
Continuous
370
-3
390
13
347
21
  0
LAYER
  5
90
330
1
100
AcDbSymbolTableRecord
100
AcDbLayerTableRecord
  2
SPAR
 70
0
 62
3
  6
Continuous
370
-3
390
13
347
21
  0
LAYER
  5
91
330
1
100
AcDbSymbolTableRecord
100
AcDbLayerTableRecord
  2
WALL
 70
0
 62
6
  6
Continuous
370
-3
390
13
347
21
  0
LAYER
  5
92
330
1
100
AcDbSymbolTableRecord
100
AcDbLayerTableRecord
  2
SECTION
 70
0
 62
4
  6
Continuous
370
-3
390
13
347
21
  0
LAYER
  5
93
330
1
100
AcDbSymbolTableRecord
100
AcDbLayerTableRecord
  2
HATCH
 70
0
 62
252
  6
Continuous
370
-3
390
13
347
21
  0
LAYER
  5
94
330
1
100
AcDbSymbolTableRecord
100
AcDbLayerTableRecord
  2
DIMENSION
 70
0
 62
1
  6
Continuous
370
-3
390
13
347
21
  0
LAYER
  5
95
330
1
100
AcDbSymbolTableRecord
100
AcDbLayerTableRecord
  2
TEXT
 70
0
 62
7
  6
Continuous
370
-3
390
13
347
21
  0
ENDTAB
  0
TABLE
  2
STYLE
  5
5
330
0
100
AcDbSymbolTable
 70
26
  0
STYLE
  5
29
330
5
100
AcDbSymbolTableRecord
100
AcDbTextStyleTableRecord
  2
Standard
 70
0
 40
0.0
 41
1.0
 50
0.0
 71
0
 42
2.5
  3
txt
  4

  0
STYLE
  5
41
330
5
100
AcDbSymbolTableRecord
100
AcDbTextStyleTableRecord
  2
OpenSans-Light
 70
0
 40
0.0
 41
1.0
 50
0.0
 71
0
 42
2.5
  3
OpenSans-Light.ttf
  4

  0
STYLE
  5
42
330
5
100
AcDbSymbolTableRecord
100
AcDbTextStyleTableRecord
  2
OpenSans-Light-Italic
 70
0
 40
0.0
 41
1.0
 50
0.0
 71
0
 42
2.5
  3
OpenSans-LightItalic.ttf
  4

  0
STYLE
  5
43
330
5
100
AcDbSymbolTableRecord
100
AcDbTextStyleTableRecord
  2
OpenSans
 70
0
 40
0.0
 41
1.0
 50
0.0
 71
0
 42
2.5
  3
OpenSans-Regular.ttf
  4

  0
STYLE
  5
44
330
5
100
AcDbSymbolTableRecord
100
AcDbTextStyleTableRecord
  2
OpenSans-Italic
 70
0
 40
0.0
 41
1.0
 50
0.0
 71
0
 42
2.5
  3
OpenSans-Italic.ttf
  4

  0
STYLE
  5
45
330
5
100
AcDbSymbolTableRecord
100
AcDbTextStyleTableRecord
  2
OpenSans-SemiBold
 70
0
 40
0.0
 41
1.0
 50
0.0
 71
0
 42
2.5
  3
OpenSans-SemiBold.ttf
  4

  0
STYLE
  5
46
330
5
100
AcDbSymbolTableRecord
100
AcDbTextStyleTableRecord
  2
OpenSans-SemiBoldItalic
 70
0
 40
0.0
 41
1.0
 50
0.0
 71
0
 42
2.5
  3
OpenSans-SemiBoldItalic.ttf
  4

  0
STYLE
  5
47
330
5
100
AcDbSymbolTableRecord
100
AcDbTextStyleTableRecord
  2
OpenSans-Bold
 70
0
 40
0.0
 41
1.0
 50
0.0
 71
0
 42
2.5
  3
OpenSans-Bold.ttf
  4

  0
STYLE
  5
48
330
5
100
AcDbSymbolTableRecord
100
AcDbTextStyleTableRecord
  2
OpenSans-BoldItalic
 70
0
 40
0.0
 41
1.0
 50
0.0
 71
0
 42
2.5
  3
OpenSans-BoldItalic.ttf
  4

  0
STYLE
  5
49
330
5
100
AcDbSymbolTableRecord
100
AcDbTextStyleTableRecord
  2
OpenSans-ExtraBold
 70
0
 40
0.0
 41
1.0
 50
0.0
 71
0
 42
2.5
  3
OpenSans-ExtraBold.ttf
  4

  0
STYLE
  5
4A
330
5
100
AcDbSymbolTableRecord
100
AcDbTextStyleTableRecord
  2
OpenSans-ExtraBoldItalic
 70
0
 40
0.0
 41
1.0
 50
0.0
 71
0
 42
2.5
  3
OpenSans-ExtraBoldItalic.ttf
  4

  0
STYLE
  5
4B
330
5
100
AcDbSymbolTableRecord
100
AcDbTextStyleTableRecord
  2
OpenSansCondensed-Bold
 70
0
 40
0.0
 41
1.0
 50
0.0
 71
0
 42
2.5
  3
OpenSansCondensed-Bold.ttf
  4

  0
STYLE
  5
4C
330
5
100
AcDbSymbolTableRecord
100
AcDbTextStyleTableRecord
  2
OpenSansCondensed-Light
 70
0
 40
0.0
 41
1.0
 50
0.0
 71
0
 42
2.5
  3
OpenSansCondensed-Light.ttf
  4

  0
STYLE
  5
4D
330
5
100
AcDbSymbolTableRecord
100
AcDbTextStyleTableRecord
  2
OpenSansCondensed-Italic
 70
0
 40
0.0
 41
1.0
 50
0.0
 71
0
 42
2.5
  3
OpenSansCondensed-LightItalic.ttf
  4

  0
STYLE
  5
4E
330
5
100
AcDbSymbolTableRecord
100
AcDbTextStyleTableRecord
  2
LiberationSans
 70
0
 40
0.0
 41
1.0
 50
0.0
 71
0
 42
2.5
  3
LiberationSans-Regular.ttf
  4

  0
STYLE
  5
4F
330
5
100
AcDbSymbolTableRecord
100
AcDbTextStyleTableRecord
  2
LiberationSans-Bold
 70
0
 40
0.0
 41
1.0
 50
0.0
 71
0
 42
2.5
  3
LiberationSans-Bold.ttf
  4

  0
STYLE
  5
50
330
5
100
AcDbSymbolTableRecord
100
AcDbTextStyleTableRecord
  2
LiberationSans-BoldItalic
 70
0
 40
0.0
 41
1.0
 50
0.0
 71
0
 42
2.5
  3
LiberationSans-BoldItalic.ttf
  4

  0
STYLE
  5
51
330
5
100
AcDbSymbolTableRecord
100
AcDbTextStyleTableRecord
  2
LiberationSans-Italic
 70
0
 40
0.0
 41
1.0
 50
0.0
 71
0
 42
2.5
  3
LiberationSans-Italic.ttf
  4

  0
STYLE
  5
52
330
5
100
AcDbSymbolTableRecord
100
AcDbTextStyleTableRecord
  2
LiberationSerif
 70
0
 40
0.0
 41
1.0
 50
0.0
 71
0
 42
2.5
  3
LiberationSerif-Regular.ttf
  4

  0
STYLE
  5
53
330
5
100
AcDbSymbolTableRecord
100
AcDbTextStyleTableRecord
  2
LiberationSerif-Bold
 70
0
 40
0.0
 41
1.0
 50
0.0
 71
0
 42
2.5
  3
LiberationSerif-Bold.ttf
  4

  0
STYLE
  5
54
330
5
100
AcDbSymbolTableRecord
100
AcDbTextStyleTableRecord
  2
LiberationSerif-BoldItalic
 70
0
 40
0.0
 41
1.0
 50
0.0
 71
0
 42
2.5
  3
LiberationSerif-BoldItalic.ttf
  4

  0
STYLE
  5
55
330
5
100
AcDbSymbolTableRecord
100
AcDbTextStyleTableRecord
  2
LiberationSerif-Italic
 70
0
 40
0.0
 41
1.0
 50
0.0
 71
0
 42
2.5
  3
LiberationSerif-Italic.ttf
  4

  0
STYLE
  5
56
330
5
100
AcDbSymbolTableRecord
100
AcDbTextStyleTableRecord
  2
LiberationMono
 70
0
 40
0.0
 41
1.0
 50
0.0
 71
0
 42
2.5
  3
LiberationMono-Regular.ttf
  4

  0
STYLE
  5
57
330
5
100
AcDbSymbolTableRecord
100
AcDbTextStyleTableRecord
  2
LiberationMono-Bold
 70
0
 40
0.0
 41
1.0
 50
0.0
 71
0
 42
2.5
  3
LiberationMono-Bold.ttf
  4

  0
STYLE
  5
58
330
5
100
AcDbSymbolTableRecord
100
AcDbTextStyleTableRecord
  2
LiberationMono-BoldItalic
 70
0
 40
0.0
 41
1.0
 50
0.0
 71
0
 42
2.5
  3
LiberationMono-BoldItalic.ttf
  4

  0
STYLE
  5
59
330
5
100
AcDbSymbolTableRecord
100
AcDbTextStyleTableRecord
  2
LiberationMono-Italic
 70
0
 40
0.0
 41
1.0
 50
0.0
 71
0
 42
2.5
  3
LiberationMono-Italic.ttf
  4

  0
ENDTAB
  0
TABLE
  2
VIEW
  5
7
330
0
100
AcDbSymbolTable
 70
0
  0
ENDTAB
  0
TABLE
  2
UCS
  5
6
330
0
100
AcDbSymbolTable
 70
0
  0
ENDTAB
  0
TABLE
  2
APPID
  5
3
330
0
100
AcDbSymbolTable
 70
3
  0
APPID
  5
2A
330
3
100
AcDbSymbolTableRecord
100
AcDbRegAppTableRecord
  2
ACAD
 70
0
  0
APPID
  5
48D
330
3
100
AcDbSymbolTableRecord
100
AcDbRegAppTableRecord
  2
HATCHBACKGROUNDCOLOR
 70
0
  0
APPID
  5
48E
330
3
100
AcDbSymbolTableRecord
100
AcDbRegAppTableRecord
  2
EZDXF
 70
0
  0
ENDTAB
  0
TABLE
  2
DIMSTYLE
  5
4
330
0
100
AcDbSymbolTable
 70
13
100
AcDbDimStyleTable
  0
DIMSTYLE
105
2B
330
4
100
AcDbSymbolTableRecord
100
AcDbDimStyleTableRecord
  2
Standard
 70
0
 40
1.0
 41
2.5
 42
0.625
 43
3.75
 44
1.25
 45
0.0
 46
0.0
 47
0.0
 48
0.0
 49
2.5
140
2.5
141
2.5
142
0.0
143
0.03937007874
144
1.0
145
0.0
146
1.0
147
0.625
148
0.0
 69
0
 70
0
 71
0
 72
0
 73
0
 74
0
 75
0
 76
0
 77
1
 78
8
 79
3
170
0
171
3
172
1
173
0
174
0
175
0
176
0
177
0
178
0
179
2
271
2
272
2
273
2
274
3
275
0
276
0
277
2
278
44
279
0
280
0
281
0
282
0
283
0
284
8
285
0
286
0
288
0
289
3
290
0
371
-2
372
-2
  0
DIMSTYLE
105
73
330
4
100
AcDbSymbolTableRecord
100
AcDbDimStyleTableRecord
  2
EZDXF
 70
0
 40
1.0
 41
0.175
 42
0.125
 43
3.75
 44
0.375
 45
0.0
 46
0.0
 47
0.0
 48
0.0
 49
2.5
140
0.25
141
2.5
142
0.0
143
0.03937007874
144
100.0
145
0.0
146
0.5
147
0.1
148
0.0
 69
0
 70
0
 71
0
 72
0
 73
0
 74
0
 75
0
 76
0
 77
1
 78
12
 79
3
170
0
171
3
172
1
173
0
174
0
175
0
176
0
177
0
178
0
179
2
271
2
272
2
273
2
274
3
275
0
276
0
277
2
278
46
279
2
280
0
281
0
282
0
283
0
284
8
285
0
286
0
288
1
289
3
290
0
340
4C
342
74
371
-2
372
-2
  0
DIMSTYLE
105
7C
330
4
100
AcDbSymbolTableRecord
100
AcDbDimStyleTableRecord
  2
EZ_M_100_H25_CM
 70
0
 40
1.0
 41
0.25
 42
0.125
 43
3.75
 44
0.375
 45
0.0
 46
0.0
 47
0.0
 48
0.0
 49
2.5
140
0.25
141
2.5
142
0.125
143
0.03937007874
144
100.0
145
0.0
146
0.5
147
0.1
148
0.0
 69
0
 70
0
 71
0
 72
0
 73
0
 74
0
 75
0
 76
0
 77
1
 78
12
 79
3
170
0
171
3
172
1
173
0
174
0
175
0
176
0
177
0
178
0
179
2
271
2
272
2
273
2
274
3
275
0
276
0
277
2
278
46
279
2
280
0
281
0
282
0
283
0
284
8
285
0
286
0
288
1
289
3
290
0
340
4C
371
-2
372
-2
  0
DIMSTYLE
105
7D
330
4
100
AcDbSymbolTableRecord
100
AcDbDimStyleTableRecord
  2
EZ_M_50_H25_CM
 70
0
 40
1.0
 41
0.125
 42
0.0625
 43
3.75
 44
0.1875
 45
0.0
 46
0.0
 47
0.0
 48
0.0
 49
2.5
140
0.125
141
2.5
142
0.0625
143
0.03937007874
144
100.0
145
0.0
146
0.5
147
0.05
148
0.0
 69
0
 70
0
 71
0
 72
0
 73
0
 74
0
 75
0
 76
0
 77
1
 78
12
 79
3
170
0
171
3
172
1
173
0
174
0
175
0
176
0
177
0
178
0
179
2
271
2
272
2
273
2
274
3
275
0
276
0
277
2
278
46
279
2
280
0
281
0
282
0
283
0
284
8
285
0
286
0
288
1
289
3
290
0
340
4C
371
-2
372
-2
  0
DIMSTYLE
105
7E
330
4
100
AcDbSymbolTableRecord
100
AcDbDimStyleTableRecord
  2
EZ_M_25_H25_CM
 70
0
 40
1.0
 41
0.0625
 42
0.03125
 43
3.75
 44
0.09375
 45
0.0
 46
0.0
 47
0.0
 48
0.0
 49
2.5
140
0.0625
141
2.5
142
0.03125
143
0.03937007874
144
100.0
145
0.0
146
0.5
147
0.025
148
0.0
 69
0
 70
0
 71
0
 72
0
 73
0
 74
0
 75
0
 76
0
 77
1
 78
12
 79
3
170
0
171
3
172
1
173
0
174
0
175
0
176
0
177
0
178
0
179
2
271
2
272
2
273
2
274
3
275
0
276
0
277
2
278
46
279
2
280
0
281
0
282
0
283
0
284
8
285
0
286
0
288
1
289
3
290
0
340
4C
371
-2
372
-2
  0
DIMSTYLE
105
7F
330
4
100
AcDbSymbolTableRecord
100
AcDbDimStyleTableRecord
  2
EZ_M_20_H25_CM
 70
0
 40
1.0
 41
0.05
 42
0.025
 43
3.75
 44
0.07500000000000001
 45
0.0
 46
0.0
 47
0.0
 48
0.0
 49
2.5
140
0.05
141
2.5
142
0.025
143
0.03937007874
144
100.0
145
0.0
146
0.5
147
0.020000000000000004
148
0.0
 69
0
 70
0
 71
0
 72
0
 73
0
 74
0
 75
0
 76
0
 77
1
 78
12
 79
3
170
0
171
3
172
1
173
0
174
0
175
0
176
0
177
0
178
0
179
2
271
2
272
2
273
2
274
3
275
0
276
0
277
2
278
46
279
2
280
0
281
0
282
0
283
0
284
8
285
0
286
0
288
1
289
3
290
0
340
4C
371
-2
372
-2
  0
DIMSTYLE
105
80
330
4
100
AcDbSymbolTableRecord
100
AcDbDimStyleTableRecord
  2
EZ_M_10_H25_CM
 70
0
 40
1.0
 41
0.025
 42
0.0125
 43
3.75
 44
0.037500000000000006
 45
0.0
 46
0.0
 47
0.0
 48
0.0
 49
2.5
140
0.025
141
2.5
142
0.0125
143
0.03937007874
144
100.0
145
0.0
146
0.5
147
0.010000000000000002
148
0.0
 69
0
 70
0
 71
0
 72
0
 73
0
 74
0
 75
0
 76
0
 77
1
 78
12
 79
3
170
0
171
3
172
1
173
0
174
0
175
0
176
0
177
0
178
0
179
2
271
2
272
2
273
2
274
3
275
0
276
0
277
2
278
46
279
2
280
0
281
0
282
0
283
0
284
8
285
0
286
0
288
1
289
3
290
0
340
4C
371
-2
372
-2
  0
DIMSTYLE
105
81
330
4
100
AcDbSymbolTableRecord
100
AcDbDimStyleTableRecord
  2
EZ_M_5_H25_CM
 70
0
 40
1.0
 41
0.0125
 42
0.00625
 43
3.75
 44
0.018750000000000003
 45
0.0
 46
0.0
 47
0.0
 48
0.0
 49
2.5
140
0.0125
141
2.5
142
0.00625
143
0.03937007874
144
100.0
145
0.0
146
0.5
147
0.005000000000000001
148
0.0
 69
0
 70
0
 71
0
 72
0
 73
0
 74
0
 75
0
 76
0
 77
1
 78
12
 79
3
170
0
171
3
172
1
173
0
174
0
175
0
176
0
177
0
178
0
179
2
271
2
272
2
273
2
274
3
275
0
276
0
277
2
278
46
279
2
280
0
281
0
282
0
283
0
284
8
285
0
286
0
288
1
289
3
290
0
340
4C
371
-2
372
-2
  0
DIMSTYLE
105
82
330
4
100
AcDbSymbolTableRecord
100
AcDbDimStyleTableRecord
  2
EZ_M_1_H25_CM
 70
0
 40
1.0
 41
0.0025
 42
0.00125
 43
3.75
 44
0.00375
 45
0.0
 46
0.0
 47
0.0
 48
0.0
 49
2.5
140
0.0025
141
2.5
142
0.00125
143
0.03937007874
144
100.0
145
0.0
146
0.5
147
0.001
148
0.0
 69
0
 70
0
 71
0
 72
0
 73
0
 74
0
 75
0
 76
0
 77
1
 78
12
 79
3
170
0
171
3
172
1
173
0
174
0
175
0
176
0
177
0
178
0
179
2
271
2
272
2
273
2
274
3
275
0
276
0
277
2
278
46
279
2
280
0
281
0
282
0
283
0
284
8
285
0
286
0
288
1
289
3
290
0
340
4C
371
-2
372
-2
  0
DIMSTYLE
105
83
330
4
100
AcDbSymbolTableRecord
100
AcDbDimStyleTableRecord
  2
EZ_RADIUS
 70
0
 40
1.0
 41
0.25
 42
0.125
 43
3.75
 44
0.375
 45
0.0
 46
0.0
 47
0.0
 48
0.0
 49
2.5
140
0.25
141
0.0
142
0.0
143
0.03937007874
144
100.0
145
0.0
146
0.5
147
0.1
148
0.0
 69
0
 70
0
 71
0
 72
0
 73
0
 74
0
 75
0
 76
0
 77
1
 78
12
 79
3
170
0
171
3
172
0
173
0
174
0
175
0
176
0
177
0
178
0
179
2
271
2
272
2
273
2
274
3
275
0
276
0
277
2
278
46
279
1
280
0
281
0
282
0
283
0
284
8
285
0
286
0
288
1
289
3
290
0
340
4C
342
84
371
-2
372
-2
  0
DIMSTYLE
105
88
330
4
100
AcDbSymbolTableRecord
100
AcDbDimStyleTableRecord
  2
EZ_RADIUS_INSIDE
 70
0
 40
1.0
 41
0.25
 42
0.125
 43
3.75
 44
0.375
 45
0.0
 46
0.0
 47
0.0
 48
0.0
 49
2.5
140
0.25
141
0.0
142
0.0
143
0.03937007874
144
100.0
145
0.0
146
0.5
147
0.1
148
0.0
 69
0
 70
0
 71
0
 72
0
 73
0
 74
0
 75
0
 76
0
 77
0
 78
12
 79
3
170
0
171
3
172
0
173
0
174
1
175
0
176
0
177
0
178
0
179
2
271
2
272
2
273
2
274
3
275
0
276
0
277
2
278
46
279
0
280
0
281
0
282
0
283
0
284
8
285
0
286
0
288
1
289
0
290
0
340
4C
342
84
371
-2
372
-2
  0
DIMSTYLE
105
89
330
4
100
AcDbSymbolTableRecord
100
AcDbDimStyleTableRecord
  2
EZ_CURVED
 70
0
 40
1.0
 41
0.25
 42
0.125
 43
3.75
 44
0.375
 45
0.0
 46
0.0
 47
0.0
 48
0.0
 49
2.5
140
0.25
141
2.5
142
0.0
143
0.03937007874
144
100.0
145
0.0
146
0.5
147
0.1
148
0.0
 69
0
 70
0
 71
0
 72
0
 73
0
 74
0
 75
0
 76
0
 77
1
 78
12
 79
2
 90
2
170
0
171
3
172
1
173
0
174
0
175
0
176
0
177
0
178
0
179
2
271
2
272
2
273
2
274
3
275
0
276
0
277
2
278
46
279
2
280
0
281
0
282
0
283
0
284
8
285
0
286
0
288
1
289
3
290
0
340
4C
371
-2
372
-2
  0
DIMSTYLE
105
96
330
4
100
AcDbSymbolTableRecord
100
AcDbDimStyleTableRecord
  2
AEROFORGE
 70
0
 40
1.0
 41
1.5
 42
0.5
 43
3.75
 44
0.8
 45
0.0
 46
0.0
 47
0.0
 48
0.0
 49
2.5
140
2.5
141
2.5
142
0.0
143
0.03937007874
144
1.0
145
0.0
146
1.0
147
0.6
148
0.0
 69
0
 70
0
 71
0
 72
0
 73
0
 74
0
 75
0
 76
0
 77
1
 78
8
 79
3
170
0
171
3
172
1
173
0
174
0
175
0
176
0
177
0
178
0
179
2
271
2
272
2
273
2
274
3
275
0
276
0
277
2
278
44
279
0
280
0
281
0
282
0
283
0
284
8
285
0
286
0
288
0
289
3
290
0
371
-2
372
-2
  0
ENDTAB
  0
TABLE
  2
BLOCK_RECORD
  5
9
330
0
100
AcDbSymbolTable
 70
10
  0
BLOCK_RECORD
  5
17
330
9
100
AcDbSymbolTableRecord
100
AcDbBlockTableRecord
  2
*Model_Space
340
1A
 70
0
280
1
281
0
  0
BLOCK_RECORD
  5
1B
330
9
100
AcDbSymbolTableRecord
100
AcDbBlockTableRecord
  2
*Paper_Space
340
1E
 70
0
280
1
281
0
  0
BLOCK_RECORD
  5
74
330
9
100
AcDbSymbolTableRecord
100
AcDbBlockTableRecord
  2
_ARCHTICK
340
0
 70
0
280
1
281
0
  0
BLOCK_RECORD
  5
78
330
9
100
AcDbSymbolTableRecord
100
AcDbBlockTableRecord
  2
_CLOSEDFILLED
340
0
 70
0
280
1
281
0
  0
BLOCK_RECORD
  5
84
330
9
100
AcDbSymbolTableRecord
100
AcDbBlockTableRecord
  2
_CLOSEDBLANK
340
0
 70
0
280
1
281
0
  0
BLOCK_RECORD
  5
2B0
330
9
100
AcDbSymbolTableRecord
100
AcDbBlockTableRecord
  2
*D1
340
0
 70
0
280
1
281
0
  0
BLOCK_RECORD
  5
2C0
330
9
100
AcDbSymbolTableRecord
100
AcDbBlockTableRecord
  2
*D2
340
0
 70
0
280
1
281
0
  0
BLOCK_RECORD
  5
352
330
9
100
AcDbSymbolTableRecord
100
AcDbBlockTableRecord
  2
*D3
340
0
 70
0
280
1
281
0
  0
BLOCK_RECORD
  5
3E4
330
9
100
AcDbSymbolTableRecord
100
AcDbBlockTableRecord
  2
*D4
340
0
 70
0
280
1
281
0
  0
BLOCK_RECORD
  5
473
330
9
100
AcDbSymbolTableRecord
100
AcDbBlockTableRecord
  2
*D5
340
0
 70
0
280
1
281
0
  0
ENDTAB
  0
ENDSEC
  0
SECTION
  2
BLOCKS
  0
BLOCK
  5
18
330
17
100
AcDbEntity
  8
0
100
AcDbBlockBegin
  2
*Model_Space
 70
0
 10
0.0
 20
0.0
 30
0.0
  3
*Model_Space
  1

  0
ENDBLK
  5
19
330
17
100
AcDbEntity
  8
0
100
AcDbBlockEnd
  0
BLOCK
  5
1C
330
1B
100
AcDbEntity
  8
0
100
AcDbBlockBegin
  2
*Paper_Space
 70
0
 10
0.0
 20
0.0
 30
0.0
  3
*Paper_Space
  1

  0
ENDBLK
  5
1D
330
1B
100
AcDbEntity
  8
0
100
AcDbBlockEnd
  0
BLOCK
  5
75
330
74
100
AcDbEntity
  8
0
100
AcDbBlockBegin
  2
_ARCHTICK
 70
0
 10
0.0
 20
0.0
 30
0.0
  3
_ARCHTICK
  1

  0
LWPOLYLINE
  5
77
330
74
100
AcDbEntity
  8
0
  6
BYBLOCK
 62
0
100
AcDbPolyline
 90
2
 70
0
 43
0.15
 10
-0.5
 20
-0.5
 10
0.5
 20
0.5
  0
ENDBLK
  5
76
330
74
100
AcDbEntity
  8
0
100
AcDbBlockEnd
  0
BLOCK
  5
79
330
78
100
AcDbEntity
  8
0
100
AcDbBlockBegin
  2
_CLOSEDFILLED
 70
0
 10
0.0
 20
0.0
 30
0.0
  3
_CLOSEDFILLED
  1

  0
SOLID
  5
7B
330
78
100
AcDbEntity
  8
0
  6
BYBLOCK
 62
0
100
AcDbTrace
 10
-1.0
 20
0.16439898372402537
 30
0.0
 11
0.0
 21
0.0
 31
0.0
 12
-1.0
 22
-0.16439898372402537
 32
0.0
 13
-1.0
 23
-0.16439898372402537
 33
0.0
  0
ENDBLK
  5
7A
330
78
100
AcDbEntity
  8
0
100
AcDbBlockEnd
  0
BLOCK
  5
85
330
84
100
AcDbEntity
  8
0
100
AcDbBlockBegin
  2
_CLOSEDBLANK
 70
0
 10
0.0
 20
0.0
 30
0.0
  3
_CLOSEDBLANK
  1

  0
LWPOLYLINE
  5
87
330
84
100
AcDbEntity
  8
0
  6
BYBLOCK
 62
0
100
AcDbPolyline
 90
3
 70
1
 10
-1.0
 20
0.16439898372402537
 10
0.0
 20
0.0
 10
-1.0
 20
-0.16439898372402537
  0
ENDBLK
  5
86
330
84
100
AcDbEntity
  8
0
100
AcDbBlockEnd
  0
BLOCK
  5
2B1
330
2B0
100
AcDbEntity
  8
0
100
AcDbBlockBegin
  2
*D1
 70
1
 10
0.0
 20
0.0
 30
0.0
  3
*D1
  1

  0
LINE
  5
2B3
330
2B0
100
AcDbEntity
  8
0
100
AcDbLine
 10
305.5
 20
365.0
 30
0.0
 11
310.8
 21
365.0
 31
0.0
  0
LINE
  5
2B4
330
2B0
100
AcDbEntity
  8
0
100
AcDbLine
 10
305.5
 20
305.0
 30
0.0
 11
310.8
 21
305.0
 31
0.0
  0
INSERT
  5
2B5
330
2B0
100
AcDbEntity
  8
0
100
AcDbBlockReference
  2
_CLOSEDFILLED
 10
310.0
 20
365.0
 30
0.0
 41
1.5
 42
1.5
 50
90.0
  0
INSERT
  5
2B7
330
2B0
100
AcDbEntity
  8
0
100
AcDbBlockReference
  2
_CLOSEDFILLED
 10
310.0
 20
305.0
 30
0.0
 41
1.5
 42
1.5
 50
-90.0
  0
LINE
  5
2B9
330
2B0
100
AcDbEntity
  8
0
100
AcDbLine
 10
310.0
 20
363.5
 30
0.0
 11
310.0
 21
337.5
 31
0.0
  0
LINE
  5
2BA
330
2B0
100
AcDbEntity
  8
0
100
AcDbLine
 10
310.0
 20
332.5
 30
0.0
 11
310.0
 21
306.5
 31
0.0
  0
MTEXT
  5
2BB
330
2B0
100
AcDbEntity
  8
0
100
AcDbMText
 10
310.0
 20
335.0
 30
0.0
 40
2.5
 71
5
  1
60
  7
OpenSansCondensed-Light
 50
-90.0
  0
POINT
  5
2BC
330
2B0
100
AcDbEntity
  8
Defpoints
100
AcDbPoint
 10
310.0
 20
365.0
 30
0.0
  0
POINT
  5
2BD
330
2B0
100
AcDbEntity
  8
Defpoints
100
AcDbPoint
 10
305.0
 20
365.0
 30
0.0
  0
POINT
  5
2BE
330
2B0
100
AcDbEntity
  8
Defpoints
100
AcDbPoint
 10
305.0
 20
305.0
 30
0.0
  0
ENDBLK
  5
2B2
330
2B0
100
AcDbEntity
  8
0
100
AcDbBlockEnd
  0
BLOCK
  5
2C1
330
2C0
100
AcDbEntity
  8
0
100
AcDbBlockBegin
  2
*D2
 70
1
 10
0.0
 20
0.0
 30
0.0
  3
*D2
  1

  0
LINE
  5
2C3
330
2C0
100
AcDbEntity
  8
0
100
AcDbLine
 10
290.0
 20
372.5
 30
0.0
 11
290.0
 21
367.2
 31
0.0
  0
LINE
  5
2C4
330
2C0
100
AcDbEntity
  8
0
100
AcDbLine
 10
76.0
 20
372.5
 30
0.0
 11
76.0
 21
367.2
 31
0.0
  0
INSERT
  5
2C5
330
2C0
100
AcDbEntity
  8
0
100
AcDbBlockReference
  2
_CLOSEDFILLED
 10
290.0
 20
368.0
 30
0.0
 41
1.5
 42
1.5
 50
360.0
  0
INSERT
  5
2C7
330
2C0
100
AcDbEntity
  8
0
100
AcDbBlockReference
  2
_CLOSEDFILLED
 10
76.0
 20
368.0
 30
0.0
 41
1.5
 42
1.5
 50
180.0
  0
LINE
  5
2C9
330
2C0
100
AcDbEntity
  8
0
100
AcDbLine
 10
288.5
 20
368.0
 30
0.0
 11
186.75
 21
368.0
 31
0.0
  0
LINE
  5
2CA
330
2C0
100
AcDbEntity
  8
0
100
AcDbLine
 10
179.25
 20
368.0
 30
0.0
 11
77.5
 21
368.0
 31
0.0
  0
MTEXT
  5
2CB
330
2C0
100
AcDbEntity
  8
0
100
AcDbMText
 10
183.0
 20
368.0
 30
0.0
 40
2.5
 71
5
  1
214
  7
OpenSansCondensed-Light
 50
180.0
  0
POINT
  5
2CC
330
2C0
100
AcDbEntity
  8
Defpoints
100
AcDbPoint
 10
290.0
 20
368.0
 30
0.0
  0
POINT
  5
2CD
330
2C0
100
AcDbEntity
  8
Defpoints
100
AcDbPoint
 10
290.0
 20
373.0
 30
0.0
  0
POINT
  5
2CE
330
2C0
100
AcDbEntity
  8
Defpoints
100
AcDbPoint
 10
76.0
 20
373.0
 30
0.0
  0
ENDBLK
  5
2C2
330
2C0
100
AcDbEntity
  8
0
100
AcDbBlockEnd
  0
BLOCK
  5
353
330
352
100
AcDbEntity
  8
0
100
AcDbBlockBegin
  2
*D3
 70
1
 10
0.0
 20
0.0
 30
0.0
  3
*D3
  1

  0
LINE
  5
355
330
352
100
AcDbEntity
  8
0
100
AcDbLine
 10
400.0
 20
349.5
 30
0.0
 11
400.0
 21
340.74760981324454
 31
0.0
  0
LINE
  5
356
330
352
100
AcDbEntity
  8
0
100
AcDbLine
 10
460.0
 20
349.5
 30
0.0
 11
460.0
 21
340.74760981324454
 31
0.0
  0
INSERT
  5
357
330
352
100
AcDbEntity
  8
0
100
AcDbBlockReference
  2
_CLOSEDFILLED
 10
400.0
 20
341.54760981324455
 30
0.0
 41
1.5
 42
1.5
 50
180.0
  0
INSERT
  5
359
330
352
100
AcDbEntity
  8
0
100
AcDbBlockReference
  2
_CLOSEDFILLED
 10
460.0
 20
341.54760981324455
 30
0.0
 41
1.5
 42
1.5
  0
LINE
  5
35B
330
352
100
AcDbEntity
  8
0
100
AcDbLine
 10
401.5
 20
341.54760981324455
 30
0.0
 11
427.5
 21
341.54760981324455
 31
0.0
  0
LINE
  5
35C
330
352
100
AcDbEntity
  8
0
100
AcDbLine
 10
432.5
 20
341.54760981324455
 30
0.0
 11
458.5
 21
341.54760981324455
 31
0.0
  0
MTEXT
  5
35D
330
352
100
AcDbEntity
  8
0
100
AcDbMText
 10
430.0
 20
341.54760981324455
 30
0.0
 40
2.5
 71
5
  1
60
  7
OpenSansCondensed-Light
  0
POINT
  5
35E
330
352
100
AcDbEntity
  8
Defpoints
100
AcDbPoint
 10
400.0
 20
341.54760981324455
 30
0.0
  0
POINT
  5
35F
330
352
100
AcDbEntity
  8
Defpoints
100
AcDbPoint
 10
400.0
 20
350.0
 30
0.0
  0
POINT
  5
360
330
352
100
AcDbEntity
  8
Defpoints
100
AcDbPoint
 10
460.0
 20
350.0
 30
0.0
  0
ENDBLK
  5
354
330
352
100
AcDbEntity
  8
0
100
AcDbBlockEnd
  0
BLOCK
  5
3E5
330
3E4
100
AcDbEntity
  8
0
100
AcDbBlockBegin
  2
*D4
 70
1
 10
0.0
 20
0.0
 30
0.0
  3
*D4
  1

  0
LINE
  5
3E7
330
3E4
100
AcDbEntity
  8
0
100
AcDbLine
 10
400.0
 20
289.5
 30
0.0
 11
400.0
 21
281.2487790073227
 31
0.0
  0
LINE
  5
3E8
330
3E4
100
AcDbEntity
  8
0
100
AcDbLine
 10
455.9242349675453
 20
289.5
 30
0.0
 11
455.9242349675453
 21
281.2487790073227
 31
0.0
  0
INSERT
  5
3E9
330
3E4
100
AcDbEntity
  8
0
100
AcDbBlockReference
  2
_CLOSEDFILLED
 10
400.0
 20
282.0487790073227
 30
0.0
 41
1.5
 42
1.5
 50
180.0
  0
INSERT
  5
3EB
330
3E4
100
AcDbEntity
  8
0
100
AcDbBlockReference
  2
_CLOSEDFILLED
 10
455.9242349675453
 20
282.0487790073227
 30
0.0
 41
1.5
 42
1.5
  0
LINE
  5
3ED
330
3E4
100
AcDbEntity
  8
0
100
AcDbLine
 10
401.5
 20
282.0487790073227
 30
0.0
 11
421.71211748377266
 21
282.0487790073227
 31
0.0
  0
LINE
  5
3EE
330
3E4
100
AcDbEntity
  8
0
100
AcDbLine
 10
434.21211748377266
 20
282.0487790073227
 30
0.0
 11
454.4242349675453
 21
282.0487790073227
 31
0.0
  0
MTEXT
  5
3EF
330
3E4
100
AcDbEntity
  8
0
100
AcDbMText
 10
427.96211748377266
 20
282.0487790073227
 30
0.0
 40
2.5
 71
5
  1
55,92
  7
OpenSansCondensed-Light
  0
POINT
  5
3F0
330
3E4
100
AcDbEntity
  8
Defpoints
100
AcDbPoint
 10
400.0
 20
282.0487790073227
 30
0.0
  0
POINT
  5
3F1
330
3E4
100
AcDbEntity
  8
Defpoints
100
AcDbPoint
 10
400.0
 20
290.0
 30
0.0
  0
POINT
  5
3F2
330
3E4
100
AcDbEntity
  8
Defpoints
100
AcDbPoint
 10
455.9242349675453
 20
290.0
 30
0.0
  0
ENDBLK
  5
3E6
330
3E4
100
AcDbEntity
  8
0
100
AcDbBlockEnd
  0
BLOCK
  5
474
330
473
100
AcDbEntity
  8
0
100
AcDbBlockBegin
  2
*D5
 70
1
 10
0.0
 20
0.0
 30
0.0
  3
*D5
  1

  0
LINE
  5
476
330
473
100
AcDbEntity
  8
0
100
AcDbLine
 10
400.0
 20
229.5
 30
0.0
 11
400.0
 21
222.27895353353017
 31
0.0
  0
LINE
  5
477
330
473
100
AcDbEntity
  8
0
100
AcDbLine
 10
436.89350741895214
 20
229.5
 30
0.0
 11
436.89350741895214
 21
222.27895353353017
 31
0.0
  0
INSERT
  5
478
330
473
100
AcDbEntity
  8
0
100
AcDbBlockReference
  2
_CLOSEDFILLED
 10
400.0
 20
223.07895353353018
 30
0.0
 41
1.5
 42
1.5
 50
180.0
  0
INSERT
  5
47A
330
473
100
AcDbEntity
  8
0
100
AcDbBlockReference
  2
_CLOSEDFILLED
 10
436.89350741895214
 20
223.07895353353018
 30
0.0
 41
1.5
 42
1.5
  0
LINE
  5
47C
330
473
100
AcDbEntity
  8
0
100
AcDbLine
 10
401.5
 20
223.07895353353018
 30
0.0
 11
412.19675370947607
 21
223.07895353353018
 31
0.0
  0
LINE
  5
47D
330
473
100
AcDbEntity
  8
0
100
AcDbLine
 10
424.69675370947607
 20
223.07895353353018
 30
0.0
 11
435.39350741895214
 21
223.07895353353018
 31
0.0
  0
MTEXT
  5
47E
330
473
100
AcDbEntity
  8
0
100
AcDbMText
 10
418.44675370947607
 20
223.07895353353018
 30
0.0
 40
2.5
 71
5
  1
36,89
  7
OpenSansCondensed-Light
  0
POINT
  5
47F
330
473
100
AcDbEntity
  8
Defpoints
100
AcDbPoint
 10
400.0
 20
223.07895353353018
 30
0.0
  0
POINT
  5
480
330
473
100
AcDbEntity
  8
Defpoints
100
AcDbPoint
 10
400.0
 20
230.0
 30
0.0
  0
POINT
  5
481
330
473
100
AcDbEntity
  8
Defpoints
100
AcDbPoint
 10
436.89350741895214
 20
230.0
 30
0.0
  0
ENDBLK
  5
475
330
473
100
AcDbEntity
  8
0
100
AcDbBlockEnd
  0
ENDSEC
  0
SECTION
  2
ENTITIES
  0
LINE
  5
97
330
17
100
AcDbEntity
  8
BORDER
100
AcDbLine
 10
20.0
 20
10.0
 30
0.0
 11
584.0
 21
10.0
 31
0.0
  0
LINE
  5
98
330
17
100
AcDbEntity
  8
BORDER
100
AcDbLine
 10
584.0
 20
10.0
 30
0.0
 11
584.0
 21
410.0
 31
0.0
  0
LINE
  5
99
330
17
100
AcDbEntity
  8
BORDER
100
AcDbLine
 10
584.0
 20
410.0
 30
0.0
 11
20.0
 21
410.0
 31
0.0
  0
LINE
  5
9A
330
17
100
AcDbEntity
  8
BORDER
100
AcDbLine
 10
20.0
 20
410.0
 30
0.0
 11
20.0
 21
10.0
 31
0.0
  0
LINE
  5
9B
330
17
100
AcDbEntity
  8
BORDER
100
AcDbLine
 10
302.0
 20
5.0
 30
0.0
 11
302.0
 21
10.0
 31
0.0
  0
LINE
  5
9C
330
17
100
AcDbEntity
  8
BORDER
100
AcDbLine
 10
302.0
 20
410.0
 30
0.0
 11
302.0
 21
415.0
 31
0.0
  0
LINE
  5
9D
330
17
100
AcDbEntity
  8
BORDER
100
AcDbLine
 10
15.0
 20
210.0
 30
0.0
 11
20.0
 21
210.0
 31
0.0
  0
LINE
  5
9E
330
17
100
AcDbEntity
  8
BORDER
100
AcDbLine
 10
584.0
 20
210.0
 30
0.0
 11
589.0
 21
210.0
 31
0.0
  0
LINE
  5
9F
330
17
100
AcDbEntity
  8
BORDER
100
AcDbLine
 10
20.0
 20
60.0
 30
0.0
 11
23.0
 21
60.0
 31
0.0
  0
LINE
  5
A0
330
17
100
AcDbEntity
  8
BORDER
100
AcDbLine
 10
581.0
 20
60.0
 30
0.0
 11
584.0
 21
60.0
 31
0.0
  0
TEXT
  5
A1
330
17
100
AcDbEntity
  8
BORDER
100
AcDbText
 10
21.0
 20
34.0
 30
0.0
 40
2.5
  1
A
 11
21.0
 21
34.0
 31
0.0
100
AcDbText
  0
TEXT
  5
A2
330
17
100
AcDbEntity
  8
BORDER
100
AcDbText
 10
580.5
 20
34.0
 30
0.0
 40
2.5
  1
A
 11
580.5
 21
34.0
 31
0.0
100
AcDbText
  0
LINE
  5
A3
330
17
100
AcDbEntity
  8
BORDER
100
AcDbLine
 10
20.0
 20
110.0
 30
0.0
 11
23.0
 21
110.0
 31
0.0
  0
LINE
  5
A4
330
17
100
AcDbEntity
  8
BORDER
100
AcDbLine
 10
581.0
 20
110.0
 30
0.0
 11
584.0
 21
110.0
 31
0.0
  0
TEXT
  5
A5
330
17
100
AcDbEntity
  8
BORDER
100
AcDbText
 10
21.0
 20
84.0
 30
0.0
 40
2.5
  1
B
 11
21.0
 21
84.0
 31
0.0
100
AcDbText
  0
TEXT
  5
A6
330
17
100
AcDbEntity
  8
BORDER
100
AcDbText
 10
580.5
 20
84.0
 30
0.0
 40
2.5
  1
B
 11
580.5
 21
84.0
 31
0.0
100
AcDbText
  0
LINE
  5
A7
330
17
100
AcDbEntity
  8
BORDER
100
AcDbLine
 10
20.0
 20
160.0
 30
0.0
 11
23.0
 21
160.0
 31
0.0
  0
LINE
  5
A8
330
17
100
AcDbEntity
  8
BORDER
100
AcDbLine
 10
581.0
 20
160.0
 30
0.0
 11
584.0
 21
160.0
 31
0.0
  0
TEXT
  5
A9
330
17
100
AcDbEntity
  8
BORDER
100
AcDbText
 10
21.0
 20
134.0
 30
0.0
 40
2.5
  1
C
 11
21.0
 21
134.0
 31
0.0
100
AcDbText
  0
TEXT
  5
AA
330
17
100
AcDbEntity
  8
BORDER
100
AcDbText
 10
580.5
 20
134.0
 30
0.0
 40
2.5
  1
C
 11
580.5
 21
134.0
 31
0.0
100
AcDbText
  0
LINE
  5
AB
330
17
100
AcDbEntity
  8
BORDER
100
AcDbLine
 10
20.0
 20
210.0
 30
0.0
 11
23.0
 21
210.0
 31
0.0
  0
LINE
  5
AC
330
17
100
AcDbEntity
  8
BORDER
100
AcDbLine
 10
581.0
 20
210.0
 30
0.0
 11
584.0
 21
210.0
 31
0.0
  0
TEXT
  5
AD
330
17
100
AcDbEntity
  8
BORDER
100
AcDbText
 10
21.0
 20
184.0
 30
0.0
 40
2.5
  1
D
 11
21.0
 21
184.0
 31
0.0
100
AcDbText
  0
TEXT
  5
AE
330
17
100
AcDbEntity
  8
BORDER
100
AcDbText
 10
580.5
 20
184.0
 30
0.0
 40
2.5
  1
D
 11
580.5
 21
184.0
 31
0.0
100
AcDbText
  0
LINE
  5
AF
330
17
100
AcDbEntity
  8
BORDER
100
AcDbLine
 10
20.0
 20
260.0
 30
0.0
 11
23.0
 21
260.0
 31
0.0
  0
LINE
  5
B0
330
17
100
AcDbEntity
  8
BORDER
100
AcDbLine
 10
581.0
 20
260.0
 30
0.0
 11
584.0
 21
260.0
 31
0.0
  0
TEXT
  5
B1
330
17
100
AcDbEntity
  8
BORDER
100
AcDbText
 10
21.0
 20
234.0
 30
0.0
 40
2.5
  1
E
 11
21.0
 21
234.0
 31
0.0
100
AcDbText
  0
TEXT
  5
B2
330
17
100
AcDbEntity
  8
BORDER
100
AcDbText
 10
580.5
 20
234.0
 30
0.0
 40
2.5
  1
E
 11
580.5
 21
234.0
 31
0.0
100
AcDbText
  0
LINE
  5
B3
330
17
100
AcDbEntity
  8
BORDER
100
AcDbLine
 10
20.0
 20
310.0
 30
0.0
 11
23.0
 21
310.0
 31
0.0
  0
LINE
  5
B4
330
17
100
AcDbEntity
  8
BORDER
100
AcDbLine
 10
581.0
 20
310.0
 30
0.0
 11
584.0
 21
310.0
 31
0.0
  0
TEXT
  5
B5
330
17
100
AcDbEntity
  8
BORDER
100
AcDbText
 10
21.0
 20
284.0
 30
0.0
 40
2.5
  1
F
 11
21.0
 21
284.0
 31
0.0
100
AcDbText
  0
TEXT
  5
B6
330
17
100
AcDbEntity
  8
BORDER
100
AcDbText
 10
580.5
 20
284.0
 30
0.0
 40
2.5
  1
F
 11
580.5
 21
284.0
 31
0.0
100
AcDbText
  0
LINE
  5
B7
330
17
100
AcDbEntity
  8
BORDER
100
AcDbLine
 10
20.0
 20
360.0
 30
0.0
 11
23.0
 21
360.0
 31
0.0
  0
LINE
  5
B8
330
17
100
AcDbEntity
  8
BORDER
100
AcDbLine
 10
581.0
 20
360.0
 30
0.0
 11
584.0
 21
360.0
 31
0.0
  0
TEXT
  5
B9
330
17
100
AcDbEntity
  8
BORDER
100
AcDbText
 10
21.0
 20
334.0
 30
0.0
 40
2.5
  1
G
 11
21.0
 21
334.0
 31
0.0
100
AcDbText
  0
TEXT
  5
BA
330
17
100
AcDbEntity
  8
BORDER
100
AcDbText
 10
580.5
 20
334.0
 30
0.0
 40
2.5
  1
G
 11
580.5
 21
334.0
 31
0.0
100
AcDbText
  0
LINE
  5
BB
330
17
100
AcDbEntity
  8
BORDER
100
AcDbLine
 10
20.0
 20
410.0
 30
0.0
 11
23.0
 21
410.0
 31
0.0
  0
LINE
  5
BC
330
17
100
AcDbEntity
  8
BORDER
100
AcDbLine
 10
581.0
 20
410.0
 30
0.0
 11
584.0
 21
410.0
 31
0.0
  0
TEXT
  5
BD
330
17
100
AcDbEntity
  8
BORDER
100
AcDbText
 10
21.0
 20
384.0
 30
0.0
 40
2.5
  1
H
 11
21.0
 21
384.0
 31
0.0
100
AcDbText
  0
TEXT
  5
BE
330
17
100
AcDbEntity
  8
BORDER
100
AcDbText
 10
580.5
 20
384.0
 30
0.0
 40
2.5
  1
H
 11
580.5
 21
384.0
 31
0.0
100
AcDbText
  0
LINE
  5
BF
330
17
100
AcDbEntity
  8
BORDER
100
AcDbLine
 10
67.0
 20
10.0
 30
0.0
 11
67.0
 21
13.0
 31
0.0
  0
LINE
  5
C0
330
17
100
AcDbEntity
  8
BORDER
100
AcDbLine
 10
67.0
 20
407.0
 30
0.0
 11
67.0
 21
410.0
 31
0.0
  0
TEXT
  5
C1
330
17
100
AcDbEntity
  8
BORDER
100
AcDbText
 10
42.5
 20
10.5
 30
0.0
 40
2.0
  1
1
 11
42.5
 21
10.5
 31
0.0
100
AcDbText
  0
TEXT
  5
C2
330
17
100
AcDbEntity
  8
BORDER
100
AcDbText
 10
42.5
 20
407.0
 30
0.0
 40
2.0
  1
1
 11
42.5
 21
407.0
 31
0.0
100
AcDbText
  0
LINE
  5
C3
330
17
100
AcDbEntity
  8
BORDER
100
AcDbLine
 10
114.0
 20
10.0
 30
0.0
 11
114.0
 21
13.0
 31
0.0
  0
LINE
  5
C4
330
17
100
AcDbEntity
  8
BORDER
100
AcDbLine
 10
114.0
 20
407.0
 30
0.0
 11
114.0
 21
410.0
 31
0.0
  0
TEXT
  5
C5
330
17
100
AcDbEntity
  8
BORDER
100
AcDbText
 10
89.5
 20
10.5
 30
0.0
 40
2.0
  1
2
 11
89.5
 21
10.5
 31
0.0
100
AcDbText
  0
TEXT
  5
C6
330
17
100
AcDbEntity
  8
BORDER
100
AcDbText
 10
89.5
 20
407.0
 30
0.0
 40
2.0
  1
2
 11
89.5
 21
407.0
 31
0.0
100
AcDbText
  0
LINE
  5
C7
330
17
100
AcDbEntity
  8
BORDER
100
AcDbLine
 10
161.0
 20
10.0
 30
0.0
 11
161.0
 21
13.0
 31
0.0
  0
LINE
  5
C8
330
17
100
AcDbEntity
  8
BORDER
100
AcDbLine
 10
161.0
 20
407.0
 30
0.0
 11
161.0
 21
410.0
 31
0.0
  0
TEXT
  5
C9
330
17
100
AcDbEntity
  8
BORDER
100
AcDbText
 10
136.5
 20
10.5
 30
0.0
 40
2.0
  1
3
 11
136.5
 21
10.5
 31
0.0
100
AcDbText
  0
TEXT
  5
CA
330
17
100
AcDbEntity
  8
BORDER
100
AcDbText
 10
136.5
 20
407.0
 30
0.0
 40
2.0
  1
3
 11
136.5
 21
407.0
 31
0.0
100
AcDbText
  0
LINE
  5
CB
330
17
100
AcDbEntity
  8
BORDER
100
AcDbLine
 10
208.0
 20
10.0
 30
0.0
 11
208.0
 21
13.0
 31
0.0
  0
LINE
  5
CC
330
17
100
AcDbEntity
  8
BORDER
100
AcDbLine
 10
208.0
 20
407.0
 30
0.0
 11
208.0
 21
410.0
 31
0.0
  0
TEXT
  5
CD
330
17
100
AcDbEntity
  8
BORDER
100
AcDbText
 10
183.5
 20
10.5
 30
0.0
 40
2.0
  1
4
 11
183.5
 21
10.5
 31
0.0
100
AcDbText
  0
TEXT
  5
CE
330
17
100
AcDbEntity
  8
BORDER
100
AcDbText
 10
183.5
 20
407.0
 30
0.0
 40
2.0
  1
4
 11
183.5
 21
407.0
 31
0.0
100
AcDbText
  0
LINE
  5
CF
330
17
100
AcDbEntity
  8
BORDER
100
AcDbLine
 10
255.0
 20
10.0
 30
0.0
 11
255.0
 21
13.0
 31
0.0
  0
LINE
  5
D0
330
17
100
AcDbEntity
  8
BORDER
100
AcDbLine
 10
255.0
 20
407.0
 30
0.0
 11
255.0
 21
410.0
 31
0.0
  0
TEXT
  5
D1
330
17
100
AcDbEntity
  8
BORDER
100
AcDbText
 10
230.5
 20
10.5
 30
0.0
 40
2.0
  1
5
 11
230.5
 21
10.5
 31
0.0
100
AcDbText
  0
TEXT
  5
D2
330
17
100
AcDbEntity
  8
BORDER
100
AcDbText
 10
230.5
 20
407.0
 30
0.0
 40
2.0
  1
5
 11
230.5
 21
407.0
 31
0.0
100
AcDbText
  0
LINE
  5
D3
330
17
100
AcDbEntity
  8
BORDER
100
AcDbLine
 10
302.0
 20
10.0
 30
0.0
 11
302.0
 21
13.0
 31
0.0
  0
LINE
  5
D4
330
17
100
AcDbEntity
  8
BORDER
100
AcDbLine
 10
302.0
 20
407.0
 30
0.0
 11
302.0
 21
410.0
 31
0.0
  0
TEXT
  5
D5
330
17
100
AcDbEntity
  8
BORDER
100
AcDbText
 10
277.5
 20
10.5
 30
0.0
 40
2.0
  1
6
 11
277.5
 21
10.5
 31
0.0
100
AcDbText
  0
TEXT
  5
D6
330
17
100
AcDbEntity
  8
BORDER
100
AcDbText
 10
277.5
 20
407.0
 30
0.0
 40
2.0
  1
6
 11
277.5
 21
407.0
 31
0.0
100
AcDbText
  0
LINE
  5
D7
330
17
100
AcDbEntity
  8
BORDER
100
AcDbLine
 10
349.0
 20
10.0
 30
0.0
 11
349.0
 21
13.0
 31
0.0
  0
LINE
  5
D8
330
17
100
AcDbEntity
  8
BORDER
100
AcDbLine
 10
349.0
 20
407.0
 30
0.0
 11
349.0
 21
410.0
 31
0.0
  0
TEXT
  5
D9
330
17
100
AcDbEntity
  8
BORDER
100
AcDbText
 10
324.5
 20
10.5
 30
0.0
 40
2.0
  1
7
 11
324.5
 21
10.5
 31
0.0
100
AcDbText
  0
TEXT
  5
DA
330
17
100
AcDbEntity
  8
BORDER
100
AcDbText
 10
324.5
 20
407.0
 30
0.0
 40
2.0
  1
7
 11
324.5
 21
407.0
 31
0.0
100
AcDbText
  0
LINE
  5
DB
330
17
100
AcDbEntity
  8
BORDER
100
AcDbLine
 10
396.0
 20
10.0
 30
0.0
 11
396.0
 21
13.0
 31
0.0
  0
LINE
  5
DC
330
17
100
AcDbEntity
  8
BORDER
100
AcDbLine
 10
396.0
 20
407.0
 30
0.0
 11
396.0
 21
410.0
 31
0.0
  0
TEXT
  5
DD
330
17
100
AcDbEntity
  8
BORDER
100
AcDbText
 10
371.5
 20
10.5
 30
0.0
 40
2.0
  1
8
 11
371.5
 21
10.5
 31
0.0
100
AcDbText
  0
TEXT
  5
DE
330
17
100
AcDbEntity
  8
BORDER
100
AcDbText
 10
371.5
 20
407.0
 30
0.0
 40
2.0
  1
8
 11
371.5
 21
407.0
 31
0.0
100
AcDbText
  0
LINE
  5
DF
330
17
100
AcDbEntity
  8
BORDER
100
AcDbLine
 10
443.0
 20
10.0
 30
0.0
 11
443.0
 21
13.0
 31
0.0
  0
LINE
  5
E0
330
17
100
AcDbEntity
  8
BORDER
100
AcDbLine
 10
443.0
 20
407.0
 30
0.0
 11
443.0
 21
410.0
 31
0.0
  0
TEXT
  5
E1
330
17
100
AcDbEntity
  8
BORDER
100
AcDbText
 10
418.5
 20
10.5
 30
0.0
 40
2.0
  1
9
 11
418.5
 21
10.5
 31
0.0
100
AcDbText
  0
TEXT
  5
E2
330
17
100
AcDbEntity
  8
BORDER
100
AcDbText
 10
418.5
 20
407.0
 30
0.0
 40
2.0
  1
9
 11
418.5
 21
407.0
 31
0.0
100
AcDbText
  0
LINE
  5
E3
330
17
100
AcDbEntity
  8
BORDER
100
AcDbLine
 10
490.0
 20
10.0
 30
0.0
 11
490.0
 21
13.0
 31
0.0
  0
LINE
  5
E4
330
17
100
AcDbEntity
  8
BORDER
100
AcDbLine
 10
490.0
 20
407.0
 30
0.0
 11
490.0
 21
410.0
 31
0.0
  0
TEXT
  5
E5
330
17
100
AcDbEntity
  8
BORDER
100
AcDbText
 10
465.5
 20
10.5
 30
0.0
 40
2.0
  1
10
 11
465.5
 21
10.5
 31
0.0
100
AcDbText
  0
TEXT
  5
E6
330
17
100
AcDbEntity
  8
BORDER
100
AcDbText
 10
465.5
 20
407.0
 30
0.0
 40
2.0
  1
10
 11
465.5
 21
407.0
 31
0.0
100
AcDbText
  0
LINE
  5
E7
330
17
100
AcDbEntity
  8
BORDER
100
AcDbLine
 10
537.0
 20
10.0
 30
0.0
 11
537.0
 21
13.0
 31
0.0
  0
LINE
  5
E8
330
17
100
AcDbEntity
  8
BORDER
100
AcDbLine
 10
537.0
 20
407.0
 30
0.0
 11
537.0
 21
410.0
 31
0.0
  0
TEXT
  5
E9
330
17
100
AcDbEntity
  8
BORDER
100
AcDbText
 10
512.5
 20
10.5
 30
0.0
 40
2.0
  1
11
 11
512.5
 21
10.5
 31
0.0
100
AcDbText
  0
TEXT
  5
EA
330
17
100
AcDbEntity
  8
BORDER
100
AcDbText
 10
512.5
 20
407.0
 30
0.0
 40
2.0
  1
11
 11
512.5
 21
407.0
 31
0.0
100
AcDbText
  0
LINE
  5
EB
330
17
100
AcDbEntity
  8
BORDER
100
AcDbLine
 10
584.0
 20
10.0
 30
0.0
 11
584.0
 21
13.0
 31
0.0
  0
LINE
  5
EC
330
17
100
AcDbEntity
  8
BORDER
100
AcDbLine
 10
584.0
 20
407.0
 30
0.0
 11
584.0
 21
410.0
 31
0.0
  0
TEXT
  5
ED
330
17
100
AcDbEntity
  8
BORDER
100
AcDbText
 10
559.5
 20
10.5
 30
0.0
 40
2.0
  1
12
 11
559.5
 21
10.5
 31
0.0
100
AcDbText
  0
TEXT
  5
EE
330
17
100
AcDbEntity
  8
BORDER
100
AcDbText
 10
559.5
 20
407.0
 30
0.0
 40
2.0
  1
12
 11
559.5
 21
407.0
 31
0.0
100
AcDbText
  0
LINE
  5
EF
330
17
100
AcDbEntity
  8
TITLEBLOCK
100
AcDbLine
 10
414.0
 20
10.0
 30
0.0
 11
584.0
 21
10.0
 31
0.0
  0
LINE
  5
F0
330
17
100
AcDbEntity
  8
TITLEBLOCK
100
AcDbLine
 10
414.0
 20
46.0
 30
0.0
 11
584.0
 21
46.0
 31
0.0
  0
LINE
  5
F1
330
17
100
AcDbEntity
  8
TITLEBLOCK
100
AcDbLine
 10
414.0
 20
10.0
 30
0.0
 11
414.0
 21
46.0
 31
0.0
  0
LINE
  5
F2
330
17
100
AcDbEntity
  8
TITLEBLOCK
100
AcDbLine
 10
584.0
 20
10.0
 30
0.0
 11
584.0
 21
46.0
 31
0.0
  0
LINE
  5
F3
330
17
100
AcDbEntity
  8
TITLEBLOCK
100
AcDbLine
 10
414.0
 20
19.0
 30
0.0
 11
584.0
 21
19.0
 31
0.0
  0
LINE
  5
F4
330
17
100
AcDbEntity
  8
TITLEBLOCK
100
AcDbLine
 10
414.0
 20
28.0
 30
0.0
 11
584.0
 21
28.0
 31
0.0
  0
LINE
  5
F5
330
17
100
AcDbEntity
  8
TITLEBLOCK
100
AcDbLine
 10
414.0
 20
37.0
 30
0.0
 11
584.0
 21
37.0
 31
0.0
  0
TEXT
  5
F6
330
17
100
AcDbEntity
  8
TITLEBLOCK
100
AcDbText
 10
417.0
 20
39.0
 30
0.0
 40
3.5
  1
AEROFORGE — HStab_Left
 11
417.0
 21
39.0
 31
0.0
100
AcDbText
  0
TEXT
  5
F7
330
17
100
AcDbEntity
  8
TITLEBLOCK
100
AcDbText
 10
417.0
 20
30.0
 30
0.0
 40
2.0
  1
Fixed stab half (LEFT ONLY — LE to hinge face). Hinge@X=60. Right = mirror.
 11
417.0
 21
30.0
 31
0.0
100
AcDbText
  0
TEXT
  5
F8
330
17
100
AcDbEntity
  8
TITLEBLOCK
100
AcDbText
 10
417.0
 20
21.0
 30
0.0
 40
2.0
  1
LW-PLA | Vase mode 0.45mm (0.6mm saddle zone) | 230C | Print saddle down
 11
417.0
 21
21.0
 31
0.0
100
AcDbText
  0
TEXT
  5
F9
330
17
100
AcDbEntity
  8
TITLEBLOCK
100
AcDbText
 10
417.0
 20
12.0
 30
0.0
 40
1.8
  1
Scale: 1:1 | Units: mm | Date: 2026-03-30 | Mass: 6.89g | Rev: v6 | Status: FOR APPROVAL
 11
417.0
 21
12.0
 31
0.0
100
AcDbText
  0
LINE
  5
FA
330
17
100
AcDbEntity
  8
TITLEBLOCK
100
AcDbLine
 10
564.0
 20
12.0
 30
0.0
 11
572.0
 21
12.0
 31
0.0
  0
LINE
  5
FB
330
17
100
AcDbEntity
  8
TITLEBLOCK
100
AcDbLine
 10
566.0
 20
18.0
 30
0.0
 11
570.0
 21
18.0
 31
0.0
  0
LINE
  5
FC
330
17
100
AcDbEntity
  8
TITLEBLOCK
100
AcDbLine
 10
564.0
 20
12.0
 30
0.0
 11
566.0
 21
18.0
 31
0.0
  0
LINE
  5
FD
330
17
100
AcDbEntity
  8
TITLEBLOCK
100
AcDbLine
 10
572.0
 20
12.0
 30
0.0
 11
570.0
 21
18.0
 31
0.0
  0
CIRCLE
  5
FE
330
17
100
AcDbEntity
  8
TITLEBLOCK
100
AcDbCircle
 10
560.0
 20
15.0
 30
0.0
 40
3.0
  0
LINE
  5
FF
330
17
100
AcDbEntity
  8
TITLEBLOCK
100
AcDbLine
 10
563.0
 20
15.0
 30
0.0
 11
564.0
 21
15.0
 31
0.0
  0
LINE
  5
100
330
17
100
AcDbEntity
  8
ORIENTATION
100
AcDbLine
 10
45.0
 20
395.0
 30
0.0
 11
30.0
 21
395.0
 31
0.0
  0
LINE
  5
101
330
17
100
AcDbEntity
  8
ORIENTATION
100
AcDbLine
 10
30.0
 20
395.0
 30
0.0
 11
32.0
 21
396.0
 31
0.0
  0
LINE
  5
102
330
17
100
AcDbEntity
  8
ORIENTATION
100
AcDbLine
 10
30.0
 20
395.0
 30
0.0
 11
32.0
 21
394.0
 31
0.0
  0
TEXT
  5
103
330
17
100
AcDbEntity
  8
ORIENTATION
100
AcDbText
 10
29.0
 20
397.0
 30
0.0
 40
2.5
  1
FWD
 11
29.0
 21
397.0
 31
0.0
100
AcDbText
  0
LINE
  5
104
330
17
100
AcDbEntity
  8
ORIENTATION
100
AcDbLine
 10
50.0
 20
410.0
 30
0.0
 11
50.0
 21
395.0
 31
0.0
  0
LINE
  5
105
330
17
100
AcDbEntity
  8
ORIENTATION
100
AcDbLine
 10
50.0
 20
395.0
 30
0.0
 11
49.0
 21
397.0
 31
0.0
  0
LINE
  5
106
330
17
100
AcDbEntity
  8
ORIENTATION
100
AcDbLine
 10
50.0
 20
395.0
 30
0.0
 11
51.0
 21
397.0
 31
0.0
  0
TEXT
  5
107
330
17
100
AcDbEntity
  8
ORIENTATION
100
AcDbText
 10
52.0
 20
397.0
 30
0.0
 40
2.0
  1
INBD
 11
52.0
 21
397.0
 31
0.0
100
AcDbText
  0
TEXT
  5
108
330
17
100
AcDbEntity
  8
TEXT
100
AcDbText
 10
142.5
 20
387.0
 30
0.0
 40
5.0
  1
TOP VIEW — STAB COMPONENT (1:1)
 11
142.5
 21
387.0
 31
0.0
100
AcDbText
  0
LINE
  5
109
330
17
100
AcDbEntity
  8
ORIENTATION
100
AcDbLine
 10
285.0
 20
330.5
 30
0.0
 11
285.0
 21
355.5
 31
0.0
  0
LINE
  5
10A
330
17
100
AcDbEntity
  8
ORIENTATION
100
AcDbLine
 10
285.0
 20
355.5
 30
0.0
 11
282.5
 21
351.5
 31
0.0
  0
LINE
  5
10B
330
17
100
AcDbEntity
  8
ORIENTATION
100
AcDbLine
 10
285.0
 20
355.5
 30
0.0
 11
287.5
 21
351.5
 31
0.0
  0
TEXT
  5
10C
330
17
100
AcDbEntity
  8
ORIENTATION
100
AcDbText
 10
279.0
 20
357.5
 30
0.0
 40
3.5
  1
FWD
 11
279.0
 21
357.5
 31
0.0
100
AcDbText
  0
LINE
  5
10D
330
17
100
AcDbEntity
  8
OUTLINE
100
AcDbLine
 10
290.0
 20
365.0
 30
0.0
 11
288.6
 21
364.99978929749847
 31
0.0
  0
LINE
  5
10E
330
17
100
AcDbEntity
  8
OUTLINE
100
AcDbLine
 10
288.6
 20
364.99978929749847
 30
0.0
 11
287.2
 21
364.99896236839203
 31
0.0
  0
LINE
  5
10F
330
17
100
AcDbEntity
  8
OUTLINE
100
AcDbLine
 10
287.2
 20
364.99896236839203
 30
0.0
 11
285.8
 21
364.9973632933691
 31
0.0
  0
LINE
  5
110
330
17
100
AcDbEntity
  8
OUTLINE
100
AcDbLine
 10
285.8
 20
364.9973632933691
 30
0.0
 11
284.4
 21
364.9948898411732
 31
0.0
  0
LINE
  5
111
330
17
100
AcDbEntity
  8
OUTLINE
100
AcDbLine
 10
284.4
 20
364.9948898411732
 30
0.0
 11
283.0
 21
364.99146219705415
 31
0.0
  0
LINE
  5
112
330
17
100
AcDbEntity
  8
OUTLINE
100
AcDbLine
 10
283.0
 20
364.99146219705415
 30
0.0
 11
281.6
 21
364.98701364527335
 31
0.0
  0
LINE
  5
113
330
17
100
AcDbEntity
  8
OUTLINE
100
AcDbLine
 10
281.6
 20
364.98701364527335
 30
0.0
 11
280.2
 21
364.98148622278086
 31
0.0
  0
LINE
  5
114
330
17
100
AcDbEntity
  8
OUTLINE
100
AcDbLine
 10
280.2
 20
364.98148622278086
 30
0.0
 11
278.8
 21
364.97482828320796
 31
0.0
  0
LINE
  5
115
330
17
100
AcDbEntity
  8
OUTLINE
100
AcDbLine
 10
278.8
 20
364.97482828320796
 30
0.0
 11
277.4
 21
364.9669929743892
 31
0.0
  0
LINE
  5
116
330
17
100
AcDbEntity
  8
OUTLINE
100
AcDbLine
 10
277.4
 20
364.9669929743892
 30
0.0
 11
276.0
 21
364.95793721415504
 31
0.0
  0
LINE
  5
117
330
17
100
AcDbEntity
  8
OUTLINE
100
AcDbLine
 10
276.0
 20
364.95793721415504
 30
0.0
 11
274.6
 21
364.9476209634221
 31
0.0
  0
LINE
  5
118
330
17
100
AcDbEntity
  8
OUTLINE
100
AcDbLine
 10
274.6
 20
364.9476209634221
 30
0.0
 11
273.2
 21
364.9360066887186
 31
0.0
  0
LINE
  5
119
330
17
100
AcDbEntity
  8
OUTLINE
100
AcDbLine
 10
273.2
 20
364.9360066887186
 30
0.0
 11
271.8
 21
364.9230589516637
 31
0.0
  0
LINE
  5
11A
330
17
100
AcDbEntity
  8
OUTLINE
100
AcDbLine
 10
271.8
 20
364.9230589516637
 30
0.0
 11
270.4
 21
364.9087440870001
 31
0.0
  0
LINE
  5
11B
330
17
100
AcDbEntity
  8
OUTLINE
100
AcDbLine
 10
270.4
 20
364.9087440870001
 30
0.0
 11
269.0
 21
364.89302994443943
 31
0.0
  0
LINE
  5
11C
330
17
100
AcDbEntity
  8
OUTLINE
100
AcDbLine
 10
269.0
 20
364.89302994443943
 30
0.0
 11
267.6
 21
364.8758856777501
 31
0.0
  0
LINE
  5
11D
330
17
100
AcDbEntity
  8
OUTLINE
100
AcDbLine
 10
267.6
 20
364.8758856777501
 30
0.0
 11
266.2
 21
364.85728156962625
 31
0.0
  0
LINE
  5
11E
330
17
100
AcDbEntity
  8
OUTLINE
100
AcDbLine
 10
266.2
 20
364.85728156962625
 30
0.0
 11
264.8
 21
364.8371888841866
 31
0.0
  0
LINE
  5
11F
330
17
100
AcDbEntity
  8
OUTLINE
100
AcDbLine
 10
264.8
 20
364.8371888841866
 30
0.0
 11
263.4
 21
364.815579741169
 31
0.0
  0
LINE
  5
120
330
17
100
AcDbEntity
  8
OUTLINE
100
AcDbLine
 10
263.4
 20
364.815579741169
 30
0.0
 11
262.0
 21
364.79242700740997
 31
0.0
  0
LINE
  5
121
330
17
100
AcDbEntity
  8
OUTLINE
100
AcDbLine
 10
262.0
 20
364.79242700740997
 30
0.0
 11
260.6
 21
364.76770420227075
 31
0.0
  0
LINE
  5
122
330
17
100
AcDbEntity
  8
OUTLINE
100
AcDbLine
 10
260.6
 20
364.76770420227075
 30
0.0
 11
259.2
 21
364.7413854144407
 31
0.0
  0
LINE
  5
123
330
17
100
AcDbEntity
  8
OUTLINE
100
AcDbLine
 10
259.2
 20
364.7413854144407
 30
0.0
 11
257.8
 21
364.71344522811495
 31
0.0
  0
LINE
  5
124
330
17
100
AcDbEntity
  8
OUTLINE
100
AcDbLine
 10
257.8
 20
364.71344522811495
 30
0.0
 11
256.4
 21
364.6838586569597
 31
0.0
  0
LINE
  5
125
330
17
100
AcDbEntity
  8
OUTLINE
100
AcDbLine
 10
256.4
 20
364.6838586569597
 30
0.0
 11
255.0
 21
364.6526010845983
 31
0.0
  0
LINE
  5
126
330
17
100
AcDbEntity
  8
OUTLINE
100
AcDbLine
 10
255.0
 20
364.6526010845983
 30
0.0
 11
253.6
 21
364.6196482105906
 31
0.0
  0
LINE
  5
127
330
17
100
AcDbEntity
  8
OUTLINE
100
AcDbLine
 10
253.6
 20
364.6196482105906
 30
0.0
 11
252.2
 21
364.5849760010679
 31
0.0
  0
LINE
  5
128
330
17
100
AcDbEntity
  8
OUTLINE
100
AcDbLine
 10
252.2
 20
364.5849760010679
 30
0.0
 11
250.8
 21
364.5485606433314
 31
0.0
  0
LINE
  5
129
330
17
100
AcDbEntity
  8
OUTLINE
100
AcDbLine
 10
250.8
 20
364.5485606433314
 30
0.0
 11
249.4
 21
364.5103785038382
 31
0.0
  0
LINE
  5
12A
330
17
100
AcDbEntity
  8
OUTLINE
100
AcDbLine
 10
249.4
 20
364.5103785038382
 30
0.0
 11
248.0
 21
364.4704060890915
 31
0.0
  0
LINE
  5
12B
330
17
100
AcDbEntity
  8
OUTLINE
100
AcDbLine
 10
248.0
 20
364.4704060890915
 30
0.0
 11
246.6
 21
364.4286200090268
 31
0.0
  0
LINE
  5
12C
330
17
100
AcDbEntity
  8
OUTLINE
100
AcDbLine
 10
246.6
 20
364.4286200090268
 30
0.0
 11
245.2
 21
364.38499694254494
 31
0.0
  0
LINE
  5
12D
330
17
100
AcDbEntity
  8
OUTLINE
100
AcDbLine
 10
245.2
 20
364.38499694254494
 30
0.0
 11
243.8
 21
364.3395136048927
 31
0.0
  0
LINE
  5
12E
330
17
100
AcDbEntity
  8
OUTLINE
100
AcDbLine
 10
243.8
 20
364.3395136048927
 30
0.0
 11
242.4
 21
364.29214671663243
 31
0.0
  0
LINE
  5
12F
330
17
100
AcDbEntity
  8
OUTLINE
100
AcDbLine
 10
242.4
 20
364.29214671663243
 30
0.0
 11
241.0
 21
364.2428729739742
 31
0.0
  0
LINE
  5
130
330
17
100
AcDbEntity
  8
OUTLINE
100
AcDbLine
 10
241.0
 20
364.2428729739742
 30
0.0
 11
239.6
 21
364.19166902027354
 31
0.0
  0
LINE
  5
131
330
17
100
AcDbEntity
  8
OUTLINE
100
AcDbLine
 10
239.6
 20
364.19166902027354
 30
0.0
 11
238.2
 21
364.1385114185183
 31
0.0
  0
LINE
  5
132
330
17
100
AcDbEntity
  8
OUTLINE
100
AcDbLine
 10
238.2
 20
364.1385114185183
 30
0.0
 11
236.8
 21
364.0833766246498
 31
0.0
  0
LINE
  5
133
330
17
100
AcDbEntity
  8
OUTLINE
100
AcDbLine
 10
236.8
 20
364.0833766246498
 30
0.0
 11
235.4
 21
364.0262409615775
 31
0.0
  0
LINE
  5
134
330
17
100
AcDbEntity
  8
OUTLINE
100
AcDbLine
 10
235.4
 20
364.0262409615775
 30
0.0
 11
234.0
 21
363.9670805937614
 31
0.0
  0
LINE
  5
135
330
17
100
AcDbEntity
  8
OUTLINE
100
AcDbLine
 10
234.0
 20
363.9670805937614
 30
0.0
 11
232.6
 21
363.90587150224655
 31
0.0
  0
LINE
  5
136
330
17
100
AcDbEntity
  8
OUTLINE
100
AcDbLine
 10
232.6
 20
363.90587150224655
 30
0.0
 11
231.2
 21
363.8425894600442
 31
0.0
  0
LINE
  5
137
330
17
100
AcDbEntity
  8
OUTLINE
100
AcDbLine
 10
231.2
 20
363.8425894600442
 30
0.0
 11
229.8
 21
363.77721000776137
 31
0.0
  0
LINE
  5
138
330
17
100
AcDbEntity
  8
OUTLINE
100
AcDbLine
 10
229.8
 20
363.77721000776137
 30
0.0
 11
228.4
 21
363.7097084293879
 31
0.0
  0
LINE
  5
139
330
17
100
AcDbEntity
  8
OUTLINE
100
AcDbLine
 10
228.4
 20
363.7097084293879
 30
0.0
 11
227.0
 21
363.6400597281553
 31
0.0
  0
LINE
  5
13A
330
17
100
AcDbEntity
  8
OUTLINE
100
AcDbLine
 10
227.0
 20
363.6400597281553
 30
0.0
 11
225.6
 21
363.56823860238524
 31
0.0
  0
LINE
  5
13B
330
17
100
AcDbEntity
  8
OUTLINE
100
AcDbLine
 10
225.6
 20
363.56823860238524
 30
0.0
 11
224.2
 21
363.49421942125036
 31
0.0
  0
LINE
  5
13C
330
17
100
AcDbEntity
  8
OUTLINE
100
AcDbLine
 10
224.2
 20
363.49421942125036
 30
0.0
 11
222.8
 21
363.41797620037255
 31
0.0
  0
LINE
  5
13D
330
17
100
AcDbEntity
  8
OUTLINE
100
AcDbLine
 10
222.8
 20
363.41797620037255
 30
0.0
 11
221.4
 21
363.33948257718447
 31
0.0
  0
LINE
  5
13E
330
17
100
AcDbEntity
  8
OUTLINE
100
AcDbLine
 10
221.4
 20
363.33948257718447
 30
0.0
 11
220.0
 21
363.25871178598453
 31
0.0
  0
LINE
  5
13F
330
17
100
AcDbEntity
  8
OUTLINE
100
AcDbLine
 10
220.0
 20
363.25871178598453
 30
0.0
 11
218.6
 21
363.1756366326128
 31
0.0
  0
LINE
  5
140
330
17
100
AcDbEntity
  8
OUTLINE
100
AcDbLine
 10
218.6
 20
363.1756366326128
 30
0.0
 11
217.2
 21
363.09022946867907
 31
0.0
  0
LINE
  5
141
330
17
100
AcDbEntity
  8
OUTLINE
100
AcDbLine
 10
217.2
 20
363.09022946867907
 30
0.0
 11
215.8
 21
363.0024621652717
 31
0.0
  0
LINE
  5
142
330
17
100
AcDbEntity
  8
OUTLINE
100
AcDbLine
 10
215.8
 20
363.0024621652717
 30
0.0
 11
214.4
 21
362.9123060860762
 31
0.0
  0
LINE
  5
143
330
17
100
AcDbEntity
  8
OUTLINE
100
AcDbLine
 10
214.4
 20
362.9123060860762
 30
0.0
 11
213.0
 21
362.81973205983195
 31
0.0
  0
LINE
  5
144
330
17
100
AcDbEntity
  8
OUTLINE
100
AcDbLine
 10
213.0
 20
362.81973205983195
 30
0.0
 11
211.6
 21
362.7247103520527
 31
0.0
  0
LINE
  5
145
330
17
100
AcDbEntity
  8
OUTLINE
100
AcDbLine
 10
211.6
 20
362.7247103520527
 30
0.0
 11
210.2
 21
362.6272106359356
 31
0.0
  0
LINE
  5
146
330
17
100
AcDbEntity
  8
OUTLINE
100
AcDbLine
 10
210.2
 20
362.6272106359356
 30
0.0
 11
208.8
 21
362.5272019623808
 31
0.0
  0
LINE
  5
147
330
17
100
AcDbEntity
  8
OUTLINE
100
AcDbLine
 10
208.8
 20
362.5272019623808
 30
0.0
 11
207.4
 21
362.4246527290394
 31
0.0
  0
LINE
  5
148
330
17
100
AcDbEntity
  8
OUTLINE
100
AcDbLine
 10
207.4
 20
362.4246527290394
 30
0.0
 11
206.0
 21
362.3195306483081
 31
0.0
  0
LINE
  5
149
330
17
100
AcDbEntity
  8
OUTLINE
100
AcDbLine
 10
206.0
 20
362.3195306483081
 30
0.0
 11
204.6
 21
362.21180271417927
 31
0.0
  0
LINE
  5
14A
330
17
100
AcDbEntity
  8
OUTLINE
100
AcDbLine
 10
204.6
 20
362.21180271417927
 30
0.0
 11
203.2
 21
362.10143516785644
 31
0.0
  0
LINE
  5
14B
330
17
100
AcDbEntity
  8
OUTLINE
100
AcDbLine
 10
203.2
 20
362.10143516785644
 30
0.0
 11
201.8
 21
361.98839346203687
 31
0.0
  0
LINE
  5
14C
330
17
100
AcDbEntity
  8
OUTLINE
100
AcDbLine
 10
201.8
 20
361.98839346203687
 30
0.0
 11
200.4
 21
361.87264222375853
 31
0.0
  0
LINE
  5
14D
330
17
100
AcDbEntity
  8
OUTLINE
100
AcDbLine
 10
200.4
 20
361.87264222375853
 30
0.0
 11
199.0
 21
361.75414521570343
 31
0.0
  0
LINE
  5
14E
330
17
100
AcDbEntity
  8
OUTLINE
100
AcDbLine
 10
199.0
 20
361.75414521570343
 30
0.0
 11
197.6
 21
361.6328652958414
 31
0.0
  0
LINE
  5
14F
330
17
100
AcDbEntity
  8
OUTLINE
100
AcDbLine
 10
197.6
 20
361.6328652958414
 30
0.0
 11
196.2
 21
361.5087643752917
 31
0.0
  0
LINE
  5
150
330
17
100
AcDbEntity
  8
OUTLINE
100
AcDbLine
 10
196.2
 20
361.5087643752917
 30
0.0
 11
194.8
 21
361.38180337427286
 31
0.0
  0
LINE
  5
151
330
17
100
AcDbEntity
  8
OUTLINE
100
AcDbLine
 10
194.8
 20
361.38180337427286
 30
0.0
 11
193.4
 21
361.2519421759991
 31
0.0
  0
LINE
  5
152
330
17
100
AcDbEntity
  8
OUTLINE
100
AcDbLine
 10
193.4
 20
361.2519421759991
 30
0.0
 11
192.0
 21
361.11913957837635
 31
0.0
  0
LINE
  5
153
330
17
100
AcDbEntity
  8
OUTLINE
100
AcDbLine
 10
192.0
 20
361.11913957837635
 30
0.0
 11
190.6
 21
360.9833532433357
 31
0.0
  0
LINE
  5
154
330
17
100
AcDbEntity
  8
OUTLINE
100
AcDbLine
 10
190.6
 20
360.9833532433357
 30
0.0
 11
189.2
 21
360.8445396436344
 31
0.0
  0
LINE
  5
155
330
17
100
AcDbEntity
  8
OUTLINE
100
AcDbLine
 10
189.2
 20
360.8445396436344
 30
0.0
 11
187.8
 21
360.70265400693734
 31
0.0
  0
LINE
  5
156
330
17
100
AcDbEntity
  8
OUTLINE
100
AcDbLine
 10
187.8
 20
360.70265400693734
 30
0.0
 11
186.4
 21
360.55765025698236
 31
0.0
  0
LINE
  5
157
330
17
100
AcDbEntity
  8
OUTLINE
100
AcDbLine
 10
186.4
 20
360.55765025698236
 30
0.0
 11
185.0
 21
360.40948095161286
 31
0.0
  0
LINE
  5
158
330
17
100
AcDbEntity
  8
OUTLINE
100
AcDbLine
 10
185.0
 20
360.40948095161286
 30
0.0
 11
183.6
 21
360.2580972174468
 31
0.0
  0
LINE
  5
159
330
17
100
AcDbEntity
  8
OUTLINE
100
AcDbLine
 10
183.6
 20
360.2580972174468
 30
0.0
 11
182.2
 21
360.1034486809305
 31
0.0
  0
LINE
  5
15A
330
17
100
AcDbEntity
  8
OUTLINE
100
AcDbLine
 10
182.2
 20
360.1034486809305
 30
0.0
 11
180.8
 21
359.94548339550704
 31
0.0
  0
LINE
  5
15B
330
17
100
AcDbEntity
  8
OUTLINE
100
AcDbLine
 10
180.8
 20
359.94548339550704
 30
0.0
 11
179.4
 21
359.78414776460227
 31
0.0
  0
LINE
  5
15C
330
17
100
AcDbEntity
  8
OUTLINE
100
AcDbLine
 10
179.4
 20
359.78414776460227
 30
0.0
 11
178.0
 21
359.6193864601112
 31
0.0
  0
LINE
  5
15D
330
17
100
AcDbEntity
  8
OUTLINE
100
AcDbLine
 10
178.0
 20
359.6193864601112
 30
0.0
 11
176.6
 21
359.45114233603385
 31
0.0
  0
LINE
  5
15E
330
17
100
AcDbEntity
  8
OUTLINE
100
AcDbLine
 10
176.6
 20
359.45114233603385
 30
0.0
 11
175.2
 21
359.27935633688486
 31
0.0
  0
LINE
  5
15F
330
17
100
AcDbEntity
  8
OUTLINE
100
AcDbLine
 10
175.2
 20
359.27935633688486
 30
0.0
 11
173.8
 21
359.1039674004603
 31
0.0
  0
LINE
  5
160
330
17
100
AcDbEntity
  8
OUTLINE
100
AcDbLine
 10
173.8
 20
359.1039674004603
 30
0.0
 11
172.4
 21
358.9249123545131
 31
0.0
  0
LINE
  5
161
330
17
100
AcDbEntity
  8
OUTLINE
100
AcDbLine
 10
172.4
 20
358.9249123545131
 30
0.0
 11
171.0
 21
358.7421258068429
 31
0.0
  0
LINE
  5
162
330
17
100
AcDbEntity
  8
OUTLINE
100
AcDbLine
 10
171.0
 20
358.7421258068429
 30
0.0
 11
169.6
 21
358.5555400282598
 31
0.0
  0
LINE
  5
163
330
17
100
AcDbEntity
  8
OUTLINE
100
AcDbLine
 10
169.6
 20
358.5555400282598
 30
0.0
 11
168.2
 21
358.36508482783097
 31
0.0
  0
LINE
  5
164
330
17
100
AcDbEntity
  8
OUTLINE
100
AcDbLine
 10
168.2
 20
358.36508482783097
 30
0.0
 11
166.8
 21
358.17068741975845
 31
0.0
  0
LINE
  5
165
330
17
100
AcDbEntity
  8
OUTLINE
100
AcDbLine
 10
166.8
 20
358.17068741975845
 30
0.0
 11
165.4
 21
357.97227228117555
 31
0.0
  0
LINE
  5
166
330
17
100
AcDbEntity
  8
OUTLINE
100
AcDbLine
 10
165.4
 20
357.97227228117555
 30
0.0
 11
164.0
 21
357.7697610000721
 31
0.0
  0
LINE
  5
167
330
17
100
AcDbEntity
  8
OUTLINE
100
AcDbLine
 10
164.0
 20
357.7697610000721
 30
0.0
 11
162.6
 21
357.5630721124825
 31
0.0
  0
LINE
  5
168
330
17
100
AcDbEntity
  8
OUTLINE
100
AcDbLine
 10
162.6
 20
357.5630721124825
 30
0.0
 11
161.2
 21
357.352120927976
 31
0.0
  0
LINE
  5
169
330
17
100
AcDbEntity
  8
OUTLINE
100
AcDbLine
 10
161.2
 20
357.352120927976
 30
0.0
 11
159.8
 21
357.13681934238986
 31
0.0
  0
LINE
  5
16A
330
17
100
AcDbEntity
  8
OUTLINE
100
AcDbLine
 10
159.8
 20
357.13681934238986
 30
0.0
 11
158.4
 21
356.9170756366281
 31
0.0
  0
LINE
  5
16B
330
17
100
AcDbEntity
  8
OUTLINE
100
AcDbLine
 10
158.4
 20
356.9170756366281
 30
0.0
 11
157.0
 21
356.6927942602218
 31
0.0
  0
LINE
  5
16C
330
17
100
AcDbEntity
  8
OUTLINE
100
AcDbLine
 10
157.0
 20
356.6927942602218
 30
0.0
 11
155.6
 21
356.46387559819925
 31
0.0
  0
LINE
  5
16D
330
17
100
AcDbEntity
  8
OUTLINE
100
AcDbLine
 10
155.6
 20
356.46387559819925
 30
0.0
 11
154.2
 21
356.23021571964995
 31
0.0
  0
LINE
  5
16E
330
17
100
AcDbEntity
  8
OUTLINE
100
AcDbLine
 10
154.2
 20
356.23021571964995
 30
0.0
 11
152.8
 21
355.9917061061772
 31
0.0
  0
LINE
  5
16F
330
17
100
AcDbEntity
  8
OUTLINE
100
AcDbLine
 10
152.8
 20
355.9917061061772
 30
0.0
 11
151.4
 21
355.74823335822305
 31
0.0
  0
LINE
  5
170
330
17
100
AcDbEntity
  8
OUTLINE
100
AcDbLine
 10
151.4
 20
355.74823335822305
 30
0.0
 11
150.0
 21
355.49967887700484
 31
0.0
  0
LINE
  5
171
330
17
100
AcDbEntity
  8
OUTLINE
100
AcDbLine
 10
150.0
 20
355.49967887700484
 30
0.0
 11
148.6
 21
355.2459185195262
 31
0.0
  0
LINE
  5
172
330
17
100
AcDbEntity
  8
OUTLINE
100
AcDbLine
 10
148.6
 20
355.2459185195262
 30
0.0
 11
147.2
 21
354.9868222238081
 31
0.0
  0
LINE
  5
173
330
17
100
AcDbEntity
  8
OUTLINE
100
AcDbLine
 10
147.2
 20
354.9868222238081
 30
0.0
 11
145.8
 21
354.7222536011212
 31
0.0
  0
LINE
  5
174
330
17
100
AcDbEntity
  8
OUTLINE
100
AcDbLine
 10
145.8
 20
354.7222536011212
 30
0.0
 11
144.4
 21
354.45206949158325
 31
0.0
  0
LINE
  5
175
330
17
100
AcDbEntity
  8
OUTLINE
100
AcDbLine
 10
144.4
 20
354.45206949158325
 30
0.0
 11
143.0
 21
354.1761194790009
 31
0.0
  0
LINE
  5
176
330
17
100
AcDbEntity
  8
OUTLINE
100
AcDbLine
 10
143.0
 20
354.1761194790009
 30
0.0
 11
141.6
 21
353.8942453602804
 31
0.0
  0
LINE
  5
177
330
17
100
AcDbEntity
  8
OUTLINE
100
AcDbLine
 10
141.6
 20
353.8942453602804
 30
0.0
 11
140.2
 21
353.606280564081
 31
0.0
  0
LINE
  5
178
330
17
100
AcDbEntity
  8
OUTLINE
100
AcDbLine
 10
140.2
 20
353.606280564081
 30
0.0
 11
138.8
 21
353.3120495126342
 31
0.0
  0
LINE
  5
179
330
17
100
AcDbEntity
  8
OUTLINE
100
AcDbLine
 10
138.8
 20
353.3120495126342
 30
0.0
 11
137.4
 21
353.01136691977547
 31
0.0
  0
LINE
  5
17A
330
17
100
AcDbEntity
  8
OUTLINE
100
AcDbLine
 10
137.4
 20
353.01136691977547
 30
0.0
 11
136.0
 21
352.70403701720335
 31
0.0
  0
LINE
  5
17B
330
17
100
AcDbEntity
  8
OUTLINE
100
AcDbLine
 10
136.0
 20
352.70403701720335
 30
0.0
 11
134.6
 21
352.38985269977786
 31
0.0
  0
LINE
  5
17C
330
17
100
AcDbEntity
  8
OUTLINE
100
AcDbLine
 10
134.6
 20
352.38985269977786
 30
0.0
 11
133.2
 21
352.06859457924605
 31
0.0
  0
LINE
  5
17D
330
17
100
AcDbEntity
  8
OUTLINE
100
AcDbLine
 10
133.2
 20
352.06859457924605
 30
0.0
 11
131.8
 21
351.74002993409977
 31
0.0
  0
LINE
  5
17E
330
17
100
AcDbEntity
  8
OUTLINE
100
AcDbLine
 10
131.8
 20
351.74002993409977
 30
0.0
 11
130.4
 21
351.4039115412736
 31
0.0
  0
LINE
  5
17F
330
17
100
AcDbEntity
  8
OUTLINE
100
AcDbLine
 10
130.4
 20
351.4039115412736
 30
0.0
 11
129.0
 21
351.05997637300896
 31
0.0
  0
LINE
  5
180
330
17
100
AcDbEntity
  8
OUTLINE
100
AcDbLine
 10
129.0
 20
351.05997637300896
 30
0.0
 11
127.6
 21
350.70794413935835
 31
0.0
  0
LINE
  5
181
330
17
100
AcDbEntity
  8
OUTLINE
100
AcDbLine
 10
127.6
 20
350.70794413935835
 30
0.0
 11
126.19999999999999
 21
350.3475156533751
 31
0.0
  0
LINE
  5
182
330
17
100
AcDbEntity
  8
OUTLINE
100
AcDbLine
 10
126.19999999999999
 20
350.3475156533751
 30
0.0
 11
124.80000000000001
 21
349.97837099189013
 31
0.0
  0
LINE
  5
183
330
17
100
AcDbEntity
  8
OUTLINE
100
AcDbLine
 10
124.80000000000001
 20
349.97837099189013
 30
0.0
 11
123.4
 21
349.60016741974766
 31
0.0
  0
LINE
  5
184
330
17
100
AcDbEntity
  8
OUTLINE
100
AcDbLine
 10
123.4
 20
349.60016741974766
 30
0.0
 11
122.0
 21
349.2125370392349
 31
0.0
  0
LINE
  5
185
330
17
100
AcDbEntity
  8
OUTLINE
100
AcDbLine
 10
122.0
 20
349.2125370392349
 30
0.0
 11
120.6
 21
348.8150841189062
 31
0.0
  0
LINE
  5
186
330
17
100
AcDbEntity
  8
OUTLINE
100
AcDbLine
 10
120.6
 20
348.8150841189062
 30
0.0
 11
119.19999999999999
 21
348.407382046712
 31
0.0
  0
LINE
  5
187
330
17
100
AcDbEntity
  8
OUTLINE
100
AcDbLine
 10
119.19999999999999
 20
348.407382046712
 30
0.0
 11
117.80000000000001
 21
347.98896984080153
 31
0.0
  0
LINE
  5
188
330
17
100
AcDbEntity
  8
OUTLINE
100
AcDbLine
 10
117.80000000000001
 20
347.98896984080153
 30
0.0
 11
116.4
 21
347.5593481369518
 31
0.0
  0
LINE
  5
189
330
17
100
AcDbEntity
  8
OUTLINE
100
AcDbLine
 10
116.4
 20
347.5593481369518
 30
0.0
 11
115.0
 21
347.1179745534362
 31
0.0
  0
LINE
  5
18A
330
17
100
AcDbEntity
  8
OUTLINE
100
AcDbLine
 10
115.0
 20
347.1179745534362
 30
0.0
 11
113.6
 21
346.66425831116
 31
0.0
  0
LINE
  5
18B
330
17
100
AcDbEntity
  8
OUTLINE
100
AcDbLine
 10
113.6
 20
346.66425831116
 30
0.0
 11
112.19999999999999
 21
346.1975539575354
 31
0.0
  0
LINE
  5
18C
330
17
100
AcDbEntity
  8
OUTLINE
100
AcDbLine
 10
112.19999999999999
 20
346.1975539575354
 30
0.0
 11
110.80000000000001
 21
345.71715400477103
 31
0.0
  0
LINE
  5
18D
330
17
100
AcDbEntity
  8
OUTLINE
100
AcDbLine
 10
110.80000000000001
 20
345.71715400477103
 30
0.0
 11
109.4
 21
345.2222802441477
 31
0.0
  0
LINE
  5
18E
330
17
100
AcDbEntity
  8
OUTLINE
100
AcDbLine
 10
109.4
 20
345.2222802441477
 30
0.0
 11
108.0
 21
344.71207343346
 31
0.0
  0
LINE
  5
18F
330
17
100
AcDbEntity
  8
OUTLINE
100
AcDbLine
 10
108.0
 20
344.71207343346
 30
0.0
 11
106.6
 21
344.18558096948897
 31
0.0
  0
LINE
  5
190
330
17
100
AcDbEntity
  8
OUTLINE
100
AcDbLine
 10
106.6
 20
344.18558096948897
 30
0.0
 11
105.19999999999999
 21
343.6417420430999
 31
0.0
  0
LINE
  5
191
330
17
100
AcDbEntity
  8
OUTLINE
100
AcDbLine
 10
105.19999999999999
 20
343.6417420430999
 30
0.0
 11
103.80000000000001
 21
343.07936961965424
 31
0.0
  0
LINE
  5
192
330
17
100
AcDbEntity
  8
OUTLINE
100
AcDbLine
 10
103.80000000000001
 20
343.07936961965424
 30
0.0
 11
102.4
 21
342.49712837473055
 31
0.0
  0
LINE
  5
193
330
17
100
AcDbEntity
  8
OUTLINE
100
AcDbLine
 10
102.4
 20
342.49712837473055
 30
0.0
 11
101.0
 21
341.89350741895214
 31
0.0
  0
LINE
  5
194
330
17
100
AcDbEntity
  8
OUTLINE
100
AcDbLine
 10
101.0
 20
341.89350741895214
 30
0.0
 11
99.6
 21
341.2667862268524
 31
0.0
  0
LINE
  5
195
330
17
100
AcDbEntity
  8
OUTLINE
100
AcDbLine
 10
99.6
 20
341.2667862268524
 30
0.0
 11
98.19999999999999
 21
340.61499158227554
 31
0.0
  0
LINE
  5
196
330
17
100
AcDbEntity
  8
OUTLINE
100
AcDbLine
 10
98.19999999999999
 20
340.61499158227554
 30
0.0
 11
96.80000000000001
 21
339.93584247003895
 31
0.0
  0
LINE
  5
197
330
17
100
AcDbEntity
  8
OUTLINE
100
AcDbLine
 10
96.80000000000001
 20
339.93584247003895
 30
0.0
 11
95.4
 21
339.2266785229685
 31
0.0
  0
LINE
  5
198
330
17
100
AcDbEntity
  8
OUTLINE
100
AcDbLine
 10
95.4
 20
339.2266785229685
 30
0.0
 11
94.0
 21
338.4843656115835
 31
0.0
  0
LINE
  5
199
330
17
100
AcDbEntity
  8
OUTLINE
100
AcDbLine
 10
94.0
 20
338.4843656115835
 30
0.0
 11
92.6
 21
337.70516898681933
 31
0.0
  0
LINE
  5
19A
330
17
100
AcDbEntity
  8
OUTLINE
100
AcDbLine
 10
92.6
 20
337.70516898681933
 30
0.0
 11
91.19999999999999
 21
336.8845792451975
 31
0.0
  0
LINE
  5
19B
330
17
100
AcDbEntity
  8
OUTLINE
100
AcDbLine
 10
91.19999999999999
 20
336.8845792451975
 30
0.0
 11
89.80000000000001
 21
336.01706778174247
 31
0.0
  0
LINE
  5
19C
330
17
100
AcDbEntity
  8
OUTLINE
100
AcDbLine
 10
89.80000000000001
 20
336.01706778174247
 30
0.0
 11
88.4
 21
335.0957334250716
 31
0.0
  0
LINE
  5
19D
330
17
100
AcDbEntity
  8
OUTLINE
100
AcDbLine
 10
88.4
 20
335.0957334250716
 30
0.0
 11
87.0
 21
334.1117746891611
 31
0.0
  0
LINE
  5
19E
330
17
100
AcDbEntity
  8
OUTLINE
100
AcDbLine
 10
87.0
 20
334.1117746891611
 30
0.0
 11
85.6
 21
333.0536696899761
 31
0.0
  0
LINE
  5
19F
330
17
100
AcDbEntity
  8
OUTLINE
100
AcDbLine
 10
85.6
 20
333.0536696899761
 30
0.0
 11
84.19999999999999
 21
331.9058383270191
 31
0.0
  0
LINE
  5
1A0
330
17
100
AcDbEntity
  8
OUTLINE
100
AcDbLine
 10
84.19999999999999
 20
331.9058383270191
 30
0.0
 11
82.80000000000001
 21
330.64632247064435
 31
0.0
  0
LINE
  5
1A1
330
17
100
AcDbEntity
  8
OUTLINE
100
AcDbLine
 10
82.80000000000001
 20
330.64632247064435
 30
0.0
 11
81.4
 21
329.2424315792708
 31
0.0
  0
LINE
  5
1A2
330
17
100
AcDbEntity
  8
OUTLINE
100
AcDbLine
 10
81.4
 20
329.2424315792708
 30
0.0
 11
80.0
 21
327.64164085378866
 31
0.0
  0
LINE
  5
1A3
330
17
100
AcDbEntity
  8
OUTLINE
100
AcDbLine
 10
290.0
 20
305.0
 30
0.0
 11
288.93467336683415
 21
305.0
 31
0.0
  0
LINE
  5
1A4
330
17
100
AcDbEntity
  8
OUTLINE
100
AcDbLine
 10
288.93467336683415
 20
305.0
 30
0.0
 11
287.86934673366835
 21
305.0
 31
0.0
  0
LINE
  5
1A5
330
17
100
AcDbEntity
  8
OUTLINE
100
AcDbLine
 10
287.86934673366835
 20
305.0
 30
0.0
 11
286.8040201005025
 21
305.0
 31
0.0
  0
LINE
  5
1A6
330
17
100
AcDbEntity
  8
OUTLINE
100
AcDbLine
 10
286.8040201005025
 20
305.0
 30
0.0
 11
285.7386934673367
 21
305.0
 31
0.0
  0
LINE
  5
1A7
330
17
100
AcDbEntity
  8
OUTLINE
100
AcDbLine
 10
285.7386934673367
 20
305.0
 30
0.0
 11
284.67336683417085
 21
305.0
 31
0.0
  0
LINE
  5
1A8
330
17
100
AcDbEntity
  8
OUTLINE
100
AcDbLine
 10
284.67336683417085
 20
305.0
 30
0.0
 11
283.608040201005
 21
305.0
 31
0.0
  0
LINE
  5
1A9
330
17
100
AcDbEntity
  8
OUTLINE
100
AcDbLine
 10
283.608040201005
 20
305.0
 30
0.0
 11
282.5427135678392
 21
305.0
 31
0.0
  0
LINE
  5
1AA
330
17
100
AcDbEntity
  8
OUTLINE
100
AcDbLine
 10
282.5427135678392
 20
305.0
 30
0.0
 11
281.47738693467335
 21
305.0
 31
0.0
  0
LINE
  5
1AB
330
17
100
AcDbEntity
  8
OUTLINE
100
AcDbLine
 10
281.47738693467335
 20
305.0
 30
0.0
 11
280.41206030150755
 21
305.0
 31
0.0
  0
LINE
  5
1AC
330
17
100
AcDbEntity
  8
OUTLINE
100
AcDbLine
 10
280.41206030150755
 20
305.0
 30
0.0
 11
279.3467336683417
 21
305.0
 31
0.0
  0
LINE
  5
1AD
330
17
100
AcDbEntity
  8
OUTLINE
100
AcDbLine
 10
279.3467336683417
 20
305.0
 30
0.0
 11
278.2814070351759
 21
305.0
 31
0.0
  0
LINE
  5
1AE
330
17
100
AcDbEntity
  8
OUTLINE
100
AcDbLine
 10
278.2814070351759
 20
305.0
 30
0.0
 11
277.21608040201005
 21
305.0
 31
0.0
  0
LINE
  5
1AF
330
17
100
AcDbEntity
  8
OUTLINE
100
AcDbLine
 10
277.21608040201005
 20
305.0
 30
0.0
 11
276.1507537688442
 21
305.0
 31
0.0
  0
LINE
  5
1B0
330
17
100
AcDbEntity
  8
OUTLINE
100
AcDbLine
 10
276.1507537688442
 20
305.0
 30
0.0
 11
275.0854271356784
 21
305.0
 31
0.0
  0
LINE
  5
1B1
330
17
100
AcDbEntity
  8
OUTLINE
100
AcDbLine
 10
275.0854271356784
 20
305.0
 30
0.0
 11
274.02010050251255
 21
305.0
 31
0.0
  0
LINE
  5
1B2
330
17
100
AcDbEntity
  8
OUTLINE
100
AcDbLine
 10
274.02010050251255
 20
305.0
 30
0.0
 11
272.95477386934675
 21
305.0
 31
0.0
  0
LINE
  5
1B3
330
17
100
AcDbEntity
  8
OUTLINE
100
AcDbLine
 10
272.95477386934675
 20
305.0
 30
0.0
 11
271.8894472361809
 21
305.0
 31
0.0
  0
LINE
  5
1B4
330
17
100
AcDbEntity
  8
OUTLINE
100
AcDbLine
 10
271.8894472361809
 20
305.0
 30
0.0
 11
270.8241206030151
 21
305.0
 31
0.0
  0
LINE
  5
1B5
330
17
100
AcDbEntity
  8
OUTLINE
100
AcDbLine
 10
270.8241206030151
 20
305.0
 30
0.0
 11
269.75879396984925
 21
305.0
 31
0.0
  0
LINE
  5
1B6
330
17
100
AcDbEntity
  8
OUTLINE
100
AcDbLine
 10
269.75879396984925
 20
305.0
 30
0.0
 11
268.6934673366834
 21
305.0
 31
0.0
  0
LINE
  5
1B7
330
17
100
AcDbEntity
  8
OUTLINE
100
AcDbLine
 10
268.6934673366834
 20
305.0
 30
0.0
 11
267.6281407035176
 21
305.0
 31
0.0
  0
LINE
  5
1B8
330
17
100
AcDbEntity
  8
OUTLINE
100
AcDbLine
 10
267.6281407035176
 20
305.0
 30
0.0
 11
266.56281407035175
 21
305.0
 31
0.0
  0
LINE
  5
1B9
330
17
100
AcDbEntity
  8
OUTLINE
100
AcDbLine
 10
266.56281407035175
 20
305.0
 30
0.0
 11
265.49748743718595
 21
305.0
 31
0.0
  0
LINE
  5
1BA
330
17
100
AcDbEntity
  8
OUTLINE
100
AcDbLine
 10
265.49748743718595
 20
305.0
 30
0.0
 11
264.4321608040201
 21
305.0
 31
0.0
  0
LINE
  5
1BB
330
17
100
AcDbEntity
  8
OUTLINE
100
AcDbLine
 10
264.4321608040201
 20
305.0
 30
0.0
 11
263.36683417085425
 21
305.0
 31
0.0
  0
LINE
  5
1BC
330
17
100
AcDbEntity
  8
OUTLINE
100
AcDbLine
 10
263.36683417085425
 20
305.0
 30
0.0
 11
262.30150753768845
 21
305.0
 31
0.0
  0
LINE
  5
1BD
330
17
100
AcDbEntity
  8
OUTLINE
100
AcDbLine
 10
262.30150753768845
 20
305.0
 30
0.0
 11
261.2361809045226
 21
305.0
 31
0.0
  0
LINE
  5
1BE
330
17
100
AcDbEntity
  8
OUTLINE
100
AcDbLine
 10
261.2361809045226
 20
305.0
 30
0.0
 11
260.1708542713568
 21
305.0
 31
0.0
  0
LINE
  5
1BF
330
17
100
AcDbEntity
  8
OUTLINE
100
AcDbLine
 10
260.1708542713568
 20
305.0
 30
0.0
 11
259.10552763819095
 21
305.0
 31
0.0
  0
LINE
  5
1C0
330
17
100
AcDbEntity
  8
OUTLINE
100
AcDbLine
 10
259.10552763819095
 20
305.0
 30
0.0
 11
258.0402010050251
 21
305.0
 31
0.0
  0
LINE
  5
1C1
330
17
100
AcDbEntity
  8
OUTLINE
100
AcDbLine
 10
258.0402010050251
 20
305.0
 30
0.0
 11
256.9748743718593
 21
305.0
 31
0.0
  0
LINE
  5
1C2
330
17
100
AcDbEntity
  8
OUTLINE
100
AcDbLine
 10
256.9748743718593
 20
305.0
 30
0.0
 11
255.90954773869348
 21
305.0
 31
0.0
  0
LINE
  5
1C3
330
17
100
AcDbEntity
  8
OUTLINE
100
AcDbLine
 10
255.90954773869348
 20
305.0
 30
0.0
 11
254.84422110552765
 21
305.0
 31
0.0
  0
LINE
  5
1C4
330
17
100
AcDbEntity
  8
OUTLINE
100
AcDbLine
 10
254.84422110552765
 20
305.0
 30
0.0
 11
253.7788944723618
 21
305.0
 31
0.0
  0
LINE
  5
1C5
330
17
100
AcDbEntity
  8
OUTLINE
100
AcDbLine
 10
253.7788944723618
 20
305.0
 30
0.0
 11
252.71356783919597
 21
305.0
 31
0.0
  0
LINE
  5
1C6
330
17
100
AcDbEntity
  8
OUTLINE
100
AcDbLine
 10
252.71356783919597
 20
305.0
 30
0.0
 11
251.64824120603015
 21
305.0
 31
0.0
  0
LINE
  5
1C7
330
17
100
AcDbEntity
  8
OUTLINE
100
AcDbLine
 10
251.64824120603015
 20
305.0
 30
0.0
 11
250.58291457286433
 21
305.0
 31
0.0
  0
LINE
  5
1C8
330
17
100
AcDbEntity
  8
OUTLINE
100
AcDbLine
 10
250.58291457286433
 20
305.0
 30
0.0
 11
249.5175879396985
 21
305.0
 31
0.0
  0
LINE
  5
1C9
330
17
100
AcDbEntity
  8
OUTLINE
100
AcDbLine
 10
249.5175879396985
 20
305.0
 30
0.0
 11
248.45226130653265
 21
305.0
 31
0.0
  0
LINE
  5
1CA
330
17
100
AcDbEntity
  8
OUTLINE
100
AcDbLine
 10
248.45226130653265
 20
305.0
 30
0.0
 11
247.38693467336682
 21
305.0
 31
0.0
  0
LINE
  5
1CB
330
17
100
AcDbEntity
  8
OUTLINE
100
AcDbLine
 10
247.38693467336682
 20
305.0
 30
0.0
 11
246.321608040201
 21
305.0
 31
0.0
  0
LINE
  5
1CC
330
17
100
AcDbEntity
  8
OUTLINE
100
AcDbLine
 10
246.321608040201
 20
305.0
 30
0.0
 11
245.25628140703517
 21
305.0
 31
0.0
  0
LINE
  5
1CD
330
17
100
AcDbEntity
  8
OUTLINE
100
AcDbLine
 10
245.25628140703517
 20
305.0
 30
0.0
 11
244.19095477386935
 21
305.0
 31
0.0
  0
LINE
  5
1CE
330
17
100
AcDbEntity
  8
OUTLINE
100
AcDbLine
 10
244.19095477386935
 20
305.0
 30
0.0
 11
243.12562814070353
 21
305.0
 31
0.0
  0
LINE
  5
1CF
330
17
100
AcDbEntity
  8
OUTLINE
100
AcDbLine
 10
243.12562814070353
 20
305.0
 30
0.0
 11
242.0603015075377
 21
305.0
 31
0.0
  0
LINE
  5
1D0
330
17
100
AcDbEntity
  8
OUTLINE
100
AcDbLine
 10
242.0603015075377
 20
305.0
 30
0.0
 11
240.99497487437185
 21
305.0
 31
0.0
  0
LINE
  5
1D1
330
17
100
AcDbEntity
  8
OUTLINE
100
AcDbLine
 10
240.99497487437185
 20
305.0
 30
0.0
 11
239.92964824120602
 21
305.0
 31
0.0
  0
LINE
  5
1D2
330
17
100
AcDbEntity
  8
OUTLINE
100
AcDbLine
 10
239.92964824120602
 20
305.0
 30
0.0
 11
238.8643216080402
 21
305.0
 31
0.0
  0
LINE
  5
1D3
330
17
100
AcDbEntity
  8
OUTLINE
100
AcDbLine
 10
238.8643216080402
 20
305.0
 30
0.0
 11
237.79899497487438
 21
305.0
 31
0.0
  0
LINE
  5
1D4
330
17
100
AcDbEntity
  8
OUTLINE
100
AcDbLine
 10
237.79899497487438
 20
305.0
 30
0.0
 11
236.73366834170855
 21
305.0
 31
0.0
  0
LINE
  5
1D5
330
17
100
AcDbEntity
  8
OUTLINE
100
AcDbLine
 10
236.73366834170855
 20
305.0
 30
0.0
 11
235.6683417085427
 21
305.0
 31
0.0
  0
LINE
  5
1D6
330
17
100
AcDbEntity
  8
OUTLINE
100
AcDbLine
 10
235.6683417085427
 20
305.0
 30
0.0
 11
234.6030150753769
 21
305.0
 31
0.0
  0
LINE
  5
1D7
330
17
100
AcDbEntity
  8
OUTLINE
100
AcDbLine
 10
234.6030150753769
 20
305.0
 30
0.0
 11
233.53768844221105
 21
305.0
 31
0.0
  0
LINE
  5
1D8
330
17
100
AcDbEntity
  8
OUTLINE
100
AcDbLine
 10
233.53768844221105
 20
305.0
 30
0.0
 11
232.47236180904522
 21
305.0
 31
0.0
  0
LINE
  5
1D9
330
17
100
AcDbEntity
  8
OUTLINE
100
AcDbLine
 10
232.47236180904522
 20
305.0
 30
0.0
 11
231.4070351758794
 21
305.0
 31
0.0
  0
LINE
  5
1DA
330
17
100
AcDbEntity
  8
OUTLINE
100
AcDbLine
 10
231.4070351758794
 20
305.0
 30
0.0
 11
230.34170854271358
 21
305.0
 31
0.0
  0
LINE
  5
1DB
330
17
100
AcDbEntity
  8
OUTLINE
100
AcDbLine
 10
230.34170854271358
 20
305.0
 30
0.0
 11
229.27638190954775
 21
305.0
 31
0.0
  0
LINE
  5
1DC
330
17
100
AcDbEntity
  8
OUTLINE
100
AcDbLine
 10
229.27638190954775
 20
305.0
 30
0.0
 11
228.2110552763819
 21
305.0
 31
0.0
  0
LINE
  5
1DD
330
17
100
AcDbEntity
  8
OUTLINE
100
AcDbLine
 10
228.2110552763819
 20
305.0
 30
0.0
 11
227.14572864321607
 21
305.0
 31
0.0
  0
LINE
  5
1DE
330
17
100
AcDbEntity
  8
OUTLINE
100
AcDbLine
 10
227.14572864321607
 20
305.0
 30
0.0
 11
226.08040201005025
 21
305.0
 31
0.0
  0
LINE
  5
1DF
330
17
100
AcDbEntity
  8
OUTLINE
100
AcDbLine
 10
226.08040201005025
 20
305.0
 30
0.0
 11
225.01507537688443
 21
305.0
 31
0.0
  0
LINE
  5
1E0
330
17
100
AcDbEntity
  8
OUTLINE
100
AcDbLine
 10
225.01507537688443
 20
305.0
 30
0.0
 11
223.9497487437186
 21
305.0
 31
0.0
  0
LINE
  5
1E1
330
17
100
AcDbEntity
  8
OUTLINE
100
AcDbLine
 10
223.9497487437186
 20
305.0
 30
0.0
 11
222.88442211055275
 21
305.0
 31
0.0
  0
LINE
  5
1E2
330
17
100
AcDbEntity
  8
OUTLINE
100
AcDbLine
 10
222.88442211055275
 20
305.0
 30
0.0
 11
221.81909547738695
 21
305.0
 31
0.0
  0
LINE
  5
1E3
330
17
100
AcDbEntity
  8
OUTLINE
100
AcDbLine
 10
221.81909547738695
 20
305.0
 30
0.0
 11
220.7537688442211
 21
305.0
 31
0.0
  0
LINE
  5
1E4
330
17
100
AcDbEntity
  8
OUTLINE
100
AcDbLine
 10
220.7537688442211
 20
305.0
 30
0.0
 11
219.68844221105527
 21
305.0
 31
0.0
  0
LINE
  5
1E5
330
17
100
AcDbEntity
  8
OUTLINE
100
AcDbLine
 10
219.68844221105527
 20
305.0
 30
0.0
 11
218.62311557788945
 21
305.0
 31
0.0
  0
LINE
  5
1E6
330
17
100
AcDbEntity
  8
OUTLINE
100
AcDbLine
 10
218.62311557788945
 20
305.0
 30
0.0
 11
217.5577889447236
 21
305.0
 31
0.0
  0
LINE
  5
1E7
330
17
100
AcDbEntity
  8
OUTLINE
100
AcDbLine
 10
217.5577889447236
 20
305.0
 30
0.0
 11
216.4924623115578
 21
305.0
 31
0.0
  0
LINE
  5
1E8
330
17
100
AcDbEntity
  8
OUTLINE
100
AcDbLine
 10
216.4924623115578
 20
305.0
 30
0.0
 11
215.42713567839195
 21
305.0
 31
0.0
  0
LINE
  5
1E9
330
17
100
AcDbEntity
  8
OUTLINE
100
AcDbLine
 10
215.42713567839195
 20
305.0
 30
0.0
 11
214.36180904522612
 21
305.0
 31
0.0
  0
LINE
  5
1EA
330
17
100
AcDbEntity
  8
OUTLINE
100
AcDbLine
 10
214.36180904522612
 20
305.0
 30
0.0
 11
213.2964824120603
 21
305.0
 31
0.0
  0
LINE
  5
1EB
330
17
100
AcDbEntity
  8
OUTLINE
100
AcDbLine
 10
213.2964824120603
 20
305.0
 30
0.0
 11
212.23115577889448
 21
305.0
 31
0.0
  0
LINE
  5
1EC
330
17
100
AcDbEntity
  8
OUTLINE
100
AcDbLine
 10
212.23115577889448
 20
305.0
 30
0.0
 11
211.16582914572865
 21
305.0
 31
0.0
  0
LINE
  5
1ED
330
17
100
AcDbEntity
  8
OUTLINE
100
AcDbLine
 10
211.16582914572865
 20
305.0
 30
0.0
 11
210.1005025125628
 21
305.0
 31
0.0
  0
LINE
  5
1EE
330
17
100
AcDbEntity
  8
OUTLINE
100
AcDbLine
 10
210.1005025125628
 20
305.0
 30
0.0
 11
209.035175879397
 21
305.0
 31
0.0
  0
LINE
  5
1EF
330
17
100
AcDbEntity
  8
OUTLINE
100
AcDbLine
 10
209.035175879397
 20
305.0
 30
0.0
 11
207.96984924623115
 21
305.0
 31
0.0
  0
LINE
  5
1F0
330
17
100
AcDbEntity
  8
OUTLINE
100
AcDbLine
 10
207.96984924623115
 20
305.0
 30
0.0
 11
206.90452261306532
 21
305.0
 31
0.0
  0
LINE
  5
1F1
330
17
100
AcDbEntity
  8
OUTLINE
100
AcDbLine
 10
206.90452261306532
 20
305.0
 30
0.0
 11
205.8391959798995
 21
305.0
 31
0.0
  0
LINE
  5
1F2
330
17
100
AcDbEntity
  8
OUTLINE
100
AcDbLine
 10
205.8391959798995
 20
305.0
 30
0.0
 11
204.77386934673365
 21
305.0
 31
0.0
  0
LINE
  5
1F3
330
17
100
AcDbEntity
  8
OUTLINE
100
AcDbLine
 10
204.77386934673365
 20
305.0
 30
0.0
 11
203.70854271356785
 21
305.0
 31
0.0
  0
LINE
  5
1F4
330
17
100
AcDbEntity
  8
OUTLINE
100
AcDbLine
 10
203.70854271356785
 20
305.0
 30
0.0
 11
202.643216080402
 21
305.0
 31
0.0
  0
LINE
  5
1F5
330
17
100
AcDbEntity
  8
OUTLINE
100
AcDbLine
 10
202.643216080402
 20
305.0
 30
0.0
 11
201.57788944723617
 21
305.0
 31
0.0
  0
LINE
  5
1F6
330
17
100
AcDbEntity
  8
OUTLINE
100
AcDbLine
 10
201.57788944723617
 20
305.0
 30
0.0
 11
200.51256281407035
 21
305.0
 31
0.0
  0
LINE
  5
1F7
330
17
100
AcDbEntity
  8
OUTLINE
100
AcDbLine
 10
200.51256281407035
 20
305.0
 30
0.0
 11
199.44723618090453
 21
305.0
 31
0.0
  0
LINE
  5
1F8
330
17
100
AcDbEntity
  8
OUTLINE
100
AcDbLine
 10
199.44723618090453
 20
305.0
 30
0.0
 11
198.3819095477387
 21
305.0
 31
0.0
  0
LINE
  5
1F9
330
17
100
AcDbEntity
  8
OUTLINE
100
AcDbLine
 10
198.3819095477387
 20
305.0
 30
0.0
 11
197.31658291457285
 21
305.0
 31
0.0
  0
LINE
  5
1FA
330
17
100
AcDbEntity
  8
OUTLINE
100
AcDbLine
 10
197.31658291457285
 20
305.0
 30
0.0
 11
196.25125628140705
 21
305.0
 31
0.0
  0
LINE
  5
1FB
330
17
100
AcDbEntity
  8
OUTLINE
100
AcDbLine
 10
196.25125628140705
 20
305.0
 30
0.0
 11
195.1859296482412
 21
305.0
 31
0.0
  0
LINE
  5
1FC
330
17
100
AcDbEntity
  8
OUTLINE
100
AcDbLine
 10
195.1859296482412
 20
305.0
 30
0.0
 11
194.12060301507537
 21
305.0
 31
0.0
  0
LINE
  5
1FD
330
17
100
AcDbEntity
  8
OUTLINE
100
AcDbLine
 10
194.12060301507537
 20
305.0
 30
0.0
 11
193.05527638190955
 21
305.0
 31
0.0
  0
LINE
  5
1FE
330
17
100
AcDbEntity
  8
OUTLINE
100
AcDbLine
 10
193.05527638190955
 20
305.0
 30
0.0
 11
191.9899497487437
 21
305.0
 31
0.0
  0
LINE
  5
1FF
330
17
100
AcDbEntity
  8
OUTLINE
100
AcDbLine
 10
191.9899497487437
 20
305.0
 30
0.0
 11
190.9246231155779
 21
305.0
 31
0.0
  0
LINE
  5
200
330
17
100
AcDbEntity
  8
OUTLINE
100
AcDbLine
 10
190.9246231155779
 20
305.0
 30
0.0
 11
189.85929648241205
 21
305.0
 31
0.0
  0
LINE
  5
201
330
17
100
AcDbEntity
  8
OUTLINE
100
AcDbLine
 10
189.85929648241205
 20
305.0
 30
0.0
 11
188.79396984924622
 21
305.0
 31
0.0
  0
LINE
  5
202
330
17
100
AcDbEntity
  8
OUTLINE
100
AcDbLine
 10
188.79396984924622
 20
305.0
 30
0.0
 11
187.7286432160804
 21
305.0
 31
0.0
  0
LINE
  5
203
330
17
100
AcDbEntity
  8
OUTLINE
100
AcDbLine
 10
187.7286432160804
 20
305.0
 30
0.0
 11
186.66331658291458
 21
305.0
 31
0.0
  0
LINE
  5
204
330
17
100
AcDbEntity
  8
OUTLINE
100
AcDbLine
 10
186.66331658291458
 20
305.0
 30
0.0
 11
185.59798994974875
 21
305.0
 31
0.0
  0
LINE
  5
205
330
17
100
AcDbEntity
  8
OUTLINE
100
AcDbLine
 10
185.59798994974875
 20
305.0
 30
0.0
 11
184.5326633165829
 21
305.0
 31
0.0
  0
LINE
  5
206
330
17
100
AcDbEntity
  8
OUTLINE
100
AcDbLine
 10
184.5326633165829
 20
305.0
 30
0.0
 11
183.4673366834171
 21
305.0
 31
0.0
  0
LINE
  5
207
330
17
100
AcDbEntity
  8
OUTLINE
100
AcDbLine
 10
183.4673366834171
 20
305.0
 30
0.0
 11
182.40201005025125
 21
305.0
 31
0.0
  0
LINE
  5
208
330
17
100
AcDbEntity
  8
OUTLINE
100
AcDbLine
 10
182.40201005025125
 20
305.0
 30
0.0
 11
181.33668341708542
 21
305.0
 31
0.0
  0
LINE
  5
209
330
17
100
AcDbEntity
  8
OUTLINE
100
AcDbLine
 10
181.33668341708542
 20
305.0
 30
0.0
 11
180.2713567839196
 21
305.0
 31
0.0
  0
LINE
  5
20A
330
17
100
AcDbEntity
  8
OUTLINE
100
AcDbLine
 10
180.2713567839196
 20
305.0
 30
0.0
 11
179.20603015075378
 21
305.0
 31
0.0
  0
LINE
  5
20B
330
17
100
AcDbEntity
  8
OUTLINE
100
AcDbLine
 10
179.20603015075378
 20
305.0
 30
0.0
 11
178.14070351758795
 21
305.0
 31
0.0
  0
LINE
  5
20C
330
17
100
AcDbEntity
  8
OUTLINE
100
AcDbLine
 10
178.14070351758795
 20
305.0
 30
0.0
 11
177.0753768844221
 21
305.0
 31
0.0
  0
LINE
  5
20D
330
17
100
AcDbEntity
  8
OUTLINE
100
AcDbLine
 10
177.0753768844221
 20
305.0
 30
0.0
 11
176.0100502512563
 21
305.0
 31
0.0
  0
LINE
  5
20E
330
17
100
AcDbEntity
  8
OUTLINE
100
AcDbLine
 10
176.0100502512563
 20
305.0
 30
0.0
 11
174.94472361809045
 21
305.0
 31
0.0
  0
LINE
  5
20F
330
17
100
AcDbEntity
  8
OUTLINE
100
AcDbLine
 10
174.94472361809045
 20
305.0
 30
0.0
 11
173.87939698492463
 21
305.0
 31
0.0
  0
LINE
  5
210
330
17
100
AcDbEntity
  8
OUTLINE
100
AcDbLine
 10
173.87939698492463
 20
305.0
 30
0.0
 11
172.8140703517588
 21
305.0
 31
0.0
  0
LINE
  5
211
330
17
100
AcDbEntity
  8
OUTLINE
100
AcDbLine
 10
172.8140703517588
 20
305.0
 30
0.0
 11
171.74874371859295
 21
305.0
 31
0.0
  0
LINE
  5
212
330
17
100
AcDbEntity
  8
OUTLINE
100
AcDbLine
 10
171.74874371859295
 20
305.0
 30
0.0
 11
170.68341708542715
 21
305.0
 31
0.0
  0
LINE
  5
213
330
17
100
AcDbEntity
  8
OUTLINE
100
AcDbLine
 10
170.68341708542715
 20
305.0
 30
0.0
 11
169.6180904522613
 21
305.0
 31
0.0
  0
LINE
  5
214
330
17
100
AcDbEntity
  8
OUTLINE
100
AcDbLine
 10
169.6180904522613
 20
305.0
 30
0.0
 11
168.55276381909547
 21
305.0
 31
0.0
  0
LINE
  5
215
330
17
100
AcDbEntity
  8
OUTLINE
100
AcDbLine
 10
168.55276381909547
 20
305.0
 30
0.0
 11
167.48743718592965
 21
305.0
 31
0.0
  0
LINE
  5
216
330
17
100
AcDbEntity
  8
OUTLINE
100
AcDbLine
 10
167.48743718592965
 20
305.0
 30
0.0
 11
166.42211055276383
 21
305.0
 31
0.0
  0
LINE
  5
217
330
17
100
AcDbEntity
  8
OUTLINE
100
AcDbLine
 10
166.42211055276383
 20
305.0
 30
0.0
 11
165.356783919598
 21
305.0
 31
0.0
  0
LINE
  5
218
330
17
100
AcDbEntity
  8
OUTLINE
100
AcDbLine
 10
165.356783919598
 20
305.0
 30
0.0
 11
164.29145728643215
 21
305.0
 31
0.0
  0
LINE
  5
219
330
17
100
AcDbEntity
  8
OUTLINE
100
AcDbLine
 10
164.29145728643215
 20
305.0
 30
0.0
 11
163.22613065326635
 21
305.0
 31
0.0
  0
LINE
  5
21A
330
17
100
AcDbEntity
  8
OUTLINE
100
AcDbLine
 10
163.22613065326635
 20
305.0
 30
0.0
 11
162.1608040201005
 21
305.0
 31
0.0
  0
LINE
  5
21B
330
17
100
AcDbEntity
  8
OUTLINE
100
AcDbLine
 10
162.1608040201005
 20
305.0
 30
0.0
 11
161.09547738693468
 21
305.0
 31
0.0
  0
LINE
  5
21C
330
17
100
AcDbEntity
  8
OUTLINE
100
AcDbLine
 10
161.09547738693468
 20
305.0
 30
0.0
 11
160.03015075376885
 21
305.0
 31
0.0
  0
LINE
  5
21D
330
17
100
AcDbEntity
  8
OUTLINE
100
AcDbLine
 10
160.03015075376885
 20
305.0
 30
0.0
 11
158.96482412060303
 21
305.0
 31
0.0
  0
LINE
  5
21E
330
17
100
AcDbEntity
  8
OUTLINE
100
AcDbLine
 10
158.96482412060303
 20
305.0
 30
0.0
 11
157.89949748743717
 21
305.0
 31
0.0
  0
LINE
  5
21F
330
17
100
AcDbEntity
  8
OUTLINE
100
AcDbLine
 10
157.89949748743717
 20
305.0
 30
0.0
 11
156.83417085427135
 21
305.0
 31
0.0
  0
LINE
  5
220
330
17
100
AcDbEntity
  8
OUTLINE
100
AcDbLine
 10
156.83417085427135
 20
305.0
 30
0.0
 11
155.76884422110552
 21
305.0
 31
0.0
  0
LINE
  5
221
330
17
100
AcDbEntity
  8
OUTLINE
100
AcDbLine
 10
155.76884422110552
 20
305.0
 30
0.0
 11
154.7035175879397
 21
305.0
 31
0.0
  0
LINE
  5
222
330
17
100
AcDbEntity
  8
OUTLINE
100
AcDbLine
 10
154.7035175879397
 20
305.0
 30
0.0
 11
153.63819095477388
 21
305.0
 31
0.0
  0
LINE
  5
223
330
17
100
AcDbEntity
  8
OUTLINE
100
AcDbLine
 10
153.63819095477388
 20
305.0
 30
0.0
 11
152.57286432160805
 21
305.0
 31
0.0
  0
LINE
  5
224
330
17
100
AcDbEntity
  8
OUTLINE
100
AcDbLine
 10
152.57286432160805
 20
305.0
 30
0.0
 11
151.5075376884422
 21
305.0
 31
0.0
  0
LINE
  5
225
330
17
100
AcDbEntity
  8
OUTLINE
100
AcDbLine
 10
151.5075376884422
 20
305.0
 30
0.0
 11
150.44221105527637
 21
305.0
 31
0.0
  0
LINE
  5
226
330
17
100
AcDbEntity
  8
OUTLINE
100
AcDbLine
 10
150.44221105527637
 20
305.0
 30
0.0
 11
149.37688442211055
 21
305.0
 31
0.0
  0
LINE
  5
227
330
17
100
AcDbEntity
  8
OUTLINE
100
AcDbLine
 10
149.37688442211055
 20
305.0
 30
0.0
 11
148.31155778894473
 21
305.0
 31
0.0
  0
LINE
  5
228
330
17
100
AcDbEntity
  8
OUTLINE
100
AcDbLine
 10
148.31155778894473
 20
305.0
 30
0.0
 11
147.2462311557789
 21
305.0
 31
0.0
  0
LINE
  5
229
330
17
100
AcDbEntity
  8
OUTLINE
100
AcDbLine
 10
147.2462311557789
 20
305.0
 30
0.0
 11
146.18090452261308
 21
305.0
 31
0.0
  0
LINE
  5
22A
330
17
100
AcDbEntity
  8
OUTLINE
100
AcDbLine
 10
146.18090452261308
 20
305.0
 30
0.0
 11
145.11557788944722
 21
305.0
 31
0.0
  0
LINE
  5
22B
330
17
100
AcDbEntity
  8
OUTLINE
100
AcDbLine
 10
145.11557788944722
 20
305.0
 30
0.0
 11
144.0502512562814
 21
305.0
 31
0.0
  0
LINE
  5
22C
330
17
100
AcDbEntity
  8
OUTLINE
100
AcDbLine
 10
144.0502512562814
 20
305.0
 30
0.0
 11
142.98492462311557
 21
305.0
 31
0.0
  0
LINE
  5
22D
330
17
100
AcDbEntity
  8
OUTLINE
100
AcDbLine
 10
142.98492462311557
 20
305.0
 30
0.0
 11
141.91959798994975
 21
305.0
 31
0.0
  0
LINE
  5
22E
330
17
100
AcDbEntity
  8
OUTLINE
100
AcDbLine
 10
141.91959798994975
 20
305.0
 30
0.0
 11
140.85427135678393
 21
305.0
 31
0.0
  0
LINE
  5
22F
330
17
100
AcDbEntity
  8
OUTLINE
100
AcDbLine
 10
140.85427135678393
 20
305.0
 30
0.0
 11
139.7889447236181
 21
305.0
 31
0.0
  0
LINE
  5
230
330
17
100
AcDbEntity
  8
OUTLINE
100
AcDbLine
 10
139.7889447236181
 20
305.0
 30
0.0
 11
138.72361809045225
 21
305.0
 31
0.0
  0
LINE
  5
231
330
17
100
AcDbEntity
  8
OUTLINE
100
AcDbLine
 10
138.72361809045225
 20
305.0
 30
0.0
 11
137.65829145728642
 21
305.0
 31
0.0
  0
LINE
  5
232
330
17
100
AcDbEntity
  8
OUTLINE
100
AcDbLine
 10
137.65829145728642
 20
305.0
 30
0.0
 11
136.5929648241206
 21
305.0
 31
0.0
  0
LINE
  5
233
330
17
100
AcDbEntity
  8
OUTLINE
100
AcDbLine
 10
136.5929648241206
 20
305.0
 30
0.0
 11
135.52763819095478
 21
305.0
 31
0.0
  0
LINE
  5
234
330
17
100
AcDbEntity
  8
OUTLINE
100
AcDbLine
 10
135.52763819095478
 20
305.0
 30
0.0
 11
134.46231155778895
 21
305.0
 31
0.0
  0
LINE
  5
235
330
17
100
AcDbEntity
  8
OUTLINE
100
AcDbLine
 10
134.46231155778895
 20
305.0
 30
0.0
 11
133.39698492462313
 21
305.0
 31
0.0
  0
LINE
  5
236
330
17
100
AcDbEntity
  8
OUTLINE
100
AcDbLine
 10
133.39698492462313
 20
305.0
 30
0.0
 11
132.33165829145727
 21
305.0
 31
0.0
  0
LINE
  5
237
330
17
100
AcDbEntity
  8
OUTLINE
100
AcDbLine
 10
132.33165829145727
 20
305.0
 30
0.0
 11
131.26633165829145
 21
305.0
 31
0.0
  0
LINE
  5
238
330
17
100
AcDbEntity
  8
OUTLINE
100
AcDbLine
 10
131.26633165829145
 20
305.0
 30
0.0
 11
130.20100502512562
 21
305.0
 31
0.0
  0
LINE
  5
239
330
17
100
AcDbEntity
  8
OUTLINE
100
AcDbLine
 10
130.20100502512562
 20
305.0
 30
0.0
 11
129.1356783919598
 21
305.0
 31
0.0
  0
LINE
  5
23A
330
17
100
AcDbEntity
  8
OUTLINE
100
AcDbLine
 10
129.1356783919598
 20
305.0
 30
0.0
 11
128.07035175879398
 21
305.0
 31
0.0
  0
LINE
  5
23B
330
17
100
AcDbEntity
  8
OUTLINE
100
AcDbLine
 10
128.07035175879398
 20
305.0
 30
0.0
 11
127.00502512562815
 21
305.0
 31
0.0
  0
LINE
  5
23C
330
17
100
AcDbEntity
  8
OUTLINE
100
AcDbLine
 10
127.00502512562815
 20
305.0
 30
0.0
 11
125.9396984924623
 21
305.0
 31
0.0
  0
LINE
  5
23D
330
17
100
AcDbEntity
  8
OUTLINE
100
AcDbLine
 10
125.9396984924623
 20
305.0
 30
0.0
 11
124.87437185929647
 21
305.0
 31
0.0
  0
LINE
  5
23E
330
17
100
AcDbEntity
  8
OUTLINE
100
AcDbLine
 10
124.87437185929647
 20
305.0
 30
0.0
 11
123.80904522613065
 21
305.0
 31
0.0
  0
LINE
  5
23F
330
17
100
AcDbEntity
  8
OUTLINE
100
AcDbLine
 10
123.80904522613065
 20
305.0
 30
0.0
 11
122.74371859296483
 21
305.0
 31
0.0
  0
LINE
  5
240
330
17
100
AcDbEntity
  8
OUTLINE
100
AcDbLine
 10
122.74371859296483
 20
305.0
 30
0.0
 11
121.678391959799
 21
305.0
 31
0.0
  0
LINE
  5
241
330
17
100
AcDbEntity
  8
OUTLINE
100
AcDbLine
 10
121.678391959799
 20
305.0
 30
0.0
 11
120.61306532663318
 21
305.0
 31
0.0
  0
LINE
  5
242
330
17
100
AcDbEntity
  8
OUTLINE
100
AcDbLine
 10
120.61306532663318
 20
305.0
 30
0.0
 11
119.54773869346732
 21
305.0
 31
0.0
  0
LINE
  5
243
330
17
100
AcDbEntity
  8
OUTLINE
100
AcDbLine
 10
119.54773869346732
 20
305.0
 30
0.0
 11
118.4824120603015
 21
305.0
 31
0.0
  0
LINE
  5
244
330
17
100
AcDbEntity
  8
OUTLINE
100
AcDbLine
 10
118.4824120603015
 20
305.0
 30
0.0
 11
117.41708542713567
 21
305.0
 31
0.0
  0
LINE
  5
245
330
17
100
AcDbEntity
  8
OUTLINE
100
AcDbLine
 10
117.41708542713567
 20
305.0
 30
0.0
 11
116.35175879396985
 21
305.0
 31
0.0
  0
LINE
  5
246
330
17
100
AcDbEntity
  8
OUTLINE
100
AcDbLine
 10
116.35175879396985
 20
305.0
 30
0.0
 11
115.28643216080403
 21
305.0
 31
0.0
  0
LINE
  5
247
330
17
100
AcDbEntity
  8
OUTLINE
100
AcDbLine
 10
115.28643216080403
 20
305.0
 30
0.0
 11
114.2211055276382
 21
305.0
 31
0.0
  0
LINE
  5
248
330
17
100
AcDbEntity
  8
OUTLINE
100
AcDbLine
 10
114.2211055276382
 20
305.0
 30
0.0
 11
113.15577889447235
 21
305.0
 31
0.0
  0
LINE
  5
249
330
17
100
AcDbEntity
  8
OUTLINE
100
AcDbLine
 10
113.15577889447235
 20
305.0
 30
0.0
 11
112.09045226130652
 21
305.0
 31
0.0
  0
LINE
  5
24A
330
17
100
AcDbEntity
  8
OUTLINE
100
AcDbLine
 10
112.09045226130652
 20
305.0
 30
0.0
 11
111.0251256281407
 21
305.0
 31
0.0
  0
LINE
  5
24B
330
17
100
AcDbEntity
  8
OUTLINE
100
AcDbLine
 10
111.0251256281407
 20
305.0
 30
0.0
 11
109.95979899497488
 21
305.0
 31
0.0
  0
LINE
  5
24C
330
17
100
AcDbEntity
  8
OUTLINE
100
AcDbLine
 10
109.95979899497488
 20
305.0
 30
0.0
 11
108.89447236180905
 21
305.0
 31
0.0
  0
LINE
  5
24D
330
17
100
AcDbEntity
  8
OUTLINE
100
AcDbLine
 10
108.89447236180905
 20
305.0
 30
0.0
 11
107.82914572864323
 21
305.0
 31
0.0
  0
LINE
  5
24E
330
17
100
AcDbEntity
  8
OUTLINE
100
AcDbLine
 10
107.82914572864323
 20
305.0
 30
0.0
 11
106.76381909547737
 21
305.0
 31
0.0
  0
LINE
  5
24F
330
17
100
AcDbEntity
  8
OUTLINE
100
AcDbLine
 10
106.76381909547737
 20
305.0
 30
0.0
 11
105.69849246231155
 21
305.0
 31
0.0
  0
LINE
  5
250
330
17
100
AcDbEntity
  8
OUTLINE
100
AcDbLine
 10
105.69849246231155
 20
305.0
 30
0.0
 11
104.63316582914572
 21
305.0
 31
0.0
  0
LINE
  5
251
330
17
100
AcDbEntity
  8
OUTLINE
100
AcDbLine
 10
104.63316582914572
 20
305.0
 30
0.0
 11
103.5678391959799
 21
305.0
 31
0.0
  0
LINE
  5
252
330
17
100
AcDbEntity
  8
OUTLINE
100
AcDbLine
 10
103.5678391959799
 20
305.0
 30
0.0
 11
102.50251256281408
 21
305.0
 31
0.0
  0
LINE
  5
253
330
17
100
AcDbEntity
  8
OUTLINE
100
AcDbLine
 10
102.50251256281408
 20
305.0
 30
0.0
 11
101.43718592964825
 21
305.0
 31
0.0
  0
LINE
  5
254
330
17
100
AcDbEntity
  8
OUTLINE
100
AcDbLine
 10
101.43718592964825
 20
305.0
 30
0.0
 11
100.3718592964824
 21
305.0
 31
0.0
  0
LINE
  5
255
330
17
100
AcDbEntity
  8
OUTLINE
100
AcDbLine
 10
100.3718592964824
 20
305.0
 30
0.0
 11
99.30653266331657
 21
305.0
 31
0.0
  0
LINE
  5
256
330
17
100
AcDbEntity
  8
OUTLINE
100
AcDbLine
 10
99.30653266331657
 20
305.0
 30
0.0
 11
98.24120603015075
 21
305.0
 31
0.0
  0
LINE
  5
257
330
17
100
AcDbEntity
  8
OUTLINE
100
AcDbLine
 10
98.24120603015075
 20
305.0
 30
0.0
 11
97.17587939698493
 21
305.0
 31
0.0
  0
LINE
  5
258
330
17
100
AcDbEntity
  8
OUTLINE
100
AcDbLine
 10
97.17587939698493
 20
305.0
 30
0.0
 11
96.1105527638191
 21
305.0
 31
0.0
  0
LINE
  5
259
330
17
100
AcDbEntity
  8
OUTLINE
100
AcDbLine
 10
96.1105527638191
 20
305.0
 30
0.0
 11
95.04522613065328
 21
305.0
 31
0.0
  0
LINE
  5
25A
330
17
100
AcDbEntity
  8
OUTLINE
100
AcDbLine
 10
95.04522613065328
 20
305.0
 30
0.0
 11
93.97989949748742
 21
305.0
 31
0.0
  0
LINE
  5
25B
330
17
100
AcDbEntity
  8
OUTLINE
100
AcDbLine
 10
93.97989949748742
 20
305.0
 30
0.0
 11
92.9145728643216
 21
305.0
 31
0.0
  0
LINE
  5
25C
330
17
100
AcDbEntity
  8
OUTLINE
100
AcDbLine
 10
92.9145728643216
 20
305.0
 30
0.0
 11
91.84924623115577
 21
305.0
 31
0.0
  0
LINE
  5
25D
330
17
100
AcDbEntity
  8
OUTLINE
100
AcDbLine
 10
91.84924623115577
 20
305.0
 30
0.0
 11
90.78391959798995
 21
305.0
 31
0.0
  0
LINE
  5
25E
330
17
100
AcDbEntity
  8
OUTLINE
100
AcDbLine
 10
90.78391959798995
 20
305.0
 30
0.0
 11
89.71859296482413
 21
305.0
 31
0.0
  0
LINE
  5
25F
330
17
100
AcDbEntity
  8
OUTLINE
100
AcDbLine
 10
89.71859296482413
 20
305.0
 30
0.0
 11
88.6532663316583
 21
305.0
 31
0.0
  0
LINE
  5
260
330
17
100
AcDbEntity
  8
OUTLINE
100
AcDbLine
 10
88.6532663316583
 20
305.0
 30
0.0
 11
87.58793969849245
 21
305.0
 31
0.0
  0
LINE
  5
261
330
17
100
AcDbEntity
  8
OUTLINE
100
AcDbLine
 10
87.58793969849245
 20
305.0
 30
0.0
 11
86.52261306532662
 21
305.0
 31
0.0
  0
LINE
  5
262
330
17
100
AcDbEntity
  8
OUTLINE
100
AcDbLine
 10
86.52261306532662
 20
305.0
 30
0.0
 11
85.4572864321608
 21
305.0
 31
0.0
  0
LINE
  5
263
330
17
100
AcDbEntity
  8
OUTLINE
100
AcDbLine
 10
85.4572864321608
 20
305.0
 30
0.0
 11
84.39195979899498
 21
305.0
 31
0.0
  0
LINE
  5
264
330
17
100
AcDbEntity
  8
OUTLINE
100
AcDbLine
 10
84.39195979899498
 20
305.0
 30
0.0
 11
83.32663316582915
 21
305.0
 31
0.0
  0
LINE
  5
265
330
17
100
AcDbEntity
  8
OUTLINE
100
AcDbLine
 10
83.32663316582915
 20
305.0
 30
0.0
 11
82.26130653266333
 21
305.0
 31
0.0
  0
LINE
  5
266
330
17
100
AcDbEntity
  8
OUTLINE
100
AcDbLine
 10
82.26130653266333
 20
305.0
 30
0.0
 11
81.19597989949747
 21
305.0
 31
0.0
  0
LINE
  5
267
330
17
100
AcDbEntity
  8
OUTLINE
100
AcDbLine
 10
81.19597989949747
 20
305.0
 30
0.0
 11
80.13065326633165
 21
305.0
 31
0.0
  0
LINE
  5
268
330
17
100
AcDbEntity
  8
OUTLINE
100
AcDbLine
 10
80.13065326633165
 20
305.0
 30
0.0
 11
79.06532663316582
 21
305.0
 31
0.0
  0
LINE
  5
269
330
17
100
AcDbEntity
  8
OUTLINE
100
AcDbLine
 10
290.0
 20
365.0
 30
0.0
 11
290.0
 21
305.0
 31
0.0
  0
LINE
  5
26A
330
17
100
AcDbEntity
  8
OUTLINE
100
AcDbLine
 10
80.0
 20
327.64164085378866
 30
0.0
 11
79.80249999999998
 21
327.3884723448213
 31
0.0
  0
LINE
  5
26B
330
17
100
AcDbEntity
  8
OUTLINE
100
AcDbLine
 10
79.80249999999998
 20
327.3884723448213
 30
0.0
 11
79.61000000000001
 21
327.12604682855175
 31
0.0
  0
LINE
  5
26C
330
17
100
AcDbEntity
  8
OUTLINE
100
AcDbLine
 10
79.61000000000001
 20
327.12604682855175
 30
0.0
 11
79.42249999999999
 21
326.8545892762846
 31
0.0
  0
LINE
  5
26D
330
17
100
AcDbEntity
  8
OUTLINE
100
AcDbLine
 10
79.42249999999999
 20
326.8545892762846
 30
0.0
 11
79.24000000000001
 21
326.5743246593248
 31
0.0
  0
LINE
  5
26E
330
17
100
AcDbEntity
  8
OUTLINE
100
AcDbLine
 10
79.24000000000001
 20
326.5743246593248
 30
0.0
 11
79.0625
 21
326.2854779489769
 31
0.0
  0
LINE
  5
26F
330
17
100
AcDbEntity
  8
OUTLINE
100
AcDbLine
 10
79.0625
 20
326.2854779489769
 30
0.0
 11
78.88999999999999
 21
325.9882741165457
 31
0.0
  0
LINE
  5
270
330
17
100
AcDbEntity
  8
OUTLINE
100
AcDbLine
 10
78.88999999999999
 20
325.9882741165457
 30
0.0
 11
78.72250000000003
 21
325.68293813333594
 31
0.0
  0
LINE
  5
271
330
17
100
AcDbEntity
  8
OUTLINE
100
AcDbLine
 10
78.72250000000003
 20
325.68293813333594
 30
0.0
 11
78.55999999999995
 21
325.36969497065235
 31
0.0
  0
LINE
  5
272
330
17
100
AcDbEntity
  8
OUTLINE
100
AcDbLine
 10
78.55999999999995
 20
325.36969497065235
 30
0.0
 11
78.40250000000006
 21
325.0487695997996
 31
0.0
  0
LINE
  5
273
330
17
100
AcDbEntity
  8
OUTLINE
100
AcDbLine
 10
78.40250000000006
 20
325.0487695997996
 30
0.0
 11
78.25
 21
324.7203869920824
 31
0.0
  0
LINE
  5
274
330
17
100
AcDbEntity
  8
OUTLINE
100
AcDbLine
 10
78.25
 20
324.7203869920824
 30
0.0
 11
78.10249999999999
 21
324.3847721188056
 31
0.0
  0
LINE
  5
275
330
17
100
AcDbEntity
  8
OUTLINE
100
AcDbLine
 10
78.10249999999999
 20
324.3847721188056
 30
0.0
 11
77.96000000000004
 21
324.04214995127387
 31
0.0
  0
LINE
  5
276
330
17
100
AcDbEntity
  8
OUTLINE
100
AcDbLine
 10
77.96000000000004
 20
324.04214995127387
 30
0.0
 11
77.82249999999999
 21
323.6927454607919
 31
0.0
  0
LINE
  5
277
330
17
100
AcDbEntity
  8
OUTLINE
100
AcDbLine
 10
77.82249999999999
 20
323.6927454607919
 30
0.0
 11
77.69
 21
323.33678361866447
 31
0.0
  0
LINE
  5
278
330
17
100
AcDbEntity
  8
OUTLINE
100
AcDbLine
 10
77.69
 20
323.33678361866447
 30
0.0
 11
77.5625
 21
322.97448939619625
 31
0.0
  0
LINE
  5
279
330
17
100
AcDbEntity
  8
OUTLINE
100
AcDbLine
 10
77.5625
 20
322.97448939619625
 30
0.0
 11
77.43999999999994
 21
322.606087764692
 31
0.0
  0
LINE
  5
27A
330
17
100
AcDbEntity
  8
OUTLINE
100
AcDbLine
 10
77.43999999999994
 20
322.606087764692
 30
0.0
 11
77.32250000000005
 21
322.2318036954565
 31
0.0
  0
LINE
  5
27B
330
17
100
AcDbEntity
  8
OUTLINE
100
AcDbLine
 10
77.32250000000005
 20
322.2318036954565
 30
0.0
 11
77.20999999999998
 21
321.8518621597944
 31
0.0
  0
LINE
  5
27C
330
17
100
AcDbEntity
  8
OUTLINE
100
AcDbLine
 10
77.20999999999998
 20
321.8518621597944
 30
0.0
 11
77.10250000000005
 21
321.4664881290105
 31
0.0
  0
LINE
  5
27D
330
17
100
AcDbEntity
  8
OUTLINE
100
AcDbLine
 10
77.10250000000005
 20
321.4664881290105
 30
0.0
 11
77.0
 21
321.0759065744094
 31
0.0
  0
LINE
  5
27E
330
17
100
AcDbEntity
  8
OUTLINE
100
AcDbLine
 10
77.0
 20
321.0759065744094
 30
0.0
 11
76.90249999999997
 21
320.68034246729593
 31
0.0
  0
LINE
  5
27F
330
17
100
AcDbEntity
  8
OUTLINE
100
AcDbLine
 10
76.90249999999997
 20
320.68034246729593
 30
0.0
 11
76.81
 21
320.28002077897486
 31
0.0
  0
LINE
  5
280
330
17
100
AcDbEntity
  8
OUTLINE
100
AcDbLine
 10
76.81
 20
320.28002077897486
 30
0.0
 11
76.72249999999997
 21
319.8751664807508
 31
0.0
  0
LINE
  5
281
330
17
100
AcDbEntity
  8
OUTLINE
100
AcDbLine
 10
76.72249999999997
 20
319.8751664807508
 30
0.0
 11
76.64000000000007
 21
319.4660045439286
 31
0.0
  0
LINE
  5
282
330
17
100
AcDbEntity
  8
OUTLINE
100
AcDbLine
 10
76.64000000000007
 20
319.4660045439286
 30
0.0
 11
76.5625
 21
319.05275993981286
 31
0.0
  0
LINE
  5
283
330
17
100
AcDbEntity
  8
OUTLINE
100
AcDbLine
 10
76.5625
 20
319.05275993981286
 30
0.0
 11
76.48999999999995
 21
318.63565763970837
 31
0.0
  0
LINE
  5
284
330
17
100
AcDbEntity
  8
OUTLINE
100
AcDbLine
 10
76.48999999999995
 20
318.63565763970837
 30
0.0
 11
76.42250000000001
 21
318.21492261491994
 31
0.0
  0
LINE
  5
285
330
17
100
AcDbEntity
  8
OUTLINE
100
AcDbLine
 10
76.42250000000001
 20
318.21492261491994
 30
0.0
 11
76.35999999999999
 21
317.79077983675217
 31
0.0
  0
LINE
  5
286
330
17
100
AcDbEntity
  8
OUTLINE
100
AcDbLine
 10
76.35999999999999
 20
317.79077983675217
 30
0.0
 11
76.30250000000001
 21
317.36345427650986
 31
0.0
  0
LINE
  5
287
330
17
100
AcDbEntity
  8
OUTLINE
100
AcDbLine
 10
76.30250000000001
 20
317.36345427650986
 30
0.0
 11
76.25
 21
316.93317090549766
 31
0.0
  0
LINE
  5
288
330
17
100
AcDbEntity
  8
OUTLINE
100
AcDbLine
 10
76.25
 20
316.93317090549766
 30
0.0
 11
76.20249999999996
 21
316.5001546950204
 31
0.0
  0
LINE
  5
289
330
17
100
AcDbEntity
  8
OUTLINE
100
AcDbLine
 10
76.20249999999996
 20
316.5001546950204
 30
0.0
 11
76.15999999999997
 21
316.0646306163828
 31
0.0
  0
LINE
  5
28A
330
17
100
AcDbEntity
  8
OUTLINE
100
AcDbLine
 10
76.15999999999997
 20
316.0646306163828
 30
0.0
 11
76.12249999999997
 21
315.6268236408895
 31
0.0
  0
LINE
  5
28B
330
17
100
AcDbEntity
  8
OUTLINE
100
AcDbLine
 10
76.12249999999997
 20
315.6268236408895
 30
0.0
 11
76.09000000000003
 21
315.1869587398453
 31
0.0
  0
LINE
  5
28C
330
17
100
AcDbEntity
  8
OUTLINE
100
AcDbLine
 10
76.09000000000003
 20
315.1869587398453
 30
0.0
 11
76.0625
 21
314.7452608845549
 31
0.0
  0
LINE
  5
28D
330
17
100
AcDbEntity
  8
OUTLINE
100
AcDbLine
 10
76.0625
 20
314.7452608845549
 30
0.0
 11
76.0399999999999
 21
314.301955046323
 31
0.0
  0
LINE
  5
28E
330
17
100
AcDbEntity
  8
OUTLINE
100
AcDbLine
 10
76.0399999999999
 20
314.301955046323
 30
0.0
 11
76.02249999999998
 21
313.8572661964544
 31
0.0
  0
LINE
  5
28F
330
17
100
AcDbEntity
  8
OUTLINE
100
AcDbLine
 10
76.02249999999998
 20
313.8572661964544
 30
0.0
 11
76.00999999999999
 21
313.4114193062538
 31
0.0
  0
LINE
  5
290
330
17
100
AcDbEntity
  8
OUTLINE
100
AcDbLine
 10
76.00999999999999
 20
313.4114193062538
 30
0.0
 11
76.00250000000003
 21
312.9646393470259
 31
0.0
  0
LINE
  5
291
330
17
100
AcDbEntity
  8
OUTLINE
100
AcDbLine
 10
76.00250000000003
 20
312.9646393470259
 30
0.0
 11
76.0
 21
312.51715129007545
 31
0.0
  0
LINE
  5
292
330
17
100
AcDbEntity
  8
OUTLINE
100
AcDbLine
 10
76.0
 20
312.51715129007545
 30
0.0
 11
76.0025
 21
312.0691801067072
 31
0.0
  0
LINE
  5
293
330
17
100
AcDbEntity
  8
OUTLINE
100
AcDbLine
 10
76.0025
 20
312.0691801067072
 30
0.0
 11
76.01000000000002
 21
311.62095076822584
 31
0.0
  0
LINE
  5
294
330
17
100
AcDbEntity
  8
OUTLINE
100
AcDbLine
 10
76.01000000000002
 20
311.62095076822584
 30
0.0
 11
76.02249999999998
 21
311.1726882459361
 31
0.0
  0
LINE
  5
295
330
17
100
AcDbEntity
  8
OUTLINE
100
AcDbLine
 10
76.02249999999998
 20
311.1726882459361
 30
0.0
 11
76.03999999999996
 21
310.7246175111427
 31
0.0
  0
LINE
  5
296
330
17
100
AcDbEntity
  8
OUTLINE
100
AcDbLine
 10
76.03999999999996
 20
310.7246175111427
 30
0.0
 11
76.0625
 21
310.27696353515046
 31
0.0
  0
LINE
  5
297
330
17
100
AcDbEntity
  8
OUTLINE
100
AcDbLine
 10
76.0625
 20
310.27696353515046
 30
0.0
 11
76.08999999999997
 21
309.829951289264
 31
0.0
  0
LINE
  5
298
330
17
100
AcDbEntity
  8
OUTLINE
100
AcDbLine
 10
76.08999999999997
 20
309.829951289264
 30
0.0
 11
76.12250000000003
 21
309.38380574478805
 31
0.0
  0
LINE
  5
299
330
17
100
AcDbEntity
  8
OUTLINE
100
AcDbLine
 10
76.12250000000003
 20
309.38380574478805
 30
0.0
 11
76.16
 21
308.9387518730274
 31
0.0
  0
LINE
  5
29A
330
17
100
AcDbEntity
  8
OUTLINE
100
AcDbLine
 10
76.16
 20
308.9387518730274
 30
0.0
 11
76.20249999999999
 21
308.4950146452868
 31
0.0
  0
LINE
  5
29B
330
17
100
AcDbEntity
  8
OUTLINE
100
AcDbLine
 10
76.20249999999999
 20
308.4950146452868
 30
0.0
 11
76.25
 21
308.05281903287084
 31
0.0
  0
LINE
  5
29C
330
17
100
AcDbEntity
  8
OUTLINE
100
AcDbLine
 10
76.25
 20
308.05281903287084
 30
0.0
 11
76.30250000000001
 21
307.6123900070844
 31
0.0
  0
LINE
  5
29D
330
17
100
AcDbEntity
  8
OUTLINE
100
AcDbLine
 10
76.30250000000001
 20
307.6123900070844
 30
0.0
 11
76.36000000000001
 21
307.1739525392321
 31
0.0
  0
LINE
  5
29E
330
17
100
AcDbEntity
  8
OUTLINE
100
AcDbLine
 10
76.36000000000001
 20
307.1739525392321
 30
0.0
 11
76.42249999999999
 21
306.73773160061876
 31
0.0
  0
LINE
  5
29F
330
17
100
AcDbEntity
  8
OUTLINE
100
AcDbLine
 10
76.42249999999999
 20
306.73773160061876
 30
0.0
 11
76.49000000000001
 21
306.3039521625491
 31
0.0
  0
LINE
  5
2A0
330
17
100
AcDbEntity
  8
OUTLINE
100
AcDbLine
 10
76.49000000000001
 20
306.3039521625491
 30
0.0
 11
76.5625
 21
305.87283919632773
 31
0.0
  0
LINE
  5
2A1
330
17
100
AcDbEntity
  8
OUTLINE
100
AcDbLine
 10
76.5625
 20
305.87283919632773
 30
0.0
 11
76.63999999999999
 21
305.4446176732595
 31
0.0
  0
LINE
  5
2A2
330
17
100
AcDbEntity
  8
OUTLINE
100
AcDbLine
 10
76.63999999999999
 20
305.4446176732595
 30
0.0
 11
76.72249999999997
 21
305.01951256464906
 31
0.0
  0
LINE
  5
2A3
330
17
100
AcDbEntity
  8
OUTLINE
100
AcDbLine
 10
76.72249999999997
 20
305.01951256464906
 30
0.0
 11
76.72654811820999
 21
305.0
 31
0.0
  0
LINE
  5
2A4
330
17
100
AcDbEntity
  8
OUTLINE
100
AcDbLine
 10
76.72654811820999
 20
305.0
 30
0.0
 11
79.06532663316582
 21
305.0
 31
0.0
  0
LINE
  5
2A5
330
17
100
AcDbEntity
  8
SPAR
100
AcDbLine
 10
290.0
 20
330.5
 30
0.0
 11
101.0
 21
330.5
 31
0.0
  0
LINE
  5
2A6
330
17
100
AcDbEntity
  8
HIDDEN
100
AcDbLine
 10
101.0
 20
330.5
 30
0.0
 11
76.0
 21
330.5
 31
0.0
  0
TEXT
  5
2A7
330
17
100
AcDbEntity
  8
TEXT
100
AcDbText
 10
268.0
 20
332.5
 30
0.0
 40
1.8
  1
MAIN SPAR X=34.5  Ø3.1  (3mm CF tube) — ONLY SPAR
 11
268.0
 21
332.5
 31
0.0
100
AcDbText
  0
TEXT
  5
2A8
330
17
100
AcDbEntity
  8
TEXT
100
AcDbText
 10
268.0
 20
307.0
 30
0.0
 40
1.8
  1
HINGE FACE X=60.0 (saddle cavity here)
 11
268.0
 21
307.0
 31
0.0
100
AcDbText
  0
LINE
  5
2A9
330
17
100
AcDbEntity
  8
CENTERLINE
100
AcDbLine
 10
290.0
 20
313.25
 30
0.0
 11
76.0
 21
313.25
 31
0.0
  0
TEXT
  5
2AA
330
17
100
AcDbEntity
  8
TEXT
100
AcDbText
 10
190.0
 20
317.75
 30
0.0
 40
3.5
  1
STAB SHELL (this component)
 11
190.0
 21
317.75
 31
0.0
100
AcDbText
  0
TEXT
  5
2AB
330
17
100
AcDbEntity
  8
TEXT
100
AcDbText
 10
230.0
 20
370.0
 30
0.0
 40
3.0
  1
LE
 11
230.0
 21
370.0
 31
0.0
100
AcDbText
  0
TEXT
  5
2AC
330
17
100
AcDbEntity
  8
TEXT
100
AcDbText
 10
230.0
 20
302.0
 30
0.0
 40
2.5
  1
HINGE FACE (open — elevator mates here)
 11
230.0
 21
302.0
 31
0.0
100
AcDbText
  0
TEXT
  5
2AD
330
17
100
AcDbEntity
  8
TEXT
100
AcDbText
 10
296.0
 20
335.0
 30
0.0
 40
3.5
  1
ROOT
 11
296.0
 21
335.0
 31
0.0
100
AcDbText
  0
TEXT
  5
2AE
330
17
100
AcDbEntity
  8
TEXT
100
AcDbText
 10
73.0
 20
335.0
 30
0.0
 40
2.5
  1
TIP
 11
73.0
 21
335.0
 31
0.0
100
AcDbText
  0
DIMENSION
  5
2AF
330
17
100
AcDbEntity
  8
0
100
AcDbDimension
280
0
  2
*D1
  3
AEROFORGE
 10
310.0
 20
365.0
 30
0.0
 11
310.0
 21
335.0
 31
0.0
 70
32
 71
5
  1
<>
100
AcDbAlignedDimension
 13
305.0
 23
365.0
 33
0.0
 14
305.0
 24
305.0
 34
0.0
 50
-90.0
100
AcDbRotatedDimension
  0
DIMENSION
  5
2BF
330
17
100
AcDbEntity
  8
0
100
AcDbDimension
280
0
  2
*D2
  3
AEROFORGE
 10
290.0
 20
368.0
 30
0.0
 11
183.0
 21
368.0
 31
0.0
 70
32
 71
5
  1
<>
100
AcDbAlignedDimension
 13
290.0
 23
373.0
 33
0.0
 14
76.0
 24
373.0
 34
0.0
 50
180.0
100
AcDbRotatedDimension
  0
TEXT
  5
2CF
330
17
100
AcDbEntity
  8
TEXT
100
AcDbText
 10
400.0
 20
360.0
 30
0.0
 40
2.3
  1
SEC A — ROOT y=0 (stab: LE to hinge)
 11
400.0
 21
360.0
 31
0.0
100
AcDbText
  0
TEXT
  5
2D0
330
17
100
AcDbEntity
  8
TEXT
100
AcDbText
 10
400.0
 20
356.0
 30
0.0
 40
2.0
  1
stab chord=60.0mm
 11
400.0
 21
356.0
 31
0.0
100
AcDbText
  0
LINE
  5
2D1
330
17
100
AcDbEntity
  8
OUTLINE
100
AcDbLine
 10
400.0
 20
350.0
 30
0.0
 11
400.02056050146655
 21
350.1779669557218
 31
0.0
  0
LINE
  5
2D2
330
17
100
AcDbEntity
  8
OUTLINE
100
AcDbLine
 10
400.0
 20
350.0
 30
0.0
 11
400.02056050146655
 21
349.82630477650565
 31
0.0
  0
LINE
  5
2D3
330
17
100
AcDbEntity
  8
OUTLINE
100
AcDbLine
 10
400.02056050146655
 20
350.1779669557218
 30
0.0
 11
400.0822279147256
 21
350.3897262924197
 31
0.0
  0
LINE
  5
2D4
330
17
100
AcDbEntity
  8
OUTLINE
100
AcDbLine
 10
400.02056050146655
 20
349.82630477650565
 30
0.0
 11
400.0822279147256
 21
349.6142667494331
 31
0.0
  0
LINE
  5
2D5
330
17
100
AcDbEntity
  8
OUTLINE
100
AcDbLine
 10
400.0822279147256
 20
350.3897262924197
 30
0.0
 11
400.1849599760123
 21
350.58246278101615
 31
0.0
  0
LINE
  5
2D6
330
17
100
AcDbEntity
  8
OUTLINE
100
AcDbLine
 10
400.0822279147256
 20
349.6142667494331
 30
0.0
 11
400.1849599760123
 21
349.4217986605718
 31
0.0
  0
LINE
  5
2D7
330
17
100
AcDbEntity
  8
OUTLINE
100
AcDbLine
 10
400.1849599760123
 20
350.58246278101615
 30
0.0
 11
400.3286862779036
 21
350.7644719771486
 31
0.0
  0
LINE
  5
2D8
330
17
100
AcDbEntity
  8
OUTLINE
100
AcDbLine
 10
400.1849599760123
 20
349.4217986605718
 30
0.0
 11
400.3286862779036
 21
349.2397926276143
 31
0.0
  0
LINE
  5
2D9
330
17
100
AcDbEntity
  8
OUTLINE
100
AcDbLine
 10
400.3286862779036
 20
350.7644719771486
 30
0.0
 11
400.5133083175714
 21
350.94266974066863
 31
0.0
  0
LINE
  5
2DA
330
17
100
AcDbEntity
  8
OUTLINE
100
AcDbLine
 10
400.3286862779036
 20
349.2397926276143
 30
0.0
 11
400.5133083175714
 21
349.061663660536
 31
0.0
  0
LINE
  5
2DB
330
17
100
AcDbEntity
  8
OUTLINE
100
AcDbLine
 10
400.5133083175714
 20
350.94266974066863
 30
0.0
 11
400.7386995642917
 21
351.1200477185236
 31
0.0
  0
LINE
  5
2DC
330
17
100
AcDbEntity
  8
OUTLINE
100
AcDbLine
 10
400.5133083175714
 20
349.061663660536
 30
0.0
 11
400.7386995642917
 21
348.88408509529165
 31
0.0
  0
LINE
  5
2DD
330
17
100
AcDbEntity
  8
OUTLINE
100
AcDbLine
 10
400.7386995642917
 20
351.1200477185236
 30
0.0
 11
401.0047055461627
 21
351.29608974902766
 31
0.0
  0
LINE
  5
2DE
330
17
100
AcDbEntity
  8
OUTLINE
100
AcDbLine
 10
400.7386995642917
 20
348.88408509529165
 30
0.0
 11
401.0047055461627
 21
348.70794526105374
 31
0.0
  0
LINE
  5
2DF
330
17
100
AcDbEntity
  8
OUTLINE
100
AcDbLine
 10
401.0047055461627
 20
351.29608974902766
 30
0.0
 11
401.31114395597166
 21
351.4700774489623
 31
0.0
  0
LINE
  5
2E0
330
17
100
AcDbEntity
  8
OUTLINE
100
AcDbLine
 10
401.0047055461627
 20
348.70794526105374
 30
0.0
 11
401.31114395597166
 21
348.5340766599989
 31
0.0
  0
LINE
  5
2E1
330
17
100
AcDbEntity
  8
OUTLINE
100
AcDbLine
 10
401.31114395597166
 20
351.4700774489623
 30
0.0
 11
401.6578047761394
 21
351.64144707646216
 31
0.0
  0
LINE
  5
2E2
330
17
100
AcDbEntity
  8
OUTLINE
100
AcDbLine
 10
401.31114395597166
 20
348.5340766599989
 30
0.0
 11
401.6578047761394
 21
348.36279005895926
 31
0.0
  0
LINE
  5
2E3
330
17
100
AcDbEntity
  8
OUTLINE
100
AcDbLine
 10
401.6578047761394
 20
351.64144707646216
 30
0.0
 11
402.0444504226559
 21
351.80869502423735
 31
0.0
  0
LINE
  5
2E4
330
17
100
AcDbEntity
  8
OUTLINE
100
AcDbLine
 10
401.6578047761394
 20
348.36279005895926
 30
0.0
 11
402.0444504226559
 21
348.1954329481487
 31
0.0
  0
LINE
  5
2E5
330
17
100
AcDbEntity
  8
OUTLINE
100
AcDbLine
 10
402.0444504226559
 20
351.80869502423735
 30
0.0
 11
402.47081590790845
 21
351.9712149417556
 31
0.0
  0
LINE
  5
2E6
330
17
100
AcDbEntity
  8
OUTLINE
100
AcDbLine
 10
402.0444504226559
 20
348.1954329481487
 30
0.0
 11
402.47081590790845
 21
348.03286791184587
 31
0.0
  0
LINE
  5
2E7
330
17
100
AcDbEntity
  8
OUTLINE
100
AcDbLine
 10
402.47081590790845
 20
351.9712149417556
 30
0.0
 11
402.9366090222908
 21
352.12900071978777
 31
0.0
  0
LINE
  5
2E8
330
17
100
AcDbEntity
  8
OUTLINE
100
AcDbLine
 10
402.47081590790845
 20
348.03286791184587
 30
0.0
 11
402.9366090222908
 21
347.87516131153586
 31
0.0
  0
LINE
  5
2E9
330
17
100
AcDbEntity
  8
OUTLINE
100
AcDbLine
 10
402.9366090222908
 20
352.12900071978777
 30
0.0
 11
403.4415105344693
 21
352.2814103309054
 31
0.0
  0
LINE
  5
2EA
330
17
100
AcDbEntity
  8
OUTLINE
100
AcDbLine
 10
402.9366090222908
 20
347.87516131153586
 30
0.0
 11
403.4415105344693
 21
347.72264439095494
 31
0.0
  0
LINE
  5
2EB
330
17
100
AcDbEntity
  8
OUTLINE
100
AcDbLine
 10
403.4415105344693
 20
352.2814103309054
 30
0.0
 11
403.9851744101679
 21
352.4254748572859
 31
0.0
  0
LINE
  5
2EC
330
17
100
AcDbEntity
  8
OUTLINE
100
AcDbLine
 10
403.4415105344693
 20
347.72264439095494
 30
0.0
 11
403.9851744101679
 21
347.57855376592835
 31
0.0
  0
LINE
  5
2ED
330
17
100
AcDbEntity
  8
OUTLINE
100
AcDbLine
 10
403.9851744101679
 20
352.4254748572859
 30
0.0
 11
404.5672280493228
 21
352.56234108327607
 31
0.0
  0
LINE
  5
2EE
330
17
100
AcDbEntity
  8
OUTLINE
100
AcDbLine
 10
403.9851744101679
 20
347.57855376592835
 30
0.0
 11
404.5672280493228
 21
347.441702179903
 31
0.0
  0
LINE
  5
2EF
330
17
100
AcDbEntity
  8
OUTLINE
100
AcDbLine
 10
404.5672280493228
 20
352.56234108327607
 30
0.0
 11
405.187272541444
 21
352.6926500330764
 31
0.0
  0
LINE
  5
2F0
330
17
100
AcDbEntity
  8
OUTLINE
100
AcDbLine
 10
404.5672280493228
 20
347.441702179903
 30
0.0
 11
405.187272541444
 21
347.3113873442548
 31
0.0
  0
LINE
  5
2F1
330
17
100
AcDbEntity
  8
OUTLINE
100
AcDbLine
 10
405.187272541444
 20
352.6926500330764
 30
0.0
 11
405.84488293900836
 21
352.81708814612017
 31
0.0
  0
LINE
  5
2F2
330
17
100
AcDbEntity
  8
OUTLINE
100
AcDbLine
 10
405.187272541444
 20
347.3113873442548
 30
0.0
 11
405.84488293900836
 21
347.18693685387984
 31
0.0
  0
LINE
  5
2F3
330
17
100
AcDbEntity
  8
OUTLINE
100
AcDbLine
 10
405.84488293900836
 20
352.81708814612017
 30
0.0
 11
406.5396085486979
 21
352.9336657868811
 31
0.0
  0
LINE
  5
2F4
330
17
100
AcDbEntity
  8
OUTLINE
100
AcDbLine
 10
405.84488293900836
 20
347.18693685387984
 30
0.0
 11
406.5396085486979
 21
347.07035921311893
 31
0.0
  0
LINE
  5
2F5
330
17
100
AcDbEntity
  8
OUTLINE
100
AcDbLine
 10
406.5396085486979
 20
352.9336657868811
 30
0.0
 11
407.2709732402821
 21
353.0381833444751
 31
0.0
  0
LINE
  5
2F6
330
17
100
AcDbEntity
  8
OUTLINE
100
AcDbLine
 10
406.5396085486979
 20
347.07035921311893
 30
0.0
 11
407.2709732402821
 21
346.9657790880795
 31
0.0
  0
LINE
  5
2F7
330
17
100
AcDbEntity
  8
OUTLINE
100
AcDbLine
 10
407.2709732402821
 20
353.0381833444751
 30
0.0
 11
408.0384757729337
 21
353.1379337541913
 31
0.0
  0
LINE
  5
2F8
330
17
100
AcDbEntity
  8
OUTLINE
100
AcDbLine
 10
407.2709732402821
 20
346.9657790880795
 30
0.0
 11
408.0384757729337
 21
346.8659762458087
 31
0.0
  0
LINE
  5
2F9
330
17
100
AcDbEntity
  8
OUTLINE
100
AcDbLine
 10
408.0384757729337
 20
353.1379337541913
 30
0.0
 11
408.84159013875444
 21
353.22736351981763
 31
0.0
  0
LINE
  5
2FA
330
17
100
AcDbEntity
  8
OUTLINE
100
AcDbLine
 10
408.0384757729337
 20
346.8659762458087
 30
0.0
 11
408.84159013875444
 21
346.7765464801824
 31
0.0
  0
LINE
  5
2FB
330
17
100
AcDbEntity
  8
OUTLINE
100
AcDbLine
 10
408.84159013875444
 20
353.22736351981763
 30
0.0
 11
409.67976592327454
 21
353.3078217929921
 31
0.0
  0
LINE
  5
2FC
330
17
100
AcDbEntity
  8
OUTLINE
100
AcDbLine
 10
408.84159013875444
 20
346.7765464801824
 30
0.0
 11
409.67976592327454
 21
346.6960842982218
 31
0.0
  0
LINE
  5
2FD
330
17
100
AcDbEntity
  8
OUTLINE
100
AcDbLine
 10
409.67976592327454
 20
353.3078217929921
 30
0.0
 11
410.5524286826791
 21
353.385237060639
 31
0.0
  0
LINE
  5
2FE
330
17
100
AcDbEntity
  8
OUTLINE
100
AcDbLine
 10
409.67976592327454
 20
346.6960842982218
 30
0.0
 11
410.5524286826791
 21
346.61866303218136
 31
0.0
  0
LINE
  5
2FF
330
17
100
AcDbEntity
  8
OUTLINE
100
AcDbLine
 10
410.5524286826791
 20
353.385237060639
 30
0.0
 11
411.45898033750314
 21
353.44790089869264
 31
0.0
  0
LINE
  5
300
330
17
100
AcDbEntity
  8
OUTLINE
100
AcDbLine
 10
410.5524286826791
 20
346.61866303218136
 30
0.0
 11
411.45898033750314
 21
346.55588015573665
 31
0.0
  0
LINE
  5
301
330
17
100
AcDbEntity
  8
OUTLINE
100
AcDbLine
 10
411.45898033750314
 20
353.44790089869264
 30
0.0
 11
412.3987995825259
 21
353.5092500230357
 31
0.0
  0
LINE
  5
302
330
17
100
AcDbEntity
  8
OUTLINE
100
AcDbLine
 10
411.45898033750314
 20
346.55588015573665
 30
0.0
 11
412.3987995825259
 21
346.4944245900727
 31
0.0
  0
LINE
  5
303
330
17
100
AcDbEntity
  8
OUTLINE
100
AcDbLine
 10
412.3987995825259
 20
353.5092500230357
 30
0.0
 11
413.3712423125817
 21
353.5594385739588
 31
0.0
  0
LINE
  5
304
330
17
100
AcDbEntity
  8
OUTLINE
100
AcDbLine
 10
412.3987995825259
 20
346.4944245900727
 30
0.0
 11
413.3712423125817
 21
346.4442393053574
 31
0.0
  0
LINE
  5
305
330
17
100
AcDbEntity
  8
OUTLINE
100
AcDbLine
 10
413.3712423125817
 20
353.5594385739588
 30
0.0
 11
414.37564206399816
 21
353.60561997271975
 31
0.0
  0
LINE
  5
306
330
17
100
AcDbEntity
  8
OUTLINE
100
AcDbLine
 10
413.3712423125817
 20
346.4442393053574
 30
0.0
 11
414.37564206399816
 21
346.39803622435966
 31
0.0
  0
LINE
  5
307
330
17
100
AcDbEntity
  8
OUTLINE
100
AcDbLine
 10
414.37564206399816
 20
353.60561997271975
 30
0.0
 11
415.41131047135633
 21
353.64336642947995
 31
0.0
  0
LINE
  5
308
330
17
100
AcDbEntity
  8
OUTLINE
100
AcDbLine
 10
414.37564206399816
 20
346.39803622435966
 30
0.0
 11
415.41131047135633
 21
346.36022367876404
 31
0.0
  0
LINE
  5
309
330
17
100
AcDbEntity
  8
OUTLINE
100
AcDbLine
 10
415.41131047135633
 20
353.64336642947995
 30
0.0
 11
416.47753773926274
 21
353.67472019910684
 31
0.0
  0
LINE
  5
30A
330
17
100
AcDbEntity
  8
OUTLINE
100
AcDbLine
 10
415.41131047135633
 20
346.36022367876404
 30
0.0
 11
416.47753773926274
 21
346.328842031781
 31
0.0
  0
LINE
  5
30B
330
17
100
AcDbEntity
  8
OUTLINE
100
AcDbLine
 10
416.47753773926274
 20
353.67472019910684
 30
0.0
 11
417.57359312880715
 21
353.70111237561804
 31
0.0
  0
LINE
  5
30C
330
17
100
AcDbEntity
  8
OUTLINE
100
AcDbLine
 10
416.47753773926274
 20
346.328842031781
 30
0.0
 11
417.57359312880715
 21
346.3024498552698
 31
0.0
  0
LINE
  5
30D
330
17
100
AcDbEntity
  8
OUTLINE
100
AcDbLine
 10
417.57359312880715
 20
353.70111237561804
 30
0.0
 11
418.6987254583748
 21
353.7181665907224
 31
0.0
  0
LINE
  5
30E
330
17
100
AcDbEntity
  8
OUTLINE
100
AcDbLine
 10
417.57359312880715
 20
346.3024498552698
 30
0.0
 11
418.6987254583748
 21
346.28539693848603
 31
0.0
  0
LINE
  5
30F
330
17
100
AcDbEntity
  8
OUTLINE
100
AcDbLine
 10
418.6987254583748
 20
353.7181665907224
 30
0.0
 11
419.8521636184685
 21
353.73249291991306
 31
0.0
  0
LINE
  5
310
330
17
100
AcDbEntity
  8
OUTLINE
100
AcDbLine
 10
418.6987254583748
 20
346.28539693848603
 30
0.0
 11
419.8521636184685
 21
346.27106904335386
 31
0.0
  0
LINE
  5
311
330
17
100
AcDbEntity
  8
OUTLINE
100
AcDbLine
 10
419.8521636184685
 20
353.73249291991306
 30
0.0
 11
421.033117100189
 21
353.7367664143623
 31
0.0
  0
LINE
  5
312
330
17
100
AcDbEntity
  8
OUTLINE
100
AcDbLine
 10
419.8521636184685
 20
346.27106904335386
 30
0.0
 11
421.033117100189
 21
346.2667290209469
 31
0.0
  0
LINE
  5
313
330
17
100
AcDbEntity
  8
OUTLINE
100
AcDbLine
 10
421.033117100189
 20
353.7367664143623
 30
0.0
 11
422.24077653700976
 21
353.7377216463509
 31
0.0
  0
LINE
  5
314
330
17
100
AcDbEntity
  8
OUTLINE
100
AcDbLine
 10
421.033117100189
 20
346.2667290209469
 30
0.0
 11
422.24077653700976
 21
346.2657283536491
 31
0.0
  0
LINE
  5
315
330
17
100
AcDbEntity
  8
OUTLINE
100
AcDbLine
 10
422.24077653700976
 20
353.7377216463509
 30
0.0
 11
423.4743142594768
 21
353.7316839735339
 31
0.0
  0
LINE
  5
316
330
17
100
AcDbEntity
  8
OUTLINE
100
AcDbLine
 10
422.24077653700976
 20
346.2657283536491
 30
0.0
 11
423.4743142594768
 21
346.2717660264661
 31
0.0
  0
LINE
  5
317
330
17
100
AcDbEntity
  8
OUTLINE
100
AcDbLine
 10
423.4743142594768
 20
353.7316839735339
 30
0.0
 11
424.7328848624516
 21
353.719977101212
 31
0.0
  0
LINE
  5
318
330
17
100
AcDbEntity
  8
OUTLINE
100
AcDbLine
 10
423.4743142594768
 20
346.2717660264661
 30
0.0
 11
424.7328848624516
 21
346.2833820182307
 31
0.0
  0
LINE
  5
319
330
17
100
AcDbEntity
  8
OUTLINE
100
AcDbLine
 10
424.7328848624516
 20
353.719977101212
 30
0.0
 11
426.01562578451
 21
353.7049600545286
 31
0.0
  0
LINE
  5
31A
330
17
100
AcDbEntity
  8
OUTLINE
100
AcDbLine
 10
424.7328848624516
 20
346.2833820182307
 30
0.0
 11
426.01562578451
 21
346.2982599454714
 31
0.0
  0
LINE
  5
31B
330
17
100
AcDbEntity
  8
OUTLINE
100
AcDbLine
 10
426.01562578451
 20
353.7049600545286
 30
0.0
 11
427.32165789909834
 21
353.68139523414544
 31
0.0
  0
LINE
  5
31C
330
17
100
AcDbEntity
  8
OUTLINE
100
AcDbLine
 10
426.01562578451
 20
346.2982599454714
 30
0.0
 11
427.32165789909834
 21
346.32182476585456
 31
0.0
  0
LINE
  5
31D
330
17
100
AcDbEntity
  8
OUTLINE
100
AcDbLine
 10
427.32165789909834
 20
353.68139523414544
 30
0.0
 11
428.6500861170431
 21
353.6548544636333
 31
0.0
  0
LINE
  5
31E
330
17
100
AcDbEntity
  8
OUTLINE
100
AcDbLine
 10
427.32165789909834
 20
346.32182476585456
 30
0.0
 11
428.6500861170431
 21
346.34836620612793
 31
0.0
  0
LINE
  5
31F
330
17
100
AcDbEntity
  8
OUTLINE
100
AcDbLine
 10
428.6500861170431
 20
353.6548544636333
 30
0.0
 11
430.0
 21
353.6241115368387
 31
0.0
  0
LINE
  5
320
330
17
100
AcDbEntity
  8
OUTLINE
100
AcDbLine
 10
428.6500861170431
 20
346.34836620612793
 30
0.0
 11
430.0
 21
346.37911079605084
 31
0.0
  0
LINE
  5
321
330
17
100
AcDbEntity
  8
OUTLINE
100
AcDbLine
 10
430.0
 20
353.6241115368387
 30
0.0
 11
431.3704743844235
 21
353.5874027696293
 31
0.0
  0
LINE
  5
322
330
17
100
AcDbEntity
  8
OUTLINE
100
AcDbLine
 10
430.0
 20
346.37911079605084
 30
0.0
 11
431.3704743844235
 21
346.4157574691862
 31
0.0
  0
LINE
  5
323
330
17
100
AcDbEntity
  8
OUTLINE
100
AcDbLine
 10
431.3704743844235
 20
353.5874027696293
 30
0.0
 11
432.7605700156272
 21
353.54772906811
 31
0.0
  0
LINE
  5
324
330
17
100
AcDbEntity
  8
OUTLINE
100
AcDbLine
 10
431.3704743844235
 20
346.4157574691862
 30
0.0
 11
432.7605700156272
 21
346.4553765781092
 31
0.0
  0
LINE
  5
325
330
17
100
AcDbEntity
  8
OUTLINE
100
AcDbLine
 10
432.7605700156272
 20
353.54772906811
 30
0.0
 11
434.1693341915023
 21
353.50415438688606
 31
0.0
  0
LINE
  5
326
330
17
100
AcDbEntity
  8
OUTLINE
100
AcDbLine
 10
432.7605700156272
 20
346.4553765781092
 30
0.0
 11
434.1693341915023
 21
346.49895358728924
 31
0.0
  0
LINE
  5
327
330
17
100
AcDbEntity
  8
OUTLINE
100
AcDbLine
 10
434.1693341915023
 20
353.50415438688606
 30
0.0
 11
435.595801415452
 21
353.45662938054727
 31
0.0
  0
LINE
  5
328
330
17
100
AcDbEntity
  8
OUTLINE
100
AcDbLine
 10
434.1693341915023
 20
346.49895358728924
 30
0.0
 11
435.595801415452
 21
346.5464203830504
 31
0.0
  0
LINE
  5
329
330
17
100
AcDbEntity
  8
OUTLINE
100
AcDbLine
 10
435.595801415452
 20
353.45662938054727
 30
0.0
 11
437.0389940580946
 21
353.40650570084176
 31
0.0
  0
LINE
  5
32A
330
17
100
AcDbEntity
  8
OUTLINE
100
AcDbLine
 10
435.595801415452
 20
346.5464203830504
 30
0.0
 11
437.0389940580946
 21
346.59646531895714
 31
0.0
  0
LINE
  5
32B
330
17
100
AcDbEntity
  8
OUTLINE
100
AcDbLine
 10
437.0389940580946
 20
353.40650570084176
 30
0.0
 11
438.497923027282
 21
353.3530520635951
 31
0.0
  0
LINE
  5
32C
330
17
100
AcDbEntity
  8
OUTLINE
100
AcDbLine
 10
437.0389940580946
 20
346.59646531895714
 30
0.0
 11
438.497923027282
 21
346.6498417110633
 31
0.0
  0
LINE
  5
32D
330
17
100
AcDbEntity
  8
OUTLINE
100
AcDbLine
 10
438.497923027282
 20
353.3530520635951
 30
0.0
 11
439.97158844597374
 21
353.2971484861471
 31
0.0
  0
LINE
  5
32E
330
17
100
AcDbEntity
  8
OUTLINE
100
AcDbLine
 10
438.497923027282
 20
346.6498417110633
 30
0.0
 11
439.97158844597374
 21
346.7057265138529
 31
0.0
  0
LINE
  5
32F
330
17
100
AcDbEntity
  8
OUTLINE
100
AcDbLine
 10
439.97158844597374
 20
353.2971484861471
 30
0.0
 11
441.45898033750314
 21
353.23924891949775
 31
0.0
  0
LINE
  5
330
330
17
100
AcDbEntity
  8
OUTLINE
100
AcDbLine
 10
439.97158844597374
 20
346.7057265138529
 30
0.0
 11
441.45898033750314
 21
346.7636034976072
 31
0.0
  0
LINE
  5
331
330
17
100
AcDbEntity
  8
OUTLINE
100
AcDbLine
 10
441.45898033750314
 20
353.23924891949775
 30
0.0
 11
442.95907931776463
 21
353.17870503832216
 31
0.0
  0
LINE
  5
332
330
17
100
AcDbEntity
  8
OUTLINE
100
AcDbLine
 10
441.45898033750314
 20
346.7636034976072
 30
0.0
 11
442.95907931776463
 21
346.824068442823
 31
0.0
  0
LINE
  5
333
330
17
100
AcDbEntity
  8
OUTLINE
100
AcDbLine
 10
442.95907931776463
 20
353.17870503832216
 30
0.0
 11
444.4708572938488
 21
353.11658366240846
 31
0.0
  0
LINE
  5
334
330
17
100
AcDbEntity
  8
OUTLINE
100
AcDbLine
 10
442.95907931776463
 20
346.824068442823
 30
0.0
 11
444.4708572938488
 21
346.8861105417369
 31
0.0
  0
LINE
  5
335
330
17
100
AcDbEntity
  8
OUTLINE
100
AcDbLine
 10
444.4708572938488
 20
353.11658366240846
 30
0.0
 11
445.99327816864565
 21
353.0531814573488
 31
0.0
  0
LINE
  5
336
330
17
100
AcDbEntity
  8
OUTLINE
100
AcDbLine
 10
444.4708572938488
 20
346.8861105417369
 30
0.0
 11
445.99327816864565
 21
346.9494635426512
 31
0.0
  0
LINE
  5
337
330
17
100
AcDbEntity
  8
OUTLINE
100
AcDbLine
 10
445.99327816864565
 20
353.0531814573488
 30
0.0
 11
447.52529855093445
 21
352.9883815584382
 31
0.0
  0
LINE
  5
338
330
17
100
AcDbEntity
  8
OUTLINE
100
AcDbLine
 10
445.99327816864565
 20
346.9494635426512
 30
0.0
 11
447.52529855093445
 21
347.0142634415618
 31
0.0
  0
LINE
  5
339
330
17
100
AcDbEntity
  8
OUTLINE
100
AcDbLine
 10
447.52529855093445
 20
352.9883815584382
 30
0.0
 11
449.0658684704711
 21
352.92204526554025
 31
0.0
  0
LINE
  5
33A
330
17
100
AcDbEntity
  8
OUTLINE
100
AcDbLine
 10
447.52529855093445
 20
347.0142634415618
 30
0.0
 11
449.0658684704711
 21
347.0805269569795
 31
0.0
  0
LINE
  5
33B
330
17
100
AcDbEntity
  8
OUTLINE
100
AcDbLine
 10
449.0658684704711
 20
352.92204526554025
 30
0.0
 11
450.61393209758614
 21
352.8552442137513
 31
0.0
  0
LINE
  5
33C
330
17
100
AcDbEntity
  8
OUTLINE
100
AcDbLine
 10
449.0658684704711
 20
347.0805269569795
 30
0.0
 11
450.61393209758614
 21
347.14724902203125
 31
0.0
  0
LINE
  5
33D
330
17
100
AcDbEntity
  8
OUTLINE
100
AcDbLine
 10
450.61393209758614
 20
352.8552442137513
 30
0.0
 11
452.1684284667969
 21
352.78796479799394
 31
0.0
  0
LINE
  5
33E
330
17
100
AcDbEntity
  8
OUTLINE
100
AcDbLine
 10
450.61393209758614
 20
347.14724902203125
 30
0.0
 11
452.1684284667969
 21
347.214447198898
 31
0.0
  0
LINE
  5
33F
330
17
100
AcDbEntity
  8
OUTLINE
100
AcDbLine
 10
452.1684284667969
 20
352.78796479799394
 30
0.0
 11
453.7282922039408
 21
352.7192225611015
 31
0.0
  0
LINE
  5
340
330
17
100
AcDbEntity
  8
OUTLINE
100
AcDbLine
 10
452.1684284667969
 20
347.214447198898
 30
0.0
 11
453.7282922039408
 21
347.2831046037259
 31
0.0
  0
LINE
  5
341
330
17
100
AcDbEntity
  8
OUTLINE
100
AcDbLine
 10
453.7282922039408
 20
352.7192225611015
 30
0.0
 11
455.2924542563293
 21
352.6515221970626
 31
0.0
  0
LINE
  5
342
330
17
100
AcDbEntity
  8
OUTLINE
100
AcDbLine
 10
453.7282922039408
 20
347.2831046037259
 30
0.0
 11
455.2924542563293
 21
347.3507778029374
 31
0.0
  0
LINE
  5
343
330
17
100
AcDbEntity
  8
OUTLINE
100
AcDbLine
 10
455.2924542563293
 20
352.6515221970626
 30
0.0
 11
456.85984262542337
 21
352.5846909539724
 31
0.0
  0
LINE
  5
344
330
17
100
AcDbEntity
  8
OUTLINE
100
AcDbLine
 10
455.2924542563293
 20
347.3507778029374
 30
0.0
 11
456.85984262542337
 21
347.4175889622588
 31
0.0
  0
LINE
  5
345
330
17
100
AcDbEntity
  8
OUTLINE
100
AcDbLine
 10
456.85984262542337
 20
352.5846909539724
 30
0.0
 11
458.4293831015276
 21
352.5189394925203
 31
0.0
  0
LINE
  5
346
330
17
100
AcDbEntity
  8
OUTLINE
100
AcDbLine
 10
456.85984262542337
 20
347.4175889622588
 30
0.0
 11
458.4293831015276
 21
347.48326558049484
 31
0.0
  0
LINE
  5
347
330
17
100
AcDbEntity
  8
OUTLINE
100
AcDbLine
 10
458.4293831015276
 20
352.5189394925203
 30
0.0
 11
460.0
 21
352.45239018675545
 31
0.0
  0
LINE
  5
348
330
17
100
AcDbEntity
  8
OUTLINE
100
AcDbLine
 10
458.4293831015276
 20
347.48326558049484
 30
0.0
 11
460.0
 21
347.5498015917603
 31
0.0
  0
LINE
  5
349
330
17
100
AcDbEntity
  8
OUTLINE
100
AcDbLine
 10
400.0
 20
350.0
 30
0.0
 11
400.0
 21
350.0
 31
0.0
  0
LINE
  5
34A
330
17
100
AcDbEntity
  8
SECTION
100
AcDbLine
 10
460.0
 20
347.5498015917603
 30
0.0
 11
460.0
 21
352.45239018675545
 31
0.0
  0
TEXT
  5
34B
330
17
100
AcDbEntity
  8
TEXT
100
AcDbText
 10
462.0
 20
353.45239018675545
 30
0.0
 40
1.3
  1
hingeface
 11
462.0
 21
353.45239018675545
 31
0.0
100
AcDbText
  0
LINE
  5
34C
330
17
100
AcDbEntity
  8
SECTION
100
AcDbLine
 10
460.0
 20
350.73571705602666
 30
0.0
 11
457.5
 21
350.3678585280133
 31
0.0
  0
LINE
  5
34D
330
17
100
AcDbEntity
  8
SECTION
100
AcDbLine
 10
457.5
 20
350.3678585280133
 30
0.0
 11
457.5
 21
349.6321414719867
 31
0.0
  0
LINE
  5
34E
330
17
100
AcDbEntity
  8
SECTION
100
AcDbLine
 10
457.5
 20
349.6321414719867
 30
0.0
 11
460.0
 21
349.26428294397334
 31
0.0
  0
CIRCLE
  5
34F
330
17
100
AcDbEntity
  8
SPAR
100
AcDbCircle
 10
434.5
 20
350.0
 30
0.0
 40
1.55
  0
LINE
  5
350
330
17
100
AcDbEntity
  8
CENTERLINE
100
AcDbLine
 10
397.0
 20
350.0
 30
0.0
 11
465.0
 21
350.0
 31
0.0
  0
DIMENSION
  5
351
330
17
100
AcDbEntity
  8
0
100
AcDbDimension
280
0
  2
*D3
  3
AEROFORGE
 10
400.0
 20
341.54760981324455
 30
0.0
 11
430.0
 21
341.54760981324455
 31
0.0
 70
32
 71
5
  1
<>
100
AcDbAlignedDimension
 13
400.0
 23
350.0
 33
0.0
 14
460.0
 24
350.0
 34
0.0
 50
0.0
100
AcDbRotatedDimension
  0
TEXT
  5
361
330
17
100
AcDbEntity
  8
TEXT
100
AcDbText
 10
400.0
 20
300.0
 30
0.0
 40
2.3
  1
SEC B — y=100 (stab portion only)
 11
400.0
 21
300.0
 31
0.0
100
AcDbText
  0
TEXT
  5
362
330
17
100
AcDbEntity
  8
TEXT
100
AcDbText
 10
400.0
 20
296.0
 30
0.0
 40
2.0
  1
stab chord=55.9mm
 11
400.0
 21
296.0
 31
0.0
100
AcDbText
  0
LINE
  5
363
330
17
100
AcDbEntity
  8
OUTLINE
100
AcDbLine
 10
400.0
 20
290.0
 30
0.0
 11
400.01916383858446
 21
290.14868811903193
 31
0.0
  0
LINE
  5
364
330
17
100
AcDbEntity
  8
OUTLINE
100
AcDbLine
 10
400.0
 20
290.0
 30
0.0
 11
400.01916383858446
 21
289.8547943417549
 31
0.0
  0
LINE
  5
365
330
17
100
AcDbEntity
  8
OUTLINE
100
AcDbLine
 10
400.01916383858446
 20
290.14868811903193
 30
0.0
 11
400.07664222040006
 21
290.3285573072607
 31
0.0
  0
LINE
  5
366
330
17
100
AcDbEntity
  8
OUTLINE
100
AcDbLine
 10
400.01916383858446
 20
289.8547943417549
 30
0.0
 11
400.07664222040006
 21
289.67479166026845
 31
0.0
  0
LINE
  5
367
330
17
100
AcDbEntity
  8
OUTLINE
100
AcDbLine
 10
400.07664222040006
 20
290.3285573072607
 30
0.0
 11
400.17239575263505
 21
290.4946987139431
 31
0.0
  0
LINE
  5
368
330
17
100
AcDbEntity
  8
OUTLINE
100
AcDbLine
 10
400.07664222040006
 20
289.67479166026845
 30
0.0
 11
400.17239575263505
 21
289.5087811154709
 31
0.0
  0
LINE
  5
369
330
17
100
AcDbEntity
  8
OUTLINE
100
AcDbLine
 10
400.17239575263505
 20
290.4946987139431
 30
0.0
 11
400.30635881060147
 21
290.649353427218
 31
0.0
  0
LINE
  5
36A
330
17
100
AcDbEntity
  8
OUTLINE
100
AcDbLine
 10
400.17239575263505
 20
289.5087811154709
 30
0.0
 11
400.30635881060147
 21
289.35412885696576
 31
0.0
  0
LINE
  5
36B
330
17
100
AcDbEntity
  8
OUTLINE
100
AcDbLine
 10
400.30635881060147
 20
290.649353427218
 30
0.0
 11
400.47843958271096
 21
290.80068114621923
 31
0.0
  0
LINE
  5
36C
330
17
100
AcDbEntity
  8
OUTLINE
100
AcDbLine
 10
400.30635881060147
 20
289.35412885696576
 30
0.0
 11
400.47843958271096
 21
289.20283114003814
 31
0.0
  0
LINE
  5
36D
330
17
100
AcDbEntity
  8
OUTLINE
100
AcDbLine
 10
400.47843958271096
 20
290.80068114621923
 30
0.0
 11
400.6885201333979
 21
290.9505624819639
 31
0.0
  0
LINE
  5
36E
330
17
100
AcDbEntity
  8
OUTLINE
100
AcDbLine
 10
400.47843958271096
 20
289.20283114003814
 30
0.0
 11
400.6885201333979
 21
289.0528324333433
 31
0.0
  0
LINE
  5
36F
330
17
100
AcDbEntity
  8
OUTLINE
100
AcDbLine
 10
400.6885201333979
 20
290.9505624819639
 30
0.0
 11
400.93645648394664
 21
291.09876908021647
 31
0.0
  0
LINE
  5
370
330
17
100
AcDbEntity
  8
OUTLINE
100
AcDbLine
 10
400.6885201333979
 20
289.0528324333433
 30
0.0
 11
400.93645648394664
 21
288.90455193945394
 31
0.0
  0
LINE
  5
371
330
17
100
AcDbEntity
  8
OUTLINE
100
AcDbLine
 10
400.93645648394664
 20
291.09876908021647
 30
0.0
 11
401.2220787111673
 21
291.24283326089824
 31
0.0
  0
LINE
  5
372
330
17
100
AcDbEntity
  8
OUTLINE
100
AcDbLine
 10
400.93645648394664
 20
288.90455193945394
 30
0.0
 11
401.2220787111673
 21
288.7605468016431
 31
0.0
  0
LINE
  5
373
330
17
100
AcDbEntity
  8
OUTLINE
100
AcDbLine
 10
401.2220787111673
 20
291.24283326089824
 30
0.0
 11
401.5451910638523
 21
291.3822061358944
 31
0.0
  0
LINE
  5
374
330
17
100
AcDbEntity
  8
OUTLINE
100
AcDbLine
 10
401.2220787111673
 20
288.7605468016431
 30
0.0
 11
401.5451910638523
 21
288.6212315089252
 31
0.0
  0
LINE
  5
375
330
17
100
AcDbEntity
  8
OUTLINE
100
AcDbLine
 10
401.5451910638523
 20
291.3822061358944
 30
0.0
 11
401.9055720969351
 21
291.5206974334606
 31
0.0
  0
LINE
  5
376
330
17
100
AcDbEntity
  8
OUTLINE
100
AcDbLine
 10
401.5451910638523
 20
288.6212315089252
 30
0.0
 11
401.9055720969351
 21
288.4827110675427
 31
0.0
  0
LINE
  5
377
330
17
100
AcDbEntity
  8
OUTLINE
100
AcDbLine
 10
401.9055720969351
 20
291.5206974334606
 30
0.0
 11
402.302974823257
 21
291.65096650165566
 31
0.0
  0
LINE
  5
378
330
17
100
AcDbEntity
  8
OUTLINE
100
AcDbLine
 10
401.9055720969351
 20
288.4827110675427
 30
0.0
 11
402.302974823257
 21
288.3523998703399
 31
0.0
  0
LINE
  5
379
330
17
100
AcDbEntity
  8
OUTLINE
100
AcDbLine
 10
402.302974823257
 20
291.65096650165566
 30
0.0
 11
402.7371268828401
 21
291.78035750474334
 31
0.0
  0
LINE
  5
37A
330
17
100
AcDbEntity
  8
OUTLINE
100
AcDbLine
 10
402.302974823257
 20
288.3523998703399
 30
0.0
 11
402.7371268828401
 21
288.22301916642
 31
0.0
  0
LINE
  5
37B
330
17
100
AcDbEntity
  8
OUTLINE
100
AcDbLine
 10
402.7371268828401
 20
291.78035750474334
 30
0.0
 11
403.20773072954904
 21
291.9014651164288
 31
0.0
  0
LINE
  5
37C
330
17
100
AcDbEntity
  8
OUTLINE
100
AcDbLine
 10
402.7371268828401
 20
288.22301916642
 30
0.0
 11
403.20773072954904
 21
288.10185659520835
 31
0.0
  0
LINE
  5
37D
330
17
100
AcDbEntity
  8
OUTLINE
100
AcDbLine
 10
403.20773072954904
 20
291.9014651164288
 30
0.0
 11
403.7144638350146
 21
292.0216100407784
 31
0.0
  0
LINE
  5
37E
330
17
100
AcDbEntity
  8
OUTLINE
100
AcDbLine
 10
403.20773072954904
 20
288.10185659520835
 30
0.0
 11
403.7144638350146
 21
287.98169649243874
 31
0.0
  0
LINE
  5
37F
330
17
100
AcDbEntity
  8
OUTLINE
100
AcDbLine
 10
403.7144638350146
 20
292.0216100407784
 30
0.0
 11
404.2569789096782
 21
292.12966928057557
 31
0.0
  0
LINE
  5
380
330
17
100
AcDbEntity
  8
OUTLINE
100
AcDbLine
 10
403.7144638350146
 20
287.98169649243874
 30
0.0
 11
404.2569789096782
 21
287.87364652849857
 31
0.0
  0
LINE
  5
381
330
17
100
AcDbEntity
  8
OUTLINE
100
AcDbLine
 10
404.2569789096782
 20
292.12966928057557
 30
0.0
 11
404.83490414080677
 21
292.23701283759914
 31
0.0
  0
LINE
  5
382
330
17
100
AcDbEntity
  8
OUTLINE
100
AcDbLine
 10
404.2569789096782
 20
287.87364652849857
 30
0.0
 11
404.83490414080677
 21
287.7662983171918
 31
0.0
  0
LINE
  5
383
330
17
100
AcDbEntity
  8
OUTLINE
100
AcDbLine
 10
404.83490414080677
 20
292.23701283759914
 30
0.0
 11
405.447843447315
 21
292.3351893091509
 31
0.0
  0
LINE
  5
384
330
17
100
AcDbEntity
  8
OUTLINE
100
AcDbLine
 10
404.83490414080677
 20
287.7662983171918
 30
0.0
 11
405.447843447315
 21
287.6681018187936
 31
0.0
  0
LINE
  5
385
330
17
100
AcDbEntity
  8
OUTLINE
100
AcDbLine
 10
405.447843447315
 20
292.3351893091509
 30
0.0
 11
406.0953767512192
 21
292.43026247166785
 31
0.0
  0
LINE
  5
386
330
17
100
AcDbEntity
  8
OUTLINE
100
AcDbLine
 10
405.447843447315
 20
287.6681018187936
 30
0.0
 11
406.0953767512192
 21
287.57300680325966
 31
0.0
  0
LINE
  5
387
330
17
100
AcDbEntity
  8
OUTLINE
100
AcDbLine
 10
406.0953767512192
 20
292.43026247166785
 30
0.0
 11
406.77706026553784
 21
292.5152955904991
 31
0.0
  0
LINE
  5
388
330
17
100
AcDbEntity
  8
OUTLINE
100
AcDbLine
 10
406.0953767512192
 20
287.57300680325966
 30
0.0
 11
406.77706026553784
 21
287.4879281798879
 31
0.0
  0
LINE
  5
389
330
17
100
AcDbEntity
  8
OUTLINE
100
AcDbLine
 10
406.77706026553784
 20
292.5152955904991
 30
0.0
 11
407.49242679844104
 21
292.59500964698543
 31
0.0
  0
LINE
  5
38A
330
17
100
AcDbEntity
  8
OUTLINE
100
AcDbLine
 10
406.77706026553784
 20
287.4879281798879
 30
0.0
 11
407.49242679844104
 21
287.40819038536125
 31
0.0
  0
LINE
  5
38B
330
17
100
AcDbEntity
  8
OUTLINE
100
AcDbLine
 10
407.49242679844104
 20
292.59500964698543
 30
0.0
 11
408.2409860734406
 21
292.66956152864105
 31
0.0
  0
LINE
  5
38C
330
17
100
AcDbEntity
  8
OUTLINE
100
AcDbLine
 10
407.49242679844104
 20
287.40819038536125
 30
0.0
 11
408.2409860734406
 21
287.33363980758173
 31
0.0
  0
LINE
  5
38D
330
17
100
AcDbEntity
  8
OUTLINE
100
AcDbLine
 10
408.2409860734406
 20
292.66956152864105
 30
0.0
 11
409.02222506540073
 21
292.7346414229283
 31
0.0
  0
LINE
  5
38E
330
17
100
AcDbEntity
  8
OUTLINE
100
AcDbLine
 10
408.2409860734406
 20
287.33363980758173
 30
0.0
 11
409.02222506540073
 21
287.268559317267
 31
0.0
  0
LINE
  5
38F
330
17
100
AcDbEntity
  8
OUTLINE
100
AcDbLine
 10
409.02222506540073
 20
292.7346414229283
 30
0.0
 11
409.8356083521401
 21
292.79766627147853
 31
0.0
  0
LINE
  5
390
330
17
100
AcDbEntity
  8
OUTLINE
100
AcDbLine
 10
409.02222506540073
 20
287.268559317267
 30
0.0
 11
409.8356083521401
 21
287.20552209921647
 31
0.0
  0
LINE
  5
391
330
17
100
AcDbEntity
  8
OUTLINE
100
AcDbLine
 10
409.8356083521401
 20
292.79766627147853
 30
0.0
 11
410.68057848138346
 21
292.8499021518159
 31
0.0
  0
LINE
  5
392
330
17
100
AcDbEntity
  8
OUTLINE
100
AcDbLine
 10
409.8356083521401
 20
287.20552209921647
 30
0.0
 11
410.68057848138346
 21
287.15319759566967
 31
0.0
  0
LINE
  5
393
330
17
100
AcDbEntity
  8
OUTLINE
100
AcDbLine
 10
410.68057848138346
 20
292.8499021518159
 30
0.0
 11
411.55655635281136
 21
292.8994620202942
 31
0.0
  0
LINE
  5
394
330
17
100
AcDbEntity
  8
OUTLINE
100
AcDbLine
 10
410.68057848138346
 20
287.15319759566967
 30
0.0
 11
411.55655635281136
 21
287.10356947027293
 31
0.0
  0
LINE
  5
395
330
17
100
AcDbEntity
  8
OUTLINE
100
AcDbLine
 10
411.55655635281136
 20
292.8994620202942
 30
0.0
 11
412.46294161494677
 21
292.9415357043916
 31
0.0
  0
LINE
  5
396
330
17
100
AcDbEntity
  8
OUTLINE
100
AcDbLine
 10
411.55655635281136
 20
287.10356947027293
 30
0.0
 11
412.46294161494677
 21
287.0614706869348
 31
0.0
  0
LINE
  5
397
330
17
100
AcDbEntity
  8
OUTLINE
100
AcDbLine
 10
412.46294161494677
 20
292.9415357043916
 30
0.0
 11
413.399113076606
 21
292.9782475381357
 31
0.0
  0
LINE
  5
398
330
17
100
AcDbEntity
  8
OUTLINE
100
AcDbLine
 10
412.46294161494677
 20
287.0614706869348
 30
0.0
 11
413.399113076606
 21
287.0247303807324
 31
0.0
  0
LINE
  5
399
330
17
100
AcDbEntity
  8
OUTLINE
100
AcDbLine
 10
413.399113076606
 20
292.9782475381357
 30
0.0
 11
414.36442913263204
 21
293.00989896617534
 31
0.0
  0
LINE
  5
39A
330
17
100
AcDbEntity
  8
OUTLINE
100
AcDbLine
 10
413.399113076606
 20
287.0247303807324
 30
0.0
 11
414.36442913263204
 21
286.9930468102349
 31
0.0
  0
LINE
  5
39B
330
17
100
AcDbEntity
  8
OUTLINE
100
AcDbLine
 10
414.36442913263204
 20
293.00989896617534
 30
0.0
 11
415.35822820361875
 21
293.0339605097245
 31
0.0
  0
LINE
  5
39C
330
17
100
AcDbEntity
  8
OUTLINE
100
AcDbLine
 10
414.36442913263204
 20
286.9930468102349
 30
0.0
 11
415.35822820361875
 21
286.9689770172692
 31
0.0
  0
LINE
  5
39D
330
17
100
AcDbEntity
  8
OUTLINE
100
AcDbLine
 10
415.35822820361875
 20
293.0339605097245
 30
0.0
 11
416.3798291893242
 21
293.0554552314186
 31
0.0
  0
LINE
  5
39E
330
17
100
AcDbEntity
  8
OUTLINE
100
AcDbLine
 10
415.35822820361875
 20
286.9689770172692
 30
0.0
 11
416.3798291893242
 21
286.9474822373709
 31
0.0
  0
LINE
  5
39F
330
17
100
AcDbEntity
  8
OUTLINE
100
AcDbLine
 10
416.3798291893242
 20
293.0554552314186
 30
0.0
 11
417.42853193546284
 21
293.0673653937674
 31
0.0
  0
LINE
  5
3A0
330
17
100
AcDbEntity
  8
OUTLINE
100
AcDbLine
 10
416.3798291893242
 20
286.9474822373709
 30
0.0
 11
417.42853193546284
 21
286.93557271477863
 31
0.0
  0
LINE
  5
3A1
330
17
100
AcDbEntity
  8
OUTLINE
100
AcDbLine
 10
417.42853193546284
 20
293.0673653937674
 30
0.0
 11
418.5036177135565
 21
293.07630139810516
 31
0.0
  0
LINE
  5
3A2
330
17
100
AcDbEntity
  8
OUTLINE
100
AcDbLine
 10
417.42853193546284
 20
286.93557271477863
 30
0.0
 11
418.5036177135565
 21
286.9266154191233
 31
0.0
  0
LINE
  5
3A3
330
17
100
AcDbEntity
  8
OUTLINE
100
AcDbLine
 10
418.5036177135565
 20
293.07630139810516
 30
0.0
 11
419.6043497135144
 21
293.07919144920595
 31
0.0
  0
LINE
  5
3A4
330
17
100
AcDbEntity
  8
OUTLINE
100
AcDbLine
 10
418.5036177135565
 20
286.9266154191233
 30
0.0
 11
419.6043497135144
 21
286.9236605545885
 31
0.0
  0
LINE
  5
3A5
330
17
100
AcDbEntity
  8
OUTLINE
100
AcDbLine
 10
419.6043497135144
 20
293.07919144920595
 30
0.0
 11
420.7299735486067
 21
293.0760525979819
 31
0.0
  0
LINE
  5
3A6
330
17
100
AcDbEntity
  8
OUTLINE
100
AcDbLine
 10
419.6043497135144
 20
286.9236605545885
 30
0.0
 11
420.7299735486067
 21
286.9267519694182
 31
0.0
  0
LINE
  5
3A7
330
17
100
AcDbEntity
  8
OUTLINE
100
AcDbLine
 10
420.7299735486067
 20
293.0760525979819
 30
0.0
 11
421.879717772483
 21
293.06886539727776
 31
0.0
  0
LINE
  5
3A8
330
17
100
AcDbEntity
  8
OUTLINE
100
AcDbLine
 10
420.7299735486067
 20
286.9267519694182
 30
0.0
 11
421.879717772483
 21
286.933919097367
 31
0.0
  0
LINE
  5
3A9
330
17
100
AcDbEntity
  8
OUTLINE
100
AcDbLine
 10
421.879717772483
 20
293.06886539727776
 30
0.0
 11
423.05279440788314
 21
293.05586913591895
 31
0.0
  0
LINE
  5
3AA
330
17
100
AcDbEntity
  8
OUTLINE
100
AcDbLine
 10
421.879717772483
 20
286.933919097367
 30
0.0
 11
423.05279440788314
 21
286.946854425096
 31
0.0
  0
LINE
  5
3AB
330
17
100
AcDbEntity
  8
OUTLINE
100
AcDbLine
 10
423.05279440788314
 20
293.05586913591895
 30
0.0
 11
424.24839948667784
 21
293.0383617834971
 31
0.0
  0
LINE
  5
3AC
330
17
100
AcDbEntity
  8
OUTLINE
100
AcDbLine
 10
423.05279440788314
 20
286.946854425096
 30
0.0
 11
424.24839948667784
 21
286.96430895917496
 31
0.0
  0
LINE
  5
3AD
330
17
100
AcDbEntity
  8
OUTLINE
100
AcDbLine
 10
424.24839948667784
 20
293.0383617834971
 30
0.0
 11
425.4657136008678
 21
293.0159642876454
 31
0.0
  0
LINE
  5
3AE
330
17
100
AcDbEntity
  8
OUTLINE
100
AcDbLine
 10
424.24839948667784
 20
286.96430895917496
 30
0.0
 11
425.4657136008678
 21
286.98670679801035
 31
0.0
  0
LINE
  5
3AF
330
17
100
AcDbEntity
  8
OUTLINE
100
AcDbLine
 10
425.4657136008678
 20
293.0159642876454
 30
0.0
 11
426.7039024641654
 21
292.98967707884384
 31
0.0
  0
LINE
  5
3B0
330
17
100
AcDbEntity
  8
OUTLINE
100
AcDbLine
 10
425.4657136008678
 20
286.98670679801035
 30
0.0
 11
426.7039024641654
 21
287.01299331756786
 31
0.0
  0
LINE
  5
3B1
330
17
100
AcDbEntity
  8
OUTLINE
100
AcDbLine
 10
426.7039024641654
 20
292.98967707884384
 30
0.0
 11
427.96211748377266
 21
292.9595358270878
 31
0.0
  0
LINE
  5
3B2
330
17
100
AcDbEntity
  8
OUTLINE
100
AcDbLine
 10
426.7039024641654
 20
287.01299331756786
 30
0.0
 11
427.96211748377266
 21
287.04309671026897
 31
0.0
  0
LINE
  5
3B3
330
17
100
AcDbEntity
  8
OUTLINE
100
AcDbLine
 10
427.96211748377266
 20
292.9595358270878
 30
0.0
 11
429.23949634196435
 21
292.9247253633955
 31
0.0
  0
LINE
  5
3B4
330
17
100
AcDbEntity
  8
OUTLINE
100
AcDbLine
 10
427.96211748377266
 20
287.04309671026897
 30
0.0
 11
429.23949634196435
 21
287.07783277432213
 31
0.0
  0
LINE
  5
3B5
330
17
100
AcDbEntity
  8
OUTLINE
100
AcDbLine
 10
429.23949634196435
 20
292.9247253633955
 30
0.0
 11
430.5351635870776
 21
292.88714702802946
 31
0.0
  0
LINE
  5
3B6
330
17
100
AcDbEntity
  8
OUTLINE
100
AcDbLine
 10
429.23949634196435
 20
287.07783277432213
 30
0.0
 11
430.5351635870776
 21
287.11536948172574
 31
0.0
  0
LINE
  5
3B7
330
17
100
AcDbEntity
  8
OUTLINE
100
AcDbLine
 10
430.5351635870776
 20
292.88714702802946
 30
0.0
 11
431.8482312335026
 21
292.8470403342377
 31
0.0
  0
LINE
  5
3B8
330
17
100
AcDbEntity
  8
OUTLINE
100
AcDbLine
 10
430.5351635870776
 20
287.11536948172574
 30
0.0
 11
431.8482312335026
 21
287.15547725636543
 31
0.0
  0
LINE
  5
3B9
330
17
100
AcDbEntity
  8
OUTLINE
100
AcDbLine
 10
431.8482312335026
 20
292.8470403342377
 30
0.0
 11
433.17779937026364
 21
292.803179580199
 31
0.0
  0
LINE
  5
3BA
330
17
100
AcDbEntity
  8
OUTLINE
100
AcDbLine
 10
431.8482312335026
 20
287.15547725636543
 30
0.0
 11
433.17779937026364
 21
287.19929775916705
 31
0.0
  0
LINE
  5
3BB
330
17
100
AcDbEntity
  8
OUTLINE
100
AcDbLine
 10
433.17779937026364
 20
292.803179580199
 30
0.0
 11
434.5229567777733
 21
292.7572856326635
 31
0.0
  0
LINE
  5
3BC
330
17
100
AcDbEntity
  8
OUTLINE
100
AcDbLine
 10
433.17779937026364
 20
287.19929775916705
 30
0.0
 11
434.5229567777733
 21
287.24512713183555
 31
0.0
  0
LINE
  5
3BD
330
17
100
AcDbEntity
  8
OUTLINE
100
AcDbLine
 10
434.5229567777733
 20
292.7572856326635
 30
0.0
 11
435.88278155233655
 21
292.70952375791256
 31
0.0
  0
LINE
  5
3BE
330
17
100
AcDbEntity
  8
OUTLINE
100
AcDbLine
 10
434.5229567777733
 20
287.24512713183555
 30
0.0
 11
435.88278155233655
 21
287.2928291565264
 31
0.0
  0
LINE
  5
3BF
330
17
100
AcDbEntity
  8
OUTLINE
100
AcDbLine
 10
435.88278155233655
 20
292.70952375791256
 30
0.0
 11
437.2563417379776
 21
292.65974955525706
 31
0.0
  0
LINE
  5
3C0
330
17
100
AcDbEntity
  8
OUTLINE
100
AcDbLine
 10
435.88278155233655
 20
287.2928291565264
 30
0.0
 11
437.2563417379776
 21
287.34259999221257
 31
0.0
  0
LINE
  5
3C1
330
17
100
AcDbEntity
  8
OUTLINE
100
AcDbLine
 10
437.2563417379776
 20
292.65974955525706
 30
0.0
 11
438.6426959651561
 21
292.60823029708934
 31
0.0
  0
LINE
  5
3C2
330
17
100
AcDbEntity
  8
OUTLINE
100
AcDbLine
 10
437.2563417379776
 20
287.34259999221257
 30
0.0
 11
438.6426959651561
 21
287.39405798405346
 31
0.0
  0
LINE
  5
3C3
330
17
100
AcDbEntity
  8
OUTLINE
100
AcDbLine
 10
438.6426959651561
 20
292.60823029708934
 30
0.0
 11
440.0408940959348
 21
292.55545180559807
 31
0.0
  0
LINE
  5
3C4
330
17
100
AcDbEntity
  8
OUTLINE
100
AcDbLine
 10
438.6426959651561
 20
287.39405798405346
 30
0.0
 11
440.0408940959348
 21
287.4467893328255
 31
0.0
  0
LINE
  5
3C5
330
17
100
AcDbEntity
  8
OUTLINE
100
AcDbLine
 10
440.0408940959348
 20
292.55545180559807
 30
0.0
 11
441.44997787515626
 21
292.50165597871677
 31
0.0
  0
LINE
  5
3C6
330
17
100
AcDbEntity
  8
OUTLINE
100
AcDbLine
 10
440.0408940959348
 20
287.4467893328255
 30
0.0
 11
441.44997787515626
 21
287.500545849498
 31
0.0
  0
LINE
  5
3C7
330
17
100
AcDbEntity
  8
OUTLINE
100
AcDbLine
 10
441.44997787515626
 20
292.50165597871677
 30
0.0
 11
442.86898158718355
 21
292.44688762293134
 31
0.0
  0
LINE
  5
3C8
330
17
100
AcDbEntity
  8
OUTLINE
100
AcDbLine
 10
441.44997787515626
 20
287.500545849498
 30
0.0
 11
442.86898158718355
 21
287.5552915273142
 31
0.0
  0
LINE
  5
3C9
330
17
100
AcDbEntity
  8
OUTLINE
100
AcDbLine
 10
442.86898158718355
 20
292.44688762293134
 30
0.0
 11
444.29693271775335
 21
292.39139102220724
 31
0.0
  0
LINE
  5
3CA
330
17
100
AcDbEntity
  8
OUTLINE
100
AcDbLine
 10
442.86898158718355
 20
287.5552915273142
 30
0.0
 11
444.29693271775335
 21
287.6107398565189
 31
0.0
  0
LINE
  5
3CB
330
17
100
AcDbEntity
  8
OUTLINE
100
AcDbLine
 10
444.29693271775335
 20
292.39139102220724
 30
0.0
 11
445.73285262048836
 21
292.33518707164785
 31
0.0
  0
LINE
  5
3CC
330
17
100
AcDbEntity
  8
OUTLINE
100
AcDbLine
 10
444.29693271775335
 20
287.6107398565189
 30
0.0
 11
445.73285262048836
 21
287.66690410894955
 31
0.0
  0
LINE
  5
3CD
330
17
100
AcDbEntity
  8
OUTLINE
100
AcDbLine
 10
445.73285262048836
 20
292.33518707164785
 30
0.0
 11
447.1757571876132
 21
292.27878181733416
 31
0.0
  0
LINE
  5
3CE
330
17
100
AcDbEntity
  8
OUTLINE
100
AcDbLine
 10
445.73285262048836
 20
287.66690410894955
 30
0.0
 11
447.1757571876132
 21
287.7232353512632
 31
0.0
  0
LINE
  5
3CF
330
17
100
AcDbEntity
  8
OUTLINE
100
AcDbLine
 10
447.1757571876132
 20
292.27878181733416
 30
0.0
 11
448.62465752441216
 21
292.2219055947161
 31
0.0
  0
LINE
  5
3D0
330
17
100
AcDbEntity
  8
OUTLINE
100
AcDbLine
 10
447.1757571876132
 20
287.7232353512632
 30
0.0
 11
448.62465752441216
 21
287.78002935319057
 31
0.0
  0
LINE
  5
3D1
330
17
100
AcDbEntity
  8
OUTLINE
100
AcDbLine
 10
448.62465752441216
 20
292.2219055947161
 30
0.0
 11
450.0785606269687
 21
292.1647252046946
 31
0.0
  0
LINE
  5
3D2
330
17
100
AcDbEntity
  8
OUTLINE
100
AcDbLine
 10
448.62465752441216
 20
287.78002935319057
 30
0.0
 11
450.0785606269687
 21
287.83716509250775
 31
0.0
  0
LINE
  5
3D3
330
17
100
AcDbEntity
  8
OUTLINE
100
AcDbLine
 10
450.0785606269687
 20
292.1647252046946
 30
0.0
 11
451.5364700627202
 21
292.10916648343516
 31
0.0
  0
LINE
  5
3D4
330
17
100
AcDbEntity
  8
OUTLINE
100
AcDbLine
 10
450.0785606269687
 20
287.83716509250775
 30
0.0
 11
451.5364700627202
 21
287.89274585690833
 31
0.0
  0
LINE
  5
3D5
330
17
100
AcDbEntity
  8
OUTLINE
100
AcDbLine
 10
451.5364700627202
 20
292.10916648343516
 30
0.0
 11
452.9973866533638
 21
292.0566892440218
 31
0.0
  0
LINE
  5
3D6
330
17
100
AcDbEntity
  8
OUTLINE
100
AcDbLine
 10
451.5364700627202
 20
287.89274585690833
 30
0.0
 11
452.9973866533638
 21
287.94515766181956
 31
0.0
  0
LINE
  5
3D7
330
17
100
AcDbEntity
  8
OUTLINE
100
AcDbLine
 10
452.9973866533638
 20
292.0566892440218
 30
0.0
 11
454.4603091596425
 21
292.00414290806486
 31
0.0
  0
LINE
  5
3D8
330
17
100
AcDbEntity
  8
OUTLINE
100
AcDbLine
 10
452.9973866533638
 20
287.94515766181956
 30
0.0
 11
454.4603091596425
 21
287.99767841749303
 31
0.0
  0
LINE
  5
3D9
330
17
100
AcDbEntity
  8
OUTLINE
100
AcDbLine
 10
454.4603091596425
 20
292.00414290806486
 30
0.0
 11
455.9242349675453
 21
291.9512209926773
 31
0.0
  0
LINE
  5
3DA
330
17
100
AcDbEntity
  8
OUTLINE
100
AcDbLine
 10
454.4603091596425
 20
287.99767841749303
 30
0.0
 11
455.9242349675453
 21
288.05056401340414
 31
0.0
  0
LINE
  5
3DB
330
17
100
AcDbEntity
  8
OUTLINE
100
AcDbLine
 10
400.0
 20
290.0
 30
0.0
 11
400.0
 21
290.0
 31
0.0
  0
LINE
  5
3DC
330
17
100
AcDbEntity
  8
SECTION
100
AcDbLine
 10
455.9242349675453
 20
288.05056401340414
 30
0.0
 11
455.9242349675453
 21
291.9512209926773
 31
0.0
  0
TEXT
  5
3DD
330
17
100
AcDbEntity
  8
TEXT
100
AcDbText
 10
457.9242349675453
 20
292.9512209926773
 30
0.0
 40
1.3
  1
hingeface
 11
457.9242349675453
 21
292.9512209926773
 31
0.0
100
AcDbText
  0
LINE
  5
3DE
330
17
100
AcDbEntity
  8
SECTION
100
AcDbLine
 10
455.9242349675453
 20
290.5853662978032
 30
0.0
 11
454.637827200555
 21
290.2926831489016
 31
0.0
  0
LINE
  5
3DF
330
17
100
AcDbEntity
  8
SECTION
100
AcDbLine
 10
454.637827200555
 20
290.2926831489016
 30
0.0
 11
454.637827200555
 21
289.7073168510984
 31
0.0
  0
LINE
  5
3E0
330
17
100
AcDbEntity
  8
SECTION
100
AcDbLine
 10
454.637827200555
 20
289.7073168510984
 30
0.0
 11
455.9242349675453
 21
289.4146337021968
 31
0.0
  0
CIRCLE
  5
3E1
330
17
100
AcDbEntity
  8
SPAR
100
AcDbCircle
 10
430.4242349675453
 20
290.0
 30
0.0
 40
1.55
  0
LINE
  5
3E2
330
17
100
AcDbEntity
  8
CENTERLINE
100
AcDbLine
 10
397.0
 20
290.0
 30
0.0
 11
460.9242349675453
 21
290.0
 31
0.0
  0
DIMENSION
  5
3E3
330
17
100
AcDbEntity
  8
0
100
AcDbDimension
280
0
  2
*D4
  3
AEROFORGE
 10
400.0
 20
282.0487790073227
 30
0.0
 11
427.96211748377266
 21
282.0487790073227
 31
0.0
 70
32
 71
5
  1
<>
100
AcDbAlignedDimension
 13
400.0
 23
290.0
 33
0.0
 14
455.9242349675453
 24
290.0
 34
0.0
 50
0.0
100
AcDbRotatedDimension
  0
TEXT
  5
3F3
330
17
100
AcDbEntity
  8
TEXT
100
AcDbText
 10
400.0
 20
240.0
 30
0.0
 40
2.3
  1
SEC C — y=189 (spar end)
 11
400.0
 21
240.0
 31
0.0
100
AcDbText
  0
TEXT
  5
3F4
330
17
100
AcDbEntity
  8
TEXT
100
AcDbText
 10
400.0
 20
236.0
 30
0.0
 40
2.0
  1
stab chord=36.9mm
 11
400.0
 21
236.0
 31
0.0
100
AcDbText
  0
LINE
  5
3F5
330
17
100
AcDbEntity
  8
OUTLINE
100
AcDbLine
 10
400.0
 20
230.0
 30
0.0
 11
400.0126424835566
 21
230.08460621939642
 31
0.0
  0
LINE
  5
3F6
330
17
100
AcDbEntity
  8
OUTLINE
100
AcDbLine
 10
400.0
 20
230.0
 30
0.0
 11
400.0126424835566
 21
229.91724364071035
 31
0.0
  0
LINE
  5
3F7
330
17
100
AcDbEntity
  8
OUTLINE
100
AcDbLine
 10
400.0126424835566
 20
230.08460621939642
 30
0.0
 11
400.05056126969953
 21
230.18770062531826
 31
0.0
  0
LINE
  5
3F8
330
17
100
AcDbEntity
  8
OUTLINE
100
AcDbLine
 10
400.0126424835566
 20
229.91724364071035
 30
0.0
 11
400.05056126969953
 21
229.81413549413523
 31
0.0
  0
LINE
  5
3F9
330
17
100
AcDbEntity
  8
OUTLINE
100
AcDbLine
 10
400.05056126969953
 20
230.18770062531826
 30
0.0
 11
400.113730370787
 21
230.2842690324821
 31
0.0
  0
LINE
  5
3FA
330
17
100
AcDbEntity
  8
OUTLINE
100
AcDbLine
 10
400.05056126969953
 20
229.81413549413523
 30
0.0
 11
400.113730370787
 21
229.717583265519
 31
0.0
  0
LINE
  5
3FB
330
17
100
AcDbEntity
  8
OUTLINE
100
AcDbLine
 10
400.113730370787
 20
230.2842690324821
 30
0.0
 11
400.2021064938724
 21
230.37715552283115
 31
0.0
  0
LINE
  5
3FC
330
17
100
AcDbEntity
  8
OUTLINE
100
AcDbLine
 10
400.113730370787
 20
229.717583265519
 30
0.0
 11
400.2021064938724
 21
229.6246981354557
 31
0.0
  0
LINE
  5
3FD
330
17
100
AcDbEntity
  8
OUTLINE
100
AcDbLine
 10
400.2021064938724
 20
230.37715552283115
 30
0.0
 11
400.3156290703755
 21
230.46349105060392
 31
0.0
  0
LINE
  5
3FE
330
17
100
AcDbEntity
  8
OUTLINE
100
AcDbLine
 10
400.2021064938724
 20
229.6246981354557
 30
0.0
 11
400.3156290703755
 21
229.5383622165088
 31
0.0
  0
LINE
  5
3FF
330
17
100
AcDbEntity
  8
OUTLINE
100
AcDbLine
 10
400.3156290703755
 20
230.46349105060392
 30
0.0
 11
400.4542202975929
 21
230.54797312247356
 31
0.0
  0
LINE
  5
400
330
17
100
AcDbEntity
  8
OUTLINE
100
AcDbLine
 10
400.3156290703755
 20
229.5383622165088
 30
0.0
 11
400.4542202975929
 21
229.4538336208503
 31
0.0
  0
LINE
  5
401
330
17
100
AcDbEntity
  8
OUTLINE
100
AcDbLine
 10
400.4542202975929
 20
230.54797312247356
 30
0.0
 11
400.6177851920203
 21
230.6308346787718
 31
0.0
  0
LINE
  5
402
330
17
100
AcDbEntity
  8
OUTLINE
100
AcDbLine
 10
400.4542202975929
 20
229.4538336208503
 30
0.0
 11
400.6177851920203
 21
229.37094912523378
 31
0.0
  0
LINE
  5
403
330
17
100
AcDbEntity
  8
OUTLINE
100
AcDbLine
 10
400.6177851920203
 20
230.6308346787718
 30
0.0
 11
400.80621165444927
 21
230.71273322238162
 31
0.0
  0
LINE
  5
404
330
17
100
AcDbEntity
  8
OUTLINE
100
AcDbLine
 10
400.6177851920203
 20
229.37094912523378
 30
0.0
 11
400.80621165444927
 21
229.2890640896381
 31
0.0
  0
LINE
  5
405
330
17
100
AcDbEntity
  8
OUTLINE
100
AcDbLine
 10
400.80621165444927
 20
230.71273322238162
 30
0.0
 11
401.01937054679456
 21
230.78902173367754
 31
0.0
  0
LINE
  5
406
330
17
100
AcDbEntity
  8
OUTLINE
100
AcDbLine
 10
400.80621165444927
 20
229.2890640896381
 30
0.0
 11
401.01937054679456
 21
229.21280923379456
 31
0.0
  0
LINE
  5
407
330
17
100
AcDbEntity
  8
OUTLINE
100
AcDbLine
 10
401.01937054679456
 20
230.78902173367754
 30
0.0
 11
401.2571157805989
 21
230.86312214579775
 31
0.0
  0
LINE
  5
408
330
17
100
AcDbEntity
  8
OUTLINE
100
AcDbLine
 10
401.01937054679456
 20
229.21280923379456
 30
0.0
 11
401.2571157805989
 21
229.13870108267696
 31
0.0
  0
LINE
  5
409
330
17
100
AcDbEntity
  8
OUTLINE
100
AcDbLine
 10
401.2571157805989
 20
230.86312214579775
 30
0.0
 11
401.5192844171547
 21
230.936585744595
 31
0.0
  0
LINE
  5
40A
330
17
100
AcDbEntity
  8
OUTLINE
100
AcDbLine
 10
401.2571157805989
 20
229.13870108267696
 30
0.0
 11
401.5192844171547
 21
229.0652098443716
 31
0.0
  0
LINE
  5
40B
330
17
100
AcDbEntity
  8
OUTLINE
100
AcDbLine
 10
401.5192844171547
 20
230.936585744595
 30
0.0
 11
401.8056967791741
 21
231.00335495492422
 31
0.0
  0
LINE
  5
40C
330
17
100
AcDbEntity
  8
OUTLINE
100
AcDbLine
 10
401.5192844171547
 20
229.0652098443716
 30
0.0
 11
401.8056967791741
 21
228.99842558834393
 31
0.0
  0
LINE
  5
40D
330
17
100
AcDbEntity
  8
OUTLINE
100
AcDbLine
 10
401.8056967791741
 20
231.00335495492422
 30
0.0
 11
402.11615657393077
 21
231.07092402705516
 31
0.0
  0
LINE
  5
40E
330
17
100
AcDbEntity
  8
OUTLINE
100
AcDbLine
 10
401.8056967791741
 20
228.99842558834393
 30
0.0
 11
402.11615657393077
 21
228.93084682810232
 31
0.0
  0
LINE
  5
40F
330
17
100
AcDbEntity
  8
OUTLINE
100
AcDbLine
 10
402.11615657393077
 20
231.07092402705516
 30
0.0
 11
402.45045102778914
 21
231.1318234648578
 31
0.0
  0
LINE
  5
410
330
17
100
AcDbEntity
  8
OUTLINE
100
AcDbLine
 10
402.11615657393077
 20
228.93084682810232
 30
0.0
 11
402.45045102778914
 21
228.86994860000974
 31
0.0
  0
LINE
  5
411
330
17
100
AcDbEntity
  8
OUTLINE
100
AcDbLine
 10
402.45045102778914
 20
231.1318234648578
 30
0.0
 11
402.80835103202895
 21
231.1918640814571
 31
0.0
  0
LINE
  5
412
330
17
100
AcDbEntity
  8
OUTLINE
100
AcDbLine
 10
402.45045102778914
 20
228.86994860000974
 30
0.0
 11
402.80835103202895
 21
228.80990812955716
 31
0.0
  0
LINE
  5
413
330
17
100
AcDbEntity
  8
OUTLINE
100
AcDbLine
 10
402.80835103202895
 20
231.1918640814571
 30
0.0
 11
403.1896112998648
 21
231.2475916322323
 31
0.0
  0
LINE
  5
414
330
17
100
AcDbEntity
  8
OUTLINE
100
AcDbLine
 10
402.80835103202895
 20
228.80990812955716
 30
0.0
 11
403.1896112998648
 21
228.75416815270384
 31
0.0
  0
LINE
  5
415
330
17
100
AcDbEntity
  8
OUTLINE
100
AcDbLine
 10
403.1896112998648
 20
231.2475916322323
 30
0.0
 11
403.59397053455353
 21
231.2994107299772
 31
0.0
  0
LINE
  5
416
330
17
100
AcDbEntity
  8
OUTLINE
100
AcDbLine
 10
403.1896112998648
 20
228.75416815270384
 30
0.0
 11
403.59397053455353
 21
228.70232326334823
 31
0.0
  0
LINE
  5
417
330
17
100
AcDbEntity
  8
OUTLINE
100
AcDbLine
 10
403.59397053455353
 20
231.2994107299772
 30
0.0
 11
404.0211516084738
 21
231.3487206348728
 31
0.0
  0
LINE
  5
418
330
17
100
AcDbEntity
  8
OUTLINE
100
AcDbLine
 10
403.59397053455353
 20
228.70232326334823
 30
0.0
 11
404.0211516084738
 21
228.65299327005943
 31
0.0
  0
LINE
  5
419
330
17
100
AcDbEntity
  8
OUTLINE
100
AcDbLine
 10
404.0211516084738
 20
231.3487206348728
 30
0.0
 11
404.47086175305583
 21
231.39283235217235
 31
0.0
  0
LINE
  5
41A
330
17
100
AcDbEntity
  8
OUTLINE
100
AcDbLine
 10
404.0211516084738
 20
228.65299327005943
 30
0.0
 11
404.47086175305583
 21
228.60887548325428
 31
0.0
  0
LINE
  5
41B
330
17
100
AcDbEntity
  8
OUTLINE
100
AcDbLine
 10
404.47086175305583
 20
231.39283235217235
 30
0.0
 11
404.94279275942995
 21
231.43520917819777
 31
0.0
  0
LINE
  5
41C
330
17
100
AcDbEntity
  8
OUTLINE
100
AcDbLine
 10
404.47086175305583
 20
228.60887548325428
 30
0.0
 11
404.94279275942995
 21
228.56649993030064
 31
0.0
  0
LINE
  5
41D
330
17
100
AcDbEntity
  8
OUTLINE
100
AcDbLine
 10
404.94279275942995
 20
231.43520917819777
 30
0.0
 11
405.43662118965784
 21
231.47203713245128
 31
0.0
  0
LINE
  5
41E
330
17
100
AcDbEntity
  8
OUTLINE
100
AcDbLine
 10
404.94279275942995
 20
228.56649993030064
 30
0.0
 11
405.43662118965784
 21
228.5296736982682
 31
0.0
  0
LINE
  5
41F
330
17
100
AcDbEntity
  8
OUTLINE
100
AcDbLine
 10
405.43662118965784
 20
231.47203713245128
 30
0.0
 11
405.9520085984008
 21
231.50705779117789
 31
0.0
  0
LINE
  5
420
330
17
100
AcDbEntity
  8
OUTLINE
100
AcDbLine
 10
405.43662118965784
 20
228.5296736982682
 30
0.0
 11
405.9520085984008
 21
228.49464296945058
 31
0.0
  0
LINE
  5
421
330
17
100
AcDbEntity
  8
OUTLINE
100
AcDbLine
 10
405.9520085984008
 20
231.50705779117789
 30
0.0
 11
406.48860176487307
 21
231.53720755328013
 31
0.0
  0
LINE
  5
422
330
17
100
AcDbEntity
  8
OUTLINE
100
AcDbLine
 10
405.9520085984008
 20
228.49464296945058
 30
0.0
 11
406.48860176487307
 21
228.46445380482686
 31
0.0
  0
LINE
  5
423
330
17
100
AcDbEntity
  8
OUTLINE
100
AcDbLine
 10
406.48860176487307
 20
231.53720755328013
 30
0.0
 11
407.04603293492164
 21
231.56435209396759
 31
0.0
  0
LINE
  5
424
330
17
100
AcDbEntity
  8
OUTLINE
100
AcDbLine
 10
406.48860176487307
 20
228.46445380482686
 30
0.0
 11
407.04603293492164
 21
228.43727421664386
 31
0.0
  0
LINE
  5
425
330
17
100
AcDbEntity
  8
OUTLINE
100
AcDbLine
 10
407.04603293492164
 20
231.56435209396759
 30
0.0
 11
407.623920073067
 21
231.5885070157095
 31
0.0
  0
LINE
  5
426
330
17
100
AcDbEntity
  8
OUTLINE
100
AcDbLine
 10
407.04603293492164
 20
228.43727421664386
 30
0.0
 11
407.623920073067
 21
228.41308732249283
 31
0.0
  0
LINE
  5
427
330
17
100
AcDbEntity
  8
OUTLINE
100
AcDbLine
 10
407.623920073067
 20
231.5885070157095
 30
0.0
 11
408.2218671243307
 21
231.60778766779688
 31
0.0
  0
LINE
  5
428
330
17
100
AcDbEntity
  8
OUTLINE
100
AcDbLine
 10
407.623920073067
 20
228.41308732249283
 30
0.0
 11
408.2218671243307
 21
228.39379706199495
 31
0.0
  0
LINE
  5
429
330
17
100
AcDbEntity
  8
OUTLINE
100
AcDbLine
 10
408.2218671243307
 20
231.60778766779688
 30
0.0
 11
408.83946428567197
 21
231.62531942723356
 31
0.0
  0
LINE
  5
42A
330
17
100
AcDbEntity
  8
OUTLINE
100
AcDbLine
 10
408.2218671243307
 20
228.39379706199495
 30
0.0
 11
408.83946428567197
 21
228.37626185422735
 31
0.0
  0
LINE
  5
42B
330
17
100
AcDbEntity
  8
OUTLINE
100
AcDbLine
 10
408.83946428567197
 20
231.62531942723356
 30
0.0
 11
409.476288286846
 21
231.63740873867718
 31
0.0
  0
LINE
  5
42C
330
17
100
AcDbEntity
  8
OUTLINE
100
AcDbLine
 10
408.83946428567197
 20
228.37626185422735
 30
0.0
 11
409.476288286846
 21
228.364171904098
 31
0.0
  0
LINE
  5
42D
330
17
100
AcDbEntity
  8
OUTLINE
100
AcDbLine
 10
409.476288286846
 20
231.63740873867718
 30
0.0
 11
410.13190268049254
 21
231.64680643907852
 31
0.0
  0
LINE
  5
42E
330
17
100
AcDbEntity
  8
OUTLINE
100
AcDbLine
 10
409.476288286846
 20
228.364171904098
 30
0.0
 11
410.13190268049254
 21
228.3547744740314
 31
0.0
  0
LINE
  5
42F
330
17
100
AcDbEntity
  8
OUTLINE
100
AcDbLine
 10
410.13190268049254
 20
231.64680643907852
 30
0.0
 11
410.8058581412549
 21
231.65340259829097
 31
0.0
  0
LINE
  5
430
330
17
100
AcDbEntity
  8
OUTLINE
100
AcDbLine
 10
410.13190268049254
 20
228.3547744740314
 30
0.0
 11
410.8058581412549
 21
228.34817831481894
 31
0.0
  0
LINE
  5
431
330
17
100
AcDbEntity
  8
OUTLINE
100
AcDbLine
 10
410.8058581412549
 20
231.65340259829097
 30
0.0
 11
411.49769277372496
 21
231.65485010828823
 31
0.0
  0
LINE
  5
432
330
17
100
AcDbEntity
  8
OUTLINE
100
AcDbLine
 10
410.8058581412549
 20
228.34817831481894
 30
0.0
 11
411.49769277372496
 21
228.3466906137776
 31
0.0
  0
LINE
  5
433
330
17
100
AcDbEntity
  8
OUTLINE
100
AcDbLine
 10
411.49769277372496
 20
231.65485010828823
 30
0.0
 11
412.20693242900364
 21
231.65373092564974
 31
0.0
  0
LINE
  5
434
330
17
100
AcDbEntity
  8
OUTLINE
100
AcDbLine
 10
411.49769277372496
 20
228.3466906137776
 30
0.0
 11
412.20693242900364
 21
228.34776769874048
 31
0.0
  0
LINE
  5
435
330
17
100
AcDbEntity
  8
OUTLINE
100
AcDbLine
 10
412.20693242900364
 20
231.65373092564974
 30
0.0
 11
412.93309102965856
 21
231.6494833657166
 31
0.0
  0
LINE
  5
436
330
17
100
AcDbEntity
  8
OUTLINE
100
AcDbLine
 10
412.20693242900364
 20
228.34776769874048
 30
0.0
 11
412.93309102965856
 21
228.35197916887572
 31
0.0
  0
LINE
  5
437
330
17
100
AcDbEntity
  8
OUTLINE
100
AcDbLine
 10
412.93309102965856
 20
231.6494833657166
 30
0.0
 11
413.6756709028571
 21
231.64123086672302
 31
0.0
  0
LINE
  5
438
330
17
100
AcDbEntity
  8
OUTLINE
100
AcDbLine
 10
412.93309102965856
 20
228.35197916887572
 30
0.0
 11
413.6756709028571
 21
228.36022531270132
 31
0.0
  0
LINE
  5
439
330
17
100
AcDbEntity
  8
OUTLINE
100
AcDbLine
 10
413.6756709028571
 20
231.64123086672302
 30
0.0
 11
414.434163121447
 21
231.63008172816427
 31
0.0
  0
LINE
  5
43A
330
17
100
AcDbEntity
  8
OUTLINE
100
AcDbLine
 10
413.6756709028571
 20
228.36022531270132
 30
0.0
 11
414.434163121447
 21
228.37136480596752
 31
0.0
  0
LINE
  5
43B
330
17
100
AcDbEntity
  8
OUTLINE
100
AcDbLine
 10
414.434163121447
 20
231.63008172816427
 30
0.0
 11
415.20804785274913
 21
231.61602606349786
 31
0.0
  0
LINE
  5
43C
330
17
100
AcDbEntity
  8
OUTLINE
100
AcDbLine
 10
414.434163121447
 20
228.37136480596752
 30
0.0
 11
415.20804785274913
 21
228.3854207557263
 31
0.0
  0
LINE
  5
43D
330
17
100
AcDbEntity
  8
OUTLINE
100
AcDbLine
 10
415.20804785274913
 20
231.61602606349786
 30
0.0
 11
415.99679471482506
 21
231.59941705352716
 31
0.0
  0
LINE
  5
43E
330
17
100
AcDbEntity
  8
OUTLINE
100
AcDbLine
 10
415.20804785274913
 20
228.3854207557263
 30
0.0
 11
415.99679471482506
 21
228.40203072424475
 31
0.0
  0
LINE
  5
43F
330
17
100
AcDbEntity
  8
OUTLINE
100
AcDbLine
 10
415.99679471482506
 20
231.59941705352716
 30
0.0
 11
416.7998631399743
 21
231.57965031495473
 31
0.0
  0
LINE
  5
440
330
17
100
AcDbEntity
  8
OUTLINE
100
AcDbLine
 10
415.99679471482506
 20
228.40203072424475
 30
0.0
 11
416.7998631399743
 21
228.42175456724115
 31
0.0
  0
LINE
  5
441
330
17
100
AcDbEntity
  8
OUTLINE
100
AcDbLine
 10
416.7998631399743
 20
231.57965031495473
 30
0.0
 11
417.6167027452124
 21
231.55760621583278
 31
0.0
  0
LINE
  5
442
330
17
100
AcDbEntity
  8
OUTLINE
100
AcDbLine
 10
416.7998631399743
 20
228.42175456724115
 30
0.0
 11
417.6167027452124
 21
228.44374891285375
 31
0.0
  0
LINE
  5
443
330
17
100
AcDbEntity
  8
OUTLINE
100
AcDbLine
 10
417.6167027452124
 20
231.55760621583278
 30
0.0
 11
418.44675370947607
 21
231.5336652407275
 31
0.0
  0
LINE
  5
444
330
17
100
AcDbEntity
  8
OUTLINE
100
AcDbLine
 10
417.6167027452124
 20
228.44374891285375
 30
0.0
 11
418.44675370947607
 21
228.46766235449311
 31
0.0
  0
LINE
  5
445
330
17
100
AcDbEntity
  8
OUTLINE
100
AcDbLine
 10
418.44675370947607
 20
231.5336652407275
 30
0.0
 11
419.2894471572963
 21
231.50801645784168
 31
0.0
  0
LINE
  5
446
330
17
100
AcDbEntity
  8
OUTLINE
100
AcDbLine
 10
418.44675370947607
 20
228.46766235449311
 30
0.0
 11
419.2894471572963
 21
228.49331105518712
 31
0.0
  0
LINE
  5
447
330
17
100
AcDbEntity
  8
OUTLINE
100
AcDbLine
 10
419.2894471572963
 20
231.50801645784168
 30
0.0
 11
420.1442055486774
 21
231.48064726046707
 31
0.0
  0
LINE
  5
448
330
17
100
AcDbEntity
  8
OUTLINE
100
AcDbLine
 10
419.2894471572963
 20
228.49331105518712
 30
0.0
 11
420.1442055486774
 21
228.52067311629895
 31
0.0
  0
LINE
  5
449
330
17
100
AcDbEntity
  8
OUTLINE
100
AcDbLine
 10
420.1442055486774
 20
231.48064726046707
 30
0.0
 11
421.01044307491406
 21
231.45182581211517
 31
0.0
  0
LINE
  5
44A
330
17
100
AcDbEntity
  8
OUTLINE
100
AcDbLine
 10
420.1442055486774
 20
228.52067311629895
 30
0.0
 11
421.01044307491406
 21
228.5494458233875
 31
0.0
  0
LINE
  5
44B
330
17
100
AcDbEntity
  8
OUTLINE
100
AcDbLine
 10
421.01044307491406
 20
231.45182581211517
 30
0.0
 11
421.8875660600754
 21
231.42200563533757
 31
0.0
  0
LINE
  5
44C
330
17
100
AcDbEntity
  8
OUTLINE
100
AcDbLine
 10
421.01044307491406
 20
228.5494458233875
 30
0.0
 11
421.8875660600754
 21
228.57924994207806
 31
0.0
  0
LINE
  5
44D
330
17
100
AcDbEntity
  8
OUTLINE
100
AcDbLine
 10
421.8875660600754
 20
231.42200563533757
 30
0.0
 11
422.77497336788065
 21
231.3912830373446
 31
0.0
  0
LINE
  5
44E
330
17
100
AcDbEntity
  8
OUTLINE
100
AcDbLine
 10
421.8875660600754
 20
228.57924994207806
 30
0.0
 11
422.77497336788065
 21
228.60994832704068
 31
0.0
  0
LINE
  5
44F
330
17
100
AcDbEntity
  8
OUTLINE
100
AcDbLine
 10
422.77497336788065
 20
231.3912830373446
 30
0.0
 11
423.67205681368796
 21
231.35972386466022
 31
0.0
  0
LINE
  5
450
330
17
100
AcDbEntity
  8
OUTLINE
100
AcDbLine
 10
422.77497336788065
 20
228.60994832704068
 30
0.0
 11
423.67205681368796
 21
228.64147101232086
 31
0.0
  0
LINE
  5
451
330
17
100
AcDbEntity
  8
OUTLINE
100
AcDbLine
 10
423.67205681368796
 20
231.35972386466022
 30
0.0
 11
424.5782015813139
 21
231.32764678030134
 31
0.0
  0
LINE
  5
452
330
17
100
AcDbEntity
  8
OUTLINE
100
AcDbLine
 10
423.67205681368796
 20
228.64147101232086
 30
0.0
 11
424.5782015813139
 21
228.67354125482376
 31
0.0
  0
LINE
  5
453
330
17
100
AcDbEntity
  8
OUTLINE
100
AcDbLine
 10
424.5782015813139
 20
231.32764678030134
 30
0.0
 11
425.4927866443977
 21
231.29515469026927
 31
0.0
  0
LINE
  5
454
330
17
100
AcDbEntity
  8
OUTLINE
100
AcDbLine
 10
424.5782015813139
 20
228.67354125482376
 30
0.0
 11
425.4927866443977
 21
228.70603083165125
 31
0.0
  0
LINE
  5
455
330
17
100
AcDbEntity
  8
OUTLINE
100
AcDbLine
 10
425.4927866443977
 20
231.29515469026927
 30
0.0
 11
426.41518519202174
 21
231.262345230935
 31
0.0
  0
LINE
  5
456
330
17
100
AcDbEntity
  8
OUTLINE
100
AcDbLine
 10
425.4927866443977
 20
228.70603083165125
 30
0.0
 11
426.41518519202174
 21
228.73879105531614
 31
0.0
  0
LINE
  5
457
330
17
100
AcDbEntity
  8
OUTLINE
100
AcDbLine
 10
426.41518519202174
 20
231.262345230935
 30
0.0
 11
427.3447650582962
 21
231.22923156943747
 31
0.0
  0
LINE
  5
458
330
17
100
AcDbEntity
  8
OUTLINE
100
AcDbLine
 10
426.41518519202174
 20
228.73879105531614
 30
0.0
 11
427.3447650582962
 21
228.7718911609193
 31
0.0
  0
LINE
  5
459
330
17
100
AcDbEntity
  8
OUTLINE
100
AcDbLine
 10
427.3447650582962
 20
231.22923156943747
 30
0.0
 11
428.2808891556143
 21
231.19602509388596
 31
0.0
  0
LINE
  5
45A
330
17
100
AcDbEntity
  8
OUTLINE
100
AcDbLine
 10
427.3447650582962
 20
228.7718911609193
 30
0.0
 11
428.2808891556143
 21
228.80505619057894
 31
0.0
  0
LINE
  5
45B
330
17
100
AcDbEntity
  8
OUTLINE
100
AcDbLine
 10
428.2808891556143
 20
231.19602509388596
 30
0.0
 11
429.22291591128027
 21
231.16270242716
 31
0.0
  0
LINE
  5
45C
330
17
100
AcDbEntity
  8
OUTLINE
100
AcDbLine
 10
428.2808891556143
 20
228.80505619057894
 30
0.0
 11
429.22291591128027
 21
228.8383225268996
 31
0.0
  0
LINE
  5
45D
330
17
100
AcDbEntity
  8
OUTLINE
100
AcDbLine
 10
429.22291591128027
 20
231.16270242716
 30
0.0
 11
430.17019970721094
 21
231.12939096154983
 31
0.0
  0
LINE
  5
45E
330
17
100
AcDbEntity
  8
OUTLINE
100
AcDbLine
 10
429.22291591128027
 20
228.8383225268996
 30
0.0
 11
430.17019970721094
 21
228.87162689720176
 31
0.0
  0
LINE
  5
45F
330
17
100
AcDbEntity
  8
OUTLINE
100
AcDbLine
 10
430.17019970721094
 20
231.12939096154983
 30
0.0
 11
431.1220913224106
 21
231.0978125558581
 31
0.0
  0
LINE
  5
460
330
17
100
AcDbEntity
  8
OUTLINE
100
AcDbLine
 10
430.17019970721094
 20
228.87162689720176
 30
0.0
 11
431.1220913224106
 21
228.9032176087776
 31
0.0
  0
LINE
  5
461
330
17
100
AcDbEntity
  8
OUTLINE
100
AcDbLine
 10
431.1220913224106
 20
231.0978125558581
 30
0.0
 11
432.0779383779141
 21
231.06881510090753
 31
0.0
  0
LINE
  5
462
330
17
100
AcDbEntity
  8
OUTLINE
100
AcDbLine
 10
431.1220913224106
 20
228.9032176087776
 30
0.0
 11
432.0779383779141
 21
228.93217372686155
 31
0.0
  0
LINE
  5
463
330
17
100
AcDbEntity
  8
OUTLINE
100
AcDbLine
 10
432.0779383779141
 20
231.06881510090753
 30
0.0
 11
433.0370857838953
 21
231.0395751347762
 31
0.0
  0
LINE
  5
464
330
17
100
AcDbEntity
  8
OUTLINE
100
AcDbLine
 10
432.0779383779141
 20
228.93217372686155
 30
0.0
 11
433.0370857838953
 21
228.96140372398028
 31
0.0
  0
LINE
  5
465
330
17
100
AcDbEntity
  8
OUTLINE
100
AcDbLine
 10
433.0370857838953
 20
231.0395751347762
 30
0.0
 11
433.9988761886326
 21
231.01018465467814
 31
0.0
  0
LINE
  5
466
330
17
100
AcDbEntity
  8
OUTLINE
100
AcDbLine
 10
433.0370857838953
 20
228.96140372398028
 30
0.0
 11
433.9988761886326
 21
228.99074342114238
 31
0.0
  0
LINE
  5
467
330
17
100
AcDbEntity
  8
OUTLINE
100
AcDbLine
 10
433.9988761886326
 20
231.01018465467814
 30
0.0
 11
434.96265042902513
 21
230.98060623364648
 31
0.0
  0
LINE
  5
468
330
17
100
AcDbEntity
  8
OUTLINE
100
AcDbLine
 10
433.9988761886326
 20
228.99074342114238
 30
0.0
 11
434.96265042902513
 21
229.02031728186734
 31
0.0
  0
LINE
  5
469
330
17
100
AcDbEntity
  8
OUTLINE
100
AcDbLine
 10
434.96265042902513
 20
230.98060623364648
 30
0.0
 11
435.9277479823501
 21
230.95085501461938
 31
0.0
  0
LINE
  5
46A
330
17
100
AcDbEntity
  8
OUTLINE
100
AcDbLine
 10
434.96265042902513
 20
229.02031728186734
 30
0.0
 11
435.9277479823501
 21
229.0500115451171
 31
0.0
  0
LINE
  5
46B
330
17
100
AcDbEntity
  8
OUTLINE
100
AcDbLine
 10
435.9277479823501
 20
230.95085501461938
 30
0.0
 11
436.89350741895214
 21
230.92104646646982
 31
0.0
  0
LINE
  5
46C
330
17
100
AcDbEntity
  8
OUTLINE
100
AcDbLine
 10
435.9277479823501
 20
229.0500115451171
 30
0.0
 11
436.89350741895214
 21
229.07981205026826
 31
0.0
  0
LINE
  5
46D
330
17
100
AcDbEntity
  8
OUTLINE
100
AcDbLine
 10
400.0
 20
230.0
 30
0.0
 11
400.0
 21
230.0
 31
0.0
  0
LINE
  5
46E
330
17
100
AcDbEntity
  8
SECTION
100
AcDbLine
 10
436.89350741895214
 20
229.07981205026826
 30
0.0
 11
436.89350741895214
 21
230.92104646646982
 31
0.0
  0
TEXT
  5
46F
330
17
100
AcDbEntity
  8
TEXT
100
AcDbText
 10
438.89350741895214
 20
231.92104646646982
 30
0.0
 40
1.3
  1
hingeface
 11
438.89350741895214
 21
231.92104646646982
 31
0.0
100
AcDbText
  0
CIRCLE
  5
470
330
17
100
AcDbEntity
  8
SPAR
100
AcDbCircle
 10
411.39350741895214
 20
230.0
 30
0.0
 40
1.55
  0
LINE
  5
471
330
17
100
AcDbEntity
  8
CENTERLINE
100
AcDbLine
 10
397.0
 20
230.0
 30
0.0
 11
441.89350741895214
 21
230.0
 31
0.0
  0
DIMENSION
  5
472
330
17
100
AcDbEntity
  8
0
100
AcDbDimension
280
0
  2
*D5
  3
AEROFORGE
 10
400.0
 20
223.07895353353018
 30
0.0
 11
418.44675370947607
 21
223.07895353353018
 31
0.0
 70
32
 71
5
  1
<>
100
AcDbAlignedDimension
 13
400.0
 23
230.0
 33
0.0
 14
436.89350741895214
 24
230.0
 34
0.0
 50
0.0
100
AcDbRotatedDimension
  0
TEXT
  5
482
330
17
100
AcDbEntity
  8
TEXT
100
AcDbText
 10
25.0
 20
175.0
 30
0.0
 40
2.0
  1
NOTES:
 11
25.0
 21
175.0
 31
0.0
100
AcDbText
  0
TEXT
  5
483
330
17
100
AcDbEntity
  8
TEXT
100
AcDbText
 10
25.0
 20
170.2
 30
0.0
 40
2.0
  1
1. All dims mm. 1:1. HStab_Right = mirror of this drawing.
 11
25.0
 21
170.2
 31
0.0
100
AcDbText
  0
TEXT
  5
484
330
17
100
AcDbEntity
  8
TEXT
100
AcDbText
 10
25.0
 20
165.4
 30
0.0
 40
2.0
  1
2. This component = STAB SHELL ONLY (LE to hinge face X=60.0).
 11
25.0
 21
165.4
 31
0.0
100
AcDbText
  0
TEXT
  5
485
330
17
100
AcDbEntity
  8
TEXT
100
AcDbText
 10
25.0
 20
160.6
 30
0.0
 40
2.0
  1
   Does NOT include elevator. Sections show stab geometry only.
 11
25.0
 21
160.6
 31
0.0
100
AcDbText
  0
TEXT
  5
486
330
17
100
AcDbEntity
  8
TEXT
100
AcDbText
 10
25.0
 20
155.8
 30
0.0
 40
2.0
  1
3. MAIN SPAR: 3mm CF tube, D3.1 bore, X=34.5. To y=189. 378mm total.
 11
25.0
 21
155.8
 31
0.0
100
AcDbText
  0
TEXT
  5
487
330
17
100
AcDbEntity
  8
TEXT
100
AcDbText
 10
25.0
 20
151.0
 30
0.0
 40
2.0
  1
   ONLY spar (rear spar + stiffener removed in v6).
 11
25.0
 21
151.0
 31
0.0
100
AcDbText
  0
TEXT
  5
488
330
17
100
AcDbEntity
  8
TEXT
100
AcDbText
 10
25.0
 20
146.2
 30
0.0
 40
2.0
  1
4. HINGE FACE: concave saddle channel at X=60.0.
 11
25.0
 21
146.2
 31
0.0
100
AcDbText
  0
TEXT
  5
489
330
17
100
AcDbEntity
  8
TEXT
100
AcDbText
 10
25.0
 20
141.4
 30
0.0
 40
2.0
  1
   Saddle tapers from 2.5mm depth at root to 0 at y=206.
 11
25.0
 21
141.4
 31
0.0
100
AcDbText
  0
TEXT
  5
48A
330
17
100
AcDbEntity
  8
TEXT
100
AcDbText
 10
25.0
 20
136.6
 30
0.0
 40
2.0
  1
5. Sections show the CUT FACE at the hinge — open, with saddle cavity.
 11
25.0
 21
136.6
 31
0.0
100
AcDbText
  0
TEXT
  5
48B
330
17
100
AcDbEntity
  8
TEXT
100
AcDbText
 10
25.0
 20
131.8
 30
0.0
 40
2.0
  1
6. Wall: 0.45mm vase (main), 0.6mm saddle zone (printed at 210C dense).
 11
25.0
 21
131.8
 31
0.0
100
AcDbText
  0
TEXT
  5
48C
330
17
100
AcDbEntity
  8
TEXT
100
AcDbText
 10
25.0
 20
127.0
 30
0.0
 40
2.0
  1
7. v6: single spar, forward hinge, concealed mechanism. 29.3g assembly total.
 11
25.0
 21
127.0
 31
0.0
100
AcDbText
  0
ENDSEC
  0
SECTION
  2
OBJECTS
  0
DICTIONARY
  5
A
330
0
100
AcDbDictionary
281
1
  3
ACAD_COLOR
350
B
  3
ACAD_GROUP
350
C
  3
ACAD_LAYOUT
350
D
  3
ACAD_MATERIAL
350
E
  3
ACAD_MLEADERSTYLE
350
F
  3
ACAD_MLINESTYLE
350
10
  3
ACAD_PLOTSETTINGS
350
11
  3
ACAD_PLOTSTYLENAME
350
12
  3
ACAD_SCALELIST
350
14
  3
ACAD_TABLESTYLE
350
15
  3
ACAD_VISUALSTYLE
350
16
  3
EZDXF_META
350
2D
  0
DICTIONARY
  5
B
330
A
100
AcDbDictionary
281
1
  0
DICTIONARY
  5
C
330
A
100
AcDbDictionary
281
1
  0
DICTIONARY
  5
D
330
A
100
AcDbDictionary
281
1
  3
Model
350
1A
  3
Layout1
350
1E
  0
DICTIONARY
  5
E
330
A
100
AcDbDictionary
281
1
  3
ByBlock
350
1F
  3
ByLayer
350
20
  3
Global
350
21
  0
DICTIONARY
  5
F
330
A
100
AcDbDictionary
281
1
  3
Standard
350
2C
  0
DICTIONARY
  5
10
330
A
100
AcDbDictionary
281
1
  3
Standard
350
22
  0
DICTIONARY
  5
11
330
A
100
AcDbDictionary
281
1
  0
ACDBDICTIONARYWDFLT
  5
12
330
A
100
AcDbDictionary
281
1
  3
Normal
350
13
100
AcDbDictionaryWithDefault
340
13
  0
ACDBPLACEHOLDER
  5
13
330
12
  0
DICTIONARY
  5
14
330
A
100
AcDbDictionary
281
1
  0
DICTIONARY
  5
15
330
A
100
AcDbDictionary
281
1
  0
DICTIONARY
  5
16
330
A
100
AcDbDictionary
281
1
  3
2dWireframe
350
5A
  3
Basic
350
5B
  3
Brighten
350
5C
  3
ColorChange
350
5D
  3
Conceptual
350
5E
  3
Dim
350
5F
  3
EdgeColorOff
350
60
  3
Facepattern
350
61
  3
Flat
350
62
  3
FlatWithEdges
350
63
  3
Gouraud
350
64
  3
GouraudWithEdges
350
65
  3
Hidden
350
66
  3
JitterOff
350
67
  3
Linepattern
350
68
  3
Modeling
350
69
  3
OverhangOff
350
6A
  3
Realistic
350
6B
  3
Shaded
350
6C
  3
Shaded with edges
350
6D
  3
Shades of Gray
350
6E
  3
Sketchy
350
6F
  3
Thicken
350
70
  3
Wireframe
350
71
  3
X-Ray
350
72
  0
LAYOUT
  5
1A
330
D
100
AcDbPlotSettings
  1

  4
A3
  6

 40
7.5
 41
20.0
 42
7.5
 43
20.0
 44
420.0
 45
297.0
 46
0.0
 47
0.0
 48
0.0
 49
0.0
140
0.0
141
0.0
142
1.0
143
1.0
 70
1024
 72
1
 73
0
 74
5
  7

 75
16
 76
0
 77
2
 78
300
147
1.0
148
0.0
149
0.0
100
AcDbLayout
  1
Model
 70
1
 71
0
 10
0.0
 20
0.0
 11
420.0
 21
297.0
 12
0.0
 22
0.0
 32
0.0
 14
1e+20
 24
1e+20
 34
1e+20
 15
-1e+20
 25
-1e+20
 35
-1e+20
146
0.0
 13
0.0
 23
0.0
 33
0.0
 16
1.0
 26
0.0
 36
0.0
 17
0.0
 27
1.0
 37
0.0
 76
1
330
17
  0
LAYOUT
  5
1E
330
D
100
AcDbPlotSettings
  1

  4
A3
  6

 40
7.5
 41
20.0
 42
7.5
 43
20.0
 44
420.0
 45
297.0
 46
0.0
 47
0.0
 48
0.0
 49
0.0
140
0.0
141
0.0
142
1.0
143
1.0
 70
0
 72
1
 73
0
 74
5
  7

 75
16
 76
0
 77
2
 78
300
147
1.0
148
0.0
149
0.0
100
AcDbLayout
  1
Layout1
 70
1
 71
1
 10
0.0
 20
0.0
 11
420.0
 21
297.0
 12
0.0
 22
0.0
 32
0.0
 14
1e+20
 24
1e+20
 34
1e+20
 15
-1e+20
 25
-1e+20
 35
-1e+20
146
0.0
 13
0.0
 23
0.0
 33
0.0
 16
1.0
 26
0.0
 36
0.0
 17
0.0
 27
1.0
 37
0.0
 76
1
330
1B
  0
MATERIAL
  5
1F
102
{ACAD_REACTORS
330
E
102
}
330
E
100
AcDbMaterial
  1
ByBlock
  2

 70
0
 40
1.0
 71
1
 41
1.0
 91
-1023410177
 42
1.0
 72
1
  3

 73
1
 74
1
 75
1
 44
0.5
 73
0
 45
1.0
 46
1.0
 77
1
  4

 78
1
 79
1
170
1
 48
1.0
171
1
  6

172
1
173
1
174
1
140
1.0
141
1.0
175
1
  7

176
1
177
1
178
1
143
1.0
179
1
  8

270
1
271
1
272
1
145
1.0
146
1.0
273
1
  9

274
1
275
1
276
1
 42
1.0
 72
1
  3

 73
1
 74
1
 75
1
 94
63
  0
MATERIAL
  5
20
102
{ACAD_REACTORS
330
E
102
}
330
E
100
AcDbMaterial
  1
ByLayer
  2

 70
0
 40
1.0
 71
1
 41
1.0
 91
-1023410177
 42
1.0
 72
1
  3

 73
1
 74
1
 75
1
 44
0.5
 73
0
 45
1.0
 46
1.0
 77
1
  4

 78
1
 79
1
170
1
 48
1.0
171
1
  6

172
1
173
1
174
1
140
1.0
141
1.0
175
1
  7

176
1
177
1
178
1
143
1.0
179
1
  8

270
1
271
1
272
1
145
1.0
146
1.0
273
1
  9

274
1
275
1
276
1
 42
1.0
 72
1
  3

 73
1
 74
1
 75
1
 94
63
  0
MATERIAL
  5
21
102
{ACAD_REACTORS
330
E
102
}
330
E
100
AcDbMaterial
  1
Global
  2

 70
0
 40
1.0
 71
1
 41
1.0
 91
-1023410177
 42
1.0
 72
1
  3

 73
1
 74
1
 75
1
 44
0.5
 73
0
 45
1.0
 46
1.0
 77
1
  4

 78
1
 79
1
170
1
 48
1.0
171
1
  6

172
1
173
1
174
1
140
1.0
141
1.0
175
1
  7

176
1
177
1
178
1
143
1.0
179
1
  8

270
1
271
1
272
1
145
1.0
146
1.0
273
1
  9

274
1
275
1
276
1
 42
1.0
 72
1
  3

 73
1
 74
1
 75
1
 94
63
  0
MLINESTYLE
  5
22
102
{ACAD_REACTORS
330
10
102
}
330
10
100
AcDbMlineStyle
  2
Standard
 70
0
  3

 62
256
 51
90.0
 52
90.0
 71
2
 49
0.5
 62
256
  6
BYLAYER
 49
-0.5
 62
256
  6
BYLAYER
  0
MLEADERSTYLE
  5
2C
102
{ACAD_REACTORS
330
F
102
}
330
F
100
AcDbMLeaderStyle
179
2
170
2
171
1
172
0
 90
2
 40
0.0
 41
0.0
173
1
 91
-1056964608
 92
-2
290
1
 42
2.0
291
1
 43
8.0
  3
Standard
 44
4.0
300

342
29
174
1
175
1
176
0
178
1
 93
-1056964608
 45
4.0
292
0
297
0
 46
4.0
 94
-1056964608
 47
1.0
 49
1.0
140
1.0
294
1
141
0.0
177
0
142
1.0
295
0
296
0
143
3.75
271
0
272
9
273
9
  0
DICTIONARY
  5
2D
330
A
100
AcDbDictionary
280
1
281
1
  3
CREATED_BY_EZDXF
350
2E
  3
WRITTEN_BY_EZDXF
350
48F
  0
DICTIONARYVAR
  5
2E
330
2D
100
DictionaryVariables
280
0
  1
1.4.3 @ 2026-03-31T12:25:28.677246+00:00
  0
VISUALSTYLE
  5
5A
102
{ACAD_REACTORS
330
16
102
}
330
16
100
AcDbVisualStyle
  2
2dWireframe
 70
4
 90
0
 40
0.6
 62
7
290
0
291
0
  0
VISUALSTYLE
  5
5B
102
{ACAD_REACTORS
330
16
102
}
330
16
100
AcDbVisualStyle
  2
Basic
 70
7
 90
1
 40
0.6
 62
7
290
0
291
1
  0
VISUALSTYLE
  5
5C
102
{ACAD_REACTORS
330
16
102
}
330
16
100
AcDbVisualStyle
  2
Brighten
 70
12
 90
2
 40
0.6
 62
7
290
0
291
1
  0
VISUALSTYLE
  5
5D
102
{ACAD_REACTORS
330
16
102
}
330
16
100
AcDbVisualStyle
  2
ColorChange
 70
16
 90
2
 40
0.6
 62
8
290
0
291
1
  0
VISUALSTYLE
  5
5E
102
{ACAD_REACTORS
330
16
102
}
330
16
100
AcDbVisualStyle
  2
Conceptual
 70
9
 90
3
 40
0.6
 62
7
290
0
291
0
  0
VISUALSTYLE
  5
5F
102
{ACAD_REACTORS
330
16
102
}
330
16
100
AcDbVisualStyle
  2
Dim
 70
11
 90
2
 40
0.6
 62
7
290
0
291
1
  0
VISUALSTYLE
  5
60
102
{ACAD_REACTORS
330
16
102
}
330
16
100
AcDbVisualStyle
  2
EdgeColorOff
 70
22
 90
2
 40
0.6
 62
7
290
0
291
1
  0
VISUALSTYLE
  5
61
102
{ACAD_REACTORS
330
16
102
}
330
16
100
AcDbVisualStyle
  2
Facepattern
 70
15
 90
2
 40
0.6
 62
7
290
0
291
1
  0
VISUALSTYLE
  5
62
102
{ACAD_REACTORS
330
16
102
}
330
16
100
AcDbVisualStyle
  2
Flat
 70
0
 90
2
 40
0.6
 62
7
290
0
291
1
  0
VISUALSTYLE
  5
63
102
{ACAD_REACTORS
330
16
102
}
330
16
100
AcDbVisualStyle
  2
FlatWithEdges
 70
1
 90
2
 40
0.6
 62
7
290
0
291
1
  0
VISUALSTYLE
  5
64
102
{ACAD_REACTORS
330
16
102
}
330
16
100
AcDbVisualStyle
  2
Gouraud
 70
2
 90
2
 40
0.6
 62
7
290
0
291
1
  0
VISUALSTYLE
  5
65
102
{ACAD_REACTORS
330
16
102
}
330
16
100
AcDbVisualStyle
  2
GouraudWithEdges
 70
3
 90
2
 40
0.6
 62
7
290
0
291
1
  0
VISUALSTYLE
  5
66
102
{ACAD_REACTORS
330
16
102
}
330
16
100
AcDbVisualStyle
  2
Hidden
 70
6
 90
1
 40
0.6
 62
7
290
0
291
0
  0
VISUALSTYLE
  5
67
102
{ACAD_REACTORS
330
16
102
}
330
16
100
AcDbVisualStyle
  2
JitterOff
 70
20
 90
2
 40
0.6
 62
7
290
0
291
1
  0
VISUALSTYLE
  5
68
102
{ACAD_REACTORS
330
16
102
}
330
16
100
AcDbVisualStyle
  2
Linepattern
 70
14
 90
2
 40
0.6
 62
7
290
0
291
1
  0
VISUALSTYLE
  5
69
102
{ACAD_REACTORS
330
16
102
}
330
16
100
AcDbVisualStyle
  2
Modeling
 70
10
 90
2
 40
0.6
 62
7
290
0
291
0
  0
VISUALSTYLE
  5
6A
102
{ACAD_REACTORS
330
16
102
}
330
16
100
AcDbVisualStyle
  2
OverhangOff
 70
21
 90
2
 40
0.6
 62
7
290
0
291
1
  0
VISUALSTYLE
  5
6B
102
{ACAD_REACTORS
330
16
102
}
330
16
100
AcDbVisualStyle
  2
Realistic
 70
8
 90
2
 40
0.6
 62
7
290
0
291
0
  0
VISUALSTYLE
  5
6C
102
{ACAD_REACTORS
330
16
102
}
330
16
100
AcDbVisualStyle
  2
Shaded
 70
27
 90
2
 40
0.6
 62
7
290
0
291
0
  0
VISUALSTYLE
  5
6D
102
{ACAD_REACTORS
330
16
102
}
330
16
100
AcDbVisualStyle
  2
Shaded with edges
 70
26
 90
2
 40
0.6
 62
7
290
0
291
0
  0
VISUALSTYLE
  5
6E
102
{ACAD_REACTORS
330
16
102
}
330
16
100
AcDbVisualStyle
  2
Shades of Gray
 70
23
 90
2
 40
0.6
 62
7
290
0
291
0
  0
VISUALSTYLE
  5
6F
102
{ACAD_REACTORS
330
16
102
}
330
16
100
AcDbVisualStyle
  2
Sketchy
 70
24
 90
1
 40
0.6
 62
7
290
0
291
0
  0
VISUALSTYLE
  5
70
102
{ACAD_REACTORS
330
16
102
}
330
16
100
AcDbVisualStyle
  2
Thicken
 70
13
 90
2
 40
0.6
 62
7
290
0
291
1
  0
VISUALSTYLE
  5
71
102
{ACAD_REACTORS
330
16
102
}
330
16
100
AcDbVisualStyle
  2
Wireframe
 70
5
 90
0
 40
0.6
 62
7
290
0
291
0
  0
VISUALSTYLE
  5
72
102
{ACAD_REACTORS
330
16
102
}
330
16
100
AcDbVisualStyle
  2
X-Ray
 70
25
 90
2
 40
0.5
 62
7
290
0
291
0
  0
DICTIONARYVAR
  5
48F
330
2D
100
DictionaryVariables
280
0
  1
1.4.3 @ 2026-03-31T12:25:28.714247+00:00
  0
ENDSEC
  0
EOF
