  0
SECTION
  2
HEADER
  9
$ACADVER
  1
AC1024
  9
$ACADMAINTVER
 70
6
  9
$DWGCODEPAGE
  3
ANSI_1252
  9
$LASTSAVEDBY
  1
ezdxf
  9
$INSBASE
 10
0.0
 20
0.0
 30
0.0
  9
$EXTMIN
 10
1e+20
 20
1e+20
 30
1e+20
  9
$EXTMAX
 10
-1e+20
 20
-1e+20
 30
-1e+20
  9
$LIMMIN
 10
0.0
 20
0.0
  9
$LIMMAX
 10
420.0
 20
297.0
  9
$ORTHOMODE
 70
0
  9
$REGENMODE
 70
1
  9
$FILLMODE
 70
1
  9
$QTEXTMODE
 70
0
  9
$MIRRTEXT
 70
1
  9
$LTSCALE
 40
1.0
  9
$ATTMODE
 70
1
  9
$TEXTSIZE
 40
2.5
  9
$TRACEWID
 40
1.0
  9
$TEXTSTYLE
  7
OpenSans
  9
$CLAYER
  8
0
  9
$CELTYPE
  6
ByLayer
  9
$CECOLOR
 62
256
  9
$CELTSCALE
 40
1.0
  9
$DISPSILH
 70
0
  9
$DIMSCALE
 40
1.0
  9
$DIMASZ
 40
0.175
  9
$DIMEXO
 40
0.125
  9
$DIMDLI
 40
3.75
  9
$DIMRND
 40
0.0
  9
$DIMDLE
 40
0.0
  9
$DIMEXE
 40
0.375
  9
$DIMTP
 40
0.0
  9
$DIMTM
 40
0.0
  9
$DIMTXT
 40
0.25
  9
$DIMCEN
 40
2.5
  9
$DIMTSZ
 40
0.0
  9
$DIMTOL
 70
0
  9
$DIMLIM
 70
0
  9
$DIMTIH
 70
0
  9
$DIMTOH
 70
0
  9
$DIMSE1
 70
0
  9
$DIMSE2
 70
0
  9
$DIMTAD
 70
1
  9
$DIMZIN
 70
12
  9
$DIMBLK
  1
ARCHTICK
  9
$DIMASO
 70
1
  9
$DIMSHO
 70
1
  9
$DIMPOST
  1

  9
$DIMAPOST
  1

  9
$DIMALT
 70
0
  9
$DIMALTD
 70
3
  9
$DIMALTF
 40
0.03937007874
  9
$DIMLFAC
 40
100.0
  9
$DIMTOFL
 70
1
  9
$DIMTVP
 40
0.0
  9
$DIMTIX
 70
0
  9
$DIMSOXD
 70
0
  9
$DIMSAH
 70
0
  9
$DIMBLK1
  1

  9
$DIMBLK2
  1

  9
$DIMSTYLE
  2
EZDXF
  9
$DIMCLRD
 70
0
  9
$DIMCLRE
 70
0
  9
$DIMCLRT
 70
0
  9
$DIMTFAC
 40
0.5
  9
$DIMGAP
 40
0.1
  9
$DIMJUST
 70
0
  9
$DIMSD1
 70
0
  9
$DIMSD2
 70
0
  9
$DIMTOLJ
 70
0
  9
$DIMTZIN
 70
8
  9
$DIMALTZ
 70
0
  9
$DIMALTTZ
 70
0
  9
$DIMUPT
 70
1
  9
$DIMDEC
 70
2
  9
$DIMTDEC
 70
2
  9
$DIMALTU
 70
2
  9
$DIMALTTD
 70
3
  9
$DIMTXSTY
  7
OpenSansCondensed-Light
  9
$DIMAUNIT
 70
0
  9
$DIMADEC
 70
2
  9
$DIMALTRND
 40
0.0
  9
$DIMAZIN
 70
3
  9
$DIMDSEP
 70
46
  9
$DIMATFIT
 70
3
  9
$DIMFRAC
 70
0
  9
$DIMLDRBLK
  1

  9
$DIMLUNIT
 70
2
  9
$DIMLWD
 70
-2
  9
$DIMLWE
 70
-2
  9
$DIMTMOVE
 70
2
  9
$DIMFXL
 40
1.0
  9
$DIMFXLON
 70
0
  9
$DIMJOGANG
 40
0.785398163397
  9
$DIMTFILL
 70
0
  9
$DIMTFILLCLR
 70
0
  9
$DIMARCSYM
 70
0
  9
$DIMLTYPE
  6

  9
$DIMLTEX1
  6

  9
$DIMLTEX2
  6

  9
$DIMTXTDIRECTION
 70
0
  9
$LUNITS
 70
2
  9
$LUPREC
 70
4
  9
$SKETCHINC
 40
1.0
  9
$FILLETRAD
 40
10.0
  9
$AUNITS
 70
0
  9
$AUPREC
 70
2
  9
$MENU
  1
.
  9
$ELEVATION
 40
0.0
  9
$PELEVATION
 40
0.0
  9
$THICKNESS
 40
0.0
  9
$LIMCHECK
 70
0
  9
$CHAMFERA
 40
0.0
  9
$CHAMFERB
 40
0.0
  9
$CHAMFERC
 40
0.0
  9
$CHAMFERD
 40
0.0
  9
$SKPOLY
 70
0
  9
$TDCREATE
 40
2461133.3257407406
  9
$TDUCREATE
 40
2458532.153996898
  9
$TDUPDATE
 40
2461133.3257407406
  9
$TDUUPDATE
 40
2458532.1544311
  9
$TDINDWG
 40
0.0
  9
$TDUSRTIMER
 40
0.0
  9
$USRTIMER
 70
1
  9
$ANGBASE
 50
0.0
  9
$ANGDIR
 70
0
  9
$PDMODE
 70
0
  9
$PDSIZE
 40
0.0
  9
$PLINEWID
 40
0.0
  9
$SPLFRAME
 70
0
  9
$SPLINETYPE
 70
6
  9
$SPLINESEGS
 70
8
  9
$HANDSEED
  5
438
  9
$SURFTAB1
 70
6
  9
$SURFTAB2
 70
6
  9
$SURFTYPE
 70
6
  9
$SURFU
 70
6
  9
$SURFV
 70
6
  9
$UCSBASE
  2

  9
$UCSNAME
  2

  9
$UCSORG
 10
0.0
 20
0.0
 30
0.0
  9
$UCSXDIR
 10
1.0
 20
0.0
 30
0.0
  9
$UCSYDIR
 10
0.0
 20
1.0
 30
0.0
  9
$UCSORTHOREF
  2

  9
$UCSORTHOVIEW
 70
0
  9
$UCSORGTOP
 10
0.0
 20
0.0
 30
0.0
  9
$UCSORGBOTTOM
 10
0.0
 20
0.0
 30
0.0
  9
$UCSORGLEFT
 10
0.0
 20
0.0
 30
0.0
  9
$UCSORGRIGHT
 10
0.0
 20
0.0
 30
0.0
  9
$UCSORGFRONT
 10
0.0
 20
0.0
 30
0.0
  9
$UCSORGBACK
 10
0.0
 20
0.0
 30
0.0
  9
$PUCSBASE
  2

  9
$PUCSNAME
  2

  9
$PUCSORG
 10
0.0
 20
0.0
 30
0.0
  9
$PUCSXDIR
 10
1.0
 20
0.0
 30
0.0
  9
$PUCSYDIR
 10
0.0
 20
1.0
 30
0.0
  9
$PUCSORTHOREF
  2

  9
$PUCSORTHOVIEW
 70
0
  9
$PUCSORGTOP
 10
0.0
 20
0.0
 30
0.0
  9
$PUCSORGBOTTOM
 10
0.0
 20
0.0
 30
0.0
  9
$PUCSORGLEFT
 10
0.0
 20
0.0
 30
0.0
  9
$PUCSORGRIGHT
 10
0.0
 20
0.0
 30
0.0
  9
$PUCSORGFRONT
 10
0.0
 20
0.0
 30
0.0
  9
$PUCSORGBACK
 10
0.0
 20
0.0
 30
0.0
  9
$USERI1
 70
0
  9
$USERI2
 70
0
  9
$USERI3
 70
0
  9
$USERI4
 70
0
  9
$USERI5
 70
0
  9
$USERR1
 40
0.0
  9
$USERR2
 40
0.0
  9
$USERR3
 40
0.0
  9
$USERR4
 40
0.0
  9
$USERR5
 40
0.0
  9
$WORLDVIEW
 70
1
  9
$SHADEDGE
 70
3
  9
$SHADEDIF
 70
70
  9
$TILEMODE
 70
1
  9
$MAXACTVP
 70
64
  9
$PINSBASE
 10
0.0
 20
0.0
 30
0.0
  9
$PLIMCHECK
 70
0
  9
$PEXTMIN
 10
1e+20
 20
1e+20
 30
1e+20
  9
$PEXTMAX
 10
-1e+20
 20
-1e+20
 30
-1e+20
  9
$PLIMMIN
 10
0.0
 20
0.0
  9
$PLIMMAX
 10
420.0
 20
297.0
  9
$UNITMODE
 70
0
  9
$VISRETAIN
 70
1
  9
$PLINEGEN
 70
0
  9
$PSLTSCALE
 70
1
  9
$TREEDEPTH
 70
3020
  9
$CMLSTYLE
  2
Standard
  9
$CMLJUST
 70
0
  9
$CMLSCALE
 40
20.0
  9
$PROXYGRAPHICS
 70
1
  9
$MEASUREMENT
 70
1
  9
$CELWEIGHT
370
-1
  9
$ENDCAPS
280
0
  9
$JOINSTYLE
280
0
  9
$LWDISPLAY
290
0
  9
$INSUNITS
 70
6
  9
$HYPERLINKBASE
  1

  9
$STYLESHEET
  1

  9
$XEDIT
290
1
  9
$CEPSNTYPE
380
0
  9
$PSTYLEMODE
290
1
  9
$FINGERPRINTGUID
  2
{69E0BD53-3D4F-4A98-8105-299499490A55}
  9
$VERSIONGUID
  2
{14E62549-FB3A-4B44-89F5-A299EA79805E}
  9
$EXTNAMES
290
1
  9
$PSVPSCALE
 40
0.0
  9
$OLESTARTUP
290
0
  9
$SORTENTS
280
127
  9
$INDEXCTL
280
0
  9
$HIDETEXT
280
1
  9
$XCLIPFRAME
280
1
  9
$HALOGAP
280
0
  9
$OBSCOLOR
 70
257
  9
$OBSLTYPE
280
0
  9
$INTERSECTIONDISPLAY
280
0
  9
$INTERSECTIONCOLOR
 70
257
  9
$DIMASSOC
280
2
  9
$PROJECTNAME
  1

  9
$CAMERADISPLAY
290
0
  9
$LENSLENGTH
 40
50.0
  9
$CAMERAHEIGHT
 40
0.0
  9
$STEPSPERSEC
 40
24.0
  9
$STEPSIZE
 40
100.0
  9
$3DDWFPREC
 40
2.0
  9
$PSOLWIDTH
 40
0.005
  9
$PSOLHEIGHT
 40
0.08
  9
$LOFTANG1
 40
1.570796326795
  9
$LOFTANG2
 40
1.570796326795
  9
$LOFTMAG1
 40
0.0
  9
$LOFTMAG2
 40
0.0
  9
$LOFTPARAM
 70
7
  9
$LOFTNORMALS
280
1
  9
$LATITUDE
 40
37.795
  9
$LONGITUDE
 40
-122.394
  9
$NORTHDIRECTION
 40
0.0
  9
$TIMEZONE
 70
-8000
  9
$LIGHTGLYPHDISPLAY
280
1
  9
$TILEMODELIGHTSYNCH
280
1
  9
$CMATERIAL
347
20
  9
$SOLIDHIST
280
0
  9
$SHOWHIST
280
1
  9
$DWFFRAME
280
2
  9
$DGNFRAME
280
2
  9
$REALWORLDSCALE
290
1
  9
$INTERFERECOLOR
 62
256
  9
$CSHADOW
280
0
  9
$SHADOWPLANELOCATION
 40
0.0
  0
ENDSEC
  0
SECTION
  2
CLASSES
  0
CLASS
  1
ACDBDICTIONARYWDFLT
  2
AcDbDictionaryWithDefault
  3
ObjectDBX Classes
 90
0
 91
0
280
0
281
0
  0
CLASS
  1
SUN
  2
AcDbSun
  3
SCENEOE
 90
1153
 91
0
280
0
281
0
  0
CLASS
  1
VISUALSTYLE
  2
AcDbVisualStyle
  3
ObjectDBX Classes
 90
4095
 91
0
280
0
281
0
  0
CLASS
  1
MATERIAL
  2
AcDbMaterial
  3
ObjectDBX Classes
 90
1153
 91
0
280
0
281
0
  0
CLASS
  1
SCALE
  2
AcDbScale
  3
ObjectDBX Classes
 90
1153
 91
0
280
0
281
0
  0
CLASS
  1
TABLESTYLE
  2
AcDbTableStyle
  3
ObjectDBX Classes
 90
4095
 91
0
280
0
281
0
  0
CLASS
  1
MLEADERSTYLE
  2
AcDbMLeaderStyle
  3
ACDB_MLEADERSTYLE_CLASS
 90
4095
 91
0
280
0
281
0
  0
CLASS
  1
DICTIONARYVAR
  2
AcDbDictionaryVar
  3
ObjectDBX Classes
 90
0
 91
0
280
0
281
0
  0
CLASS
  1
CELLSTYLEMAP
  2
AcDbCellStyleMap
  3
ObjectDBX Classes
 90
1152
 91
0
280
0
281
0
  0
CLASS
  1
MENTALRAYRENDERSETTINGS
  2
AcDbMentalRayRenderSettings
  3
SCENEOE
 90
1024
 91
0
280
0
281
0
  0
CLASS
  1
ACDBDETAILVIEWSTYLE
  2
AcDbDetailViewStyle
  3
ObjectDBX Classes
 90
1025
 91
0
280
0
281
0
  0
CLASS
  1
ACDBSECTIONVIEWSTYLE
  2
AcDbSectionViewStyle
  3
ObjectDBX Classes
 90
1025
 91
0
280
0
281
0
  0
CLASS
  1
RASTERVARIABLES
  2
AcDbRasterVariables
  3
ISM
 90
0
 91
0
280
0
281
0
  0
CLASS
  1
LAYOUT
  2
AcDbLayout
  3
ObjectDBX Classes
 90
0
 91
0
280
0
281
0
  0
CLASS
  1
ACDBPLACEHOLDER
  2
AcDbPlaceHolder
  3
ObjectDBX Classes
 90
0
 91
0
280
0
281
0
  0
ENDSEC
  0
SECTION
  2
TABLES
  0
TABLE
  2
VPORT
  5
8
330
0
100
AcDbSymbolTable
 70
1
  0
VPORT
  5
23
330
8
100
AcDbSymbolTableRecord
100
AcDbViewportTableRecord
  2
*Active
 70
0
 10
0.0
 20
0.0
 11
1.0
 21
1.0
 12
0.0
 22
0.0
 13
0.0
 23
0.0
 14
0.5
 24
0.5
 15
0.5
 25
0.5
 16
0.0
 26
0.0
 36
1.0
 17
0.0
 27
0.0
 37
0.0
 40
1000.0
 41
1.34
 42
50.0
 43
0.0
 44
0.0
 50
0.0
 51
0.0
 71
0
 72
1000
 73
1
 74
3
 75
0
 76
0
 77
0
 78
0
281
0
 65
0
146
0.0
  0
ENDTAB
  0
TABLE
  2
LTYPE
  5
2
330
0
100
AcDbSymbolTable
 70
21
  0
LTYPE
  5
24
330
2
100
AcDbSymbolTableRecord
100
AcDbLinetypeTableRecord
  2
ByBlock
 70
0
  3

 72
65
 73
0
 40
0.0
  0
LTYPE
  5
25
330
2
100
AcDbSymbolTableRecord
100
AcDbLinetypeTableRecord
  2
ByLayer
 70
0
  3

 72
65
 73
0
 40
0.0
  0
LTYPE
  5
26
330
2
100
AcDbSymbolTableRecord
100
AcDbLinetypeTableRecord
  2
Continuous
 70
0
  3

 72
65
 73
0
 40
0.0
  0
LTYPE
  5
2F
330
2
100
AcDbSymbolTableRecord
100
AcDbLinetypeTableRecord
  2
CENTER
 70
0
  3
Center ____ _ ____ _ ____ _ ____ _ ____ _ ____
 72
65
 73
4
 40
5.08
 49
3.175
 74
0
 49
-0.635
 74
0
 49
0.635
 74
0
 49
-0.635
 74
0
  0
LTYPE
  5
30
330
2
100
AcDbSymbolTableRecord
100
AcDbLinetypeTableRecord
  2
CENTERX2
 70
0
  3
Center (2x) ________  __  ________  __  ________
 72
65
 73
4
 40
8.89
 49
6.35
 74
0
 49
-0.635
 74
0
 49
1.27
 74
0
 49
-0.635
 74
0
  0
LTYPE
  5
31
330
2
100
AcDbSymbolTableRecord
100
AcDbLinetypeTableRecord
  2
CENTER2
 70
0
  3
Center (.5x) ____ _ ____ _ ____ _ ____ _ ____
 72
65
 73
4
 40
2.54
 49
1.587
 74
0
 49
-0.318
 74
0
 49
0.318
 74
0
 49
-0.318
 74
0
  0
LTYPE
  5
32
330
2
100
AcDbSymbolTableRecord
100
AcDbLinetypeTableRecord
  2
DASHED
 70
0
  3
Dashed __ __ __ __ __ __ __ __ __ __ __ __ __ _
 72
65
 73
2
 40
1.524
 49
1.27
 74
0
 49
-0.254
 74
0
  0
LTYPE
  5
33
330
2
100
AcDbSymbolTableRecord
100
AcDbLinetypeTableRecord
  2
DASHEDX2
 70
0
  3
Dashed (2x) ____  ____  ____  ____  ____  ____
 72
65
 73
2
 40
3.048
 49
2.54
 74
0
 49
-0.508
 74
0
  0
LTYPE
  5
34
330
2
100
AcDbSymbolTableRecord
100
AcDbLinetypeTableRecord
  2
DASHED2
 70
0
  3
Dashed (.5x) _ _ _ _ _ _ _ _ _ _ _ _ _ _
 72
65
 73
2
 40
0.762
 49
0.635
 74
0
 49
-0.127
 74
0
  0
LTYPE
  5
35
330
2
100
AcDbSymbolTableRecord
100
AcDbLinetypeTableRecord
  2
PHANTOM
 70
0
  3
Phantom ______  __  __  ______  __  __  ______
 72
65
 73
6
 40
6.35
 49
3.175
 74
0
 49
-0.635
 74
0
 49
0.635
 74
0
 49
-0.635
 74
0
 49
0.635
 74
0
 49
-0.635
 74
0
  0
LTYPE
  5
36
330
2
100
AcDbSymbolTableRecord
100
AcDbLinetypeTableRecord
  2
PHANTOMX2
 70
0
  3
Phantom (2x)____________    ____    ____    ____________
 72
65
 73
6
 40
10.795
 49
6.35
 74
0
 49
-0.635
 74
0
 49
1.27
 74
0
 49
-0.635
 74
0
 49
1.27
 74
0
 49
-0.635
 74
0
  0
LTYPE
  5
37
330
2
100
AcDbSymbolTableRecord
100
AcDbLinetypeTableRecord
  2
PHANTOM2
 70
0
  3
Phantom (.5x) ___ _ _ ___ _ _ ___ _ _ ___ _ _ ___
 72
65
 73
6
 40
3.175
 49
1.587
 74
0
 49
-0.318
 74
0
 49
0.318
 74
0
 49
-0.318
 74
0
 49
0.318
 74
0
 49
-0.318
 74
0
  0
LTYPE
  5
38
330
2
100
AcDbSymbolTableRecord
100
AcDbLinetypeTableRecord
  2
DASHDOT
 70
0
  3
Dash dot __ . __ . __ . __ . __ . __ . __ . __
 72
65
 73
4
 40
3.556
 49
2.54
 74
0
 49
-0.508
 74
0
 49
0.0
 74
0
 49
-0.508
 74
0
  0
LTYPE
  5
39
330
2
100
AcDbSymbolTableRecord
100
AcDbLinetypeTableRecord
  2
DASHDOTX2
 70
0
  3
Dash dot (2x) ____  .  ____  .  ____  .  ____
 72
65
 73
4
 40
6.096
 49
5.08
 74
0
 49
-0.508
 74
0
 49
0.0
 74
0
 49
-0.508
 74
0
  0
LTYPE
  5
3A
330
2
100
AcDbSymbolTableRecord
100
AcDbLinetypeTableRecord
  2
DASHDOT2
 70
0
  3
Dash dot (.5x) _ . _ . _ . _ . _ . _ . _ . _
 72
65
 73
4
 40
1.778
 49
1.27
 74
0
 49
-0.254
 74
0
 49
0.0
 74
0
 49
-0.254
 74
0
  0
LTYPE
  5
3B
330
2
100
AcDbSymbolTableRecord
100
AcDbLinetypeTableRecord
  2
DOT
 70
0
  3
Dot .  .  .  .  .  .  .  .  .  .  .  .  .  .  .  .
 72
65
 73
2
 40
0.508
 49
0.0
 74
0
 49
-0.508
 74
0
  0
LTYPE
  5
3C
330
2
100
AcDbSymbolTableRecord
100
AcDbLinetypeTableRecord
  2
DOTX2
 70
0
  3
Dot (2x) .    .    .    .    .    .    .    . 
 72
65
 73
2
 40
1.016
 49
0.0
 74
0
 49
-1.016
 74
0
  0
LTYPE
  5
3D
330
2
100
AcDbSymbolTableRecord
100
AcDbLinetypeTableRecord
  2
DOT2
 70
0
  3
Dot (.5) . . . . . . . . . . . . . . . . . . . 
 72
65
 73
2
 40
0.254
 49
0.0
 74
0
 49
-0.254
 74
0
  0
LTYPE
  5
3E
330
2
100
AcDbSymbolTableRecord
100
AcDbLinetypeTableRecord
  2
DIVIDE
 70
0
  3
Divide __ . . __ . . __ . . __ . . __ . . __
 72
65
 73
6
 40
4.064
 49
2.54
 74
0
 49
-0.508
 74
0
 49
0.0
 74
0
 49
-0.508
 74
0
 49
0.0
 74
0
 49
-0.508
 74
0
  0
LTYPE
  5
3F
330
2
100
AcDbSymbolTableRecord
100
AcDbLinetypeTableRecord
  2
DIVIDEX2
 70
0
  3
Divide (2x) ____  . .  ____  . .  ____  . .  ____
 72
65
 73
6
 40
6.604
 49
5.08
 74
0
 49
-0.508
 74
0
 49
0.0
 74
0
 49
-0.508
 74
0
 49
0.0
 74
0
 49
-0.508
 74
0
  0
LTYPE
  5
40
330
2
100
AcDbSymbolTableRecord
100
AcDbLinetypeTableRecord
  2
DIVIDE2
 70
0
  3
Divide(.5x) _ . _ . _ . _ . _ . _ . _ . _
 72
65
 73
6
 40
2.032
 49
1.27
 74
0
 49
-0.254
 74
0
 49
0.0
 74
0
 49
-0.254
 74
0
 49
0.0
 74
0
 49
-0.254
 74
0
  0
ENDTAB
  0
TABLE
  2
LAYER
  5
1
330
0
100
AcDbSymbolTable
 70
14
  0
LAYER
  5
27
330
1
100
AcDbSymbolTableRecord
100
AcDbLayerTableRecord
  2
0
 70
0
 62
7
  6
Continuous
370
-3
390
13
347
21
  0
LAYER
  5
28
330
1
100
AcDbSymbolTableRecord
100
AcDbLayerTableRecord
  2
Defpoints
 70
0
 62
7
  6
Continuous
290
0
370
-3
390
13
347
21
  0
LAYER
  5
8A
330
1
100
AcDbSymbolTableRecord
100
AcDbLayerTableRecord
  2
BORDER
 70
0
 62
7
  6
Continuous
370
-3
390
13
347
21
  0
LAYER
  5
8B
330
1
100
AcDbSymbolTableRecord
100
AcDbLayerTableRecord
  2
TITLEBLOCK
 70
0
 62
7
  6
Continuous
370
-3
390
13
347
21
  0
LAYER
  5
8C
330
1
100
AcDbSymbolTableRecord
100
AcDbLayerTableRecord
  2
ORIENTATION
 70
0
 62
7
  6
Continuous
370
-3
390
13
347
21
  0
LAYER
  5
8D
330
1
100
AcDbSymbolTableRecord
100
AcDbLayerTableRecord
  2
OUTLINE
 70
0
 62
7
  6
Continuous
370
-3
390
13
347
21
  0
LAYER
  5
8E
330
1
100
AcDbSymbolTableRecord
100
AcDbLayerTableRecord
  2
HIDDEN
 70
0
 62
7
  6
Continuous
370
-3
390
13
347
21
  0
LAYER
  5
8F
330
1
100
AcDbSymbolTableRecord
100
AcDbLayerTableRecord
  2
CENTERLINE
 70
0
 62
5
  6
Continuous
370
-3
390
13
347
21
  0
LAYER
  5
90
330
1
100
AcDbSymbolTableRecord
100
AcDbLayerTableRecord
  2
SPAR
 70
0
 62
3
  6
Continuous
370
-3
390
13
347
21
  0
LAYER
  5
91
330
1
100
AcDbSymbolTableRecord
100
AcDbLayerTableRecord
  2
WALL
 70
0
 62
6
  6
Continuous
370
-3
390
13
347
21
  0
LAYER
  5
92
330
1
100
AcDbSymbolTableRecord
100
AcDbLayerTableRecord
  2
SECTION
 70
0
 62
4
  6
Continuous
370
-3
390
13
347
21
  0
LAYER
  5
93
330
1
100
AcDbSymbolTableRecord
100
AcDbLayerTableRecord
  2
HATCH
 70
0
 62
252
  6
Continuous
370
-3
390
13
347
21
  0
LAYER
  5
94
330
1
100
AcDbSymbolTableRecord
100
AcDbLayerTableRecord
  2
DIMENSION
 70
0
 62
1
  6
Continuous
370
-3
390
13
347
21
  0
LAYER
  5
95
330
1
100
AcDbSymbolTableRecord
100
AcDbLayerTableRecord
  2
TEXT
 70
0
 62
7
  6
Continuous
370
-3
390
13
347
21
  0
ENDTAB
  0
TABLE
  2
STYLE
  5
5
330
0
100
AcDbSymbolTable
 70
26
  0
STYLE
  5
29
330
5
100
AcDbSymbolTableRecord
100
AcDbTextStyleTableRecord
  2
Standard
 70
0
 40
0.0
 41
1.0
 50
0.0
 71
0
 42
2.5
  3
txt
  4

  0
STYLE
  5
41
330
5
100
AcDbSymbolTableRecord
100
AcDbTextStyleTableRecord
  2
OpenSans-Light
 70
0
 40
0.0
 41
1.0
 50
0.0
 71
0
 42
2.5
  3
OpenSans-Light.ttf
  4

  0
STYLE
  5
42
330
5
100
AcDbSymbolTableRecord
100
AcDbTextStyleTableRecord
  2
OpenSans-Light-Italic
 70
0
 40
0.0
 41
1.0
 50
0.0
 71
0
 42
2.5
  3
OpenSans-LightItalic.ttf
  4

  0
STYLE
  5
43
330
5
100
AcDbSymbolTableRecord
100
AcDbTextStyleTableRecord
  2
OpenSans
 70
0
 40
0.0
 41
1.0
 50
0.0
 71
0
 42
2.5
  3
OpenSans-Regular.ttf
  4

  0
STYLE
  5
44
330
5
100
AcDbSymbolTableRecord
100
AcDbTextStyleTableRecord
  2
OpenSans-Italic
 70
0
 40
0.0
 41
1.0
 50
0.0
 71
0
 42
2.5
  3
OpenSans-Italic.ttf
  4

  0
STYLE
  5
45
330
5
100
AcDbSymbolTableRecord
100
AcDbTextStyleTableRecord
  2
OpenSans-SemiBold
 70
0
 40
0.0
 41
1.0
 50
0.0
 71
0
 42
2.5
  3
OpenSans-SemiBold.ttf
  4

  0
STYLE
  5
46
330
5
100
AcDbSymbolTableRecord
100
AcDbTextStyleTableRecord
  2
OpenSans-SemiBoldItalic
 70
0
 40
0.0
 41
1.0
 50
0.0
 71
0
 42
2.5
  3
OpenSans-SemiBoldItalic.ttf
  4

  0
STYLE
  5
47
330
5
100
AcDbSymbolTableRecord
100
AcDbTextStyleTableRecord
  2
OpenSans-Bold
 70
0
 40
0.0
 41
1.0
 50
0.0
 71
0
 42
2.5
  3
OpenSans-Bold.ttf
  4

  0
STYLE
  5
48
330
5
100
AcDbSymbolTableRecord
100
AcDbTextStyleTableRecord
  2
OpenSans-BoldItalic
 70
0
 40
0.0
 41
1.0
 50
0.0
 71
0
 42
2.5
  3
OpenSans-BoldItalic.ttf
  4

  0
STYLE
  5
49
330
5
100
AcDbSymbolTableRecord
100
AcDbTextStyleTableRecord
  2
OpenSans-ExtraBold
 70
0
 40
0.0
 41
1.0
 50
0.0
 71
0
 42
2.5
  3
OpenSans-ExtraBold.ttf
  4

  0
STYLE
  5
4A
330
5
100
AcDbSymbolTableRecord
100
AcDbTextStyleTableRecord
  2
OpenSans-ExtraBoldItalic
 70
0
 40
0.0
 41
1.0
 50
0.0
 71
0
 42
2.5
  3
OpenSans-ExtraBoldItalic.ttf
  4

  0
STYLE
  5
4B
330
5
100
AcDbSymbolTableRecord
100
AcDbTextStyleTableRecord
  2
OpenSansCondensed-Bold
 70
0
 40
0.0
 41
1.0
 50
0.0
 71
0
 42
2.5
  3
OpenSansCondensed-Bold.ttf
  4

  0
STYLE
  5
4C
330
5
100
AcDbSymbolTableRecord
100
AcDbTextStyleTableRecord
  2
OpenSansCondensed-Light
 70
0
 40
0.0
 41
1.0
 50
0.0
 71
0
 42
2.5
  3
OpenSansCondensed-Light.ttf
  4

  0
STYLE
  5
4D
330
5
100
AcDbSymbolTableRecord
100
AcDbTextStyleTableRecord
  2
OpenSansCondensed-Italic
 70
0
 40
0.0
 41
1.0
 50
0.0
 71
0
 42
2.5
  3
OpenSansCondensed-LightItalic.ttf
  4

  0
STYLE
  5
4E
330
5
100
AcDbSymbolTableRecord
100
AcDbTextStyleTableRecord
  2
LiberationSans
 70
0
 40
0.0
 41
1.0
 50
0.0
 71
0
 42
2.5
  3
LiberationSans-Regular.ttf
  4

  0
STYLE
  5
4F
330
5
100
AcDbSymbolTableRecord
100
AcDbTextStyleTableRecord
  2
LiberationSans-Bold
 70
0
 40
0.0
 41
1.0
 50
0.0
 71
0
 42
2.5
  3
LiberationSans-Bold.ttf
  4

  0
STYLE
  5
50
330
5
100
AcDbSymbolTableRecord
100
AcDbTextStyleTableRecord
  2
LiberationSans-BoldItalic
 70
0
 40
0.0
 41
1.0
 50
0.0
 71
0
 42
2.5
  3
LiberationSans-BoldItalic.ttf
  4

  0
STYLE
  5
51
330
5
100
AcDbSymbolTableRecord
100
AcDbTextStyleTableRecord
  2
LiberationSans-Italic
 70
0
 40
0.0
 41
1.0
 50
0.0
 71
0
 42
2.5
  3
LiberationSans-Italic.ttf
  4

  0
STYLE
  5
52
330
5
100
AcDbSymbolTableRecord
100
AcDbTextStyleTableRecord
  2
LiberationSerif
 70
0
 40
0.0
 41
1.0
 50
0.0
 71
0
 42
2.5
  3
LiberationSerif-Regular.ttf
  4

  0
STYLE
  5
53
330
5
100
AcDbSymbolTableRecord
100
AcDbTextStyleTableRecord
  2
LiberationSerif-Bold
 70
0
 40
0.0
 41
1.0
 50
0.0
 71
0
 42
2.5
  3
LiberationSerif-Bold.ttf
  4

  0
STYLE
  5
54
330
5
100
AcDbSymbolTableRecord
100
AcDbTextStyleTableRecord
  2
LiberationSerif-BoldItalic
 70
0
 40
0.0
 41
1.0
 50
0.0
 71
0
 42
2.5
  3
LiberationSerif-BoldItalic.ttf
  4

  0
STYLE
  5
55
330
5
100
AcDbSymbolTableRecord
100
AcDbTextStyleTableRecord
  2
LiberationSerif-Italic
 70
0
 40
0.0
 41
1.0
 50
0.0
 71
0
 42
2.5
  3
LiberationSerif-Italic.ttf
  4

  0
STYLE
  5
56
330
5
100
AcDbSymbolTableRecord
100
AcDbTextStyleTableRecord
  2
LiberationMono
 70
0
 40
0.0
 41
1.0
 50
0.0
 71
0
 42
2.5
  3
LiberationMono-Regular.ttf
  4

  0
STYLE
  5
57
330
5
100
AcDbSymbolTableRecord
100
AcDbTextStyleTableRecord
  2
LiberationMono-Bold
 70
0
 40
0.0
 41
1.0
 50
0.0
 71
0
 42
2.5
  3
LiberationMono-Bold.ttf
  4

  0
STYLE
  5
58
330
5
100
AcDbSymbolTableRecord
100
AcDbTextStyleTableRecord
  2
LiberationMono-BoldItalic
 70
0
 40
0.0
 41
1.0
 50
0.0
 71
0
 42
2.5
  3
LiberationMono-BoldItalic.ttf
  4

  0
STYLE
  5
59
330
5
100
AcDbSymbolTableRecord
100
AcDbTextStyleTableRecord
  2
LiberationMono-Italic
 70
0
 40
0.0
 41
1.0
 50
0.0
 71
0
 42
2.5
  3
LiberationMono-Italic.ttf
  4

  0
ENDTAB
  0
TABLE
  2
VIEW
  5
7
330
0
100
AcDbSymbolTable
 70
0
  0
ENDTAB
  0
TABLE
  2
UCS
  5
6
330
0
100
AcDbSymbolTable
 70
0
  0
ENDTAB
  0
TABLE
  2
APPID
  5
3
330
0
100
AcDbSymbolTable
 70
3
  0
APPID
  5
2A
330
3
100
AcDbSymbolTableRecord
100
AcDbRegAppTableRecord
  2
ACAD
 70
0
  0
APPID
  5
435
330
3
100
AcDbSymbolTableRecord
100
AcDbRegAppTableRecord
  2
HATCHBACKGROUNDCOLOR
 70
0
  0
APPID
  5
436
330
3
100
AcDbSymbolTableRecord
100
AcDbRegAppTableRecord
  2
EZDXF
 70
0
  0
ENDTAB
  0
TABLE
  2
DIMSTYLE
  5
4
330
0
100
AcDbSymbolTable
 70
13
100
AcDbDimStyleTable
  0
DIMSTYLE
105
2B
330
4
100
AcDbSymbolTableRecord
100
AcDbDimStyleTableRecord
  2
Standard
 70
0
 40
1.0
 41
2.5
 42
0.625
 43
3.75
 44
1.25
 45
0.0
 46
0.0
 47
0.0
 48
0.0
 49
2.5
140
2.5
141
2.5
142
0.0
143
0.03937007874
144
1.0
145
0.0
146
1.0
147
0.625
148
0.0
 69
0
 70
0
 71
0
 72
0
 73
0
 74
0
 75
0
 76
0
 77
1
 78
8
 79
3
170
0
171
3
172
1
173
0
174
0
175
0
176
0
177
0
178
0
179
2
271
2
272
2
273
2
274
3
275
0
276
0
277
2
278
44
279
0
280
0
281
0
282
0
283
0
284
8
285
0
286
0
288
0
289
3
290
0
371
-2
372
-2
  0
DIMSTYLE
105
73
330
4
100
AcDbSymbolTableRecord
100
AcDbDimStyleTableRecord
  2
EZDXF
 70
0
 40
1.0
 41
0.175
 42
0.125
 43
3.75
 44
0.375
 45
0.0
 46
0.0
 47
0.0
 48
0.0
 49
2.5
140
0.25
141
2.5
142
0.0
143
0.03937007874
144
100.0
145
0.0
146
0.5
147
0.1
148
0.0
 69
0
 70
0
 71
0
 72
0
 73
0
 74
0
 75
0
 76
0
 77
1
 78
12
 79
3
170
0
171
3
172
1
173
0
174
0
175
0
176
0
177
0
178
0
179
2
271
2
272
2
273
2
274
3
275
0
276
0
277
2
278
46
279
2
280
0
281
0
282
0
283
0
284
8
285
0
286
0
288
1
289
3
290
0
340
4C
342
74
371
-2
372
-2
  0
DIMSTYLE
105
7C
330
4
100
AcDbSymbolTableRecord
100
AcDbDimStyleTableRecord
  2
EZ_M_100_H25_CM
 70
0
 40
1.0
 41
0.25
 42
0.125
 43
3.75
 44
0.375
 45
0.0
 46
0.0
 47
0.0
 48
0.0
 49
2.5
140
0.25
141
2.5
142
0.125
143
0.03937007874
144
100.0
145
0.0
146
0.5
147
0.1
148
0.0
 69
0
 70
0
 71
0
 72
0
 73
0
 74
0
 75
0
 76
0
 77
1
 78
12
 79
3
170
0
171
3
172
1
173
0
174
0
175
0
176
0
177
0
178
0
179
2
271
2
272
2
273
2
274
3
275
0
276
0
277
2
278
46
279
2
280
0
281
0
282
0
283
0
284
8
285
0
286
0
288
1
289
3
290
0
340
4C
371
-2
372
-2
  0
DIMSTYLE
105
7D
330
4
100
AcDbSymbolTableRecord
100
AcDbDimStyleTableRecord
  2
EZ_M_50_H25_CM
 70
0
 40
1.0
 41
0.125
 42
0.0625
 43
3.75
 44
0.1875
 45
0.0
 46
0.0
 47
0.0
 48
0.0
 49
2.5
140
0.125
141
2.5
142
0.0625
143
0.03937007874
144
100.0
145
0.0
146
0.5
147
0.05
148
0.0
 69
0
 70
0
 71
0
 72
0
 73
0
 74
0
 75
0
 76
0
 77
1
 78
12
 79
3
170
0
171
3
172
1
173
0
174
0
175
0
176
0
177
0
178
0
179
2
271
2
272
2
273
2
274
3
275
0
276
0
277
2
278
46
279
2
280
0
281
0
282
0
283
0
284
8
285
0
286
0
288
1
289
3
290
0
340
4C
371
-2
372
-2
  0
DIMSTYLE
105
7E
330
4
100
AcDbSymbolTableRecord
100
AcDbDimStyleTableRecord
  2
EZ_M_25_H25_CM
 70
0
 40
1.0
 41
0.0625
 42
0.03125
 43
3.75
 44
0.09375
 45
0.0
 46
0.0
 47
0.0
 48
0.0
 49
2.5
140
0.0625
141
2.5
142
0.03125
143
0.03937007874
144
100.0
145
0.0
146
0.5
147
0.025
148
0.0
 69
0
 70
0
 71
0
 72
0
 73
0
 74
0
 75
0
 76
0
 77
1
 78
12
 79
3
170
0
171
3
172
1
173
0
174
0
175
0
176
0
177
0
178
0
179
2
271
2
272
2
273
2
274
3
275
0
276
0
277
2
278
46
279
2
280
0
281
0
282
0
283
0
284
8
285
0
286
0
288
1
289
3
290
0
340
4C
371
-2
372
-2
  0
DIMSTYLE
105
7F
330
4
100
AcDbSymbolTableRecord
100
AcDbDimStyleTableRecord
  2
EZ_M_20_H25_CM
 70
0
 40
1.0
 41
0.05
 42
0.025
 43
3.75
 44
0.07500000000000001
 45
0.0
 46
0.0
 47
0.0
 48
0.0
 49
2.5
140
0.05
141
2.5
142
0.025
143
0.03937007874
144
100.0
145
0.0
146
0.5
147
0.020000000000000004
148
0.0
 69
0
 70
0
 71
0
 72
0
 73
0
 74
0
 75
0
 76
0
 77
1
 78
12
 79
3
170
0
171
3
172
1
173
0
174
0
175
0
176
0
177
0
178
0
179
2
271
2
272
2
273
2
274
3
275
0
276
0
277
2
278
46
279
2
280
0
281
0
282
0
283
0
284
8
285
0
286
0
288
1
289
3
290
0
340
4C
371
-2
372
-2
  0
DIMSTYLE
105
80
330
4
100
AcDbSymbolTableRecord
100
AcDbDimStyleTableRecord
  2
EZ_M_10_H25_CM
 70
0
 40
1.0
 41
0.025
 42
0.0125
 43
3.75
 44
0.037500000000000006
 45
0.0
 46
0.0
 47
0.0
 48
0.0
 49
2.5
140
0.025
141
2.5
142
0.0125
143
0.03937007874
144
100.0
145
0.0
146
0.5
147
0.010000000000000002
148
0.0
 69
0
 70
0
 71
0
 72
0
 73
0
 74
0
 75
0
 76
0
 77
1
 78
12
 79
3
170
0
171
3
172
1
173
0
174
0
175
0
176
0
177
0
178
0
179
2
271
2
272
2
273
2
274
3
275
0
276
0
277
2
278
46
279
2
280
0
281
0
282
0
283
0
284
8
285
0
286
0
288
1
289
3
290
0
340
4C
371
-2
372
-2
  0
DIMSTYLE
105
81
330
4
100
AcDbSymbolTableRecord
100
AcDbDimStyleTableRecord
  2
EZ_M_5_H25_CM
 70
0
 40
1.0
 41
0.0125
 42
0.00625
 43
3.75
 44
0.018750000000000003
 45
0.0
 46
0.0
 47
0.0
 48
0.0
 49
2.5
140
0.0125
141
2.5
142
0.00625
143
0.03937007874
144
100.0
145
0.0
146
0.5
147
0.005000000000000001
148
0.0
 69
0
 70
0
 71
0
 72
0
 73
0
 74
0
 75
0
 76
0
 77
1
 78
12
 79
3
170
0
171
3
172
1
173
0
174
0
175
0
176
0
177
0
178
0
179
2
271
2
272
2
273
2
274
3
275
0
276
0
277
2
278
46
279
2
280
0
281
0
282
0
283
0
284
8
285
0
286
0
288
1
289
3
290
0
340
4C
371
-2
372
-2
  0
DIMSTYLE
105
82
330
4
100
AcDbSymbolTableRecord
100
AcDbDimStyleTableRecord
  2
EZ_M_1_H25_CM
 70
0
 40
1.0
 41
0.0025
 42
0.00125
 43
3.75
 44
0.00375
 45
0.0
 46
0.0
 47
0.0
 48
0.0
 49
2.5
140
0.0025
141
2.5
142
0.00125
143
0.03937007874
144
100.0
145
0.0
146
0.5
147
0.001
148
0.0
 69
0
 70
0
 71
0
 72
0
 73
0
 74
0
 75
0
 76
0
 77
1
 78
12
 79
3
170
0
171
3
172
1
173
0
174
0
175
0
176
0
177
0
178
0
179
2
271
2
272
2
273
2
274
3
275
0
276
0
277
2
278
46
279
2
280
0
281
0
282
0
283
0
284
8
285
0
286
0
288
1
289
3
290
0
340
4C
371
-2
372
-2
  0
DIMSTYLE
105
83
330
4
100
AcDbSymbolTableRecord
100
AcDbDimStyleTableRecord
  2
EZ_RADIUS
 70
0
 40
1.0
 41
0.25
 42
0.125
 43
3.75
 44
0.375
 45
0.0
 46
0.0
 47
0.0
 48
0.0
 49
2.5
140
0.25
141
0.0
142
0.0
143
0.03937007874
144
100.0
145
0.0
146
0.5
147
0.1
148
0.0
 69
0
 70
0
 71
0
 72
0
 73
0
 74
0
 75
0
 76
0
 77
1
 78
12
 79
3
170
0
171
3
172
0
173
0
174
0
175
0
176
0
177
0
178
0
179
2
271
2
272
2
273
2
274
3
275
0
276
0
277
2
278
46
279
1
280
0
281
0
282
0
283
0
284
8
285
0
286
0
288
1
289
3
290
0
340
4C
342
84
371
-2
372
-2
  0
DIMSTYLE
105
88
330
4
100
AcDbSymbolTableRecord
100
AcDbDimStyleTableRecord
  2
EZ_RADIUS_INSIDE
 70
0
 40
1.0
 41
0.25
 42
0.125
 43
3.75
 44
0.375
 45
0.0
 46
0.0
 47
0.0
 48
0.0
 49
2.5
140
0.25
141
0.0
142
0.0
143
0.03937007874
144
100.0
145
0.0
146
0.5
147
0.1
148
0.0
 69
0
 70
0
 71
0
 72
0
 73
0
 74
0
 75
0
 76
0
 77
0
 78
12
 79
3
170
0
171
3
172
0
173
0
174
1
175
0
176
0
177
0
178
0
179
2
271
2
272
2
273
2
274
3
275
0
276
0
277
2
278
46
279
0
280
0
281
0
282
0
283
0
284
8
285
0
286
0
288
1
289
0
290
0
340
4C
342
84
371
-2
372
-2
  0
DIMSTYLE
105
89
330
4
100
AcDbSymbolTableRecord
100
AcDbDimStyleTableRecord
  2
EZ_CURVED
 70
0
 40
1.0
 41
0.25
 42
0.125
 43
3.75
 44
0.375
 45
0.0
 46
0.0
 47
0.0
 48
0.0
 49
2.5
140
0.25
141
2.5
142
0.0
143
0.03937007874
144
100.0
145
0.0
146
0.5
147
0.1
148
0.0
 69
0
 70
0
 71
0
 72
0
 73
0
 74
0
 75
0
 76
0
 77
1
 78
12
 79
2
 90
2
170
0
171
3
172
1
173
0
174
0
175
0
176
0
177
0
178
0
179
2
271
2
272
2
273
2
274
3
275
0
276
0
277
2
278
46
279
2
280
0
281
0
282
0
283
0
284
8
285
0
286
0
288
1
289
3
290
0
340
4C
371
-2
372
-2
  0
DIMSTYLE
105
96
330
4
100
AcDbSymbolTableRecord
100
AcDbDimStyleTableRecord
  2
AEROFORGE
 70
0
 40
1.0
 41
1.5
 42
0.5
 43
3.75
 44
0.8
 45
0.0
 46
0.0
 47
0.0
 48
0.0
 49
2.5
140
2.5
141
2.5
142
0.0
143
0.03937007874
144
1.0
145
0.0
146
1.0
147
0.6
148
0.0
 69
0
 70
0
 71
0
 72
0
 73
0
 74
0
 75
0
 76
0
 77
1
 78
8
 79
3
170
0
171
3
172
1
173
0
174
0
175
0
176
0
177
0
178
0
179
2
271
2
272
2
273
2
274
3
275
0
276
0
277
2
278
44
279
0
280
0
281
0
282
0
283
0
284
8
285
0
286
0
288
0
289
3
290
0
371
-2
372
-2
  0
ENDTAB
  0
TABLE
  2
BLOCK_RECORD
  5
9
330
0
100
AcDbSymbolTable
 70
14
  0
BLOCK_RECORD
  5
17
330
9
100
AcDbSymbolTableRecord
100
AcDbBlockTableRecord
  2
*Model_Space
340
1A
 70
0
280
1
281
0
  0
BLOCK_RECORD
  5
1B
330
9
100
AcDbSymbolTableRecord
100
AcDbBlockTableRecord
  2
*Paper_Space
340
1E
 70
0
280
1
281
0
  0
BLOCK_RECORD
  5
74
330
9
100
AcDbSymbolTableRecord
100
AcDbBlockTableRecord
  2
_ARCHTICK
340
0
 70
0
280
1
281
0
  0
BLOCK_RECORD
  5
78
330
9
100
AcDbSymbolTableRecord
100
AcDbBlockTableRecord
  2
_CLOSEDFILLED
340
0
 70
0
280
1
281
0
  0
BLOCK_RECORD
  5
84
330
9
100
AcDbSymbolTableRecord
100
AcDbBlockTableRecord
  2
_CLOSEDBLANK
340
0
 70
0
280
1
281
0
  0
BLOCK_RECORD
  5
144
330
9
100
AcDbSymbolTableRecord
100
AcDbBlockTableRecord
  2
*D1
340
0
 70
0
280
1
281
0
  0
BLOCK_RECORD
  5
154
330
9
100
AcDbSymbolTableRecord
100
AcDbBlockTableRecord
  2
*D2
340
0
 70
0
280
1
281
0
  0
BLOCK_RECORD
  5
164
330
9
100
AcDbSymbolTableRecord
100
AcDbBlockTableRecord
  2
*D3
340
0
 70
0
280
1
281
0
  0
BLOCK_RECORD
  5
1A1
330
9
100
AcDbSymbolTableRecord
100
AcDbBlockTableRecord
  2
*D4
340
0
 70
0
280
1
281
0
  0
BLOCK_RECORD
  5
275
330
9
100
AcDbSymbolTableRecord
100
AcDbBlockTableRecord
  2
*D5
340
0
 70
0
280
1
281
0
  0
BLOCK_RECORD
  5
32F
330
9
100
AcDbSymbolTableRecord
100
AcDbBlockTableRecord
  2
*D6
340
0
 70
0
280
1
281
0
  0
BLOCK_RECORD
  5
33F
330
9
100
AcDbSymbolTableRecord
100
AcDbBlockTableRecord
  2
*D7
340
0
 70
0
280
1
281
0
  0
BLOCK_RECORD
  5
3FE
330
9
100
AcDbSymbolTableRecord
100
AcDbBlockTableRecord
  2
*D8
340
0
 70
0
280
1
281
0
  0
BLOCK_RECORD
  5
40E
330
9
100
AcDbSymbolTableRecord
100
AcDbBlockTableRecord
  2
*D9
340
0
 70
0
280
1
281
0
  0
ENDTAB
  0
ENDSEC
  0
SECTION
  2
BLOCKS
  0
BLOCK
  5
18
330
17
100
AcDbEntity
  8
0
100
AcDbBlockBegin
  2
*Model_Space
 70
0
 10
0.0
 20
0.0
 30
0.0
  3
*Model_Space
  1

  0
ENDBLK
  5
19
330
17
100
AcDbEntity
  8
0
100
AcDbBlockEnd
  0
BLOCK
  5
1C
330
1B
100
AcDbEntity
  8
0
100
AcDbBlockBegin
  2
*Paper_Space
 70
0
 10
0.0
 20
0.0
 30
0.0
  3
*Paper_Space
  1

  0
ENDBLK
  5
1D
330
1B
100
AcDbEntity
  8
0
100
AcDbBlockEnd
  0
BLOCK
  5
75
330
74
100
AcDbEntity
  8
0
100
AcDbBlockBegin
  2
_ARCHTICK
 70
0
 10
0.0
 20
0.0
 30
0.0
  3
_ARCHTICK
  1

  0
LWPOLYLINE
  5
77
330
74
100
AcDbEntity
  8
0
  6
BYBLOCK
 62
0
100
AcDbPolyline
 90
2
 70
0
 43
0.15
 10
-0.5
 20
-0.5
 10
0.5
 20
0.5
  0
ENDBLK
  5
76
330
74
100
AcDbEntity
  8
0
100
AcDbBlockEnd
  0
BLOCK
  5
79
330
78
100
AcDbEntity
  8
0
100
AcDbBlockBegin
  2
_CLOSEDFILLED
 70
0
 10
0.0
 20
0.0
 30
0.0
  3
_CLOSEDFILLED
  1

  0
SOLID
  5
7B
330
78
100
AcDbEntity
  8
0
  6
BYBLOCK
 62
0
100
AcDbTrace
 10
-1.0
 20
0.16439898372402537
 30
0.0
 11
0.0
 21
0.0
 31
0.0
 12
-1.0
 22
-0.16439898372402537
 32
0.0
 13
-1.0
 23
-0.16439898372402537
 33
0.0
  0
ENDBLK
  5
7A
330
78
100
AcDbEntity
  8
0
100
AcDbBlockEnd
  0
BLOCK
  5
85
330
84
100
AcDbEntity
  8
0
100
AcDbBlockBegin
  2
_CLOSEDBLANK
 70
0
 10
0.0
 20
0.0
 30
0.0
  3
_CLOSEDBLANK
  1

  0
LWPOLYLINE
  5
87
330
84
100
AcDbEntity
  8
0
  6
BYBLOCK
 62
0
100
AcDbPolyline
 90
3
 70
1
 10
-1.0
 20
0.16439898372402537
 10
0.0
 20
0.0
 10
-1.0
 20
-0.16439898372402537
  0
ENDBLK
  5
86
330
84
100
AcDbEntity
  8
0
100
AcDbBlockEnd
  0
BLOCK
  5
145
330
144
100
AcDbEntity
  8
0
100
AcDbBlockBegin
  2
*D1
 70
1
 10
0.0
 20
0.0
 30
0.0
  3
*D1
  1

  0
LINE
  5
147
330
144
100
AcDbEntity
  8
0
100
AcDbLine
 10
40.0
 20
389.5
 30
0.0
 11
40.0
 21
384.2
 31
0.0
  0
LINE
  5
148
330
144
100
AcDbEntity
  8
0
100
AcDbLine
 10
300.0
 20
389.5
 30
0.0
 11
300.0
 21
384.2
 31
0.0
  0
INSERT
  5
149
330
144
100
AcDbEntity
  8
0
100
AcDbBlockReference
  2
_CLOSEDFILLED
 10
40.0
 20
385.0
 30
0.0
 41
1.5
 42
1.5
 50
180.0
  0
INSERT
  5
14B
330
144
100
AcDbEntity
  8
0
100
AcDbBlockReference
  2
_CLOSEDFILLED
 10
300.0
 20
385.0
 30
0.0
 41
1.5
 42
1.5
  0
LINE
  5
14D
330
144
100
AcDbEntity
  8
0
100
AcDbLine
 10
41.5
 20
385.0
 30
0.0
 11
166.25
 21
385.0
 31
0.0
  0
LINE
  5
14E
330
144
100
AcDbEntity
  8
0
100
AcDbLine
 10
173.75000000000003
 20
385.0
 30
0.0
 11
298.5
 21
385.0
 31
0.0
  0
MTEXT
  5
14F
330
144
100
AcDbEntity
  8
0
100
AcDbMText
 10
170.0
 20
385.0
 30
0.0
 40
2.5
 71
5
  1
260
  7
OpenSansCondensed-Light
  0
POINT
  5
150
330
144
100
AcDbEntity
  8
Defpoints
100
AcDbPoint
 10
40.0
 20
385.0
 30
0.0
  0
POINT
  5
151
330
144
100
AcDbEntity
  8
Defpoints
100
AcDbPoint
 10
40.0
 20
390.0
 30
0.0
  0
POINT
  5
152
330
144
100
AcDbEntity
  8
Defpoints
100
AcDbPoint
 10
300.0
 20
390.0
 30
0.0
  0
ENDBLK
  5
146
330
144
100
AcDbEntity
  8
0
100
AcDbBlockEnd
  0
BLOCK
  5
155
330
154
100
AcDbEntity
  8
0
100
AcDbBlockBegin
  2
*D2
 70
1
 10
0.0
 20
0.0
 30
0.0
  3
*D2
  1

  0
LINE
  5
157
330
154
100
AcDbEntity
  8
0
100
AcDbLine
 10
320.5
 20
398.0
 30
0.0
 11
350.8
 21
398.0
 31
0.0
  0
LINE
  5
158
330
154
100
AcDbEntity
  8
0
100
AcDbLine
 10
320.5
 20
442.0
 30
0.0
 11
350.8
 21
442.0
 31
0.0
  0
INSERT
  5
159
330
154
100
AcDbEntity
  8
0
100
AcDbBlockReference
  2
_CLOSEDFILLED
 10
350.0
 20
398.0
 30
0.0
 41
1.5
 42
1.5
 50
270.0
  0
INSERT
  5
15B
330
154
100
AcDbEntity
  8
0
100
AcDbBlockReference
  2
_CLOSEDFILLED
 10
350.0
 20
442.0
 30
0.0
 41
1.5
 42
1.5
 50
90.0
  0
LINE
  5
15D
330
154
100
AcDbEntity
  8
0
100
AcDbLine
 10
350.0
 20
399.5
 30
0.0
 11
350.0
 21
417.5
 31
0.0
  0
LINE
  5
15E
330
154
100
AcDbEntity
  8
0
100
AcDbLine
 10
350.0
 20
422.5
 30
0.0
 11
350.0
 21
440.5
 31
0.0
  0
MTEXT
  5
15F
330
154
100
AcDbEntity
  8
0
100
AcDbMText
 10
350.0
 20
420.0
 30
0.0
 40
2.5
 71
5
  1
44
  7
OpenSansCondensed-Light
 50
90.0
  0
POINT
  5
160
330
154
100
AcDbEntity
  8
Defpoints
100
AcDbPoint
 10
350.0
 20
398.0
 30
0.0
  0
POINT
  5
161
330
154
100
AcDbEntity
  8
Defpoints
100
AcDbPoint
 10
320.0
 20
398.0
 30
0.0
  0
POINT
  5
162
330
154
100
AcDbEntity
  8
Defpoints
100
AcDbPoint
 10
320.0
 20
442.0
 30
0.0
  0
ENDBLK
  5
156
330
154
100
AcDbEntity
  8
0
100
AcDbBlockEnd
  0
BLOCK
  5
165
330
164
100
AcDbEntity
  8
0
100
AcDbBlockBegin
  2
*D3
 70
1
 10
0.0
 20
0.0
 30
0.0
  3
*D3
  1

  0
LINE
  5
167
330
164
100
AcDbEntity
  8
0
100
AcDbLine
 10
65.5
 20
404.0
 30
0.0
 11
70.8
 21
404.0
 31
0.0
  0
LINE
  5
168
330
164
100
AcDbEntity
  8
0
100
AcDbLine
 10
65.5
 20
436.0
 30
0.0
 11
70.8
 21
436.0
 31
0.0
  0
INSERT
  5
169
330
164
100
AcDbEntity
  8
0
100
AcDbBlockReference
  2
_CLOSEDFILLED
 10
70.0
 20
404.0
 30
0.0
 41
1.5
 42
1.5
 50
270.0
  0
INSERT
  5
16B
330
164
100
AcDbEntity
  8
0
100
AcDbBlockReference
  2
_CLOSEDFILLED
 10
70.0
 20
436.0
 30
0.0
 41
1.5
 42
1.5
 50
90.0
  0
LINE
  5
16D
330
164
100
AcDbEntity
  8
0
100
AcDbLine
 10
70.0
 20
405.5
 30
0.0
 11
70.0
 21
417.5
 31
0.0
  0
LINE
  5
16E
330
164
100
AcDbEntity
  8
0
100
AcDbLine
 10
70.0
 20
422.5
 30
0.0
 11
70.0
 21
434.5
 31
0.0
  0
MTEXT
  5
16F
330
164
100
AcDbEntity
  8
0
100
AcDbMText
 10
70.0
 20
420.0
 30
0.0
 40
2.5
 71
5
  1
32
  7
OpenSansCondensed-Light
 50
90.0
  0
POINT
  5
170
330
164
100
AcDbEntity
  8
Defpoints
100
AcDbPoint
 10
70.0
 20
404.0
 30
0.0
  0
POINT
  5
171
330
164
100
AcDbEntity
  8
Defpoints
100
AcDbPoint
 10
65.0
 20
404.0
 30
0.0
  0
POINT
  5
172
330
164
100
AcDbEntity
  8
Defpoints
100
AcDbPoint
 10
65.0
 20
436.0
 30
0.0
  0
ENDBLK
  5
166
330
164
100
AcDbEntity
  8
0
100
AcDbBlockEnd
  0
BLOCK
  5
1A2
330
1A1
100
AcDbEntity
  8
0
100
AcDbBlockBegin
  2
*D4
 70
1
 10
0.0
 20
0.0
 30
0.0
  3
*D4
  1

  0
LINE
  5
1A4
330
1A1
100
AcDbEntity
  8
0
100
AcDbLine
 10
330.5
 20
285.0
 30
0.0
 11
360.8
 21
285.0
 31
0.0
  0
LINE
  5
1A5
330
1A1
100
AcDbEntity
  8
0
100
AcDbLine
 10
330.5
 20
335.0
 30
0.0
 11
360.8
 21
335.0
 31
0.0
  0
INSERT
  5
1A6
330
1A1
100
AcDbEntity
  8
0
100
AcDbBlockReference
  2
_CLOSEDFILLED
 10
360.0
 20
285.0
 30
0.0
 41
1.5
 42
1.5
 50
270.0
  0
INSERT
  5
1A8
330
1A1
100
AcDbEntity
  8
0
100
AcDbBlockReference
  2
_CLOSEDFILLED
 10
360.0
 20
335.0
 30
0.0
 41
1.5
 42
1.5
 50
90.0
  0
LINE
  5
1AA
330
1A1
100
AcDbEntity
  8
0
100
AcDbLine
 10
360.0
 20
286.5
 30
0.0
 11
360.0
 21
307.5
 31
0.0
  0
LINE
  5
1AB
330
1A1
100
AcDbEntity
  8
0
100
AcDbLine
 10
360.0
 20
312.5
 30
0.0
 11
360.0
 21
333.5
 31
0.0
  0
MTEXT
  5
1AC
330
1A1
100
AcDbEntity
  8
0
100
AcDbMText
 10
360.0
 20
310.0
 30
0.0
 40
2.5
 71
5
  1
50
  7
OpenSansCondensed-Light
 50
90.0
  0
POINT
  5
1AD
330
1A1
100
AcDbEntity
  8
Defpoints
100
AcDbPoint
 10
360.0
 20
285.0
 30
0.0
  0
POINT
  5
1AE
330
1A1
100
AcDbEntity
  8
Defpoints
100
AcDbPoint
 10
330.0
 20
285.0
 30
0.0
  0
POINT
  5
1AF
330
1A1
100
AcDbEntity
  8
Defpoints
100
AcDbPoint
 10
330.0
 20
335.0
 30
0.0
  0
ENDBLK
  5
1A3
330
1A1
100
AcDbEntity
  8
0
100
AcDbBlockEnd
  0
BLOCK
  5
276
330
275
100
AcDbEntity
  8
0
100
AcDbBlockBegin
  2
*D5
 70
1
 10
0.0
 20
0.0
 30
0.0
  3
*D5
  1

  0
LINE
  5
278
330
275
100
AcDbEntity
  8
0
100
AcDbLine
 10
364.0
 20
488.5
 30
0.0
 11
364.0
 21
485.2
 31
0.0
  0
LINE
  5
279
330
275
100
AcDbEntity
  8
0
100
AcDbLine
 10
396.0
 20
488.5
 30
0.0
 11
396.0
 21
485.2
 31
0.0
  0
INSERT
  5
27A
330
275
100
AcDbEntity
  8
0
100
AcDbBlockReference
  2
_CLOSEDFILLED
 10
364.0
 20
486.0
 30
0.0
 41
1.5
 42
1.5
 50
180.0
  0
INSERT
  5
27C
330
275
100
AcDbEntity
  8
0
100
AcDbBlockReference
  2
_CLOSEDFILLED
 10
396.0
 20
486.0
 30
0.0
 41
1.5
 42
1.5
  0
LINE
  5
27E
330
275
100
AcDbEntity
  8
0
100
AcDbLine
 10
365.5
 20
486.0
 30
0.0
 11
377.5
 21
486.0
 31
0.0
  0
LINE
  5
27F
330
275
100
AcDbEntity
  8
0
100
AcDbLine
 10
382.5
 20
486.0
 30
0.0
 11
394.5
 21
486.0
 31
0.0
  0
MTEXT
  5
280
330
275
100
AcDbEntity
  8
0
100
AcDbMText
 10
380.0
 20
486.0
 30
0.0
 40
2.5
 71
5
  1
32
  7
OpenSansCondensed-Light
  0
POINT
  5
281
330
275
100
AcDbEntity
  8
Defpoints
100
AcDbPoint
 10
364.0
 20
486.0
 30
0.0
  0
POINT
  5
282
330
275
100
AcDbEntity
  8
Defpoints
100
AcDbPoint
 10
364.0
 20
489.0
 30
0.0
  0
POINT
  5
283
330
275
100
AcDbEntity
  8
Defpoints
100
AcDbPoint
 10
396.0
 20
489.0
 30
0.0
  0
ENDBLK
  5
277
330
275
100
AcDbEntity
  8
0
100
AcDbBlockEnd
  0
BLOCK
  5
330
330
32F
100
AcDbEntity
  8
0
100
AcDbBlockBegin
  2
*D6
 70
1
 10
0.0
 20
0.0
 30
0.0
  3
*D6
  1

  0
LINE
  5
332
330
32F
100
AcDbEntity
  8
0
100
AcDbLine
 10
541.0
 20
484.5
 30
0.0
 11
541.0
 21
480.2
 31
0.0
  0
LINE
  5
333
330
32F
100
AcDbEntity
  8
0
100
AcDbLine
 10
579.0
 20
484.5
 30
0.0
 11
579.0
 21
480.2
 31
0.0
  0
INSERT
  5
334
330
32F
100
AcDbEntity
  8
0
100
AcDbBlockReference
  2
_CLOSEDFILLED
 10
541.0
 20
481.0
 30
0.0
 41
1.5
 42
1.5
 50
180.0
  0
INSERT
  5
336
330
32F
100
AcDbEntity
  8
0
100
AcDbBlockReference
  2
_CLOSEDFILLED
 10
579.0
 20
481.0
 30
0.0
 41
1.5
 42
1.5
  0
LINE
  5
338
330
32F
100
AcDbEntity
  8
0
100
AcDbLine
 10
542.5
 20
481.0
 30
0.0
 11
557.5
 21
481.0
 31
0.0
  0
LINE
  5
339
330
32F
100
AcDbEntity
  8
0
100
AcDbLine
 10
562.5
 20
481.0
 30
0.0
 11
577.5
 21
481.0
 31
0.0
  0
MTEXT
  5
33A
330
32F
100
AcDbEntity
  8
0
100
AcDbMText
 10
560.0
 20
481.0
 30
0.0
 40
2.5
 71
5
  1
38
  7
OpenSansCondensed-Light
  0
POINT
  5
33B
330
32F
100
AcDbEntity
  8
Defpoints
100
AcDbPoint
 10
541.0
 20
481.0
 30
0.0
  0
POINT
  5
33C
330
32F
100
AcDbEntity
  8
Defpoints
100
AcDbPoint
 10
541.0
 20
485.0
 30
0.0
  0
POINT
  5
33D
330
32F
100
AcDbEntity
  8
Defpoints
100
AcDbPoint
 10
579.0
 20
485.0
 30
0.0
  0
ENDBLK
  5
331
330
32F
100
AcDbEntity
  8
0
100
AcDbBlockEnd
  0
BLOCK
  5
340
330
33F
100
AcDbEntity
  8
0
100
AcDbBlockBegin
  2
*D7
 70
1
 10
0.0
 20
0.0
 30
0.0
  3
*D7
  1

  0
LINE
  5
342
330
33F
100
AcDbEntity
  8
0
100
AcDbLine
 10
587.5
 20
493.0
 30
0.0
 11
591.8
 21
493.0
 31
0.0
  0
LINE
  5
343
330
33F
100
AcDbEntity
  8
0
100
AcDbLine
 10
587.5
 20
527.0
 30
0.0
 11
591.8
 21
527.0
 31
0.0
  0
INSERT
  5
344
330
33F
100
AcDbEntity
  8
0
100
AcDbBlockReference
  2
_CLOSEDFILLED
 10
591.0
 20
493.0
 30
0.0
 41
1.5
 42
1.5
 50
270.0
  0
INSERT
  5
346
330
33F
100
AcDbEntity
  8
0
100
AcDbBlockReference
  2
_CLOSEDFILLED
 10
591.0
 20
527.0
 30
0.0
 41
1.5
 42
1.5
 50
90.0
  0
LINE
  5
348
330
33F
100
AcDbEntity
  8
0
100
AcDbLine
 10
591.0
 20
494.5
 30
0.0
 11
591.0
 21
507.5
 31
0.0
  0
LINE
  5
349
330
33F
100
AcDbEntity
  8
0
100
AcDbLine
 10
591.0
 20
512.5
 30
0.0
 11
591.0
 21
525.5
 31
0.0
  0
MTEXT
  5
34A
330
33F
100
AcDbEntity
  8
0
100
AcDbMText
 10
591.0
 20
510.0
 30
0.0
 40
2.5
 71
5
  1
34
  7
OpenSansCondensed-Light
 50
90.0
  0
POINT
  5
34B
330
33F
100
AcDbEntity
  8
Defpoints
100
AcDbPoint
 10
591.0
 20
493.0
 30
0.0
  0
POINT
  5
34C
330
33F
100
AcDbEntity
  8
Defpoints
100
AcDbPoint
 10
587.0
 20
493.0
 30
0.0
  0
POINT
  5
34D
330
33F
100
AcDbEntity
  8
Defpoints
100
AcDbPoint
 10
587.0
 20
527.0
 30
0.0
  0
ENDBLK
  5
341
330
33F
100
AcDbEntity
  8
0
100
AcDbBlockEnd
  0
BLOCK
  5
3FF
330
3FE
100
AcDbEntity
  8
0
100
AcDbBlockBegin
  2
*D8
 70
1
 10
0.0
 20
0.0
 30
0.0
  3
*D8
  1

  0
LINE
  5
401
330
3FE
100
AcDbEntity
  8
0
100
AcDbLine
 10
445.0
 20
279.5
 30
0.0
 11
445.0
 21
275.2
 31
0.0
  0
LINE
  5
402
330
3FE
100
AcDbEntity
  8
0
100
AcDbLine
 10
495.0
 20
279.5
 30
0.0
 11
495.0
 21
275.2
 31
0.0
  0
INSERT
  5
403
330
3FE
100
AcDbEntity
  8
0
100
AcDbBlockReference
  2
_CLOSEDFILLED
 10
445.0
 20
276.0
 30
0.0
 41
1.5
 42
1.5
 50
180.0
  0
INSERT
  5
405
330
3FE
100
AcDbEntity
  8
0
100
AcDbBlockReference
  2
_CLOSEDFILLED
 10
495.0
 20
276.0
 30
0.0
 41
1.5
 42
1.5
  0
LINE
  5
407
330
3FE
100
AcDbEntity
  8
0
100
AcDbLine
 10
446.5
 20
276.0
 30
0.0
 11
467.5
 21
276.0
 31
0.0
  0
LINE
  5
408
330
3FE
100
AcDbEntity
  8
0
100
AcDbLine
 10
472.5
 20
276.0
 30
0.0
 11
493.5
 21
276.0
 31
0.0
  0
MTEXT
  5
409
330
3FE
100
AcDbEntity
  8
0
100
AcDbMText
 10
470.0
 20
276.0
 30
0.0
 40
2.5
 71
5
  1
50
  7
OpenSansCondensed-Light
  0
POINT
  5
40A
330
3FE
100
AcDbEntity
  8
Defpoints
100
AcDbPoint
 10
445.0
 20
276.0
 30
0.0
  0
POINT
  5
40B
330
3FE
100
AcDbEntity
  8
Defpoints
100
AcDbPoint
 10
445.0
 20
280.0
 30
0.0
  0
POINT
  5
40C
330
3FE
100
AcDbEntity
  8
Defpoints
100
AcDbPoint
 10
495.0
 20
280.0
 30
0.0
  0
ENDBLK
  5
400
330
3FE
100
AcDbEntity
  8
0
100
AcDbBlockEnd
  0
BLOCK
  5
40F
330
40E
100
AcDbEntity
  8
0
100
AcDbBlockBegin
  2
*D9
 70
1
 10
0.0
 20
0.0
 30
0.0
  3
*D9
  1

  0
LINE
  5
411
330
40E
100
AcDbEntity
  8
0
100
AcDbLine
 10
505.5
 20
288.0
 30
0.0
 11
510.8
 21
288.0
 31
0.0
  0
LINE
  5
412
330
40E
100
AcDbEntity
  8
0
100
AcDbLine
 10
505.5
 20
332.0
 30
0.0
 11
510.8
 21
332.0
 31
0.0
  0
INSERT
  5
413
330
40E
100
AcDbEntity
  8
0
100
AcDbBlockReference
  2
_CLOSEDFILLED
 10
510.0
 20
288.0
 30
0.0
 41
1.5
 42
1.5
 50
270.0
  0
INSERT
  5
415
330
40E
100
AcDbEntity
  8
0
100
AcDbBlockReference
  2
_CLOSEDFILLED
 10
510.0
 20
332.0
 30
0.0
 41
1.5
 42
1.5
 50
90.0
  0
LINE
  5
417
330
40E
100
AcDbEntity
  8
0
100
AcDbLine
 10
510.0
 20
289.5
 30
0.0
 11
510.0
 21
307.5
 31
0.0
  0
LINE
  5
418
330
40E
100
AcDbEntity
  8
0
100
AcDbLine
 10
510.0
 20
312.5
 30
0.0
 11
510.0
 21
330.5
 31
0.0
  0
MTEXT
  5
419
330
40E
100
AcDbEntity
  8
0
100
AcDbMText
 10
510.0
 20
310.0
 30
0.0
 40
2.5
 71
5
  1
44
  7
OpenSansCondensed-Light
 50
90.0
  0
POINT
  5
41A
330
40E
100
AcDbEntity
  8
Defpoints
100
AcDbPoint
 10
510.0
 20
288.0
 30
0.0
  0
POINT
  5
41B
330
40E
100
AcDbEntity
  8
Defpoints
100
AcDbPoint
 10
505.0
 20
288.0
 30
0.0
  0
POINT
  5
41C
330
40E
100
AcDbEntity
  8
Defpoints
100
AcDbPoint
 10
505.0
 20
332.0
 30
0.0
  0
ENDBLK
  5
410
330
40E
100
AcDbEntity
  8
0
100
AcDbBlockEnd
  0
ENDSEC
  0
SECTION
  2
ENTITIES
  0
LINE
  5
97
330
17
100
AcDbEntity
  8
BORDER
100
AcDbLine
 10
20.0
 20
10.0
 30
0.0
 11
831.0
 21
10.0
 31
0.0
  0
LINE
  5
98
330
17
100
AcDbEntity
  8
BORDER
100
AcDbLine
 10
831.0
 20
10.0
 30
0.0
 11
831.0
 21
584.0
 31
0.0
  0
LINE
  5
99
330
17
100
AcDbEntity
  8
BORDER
100
AcDbLine
 10
831.0
 20
584.0
 30
0.0
 11
20.0
 21
584.0
 31
0.0
  0
LINE
  5
9A
330
17
100
AcDbEntity
  8
BORDER
100
AcDbLine
 10
20.0
 20
584.0
 30
0.0
 11
20.0
 21
10.0
 31
0.0
  0
LINE
  5
9B
330
17
100
AcDbEntity
  8
BORDER
100
AcDbLine
 10
425.5
 20
5.0
 30
0.0
 11
425.5
 21
10.0
 31
0.0
  0
LINE
  5
9C
330
17
100
AcDbEntity
  8
BORDER
100
AcDbLine
 10
425.5
 20
584.0
 30
0.0
 11
425.5
 21
589.0
 31
0.0
  0
LINE
  5
9D
330
17
100
AcDbEntity
  8
BORDER
100
AcDbLine
 10
15.0
 20
297.0
 30
0.0
 11
20.0
 21
297.0
 31
0.0
  0
LINE
  5
9E
330
17
100
AcDbEntity
  8
BORDER
100
AcDbLine
 10
831.0
 20
297.0
 30
0.0
 11
836.0
 21
297.0
 31
0.0
  0
LINE
  5
9F
330
17
100
AcDbEntity
  8
BORDER
100
AcDbLine
 10
20.0
 20
81.75
 30
0.0
 11
23.0
 21
81.75
 31
0.0
  0
LINE
  5
A0
330
17
100
AcDbEntity
  8
BORDER
100
AcDbLine
 10
828.0
 20
81.75
 30
0.0
 11
831.0
 21
81.75
 31
0.0
  0
TEXT
  5
A1
330
17
100
AcDbEntity
  8
BORDER
100
AcDbText
 10
21.0
 20
44.875
 30
0.0
 40
2.5
  1
A
 11
21.0
 21
44.875
 31
0.0
100
AcDbText
  0
TEXT
  5
A2
330
17
100
AcDbEntity
  8
BORDER
100
AcDbText
 10
827.5
 20
44.875
 30
0.0
 40
2.5
  1
A
 11
827.5
 21
44.875
 31
0.0
100
AcDbText
  0
LINE
  5
A3
330
17
100
AcDbEntity
  8
BORDER
100
AcDbLine
 10
20.0
 20
153.5
 30
0.0
 11
23.0
 21
153.5
 31
0.0
  0
LINE
  5
A4
330
17
100
AcDbEntity
  8
BORDER
100
AcDbLine
 10
828.0
 20
153.5
 30
0.0
 11
831.0
 21
153.5
 31
0.0
  0
TEXT
  5
A5
330
17
100
AcDbEntity
  8
BORDER
100
AcDbText
 10
21.0
 20
116.625
 30
0.0
 40
2.5
  1
B
 11
21.0
 21
116.625
 31
0.0
100
AcDbText
  0
TEXT
  5
A6
330
17
100
AcDbEntity
  8
BORDER
100
AcDbText
 10
827.5
 20
116.625
 30
0.0
 40
2.5
  1
B
 11
827.5
 21
116.625
 31
0.0
100
AcDbText
  0
LINE
  5
A7
330
17
100
AcDbEntity
  8
BORDER
100
AcDbLine
 10
20.0
 20
225.25
 30
0.0
 11
23.0
 21
225.25
 31
0.0
  0
LINE
  5
A8
330
17
100
AcDbEntity
  8
BORDER
100
AcDbLine
 10
828.0
 20
225.25
 30
0.0
 11
831.0
 21
225.25
 31
0.0
  0
TEXT
  5
A9
330
17
100
AcDbEntity
  8
BORDER
100
AcDbText
 10
21.0
 20
188.375
 30
0.0
 40
2.5
  1
C
 11
21.0
 21
188.375
 31
0.0
100
AcDbText
  0
TEXT
  5
AA
330
17
100
AcDbEntity
  8
BORDER
100
AcDbText
 10
827.5
 20
188.375
 30
0.0
 40
2.5
  1
C
 11
827.5
 21
188.375
 31
0.0
100
AcDbText
  0
LINE
  5
AB
330
17
100
AcDbEntity
  8
BORDER
100
AcDbLine
 10
20.0
 20
297.0
 30
0.0
 11
23.0
 21
297.0
 31
0.0
  0
LINE
  5
AC
330
17
100
AcDbEntity
  8
BORDER
100
AcDbLine
 10
828.0
 20
297.0
 30
0.0
 11
831.0
 21
297.0
 31
0.0
  0
TEXT
  5
AD
330
17
100
AcDbEntity
  8
BORDER
100
AcDbText
 10
21.0
 20
260.125
 30
0.0
 40
2.5
  1
D
 11
21.0
 21
260.125
 31
0.0
100
AcDbText
  0
TEXT
  5
AE
330
17
100
AcDbEntity
  8
BORDER
100
AcDbText
 10
827.5
 20
260.125
 30
0.0
 40
2.5
  1
D
 11
827.5
 21
260.125
 31
0.0
100
AcDbText
  0
LINE
  5
AF
330
17
100
AcDbEntity
  8
BORDER
100
AcDbLine
 10
20.0
 20
368.75
 30
0.0
 11
23.0
 21
368.75
 31
0.0
  0
LINE
  5
B0
330
17
100
AcDbEntity
  8
BORDER
100
AcDbLine
 10
828.0
 20
368.75
 30
0.0
 11
831.0
 21
368.75
 31
0.0
  0
TEXT
  5
B1
330
17
100
AcDbEntity
  8
BORDER
100
AcDbText
 10
21.0
 20
331.875
 30
0.0
 40
2.5
  1
E
 11
21.0
 21
331.875
 31
0.0
100
AcDbText
  0
TEXT
  5
B2
330
17
100
AcDbEntity
  8
BORDER
100
AcDbText
 10
827.5
 20
331.875
 30
0.0
 40
2.5
  1
E
 11
827.5
 21
331.875
 31
0.0
100
AcDbText
  0
LINE
  5
B3
330
17
100
AcDbEntity
  8
BORDER
100
AcDbLine
 10
20.0
 20
440.5
 30
0.0
 11
23.0
 21
440.5
 31
0.0
  0
LINE
  5
B4
330
17
100
AcDbEntity
  8
BORDER
100
AcDbLine
 10
828.0
 20
440.5
 30
0.0
 11
831.0
 21
440.5
 31
0.0
  0
TEXT
  5
B5
330
17
100
AcDbEntity
  8
BORDER
100
AcDbText
 10
21.0
 20
403.625
 30
0.0
 40
2.5
  1
F
 11
21.0
 21
403.625
 31
0.0
100
AcDbText
  0
TEXT
  5
B6
330
17
100
AcDbEntity
  8
BORDER
100
AcDbText
 10
827.5
 20
403.625
 30
0.0
 40
2.5
  1
F
 11
827.5
 21
403.625
 31
0.0
100
AcDbText
  0
LINE
  5
B7
330
17
100
AcDbEntity
  8
BORDER
100
AcDbLine
 10
20.0
 20
512.25
 30
0.0
 11
23.0
 21
512.25
 31
0.0
  0
LINE
  5
B8
330
17
100
AcDbEntity
  8
BORDER
100
AcDbLine
 10
828.0
 20
512.25
 30
0.0
 11
831.0
 21
512.25
 31
0.0
  0
TEXT
  5
B9
330
17
100
AcDbEntity
  8
BORDER
100
AcDbText
 10
21.0
 20
475.375
 30
0.0
 40
2.5
  1
G
 11
21.0
 21
475.375
 31
0.0
100
AcDbText
  0
TEXT
  5
BA
330
17
100
AcDbEntity
  8
BORDER
100
AcDbText
 10
827.5
 20
475.375
 30
0.0
 40
2.5
  1
G
 11
827.5
 21
475.375
 31
0.0
100
AcDbText
  0
LINE
  5
BB
330
17
100
AcDbEntity
  8
BORDER
100
AcDbLine
 10
20.0
 20
584.0
 30
0.0
 11
23.0
 21
584.0
 31
0.0
  0
LINE
  5
BC
330
17
100
AcDbEntity
  8
BORDER
100
AcDbLine
 10
828.0
 20
584.0
 30
0.0
 11
831.0
 21
584.0
 31
0.0
  0
TEXT
  5
BD
330
17
100
AcDbEntity
  8
BORDER
100
AcDbText
 10
21.0
 20
547.125
 30
0.0
 40
2.5
  1
H
 11
21.0
 21
547.125
 31
0.0
100
AcDbText
  0
TEXT
  5
BE
330
17
100
AcDbEntity
  8
BORDER
100
AcDbText
 10
827.5
 20
547.125
 30
0.0
 40
2.5
  1
H
 11
827.5
 21
547.125
 31
0.0
100
AcDbText
  0
LINE
  5
BF
330
17
100
AcDbEntity
  8
BORDER
100
AcDbLine
 10
87.58333333333333
 20
10.0
 30
0.0
 11
87.58333333333333
 21
13.0
 31
0.0
  0
LINE
  5
C0
330
17
100
AcDbEntity
  8
BORDER
100
AcDbLine
 10
87.58333333333333
 20
581.0
 30
0.0
 11
87.58333333333333
 21
584.0
 31
0.0
  0
TEXT
  5
C1
330
17
100
AcDbEntity
  8
BORDER
100
AcDbText
 10
52.791666666666664
 20
10.5
 30
0.0
 40
2.0
  1
1
 11
52.791666666666664
 21
10.5
 31
0.0
100
AcDbText
  0
TEXT
  5
C2
330
17
100
AcDbEntity
  8
BORDER
100
AcDbText
 10
52.791666666666664
 20
581.0
 30
0.0
 40
2.0
  1
1
 11
52.791666666666664
 21
581.0
 31
0.0
100
AcDbText
  0
LINE
  5
C3
330
17
100
AcDbEntity
  8
BORDER
100
AcDbLine
 10
155.16666666666666
 20
10.0
 30
0.0
 11
155.16666666666666
 21
13.0
 31
0.0
  0
LINE
  5
C4
330
17
100
AcDbEntity
  8
BORDER
100
AcDbLine
 10
155.16666666666666
 20
581.0
 30
0.0
 11
155.16666666666666
 21
584.0
 31
0.0
  0
TEXT
  5
C5
330
17
100
AcDbEntity
  8
BORDER
100
AcDbText
 10
120.375
 20
10.5
 30
0.0
 40
2.0
  1
2
 11
120.375
 21
10.5
 31
0.0
100
AcDbText
  0
TEXT
  5
C6
330
17
100
AcDbEntity
  8
BORDER
100
AcDbText
 10
120.375
 20
581.0
 30
0.0
 40
2.0
  1
2
 11
120.375
 21
581.0
 31
0.0
100
AcDbText
  0
LINE
  5
C7
330
17
100
AcDbEntity
  8
BORDER
100
AcDbLine
 10
222.75
 20
10.0
 30
0.0
 11
222.75
 21
13.0
 31
0.0
  0
LINE
  5
C8
330
17
100
AcDbEntity
  8
BORDER
100
AcDbLine
 10
222.75
 20
581.0
 30
0.0
 11
222.75
 21
584.0
 31
0.0
  0
TEXT
  5
C9
330
17
100
AcDbEntity
  8
BORDER
100
AcDbText
 10
187.95833333333331
 20
10.5
 30
0.0
 40
2.0
  1
3
 11
187.95833333333331
 21
10.5
 31
0.0
100
AcDbText
  0
TEXT
  5
CA
330
17
100
AcDbEntity
  8
BORDER
100
AcDbText
 10
187.95833333333331
 20
581.0
 30
0.0
 40
2.0
  1
3
 11
187.95833333333331
 21
581.0
 31
0.0
100
AcDbText
  0
LINE
  5
CB
330
17
100
AcDbEntity
  8
BORDER
100
AcDbLine
 10
290.3333333333333
 20
10.0
 30
0.0
 11
290.3333333333333
 21
13.0
 31
0.0
  0
LINE
  5
CC
330
17
100
AcDbEntity
  8
BORDER
100
AcDbLine
 10
290.3333333333333
 20
581.0
 30
0.0
 11
290.3333333333333
 21
584.0
 31
0.0
  0
TEXT
  5
CD
330
17
100
AcDbEntity
  8
BORDER
100
AcDbText
 10
255.54166666666663
 20
10.5
 30
0.0
 40
2.0
  1
4
 11
255.54166666666663
 21
10.5
 31
0.0
100
AcDbText
  0
TEXT
  5
CE
330
17
100
AcDbEntity
  8
BORDER
100
AcDbText
 10
255.54166666666663
 20
581.0
 30
0.0
 40
2.0
  1
4
 11
255.54166666666663
 21
581.0
 31
0.0
100
AcDbText
  0
LINE
  5
CF
330
17
100
AcDbEntity
  8
BORDER
100
AcDbLine
 10
357.91666666666663
 20
10.0
 30
0.0
 11
357.91666666666663
 21
13.0
 31
0.0
  0
LINE
  5
D0
330
17
100
AcDbEntity
  8
BORDER
100
AcDbLine
 10
357.91666666666663
 20
581.0
 30
0.0
 11
357.91666666666663
 21
584.0
 31
0.0
  0
TEXT
  5
D1
330
17
100
AcDbEntity
  8
BORDER
100
AcDbText
 10
323.125
 20
10.5
 30
0.0
 40
2.0
  1
5
 11
323.125
 21
10.5
 31
0.0
100
AcDbText
  0
TEXT
  5
D2
330
17
100
AcDbEntity
  8
BORDER
100
AcDbText
 10
323.125
 20
581.0
 30
0.0
 40
2.0
  1
5
 11
323.125
 21
581.0
 31
0.0
100
AcDbText
  0
LINE
  5
D3
330
17
100
AcDbEntity
  8
BORDER
100
AcDbLine
 10
425.5
 20
10.0
 30
0.0
 11
425.5
 21
13.0
 31
0.0
  0
LINE
  5
D4
330
17
100
AcDbEntity
  8
BORDER
100
AcDbLine
 10
425.5
 20
581.0
 30
0.0
 11
425.5
 21
584.0
 31
0.0
  0
TEXT
  5
D5
330
17
100
AcDbEntity
  8
BORDER
100
AcDbText
 10
390.7083333333333
 20
10.5
 30
0.0
 40
2.0
  1
6
 11
390.7083333333333
 21
10.5
 31
0.0
100
AcDbText
  0
TEXT
  5
D6
330
17
100
AcDbEntity
  8
BORDER
100
AcDbText
 10
390.7083333333333
 20
581.0
 30
0.0
 40
2.0
  1
6
 11
390.7083333333333
 21
581.0
 31
0.0
100
AcDbText
  0
LINE
  5
D7
330
17
100
AcDbEntity
  8
BORDER
100
AcDbLine
 10
493.0833333333333
 20
10.0
 30
0.0
 11
493.0833333333333
 21
13.0
 31
0.0
  0
LINE
  5
D8
330
17
100
AcDbEntity
  8
BORDER
100
AcDbLine
 10
493.0833333333333
 20
581.0
 30
0.0
 11
493.0833333333333
 21
584.0
 31
0.0
  0
TEXT
  5
D9
330
17
100
AcDbEntity
  8
BORDER
100
AcDbText
 10
458.29166666666663
 20
10.5
 30
0.0
 40
2.0
  1
7
 11
458.29166666666663
 21
10.5
 31
0.0
100
AcDbText
  0
TEXT
  5
DA
330
17
100
AcDbEntity
  8
BORDER
100
AcDbText
 10
458.29166666666663
 20
581.0
 30
0.0
 40
2.0
  1
7
 11
458.29166666666663
 21
581.0
 31
0.0
100
AcDbText
  0
LINE
  5
DB
330
17
100
AcDbEntity
  8
BORDER
100
AcDbLine
 10
560.6666666666666
 20
10.0
 30
0.0
 11
560.6666666666666
 21
13.0
 31
0.0
  0
LINE
  5
DC
330
17
100
AcDbEntity
  8
BORDER
100
AcDbLine
 10
560.6666666666666
 20
581.0
 30
0.0
 11
560.6666666666666
 21
584.0
 31
0.0
  0
TEXT
  5
DD
330
17
100
AcDbEntity
  8
BORDER
100
AcDbText
 10
525.875
 20
10.5
 30
0.0
 40
2.0
  1
8
 11
525.875
 21
10.5
 31
0.0
100
AcDbText
  0
TEXT
  5
DE
330
17
100
AcDbEntity
  8
BORDER
100
AcDbText
 10
525.875
 20
581.0
 30
0.0
 40
2.0
  1
8
 11
525.875
 21
581.0
 31
0.0
100
AcDbText
  0
LINE
  5
DF
330
17
100
AcDbEntity
  8
BORDER
100
AcDbLine
 10
628.25
 20
10.0
 30
0.0
 11
628.25
 21
13.0
 31
0.0
  0
LINE
  5
E0
330
17
100
AcDbEntity
  8
BORDER
100
AcDbLine
 10
628.25
 20
581.0
 30
0.0
 11
628.25
 21
584.0
 31
0.0
  0
TEXT
  5
E1
330
17
100
AcDbEntity
  8
BORDER
100
AcDbText
 10
593.4583333333333
 20
10.5
 30
0.0
 40
2.0
  1
9
 11
593.4583333333333
 21
10.5
 31
0.0
100
AcDbText
  0
TEXT
  5
E2
330
17
100
AcDbEntity
  8
BORDER
100
AcDbText
 10
593.4583333333333
 20
581.0
 30
0.0
 40
2.0
  1
9
 11
593.4583333333333
 21
581.0
 31
0.0
100
AcDbText
  0
LINE
  5
E3
330
17
100
AcDbEntity
  8
BORDER
100
AcDbLine
 10
695.8333333333333
 20
10.0
 30
0.0
 11
695.8333333333333
 21
13.0
 31
0.0
  0
LINE
  5
E4
330
17
100
AcDbEntity
  8
BORDER
100
AcDbLine
 10
695.8333333333333
 20
581.0
 30
0.0
 11
695.8333333333333
 21
584.0
 31
0.0
  0
TEXT
  5
E5
330
17
100
AcDbEntity
  8
BORDER
100
AcDbText
 10
661.0416666666666
 20
10.5
 30
0.0
 40
2.0
  1
10
 11
661.0416666666666
 21
10.5
 31
0.0
100
AcDbText
  0
TEXT
  5
E6
330
17
100
AcDbEntity
  8
BORDER
100
AcDbText
 10
661.0416666666666
 20
581.0
 30
0.0
 40
2.0
  1
10
 11
661.0416666666666
 21
581.0
 31
0.0
100
AcDbText
  0
LINE
  5
E7
330
17
100
AcDbEntity
  8
BORDER
100
AcDbLine
 10
763.4166666666666
 20
10.0
 30
0.0
 11
763.4166666666666
 21
13.0
 31
0.0
  0
LINE
  5
E8
330
17
100
AcDbEntity
  8
BORDER
100
AcDbLine
 10
763.4166666666666
 20
581.0
 30
0.0
 11
763.4166666666666
 21
584.0
 31
0.0
  0
TEXT
  5
E9
330
17
100
AcDbEntity
  8
BORDER
100
AcDbText
 10
728.625
 20
10.5
 30
0.0
 40
2.0
  1
11
 11
728.625
 21
10.5
 31
0.0
100
AcDbText
  0
TEXT
  5
EA
330
17
100
AcDbEntity
  8
BORDER
100
AcDbText
 10
728.625
 20
581.0
 30
0.0
 40
2.0
  1
11
 11
728.625
 21
581.0
 31
0.0
100
AcDbText
  0
LINE
  5
EB
330
17
100
AcDbEntity
  8
BORDER
100
AcDbLine
 10
831.0
 20
10.0
 30
0.0
 11
831.0
 21
13.0
 31
0.0
  0
LINE
  5
EC
330
17
100
AcDbEntity
  8
BORDER
100
AcDbLine
 10
831.0
 20
581.0
 30
0.0
 11
831.0
 21
584.0
 31
0.0
  0
TEXT
  5
ED
330
17
100
AcDbEntity
  8
BORDER
100
AcDbText
 10
796.2083333333333
 20
10.5
 30
0.0
 40
2.0
  1
12
 11
796.2083333333333
 21
10.5
 31
0.0
100
AcDbText
  0
TEXT
  5
EE
330
17
100
AcDbEntity
  8
BORDER
100
AcDbText
 10
796.2083333333333
 20
581.0
 30
0.0
 40
2.0
  1
12
 11
796.2083333333333
 21
581.0
 31
0.0
100
AcDbText
  0
LINE
  5
EF
330
17
100
AcDbEntity
  8
TITLEBLOCK
100
AcDbLine
 10
661.0
 20
10.0
 30
0.0
 11
831.0
 21
10.0
 31
0.0
  0
LINE
  5
F0
330
17
100
AcDbEntity
  8
TITLEBLOCK
100
AcDbLine
 10
661.0
 20
46.0
 30
0.0
 11
831.0
 21
46.0
 31
0.0
  0
LINE
  5
F1
330
17
100
AcDbEntity
  8
TITLEBLOCK
100
AcDbLine
 10
661.0
 20
10.0
 30
0.0
 11
661.0
 21
46.0
 31
0.0
  0
LINE
  5
F2
330
17
100
AcDbEntity
  8
TITLEBLOCK
100
AcDbLine
 10
831.0
 20
10.0
 30
0.0
 11
831.0
 21
46.0
 31
0.0
  0
LINE
  5
F3
330
17
100
AcDbEntity
  8
TITLEBLOCK
100
AcDbLine
 10
661.0
 20
19.0
 30
0.0
 11
831.0
 21
19.0
 31
0.0
  0
LINE
  5
F4
330
17
100
AcDbEntity
  8
TITLEBLOCK
100
AcDbLine
 10
661.0
 20
28.0
 30
0.0
 11
831.0
 21
28.0
 31
0.0
  0
LINE
  5
F5
330
17
100
AcDbEntity
  8
TITLEBLOCK
100
AcDbLine
 10
661.0
 20
37.0
 30
0.0
 11
831.0
 21
37.0
 31
0.0
  0
TEXT
  5
F6
330
17
100
AcDbEntity
  8
TITLEBLOCK
100
AcDbText
 10
664.0
 20
39.0
 30
0.0
 40
3.5
  1
AEROFORGE — Fuselage_S1_Nose
 11
664.0
 21
39.0
 31
0.0
100
AcDbText
  0
TEXT
  5
F7
330
17
100
AcDbEntity
  8
TITLEBLOCK
100
AcDbText
 10
664.0
 20
30.0
 30
0.0
 40
2.0
  1
Nose section X=0-260mm. Left/right halves (M2). PETG motor bay X=30-90mm (M3).
 11
664.0
 21
30.0
 31
0.0
100
AcDbText
  0
TEXT
  5
F8
330
17
100
AcDbEntity
  8
TITLEBLOCK
100
AcDbText
 10
664.0
 20
21.0
 30
0.0
 40
2.0
  1
LW-PLA 0.6mm shell (X=90-260) | PETG shell (X=30-90) | Print: L/R halves flat
 11
664.0
 21
21.0
 31
0.0
100
AcDbText
  0
TEXT
  5
F9
330
17
100
AcDbEntity
  8
TITLEBLOCK
100
AcDbText
 10
664.0
 20
12.0
 30
0.0
 40
1.8
  1
Scale: 1:1 | Units: mm | Date: 2026-03-30 | Mass: ~25g (shell+structure, excl. longerons) | Rev: v1 | Status: FOR APPROVAL
 11
664.0
 21
12.0
 31
0.0
100
AcDbText
  0
LINE
  5
FA
330
17
100
AcDbEntity
  8
TITLEBLOCK
100
AcDbLine
 10
811.0
 20
12.0
 30
0.0
 11
819.0
 21
12.0
 31
0.0
  0
LINE
  5
FB
330
17
100
AcDbEntity
  8
TITLEBLOCK
100
AcDbLine
 10
813.0
 20
18.0
 30
0.0
 11
817.0
 21
18.0
 31
0.0
  0
LINE
  5
FC
330
17
100
AcDbEntity
  8
TITLEBLOCK
100
AcDbLine
 10
811.0
 20
12.0
 30
0.0
 11
813.0
 21
18.0
 31
0.0
  0
LINE
  5
FD
330
17
100
AcDbEntity
  8
TITLEBLOCK
100
AcDbLine
 10
819.0
 20
12.0
 30
0.0
 11
817.0
 21
18.0
 31
0.0
  0
CIRCLE
  5
FE
330
17
100
AcDbEntity
  8
TITLEBLOCK
100
AcDbCircle
 10
807.0
 20
15.0
 30
0.0
 40
3.0
  0
LINE
  5
FF
330
17
100
AcDbEntity
  8
TITLEBLOCK
100
AcDbLine
 10
810.0
 20
15.0
 30
0.0
 11
811.0
 21
15.0
 31
0.0
  0
LINE
  5
100
330
17
100
AcDbEntity
  8
ORIENTATION
100
AcDbLine
 10
45.0
 20
569.0
 30
0.0
 11
30.0
 21
569.0
 31
0.0
  0
LINE
  5
101
330
17
100
AcDbEntity
  8
ORIENTATION
100
AcDbLine
 10
30.0
 20
569.0
 30
0.0
 11
32.0
 21
570.0
 31
0.0
  0
LINE
  5
102
330
17
100
AcDbEntity
  8
ORIENTATION
100
AcDbLine
 10
30.0
 20
569.0
 30
0.0
 11
32.0
 21
568.0
 31
0.0
  0
TEXT
  5
103
330
17
100
AcDbEntity
  8
ORIENTATION
100
AcDbText
 10
29.0
 20
571.0
 30
0.0
 40
2.5
  1
FWD
 11
29.0
 21
571.0
 31
0.0
100
AcDbText
  0
LINE
  5
104
330
17
100
AcDbEntity
  8
ORIENTATION
100
AcDbLine
 10
50.0
 20
584.0
 30
0.0
 11
50.0
 21
569.0
 31
0.0
  0
LINE
  5
105
330
17
100
AcDbEntity
  8
ORIENTATION
100
AcDbLine
 10
50.0
 20
569.0
 30
0.0
 11
49.0
 21
571.0
 31
0.0
  0
LINE
  5
106
330
17
100
AcDbEntity
  8
ORIENTATION
100
AcDbLine
 10
50.0
 20
569.0
 30
0.0
 11
51.0
 21
571.0
 31
0.0
  0
TEXT
  5
107
330
17
100
AcDbEntity
  8
ORIENTATION
100
AcDbText
 10
52.0
 20
571.0
 30
0.0
 40
2.0
  1
NOSE
 11
52.0
 21
571.0
 31
0.0
100
AcDbText
  0
TEXT
  5
108
330
17
100
AcDbEntity
  8
TEXT
100
AcDbText
 10
40.0
 20
460.0
 30
0.0
 40
4.5
  1
SIDE VIEW — PROFILE (1:1)
 11
40.0
 21
460.0
 31
0.0
100
AcDbText
  0
LINE
  5
109
330
17
100
AcDbEntity
  8
OUTLINE
100
AcDbLine
 10
40.0
 20
420.0
 30
0.0
 11
50.0
 21
428.0
 31
0.0
  0
LINE
  5
10A
330
17
100
AcDbEntity
  8
OUTLINE
100
AcDbLine
 10
50.0
 20
428.0
 30
0.0
 11
60.0
 21
434.0
 31
0.0
  0
LINE
  5
10B
330
17
100
AcDbEntity
  8
OUTLINE
100
AcDbLine
 10
60.0
 20
434.0
 30
0.0
 11
70.0
 21
436.0
 31
0.0
  0
LINE
  5
10C
330
17
100
AcDbEntity
  8
OUTLINE
100
AcDbLine
 10
70.0
 20
436.0
 30
0.0
 11
80.0
 21
436.5
 31
0.0
  0
LINE
  5
10D
330
17
100
AcDbEntity
  8
OUTLINE
100
AcDbLine
 10
80.0
 20
436.5
 30
0.0
 11
95.0
 21
437.5
 31
0.0
  0
LINE
  5
10E
330
17
100
AcDbEntity
  8
OUTLINE
100
AcDbLine
 10
95.0
 20
437.5
 30
0.0
 11
110.0
 21
438.0
 31
0.0
  0
LINE
  5
10F
330
17
100
AcDbEntity
  8
OUTLINE
100
AcDbLine
 10
110.0
 20
438.0
 30
0.0
 11
130.0
 21
438.5
 31
0.0
  0
LINE
  5
110
330
17
100
AcDbEntity
  8
OUTLINE
100
AcDbLine
 10
130.0
 20
438.5
 30
0.0
 11
160.0
 21
440.5
 31
0.0
  0
LINE
  5
111
330
17
100
AcDbEntity
  8
OUTLINE
100
AcDbLine
 10
160.0
 20
440.5
 30
0.0
 11
190.0
 21
442.0
 31
0.0
  0
LINE
  5
112
330
17
100
AcDbEntity
  8
OUTLINE
100
AcDbLine
 10
190.0
 20
442.0
 30
0.0
 11
220.0
 21
442.0
 31
0.0
  0
LINE
  5
113
330
17
100
AcDbEntity
  8
OUTLINE
100
AcDbLine
 10
220.0
 20
442.0
 30
0.0
 11
240.0
 21
441.0
 31
0.0
  0
LINE
  5
114
330
17
100
AcDbEntity
  8
OUTLINE
100
AcDbLine
 10
240.0
 20
441.0
 30
0.0
 11
270.0
 21
439.0
 31
0.0
  0
LINE
  5
115
330
17
100
AcDbEntity
  8
OUTLINE
100
AcDbLine
 10
270.0
 20
439.0
 30
0.0
 11
290.0
 21
437.5
 31
0.0
  0
LINE
  5
116
330
17
100
AcDbEntity
  8
OUTLINE
100
AcDbLine
 10
290.0
 20
437.5
 30
0.0
 11
300.0
 21
437.0
 31
0.0
  0
LINE
  5
117
330
17
100
AcDbEntity
  8
OUTLINE
100
AcDbLine
 10
40.0
 20
420.0
 30
0.0
 11
50.0
 21
412.0
 31
0.0
  0
LINE
  5
118
330
17
100
AcDbEntity
  8
OUTLINE
100
AcDbLine
 10
50.0
 20
412.0
 30
0.0
 11
60.0
 21
406.0
 31
0.0
  0
LINE
  5
119
330
17
100
AcDbEntity
  8
OUTLINE
100
AcDbLine
 10
60.0
 20
406.0
 30
0.0
 11
70.0
 21
404.0
 31
0.0
  0
LINE
  5
11A
330
17
100
AcDbEntity
  8
OUTLINE
100
AcDbLine
 10
70.0
 20
404.0
 30
0.0
 11
80.0
 21
403.5
 31
0.0
  0
LINE
  5
11B
330
17
100
AcDbEntity
  8
OUTLINE
100
AcDbLine
 10
80.0
 20
403.5
 30
0.0
 11
95.0
 21
402.5
 31
0.0
  0
LINE
  5
11C
330
17
100
AcDbEntity
  8
OUTLINE
100
AcDbLine
 10
95.0
 20
402.5
 30
0.0
 11
110.0
 21
402.0
 31
0.0
  0
LINE
  5
11D
330
17
100
AcDbEntity
  8
OUTLINE
100
AcDbLine
 10
110.0
 20
402.0
 30
0.0
 11
130.0
 21
401.5
 31
0.0
  0
LINE
  5
11E
330
17
100
AcDbEntity
  8
OUTLINE
100
AcDbLine
 10
130.0
 20
401.5
 30
0.0
 11
160.0
 21
399.5
 31
0.0
  0
LINE
  5
11F
330
17
100
AcDbEntity
  8
OUTLINE
100
AcDbLine
 10
160.0
 20
399.5
 30
0.0
 11
190.0
 21
398.0
 31
0.0
  0
LINE
  5
120
330
17
100
AcDbEntity
  8
OUTLINE
100
AcDbLine
 10
190.0
 20
398.0
 30
0.0
 11
220.0
 21
398.0
 31
0.0
  0
LINE
  5
121
330
17
100
AcDbEntity
  8
OUTLINE
100
AcDbLine
 10
220.0
 20
398.0
 30
0.0
 11
240.0
 21
399.0
 31
0.0
  0
LINE
  5
122
330
17
100
AcDbEntity
  8
OUTLINE
100
AcDbLine
 10
240.0
 20
399.0
 30
0.0
 11
270.0
 21
401.0
 31
0.0
  0
LINE
  5
123
330
17
100
AcDbEntity
  8
OUTLINE
100
AcDbLine
 10
270.0
 20
401.0
 30
0.0
 11
290.0
 21
402.5
 31
0.0
  0
LINE
  5
124
330
17
100
AcDbEntity
  8
OUTLINE
100
AcDbLine
 10
290.0
 20
402.5
 30
0.0
 11
300.0
 21
403.0
 31
0.0
  0
LINE
  5
125
330
17
100
AcDbEntity
  8
CENTERLINE
100
AcDbLine
 10
35.0
 20
420.0
 30
0.0
 11
310.0
 21
420.0
 31
0.0
  0
TEXT
  5
126
330
17
100
AcDbEntity
  8
TEXT
100
AcDbText
 10
85.0
 20
442.0
 30
0.0
 40
2.0
  1
PETG (M3)
 11
85.0
 21
442.0
 31
0.0
100
AcDbText
  0
LINE
  5
127
330
17
100
AcDbEntity
  8
SECTION
100
AcDbLine
 10
70.0
 20
401.0
 30
0.0
 11
70.0
 21
439.0
 31
0.0
  0
LINE
  5
128
330
17
100
AcDbEntity
  8
SECTION
100
AcDbLine
 10
130.0
 20
398.5
 30
0.0
 11
130.0
 21
441.5
 31
0.0
  0
LINE
  5
129
330
17
100
AcDbEntity
  8
HIDDEN
100
AcDbLine
 10
120.0
 20
417.0
 30
0.0
 11
250.0
 21
417.0
 31
0.0
  0
LINE
  5
12A
330
17
100
AcDbEntity
  8
HIDDEN
100
AcDbLine
 10
120.0
 20
395.0
 30
0.0
 11
250.0
 21
395.0
 31
0.0
  0
LINE
  5
12B
330
17
100
AcDbEntity
  8
HIDDEN
100
AcDbLine
 10
120.0
 20
417.0
 30
0.0
 11
120.0
 21
395.0
 31
0.0
  0
LINE
  5
12C
330
17
100
AcDbEntity
  8
HIDDEN
100
AcDbLine
 10
250.0
 20
417.0
 30
0.0
 11
250.0
 21
395.0
 31
0.0
  0
TEXT
  5
12D
330
17
100
AcDbEntity
  8
TEXT
100
AcDbText
 10
160.0
 20
390.0
 30
0.0
 40
1.8
  1
HATCH (mag. retained)
 11
160.0
 21
390.0
 31
0.0
100
AcDbText
  0
CIRCLE
  5
12E
330
17
100
AcDbEntity
  8
SPAR
100
AcDbCircle
 10
80.0
 20
429.0
 30
0.0
 40
1.0
  0
CIRCLE
  5
12F
330
17
100
AcDbEntity
  8
SPAR
100
AcDbCircle
 10
80.0
 20
429.0
 30
0.0
 40
1.0
  0
CIRCLE
  5
130
330
17
100
AcDbEntity
  8
SPAR
100
AcDbCircle
 10
80.0
 20
411.0
 30
0.0
 40
1.0
  0
CIRCLE
  5
131
330
17
100
AcDbEntity
  8
SPAR
100
AcDbCircle
 10
80.0
 20
411.0
 30
0.0
 40
1.0
  0
CIRCLE
  5
132
330
17
100
AcDbEntity
  8
SPAR
100
AcDbCircle
 10
190.0
 20
436.0
 30
0.0
 40
1.0
  0
CIRCLE
  5
133
330
17
100
AcDbEntity
  8
SPAR
100
AcDbCircle
 10
190.0
 20
436.0
 30
0.0
 40
1.0
  0
CIRCLE
  5
134
330
17
100
AcDbEntity
  8
SPAR
100
AcDbCircle
 10
190.0
 20
404.0
 30
0.0
 40
1.0
  0
CIRCLE
  5
135
330
17
100
AcDbEntity
  8
SPAR
100
AcDbCircle
 10
190.0
 20
404.0
 30
0.0
 40
1.0
  0
CIRCLE
  5
136
330
17
100
AcDbEntity
  8
SPAR
100
AcDbCircle
 10
300.0
 20
430.0
 30
0.0
 40
1.0
  0
CIRCLE
  5
137
330
17
100
AcDbEntity
  8
SPAR
100
AcDbCircle
 10
300.0
 20
430.0
 30
0.0
 40
1.0
  0
CIRCLE
  5
138
330
17
100
AcDbEntity
  8
SPAR
100
AcDbCircle
 10
300.0
 20
410.0
 30
0.0
 40
1.0
  0
CIRCLE
  5
139
330
17
100
AcDbEntity
  8
SPAR
100
AcDbCircle
 10
300.0
 20
410.0
 30
0.0
 40
1.0
  0
LINE
  5
13A
330
17
100
AcDbEntity
  8
HIDDEN
100
AcDbLine
 10
151.0
 20
406.0
 30
0.0
 11
229.0
 21
406.0
 31
0.0
  0
LINE
  5
13B
330
17
100
AcDbEntity
  8
HIDDEN
100
AcDbLine
 10
151.0
 20
434.0
 30
0.0
 11
229.0
 21
434.0
 31
0.0
  0
LINE
  5
13C
330
17
100
AcDbEntity
  8
HIDDEN
100
AcDbLine
 10
151.0
 20
406.0
 30
0.0
 11
151.0
 21
434.0
 31
0.0
  0
LINE
  5
13D
330
17
100
AcDbEntity
  8
HIDDEN
100
AcDbLine
 10
229.0
 20
406.0
 30
0.0
 11
229.0
 21
434.0
 31
0.0
  0
TEXT
  5
13E
330
17
100
AcDbEntity
  8
TEXT
100
AcDbText
 10
156.0
 20
423.0
 30
0.0
 40
1.8
  1
BATTERY 3S 1300mAh
 11
156.0
 21
423.0
 31
0.0
100
AcDbText
  0
TEXT
  5
13F
330
17
100
AcDbEntity
  8
TEXT
100
AcDbText
 10
156.0
 20
418.0
 30
0.0
 40
1.5
  1
78x38x28mm, 165g
 11
156.0
 21
418.0
 31
0.0
100
AcDbText
  0
LINE
  5
140
330
17
100
AcDbEntity
  8
HIDDEN
100
AcDbLine
 10
70.0
 20
406.0
 30
0.0
 11
110.0
 21
406.0
 31
0.0
  0
LINE
  5
141
330
17
100
AcDbEntity
  8
HIDDEN
100
AcDbLine
 10
70.0
 20
434.0
 30
0.0
 11
110.0
 21
434.0
 31
0.0
  0
TEXT
  5
142
330
17
100
AcDbEntity
  8
TEXT
100
AcDbText
 10
75.0
 20
423.0
 30
0.0
 40
1.8
  1
MOTOR 28mm
 11
75.0
 21
423.0
 31
0.0
100
AcDbText
  0
DIMENSION
  5
143
330
17
100
AcDbEntity
  8
0
100
AcDbDimension
280
0
  2
*D1
  3
AEROFORGE
 10
40.0
 20
385.0
 30
0.0
 11
170.0
 21
385.0
 31
0.0
 70
32
 71
5
  1
<>
100
AcDbAlignedDimension
 13
40.0
 23
390.0
 33
0.0
 14
300.0
 24
390.0
 34
0.0
 50
0.0
100
AcDbRotatedDimension
  0
DIMENSION
  5
153
330
17
100
AcDbEntity
  8
0
100
AcDbDimension
280
0
  2
*D2
  3
AEROFORGE
 10
350.0
 20
398.0
 30
0.0
 11
350.0
 21
420.0
 31
0.0
 70
32
 71
5
  1
<>
100
AcDbAlignedDimension
 13
320.0
 23
398.0
 33
0.0
 14
320.0
 24
442.0
 34
0.0
 50
90.0
100
AcDbRotatedDimension
  0
DIMENSION
  5
163
330
17
100
AcDbEntity
  8
0
100
AcDbDimension
280
0
  2
*D3
  3
AEROFORGE
 10
70.0
 20
404.0
 30
0.0
 11
70.0
 21
420.0
 31
0.0
 70
32
 71
5
  1
<>
100
AcDbAlignedDimension
 13
65.0
 23
404.0
 33
0.0
 14
65.0
 24
436.0
 34
0.0
 50
90.0
100
AcDbRotatedDimension
  0
LINE
  5
173
330
17
100
AcDbEntity
  8
DIMENSION
100
AcDbLine
 10
40.0
 20
422.0
 30
0.0
 11
40.0
 21
428.0
 31
0.0
  0
TEXT
  5
174
330
17
100
AcDbEntity
  8
DIMENSION
100
AcDbText
 10
36.0
 20
429.0
 30
0.0
 40
1.8
  1
X=0
 11
36.0
 21
429.0
 31
0.0
100
AcDbText
  0
LINE
  5
175
330
17
100
AcDbEntity
  8
DIMENSION
100
AcDbLine
 10
70.0
 20
438.0
 30
0.0
 11
70.0
 21
444.0
 31
0.0
  0
TEXT
  5
176
330
17
100
AcDbEntity
  8
DIMENSION
100
AcDbText
 10
66.0
 20
445.0
 30
0.0
 40
1.8
  1
X=30
 11
66.0
 21
445.0
 31
0.0
100
AcDbText
  0
LINE
  5
177
330
17
100
AcDbEntity
  8
DIMENSION
100
AcDbLine
 10
130.0
 20
440.5
 30
0.0
 11
130.0
 21
446.5
 31
0.0
  0
TEXT
  5
178
330
17
100
AcDbEntity
  8
DIMENSION
100
AcDbText
 10
126.0
 20
447.5
 30
0.0
 40
1.8
  1
X=90
 11
126.0
 21
447.5
 31
0.0
100
AcDbText
  0
LINE
  5
179
330
17
100
AcDbEntity
  8
DIMENSION
100
AcDbLine
 10
190.0
 20
444.0
 30
0.0
 11
190.0
 21
450.0
 31
0.0
  0
TEXT
  5
17A
330
17
100
AcDbEntity
  8
DIMENSION
100
AcDbText
 10
186.0
 20
451.0
 30
0.0
 40
1.8
  1
X=150
 11
186.0
 21
451.0
 31
0.0
100
AcDbText
  0
LINE
  5
17B
330
17
100
AcDbEntity
  8
DIMENSION
100
AcDbLine
 10
300.0
 20
439.0
 30
0.0
 11
300.0
 21
445.0
 31
0.0
  0
TEXT
  5
17C
330
17
100
AcDbEntity
  8
DIMENSION
100
AcDbText
 10
296.0
 20
446.0
 30
0.0
 40
1.8
  1
X=260
 11
296.0
 21
446.0
 31
0.0
100
AcDbText
  0
TEXT
  5
17D
330
17
100
AcDbEntity
  8
TEXT
100
AcDbText
 10
40.0
 20
350.0
 30
0.0
 40
4.5
  1
TOP VIEW — PLANFORM (1:1)
 11
40.0
 21
350.0
 31
0.0
100
AcDbText
  0
LINE
  5
17E
330
17
100
AcDbEntity
  8
OUTLINE
100
AcDbLine
 10
40.0
 20
310.0
 30
0.0
 11
50.0
 21
318.0
 31
0.0
  0
LINE
  5
17F
330
17
100
AcDbEntity
  8
OUTLINE
100
AcDbLine
 10
50.0
 20
318.0
 30
0.0
 11
60.0
 21
324.0
 31
0.0
  0
LINE
  5
180
330
17
100
AcDbEntity
  8
OUTLINE
100
AcDbLine
 10
60.0
 20
324.0
 30
0.0
 11
70.0
 21
326.0
 31
0.0
  0
LINE
  5
181
330
17
100
AcDbEntity
  8
OUTLINE
100
AcDbLine
 10
70.0
 20
326.0
 30
0.0
 11
80.0
 21
326.5
 31
0.0
  0
LINE
  5
182
330
17
100
AcDbEntity
  8
OUTLINE
100
AcDbLine
 10
80.0
 20
326.5
 30
0.0
 11
95.0
 21
327.5
 31
0.0
  0
LINE
  5
183
330
17
100
AcDbEntity
  8
OUTLINE
100
AcDbLine
 10
95.0
 20
327.5
 30
0.0
 11
110.0
 21
328.0
 31
0.0
  0
LINE
  5
184
330
17
100
AcDbEntity
  8
OUTLINE
100
AcDbLine
 10
110.0
 20
328.0
 30
0.0
 11
130.0
 21
330.0
 31
0.0
  0
LINE
  5
185
330
17
100
AcDbEntity
  8
OUTLINE
100
AcDbLine
 10
130.0
 20
330.0
 30
0.0
 11
160.0
 21
333.0
 31
0.0
  0
LINE
  5
186
330
17
100
AcDbEntity
  8
OUTLINE
100
AcDbLine
 10
160.0
 20
333.0
 30
0.0
 11
190.0
 21
335.0
 31
0.0
  0
LINE
  5
187
330
17
100
AcDbEntity
  8
OUTLINE
100
AcDbLine
 10
190.0
 20
335.0
 30
0.0
 11
220.0
 21
335.0
 31
0.0
  0
LINE
  5
188
330
17
100
AcDbEntity
  8
OUTLINE
100
AcDbLine
 10
220.0
 20
335.0
 30
0.0
 11
240.0
 21
334.0
 31
0.0
  0
LINE
  5
189
330
17
100
AcDbEntity
  8
OUTLINE
100
AcDbLine
 10
240.0
 20
334.0
 30
0.0
 11
270.0
 21
332.0
 31
0.0
  0
LINE
  5
18A
330
17
100
AcDbEntity
  8
OUTLINE
100
AcDbLine
 10
270.0
 20
332.0
 30
0.0
 11
290.0
 21
330.0
 31
0.0
  0
LINE
  5
18B
330
17
100
AcDbEntity
  8
OUTLINE
100
AcDbLine
 10
290.0
 20
330.0
 30
0.0
 11
300.0
 21
329.0
 31
0.0
  0
LINE
  5
18C
330
17
100
AcDbEntity
  8
OUTLINE
100
AcDbLine
 10
40.0
 20
310.0
 30
0.0
 11
50.0
 21
302.0
 31
0.0
  0
LINE
  5
18D
330
17
100
AcDbEntity
  8
OUTLINE
100
AcDbLine
 10
50.0
 20
302.0
 30
0.0
 11
60.0
 21
296.0
 31
0.0
  0
LINE
  5
18E
330
17
100
AcDbEntity
  8
OUTLINE
100
AcDbLine
 10
60.0
 20
296.0
 30
0.0
 11
70.0
 21
294.0
 31
0.0
  0
LINE
  5
18F
330
17
100
AcDbEntity
  8
OUTLINE
100
AcDbLine
 10
70.0
 20
294.0
 30
0.0
 11
80.0
 21
293.5
 31
0.0
  0
LINE
  5
190
330
17
100
AcDbEntity
  8
OUTLINE
100
AcDbLine
 10
80.0
 20
293.5
 30
0.0
 11
95.0
 21
292.5
 31
0.0
  0
LINE
  5
191
330
17
100
AcDbEntity
  8
OUTLINE
100
AcDbLine
 10
95.0
 20
292.5
 30
0.0
 11
110.0
 21
292.0
 31
0.0
  0
LINE
  5
192
330
17
100
AcDbEntity
  8
OUTLINE
100
AcDbLine
 10
110.0
 20
292.0
 30
0.0
 11
130.0
 21
290.0
 31
0.0
  0
LINE
  5
193
330
17
100
AcDbEntity
  8
OUTLINE
100
AcDbLine
 10
130.0
 20
290.0
 30
0.0
 11
160.0
 21
287.0
 31
0.0
  0
LINE
  5
194
330
17
100
AcDbEntity
  8
OUTLINE
100
AcDbLine
 10
160.0
 20
287.0
 30
0.0
 11
190.0
 21
285.0
 31
0.0
  0
LINE
  5
195
330
17
100
AcDbEntity
  8
OUTLINE
100
AcDbLine
 10
190.0
 20
285.0
 30
0.0
 11
220.0
 21
285.0
 31
0.0
  0
LINE
  5
196
330
17
100
AcDbEntity
  8
OUTLINE
100
AcDbLine
 10
220.0
 20
285.0
 30
0.0
 11
240.0
 21
286.0
 31
0.0
  0
LINE
  5
197
330
17
100
AcDbEntity
  8
OUTLINE
100
AcDbLine
 10
240.0
 20
286.0
 30
0.0
 11
270.0
 21
288.0
 31
0.0
  0
LINE
  5
198
330
17
100
AcDbEntity
  8
OUTLINE
100
AcDbLine
 10
270.0
 20
288.0
 30
0.0
 11
290.0
 21
290.0
 31
0.0
  0
LINE
  5
199
330
17
100
AcDbEntity
  8
OUTLINE
100
AcDbLine
 10
290.0
 20
290.0
 30
0.0
 11
300.0
 21
291.0
 31
0.0
  0
LINE
  5
19A
330
17
100
AcDbEntity
  8
CENTERLINE
100
AcDbLine
 10
35.0
 20
310.0
 30
0.0
 11
310.0
 21
310.0
 31
0.0
  0
TEXT
  5
19B
330
17
100
AcDbEntity
  8
CENTERLINE
100
AcDbText
 10
140.0
 20
312.0
 30
0.0
 40
1.8
  1
L/R SPLIT PLANE
 11
140.0
 21
312.0
 31
0.0
100
AcDbText
  0
LINE
  5
19C
330
17
100
AcDbEntity
  8
HIDDEN
100
AcDbLine
 10
120.0
 20
307.0
 30
0.0
 11
250.0
 21
307.0
 31
0.0
  0
LINE
  5
19D
330
17
100
AcDbEntity
  8
HIDDEN
100
AcDbLine
 10
120.0
 20
285.0
 30
0.0
 11
250.0
 21
285.0
 31
0.0
  0
LINE
  5
19E
330
17
100
AcDbEntity
  8
HIDDEN
100
AcDbLine
 10
120.0
 20
307.0
 30
0.0
 11
120.0
 21
285.0
 31
0.0
  0
LINE
  5
19F
330
17
100
AcDbEntity
  8
HIDDEN
100
AcDbLine
 10
250.0
 20
307.0
 30
0.0
 11
250.0
 21
285.0
 31
0.0
  0
DIMENSION
  5
1A0
330
17
100
AcDbEntity
  8
0
100
AcDbDimension
280
0
  2
*D4
  3
AEROFORGE
 10
360.0
 20
285.0
 30
0.0
 11
360.0
 21
310.0
 31
0.0
 70
32
 71
5
  1
<>
100
AcDbAlignedDimension
 13
330.0
 23
285.0
 33
0.0
 14
330.0
 24
335.0
 34
0.0
 50
90.0
100
AcDbRotatedDimension
  0
CIRCLE
  5
1B0
330
17
100
AcDbEntity
  8
SPAR
100
AcDbCircle
 10
80.0
 20
319.0
 30
0.0
 40
1.0
  0
CIRCLE
  5
1B1
330
17
100
AcDbEntity
  8
SPAR
100
AcDbCircle
 10
80.0
 20
301.0
 30
0.0
 40
1.0
  0
CIRCLE
  5
1B2
330
17
100
AcDbEntity
  8
SPAR
100
AcDbCircle
 10
80.0
 20
319.0
 30
0.0
 40
1.0
  0
CIRCLE
  5
1B3
330
17
100
AcDbEntity
  8
SPAR
100
AcDbCircle
 10
80.0
 20
301.0
 30
0.0
 40
1.0
  0
CIRCLE
  5
1B4
330
17
100
AcDbEntity
  8
SPAR
100
AcDbCircle
 10
190.0
 20
328.0
 30
0.0
 40
1.0
  0
CIRCLE
  5
1B5
330
17
100
AcDbEntity
  8
SPAR
100
AcDbCircle
 10
190.0
 20
292.0
 30
0.0
 40
1.0
  0
CIRCLE
  5
1B6
330
17
100
AcDbEntity
  8
SPAR
100
AcDbCircle
 10
190.0
 20
328.0
 30
0.0
 40
1.0
  0
CIRCLE
  5
1B7
330
17
100
AcDbEntity
  8
SPAR
100
AcDbCircle
 10
190.0
 20
292.0
 30
0.0
 40
1.0
  0
CIRCLE
  5
1B8
330
17
100
AcDbEntity
  8
SPAR
100
AcDbCircle
 10
300.0
 20
322.0
 30
0.0
 40
1.0
  0
CIRCLE
  5
1B9
330
17
100
AcDbEntity
  8
SPAR
100
AcDbCircle
 10
300.0
 20
298.0
 30
0.0
 40
1.0
  0
CIRCLE
  5
1BA
330
17
100
AcDbEntity
  8
SPAR
100
AcDbCircle
 10
300.0
 20
322.0
 30
0.0
 40
1.0
  0
CIRCLE
  5
1BB
330
17
100
AcDbEntity
  8
SPAR
100
AcDbCircle
 10
300.0
 20
298.0
 30
0.0
 40
1.0
  0
LINE
  5
1BC
330
17
100
AcDbEntity
  8
SECTION
100
AcDbLine
 10
70.0
 20
289.0
 30
0.0
 11
70.0
 21
331.0
 31
0.0
  0
TEXT
  5
1BD
330
17
100
AcDbEntity
  8
SECTION
100
AcDbText
 10
68.0
 20
333.0
 30
0.0
 40
2.5
  1
A
 11
68.0
 21
333.0
 31
0.0
100
AcDbText
  0
TEXT
  5
1BE
330
17
100
AcDbEntity
  8
SECTION
100
AcDbText
 10
68.0
 20
284.0
 30
0.0
 40
2.5
  1
A
 11
68.0
 21
284.0
 31
0.0
100
AcDbText
  0
LINE
  5
1BF
330
17
100
AcDbEntity
  8
SECTION
100
AcDbLine
 10
190.0
 20
280.0
 30
0.0
 11
190.0
 21
340.0
 31
0.0
  0
TEXT
  5
1C0
330
17
100
AcDbEntity
  8
SECTION
100
AcDbText
 10
188.0
 20
342.0
 30
0.0
 40
2.5
  1
B
 11
188.0
 21
342.0
 31
0.0
100
AcDbText
  0
TEXT
  5
1C1
330
17
100
AcDbEntity
  8
SECTION
100
AcDbText
 10
188.0
 20
275.0
 30
0.0
 40
2.5
  1
B
 11
188.0
 21
275.0
 31
0.0
100
AcDbText
  0
LINE
  5
1C2
330
17
100
AcDbEntity
  8
SECTION
100
AcDbLine
 10
300.0
 20
286.0
 30
0.0
 11
300.0
 21
334.0
 31
0.0
  0
TEXT
  5
1C3
330
17
100
AcDbEntity
  8
SECTION
100
AcDbText
 10
298.0
 20
336.0
 30
0.0
 40
2.5
  1
C
 11
298.0
 21
336.0
 31
0.0
100
AcDbText
  0
TEXT
  5
1C4
330
17
100
AcDbEntity
  8
SECTION
100
AcDbText
 10
298.0
 20
281.0
 30
0.0
 40
2.5
  1
C
 11
298.0
 21
281.0
 31
0.0
100
AcDbText
  0
TEXT
  5
1C5
330
17
100
AcDbEntity
  8
TEXT
100
AcDbText
 10
340.0
 20
545.0
 30
0.0
 40
3.5
  1
SECTION A — X=30 (Motor Face)
 11
340.0
 21
545.0
 31
0.0
100
AcDbText
  0
TEXT
  5
1C6
330
17
100
AcDbEntity
  8
TEXT
100
AcDbText
 10
360.0
 20
538.0
 30
0.0
 40
2.0
  1
32mm dia circle
 11
360.0
 21
538.0
 31
0.0
100
AcDbText
  0
LINE
  5
1C7
330
17
100
AcDbEntity
  8
OUTLINE
100
AcDbLine
 10
396.0
 20
510.0
 30
0.0
 11
395.95067733973
 21
511.2553455316455
 31
0.0
  0
LINE
  5
1C8
330
17
100
AcDbEntity
  8
OUTLINE
100
AcDbLine
 10
395.95067733973
 20
511.2553455316455
 30
0.0
 11
395.8030134495222
 21
512.5029514406436
 31
0.0
  0
LINE
  5
1C9
330
17
100
AcDbEntity
  8
OUTLINE
100
AcDbLine
 10
395.8030134495222
 20
512.5029514406436
 30
0.0
 11
395.5579187263628
 21
513.7351258216945
 31
0.0
  0
LINE
  5
1CA
330
17
100
AcDbEntity
  8
OUTLINE
100
AcDbLine
 10
395.5579187263628
 20
513.7351258216945
 30
0.0
 11
395.21690426072246
 21
514.9442719099992
 31
0.0
  0
LINE
  5
1CB
330
17
100
AcDbEntity
  8
OUTLINE
100
AcDbLine
 10
395.21690426072246
 20
514.9442719099992
 30
0.0
 11
394.7820725201806
 21
516.1229349178415
 31
0.0
  0
LINE
  5
1CC
330
17
100
AcDbEntity
  8
OUTLINE
100
AcDbLine
 10
394.7820725201806
 20
516.1229349178415
 30
0.0
 11
394.25610438701386
 21
517.2638479958327
 31
0.0
  0
LINE
  5
1CD
330
17
100
AcDbEntity
  8
OUTLINE
100
AcDbLine
 10
394.25610438701386
 20
517.2638479958327
 30
0.0
 11
393.6422426296655
 21
518.3599770354551
 31
0.0
  0
LINE
  5
1CE
330
17
100
AcDbEntity
  8
OUTLINE
100
AcDbLine
 10
393.6422426296655
 20
518.3599770354551
 30
0.0
 11
392.94427190999915
 21
519.4045640366795
 31
0.0
  0
LINE
  5
1CF
330
17
100
AcDbEntity
  8
OUTLINE
100
AcDbLine
 10
392.94427190999915
 20
519.4045640366795
 30
0.0
 11
392.1664954496005
 21
520.391168773283
 31
0.0
  0
LINE
  5
1D0
330
17
100
AcDbEntity
  8
OUTLINE
100
AcDbLine
 10
392.1664954496005
 20
520.391168773283
 30
0.0
 11
391.31370849898474
 21
521.3137084989847
 31
0.0
  0
LINE
  5
1D1
330
17
100
AcDbEntity
  8
OUTLINE
100
AcDbLine
 10
391.31370849898474
 20
521.3137084989847
 30
0.0
 11
390.3911687732829
 21
522.1664954496005
 31
0.0
  0
LINE
  5
1D2
330
17
100
AcDbEntity
  8
OUTLINE
100
AcDbLine
 10
390.3911687732829
 20
522.1664954496005
 30
0.0
 11
389.4045640366796
 21
522.9442719099992
 31
0.0
  0
LINE
  5
1D3
330
17
100
AcDbEntity
  8
OUTLINE
100
AcDbLine
 10
389.4045640366796
 20
522.9442719099992
 30
0.0
 11
388.3599770354552
 21
523.6422426296655
 31
0.0
  0
LINE
  5
1D4
330
17
100
AcDbEntity
  8
OUTLINE
100
AcDbLine
 10
388.3599770354552
 20
523.6422426296655
 30
0.0
 11
387.26384799583275
 21
524.2561043870139
 31
0.0
  0
LINE
  5
1D5
330
17
100
AcDbEntity
  8
OUTLINE
100
AcDbLine
 10
387.26384799583275
 20
524.2561043870139
 30
0.0
 11
386.12293491784146
 21
524.7820725201806
 31
0.0
  0
LINE
  5
1D6
330
17
100
AcDbEntity
  8
OUTLINE
100
AcDbLine
 10
386.12293491784146
 20
524.7820725201806
 30
0.0
 11
384.94427190999915
 21
525.2169042607225
 31
0.0
  0
LINE
  5
1D7
330
17
100
AcDbEntity
  8
OUTLINE
100
AcDbLine
 10
384.94427190999915
 20
525.2169042607225
 30
0.0
 11
383.7351258216945
 21
525.5579187263628
 31
0.0
  0
LINE
  5
1D8
330
17
100
AcDbEntity
  8
OUTLINE
100
AcDbLine
 10
383.7351258216945
 20
525.5579187263628
 30
0.0
 11
382.5029514406437
 21
525.8030134495222
 31
0.0
  0
LINE
  5
1D9
330
17
100
AcDbEntity
  8
OUTLINE
100
AcDbLine
 10
382.5029514406437
 20
525.8030134495222
 30
0.0
 11
381.2553455316455
 21
525.9506773397301
 31
0.0
  0
LINE
  5
1DA
330
17
100
AcDbEntity
  8
OUTLINE
100
AcDbLine
 10
381.2553455316455
 20
525.9506773397301
 30
0.0
 11
380.0
 21
526.0
 31
0.0
  0
LINE
  5
1DB
330
17
100
AcDbEntity
  8
OUTLINE
100
AcDbLine
 10
380.0
 20
526.0
 30
0.0
 11
378.7446544683545
 21
525.9506773397301
 31
0.0
  0
LINE
  5
1DC
330
17
100
AcDbEntity
  8
OUTLINE
100
AcDbLine
 10
378.7446544683545
 20
525.9506773397301
 30
0.0
 11
377.4970485593563
 21
525.8030134495222
 31
0.0
  0
LINE
  5
1DD
330
17
100
AcDbEntity
  8
OUTLINE
100
AcDbLine
 10
377.4970485593563
 20
525.8030134495222
 30
0.0
 11
376.2648741783055
 21
525.5579187263628
 31
0.0
  0
LINE
  5
1DE
330
17
100
AcDbEntity
  8
OUTLINE
100
AcDbLine
 10
376.2648741783055
 20
525.5579187263628
 30
0.0
 11
375.05572809000085
 21
525.2169042607225
 31
0.0
  0
LINE
  5
1DF
330
17
100
AcDbEntity
  8
OUTLINE
100
AcDbLine
 10
375.05572809000085
 20
525.2169042607225
 30
0.0
 11
373.87706508215854
 21
524.7820725201806
 31
0.0
  0
LINE
  5
1E0
330
17
100
AcDbEntity
  8
OUTLINE
100
AcDbLine
 10
373.87706508215854
 20
524.7820725201806
 30
0.0
 11
372.73615200416725
 21
524.2561043870139
 31
0.0
  0
LINE
  5
1E1
330
17
100
AcDbEntity
  8
OUTLINE
100
AcDbLine
 10
372.73615200416725
 20
524.2561043870139
 30
0.0
 11
371.6400229645448
 21
523.6422426296655
 31
0.0
  0
LINE
  5
1E2
330
17
100
AcDbEntity
  8
OUTLINE
100
AcDbLine
 10
371.6400229645448
 20
523.6422426296655
 30
0.0
 11
370.5954359633204
 21
522.9442719099992
 31
0.0
  0
LINE
  5
1E3
330
17
100
AcDbEntity
  8
OUTLINE
100
AcDbLine
 10
370.5954359633204
 20
522.9442719099992
 30
0.0
 11
369.6088312267171
 21
522.1664954496005
 31
0.0
  0
LINE
  5
1E4
330
17
100
AcDbEntity
  8
OUTLINE
100
AcDbLine
 10
369.6088312267171
 20
522.1664954496005
 30
0.0
 11
368.68629150101526
 21
521.3137084989847
 31
0.0
  0
LINE
  5
1E5
330
17
100
AcDbEntity
  8
OUTLINE
100
AcDbLine
 10
368.68629150101526
 20
521.3137084989847
 30
0.0
 11
367.8335045503995
 21
520.391168773283
 31
0.0
  0
LINE
  5
1E6
330
17
100
AcDbEntity
  8
OUTLINE
100
AcDbLine
 10
367.8335045503995
 20
520.391168773283
 30
0.0
 11
367.05572809000085
 21
519.4045640366795
 31
0.0
  0
LINE
  5
1E7
330
17
100
AcDbEntity
  8
OUTLINE
100
AcDbLine
 10
367.05572809000085
 20
519.4045640366795
 30
0.0
 11
366.3577573703345
 21
518.3599770354551
 31
0.0
  0
LINE
  5
1E8
330
17
100
AcDbEntity
  8
OUTLINE
100
AcDbLine
 10
366.3577573703345
 20
518.3599770354551
 30
0.0
 11
365.74389561298614
 21
517.2638479958327
 31
0.0
  0
LINE
  5
1E9
330
17
100
AcDbEntity
  8
OUTLINE
100
AcDbLine
 10
365.74389561298614
 20
517.2638479958327
 30
0.0
 11
365.2179274798194
 21
516.1229349178415
 31
0.0
  0
LINE
  5
1EA
330
17
100
AcDbEntity
  8
OUTLINE
100
AcDbLine
 10
365.2179274798194
 20
516.1229349178415
 30
0.0
 11
364.78309573927754
 21
514.9442719099992
 31
0.0
  0
LINE
  5
1EB
330
17
100
AcDbEntity
  8
OUTLINE
100
AcDbLine
 10
364.78309573927754
 20
514.9442719099992
 30
0.0
 11
364.4420812736372
 21
513.7351258216945
 31
0.0
  0
LINE
  5
1EC
330
17
100
AcDbEntity
  8
OUTLINE
100
AcDbLine
 10
364.4420812736372
 20
513.7351258216945
 30
0.0
 11
364.1969865504778
 21
512.5029514406436
 31
0.0
  0
LINE
  5
1ED
330
17
100
AcDbEntity
  8
OUTLINE
100
AcDbLine
 10
364.1969865504778
 20
512.5029514406436
 30
0.0
 11
364.04932266027
 21
511.2553455316455
 31
0.0
  0
LINE
  5
1EE
330
17
100
AcDbEntity
  8
OUTLINE
100
AcDbLine
 10
364.04932266027
 20
511.2553455316455
 30
0.0
 11
364.0
 21
510.0
 31
0.0
  0
LINE
  5
1EF
330
17
100
AcDbEntity
  8
OUTLINE
100
AcDbLine
 10
364.0
 20
510.0
 30
0.0
 11
364.0493226602699
 21
508.7446544683545
 31
0.0
  0
LINE
  5
1F0
330
17
100
AcDbEntity
  8
OUTLINE
100
AcDbLine
 10
364.0493226602699
 20
508.7446544683545
 30
0.0
 11
364.1969865504778
 21
507.4970485593563
 31
0.0
  0
LINE
  5
1F1
330
17
100
AcDbEntity
  8
OUTLINE
100
AcDbLine
 10
364.1969865504778
 20
507.4970485593563
 30
0.0
 11
364.4420812736372
 21
506.2648741783055
 31
0.0
  0
LINE
  5
1F2
330
17
100
AcDbEntity
  8
OUTLINE
100
AcDbLine
 10
364.4420812736372
 20
506.2648741783055
 30
0.0
 11
364.78309573927754
 21
505.05572809000085
 31
0.0
  0
LINE
  5
1F3
330
17
100
AcDbEntity
  8
OUTLINE
100
AcDbLine
 10
364.78309573927754
 20
505.05572809000085
 30
0.0
 11
365.2179274798194
 21
503.87706508215854
 31
0.0
  0
LINE
  5
1F4
330
17
100
AcDbEntity
  8
OUTLINE
100
AcDbLine
 10
365.2179274798194
 20
503.87706508215854
 30
0.0
 11
365.74389561298614
 21
502.73615200416725
 31
0.0
  0
LINE
  5
1F5
330
17
100
AcDbEntity
  8
OUTLINE
100
AcDbLine
 10
365.74389561298614
 20
502.73615200416725
 30
0.0
 11
366.3577573703345
 21
501.6400229645448
 31
0.0
  0
LINE
  5
1F6
330
17
100
AcDbEntity
  8
OUTLINE
100
AcDbLine
 10
366.3577573703345
 20
501.6400229645448
 30
0.0
 11
367.05572809000085
 21
500.5954359633204
 31
0.0
  0
LINE
  5
1F7
330
17
100
AcDbEntity
  8
OUTLINE
100
AcDbLine
 10
367.05572809000085
 20
500.5954359633204
 30
0.0
 11
367.8335045503995
 21
499.6088312267171
 31
0.0
  0
LINE
  5
1F8
330
17
100
AcDbEntity
  8
OUTLINE
100
AcDbLine
 10
367.8335045503995
 20
499.6088312267171
 30
0.0
 11
368.68629150101526
 21
498.68629150101526
 31
0.0
  0
LINE
  5
1F9
330
17
100
AcDbEntity
  8
OUTLINE
100
AcDbLine
 10
368.68629150101526
 20
498.68629150101526
 30
0.0
 11
369.60883122671703
 21
497.83350455039954
 31
0.0
  0
LINE
  5
1FA
330
17
100
AcDbEntity
  8
OUTLINE
100
AcDbLine
 10
369.60883122671703
 20
497.83350455039954
 30
0.0
 11
370.5954359633204
 21
497.05572809000085
 31
0.0
  0
LINE
  5
1FB
330
17
100
AcDbEntity
  8
OUTLINE
100
AcDbLine
 10
370.5954359633204
 20
497.05572809000085
 30
0.0
 11
371.6400229645448
 21
496.3577573703345
 31
0.0
  0
LINE
  5
1FC
330
17
100
AcDbEntity
  8
OUTLINE
100
AcDbLine
 10
371.6400229645448
 20
496.3577573703345
 30
0.0
 11
372.73615200416725
 21
495.74389561298614
 31
0.0
  0
LINE
  5
1FD
330
17
100
AcDbEntity
  8
OUTLINE
100
AcDbLine
 10
372.73615200416725
 20
495.74389561298614
 30
0.0
 11
373.8770650821586
 21
495.2179274798194
 31
0.0
  0
LINE
  5
1FE
330
17
100
AcDbEntity
  8
OUTLINE
100
AcDbLine
 10
373.8770650821586
 20
495.2179274798194
 30
0.0
 11
375.05572809000085
 21
494.78309573927754
 31
0.0
  0
LINE
  5
1FF
330
17
100
AcDbEntity
  8
OUTLINE
100
AcDbLine
 10
375.05572809000085
 20
494.78309573927754
 30
0.0
 11
376.2648741783055
 21
494.4420812736372
 31
0.0
  0
LINE
  5
200
330
17
100
AcDbEntity
  8
OUTLINE
100
AcDbLine
 10
376.2648741783055
 20
494.4420812736372
 30
0.0
 11
377.4970485593563
 21
494.1969865504778
 31
0.0
  0
LINE
  5
201
330
17
100
AcDbEntity
  8
OUTLINE
100
AcDbLine
 10
377.4970485593563
 20
494.1969865504778
 30
0.0
 11
378.7446544683545
 21
494.04932266027
 31
0.0
  0
LINE
  5
202
330
17
100
AcDbEntity
  8
OUTLINE
100
AcDbLine
 10
378.7446544683545
 20
494.04932266027
 30
0.0
 11
380.0
 21
494.0
 31
0.0
  0
LINE
  5
203
330
17
100
AcDbEntity
  8
OUTLINE
100
AcDbLine
 10
380.0
 20
494.0
 30
0.0
 11
381.2553455316455
 21
494.04932266027
 31
0.0
  0
LINE
  5
204
330
17
100
AcDbEntity
  8
OUTLINE
100
AcDbLine
 10
381.2553455316455
 20
494.04932266027
 30
0.0
 11
382.5029514406437
 21
494.1969865504778
 31
0.0
  0
LINE
  5
205
330
17
100
AcDbEntity
  8
OUTLINE
100
AcDbLine
 10
382.5029514406437
 20
494.1969865504778
 30
0.0
 11
383.7351258216945
 21
494.4420812736372
 31
0.0
  0
LINE
  5
206
330
17
100
AcDbEntity
  8
OUTLINE
100
AcDbLine
 10
383.7351258216945
 20
494.4420812736372
 30
0.0
 11
384.94427190999915
 21
494.78309573927754
 31
0.0
  0
LINE
  5
207
330
17
100
AcDbEntity
  8
OUTLINE
100
AcDbLine
 10
384.94427190999915
 20
494.78309573927754
 30
0.0
 11
386.1229349178414
 21
495.2179274798194
 31
0.0
  0
LINE
  5
208
330
17
100
AcDbEntity
  8
OUTLINE
100
AcDbLine
 10
386.1229349178414
 20
495.2179274798194
 30
0.0
 11
387.26384799583275
 21
495.74389561298614
 31
0.0
  0
LINE
  5
209
330
17
100
AcDbEntity
  8
OUTLINE
100
AcDbLine
 10
387.26384799583275
 20
495.74389561298614
 30
0.0
 11
388.3599770354552
 21
496.3577573703345
 31
0.0
  0
LINE
  5
20A
330
17
100
AcDbEntity
  8
OUTLINE
100
AcDbLine
 10
388.3599770354552
 20
496.3577573703345
 30
0.0
 11
389.4045640366796
 21
497.05572809000085
 31
0.0
  0
LINE
  5
20B
330
17
100
AcDbEntity
  8
OUTLINE
100
AcDbLine
 10
389.4045640366796
 20
497.05572809000085
 30
0.0
 11
390.39116877328297
 21
497.8335045503995
 31
0.0
  0
LINE
  5
20C
330
17
100
AcDbEntity
  8
OUTLINE
100
AcDbLine
 10
390.39116877328297
 20
497.8335045503995
 30
0.0
 11
391.31370849898474
 21
498.68629150101526
 31
0.0
  0
LINE
  5
20D
330
17
100
AcDbEntity
  8
OUTLINE
100
AcDbLine
 10
391.31370849898474
 20
498.68629150101526
 30
0.0
 11
392.1664954496005
 21
499.6088312267171
 31
0.0
  0
LINE
  5
20E
330
17
100
AcDbEntity
  8
OUTLINE
100
AcDbLine
 10
392.1664954496005
 20
499.6088312267171
 30
0.0
 11
392.94427190999915
 21
500.5954359633204
 31
0.0
  0
LINE
  5
20F
330
17
100
AcDbEntity
  8
OUTLINE
100
AcDbLine
 10
392.94427190999915
 20
500.5954359633204
 30
0.0
 11
393.6422426296655
 21
501.6400229645448
 31
0.0
  0
LINE
  5
210
330
17
100
AcDbEntity
  8
OUTLINE
100
AcDbLine
 10
393.6422426296655
 20
501.6400229645448
 30
0.0
 11
394.25610438701386
 21
502.73615200416725
 31
0.0
  0
LINE
  5
211
330
17
100
AcDbEntity
  8
OUTLINE
100
AcDbLine
 10
394.25610438701386
 20
502.73615200416725
 30
0.0
 11
394.7820725201806
 21
503.87706508215854
 31
0.0
  0
LINE
  5
212
330
17
100
AcDbEntity
  8
OUTLINE
100
AcDbLine
 10
394.7820725201806
 20
503.87706508215854
 30
0.0
 11
395.21690426072246
 21
505.05572809000085
 31
0.0
  0
LINE
  5
213
330
17
100
AcDbEntity
  8
OUTLINE
100
AcDbLine
 10
395.21690426072246
 20
505.05572809000085
 30
0.0
 11
395.5579187263628
 21
506.2648741783055
 31
0.0
  0
LINE
  5
214
330
17
100
AcDbEntity
  8
OUTLINE
100
AcDbLine
 10
395.5579187263628
 20
506.2648741783055
 30
0.0
 11
395.8030134495222
 21
507.4970485593563
 31
0.0
  0
LINE
  5
215
330
17
100
AcDbEntity
  8
OUTLINE
100
AcDbLine
 10
395.8030134495222
 20
507.4970485593563
 30
0.0
 11
395.95067733973
 21
508.7446544683545
 31
0.0
  0
LINE
  5
216
330
17
100
AcDbEntity
  8
OUTLINE
100
AcDbLine
 10
395.95067733973
 20
508.7446544683545
 30
0.0
 11
396.0
 21
510.0
 31
0.0
  0
LINE
  5
217
330
17
100
AcDbEntity
  8
HIDDEN
100
AcDbLine
 10
394.0
 20
510.0
 30
0.0
 11
393.9568426722638
 21
511.0984273401898
 31
0.0
  0
LINE
  5
218
330
17
100
AcDbEntity
  8
HIDDEN
100
AcDbLine
 10
393.9568426722638
 20
511.0984273401898
 30
0.0
 11
393.8276367683319
 21
512.1900825105632
 31
0.0
  0
LINE
  5
219
330
17
100
AcDbEntity
  8
HIDDEN
100
AcDbLine
 10
393.8276367683319
 20
512.1900825105632
 30
0.0
 11
393.6131788855675
 21
513.2682350939826
 31
0.0
  0
LINE
  5
21A
330
17
100
AcDbEntity
  8
HIDDEN
100
AcDbLine
 10
393.6131788855675
 20
513.2682350939826
 30
0.0
 11
393.31479122813215
 21
514.3262379212492
 31
0.0
  0
LINE
  5
21B
330
17
100
AcDbEntity
  8
HIDDEN
100
AcDbLine
 10
393.31479122813215
 20
514.3262379212492
 30
0.0
 11
392.934313455158
 21
515.3575680531112
 31
0.0
  0
LINE
  5
21C
330
17
100
AcDbEntity
  8
HIDDEN
100
AcDbLine
 10
392.934313455158
 20
515.3575680531112
 30
0.0
 11
392.47409133863715
 21
516.3558669963536
 31
0.0
  0
LINE
  5
21D
330
17
100
AcDbEntity
  8
HIDDEN
100
AcDbLine
 10
392.47409133863715
 20
516.3558669963536
 30
0.0
 11
391.9369623009573
 21
517.3149799060233
 31
0.0
  0
LINE
  5
21E
330
17
100
AcDbEntity
  8
HIDDEN
100
AcDbLine
 10
391.9369623009573
 20
517.3149799060233
 30
0.0
 11
391.3262379212493
 21
518.2289935320946
 31
0.0
  0
LINE
  5
21F
330
17
100
AcDbEntity
  8
HIDDEN
100
AcDbLine
 10
391.3262379212493
 20
518.2289935320946
 30
0.0
 11
390.64568351840046
 21
519.0922726766225
 31
0.0
  0
LINE
  5
220
330
17
100
AcDbEntity
  8
HIDDEN
100
AcDbLine
 10
390.64568351840046
 20
519.0922726766225
 30
0.0
 11
389.8994949366117
 21
519.8994949366116
 31
0.0
  0
LINE
  5
221
330
17
100
AcDbEntity
  8
HIDDEN
100
AcDbLine
 10
389.8994949366117
 20
519.8994949366116
 30
0.0
 11
389.0922726766226
 21
520.6456835184005
 31
0.0
  0
LINE
  5
222
330
17
100
AcDbEntity
  8
HIDDEN
100
AcDbLine
 10
389.0922726766226
 20
520.6456835184005
 30
0.0
 11
388.22899353209465
 21
521.3262379212492
 31
0.0
  0
LINE
  5
223
330
17
100
AcDbEntity
  8
HIDDEN
100
AcDbLine
 10
388.22899353209465
 20
521.3262379212492
 30
0.0
 11
387.31497990602327
 21
521.9369623009572
 31
0.0
  0
LINE
  5
224
330
17
100
AcDbEntity
  8
HIDDEN
100
AcDbLine
 10
387.31497990602327
 20
521.9369623009572
 30
0.0
 11
386.35586699635365
 21
522.4740913386371
 31
0.0
  0
LINE
  5
225
330
17
100
AcDbEntity
  8
HIDDEN
100
AcDbLine
 10
386.35586699635365
 20
522.4740913386371
 30
0.0
 11
385.35756805311127
 21
522.934313455158
 31
0.0
  0
LINE
  5
226
330
17
100
AcDbEntity
  8
HIDDEN
100
AcDbLine
 10
385.35756805311127
 20
522.934313455158
 30
0.0
 11
384.3262379212493
 21
523.3147912281321
 31
0.0
  0
LINE
  5
227
330
17
100
AcDbEntity
  8
HIDDEN
100
AcDbLine
 10
384.3262379212493
 20
523.3147912281321
 30
0.0
 11
383.2682350939827
 21
523.6131788855674
 31
0.0
  0
LINE
  5
228
330
17
100
AcDbEntity
  8
HIDDEN
100
AcDbLine
 10
383.2682350939827
 20
523.6131788855674
 30
0.0
 11
382.19008251056323
 21
523.8276367683319
 31
0.0
  0
LINE
  5
229
330
17
100
AcDbEntity
  8
HIDDEN
100
AcDbLine
 10
382.19008251056323
 20
523.8276367683319
 30
0.0
 11
381.09842734018986
 21
523.9568426722637
 31
0.0
  0
LINE
  5
22A
330
17
100
AcDbEntity
  8
HIDDEN
100
AcDbLine
 10
381.09842734018986
 20
523.9568426722637
 30
0.0
 11
380.0
 21
524.0
 31
0.0
  0
LINE
  5
22B
330
17
100
AcDbEntity
  8
HIDDEN
100
AcDbLine
 10
380.0
 20
524.0
 30
0.0
 11
378.9015726598102
 21
523.9568426722637
 31
0.0
  0
LINE
  5
22C
330
17
100
AcDbEntity
  8
HIDDEN
100
AcDbLine
 10
378.9015726598102
 20
523.9568426722637
 30
0.0
 11
377.80991748943677
 21
523.8276367683319
 31
0.0
  0
LINE
  5
22D
330
17
100
AcDbEntity
  8
HIDDEN
100
AcDbLine
 10
377.80991748943677
 20
523.8276367683319
 30
0.0
 11
376.7317649060173
 21
523.6131788855674
 31
0.0
  0
LINE
  5
22E
330
17
100
AcDbEntity
  8
HIDDEN
100
AcDbLine
 10
376.7317649060173
 20
523.6131788855674
 30
0.0
 11
375.6737620787507
 21
523.3147912281322
 31
0.0
  0
LINE
  5
22F
330
17
100
AcDbEntity
  8
HIDDEN
100
AcDbLine
 10
375.6737620787507
 20
523.3147912281322
 30
0.0
 11
374.64243194688873
 21
522.934313455158
 31
0.0
  0
LINE
  5
230
330
17
100
AcDbEntity
  8
HIDDEN
100
AcDbLine
 10
374.64243194688873
 20
522.934313455158
 30
0.0
 11
373.64413300364635
 21
522.4740913386371
 31
0.0
  0
LINE
  5
231
330
17
100
AcDbEntity
  8
HIDDEN
100
AcDbLine
 10
373.64413300364635
 20
522.4740913386371
 30
0.0
 11
372.68502009397673
 21
521.9369623009572
 31
0.0
  0
LINE
  5
232
330
17
100
AcDbEntity
  8
HIDDEN
100
AcDbLine
 10
372.68502009397673
 20
521.9369623009572
 30
0.0
 11
371.77100646790535
 21
521.3262379212492
 31
0.0
  0
LINE
  5
233
330
17
100
AcDbEntity
  8
HIDDEN
100
AcDbLine
 10
371.77100646790535
 20
521.3262379212492
 30
0.0
 11
370.90772732337746
 21
520.6456835184005
 31
0.0
  0
LINE
  5
234
330
17
100
AcDbEntity
  8
HIDDEN
100
AcDbLine
 10
370.90772732337746
 20
520.6456835184005
 30
0.0
 11
370.1005050633883
 21
519.8994949366116
 31
0.0
  0
LINE
  5
235
330
17
100
AcDbEntity
  8
HIDDEN
100
AcDbLine
 10
370.1005050633883
 20
519.8994949366116
 30
0.0
 11
369.35431648159954
 21
519.0922726766225
 31
0.0
  0
LINE
  5
236
330
17
100
AcDbEntity
  8
HIDDEN
100
AcDbLine
 10
369.35431648159954
 20
519.0922726766225
 30
0.0
 11
368.6737620787507
 21
518.2289935320946
 31
0.0
  0
LINE
  5
237
330
17
100
AcDbEntity
  8
HIDDEN
100
AcDbLine
 10
368.6737620787507
 20
518.2289935320946
 30
0.0
 11
368.0630376990427
 21
517.3149799060233
 31
0.0
  0
LINE
  5
238
330
17
100
AcDbEntity
  8
HIDDEN
100
AcDbLine
 10
368.0630376990427
 20
517.3149799060233
 30
0.0
 11
367.52590866136285
 21
516.3558669963537
 31
0.0
  0
LINE
  5
239
330
17
100
AcDbEntity
  8
HIDDEN
100
AcDbLine
 10
367.52590866136285
 20
516.3558669963537
 30
0.0
 11
367.065686544842
 21
515.3575680531112
 31
0.0
  0
LINE
  5
23A
330
17
100
AcDbEntity
  8
HIDDEN
100
AcDbLine
 10
367.065686544842
 20
515.3575680531112
 30
0.0
 11
366.68520877186785
 21
514.3262379212492
 31
0.0
  0
LINE
  5
23B
330
17
100
AcDbEntity
  8
HIDDEN
100
AcDbLine
 10
366.68520877186785
 20
514.3262379212492
 30
0.0
 11
366.3868211144325
 21
513.2682350939826
 31
0.0
  0
LINE
  5
23C
330
17
100
AcDbEntity
  8
HIDDEN
100
AcDbLine
 10
366.3868211144325
 20
513.2682350939826
 30
0.0
 11
366.1723632316681
 21
512.1900825105632
 31
0.0
  0
LINE
  5
23D
330
17
100
AcDbEntity
  8
HIDDEN
100
AcDbLine
 10
366.1723632316681
 20
512.1900825105632
 30
0.0
 11
366.0431573277362
 21
511.09842734018986
 31
0.0
  0
LINE
  5
23E
330
17
100
AcDbEntity
  8
HIDDEN
100
AcDbLine
 10
366.0431573277362
 20
511.09842734018986
 30
0.0
 11
366.0
 21
510.0
 31
0.0
  0
LINE
  5
23F
330
17
100
AcDbEntity
  8
HIDDEN
100
AcDbLine
 10
366.0
 20
510.0
 30
0.0
 11
366.0431573277362
 21
508.9015726598102
 31
0.0
  0
LINE
  5
240
330
17
100
AcDbEntity
  8
HIDDEN
100
AcDbLine
 10
366.0431573277362
 20
508.9015726598102
 30
0.0
 11
366.1723632316681
 21
507.80991748943677
 31
0.0
  0
LINE
  5
241
330
17
100
AcDbEntity
  8
HIDDEN
100
AcDbLine
 10
366.1723632316681
 20
507.80991748943677
 30
0.0
 11
366.3868211144325
 21
506.7317649060173
 31
0.0
  0
LINE
  5
242
330
17
100
AcDbEntity
  8
HIDDEN
100
AcDbLine
 10
366.3868211144325
 20
506.7317649060173
 30
0.0
 11
366.68520877186785
 21
505.67376207875077
 31
0.0
  0
LINE
  5
243
330
17
100
AcDbEntity
  8
HIDDEN
100
AcDbLine
 10
366.68520877186785
 20
505.67376207875077
 30
0.0
 11
367.065686544842
 21
504.64243194688873
 31
0.0
  0
LINE
  5
244
330
17
100
AcDbEntity
  8
HIDDEN
100
AcDbLine
 10
367.065686544842
 20
504.64243194688873
 30
0.0
 11
367.52590866136285
 21
503.64413300364635
 31
0.0
  0
LINE
  5
245
330
17
100
AcDbEntity
  8
HIDDEN
100
AcDbLine
 10
367.52590866136285
 20
503.64413300364635
 30
0.0
 11
368.0630376990427
 21
502.68502009397673
 31
0.0
  0
LINE
  5
246
330
17
100
AcDbEntity
  8
HIDDEN
100
AcDbLine
 10
368.0630376990427
 20
502.68502009397673
 30
0.0
 11
368.6737620787507
 21
501.77100646790535
 31
0.0
  0
LINE
  5
247
330
17
100
AcDbEntity
  8
HIDDEN
100
AcDbLine
 10
368.6737620787507
 20
501.77100646790535
 30
0.0
 11
369.35431648159954
 21
500.90772732337746
 31
0.0
  0
LINE
  5
248
330
17
100
AcDbEntity
  8
HIDDEN
100
AcDbLine
 10
369.35431648159954
 20
500.90772732337746
 30
0.0
 11
370.1005050633883
 21
500.1005050633883
 31
0.0
  0
LINE
  5
249
330
17
100
AcDbEntity
  8
HIDDEN
100
AcDbLine
 10
370.1005050633883
 20
500.1005050633883
 30
0.0
 11
370.9077273233774
 21
499.3543164815996
 31
0.0
  0
LINE
  5
24A
330
17
100
AcDbEntity
  8
HIDDEN
100
AcDbLine
 10
370.9077273233774
 20
499.3543164815996
 30
0.0
 11
371.77100646790535
 21
498.6737620787507
 31
0.0
  0
LINE
  5
24B
330
17
100
AcDbEntity
  8
HIDDEN
100
AcDbLine
 10
371.77100646790535
 20
498.6737620787507
 30
0.0
 11
372.68502009397673
 21
498.0630376990427
 31
0.0
  0
LINE
  5
24C
330
17
100
AcDbEntity
  8
HIDDEN
100
AcDbLine
 10
372.68502009397673
 20
498.0630376990427
 30
0.0
 11
373.64413300364635
 21
497.52590866136285
 31
0.0
  0
LINE
  5
24D
330
17
100
AcDbEntity
  8
HIDDEN
100
AcDbLine
 10
373.64413300364635
 20
497.52590866136285
 30
0.0
 11
374.64243194688873
 21
497.065686544842
 31
0.0
  0
LINE
  5
24E
330
17
100
AcDbEntity
  8
HIDDEN
100
AcDbLine
 10
374.64243194688873
 20
497.065686544842
 30
0.0
 11
375.6737620787507
 21
496.68520877186785
 31
0.0
  0
LINE
  5
24F
330
17
100
AcDbEntity
  8
HIDDEN
100
AcDbLine
 10
375.6737620787507
 20
496.68520877186785
 30
0.0
 11
376.7317649060173
 21
496.3868211144325
 31
0.0
  0
LINE
  5
250
330
17
100
AcDbEntity
  8
HIDDEN
100
AcDbLine
 10
376.7317649060173
 20
496.3868211144325
 30
0.0
 11
377.80991748943677
 21
496.1723632316681
 31
0.0
  0
LINE
  5
251
330
17
100
AcDbEntity
  8
HIDDEN
100
AcDbLine
 10
377.80991748943677
 20
496.1723632316681
 30
0.0
 11
378.90157265981014
 21
496.0431573277362
 31
0.0
  0
LINE
  5
252
330
17
100
AcDbEntity
  8
HIDDEN
100
AcDbLine
 10
378.90157265981014
 20
496.0431573277362
 30
0.0
 11
380.0
 21
496.0
 31
0.0
  0
LINE
  5
253
330
17
100
AcDbEntity
  8
HIDDEN
100
AcDbLine
 10
380.0
 20
496.0
 30
0.0
 11
381.09842734018986
 21
496.0431573277362
 31
0.0
  0
LINE
  5
254
330
17
100
AcDbEntity
  8
HIDDEN
100
AcDbLine
 10
381.09842734018986
 20
496.0431573277362
 30
0.0
 11
382.19008251056323
 21
496.1723632316681
 31
0.0
  0
LINE
  5
255
330
17
100
AcDbEntity
  8
HIDDEN
100
AcDbLine
 10
382.19008251056323
 20
496.1723632316681
 30
0.0
 11
383.2682350939827
 21
496.3868211144325
 31
0.0
  0
LINE
  5
256
330
17
100
AcDbEntity
  8
HIDDEN
100
AcDbLine
 10
383.2682350939827
 20
496.3868211144325
 30
0.0
 11
384.3262379212493
 21
496.68520877186785
 31
0.0
  0
LINE
  5
257
330
17
100
AcDbEntity
  8
HIDDEN
100
AcDbLine
 10
384.3262379212493
 20
496.68520877186785
 30
0.0
 11
385.35756805311127
 21
497.065686544842
 31
0.0
  0
LINE
  5
258
330
17
100
AcDbEntity
  8
HIDDEN
100
AcDbLine
 10
385.35756805311127
 20
497.065686544842
 30
0.0
 11
386.35586699635365
 21
497.52590866136285
 31
0.0
  0
LINE
  5
259
330
17
100
AcDbEntity
  8
HIDDEN
100
AcDbLine
 10
386.35586699635365
 20
497.52590866136285
 30
0.0
 11
387.31497990602327
 21
498.0630376990427
 31
0.0
  0
LINE
  5
25A
330
17
100
AcDbEntity
  8
HIDDEN
100
AcDbLine
 10
387.31497990602327
 20
498.0630376990427
 30
0.0
 11
388.2289935320946
 21
498.6737620787507
 31
0.0
  0
LINE
  5
25B
330
17
100
AcDbEntity
  8
HIDDEN
100
AcDbLine
 10
388.2289935320946
 20
498.6737620787507
 30
0.0
 11
389.0922726766226
 21
499.35431648159954
 31
0.0
  0
LINE
  5
25C
330
17
100
AcDbEntity
  8
HIDDEN
100
AcDbLine
 10
389.0922726766226
 20
499.35431648159954
 30
0.0
 11
389.8994949366117
 21
500.1005050633883
 31
0.0
  0
LINE
  5
25D
330
17
100
AcDbEntity
  8
HIDDEN
100
AcDbLine
 10
389.8994949366117
 20
500.1005050633883
 30
0.0
 11
390.64568351840046
 21
500.90772732337746
 31
0.0
  0
LINE
  5
25E
330
17
100
AcDbEntity
  8
HIDDEN
100
AcDbLine
 10
390.64568351840046
 20
500.90772732337746
 30
0.0
 11
391.3262379212493
 21
501.77100646790535
 31
0.0
  0
LINE
  5
25F
330
17
100
AcDbEntity
  8
HIDDEN
100
AcDbLine
 10
391.3262379212493
 20
501.77100646790535
 30
0.0
 11
391.9369623009573
 21
502.68502009397673
 31
0.0
  0
LINE
  5
260
330
17
100
AcDbEntity
  8
HIDDEN
100
AcDbLine
 10
391.9369623009573
 20
502.68502009397673
 30
0.0
 11
392.47409133863715
 21
503.64413300364635
 31
0.0
  0
LINE
  5
261
330
17
100
AcDbEntity
  8
HIDDEN
100
AcDbLine
 10
392.47409133863715
 20
503.64413300364635
 30
0.0
 11
392.934313455158
 21
504.64243194688873
 31
0.0
  0
LINE
  5
262
330
17
100
AcDbEntity
  8
HIDDEN
100
AcDbLine
 10
392.934313455158
 20
504.64243194688873
 30
0.0
 11
393.31479122813215
 21
505.6737620787507
 31
0.0
  0
LINE
  5
263
330
17
100
AcDbEntity
  8
HIDDEN
100
AcDbLine
 10
393.31479122813215
 20
505.6737620787507
 30
0.0
 11
393.6131788855675
 21
506.7317649060173
 31
0.0
  0
LINE
  5
264
330
17
100
AcDbEntity
  8
HIDDEN
100
AcDbLine
 10
393.6131788855675
 20
506.7317649060173
 30
0.0
 11
393.8276367683319
 21
507.80991748943677
 31
0.0
  0
LINE
  5
265
330
17
100
AcDbEntity
  8
HIDDEN
100
AcDbLine
 10
393.8276367683319
 20
507.80991748943677
 30
0.0
 11
393.9568426722638
 21
508.9015726598102
 31
0.0
  0
LINE
  5
266
330
17
100
AcDbEntity
  8
HIDDEN
100
AcDbLine
 10
393.9568426722638
 20
508.9015726598102
 30
0.0
 11
394.0
 21
510.0
 31
0.0
  0
LINE
  5
267
330
17
100
AcDbEntity
  8
CENTERLINE
100
AcDbLine
 10
359.0
 20
510.0
 30
0.0
 11
401.0
 21
510.0
 31
0.0
  0
LINE
  5
268
330
17
100
AcDbEntity
  8
CENTERLINE
100
AcDbLine
 10
380.0
 20
489.0
 30
0.0
 11
380.0
 21
531.0
 31
0.0
  0
CIRCLE
  5
269
330
17
100
AcDbEntity
  8
SPAR
100
AcDbCircle
 10
385.65685424949237
 20
515.6568542494924
 30
0.0
 40
1.5
  0
CIRCLE
  5
26A
330
17
100
AcDbEntity
  8
SPAR
100
AcDbCircle
 10
374.34314575050763
 20
515.6568542494924
 30
0.0
 40
1.5
  0
CIRCLE
  5
26B
330
17
100
AcDbEntity
  8
SPAR
100
AcDbCircle
 10
374.34314575050763
 20
504.34314575050763
 30
0.0
 40
1.5
  0
CIRCLE
  5
26C
330
17
100
AcDbEntity
  8
SPAR
100
AcDbCircle
 10
385.65685424949237
 20
504.34314575050763
 30
0.0
 40
1.5
  0
TEXT
  5
26D
330
17
100
AcDbEntity
  8
TEXT
100
AcDbText
 10
395.0
 20
522.0
 30
0.0
 40
1.8
  1
4x M3 holes
 11
395.0
 21
522.0
 31
0.0
100
AcDbText
  0
TEXT
  5
26E
330
17
100
AcDbEntity
  8
TEXT
100
AcDbText
 10
395.0
 20
518.0
 30
0.0
 40
1.5
  1
16mm PCD
 11
395.0
 21
518.0
 31
0.0
100
AcDbText
  0
CIRCLE
  5
26F
330
17
100
AcDbEntity
  8
SPAR
100
AcDbCircle
 10
389.0
 20
519.0
 30
0.0
 40
1.25
  0
CIRCLE
  5
270
330
17
100
AcDbEntity
  8
SPAR
100
AcDbCircle
 10
371.0
 20
519.0
 30
0.0
 40
1.25
  0
CIRCLE
  5
271
330
17
100
AcDbEntity
  8
SPAR
100
AcDbCircle
 10
389.0
 20
501.0
 30
0.0
 40
1.25
  0
CIRCLE
  5
272
330
17
100
AcDbEntity
  8
SPAR
100
AcDbCircle
 10
371.0
 20
501.0
 30
0.0
 40
1.25
  0
TEXT
  5
273
330
17
100
AcDbEntity
  8
TEXT
100
AcDbText
 10
395.0
 20
495.0
 30
0.0
 40
1.5
  1
4x 2mm CF longerons
 11
395.0
 21
495.0
 31
0.0
100
AcDbText
  0
DIMENSION
  5
274
330
17
100
AcDbEntity
  8
0
100
AcDbDimension
280
0
  2
*D5
  3
AEROFORGE
 10
364.0
 20
486.0
 30
0.0
 11
380.0
 21
486.0
 31
0.0
 70
32
 71
5
  1
<>
100
AcDbAlignedDimension
 13
364.0
 23
489.0
 33
0.0
 14
396.0
 24
489.0
 34
0.0
 50
0.0
100
AcDbRotatedDimension
  0
TEXT
  5
284
330
17
100
AcDbEntity
  8
TEXT
100
AcDbText
 10
515.0
 20
545.0
 30
0.0
 40
3.5
  1
SECTION C — X=260 (S1/S2 Joint)
 11
515.0
 21
545.0
 31
0.0
100
AcDbText
  0
TEXT
  5
285
330
17
100
AcDbEntity
  8
TEXT
100
AcDbText
 10
530.0
 20
538.0
 30
0.0
 40
2.0
  1
38mm W x 34mm H egg shape
 11
530.0
 21
538.0
 31
0.0
100
AcDbText
  0
LINE
  5
286
330
17
100
AcDbEntity
  8
OUTLINE
100
AcDbLine
 10
579.0
 20
510.0
 30
0.0
 11
578.9414293409294
 21
511.33380462737335
 31
0.0
  0
LINE
  5
287
330
17
100
AcDbEntity
  8
OUTLINE
100
AcDbLine
 10
578.9414293409294
 20
511.33380462737335
 30
0.0
 11
578.7660784713077
 21
512.659385905684
 31
0.0
  0
LINE
  5
288
330
17
100
AcDbEntity
  8
OUTLINE
100
AcDbLine
 10
578.7660784713077
 20
512.659385905684
 30
0.0
 11
578.4750284875558
 21
513.9685711855504
 31
0.0
  0
LINE
  5
289
330
17
100
AcDbEntity
  8
OUTLINE
100
AcDbLine
 10
578.4750284875558
 20
513.9685711855504
 30
0.0
 11
578.070073809608
 21
515.2532889043741
 31
0.0
  0
LINE
  5
28A
330
17
100
AcDbEntity
  8
OUTLINE
100
AcDbLine
 10
578.070073809608
 20
515.2532889043741
 30
0.0
 11
577.5537111177144
 21
516.5056183502065
 31
0.0
  0
LINE
  5
28B
330
17
100
AcDbEntity
  8
OUTLINE
100
AcDbLine
 10
577.5537111177144
 20
516.5056183502065
 30
0.0
 11
576.929123959579
 21
517.7178384955723
 31
0.0
  0
LINE
  5
28C
330
17
100
AcDbEntity
  8
OUTLINE
100
AcDbLine
 10
576.929123959579
 20
517.7178384955723
 30
0.0
 11
576.2001631227278
 21
518.8824756001711
 31
0.0
  0
LINE
  5
28D
330
17
100
AcDbEntity
  8
OUTLINE
100
AcDbLine
 10
576.2001631227278
 20
518.8824756001711
 30
0.0
 11
575.371322893124
 21
519.992349288972
 31
0.0
  0
LINE
  5
28E
330
17
100
AcDbEntity
  8
OUTLINE
100
AcDbLine
 10
575.371322893124
 20
519.992349288972
 30
0.0
 11
574.4477133464006
 21
521.0406168216131
 31
0.0
  0
LINE
  5
28F
330
17
100
AcDbEntity
  8
OUTLINE
100
AcDbLine
 10
574.4477133464006
 20
521.0406168216131
 30
0.0
 11
573.4350288425444
 21
522.0208152801713
 31
0.0
  0
LINE
  5
290
330
17
100
AcDbEntity
  8
OUTLINE
100
AcDbLine
 10
573.4350288425444
 20
522.0208152801713
 30
0.0
 11
572.3395129182735
 21
522.9269014152005
 31
0.0
  0
LINE
  5
291
330
17
100
AcDbEntity
  8
OUTLINE
100
AcDbLine
 10
572.3395129182735
 20
522.9269014152005
 30
0.0
 11
571.167919793557
 21
523.7532889043741
 31
0.0
  0
LINE
  5
292
330
17
100
AcDbEntity
  8
OUTLINE
100
AcDbLine
 10
571.167919793557
 20
523.7532889043741
 30
0.0
 11
569.927472729603
 21
524.4948827940195
 31
0.0
  0
LINE
  5
293
330
17
100
AcDbEntity
  8
OUTLINE
100
AcDbLine
 10
569.927472729603
 20
524.4948827940195
 30
0.0
 11
568.6258194950514
 21
525.1471109112023
 31
0.0
  0
LINE
  5
294
330
17
100
AcDbEntity
  8
OUTLINE
100
AcDbLine
 10
568.6258194950514
 20
525.1471109112023
 30
0.0
 11
567.2709852149367
 21
525.7059520526918
 31
0.0
  0
LINE
  5
295
330
17
100
AcDbEntity
  8
OUTLINE
100
AcDbLine
 10
567.2709852149367
 20
525.7059520526918
 30
0.0
 11
565.871322893124
 21
526.1679607770176
 31
0.0
  0
LINE
  5
296
330
17
100
AcDbEntity
  8
OUTLINE
100
AcDbLine
 10
565.871322893124
 20
526.1679607770176
 30
0.0
 11
564.4354619132622
 21
526.5302886467605
 31
0.0
  0
LINE
  5
297
330
17
100
AcDbEntity
  8
OUTLINE
100
AcDbLine
 10
564.4354619132622
 20
526.5302886467605
 30
0.0
 11
562.9722548357644
 21
526.7907017901174
 31
0.0
  0
LINE
  5
298
330
17
100
AcDbEntity
  8
OUTLINE
100
AcDbLine
 10
562.9722548357644
 20
526.7907017901174
 30
0.0
 11
561.490722818829
 21
526.9475946734632
 31
0.0
  0
LINE
  5
299
330
17
100
AcDbEntity
  8
OUTLINE
100
AcDbLine
 10
561.490722818829
 20
526.9475946734632
 30
0.0
 11
560.0
 21
527.0
 31
0.0
  0
LINE
  5
29A
330
17
100
AcDbEntity
  8
OUTLINE
100
AcDbLine
 10
560.0
 20
527.0
 30
0.0
 11
558.509277181171
 21
526.9475946734632
 31
0.0
  0
LINE
  5
29B
330
17
100
AcDbEntity
  8
OUTLINE
100
AcDbLine
 10
558.509277181171
 20
526.9475946734632
 30
0.0
 11
557.0277451642356
 21
526.7907017901174
 31
0.0
  0
LINE
  5
29C
330
17
100
AcDbEntity
  8
OUTLINE
100
AcDbLine
 10
557.0277451642356
 20
526.7907017901174
 30
0.0
 11
555.5645380867378
 21
526.5302886467605
 31
0.0
  0
LINE
  5
29D
330
17
100
AcDbEntity
  8
OUTLINE
100
AcDbLine
 10
555.5645380867378
 20
526.5302886467605
 30
0.0
 11
554.128677106876
 21
526.1679607770176
 31
0.0
  0
LINE
  5
29E
330
17
100
AcDbEntity
  8
OUTLINE
100
AcDbLine
 10
554.128677106876
 20
526.1679607770176
 30
0.0
 11
552.7290147850633
 21
525.7059520526918
 31
0.0
  0
LINE
  5
29F
330
17
100
AcDbEntity
  8
OUTLINE
100
AcDbLine
 10
552.7290147850633
 20
525.7059520526918
 30
0.0
 11
551.3741805049486
 21
525.1471109112023
 31
0.0
  0
LINE
  5
2A0
330
17
100
AcDbEntity
  8
OUTLINE
100
AcDbLine
 10
551.3741805049486
 20
525.1471109112023
 30
0.0
 11
550.072527270397
 21
524.4948827940195
 31
0.0
  0
LINE
  5
2A1
330
17
100
AcDbEntity
  8
OUTLINE
100
AcDbLine
 10
550.072527270397
 20
524.4948827940195
 30
0.0
 11
548.832080206443
 21
523.7532889043741
 31
0.0
  0
LINE
  5
2A2
330
17
100
AcDbEntity
  8
OUTLINE
100
AcDbLine
 10
548.832080206443
 20
523.7532889043741
 30
0.0
 11
547.6604870817265
 21
522.9269014152005
 31
0.0
  0
LINE
  5
2A3
330
17
100
AcDbEntity
  8
OUTLINE
100
AcDbLine
 10
547.6604870817265
 20
522.9269014152005
 30
0.0
 11
546.5649711574556
 21
522.0208152801713
 31
0.0
  0
LINE
  5
2A4
330
17
100
AcDbEntity
  8
OUTLINE
100
AcDbLine
 10
546.5649711574556
 20
522.0208152801713
 30
0.0
 11
545.5522866535994
 21
521.0406168216131
 31
0.0
  0
LINE
  5
2A5
330
17
100
AcDbEntity
  8
OUTLINE
100
AcDbLine
 10
545.5522866535994
 20
521.0406168216131
 30
0.0
 11
544.628677106876
 21
519.992349288972
 31
0.0
  0
LINE
  5
2A6
330
17
100
AcDbEntity
  8
OUTLINE
100
AcDbLine
 10
544.628677106876
 20
519.992349288972
 30
0.0
 11
543.7998368772722
 21
518.8824756001711
 31
0.0
  0
LINE
  5
2A7
330
17
100
AcDbEntity
  8
OUTLINE
100
AcDbLine
 10
543.7998368772722
 20
518.8824756001711
 30
0.0
 11
543.070876040421
 21
517.7178384955723
 31
0.0
  0
LINE
  5
2A8
330
17
100
AcDbEntity
  8
OUTLINE
100
AcDbLine
 10
543.070876040421
 20
517.7178384955723
 30
0.0
 11
542.4462888822856
 21
516.5056183502065
 31
0.0
  0
LINE
  5
2A9
330
17
100
AcDbEntity
  8
OUTLINE
100
AcDbLine
 10
542.4462888822856
 20
516.5056183502065
 30
0.0
 11
541.929926190392
 21
515.2532889043741
 31
0.0
  0
LINE
  5
2AA
330
17
100
AcDbEntity
  8
OUTLINE
100
AcDbLine
 10
541.929926190392
 20
515.2532889043741
 30
0.0
 11
541.5249715124442
 21
513.9685711855504
 31
0.0
  0
LINE
  5
2AB
330
17
100
AcDbEntity
  8
OUTLINE
100
AcDbLine
 10
541.5249715124442
 20
513.9685711855504
 30
0.0
 11
541.2339215286923
 21
512.659385905684
 31
0.0
  0
LINE
  5
2AC
330
17
100
AcDbEntity
  8
OUTLINE
100
AcDbLine
 10
541.2339215286923
 20
512.659385905684
 30
0.0
 11
541.0585706590706
 21
511.33380462737335
 31
0.0
  0
LINE
  5
2AD
330
17
100
AcDbEntity
  8
OUTLINE
100
AcDbLine
 10
541.0585706590706
 20
511.33380462737335
 30
0.0
 11
541.0
 21
510.0
 31
0.0
  0
LINE
  5
2AE
330
17
100
AcDbEntity
  8
OUTLINE
100
AcDbLine
 10
541.0
 20
510.0
 30
0.0
 11
541.0585706590706
 21
508.66619537262665
 31
0.0
  0
LINE
  5
2AF
330
17
100
AcDbEntity
  8
OUTLINE
100
AcDbLine
 10
541.0585706590706
 20
508.66619537262665
 30
0.0
 11
541.2339215286923
 21
507.3406140943161
 31
0.0
  0
LINE
  5
2B0
330
17
100
AcDbEntity
  8
OUTLINE
100
AcDbLine
 10
541.2339215286923
 20
507.3406140943161
 30
0.0
 11
541.5249715124442
 21
506.0314288144496
 31
0.0
  0
LINE
  5
2B1
330
17
100
AcDbEntity
  8
OUTLINE
100
AcDbLine
 10
541.5249715124442
 20
506.0314288144496
 30
0.0
 11
541.929926190392
 21
504.7467110956259
 31
0.0
  0
LINE
  5
2B2
330
17
100
AcDbEntity
  8
OUTLINE
100
AcDbLine
 10
541.929926190392
 20
504.7467110956259
 30
0.0
 11
542.4462888822856
 21
503.49438164979347
 31
0.0
  0
LINE
  5
2B3
330
17
100
AcDbEntity
  8
OUTLINE
100
AcDbLine
 10
542.4462888822856
 20
503.49438164979347
 30
0.0
 11
543.070876040421
 21
502.28216150442773
 31
0.0
  0
LINE
  5
2B4
330
17
100
AcDbEntity
  8
OUTLINE
100
AcDbLine
 10
543.070876040421
 20
502.28216150442773
 30
0.0
 11
543.7998368772722
 21
501.1175243998289
 31
0.0
  0
LINE
  5
2B5
330
17
100
AcDbEntity
  8
OUTLINE
100
AcDbLine
 10
543.7998368772722
 20
501.1175243998289
 30
0.0
 11
544.628677106876
 21
500.00765071102796
 31
0.0
  0
LINE
  5
2B6
330
17
100
AcDbEntity
  8
OUTLINE
100
AcDbLine
 10
544.628677106876
 20
500.00765071102796
 30
0.0
 11
545.5522866535994
 21
498.9593831783869
 31
0.0
  0
LINE
  5
2B7
330
17
100
AcDbEntity
  8
OUTLINE
100
AcDbLine
 10
545.5522866535994
 20
498.9593831783869
 30
0.0
 11
546.5649711574556
 21
497.9791847198287
 31
0.0
  0
LINE
  5
2B8
330
17
100
AcDbEntity
  8
OUTLINE
100
AcDbLine
 10
546.5649711574556
 20
497.9791847198287
 30
0.0
 11
547.6604870817265
 21
497.0730985847995
 31
0.0
  0
LINE
  5
2B9
330
17
100
AcDbEntity
  8
OUTLINE
100
AcDbLine
 10
547.6604870817265
 20
497.0730985847995
 30
0.0
 11
548.832080206443
 21
496.24671109562587
 31
0.0
  0
LINE
  5
2BA
330
17
100
AcDbEntity
  8
OUTLINE
100
AcDbLine
 10
548.832080206443
 20
496.24671109562587
 30
0.0
 11
550.072527270397
 21
495.5051172059804
 31
0.0
  0
LINE
  5
2BB
330
17
100
AcDbEntity
  8
OUTLINE
100
AcDbLine
 10
550.072527270397
 20
495.5051172059804
 30
0.0
 11
551.3741805049486
 21
494.8528890887977
 31
0.0
  0
LINE
  5
2BC
330
17
100
AcDbEntity
  8
OUTLINE
100
AcDbLine
 10
551.3741805049486
 20
494.8528890887977
 30
0.0
 11
552.7290147850633
 21
494.2940479473081
 31
0.0
  0
LINE
  5
2BD
330
17
100
AcDbEntity
  8
OUTLINE
100
AcDbLine
 10
552.7290147850633
 20
494.2940479473081
 30
0.0
 11
554.128677106876
 21
493.8320392229824
 31
0.0
  0
LINE
  5
2BE
330
17
100
AcDbEntity
  8
OUTLINE
100
AcDbLine
 10
554.128677106876
 20
493.8320392229824
 30
0.0
 11
555.5645380867378
 21
493.4697113532395
 31
0.0
  0
LINE
  5
2BF
330
17
100
AcDbEntity
  8
OUTLINE
100
AcDbLine
 10
555.5645380867378
 20
493.4697113532395
 30
0.0
 11
557.0277451642356
 21
493.20929820988266
 31
0.0
  0
LINE
  5
2C0
330
17
100
AcDbEntity
  8
OUTLINE
100
AcDbLine
 10
557.0277451642356
 20
493.20929820988266
 30
0.0
 11
558.5092771811709
 21
493.0524053265368
 31
0.0
  0
LINE
  5
2C1
330
17
100
AcDbEntity
  8
OUTLINE
100
AcDbLine
 10
558.5092771811709
 20
493.0524053265368
 30
0.0
 11
560.0
 21
493.0
 31
0.0
  0
LINE
  5
2C2
330
17
100
AcDbEntity
  8
OUTLINE
100
AcDbLine
 10
560.0
 20
493.0
 30
0.0
 11
561.4907228188291
 21
493.0524053265368
 31
0.0
  0
LINE
  5
2C3
330
17
100
AcDbEntity
  8
OUTLINE
100
AcDbLine
 10
561.4907228188291
 20
493.0524053265368
 30
0.0
 11
562.9722548357644
 21
493.20929820988266
 31
0.0
  0
LINE
  5
2C4
330
17
100
AcDbEntity
  8
OUTLINE
100
AcDbLine
 10
562.9722548357644
 20
493.20929820988266
 30
0.0
 11
564.4354619132622
 21
493.4697113532395
 31
0.0
  0
LINE
  5
2C5
330
17
100
AcDbEntity
  8
OUTLINE
100
AcDbLine
 10
564.4354619132622
 20
493.4697113532395
 30
0.0
 11
565.871322893124
 21
493.8320392229824
 31
0.0
  0
LINE
  5
2C6
330
17
100
AcDbEntity
  8
OUTLINE
100
AcDbLine
 10
565.871322893124
 20
493.8320392229824
 30
0.0
 11
567.2709852149367
 21
494.2940479473081
 31
0.0
  0
LINE
  5
2C7
330
17
100
AcDbEntity
  8
OUTLINE
100
AcDbLine
 10
567.2709852149367
 20
494.2940479473081
 30
0.0
 11
568.6258194950514
 21
494.8528890887977
 31
0.0
  0
LINE
  5
2C8
330
17
100
AcDbEntity
  8
OUTLINE
100
AcDbLine
 10
568.6258194950514
 20
494.8528890887977
 30
0.0
 11
569.927472729603
 21
495.5051172059804
 31
0.0
  0
LINE
  5
2C9
330
17
100
AcDbEntity
  8
OUTLINE
100
AcDbLine
 10
569.927472729603
 20
495.5051172059804
 30
0.0
 11
571.167919793557
 21
496.24671109562587
 31
0.0
  0
LINE
  5
2CA
330
17
100
AcDbEntity
  8
OUTLINE
100
AcDbLine
 10
571.167919793557
 20
496.24671109562587
 30
0.0
 11
572.3395129182735
 21
497.0730985847995
 31
0.0
  0
LINE
  5
2CB
330
17
100
AcDbEntity
  8
OUTLINE
100
AcDbLine
 10
572.3395129182735
 20
497.0730985847995
 30
0.0
 11
573.4350288425444
 21
497.9791847198287
 31
0.0
  0
LINE
  5
2CC
330
17
100
AcDbEntity
  8
OUTLINE
100
AcDbLine
 10
573.4350288425444
 20
497.9791847198287
 30
0.0
 11
574.4477133464006
 21
498.9593831783869
 31
0.0
  0
LINE
  5
2CD
330
17
100
AcDbEntity
  8
OUTLINE
100
AcDbLine
 10
574.4477133464006
 20
498.9593831783869
 30
0.0
 11
575.371322893124
 21
500.00765071102796
 31
0.0
  0
LINE
  5
2CE
330
17
100
AcDbEntity
  8
OUTLINE
100
AcDbLine
 10
575.371322893124
 20
500.00765071102796
 30
0.0
 11
576.2001631227278
 21
501.1175243998289
 31
0.0
  0
LINE
  5
2CF
330
17
100
AcDbEntity
  8
OUTLINE
100
AcDbLine
 10
576.2001631227278
 20
501.1175243998289
 30
0.0
 11
576.929123959579
 21
502.2821615044277
 31
0.0
  0
LINE
  5
2D0
330
17
100
AcDbEntity
  8
OUTLINE
100
AcDbLine
 10
576.929123959579
 20
502.2821615044277
 30
0.0
 11
577.5537111177144
 21
503.49438164979347
 31
0.0
  0
LINE
  5
2D1
330
17
100
AcDbEntity
  8
OUTLINE
100
AcDbLine
 10
577.5537111177144
 20
503.49438164979347
 30
0.0
 11
578.070073809608
 21
504.74671109562587
 31
0.0
  0
LINE
  5
2D2
330
17
100
AcDbEntity
  8
OUTLINE
100
AcDbLine
 10
578.070073809608
 20
504.74671109562587
 30
0.0
 11
578.4750284875558
 21
506.0314288144496
 31
0.0
  0
LINE
  5
2D3
330
17
100
AcDbEntity
  8
OUTLINE
100
AcDbLine
 10
578.4750284875558
 20
506.0314288144496
 30
0.0
 11
578.7660784713077
 21
507.3406140943161
 31
0.0
  0
LINE
  5
2D4
330
17
100
AcDbEntity
  8
OUTLINE
100
AcDbLine
 10
578.7660784713077
 20
507.3406140943161
 30
0.0
 11
578.9414293409294
 21
508.66619537262665
 31
0.0
  0
LINE
  5
2D5
330
17
100
AcDbEntity
  8
OUTLINE
100
AcDbLine
 10
578.9414293409294
 20
508.66619537262665
 30
0.0
 11
579.0
 21
510.0
 31
0.0
  0
LINE
  5
2D6
330
17
100
AcDbEntity
  8
WALL
100
AcDbLine
 10
578.4
 20
510.0
 30
0.0
 11
578.3432789406895
 21
511.2867291699367
 31
0.0
  0
LINE
  5
2D7
330
17
100
AcDbEntity
  8
WALL
100
AcDbLine
 10
578.3432789406895
 20
511.2867291699367
 30
0.0
 11
578.1734654669506
 21
512.5655252266598
 31
0.0
  0
LINE
  5
2D8
330
17
100
AcDbEntity
  8
WALL
100
AcDbLine
 10
578.1734654669506
 20
512.5655252266598
 30
0.0
 11
577.8916065353172
 21
513.8285039672369
 31
0.0
  0
LINE
  5
2D9
330
17
100
AcDbEntity
  8
WALL
100
AcDbLine
 10
577.8916065353172
 20
513.8285039672369
 30
0.0
 11
577.4994398998308
 21
515.0678787077492
 31
0.0
  0
LINE
  5
2DA
330
17
100
AcDbEntity
  8
WALL
100
AcDbLine
 10
577.4994398998308
 20
515.0678787077492
 30
0.0
 11
576.9993833982077
 21
516.2760082907874
 31
0.0
  0
LINE
  5
2DB
330
17
100
AcDbEntity
  8
WALL
100
AcDbLine
 10
576.9993833982077
 20
516.2760082907874
 30
0.0
 11
576.394520045066
 21
517.4454441957286
 31
0.0
  0
LINE
  5
2DC
330
17
100
AcDbEntity
  8
WALL
100
AcDbLine
 10
576.394520045066
 20
517.4454441957286
 30
0.0
 11
575.6885790241153
 21
518.5689764613415
 31
0.0
  0
LINE
  5
2DD
330
17
100
AcDbEntity
  8
WALL
100
AcDbLine
 10
575.6885790241153
 20
518.5689764613415
 30
0.0
 11
574.8859126964991
 21
519.6396781375965
 31
0.0
  0
LINE
  5
2DE
330
17
100
AcDbEntity
  8
WALL
100
AcDbLine
 10
574.8859126964991
 20
519.6396781375965
 30
0.0
 11
573.9914697670406
 21
520.650947992615
 31
0.0
  0
LINE
  5
2DF
330
17
100
AcDbEntity
  8
WALL
100
AcDbLine
 10
573.9914697670406
 20
520.650947992615
 30
0.0
 11
573.0107647738324
 21
521.5965512114594
 31
0.0
  0
LINE
  5
2E0
330
17
100
AcDbEntity
  8
WALL
100
AcDbLine
 10
573.0107647738324
 20
521.5965512114594
 30
0.0
 11
571.9498440892754
 21
522.4706578358405
 31
0.0
  0
LINE
  5
2E1
330
17
100
AcDbEntity
  8
WALL
100
AcDbLine
 10
571.9498440892754
 20
522.4706578358405
 30
0.0
 11
570.8152486421815
 21
523.2678787077491
 31
0.0
  0
LINE
  5
2E2
330
17
100
AcDbEntity
  8
WALL
100
AcDbLine
 10
570.8152486421815
 20
523.2678787077491
 30
0.0
 11
569.6139735907734
 21
523.9832986954071
 31
0.0
  0
LINE
  5
2E3
330
17
100
AcDbEntity
  8
WALL
100
AcDbLine
 10
569.6139735907734
 20
523.9832986954071
 30
0.0
 11
568.3534251952077
 21
524.6125069966893
 31
0.0
  0
LINE
  5
2E4
330
17
100
AcDbEntity
  8
WALL
100
AcDbLine
 10
568.3534251952077
 20
524.6125069966893
 30
0.0
 11
567.0413751555177
 21
525.151624333185
 31
0.0
  0
LINE
  5
2E5
330
17
100
AcDbEntity
  8
WALL
100
AcDbLine
 10
567.0413751555177
 20
525.151624333185
 30
0.0
 11
565.685912696499
 21
525.5973268672406
 31
0.0
  0
LINE
  5
2E6
330
17
100
AcDbEntity
  8
WALL
100
AcDbLine
 10
565.685912696499
 20
525.5973268672406
 30
0.0
 11
564.2953946949486
 21
525.9468666945219
 31
0.0
  0
LINE
  5
2E7
330
17
100
AcDbEntity
  8
WALL
100
AcDbLine
 10
564.2953946949486
 20
525.9468666945219
 30
0.0
 11
562.8783941567402
 21
526.1980887857602
 31
0.0
  0
LINE
  5
2E8
330
17
100
AcDbEntity
  8
WALL
100
AcDbLine
 10
562.8783941567402
 20
526.1980887857602
 30
0.0
 11
561.4436473613923
 21
526.3494442732233
 31
0.0
  0
LINE
  5
2E9
330
17
100
AcDbEntity
  8
WALL
100
AcDbLine
 10
561.4436473613923
 20
526.3494442732233
 30
0.0
 11
560.0
 21
526.4
 31
0.0
  0
LINE
  5
2EA
330
17
100
AcDbEntity
  8
WALL
100
AcDbLine
 10
560.0
 20
526.4
 30
0.0
 11
558.5563526386077
 21
526.3494442732233
 31
0.0
  0
LINE
  5
2EB
330
17
100
AcDbEntity
  8
WALL
100
AcDbLine
 10
558.5563526386077
 20
526.3494442732233
 30
0.0
 11
557.1216058432598
 21
526.1980887857602
 31
0.0
  0
LINE
  5
2EC
330
17
100
AcDbEntity
  8
WALL
100
AcDbLine
 10
557.1216058432598
 20
526.1980887857602
 30
0.0
 11
555.7046053050514
 21
525.9468666945219
 31
0.0
  0
LINE
  5
2ED
330
17
100
AcDbEntity
  8
WALL
100
AcDbLine
 10
555.7046053050514
 20
525.9468666945219
 30
0.0
 11
554.314087303501
 21
525.5973268672406
 31
0.0
  0
LINE
  5
2EE
330
17
100
AcDbEntity
  8
WALL
100
AcDbLine
 10
554.314087303501
 20
525.5973268672406
 30
0.0
 11
552.9586248444823
 21
525.151624333185
 31
0.0
  0
LINE
  5
2EF
330
17
100
AcDbEntity
  8
WALL
100
AcDbLine
 10
552.9586248444823
 20
525.151624333185
 30
0.0
 11
551.6465748047923
 21
524.6125069966893
 31
0.0
  0
LINE
  5
2F0
330
17
100
AcDbEntity
  8
WALL
100
AcDbLine
 10
551.6465748047923
 20
524.6125069966893
 30
0.0
 11
550.3860264092266
 21
523.9832986954071
 31
0.0
  0
LINE
  5
2F1
330
17
100
AcDbEntity
  8
WALL
100
AcDbLine
 10
550.3860264092266
 20
523.9832986954071
 30
0.0
 11
549.1847513578185
 21
523.2678787077491
 31
0.0
  0
LINE
  5
2F2
330
17
100
AcDbEntity
  8
WALL
100
AcDbLine
 10
549.1847513578185
 20
523.2678787077491
 30
0.0
 11
548.0501559107246
 21
522.4706578358405
 31
0.0
  0
LINE
  5
2F3
330
17
100
AcDbEntity
  8
WALL
100
AcDbLine
 10
548.0501559107246
 20
522.4706578358405
 30
0.0
 11
546.9892352261676
 21
521.5965512114594
 31
0.0
  0
LINE
  5
2F4
330
17
100
AcDbEntity
  8
WALL
100
AcDbLine
 10
546.9892352261676
 20
521.5965512114594
 30
0.0
 11
546.0085302329594
 21
520.650947992615
 31
0.0
  0
LINE
  5
2F5
330
17
100
AcDbEntity
  8
WALL
100
AcDbLine
 10
546.0085302329594
 20
520.650947992615
 30
0.0
 11
545.1140873035009
 21
519.6396781375965
 31
0.0
  0
LINE
  5
2F6
330
17
100
AcDbEntity
  8
WALL
100
AcDbLine
 10
545.1140873035009
 20
519.6396781375965
 30
0.0
 11
544.3114209758847
 21
518.5689764613415
 31
0.0
  0
LINE
  5
2F7
330
17
100
AcDbEntity
  8
WALL
100
AcDbLine
 10
544.3114209758847
 20
518.5689764613415
 30
0.0
 11
543.605479954934
 21
517.4454441957286
 31
0.0
  0
LINE
  5
2F8
330
17
100
AcDbEntity
  8
WALL
100
AcDbLine
 10
543.605479954934
 20
517.4454441957286
 30
0.0
 11
543.0006166017923
 21
516.2760082907874
 31
0.0
  0
LINE
  5
2F9
330
17
100
AcDbEntity
  8
WALL
100
AcDbLine
 10
543.0006166017923
 20
516.2760082907874
 30
0.0
 11
542.5005601001692
 21
515.0678787077492
 31
0.0
  0
LINE
  5
2FA
330
17
100
AcDbEntity
  8
WALL
100
AcDbLine
 10
542.5005601001692
 20
515.0678787077492
 30
0.0
 11
542.1083934646828
 21
513.8285039672369
 31
0.0
  0
LINE
  5
2FB
330
17
100
AcDbEntity
  8
WALL
100
AcDbLine
 10
542.1083934646828
 20
513.8285039672369
 30
0.0
 11
541.8265345330494
 21
512.5655252266598
 31
0.0
  0
LINE
  5
2FC
330
17
100
AcDbEntity
  8
WALL
100
AcDbLine
 10
541.8265345330494
 20
512.5655252266598
 30
0.0
 11
541.6567210593105
 21
511.2867291699367
 31
0.0
  0
LINE
  5
2FD
330
17
100
AcDbEntity
  8
WALL
100
AcDbLine
 10
541.6567210593105
 20
511.2867291699367
 30
0.0
 11
541.6
 21
510.0
 31
0.0
  0
LINE
  5
2FE
330
17
100
AcDbEntity
  8
WALL
100
AcDbLine
 10
541.6
 20
510.0
 30
0.0
 11
541.6567210593105
 21
508.7132708300634
 31
0.0
  0
LINE
  5
2FF
330
17
100
AcDbEntity
  8
WALL
100
AcDbLine
 10
541.6567210593105
 20
508.7132708300634
 30
0.0
 11
541.8265345330494
 21
507.43447477334024
 31
0.0
  0
LINE
  5
300
330
17
100
AcDbEntity
  8
WALL
100
AcDbLine
 10
541.8265345330494
 20
507.43447477334024
 30
0.0
 11
542.1083934646828
 21
506.1714960327632
 31
0.0
  0
LINE
  5
301
330
17
100
AcDbEntity
  8
WALL
100
AcDbLine
 10
542.1083934646828
 20
506.1714960327632
 30
0.0
 11
542.5005601001692
 21
504.9321212922509
 31
0.0
  0
LINE
  5
302
330
17
100
AcDbEntity
  8
WALL
100
AcDbLine
 10
542.5005601001692
 20
504.9321212922509
 30
0.0
 11
543.0006166017923
 21
503.72399170921256
 31
0.0
  0
LINE
  5
303
330
17
100
AcDbEntity
  8
WALL
100
AcDbLine
 10
543.0006166017923
 20
503.72399170921256
 30
0.0
 11
543.605479954934
 21
502.55455580427144
 31
0.0
  0
LINE
  5
304
330
17
100
AcDbEntity
  8
WALL
100
AcDbLine
 10
543.605479954934
 20
502.55455580427144
 30
0.0
 11
544.3114209758847
 21
501.43102353865845
 31
0.0
  0
LINE
  5
305
330
17
100
AcDbEntity
  8
WALL
100
AcDbLine
 10
544.3114209758847
 20
501.43102353865845
 30
0.0
 11
545.1140873035009
 21
500.36032186240345
 31
0.0
  0
LINE
  5
306
330
17
100
AcDbEntity
  8
WALL
100
AcDbLine
 10
545.1140873035009
 20
500.36032186240345
 30
0.0
 11
546.0085302329594
 21
499.349052007385
 31
0.0
  0
LINE
  5
307
330
17
100
AcDbEntity
  8
WALL
100
AcDbLine
 10
546.0085302329594
 20
499.349052007385
 30
0.0
 11
546.9892352261675
 21
498.40344878854063
 31
0.0
  0
LINE
  5
308
330
17
100
AcDbEntity
  8
WALL
100
AcDbLine
 10
546.9892352261675
 20
498.40344878854063
 30
0.0
 11
548.0501559107246
 21
497.5293421641595
 31
0.0
  0
LINE
  5
309
330
17
100
AcDbEntity
  8
WALL
100
AcDbLine
 10
548.0501559107246
 20
497.5293421641595
 30
0.0
 11
549.1847513578185
 21
496.73212129225084
 31
0.0
  0
LINE
  5
30A
330
17
100
AcDbEntity
  8
WALL
100
AcDbLine
 10
549.1847513578185
 20
496.73212129225084
 30
0.0
 11
550.3860264092266
 21
496.01670130459286
 31
0.0
  0
LINE
  5
30B
330
17
100
AcDbEntity
  8
WALL
100
AcDbLine
 10
550.3860264092266
 20
496.01670130459286
 30
0.0
 11
551.6465748047923
 21
495.3874930033108
 31
0.0
  0
LINE
  5
30C
330
17
100
AcDbEntity
  8
WALL
100
AcDbLine
 10
551.6465748047923
 20
495.3874930033108
 30
0.0
 11
552.9586248444823
 21
494.8483756668149
 31
0.0
  0
LINE
  5
30D
330
17
100
AcDbEntity
  8
WALL
100
AcDbLine
 10
552.9586248444823
 20
494.8483756668149
 30
0.0
 11
554.314087303501
 21
494.4026731327595
 31
0.0
  0
LINE
  5
30E
330
17
100
AcDbEntity
  8
WALL
100
AcDbLine
 10
554.314087303501
 20
494.4026731327595
 30
0.0
 11
555.7046053050514
 21
494.0531333054781
 31
0.0
  0
LINE
  5
30F
330
17
100
AcDbEntity
  8
WALL
100
AcDbLine
 10
555.7046053050514
 20
494.0531333054781
 30
0.0
 11
557.1216058432598
 21
493.80191121423974
 31
0.0
  0
LINE
  5
310
330
17
100
AcDbEntity
  8
WALL
100
AcDbLine
 10
557.1216058432598
 20
493.80191121423974
 30
0.0
 11
558.5563526386077
 21
493.6505557267767
 31
0.0
  0
LINE
  5
311
330
17
100
AcDbEntity
  8
WALL
100
AcDbLine
 10
558.5563526386077
 20
493.6505557267767
 30
0.0
 11
560.0
 21
493.6
 31
0.0
  0
LINE
  5
312
330
17
100
AcDbEntity
  8
WALL
100
AcDbLine
 10
560.0
 20
493.6
 30
0.0
 11
561.4436473613923
 21
493.6505557267767
 31
0.0
  0
LINE
  5
313
330
17
100
AcDbEntity
  8
WALL
100
AcDbLine
 10
561.4436473613923
 20
493.6505557267767
 30
0.0
 11
562.8783941567402
 21
493.80191121423974
 31
0.0
  0
LINE
  5
314
330
17
100
AcDbEntity
  8
WALL
100
AcDbLine
 10
562.8783941567402
 20
493.80191121423974
 30
0.0
 11
564.2953946949486
 21
494.0531333054781
 31
0.0
  0
LINE
  5
315
330
17
100
AcDbEntity
  8
WALL
100
AcDbLine
 10
564.2953946949486
 20
494.0531333054781
 30
0.0
 11
565.685912696499
 21
494.4026731327595
 31
0.0
  0
LINE
  5
316
330
17
100
AcDbEntity
  8
WALL
100
AcDbLine
 10
565.685912696499
 20
494.4026731327595
 30
0.0
 11
567.0413751555176
 21
494.8483756668149
 31
0.0
  0
LINE
  5
317
330
17
100
AcDbEntity
  8
WALL
100
AcDbLine
 10
567.0413751555176
 20
494.8483756668149
 30
0.0
 11
568.3534251952077
 21
495.38749300331074
 31
0.0
  0
LINE
  5
318
330
17
100
AcDbEntity
  8
WALL
100
AcDbLine
 10
568.3534251952077
 20
495.38749300331074
 30
0.0
 11
569.6139735907734
 21
496.01670130459286
 31
0.0
  0
LINE
  5
319
330
17
100
AcDbEntity
  8
WALL
100
AcDbLine
 10
569.6139735907734
 20
496.01670130459286
 30
0.0
 11
570.8152486421815
 21
496.73212129225084
 31
0.0
  0
LINE
  5
31A
330
17
100
AcDbEntity
  8
WALL
100
AcDbLine
 10
570.8152486421815
 20
496.73212129225084
 30
0.0
 11
571.9498440892754
 21
497.5293421641595
 31
0.0
  0
LINE
  5
31B
330
17
100
AcDbEntity
  8
WALL
100
AcDbLine
 10
571.9498440892754
 20
497.5293421641595
 30
0.0
 11
573.0107647738324
 21
498.40344878854063
 31
0.0
  0
LINE
  5
31C
330
17
100
AcDbEntity
  8
WALL
100
AcDbLine
 10
573.0107647738324
 20
498.40344878854063
 30
0.0
 11
573.9914697670406
 21
499.349052007385
 31
0.0
  0
LINE
  5
31D
330
17
100
AcDbEntity
  8
WALL
100
AcDbLine
 10
573.9914697670406
 20
499.349052007385
 30
0.0
 11
574.8859126964991
 21
500.36032186240345
 31
0.0
  0
LINE
  5
31E
330
17
100
AcDbEntity
  8
WALL
100
AcDbLine
 10
574.8859126964991
 20
500.36032186240345
 30
0.0
 11
575.6885790241153
 21
501.43102353865845
 31
0.0
  0
LINE
  5
31F
330
17
100
AcDbEntity
  8
WALL
100
AcDbLine
 10
575.6885790241153
 20
501.43102353865845
 30
0.0
 11
576.394520045066
 21
502.55455580427144
 31
0.0
  0
LINE
  5
320
330
17
100
AcDbEntity
  8
WALL
100
AcDbLine
 10
576.394520045066
 20
502.55455580427144
 30
0.0
 11
576.9993833982077
 21
503.7239917092125
 31
0.0
  0
LINE
  5
321
330
17
100
AcDbEntity
  8
WALL
100
AcDbLine
 10
576.9993833982077
 20
503.7239917092125
 30
0.0
 11
577.4994398998308
 21
504.9321212922509
 31
0.0
  0
LINE
  5
322
330
17
100
AcDbEntity
  8
WALL
100
AcDbLine
 10
577.4994398998308
 20
504.9321212922509
 30
0.0
 11
577.8916065353172
 21
506.1714960327632
 31
0.0
  0
LINE
  5
323
330
17
100
AcDbEntity
  8
WALL
100
AcDbLine
 10
577.8916065353172
 20
506.1714960327632
 30
0.0
 11
578.1734654669506
 21
507.4344747733402
 31
0.0
  0
LINE
  5
324
330
17
100
AcDbEntity
  8
WALL
100
AcDbLine
 10
578.1734654669506
 20
507.4344747733402
 30
0.0
 11
578.3432789406895
 21
508.7132708300633
 31
0.0
  0
LINE
  5
325
330
17
100
AcDbEntity
  8
WALL
100
AcDbLine
 10
578.3432789406895
 20
508.7132708300633
 30
0.0
 11
578.4
 21
510.0
 31
0.0
  0
LINE
  5
326
330
17
100
AcDbEntity
  8
CENTERLINE
100
AcDbLine
 10
536.0
 20
510.0
 30
0.0
 11
584.0
 21
510.0
 31
0.0
  0
LINE
  5
327
330
17
100
AcDbEntity
  8
CENTERLINE
100
AcDbLine
 10
560.0
 20
488.0
 30
0.0
 11
560.0
 21
532.0
 31
0.0
  0
CIRCLE
  5
328
330
17
100
AcDbEntity
  8
SPAR
100
AcDbCircle
 10
572.0
 20
520.0
 30
0.0
 40
1.25
  0
CIRCLE
  5
329
330
17
100
AcDbEntity
  8
SPAR
100
AcDbCircle
 10
548.0
 20
520.0
 30
0.0
 40
1.25
  0
CIRCLE
  5
32A
330
17
100
AcDbEntity
  8
SPAR
100
AcDbCircle
 10
572.0
 20
500.0
 30
0.0
 40
1.25
  0
CIRCLE
  5
32B
330
17
100
AcDbEntity
  8
SPAR
100
AcDbCircle
 10
548.0
 20
500.0
 30
0.0
 40
1.25
  0
TEXT
  5
32C
330
17
100
AcDbEntity
  8
TEXT
100
AcDbText
 10
575.0
 20
488.0
 30
0.0
 40
1.5
  1
INTERLOCKING TEETH (M4)
 11
575.0
 21
488.0
 31
0.0
100
AcDbText
  0
TEXT
  5
32D
330
17
100
AcDbEntity
  8
TEXT
100
AcDbText
 10
575.0
 20
484.0
 30
0.0
 40
1.3
  1
1.5mm depth, 3mm pitch
 11
575.0
 21
484.0
 31
0.0
100
AcDbText
  0
DIMENSION
  5
32E
330
17
100
AcDbEntity
  8
0
100
AcDbDimension
280
0
  2
*D6
  3
AEROFORGE
 10
541.0
 20
481.0
 30
0.0
 11
560.0
 21
481.0
 31
0.0
 70
32
 71
5
  1
<>
100
AcDbAlignedDimension
 13
541.0
 23
485.0
 33
0.0
 14
579.0
 24
485.0
 34
0.0
 50
0.0
100
AcDbRotatedDimension
  0
DIMENSION
  5
33E
330
17
100
AcDbEntity
  8
0
100
AcDbDimension
280
0
  2
*D7
  3
AEROFORGE
 10
591.0
 20
493.0
 30
0.0
 11
591.0
 21
510.0
 31
0.0
 70
32
 71
5
  1
<>
100
AcDbAlignedDimension
 13
587.0
 23
493.0
 33
0.0
 14
587.0
 24
527.0
 34
0.0
 50
90.0
100
AcDbRotatedDimension
  0
TEXT
  5
34E
330
17
100
AcDbEntity
  8
TEXT
100
AcDbText
 10
420.0
 20
350.0
 30
0.0
 40
3.5
  1
SECTION B — X=150 (Max Section / Battery)
 11
420.0
 21
350.0
 31
0.0
100
AcDbText
  0
TEXT
  5
34F
330
17
100
AcDbEntity
  8
TEXT
100
AcDbText
 10
445.0
 20
343.0
 30
0.0
 40
2.0
  1
50mm W x 44mm H ellipse
 11
445.0
 21
343.0
 31
0.0
100
AcDbText
  0
LINE
  5
350
330
17
100
AcDbEntity
  8
OUTLINE
100
AcDbLine
 10
495.0
 20
310.0
 30
0.0
 11
494.9229333433282
 21
311.7261001060126
 31
0.0
  0
LINE
  5
351
330
17
100
AcDbEntity
  8
OUTLINE
100
AcDbLine
 10
494.9229333433282
 20
311.7261001060126
 30
0.0
 11
494.6922085148784
 21
313.4415582308851
 31
0.0
  0
LINE
  5
352
330
17
100
AcDbEntity
  8
OUTLINE
100
AcDbLine
 10
494.6922085148784
 20
313.4415582308851
 30
0.0
 11
494.30924800994194
 21
315.1357980048299
 31
0.0
  0
LINE
  5
353
330
17
100
AcDbEntity
  8
OUTLINE
100
AcDbLine
 10
494.30924800994194
 20
315.1357980048299
 30
0.0
 11
493.7764129073788
 21
316.79837387624883
 31
0.0
  0
LINE
  5
354
330
17
100
AcDbEntity
  8
OUTLINE
100
AcDbLine
 10
493.7764129073788
 20
316.79837387624883
 30
0.0
 11
493.0969883127822
 21
318.419035512032
 31
0.0
  0
LINE
  5
355
330
17
100
AcDbEntity
  8
OUTLINE
100
AcDbLine
 10
493.0969883127822
 20
318.419035512032
 30
0.0
 11
492.2751631047092
 21
319.98779099427003
 31
0.0
  0
LINE
  5
356
330
17
100
AcDbEntity
  8
OUTLINE
100
AcDbLine
 10
492.2751631047092
 20
319.98779099427003
 30
0.0
 11
491.3160041088523
 21
321.4949684237509
 31
0.0
  0
LINE
  5
357
330
17
100
AcDbEntity
  8
OUTLINE
100
AcDbLine
 10
491.3160041088523
 20
321.4949684237509
 30
0.0
 11
490.2254248593737
 21
322.9312755504344
 31
0.0
  0
LINE
  5
358
330
17
100
AcDbEntity
  8
OUTLINE
100
AcDbLine
 10
490.2254248593737
 20
322.9312755504344
 30
0.0
 11
489.01014914000075
 21
324.287857063264
 31
0.0
  0
LINE
  5
359
330
17
100
AcDbEntity
  8
OUTLINE
100
AcDbLine
 10
489.01014914000075
 20
324.287857063264
 30
0.0
 11
487.6776695296637
 21
325.55634918610406
 31
0.0
  0
LINE
  5
35A
330
17
100
AcDbEntity
  8
OUTLINE
100
AcDbLine
 10
487.6776695296637
 20
325.55634918610406
 30
0.0
 11
486.2362012082546
 21
326.7289312432007
 31
0.0
  0
LINE
  5
35B
330
17
100
AcDbEntity
  8
OUTLINE
100
AcDbLine
 10
486.2362012082546
 20
326.7289312432007
 30
0.0
 11
484.69463130731185
 21
327.79837387624883
 31
0.0
  0
LINE
  5
35C
330
17
100
AcDbEntity
  8
OUTLINE
100
AcDbLine
 10
484.69463130731185
 20
327.79837387624883
 30
0.0
 11
483.06246411789874
 21
328.75808361579004
 31
0.0
  0
LINE
  5
35D
330
17
100
AcDbEntity
  8
OUTLINE
100
AcDbLine
 10
483.06246411789874
 20
328.75808361579004
 30
0.0
 11
481.3497624934887
 21
329.6021435321441
 31
0.0
  0
LINE
  5
35E
330
17
100
AcDbEntity
  8
OUTLINE
100
AcDbLine
 10
481.3497624934887
 20
329.6021435321441
 30
0.0
 11
479.56708580912726
 21
330.3253497152483
 31
0.0
  0
LINE
  5
35F
330
17
100
AcDbEntity
  8
OUTLINE
100
AcDbLine
 10
479.56708580912726
 20
330.3253497152483
 30
0.0
 11
477.7254248593737
 21
330.9232433584934
 31
0.0
  0
LINE
  5
360
330
17
100
AcDbEntity
  8
OUTLINE
100
AcDbLine
 10
477.7254248593737
 20
330.9232433584934
 30
0.0
 11
475.83613409639764
 21
331.3921382487489
 31
0.0
  0
LINE
  5
361
330
17
100
AcDbEntity
  8
OUTLINE
100
AcDbLine
 10
475.83613409639764
 20
331.3921382487489
 30
0.0
 11
473.9108616260058
 21
331.72914349309303
 31
0.0
  0
LINE
  5
362
330
17
100
AcDbEntity
  8
OUTLINE
100
AcDbLine
 10
473.9108616260058
 20
331.72914349309303
 30
0.0
 11
471.9614773931961
 21
331.93218134212884
 31
0.0
  0
LINE
  5
363
330
17
100
AcDbEntity
  8
OUTLINE
100
AcDbLine
 10
471.9614773931961
 20
331.93218134212884
 30
0.0
 11
470.0
 21
332.0
 31
0.0
  0
LINE
  5
364
330
17
100
AcDbEntity
  8
OUTLINE
100
AcDbLine
 10
470.0
 20
332.0
 30
0.0
 11
468.0385226068039
 21
331.93218134212884
 31
0.0
  0
LINE
  5
365
330
17
100
AcDbEntity
  8
OUTLINE
100
AcDbLine
 10
468.0385226068039
 20
331.93218134212884
 30
0.0
 11
466.0891383739942
 21
331.72914349309303
 31
0.0
  0
LINE
  5
366
330
17
100
AcDbEntity
  8
OUTLINE
100
AcDbLine
 10
466.0891383739942
 20
331.72914349309303
 30
0.0
 11
464.16386590360236
 21
331.3921382487489
 31
0.0
  0
LINE
  5
367
330
17
100
AcDbEntity
  8
OUTLINE
100
AcDbLine
 10
464.16386590360236
 20
331.3921382487489
 30
0.0
 11
462.2745751406263
 21
330.9232433584934
 31
0.0
  0
LINE
  5
368
330
17
100
AcDbEntity
  8
OUTLINE
100
AcDbLine
 10
462.2745751406263
 20
330.9232433584934
 30
0.0
 11
460.43291419087274
 21
330.3253497152483
 31
0.0
  0
LINE
  5
369
330
17
100
AcDbEntity
  8
OUTLINE
100
AcDbLine
 10
460.43291419087274
 20
330.3253497152483
 30
0.0
 11
458.6502375065113
 21
329.6021435321441
 31
0.0
  0
LINE
  5
36A
330
17
100
AcDbEntity
  8
OUTLINE
100
AcDbLine
 10
458.6502375065113
 20
329.6021435321441
 30
0.0
 11
456.93753588210126
 21
328.75808361579004
 31
0.0
  0
LINE
  5
36B
330
17
100
AcDbEntity
  8
OUTLINE
100
AcDbLine
 10
456.93753588210126
 20
328.75808361579004
 30
0.0
 11
455.30536869268815
 21
327.79837387624883
 31
0.0
  0
LINE
  5
36C
330
17
100
AcDbEntity
  8
OUTLINE
100
AcDbLine
 10
455.30536869268815
 20
327.79837387624883
 30
0.0
 11
453.7637987917454
 21
326.7289312432007
 31
0.0
  0
LINE
  5
36D
330
17
100
AcDbEntity
  8
OUTLINE
100
AcDbLine
 10
453.7637987917454
 20
326.7289312432007
 30
0.0
 11
452.32233047033634
 21
325.55634918610406
 31
0.0
  0
LINE
  5
36E
330
17
100
AcDbEntity
  8
OUTLINE
100
AcDbLine
 10
452.32233047033634
 20
325.55634918610406
 30
0.0
 11
450.98985085999925
 21
324.287857063264
 31
0.0
  0
LINE
  5
36F
330
17
100
AcDbEntity
  8
OUTLINE
100
AcDbLine
 10
450.98985085999925
 20
324.287857063264
 30
0.0
 11
449.7745751406263
 21
322.9312755504344
 31
0.0
  0
LINE
  5
370
330
17
100
AcDbEntity
  8
OUTLINE
100
AcDbLine
 10
449.7745751406263
 20
322.9312755504344
 30
0.0
 11
448.6839958911477
 21
321.4949684237509
 31
0.0
  0
LINE
  5
371
330
17
100
AcDbEntity
  8
OUTLINE
100
AcDbLine
 10
448.6839958911477
 20
321.4949684237509
 30
0.0
 11
447.7248368952908
 21
319.98779099427003
 31
0.0
  0
LINE
  5
372
330
17
100
AcDbEntity
  8
OUTLINE
100
AcDbLine
 10
447.7248368952908
 20
319.98779099427003
 30
0.0
 11
446.9030116872178
 21
318.419035512032
 31
0.0
  0
LINE
  5
373
330
17
100
AcDbEntity
  8
OUTLINE
100
AcDbLine
 10
446.9030116872178
 20
318.419035512032
 30
0.0
 11
446.2235870926212
 21
316.79837387624883
 31
0.0
  0
LINE
  5
374
330
17
100
AcDbEntity
  8
OUTLINE
100
AcDbLine
 10
446.2235870926212
 20
316.79837387624883
 30
0.0
 11
445.69075199005806
 21
315.1357980048299
 31
0.0
  0
LINE
  5
375
330
17
100
AcDbEntity
  8
OUTLINE
100
AcDbLine
 10
445.69075199005806
 20
315.1357980048299
 30
0.0
 11
445.3077914851216
 21
313.4415582308851
 31
0.0
  0
LINE
  5
376
330
17
100
AcDbEntity
  8
OUTLINE
100
AcDbLine
 10
445.3077914851216
 20
313.4415582308851
 30
0.0
 11
445.0770666566718
 21
311.7261001060126
 31
0.0
  0
LINE
  5
377
330
17
100
AcDbEntity
  8
OUTLINE
100
AcDbLine
 10
445.0770666566718
 20
311.7261001060126
 30
0.0
 11
445.0
 21
310.0
 31
0.0
  0
LINE
  5
378
330
17
100
AcDbEntity
  8
OUTLINE
100
AcDbLine
 10
445.0
 20
310.0
 30
0.0
 11
445.0770666566718
 21
308.27389989398745
 31
0.0
  0
LINE
  5
379
330
17
100
AcDbEntity
  8
OUTLINE
100
AcDbLine
 10
445.0770666566718
 20
308.27389989398745
 30
0.0
 11
445.3077914851216
 21
306.55844176911495
 31
0.0
  0
LINE
  5
37A
330
17
100
AcDbEntity
  8
OUTLINE
100
AcDbLine
 10
445.3077914851216
 20
306.55844176911495
 30
0.0
 11
445.69075199005806
 21
304.8642019951701
 31
0.0
  0
LINE
  5
37B
330
17
100
AcDbEntity
  8
OUTLINE
100
AcDbLine
 10
445.69075199005806
 20
304.8642019951701
 30
0.0
 11
446.22358709262113
 21
303.20162612375117
 31
0.0
  0
LINE
  5
37C
330
17
100
AcDbEntity
  8
OUTLINE
100
AcDbLine
 10
446.22358709262113
 20
303.20162612375117
 30
0.0
 11
446.9030116872178
 21
301.580964487968
 31
0.0
  0
LINE
  5
37D
330
17
100
AcDbEntity
  8
OUTLINE
100
AcDbLine
 10
446.9030116872178
 20
301.580964487968
 30
0.0
 11
447.7248368952908
 21
300.01220900572997
 31
0.0
  0
LINE
  5
37E
330
17
100
AcDbEntity
  8
OUTLINE
100
AcDbLine
 10
447.7248368952908
 20
300.01220900572997
 30
0.0
 11
448.6839958911477
 21
298.5050315762491
 31
0.0
  0
LINE
  5
37F
330
17
100
AcDbEntity
  8
OUTLINE
100
AcDbLine
 10
448.6839958911477
 20
298.5050315762491
 30
0.0
 11
449.7745751406263
 21
297.0687244495656
 31
0.0
  0
LINE
  5
380
330
17
100
AcDbEntity
  8
OUTLINE
100
AcDbLine
 10
449.7745751406263
 20
297.0687244495656
 30
0.0
 11
450.9898508599992
 21
295.712142936736
 31
0.0
  0
LINE
  5
381
330
17
100
AcDbEntity
  8
OUTLINE
100
AcDbLine
 10
450.9898508599992
 20
295.712142936736
 30
0.0
 11
452.3223304703363
 21
294.44365081389594
 31
0.0
  0
LINE
  5
382
330
17
100
AcDbEntity
  8
OUTLINE
100
AcDbLine
 10
452.3223304703363
 20
294.44365081389594
 30
0.0
 11
453.7637987917454
 21
293.2710687567993
 31
0.0
  0
LINE
  5
383
330
17
100
AcDbEntity
  8
OUTLINE
100
AcDbLine
 10
453.7637987917454
 20
293.2710687567993
 30
0.0
 11
455.30536869268815
 21
292.20162612375117
 31
0.0
  0
LINE
  5
384
330
17
100
AcDbEntity
  8
OUTLINE
100
AcDbLine
 10
455.30536869268815
 20
292.20162612375117
 30
0.0
 11
456.93753588210126
 21
291.24191638420996
 31
0.0
  0
LINE
  5
385
330
17
100
AcDbEntity
  8
OUTLINE
100
AcDbLine
 10
456.93753588210126
 20
291.24191638420996
 30
0.0
 11
458.6502375065113
 21
290.3978564678559
 31
0.0
  0
LINE
  5
386
330
17
100
AcDbEntity
  8
OUTLINE
100
AcDbLine
 10
458.6502375065113
 20
290.3978564678559
 30
0.0
 11
460.43291419087274
 21
289.6746502847517
 31
0.0
  0
LINE
  5
387
330
17
100
AcDbEntity
  8
OUTLINE
100
AcDbLine
 10
460.43291419087274
 20
289.6746502847517
 30
0.0
 11
462.2745751406263
 21
289.0767566415066
 31
0.0
  0
LINE
  5
388
330
17
100
AcDbEntity
  8
OUTLINE
100
AcDbLine
 10
462.2745751406263
 20
289.0767566415066
 30
0.0
 11
464.16386590360236
 21
288.6078617512511
 31
0.0
  0
LINE
  5
389
330
17
100
AcDbEntity
  8
OUTLINE
100
AcDbLine
 10
464.16386590360236
 20
288.6078617512511
 30
0.0
 11
466.0891383739942
 21
288.27085650690697
 31
0.0
  0
LINE
  5
38A
330
17
100
AcDbEntity
  8
OUTLINE
100
AcDbLine
 10
466.0891383739942
 20
288.27085650690697
 30
0.0
 11
468.03852260680384
 21
288.06781865787116
 31
0.0
  0
LINE
  5
38B
330
17
100
AcDbEntity
  8
OUTLINE
100
AcDbLine
 10
468.03852260680384
 20
288.06781865787116
 30
0.0
 11
470.0
 21
288.0
 31
0.0
  0
LINE
  5
38C
330
17
100
AcDbEntity
  8
OUTLINE
100
AcDbLine
 10
470.0
 20
288.0
 30
0.0
 11
471.9614773931961
 21
288.06781865787116
 31
0.0
  0
LINE
  5
38D
330
17
100
AcDbEntity
  8
OUTLINE
100
AcDbLine
 10
471.9614773931961
 20
288.06781865787116
 30
0.0
 11
473.9108616260058
 21
288.27085650690697
 31
0.0
  0
LINE
  5
38E
330
17
100
AcDbEntity
  8
OUTLINE
100
AcDbLine
 10
473.9108616260058
 20
288.27085650690697
 30
0.0
 11
475.83613409639764
 21
288.6078617512511
 31
0.0
  0
LINE
  5
38F
330
17
100
AcDbEntity
  8
OUTLINE
100
AcDbLine
 10
475.83613409639764
 20
288.6078617512511
 30
0.0
 11
477.7254248593737
 21
289.0767566415066
 31
0.0
  0
LINE
  5
390
330
17
100
AcDbEntity
  8
OUTLINE
100
AcDbLine
 10
477.7254248593737
 20
289.0767566415066
 30
0.0
 11
479.5670858091272
 21
289.6746502847517
 31
0.0
  0
LINE
  5
391
330
17
100
AcDbEntity
  8
OUTLINE
100
AcDbLine
 10
479.5670858091272
 20
289.6746502847517
 30
0.0
 11
481.34976249348864
 21
290.3978564678559
 31
0.0
  0
LINE
  5
392
330
17
100
AcDbEntity
  8
OUTLINE
100
AcDbLine
 10
481.34976249348864
 20
290.3978564678559
 30
0.0
 11
483.0624641178987
 21
291.24191638420996
 31
0.0
  0
LINE
  5
393
330
17
100
AcDbEntity
  8
OUTLINE
100
AcDbLine
 10
483.0624641178987
 20
291.24191638420996
 30
0.0
 11
484.69463130731185
 21
292.20162612375117
 31
0.0
  0
LINE
  5
394
330
17
100
AcDbEntity
  8
OUTLINE
100
AcDbLine
 10
484.69463130731185
 20
292.20162612375117
 30
0.0
 11
486.2362012082546
 21
293.2710687567993
 31
0.0
  0
LINE
  5
395
330
17
100
AcDbEntity
  8
OUTLINE
100
AcDbLine
 10
486.2362012082546
 20
293.2710687567993
 30
0.0
 11
487.67766952966366
 21
294.44365081389594
 31
0.0
  0
LINE
  5
396
330
17
100
AcDbEntity
  8
OUTLINE
100
AcDbLine
 10
487.67766952966366
 20
294.44365081389594
 30
0.0
 11
489.01014914000075
 21
295.712142936736
 31
0.0
  0
LINE
  5
397
330
17
100
AcDbEntity
  8
OUTLINE
100
AcDbLine
 10
489.01014914000075
 20
295.712142936736
 30
0.0
 11
490.2254248593737
 21
297.0687244495656
 31
0.0
  0
LINE
  5
398
330
17
100
AcDbEntity
  8
OUTLINE
100
AcDbLine
 10
490.2254248593737
 20
297.0687244495656
 30
0.0
 11
491.3160041088523
 21
298.5050315762491
 31
0.0
  0
LINE
  5
399
330
17
100
AcDbEntity
  8
OUTLINE
100
AcDbLine
 10
491.3160041088523
 20
298.5050315762491
 30
0.0
 11
492.2751631047092
 21
300.01220900572997
 31
0.0
  0
LINE
  5
39A
330
17
100
AcDbEntity
  8
OUTLINE
100
AcDbLine
 10
492.2751631047092
 20
300.01220900572997
 30
0.0
 11
493.0969883127822
 21
301.580964487968
 31
0.0
  0
LINE
  5
39B
330
17
100
AcDbEntity
  8
OUTLINE
100
AcDbLine
 10
493.0969883127822
 20
301.580964487968
 30
0.0
 11
493.7764129073788
 21
303.20162612375117
 31
0.0
  0
LINE
  5
39C
330
17
100
AcDbEntity
  8
OUTLINE
100
AcDbLine
 10
493.7764129073788
 20
303.20162612375117
 30
0.0
 11
494.30924800994194
 21
304.8642019951701
 31
0.0
  0
LINE
  5
39D
330
17
100
AcDbEntity
  8
OUTLINE
100
AcDbLine
 10
494.30924800994194
 20
304.8642019951701
 30
0.0
 11
494.6922085148784
 21
306.5584417691149
 31
0.0
  0
LINE
  5
39E
330
17
100
AcDbEntity
  8
OUTLINE
100
AcDbLine
 10
494.6922085148784
 20
306.5584417691149
 30
0.0
 11
494.9229333433282
 21
308.2738998939874
 31
0.0
  0
LINE
  5
39F
330
17
100
AcDbEntity
  8
OUTLINE
100
AcDbLine
 10
494.9229333433282
 20
308.2738998939874
 30
0.0
 11
495.0
 21
310.0
 31
0.0
  0
LINE
  5
3A0
330
17
100
AcDbEntity
  8
WALL
100
AcDbLine
 10
494.4
 20
310.0
 30
0.0
 11
494.32478294308834
 21
311.6790246485759
 31
0.0
  0
LINE
  5
3A1
330
17
100
AcDbEntity
  8
WALL
100
AcDbLine
 10
494.32478294308834
 20
311.6790246485759
 30
0.0
 11
494.09959551052134
 21
313.34769755186096
 31
0.0
  0
LINE
  5
3A2
330
17
100
AcDbEntity
  8
WALL
100
AcDbLine
 10
494.09959551052134
 20
313.34769755186096
 30
0.0
 11
493.72582605770333
 21
314.9957307865164
 31
0.0
  0
LINE
  5
3A3
330
17
100
AcDbEntity
  8
WALL
100
AcDbLine
 10
493.72582605770333
 20
314.9957307865164
 30
0.0
 11
493.2057789976017
 21
316.6129636796239
 31
0.0
  0
LINE
  5
3A4
330
17
100
AcDbEntity
  8
WALL
100
AcDbLine
 10
493.2057789976017
 20
316.6129636796239
 30
0.0
 11
492.5426605932754
 21
318.1894254526129
 31
0.0
  0
LINE
  5
3A5
330
17
100
AcDbEntity
  8
WALL
100
AcDbLine
 10
492.5426605932754
 20
318.1894254526129
 30
0.0
 11
491.74055919019617
 21
319.7153966944263
 31
0.0
  0
LINE
  5
3A6
330
17
100
AcDbEntity
  8
WALL
100
AcDbLine
 10
491.74055919019617
 20
319.7153966944263
 30
0.0
 11
490.8044200102398
 21
321.1814692849213
 31
0.0
  0
LINE
  5
3A7
330
17
100
AcDbEntity
  8
WALL
100
AcDbLine
 10
490.8044200102398
 20
321.1814692849213
 30
0.0
 11
489.7400146627487
 21
322.5786043990589
 31
0.0
  0
LINE
  5
3A8
330
17
100
AcDbEntity
  8
WALL
100
AcDbLine
 10
489.7400146627487
 20
322.5786043990589
 30
0.0
 11
488.55390556064077
 21
323.89818823426594
 31
0.0
  0
LINE
  5
3A9
330
17
100
AcDbEntity
  8
WALL
100
AcDbLine
 10
488.55390556064077
 20
323.89818823426594
 30
0.0
 11
487.25340546095174
 21
325.13208511739214
 31
0.0
  0
LINE
  5
3AA
330
17
100
AcDbEntity
  8
WALL
100
AcDbLine
 10
487.25340546095174
 20
325.13208511739214
 30
0.0
 11
485.8465323792565
 21
326.27268766384066
 31
0.0
  0
LINE
  5
3AB
330
17
100
AcDbEntity
  8
WALL
100
AcDbLine
 10
485.8465323792565
 20
326.27268766384066
 30
0.0
 11
484.34196015593636
 21
327.31296367962386
 31
0.0
  0
LINE
  5
3AC
330
17
100
AcDbEntity
  8
WALL
100
AcDbLine
 10
484.34196015593636
 20
327.31296367962386
 30
0.0
 11
482.74896497906917
 21
328.2464995171776
 31
0.0
  0
LINE
  5
3AD
330
17
100
AcDbEntity
  8
WALL
100
AcDbLine
 10
482.74896497906917
 20
328.2464995171776
 30
0.0
 11
481.07736819364493
 21
329.06753961763104
 31
0.0
  0
LINE
  5
3AE
330
17
100
AcDbEntity
  8
WALL
100
AcDbLine
 10
481.07736819364493
 20
329.06753961763104
 30
0.0
 11
479.3374757497082
 21
329.77102199574153
 31
0.0
  0
LINE
  5
3AF
330
17
100
AcDbEntity
  8
WALL
100
AcDbLine
 10
479.3374757497082
 20
329.77102199574153
 30
0.0
 11
477.5400146627487
 21
330.3526094487163
 31
0.0
  0
LINE
  5
3B0
330
17
100
AcDbEntity
  8
WALL
100
AcDbLine
 10
477.5400146627487
 20
330.3526094487163
 30
0.0
 11
475.6960668780841
 21
330.8087162965103
 31
0.0
  0
LINE
  5
3B1
330
17
100
AcDbEntity
  8
WALL
100
AcDbLine
 10
475.6960668780841
 20
330.8087162965103
 30
0.0
 11
473.81700094698164
 21
331.13653048873596
 31
0.0
  0
LINE
  5
3B2
330
17
100
AcDbEntity
  8
WALL
100
AcDbLine
 10
473.81700094698164
 20
331.13653048873596
 30
0.0
 11
471.91440193575943
 21
331.33403094188895
 31
0.0
  0
LINE
  5
3B3
330
17
100
AcDbEntity
  8
WALL
100
AcDbLine
 10
471.91440193575943
 20
331.33403094188895
 30
0.0
 11
470.0
 21
331.4
 31
0.0
  0
LINE
  5
3B4
330
17
100
AcDbEntity
  8
WALL
100
AcDbLine
 10
470.0
 20
331.4
 30
0.0
 11
468.08559806424057
 21
331.33403094188895
 31
0.0
  0
LINE
  5
3B5
330
17
100
AcDbEntity
  8
WALL
100
AcDbLine
 10
468.08559806424057
 20
331.33403094188895
 30
0.0
 11
466.18299905301836
 21
331.13653048873596
 31
0.0
  0
LINE
  5
3B6
330
17
100
AcDbEntity
  8
WALL
100
AcDbLine
 10
466.18299905301836
 20
331.13653048873596
 30
0.0
 11
464.3039331219159
 21
330.8087162965103
 31
0.0
  0
LINE
  5
3B7
330
17
100
AcDbEntity
  8
WALL
100
AcDbLine
 10
464.3039331219159
 20
330.8087162965103
 30
0.0
 11
462.4599853372513
 21
330.3526094487163
 31
0.0
  0
LINE
  5
3B8
330
17
100
AcDbEntity
  8
WALL
100
AcDbLine
 10
462.4599853372513
 20
330.3526094487163
 30
0.0
 11
460.6625242502918
 21
329.77102199574153
 31
0.0
  0
LINE
  5
3B9
330
17
100
AcDbEntity
  8
WALL
100
AcDbLine
 10
460.6625242502918
 20
329.77102199574153
 30
0.0
 11
458.92263180635507
 21
329.0675396176311
 31
0.0
  0
LINE
  5
3BA
330
17
100
AcDbEntity
  8
WALL
100
AcDbLine
 10
458.92263180635507
 20
329.0675396176311
 30
0.0
 11
457.25103502093083
 21
328.2464995171776
 31
0.0
  0
LINE
  5
3BB
330
17
100
AcDbEntity
  8
WALL
100
AcDbLine
 10
457.25103502093083
 20
328.2464995171776
 30
0.0
 11
455.65803984406364
 21
327.31296367962386
 31
0.0
  0
LINE
  5
3BC
330
17
100
AcDbEntity
  8
WALL
100
AcDbLine
 10
455.65803984406364
 20
327.31296367962386
 30
0.0
 11
454.1534676207435
 21
326.27268766384066
 31
0.0
  0
LINE
  5
3BD
330
17
100
AcDbEntity
  8
WALL
100
AcDbLine
 10
454.1534676207435
 20
326.27268766384066
 30
0.0
 11
452.74659453904826
 21
325.13208511739214
 31
0.0
  0
LINE
  5
3BE
330
17
100
AcDbEntity
  8
WALL
100
AcDbLine
 10
452.74659453904826
 20
325.13208511739214
 30
0.0
 11
451.44609443935923
 21
323.89818823426594
 31
0.0
  0
LINE
  5
3BF
330
17
100
AcDbEntity
  8
WALL
100
AcDbLine
 10
451.44609443935923
 20
323.89818823426594
 30
0.0
 11
450.2599853372513
 21
322.5786043990589
 31
0.0
  0
LINE
  5
3C0
330
17
100
AcDbEntity
  8
WALL
100
AcDbLine
 10
450.2599853372513
 20
322.5786043990589
 30
0.0
 11
449.1955799897602
 21
321.1814692849213
 31
0.0
  0
LINE
  5
3C1
330
17
100
AcDbEntity
  8
WALL
100
AcDbLine
 10
449.1955799897602
 20
321.1814692849213
 30
0.0
 11
448.25944080980383
 21
319.7153966944263
 31
0.0
  0
LINE
  5
3C2
330
17
100
AcDbEntity
  8
WALL
100
AcDbLine
 10
448.25944080980383
 20
319.7153966944263
 30
0.0
 11
447.4573394067246
 21
318.1894254526129
 31
0.0
  0
LINE
  5
3C3
330
17
100
AcDbEntity
  8
WALL
100
AcDbLine
 10
447.4573394067246
 20
318.1894254526129
 30
0.0
 11
446.7942210023983
 21
316.6129636796239
 31
0.0
  0
LINE
  5
3C4
330
17
100
AcDbEntity
  8
WALL
100
AcDbLine
 10
446.7942210023983
 20
316.6129636796239
 30
0.0
 11
446.27417394229667
 21
314.9957307865164
 31
0.0
  0
LINE
  5
3C5
330
17
100
AcDbEntity
  8
WALL
100
AcDbLine
 10
446.27417394229667
 20
314.9957307865164
 30
0.0
 11
445.90040448947866
 21
313.34769755186096
 31
0.0
  0
LINE
  5
3C6
330
17
100
AcDbEntity
  8
WALL
100
AcDbLine
 10
445.90040448947866
 20
313.34769755186096
 30
0.0
 11
445.67521705691166
 21
311.6790246485759
 31
0.0
  0
LINE
  5
3C7
330
17
100
AcDbEntity
  8
WALL
100
AcDbLine
 10
445.67521705691166
 20
311.6790246485759
 30
0.0
 11
445.6
 21
310.0
 31
0.0
  0
LINE
  5
3C8
330
17
100
AcDbEntity
  8
WALL
100
AcDbLine
 10
445.6
 20
310.0
 30
0.0
 11
445.67521705691166
 21
308.3209753514241
 31
0.0
  0
LINE
  5
3C9
330
17
100
AcDbEntity
  8
WALL
100
AcDbLine
 10
445.67521705691166
 20
308.3209753514241
 30
0.0
 11
445.90040448947866
 21
306.65230244813904
 31
0.0
  0
LINE
  5
3CA
330
17
100
AcDbEntity
  8
WALL
100
AcDbLine
 10
445.90040448947866
 20
306.65230244813904
 30
0.0
 11
446.27417394229667
 21
305.0042692134836
 31
0.0
  0
LINE
  5
3CB
330
17
100
AcDbEntity
  8
WALL
100
AcDbLine
 10
446.27417394229667
 20
305.0042692134836
 30
0.0
 11
446.7942210023983
 21
303.3870363203761
 31
0.0
  0
LINE
  5
3CC
330
17
100
AcDbEntity
  8
WALL
100
AcDbLine
 10
446.7942210023983
 20
303.3870363203761
 30
0.0
 11
447.4573394067246
 21
301.8105745473871
 31
0.0
  0
LINE
  5
3CD
330
17
100
AcDbEntity
  8
WALL
100
AcDbLine
 10
447.4573394067246
 20
301.8105745473871
 30
0.0
 11
448.25944080980383
 21
300.2846033055737
 31
0.0
  0
LINE
  5
3CE
330
17
100
AcDbEntity
  8
WALL
100
AcDbLine
 10
448.25944080980383
 20
300.2846033055737
 30
0.0
 11
449.1955799897602
 21
298.8185307150787
 31
0.0
  0
LINE
  5
3CF
330
17
100
AcDbEntity
  8
WALL
100
AcDbLine
 10
449.1955799897602
 20
298.8185307150787
 30
0.0
 11
450.2599853372513
 21
297.4213956009411
 31
0.0
  0
LINE
  5
3D0
330
17
100
AcDbEntity
  8
WALL
100
AcDbLine
 10
450.2599853372513
 20
297.4213956009411
 30
0.0
 11
451.44609443935923
 21
296.10181176573406
 31
0.0
  0
LINE
  5
3D1
330
17
100
AcDbEntity
  8
WALL
100
AcDbLine
 10
451.44609443935923
 20
296.10181176573406
 30
0.0
 11
452.74659453904826
 21
294.86791488260786
 31
0.0
  0
LINE
  5
3D2
330
17
100
AcDbEntity
  8
WALL
100
AcDbLine
 10
452.74659453904826
 20
294.86791488260786
 30
0.0
 11
454.1534676207435
 21
293.72731233615934
 31
0.0
  0
LINE
  5
3D3
330
17
100
AcDbEntity
  8
WALL
100
AcDbLine
 10
454.1534676207435
 20
293.72731233615934
 30
0.0
 11
455.65803984406364
 21
292.68703632037614
 31
0.0
  0
LINE
  5
3D4
330
17
100
AcDbEntity
  8
WALL
100
AcDbLine
 10
455.65803984406364
 20
292.68703632037614
 30
0.0
 11
457.25103502093083
 21
291.7535004828224
 31
0.0
  0
LINE
  5
3D5
330
17
100
AcDbEntity
  8
WALL
100
AcDbLine
 10
457.25103502093083
 20
291.7535004828224
 30
0.0
 11
458.92263180635507
 21
290.93246038236896
 31
0.0
  0
LINE
  5
3D6
330
17
100
AcDbEntity
  8
WALL
100
AcDbLine
 10
458.92263180635507
 20
290.93246038236896
 30
0.0
 11
460.6625242502918
 21
290.22897800425847
 31
0.0
  0
LINE
  5
3D7
330
17
100
AcDbEntity
  8
WALL
100
AcDbLine
 10
460.6625242502918
 20
290.22897800425847
 30
0.0
 11
462.4599853372513
 21
289.6473905512837
 31
0.0
  0
LINE
  5
3D8
330
17
100
AcDbEntity
  8
WALL
100
AcDbLine
 10
462.4599853372513
 20
289.6473905512837
 30
0.0
 11
464.3039331219159
 21
289.1912837034897
 31
0.0
  0
LINE
  5
3D9
330
17
100
AcDbEntity
  8
WALL
100
AcDbLine
 10
464.3039331219159
 20
289.1912837034897
 30
0.0
 11
466.18299905301836
 21
288.86346951126404
 31
0.0
  0
LINE
  5
3DA
330
17
100
AcDbEntity
  8
WALL
100
AcDbLine
 10
466.18299905301836
 20
288.86346951126404
 30
0.0
 11
468.08559806424057
 21
288.66596905811105
 31
0.0
  0
LINE
  5
3DB
330
17
100
AcDbEntity
  8
WALL
100
AcDbLine
 10
468.08559806424057
 20
288.66596905811105
 30
0.0
 11
470.0
 21
288.6
 31
0.0
  0
LINE
  5
3DC
330
17
100
AcDbEntity
  8
WALL
100
AcDbLine
 10
470.0
 20
288.6
 30
0.0
 11
471.91440193575943
 21
288.66596905811105
 31
0.0
  0
LINE
  5
3DD
330
17
100
AcDbEntity
  8
WALL
100
AcDbLine
 10
471.91440193575943
 20
288.66596905811105
 30
0.0
 11
473.81700094698164
 21
288.86346951126404
 31
0.0
  0
LINE
  5
3DE
330
17
100
AcDbEntity
  8
WALL
100
AcDbLine
 10
473.81700094698164
 20
288.86346951126404
 30
0.0
 11
475.6960668780841
 21
289.1912837034897
 31
0.0
  0
LINE
  5
3DF
330
17
100
AcDbEntity
  8
WALL
100
AcDbLine
 10
475.6960668780841
 20
289.1912837034897
 30
0.0
 11
477.5400146627487
 21
289.6473905512837
 31
0.0
  0
LINE
  5
3E0
330
17
100
AcDbEntity
  8
WALL
100
AcDbLine
 10
477.5400146627487
 20
289.6473905512837
 30
0.0
 11
479.3374757497082
 21
290.22897800425847
 31
0.0
  0
LINE
  5
3E1
330
17
100
AcDbEntity
  8
WALL
100
AcDbLine
 10
479.3374757497082
 20
290.22897800425847
 30
0.0
 11
481.07736819364493
 21
290.9324603823689
 31
0.0
  0
LINE
  5
3E2
330
17
100
AcDbEntity
  8
WALL
100
AcDbLine
 10
481.07736819364493
 20
290.9324603823689
 30
0.0
 11
482.7489649790691
 21
291.7535004828224
 31
0.0
  0
LINE
  5
3E3
330
17
100
AcDbEntity
  8
WALL
100
AcDbLine
 10
482.7489649790691
 20
291.7535004828224
 30
0.0
 11
484.34196015593636
 21
292.68703632037614
 31
0.0
  0
LINE
  5
3E4
330
17
100
AcDbEntity
  8
WALL
100
AcDbLine
 10
484.34196015593636
 20
292.68703632037614
 30
0.0
 11
485.8465323792565
 21
293.72731233615934
 31
0.0
  0
LINE
  5
3E5
330
17
100
AcDbEntity
  8
WALL
100
AcDbLine
 10
485.8465323792565
 20
293.72731233615934
 30
0.0
 11
487.25340546095174
 21
294.86791488260786
 31
0.0
  0
LINE
  5
3E6
330
17
100
AcDbEntity
  8
WALL
100
AcDbLine
 10
487.25340546095174
 20
294.86791488260786
 30
0.0
 11
488.55390556064077
 21
296.10181176573406
 31
0.0
  0
LINE
  5
3E7
330
17
100
AcDbEntity
  8
WALL
100
AcDbLine
 10
488.55390556064077
 20
296.10181176573406
 30
0.0
 11
489.7400146627487
 21
297.4213956009411
 31
0.0
  0
LINE
  5
3E8
330
17
100
AcDbEntity
  8
WALL
100
AcDbLine
 10
489.7400146627487
 20
297.4213956009411
 30
0.0
 11
490.8044200102398
 21
298.8185307150787
 31
0.0
  0
LINE
  5
3E9
330
17
100
AcDbEntity
  8
WALL
100
AcDbLine
 10
490.8044200102398
 20
298.8185307150787
 30
0.0
 11
491.74055919019617
 21
300.2846033055737
 31
0.0
  0
LINE
  5
3EA
330
17
100
AcDbEntity
  8
WALL
100
AcDbLine
 10
491.74055919019617
 20
300.2846033055737
 30
0.0
 11
492.5426605932754
 21
301.8105745473871
 31
0.0
  0
LINE
  5
3EB
330
17
100
AcDbEntity
  8
WALL
100
AcDbLine
 10
492.5426605932754
 20
301.8105745473871
 30
0.0
 11
493.2057789976017
 21
303.3870363203761
 31
0.0
  0
LINE
  5
3EC
330
17
100
AcDbEntity
  8
WALL
100
AcDbLine
 10
493.2057789976017
 20
303.3870363203761
 30
0.0
 11
493.72582605770333
 21
305.0042692134836
 31
0.0
  0
LINE
  5
3ED
330
17
100
AcDbEntity
  8
WALL
100
AcDbLine
 10
493.72582605770333
 20
305.0042692134836
 30
0.0
 11
494.09959551052134
 21
306.65230244813904
 31
0.0
  0
LINE
  5
3EE
330
17
100
AcDbEntity
  8
WALL
100
AcDbLine
 10
494.09959551052134
 20
306.65230244813904
 30
0.0
 11
494.32478294308834
 21
308.3209753514241
 31
0.0
  0
LINE
  5
3EF
330
17
100
AcDbEntity
  8
WALL
100
AcDbLine
 10
494.32478294308834
 20
308.3209753514241
 30
0.0
 11
494.4
 21
310.0
 31
0.0
  0
LINE
  5
3F0
330
17
100
AcDbEntity
  8
HIDDEN
100
AcDbLine
 10
451.0
 20
293.0
 30
0.0
 11
489.0
 21
293.0
 31
0.0
  0
LINE
  5
3F1
330
17
100
AcDbEntity
  8
HIDDEN
100
AcDbLine
 10
451.0
 20
321.0
 30
0.0
 11
489.0
 21
321.0
 31
0.0
  0
LINE
  5
3F2
330
17
100
AcDbEntity
  8
HIDDEN
100
AcDbLine
 10
451.0
 20
293.0
 30
0.0
 11
451.0
 21
321.0
 31
0.0
  0
LINE
  5
3F3
330
17
100
AcDbEntity
  8
HIDDEN
100
AcDbLine
 10
489.0
 20
293.0
 30
0.0
 11
489.0
 21
321.0
 31
0.0
  0
TEXT
  5
3F4
330
17
100
AcDbEntity
  8
TEXT
100
AcDbText
 10
464.0
 20
305.0
 30
0.0
 40
2.0
  1
BATT
 11
464.0
 21
305.0
 31
0.0
100
AcDbText
  0
LINE
  5
3F5
330
17
100
AcDbEntity
  8
CENTERLINE
100
AcDbLine
 10
440.0
 20
310.0
 30
0.0
 11
500.0
 21
310.0
 31
0.0
  0
LINE
  5
3F6
330
17
100
AcDbEntity
  8
CENTERLINE
100
AcDbLine
 10
470.0
 20
283.0
 30
0.0
 11
470.0
 21
337.0
 31
0.0
  0
CIRCLE
  5
3F7
330
17
100
AcDbEntity
  8
SPAR
100
AcDbCircle
 10
488.0
 20
326.0
 30
0.0
 40
1.25
  0
CIRCLE
  5
3F8
330
17
100
AcDbEntity
  8
SPAR
100
AcDbCircle
 10
452.0
 20
326.0
 30
0.0
 40
1.25
  0
CIRCLE
  5
3F9
330
17
100
AcDbEntity
  8
SPAR
100
AcDbCircle
 10
488.0
 20
294.0
 30
0.0
 40
1.25
  0
CIRCLE
  5
3FA
330
17
100
AcDbEntity
  8
SPAR
100
AcDbCircle
 10
452.0
 20
294.0
 30
0.0
 40
1.25
  0
LINE
  5
3FB
330
17
100
AcDbEntity
  8
HIDDEN
100
AcDbLine
 10
467.0
 20
307.0
 30
0.0
 11
467.0
 21
285.0
 31
0.0
  0
TEXT
  5
3FC
330
17
100
AcDbEntity
  8
TEXT
100
AcDbText
 10
455.0
 20
281.0
 30
0.0
 40
1.5
  1
HATCH
 11
455.0
 21
281.0
 31
0.0
100
AcDbText
  0
DIMENSION
  5
3FD
330
17
100
AcDbEntity
  8
0
100
AcDbDimension
280
0
  2
*D8
  3
AEROFORGE
 10
445.0
 20
276.0
 30
0.0
 11
470.0
 21
276.0
 31
0.0
 70
32
 71
5
  1
<>
100
AcDbAlignedDimension
 13
445.0
 23
280.0
 33
0.0
 14
495.0
 24
280.0
 34
0.0
 50
0.0
100
AcDbRotatedDimension
  0
DIMENSION
  5
40D
330
17
100
AcDbEntity
  8
0
100
AcDbDimension
280
0
  2
*D9
  3
AEROFORGE
 10
510.0
 20
288.0
 30
0.0
 11
510.0
 21
310.0
 31
0.0
 70
32
 71
5
  1
<>
100
AcDbAlignedDimension
 13
505.0
 23
288.0
 33
0.0
 14
505.0
 24
332.0
 34
0.0
 50
90.0
100
AcDbRotatedDimension
  0
TEXT
  5
41D
330
17
100
AcDbEntity
  8
TEXT
100
AcDbText
 10
25.0
 20
160.0
 30
0.0
 40
2.0
  1
NOTES:
 11
25.0
 21
160.0
 31
0.0
100
AcDbText
  0
TEXT
  5
41E
330
17
100
AcDbEntity
  8
TEXT
100
AcDbText
 10
25.0
 20
155.0
 30
0.0
 40
2.0
  1
1. All dims mm. Scale 1:1. S1 is the nose section X=0 to X=260mm.
 11
25.0
 21
155.0
 31
0.0
100
AcDbText
  0
TEXT
  5
41F
330
17
100
AcDbEntity
  8
TEXT
100
AcDbText
 10
25.0
 20
150.0
 30
0.0
 40
2.0
  1
2. Prints as LEFT/RIGHT halves split along vertical centerline (M2).
 11
25.0
 21
150.0
 31
0.0
100
AcDbText
  0
TEXT
  5
420
330
17
100
AcDbEntity
  8
TEXT
100
AcDbText
 10
25.0
 20
145.0
 30
0.0
 40
2.0
  1
   Each half: ~260mm L x 25mm W x 44mm H. Flat on bed.
 11
25.0
 21
145.0
 31
0.0
100
AcDbText
  0
TEXT
  5
421
330
17
100
AcDbEntity
  8
TEXT
100
AcDbText
 10
25.0
 20
140.0
 30
0.0
 40
2.0
  1
3. Shell: 0.6mm LW-PLA (X=90-260), PETG (X=30-90, motor thermal M3).
 11
25.0
 21
140.0
 31
0.0
100
AcDbText
  0
TEXT
  5
422
330
17
100
AcDbEntity
  8
TEXT
100
AcDbText
 10
25.0
 20
135.0
 30
0.0
 40
2.0
  1
4. Spinner tip (X=0-10mm) is a separate nose cone insert.
 11
25.0
 21
135.0
 31
0.0
100
AcDbText
  0
TEXT
  5
423
330
17
100
AcDbEntity
  8
TEXT
100
AcDbText
 10
25.0
 20
130.0
 30
0.0
 40
2.0
  1
5. Motor mount: CF-PETG ring, 35mm OD, 28mm bore, 4x M3 at 16mm PCD.
 11
25.0
 21
130.0
 31
0.0
100
AcDbText
  0
TEXT
  5
424
330
17
100
AcDbEntity
  8
TEXT
100
AcDbText
 10
25.0
 20
125.0
 30
0.0
 40
2.0
  1
6. Battery bay: 78x38x28mm, adjustable +/-25mm via M3 nylon threaded rod.
 11
25.0
 21
125.0
 31
0.0
100
AcDbText
  0
TEXT
  5
425
330
17
100
AcDbEntity
  8
TEXT
100
AcDbText
 10
25.0
 20
120.0
 30
0.0
 40
2.0
  1
7. Access hatch: LEFT side, X=80-210mm, 130x25mm, 3x neodymium magnets.
 11
25.0
 21
120.0
 31
0.0
100
AcDbText
  0
TEXT
  5
426
330
17
100
AcDbEntity
  8
TEXT
100
AcDbText
 10
25.0
 20
115.0
 30
0.0
 40
2.0
  1
8. 4x 2mm CF longerons pass through entire section. Spacing per table.
 11
25.0
 21
115.0
 31
0.0
100
AcDbText
  0
TEXT
  5
427
330
17
100
AcDbEntity
  8
TEXT
100
AcDbText
 10
25.0
 20
110.0
 30
0.0
 40
2.0
  1
9. Joint face at X=260: interlocking teeth 1.5mm depth, 3mm pitch (M4).
 11
25.0
 21
110.0
 31
0.0
100
AcDbText
  0
TEXT
  5
428
330
17
100
AcDbEntity
  8
TEXT
100
AcDbText
 10
25.0
 20
105.0
 30
0.0
 40
2.0
  1
10. 2x 2mm steel alignment dowels at joint face.
 11
25.0
 21
105.0
 31
0.0
100
AcDbText
  0
TEXT
  5
429
330
17
100
AcDbEntity
  8
TEXT
100
AcDbText
 10
25.0
 20
100.0
 30
0.0
 40
2.0
  1
11. ESC bay at X=70-120mm (45x25x12mm ESC fits in 34x31mm internal).
 11
25.0
 21
100.0
 31
0.0
100
AcDbText
  0
TEXT
  5
42A
330
17
100
AcDbEntity
  8
TEXT
100
AcDbText
 10
25.0
 20
95.0
 30
0.0
 40
2.0
  1
12. Receiver bay at X=190-230mm (52x35x15mm Rx in 42x36mm internal).
 11
25.0
 21
95.0
 31
0.0
100
AcDbText
  0
TEXT
  5
42B
330
17
100
AcDbEntity
  8
TEXT
100
AcDbText
 10
25.0
 20
90.0
 30
0.0
 40
2.5
  1
INTERNAL LAYOUT (X stations):
 11
25.0
 21
90.0
 31
0.0
100
AcDbText
  0
TEXT
  5
42C
330
17
100
AcDbEntity
  8
TEXT
100
AcDbText
 10
30.0
 20
84.0
 30
0.0
 40
1.8
  1
X=0-10: Spinner tip (ogive nose cone insert)
 11
30.0
 21
84.0
 31
0.0
100
AcDbText
  0
TEXT
  5
42D
330
17
100
AcDbEntity
  8
TEXT
100
AcDbText
 10
30.0
 20
79.5
 30
0.0
 40
1.8
  1
X=10-30: Spinner cone (32mm dia at base)
 11
30.0
 21
79.5
 31
0.0
100
AcDbText
  0
TEXT
  5
42E
330
17
100
AcDbEntity
  8
TEXT
100
AcDbText
 10
30.0
 20
75.0
 30
0.0
 40
1.8
  1
X=30-70: Motor bay (CF-PETG mount, PETG shell, 28mm motor)
 11
30.0
 21
75.0
 31
0.0
100
AcDbText
  0
TEXT
  5
42F
330
17
100
AcDbEntity
  8
TEXT
100
AcDbText
 10
30.0
 20
70.5
 30
0.0
 40
1.8
  1
X=70-90: ESC bay (transition PETG->LW-PLA at X=90)
 11
30.0
 21
70.5
 31
0.0
100
AcDbText
  0
TEXT
  5
430
330
17
100
AcDbEntity
  8
TEXT
100
AcDbText
 10
30.0
 20
66.0
 30
0.0
 40
1.8
  1
X=90-120: Battery forward zone (CG adjust range start)
 11
30.0
 21
66.0
 31
0.0
100
AcDbText
  0
TEXT
  5
431
330
17
100
AcDbEntity
  8
TEXT
100
AcDbText
 10
30.0
 20
61.5
 30
0.0
 40
1.8
  1
X=120-180: Battery main bay (MAX section 50x44mm at X=150)
 11
30.0
 21
61.5
 31
0.0
100
AcDbText
  0
TEXT
  5
432
330
17
100
AcDbEntity
  8
TEXT
100
AcDbText
 10
30.0
 20
57.0
 30
0.0
 40
1.8
  1
X=180-210: Receiver bay (52x35x15mm Turnigy 9X V2)
 11
30.0
 21
57.0
 31
0.0
100
AcDbText
  0
TEXT
  5
433
330
17
100
AcDbEntity
  8
TEXT
100
AcDbText
 10
30.0
 20
52.5
 30
0.0
 40
1.8
  1
X=210-250: Transition / wiring routing
 11
30.0
 21
52.5
 31
0.0
100
AcDbText
  0
TEXT
  5
434
330
17
100
AcDbEntity
  8
TEXT
100
AcDbText
 10
30.0
 20
48.0
 30
0.0
 40
1.8
  1
X=250-260: Joint face to S2 (interlocking teeth + dowels)
 11
30.0
 21
48.0
 31
0.0
100
AcDbText
  0
ENDSEC
  0
SECTION
  2
OBJECTS
  0
DICTIONARY
  5
A
330
0
100
AcDbDictionary
281
1
  3
ACAD_COLOR
350
B
  3
ACAD_GROUP
350
C
  3
ACAD_LAYOUT
350
D
  3
ACAD_MATERIAL
350
E
  3
ACAD_MLEADERSTYLE
350
F
  3
ACAD_MLINESTYLE
350
10
  3
ACAD_PLOTSETTINGS
350
11
  3
ACAD_PLOTSTYLENAME
350
12
  3
ACAD_SCALELIST
350
14
  3
ACAD_TABLESTYLE
350
15
  3
ACAD_VISUALSTYLE
350
16
  3
EZDXF_META
350
2D
  0
DICTIONARY
  5
B
330
A
100
AcDbDictionary
281
1
  0
DICTIONARY
  5
C
330
A
100
AcDbDictionary
281
1
  0
DICTIONARY
  5
D
330
A
100
AcDbDictionary
281
1
  3
Model
350
1A
  3
Layout1
350
1E
  0
DICTIONARY
  5
E
330
A
100
AcDbDictionary
281
1
  3
ByBlock
350
1F
  3
ByLayer
350
20
  3
Global
350
21
  0
DICTIONARY
  5
F
330
A
100
AcDbDictionary
281
1
  3
Standard
350
2C
  0
DICTIONARY
  5
10
330
A
100
AcDbDictionary
281
1
  3
Standard
350
22
  0
DICTIONARY
  5
11
330
A
100
AcDbDictionary
281
1
  0
ACDBDICTIONARYWDFLT
  5
12
330
A
100
AcDbDictionary
281
1
  3
Normal
350
13
100
AcDbDictionaryWithDefault
340
13
  0
ACDBPLACEHOLDER
  5
13
330
12
  0
DICTIONARY
  5
14
330
A
100
AcDbDictionary
281
1
  0
DICTIONARY
  5
15
330
A
100
AcDbDictionary
281
1
  0
DICTIONARY
  5
16
330
A
100
AcDbDictionary
281
1
  3
2dWireframe
350
5A
  3
Basic
350
5B
  3
Brighten
350
5C
  3
ColorChange
350
5D
  3
Conceptual
350
5E
  3
Dim
350
5F
  3
EdgeColorOff
350
60
  3
Facepattern
350
61
  3
Flat
350
62
  3
FlatWithEdges
350
63
  3
Gouraud
350
64
  3
GouraudWithEdges
350
65
  3
Hidden
350
66
  3
JitterOff
350
67
  3
Linepattern
350
68
  3
Modeling
350
69
  3
OverhangOff
350
6A
  3
Realistic
350
6B
  3
Shaded
350
6C
  3
Shaded with edges
350
6D
  3
Shades of Gray
350
6E
  3
Sketchy
350
6F
  3
Thicken
350
70
  3
Wireframe
350
71
  3
X-Ray
350
72
  0
LAYOUT
  5
1A
330
D
100
AcDbPlotSettings
  1

  4
A3
  6

 40
7.5
 41
20.0
 42
7.5
 43
20.0
 44
420.0
 45
297.0
 46
0.0
 47
0.0
 48
0.0
 49
0.0
140
0.0
141
0.0
142
1.0
143
1.0
 70
1024
 72
1
 73
0
 74
5
  7

 75
16
 76
0
 77
2
 78
300
147
1.0
148
0.0
149
0.0
100
AcDbLayout
  1
Model
 70
1
 71
0
 10
0.0
 20
0.0
 11
420.0
 21
297.0
 12
0.0
 22
0.0
 32
0.0
 14
1e+20
 24
1e+20
 34
1e+20
 15
-1e+20
 25
-1e+20
 35
-1e+20
146
0.0
 13
0.0
 23
0.0
 33
0.0
 16
1.0
 26
0.0
 36
0.0
 17
0.0
 27
1.0
 37
0.0
 76
1
330
17
  0
LAYOUT
  5
1E
330
D
100
AcDbPlotSettings
  1

  4
A3
  6

 40
7.5
 41
20.0
 42
7.5
 43
20.0
 44
420.0
 45
297.0
 46
0.0
 47
0.0
 48
0.0
 49
0.0
140
0.0
141
0.0
142
1.0
143
1.0
 70
0
 72
1
 73
0
 74
5
  7

 75
16
 76
0
 77
2
 78
300
147
1.0
148
0.0
149
0.0
100
AcDbLayout
  1
Layout1
 70
1
 71
1
 10
0.0
 20
0.0
 11
420.0
 21
297.0
 12
0.0
 22
0.0
 32
0.0
 14
1e+20
 24
1e+20
 34
1e+20
 15
-1e+20
 25
-1e+20
 35
-1e+20
146
0.0
 13
0.0
 23
0.0
 33
0.0
 16
1.0
 26
0.0
 36
0.0
 17
0.0
 27
1.0
 37
0.0
 76
1
330
1B
  0
MATERIAL
  5
1F
102
{ACAD_REACTORS
330
E
102
}
330
E
100
AcDbMaterial
  1
ByBlock
  2

 70
0
 40
1.0
 71
1
 41
1.0
 91
-1023410177
 42
1.0
 72
1
  3

 73
1
 74
1
 75
1
 44
0.5
 73
0
 45
1.0
 46
1.0
 77
1
  4

 78
1
 79
1
170
1
 48
1.0
171
1
  6

172
1
173
1
174
1
140
1.0
141
1.0
175
1
  7

176
1
177
1
178
1
143
1.0
179
1
  8

270
1
271
1
272
1
145
1.0
146
1.0
273
1
  9

274
1
275
1
276
1
 42
1.0
 72
1
  3

 73
1
 74
1
 75
1
 94
63
  0
MATERIAL
  5
20
102
{ACAD_REACTORS
330
E
102
}
330
E
100
AcDbMaterial
  1
ByLayer
  2

 70
0
 40
1.0
 71
1
 41
1.0
 91
-1023410177
 42
1.0
 72
1
  3

 73
1
 74
1
 75
1
 44
0.5
 73
0
 45
1.0
 46
1.0
 77
1
  4

 78
1
 79
1
170
1
 48
1.0
171
1
  6

172
1
173
1
174
1
140
1.0
141
1.0
175
1
  7

176
1
177
1
178
1
143
1.0
179
1
  8

270
1
271
1
272
1
145
1.0
146
1.0
273
1
  9

274
1
275
1
276
1
 42
1.0
 72
1
  3

 73
1
 74
1
 75
1
 94
63
  0
MATERIAL
  5
21
102
{ACAD_REACTORS
330
E
102
}
330
E
100
AcDbMaterial
  1
Global
  2

 70
0
 40
1.0
 71
1
 41
1.0
 91
-1023410177
 42
1.0
 72
1
  3

 73
1
 74
1
 75
1
 44
0.5
 73
0
 45
1.0
 46
1.0
 77
1
  4

 78
1
 79
1
170
1
 48
1.0
171
1
  6

172
1
173
1
174
1
140
1.0
141
1.0
175
1
  7

176
1
177
1
178
1
143
1.0
179
1
  8

270
1
271
1
272
1
145
1.0
146
1.0
273
1
  9

274
1
275
1
276
1
 42
1.0
 72
1
  3

 73
1
 74
1
 75
1
 94
63
  0
MLINESTYLE
  5
22
102
{ACAD_REACTORS
330
10
102
}
330
10
100
AcDbMlineStyle
  2
Standard
 70
0
  3

 62
256
 51
90.0
 52
90.0
 71
2
 49
0.5
 62
256
  6
BYLAYER
 49
-0.5
 62
256
  6
BYLAYER
  0
MLEADERSTYLE
  5
2C
102
{ACAD_REACTORS
330
F
102
}
330
F
100
AcDbMLeaderStyle
179
2
170
2
171
1
172
0
 90
2
 40
0.0
 41
0.0
173
1
 91
-1056964608
 92
-2
290
1
 42
2.0
291
1
 43
8.0
  3
Standard
 44
4.0
300

342
29
174
1
175
1
176
0
178
1
 93
-1056964608
 45
4.0
292
0
297
0
 46
4.0
 94
-1056964608
 47
1.0
 49
1.0
140
1.0
294
1
141
0.0
177
0
142
1.0
295
0
296
0
143
3.75
271
0
272
9
273
9
  0
DICTIONARY
  5
2D
330
A
100
AcDbDictionary
280
1
281
1
  3
CREATED_BY_EZDXF
350
2E
  3
WRITTEN_BY_EZDXF
350
437
  0
DICTIONARYVAR
  5
2E
330
2D
100
DictionaryVariables
280
0
  1
1.4.3 @ 2026-04-02T05:49:04.522913+00:00
  0
VISUALSTYLE
  5
5A
102
{ACAD_REACTORS
330
16
102
}
330
16
100
AcDbVisualStyle
  2
2dWireframe
 70
4
 90
0
 40
0.6
 62
7
290
0
291
0
  0
VISUALSTYLE
  5
5B
102
{ACAD_REACTORS
330
16
102
}
330
16
100
AcDbVisualStyle
  2
Basic
 70
7
 90
1
 40
0.6
 62
7
290
0
291
1
  0
VISUALSTYLE
  5
5C
102
{ACAD_REACTORS
330
16
102
}
330
16
100
AcDbVisualStyle
  2
Brighten
 70
12
 90
2
 40
0.6
 62
7
290
0
291
1
  0
VISUALSTYLE
  5
5D
102
{ACAD_REACTORS
330
16
102
}
330
16
100
AcDbVisualStyle
  2
ColorChange
 70
16
 90
2
 40
0.6
 62
8
290
0
291
1
  0
VISUALSTYLE
  5
5E
102
{ACAD_REACTORS
330
16
102
}
330
16
100
AcDbVisualStyle
  2
Conceptual
 70
9
 90
3
 40
0.6
 62
7
290
0
291
0
  0
VISUALSTYLE
  5
5F
102
{ACAD_REACTORS
330
16
102
}
330
16
100
AcDbVisualStyle
  2
Dim
 70
11
 90
2
 40
0.6
 62
7
290
0
291
1
  0
VISUALSTYLE
  5
60
102
{ACAD_REACTORS
330
16
102
}
330
16
100
AcDbVisualStyle
  2
EdgeColorOff
 70
22
 90
2
 40
0.6
 62
7
290
0
291
1
  0
VISUALSTYLE
  5
61
102
{ACAD_REACTORS
330
16
102
}
330
16
100
AcDbVisualStyle
  2
Facepattern
 70
15
 90
2
 40
0.6
 62
7
290
0
291
1
  0
VISUALSTYLE
  5
62
102
{ACAD_REACTORS
330
16
102
}
330
16
100
AcDbVisualStyle
  2
Flat
 70
0
 90
2
 40
0.6
 62
7
290
0
291
1
  0
VISUALSTYLE
  5
63
102
{ACAD_REACTORS
330
16
102
}
330
16
100
AcDbVisualStyle
  2
FlatWithEdges
 70
1
 90
2
 40
0.6
 62
7
290
0
291
1
  0
VISUALSTYLE
  5
64
102
{ACAD_REACTORS
330
16
102
}
330
16
100
AcDbVisualStyle
  2
Gouraud
 70
2
 90
2
 40
0.6
 62
7
290
0
291
1
  0
VISUALSTYLE
  5
65
102
{ACAD_REACTORS
330
16
102
}
330
16
100
AcDbVisualStyle
  2
GouraudWithEdges
 70
3
 90
2
 40
0.6
 62
7
290
0
291
1
  0
VISUALSTYLE
  5
66
102
{ACAD_REACTORS
330
16
102
}
330
16
100
AcDbVisualStyle
  2
Hidden
 70
6
 90
1
 40
0.6
 62
7
290
0
291
0
  0
VISUALSTYLE
  5
67
102
{ACAD_REACTORS
330
16
102
}
330
16
100
AcDbVisualStyle
  2
JitterOff
 70
20
 90
2
 40
0.6
 62
7
290
0
291
1
  0
VISUALSTYLE
  5
68
102
{ACAD_REACTORS
330
16
102
}
330
16
100
AcDbVisualStyle
  2
Linepattern
 70
14
 90
2
 40
0.6
 62
7
290
0
291
1
  0
VISUALSTYLE
  5
69
102
{ACAD_REACTORS
330
16
102
}
330
16
100
AcDbVisualStyle
  2
Modeling
 70
10
 90
2
 40
0.6
 62
7
290
0
291
0
  0
VISUALSTYLE
  5
6A
102
{ACAD_REACTORS
330
16
102
}
330
16
100
AcDbVisualStyle
  2
OverhangOff
 70
21
 90
2
 40
0.6
 62
7
290
0
291
1
  0
VISUALSTYLE
  5
6B
102
{ACAD_REACTORS
330
16
102
}
330
16
100
AcDbVisualStyle
  2
Realistic
 70
8
 90
2
 40
0.6
 62
7
290
0
291
0
  0
VISUALSTYLE
  5
6C
102
{ACAD_REACTORS
330
16
102
}
330
16
100
AcDbVisualStyle
  2
Shaded
 70
27
 90
2
 40
0.6
 62
7
290
0
291
0
  0
VISUALSTYLE
  5
6D
102
{ACAD_REACTORS
330
16
102
}
330
16
100
AcDbVisualStyle
  2
Shaded with edges
 70
26
 90
2
 40
0.6
 62
7
290
0
291
0
  0
VISUALSTYLE
  5
6E
102
{ACAD_REACTORS
330
16
102
}
330
16
100
AcDbVisualStyle
  2
Shades of Gray
 70
23
 90
2
 40
0.6
 62
7
290
0
291
0
  0
VISUALSTYLE
  5
6F
102
{ACAD_REACTORS
330
16
102
}
330
16
100
AcDbVisualStyle
  2
Sketchy
 70
24
 90
1
 40
0.6
 62
7
290
0
291
0
  0
VISUALSTYLE
  5
70
102
{ACAD_REACTORS
330
16
102
}
330
16
100
AcDbVisualStyle
  2
Thicken
 70
13
 90
2
 40
0.6
 62
7
290
0
291
1
  0
VISUALSTYLE
  5
71
102
{ACAD_REACTORS
330
16
102
}
330
16
100
AcDbVisualStyle
  2
Wireframe
 70
5
 90
0
 40
0.6
 62
7
290
0
291
0
  0
VISUALSTYLE
  5
72
102
{ACAD_REACTORS
330
16
102
}
330
16
100
AcDbVisualStyle
  2
X-Ray
 70
25
 90
2
 40
0.5
 62
7
290
0
291
0
  0
DICTIONARYVAR
  5
437
330
2D
100
DictionaryVariables
280
0
  1
1.4.3 @ 2026-04-02T05:49:04.554920+00:00
  0
ENDSEC
  0
EOF
