  0
SECTION
  2
HEADER
  9
$ACADVER
  1
AC1024
  9
$ACADMAINTVER
 70
6
  9
$DWGCODEPAGE
  3
ANSI_1252
  9
$LASTSAVEDBY
  1
ezdxf
  9
$INSBASE
 10
0.0
 20
0.0
 30
0.0
  9
$EXTMIN
 10
1e+20
 20
1e+20
 30
1e+20
  9
$EXTMAX
 10
-1e+20
 20
-1e+20
 30
-1e+20
  9
$LIMMIN
 10
0.0
 20
0.0
  9
$LIMMAX
 10
420.0
 20
297.0
  9
$ORTHOMODE
 70
0
  9
$REGENMODE
 70
1
  9
$FILLMODE
 70
1
  9
$QTEXTMODE
 70
0
  9
$MIRRTEXT
 70
1
  9
$LTSCALE
 40
1.0
  9
$ATTMODE
 70
1
  9
$TEXTSIZE
 40
2.5
  9
$TRACEWID
 40
1.0
  9
$TEXTSTYLE
  7
OpenSans
  9
$CLAYER
  8
0
  9
$CELTYPE
  6
ByLayer
  9
$CECOLOR
 62
256
  9
$CELTSCALE
 40
1.0
  9
$DISPSILH
 70
0
  9
$DIMSCALE
 40
1.0
  9
$DIMASZ
 40
0.175
  9
$DIMEXO
 40
0.125
  9
$DIMDLI
 40
3.75
  9
$DIMRND
 40
0.0
  9
$DIMDLE
 40
0.0
  9
$DIMEXE
 40
0.375
  9
$DIMTP
 40
0.0
  9
$DIMTM
 40
0.0
  9
$DIMTXT
 40
0.25
  9
$DIMCEN
 40
2.5
  9
$DIMTSZ
 40
0.0
  9
$DIMTOL
 70
0
  9
$DIMLIM
 70
0
  9
$DIMTIH
 70
0
  9
$DIMTOH
 70
0
  9
$DIMSE1
 70
0
  9
$DIMSE2
 70
0
  9
$DIMTAD
 70
1
  9
$DIMZIN
 70
12
  9
$DIMBLK
  1
ARCHTICK
  9
$DIMASO
 70
1
  9
$DIMSHO
 70
1
  9
$DIMPOST
  1

  9
$DIMAPOST
  1

  9
$DIMALT
 70
0
  9
$DIMALTD
 70
3
  9
$DIMALTF
 40
0.03937007874
  9
$DIMLFAC
 40
100.0
  9
$DIMTOFL
 70
1
  9
$DIMTVP
 40
0.0
  9
$DIMTIX
 70
0
  9
$DIMSOXD
 70
0
  9
$DIMSAH
 70
0
  9
$DIMBLK1
  1

  9
$DIMBLK2
  1

  9
$DIMSTYLE
  2
EZDXF
  9
$DIMCLRD
 70
0
  9
$DIMCLRE
 70
0
  9
$DIMCLRT
 70
0
  9
$DIMTFAC
 40
0.5
  9
$DIMGAP
 40
0.1
  9
$DIMJUST
 70
0
  9
$DIMSD1
 70
0
  9
$DIMSD2
 70
0
  9
$DIMTOLJ
 70
0
  9
$DIMTZIN
 70
8
  9
$DIMALTZ
 70
0
  9
$DIMALTTZ
 70
0
  9
$DIMUPT
 70
1
  9
$DIMDEC
 70
2
  9
$DIMTDEC
 70
2
  9
$DIMALTU
 70
2
  9
$DIMALTTD
 70
3
  9
$DIMTXSTY
  7
OpenSansCondensed-Light
  9
$DIMAUNIT
 70
0
  9
$DIMADEC
 70
2
  9
$DIMALTRND
 40
0.0
  9
$DIMAZIN
 70
3
  9
$DIMDSEP
 70
46
  9
$DIMATFIT
 70
3
  9
$DIMFRAC
 70
0
  9
$DIMLDRBLK
  1

  9
$DIMLUNIT
 70
2
  9
$DIMLWD
 70
-2
  9
$DIMLWE
 70
-2
  9
$DIMTMOVE
 70
2
  9
$DIMFXL
 40
1.0
  9
$DIMFXLON
 70
0
  9
$DIMJOGANG
 40
0.785398163397
  9
$DIMTFILL
 70
0
  9
$DIMTFILLCLR
 70
0
  9
$DIMARCSYM
 70
0
  9
$DIMLTYPE
  6

  9
$DIMLTEX1
  6

  9
$DIMLTEX2
  6

  9
$DIMTXTDIRECTION
 70
0
  9
$LUNITS
 70
2
  9
$LUPREC
 70
4
  9
$SKETCHINC
 40
1.0
  9
$FILLETRAD
 40
10.0
  9
$AUNITS
 70
0
  9
$AUPREC
 70
2
  9
$MENU
  1
.
  9
$ELEVATION
 40
0.0
  9
$PELEVATION
 40
0.0
  9
$THICKNESS
 40
0.0
  9
$LIMCHECK
 70
0
  9
$CHAMFERA
 40
0.0
  9
$CHAMFERB
 40
0.0
  9
$CHAMFERC
 40
0.0
  9
$CHAMFERD
 40
0.0
  9
$SKPOLY
 70
0
  9
$TDCREATE
 40
2461133.5811574073
  9
$TDUCREATE
 40
2458532.153996898
  9
$TDUPDATE
 40
2461133.5811574073
  9
$TDUUPDATE
 40
2458532.1544311
  9
$TDINDWG
 40
0.0
  9
$TDUSRTIMER
 40
0.0
  9
$USRTIMER
 70
1
  9
$ANGBASE
 50
0.0
  9
$ANGDIR
 70
0
  9
$PDMODE
 70
0
  9
$PDSIZE
 40
0.0
  9
$PLINEWID
 40
0.0
  9
$SPLFRAME
 70
0
  9
$SPLINETYPE
 70
6
  9
$SPLINESEGS
 70
8
  9
$HANDSEED
  5
206
  9
$SURFTAB1
 70
6
  9
$SURFTAB2
 70
6
  9
$SURFTYPE
 70
6
  9
$SURFU
 70
6
  9
$SURFV
 70
6
  9
$UCSBASE
  2

  9
$UCSNAME
  2

  9
$UCSORG
 10
0.0
 20
0.0
 30
0.0
  9
$UCSXDIR
 10
1.0
 20
0.0
 30
0.0
  9
$UCSYDIR
 10
0.0
 20
1.0
 30
0.0
  9
$UCSORTHOREF
  2

  9
$UCSORTHOVIEW
 70
0
  9
$UCSORGTOP
 10
0.0
 20
0.0
 30
0.0
  9
$UCSORGBOTTOM
 10
0.0
 20
0.0
 30
0.0
  9
$UCSORGLEFT
 10
0.0
 20
0.0
 30
0.0
  9
$UCSORGRIGHT
 10
0.0
 20
0.0
 30
0.0
  9
$UCSORGFRONT
 10
0.0
 20
0.0
 30
0.0
  9
$UCSORGBACK
 10
0.0
 20
0.0
 30
0.0
  9
$PUCSBASE
  2

  9
$PUCSNAME
  2

  9
$PUCSORG
 10
0.0
 20
0.0
 30
0.0
  9
$PUCSXDIR
 10
1.0
 20
0.0
 30
0.0
  9
$PUCSYDIR
 10
0.0
 20
1.0
 30
0.0
  9
$PUCSORTHOREF
  2

  9
$PUCSORTHOVIEW
 70
0
  9
$PUCSORGTOP
 10
0.0
 20
0.0
 30
0.0
  9
$PUCSORGBOTTOM
 10
0.0
 20
0.0
 30
0.0
  9
$PUCSORGLEFT
 10
0.0
 20
0.0
 30
0.0
  9
$PUCSORGRIGHT
 10
0.0
 20
0.0
 30
0.0
  9
$PUCSORGFRONT
 10
0.0
 20
0.0
 30
0.0
  9
$PUCSORGBACK
 10
0.0
 20
0.0
 30
0.0
  9
$USERI1
 70
0
  9
$USERI2
 70
0
  9
$USERI3
 70
0
  9
$USERI4
 70
0
  9
$USERI5
 70
0
  9
$USERR1
 40
0.0
  9
$USERR2
 40
0.0
  9
$USERR3
 40
0.0
  9
$USERR4
 40
0.0
  9
$USERR5
 40
0.0
  9
$WORLDVIEW
 70
1
  9
$SHADEDGE
 70
3
  9
$SHADEDIF
 70
70
  9
$TILEMODE
 70
1
  9
$MAXACTVP
 70
64
  9
$PINSBASE
 10
0.0
 20
0.0
 30
0.0
  9
$PLIMCHECK
 70
0
  9
$PEXTMIN
 10
1e+20
 20
1e+20
 30
1e+20
  9
$PEXTMAX
 10
-1e+20
 20
-1e+20
 30
-1e+20
  9
$PLIMMIN
 10
0.0
 20
0.0
  9
$PLIMMAX
 10
420.0
 20
297.0
  9
$UNITMODE
 70
0
  9
$VISRETAIN
 70
1
  9
$PLINEGEN
 70
0
  9
$PSLTSCALE
 70
1
  9
$TREEDEPTH
 70
3020
  9
$CMLSTYLE
  2
Standard
  9
$CMLJUST
 70
0
  9
$CMLSCALE
 40
20.0
  9
$PROXYGRAPHICS
 70
1
  9
$MEASUREMENT
 70
1
  9
$CELWEIGHT
370
-1
  9
$ENDCAPS
280
0
  9
$JOINSTYLE
280
0
  9
$LWDISPLAY
290
0
  9
$INSUNITS
 70
6
  9
$HYPERLINKBASE
  1

  9
$STYLESHEET
  1

  9
$XEDIT
290
1
  9
$CEPSNTYPE
380
0
  9
$PSTYLEMODE
290
1
  9
$FINGERPRINTGUID
  2
{9FD6F903-2BFB-496B-BE2A-FC5262BAC7FA}
  9
$VERSIONGUID
  2
{A576D320-9C61-4CBA-A758-8EE3314501B6}
  9
$EXTNAMES
290
1
  9
$PSVPSCALE
 40
0.0
  9
$OLESTARTUP
290
0
  9
$SORTENTS
280
127
  9
$INDEXCTL
280
0
  9
$HIDETEXT
280
1
  9
$XCLIPFRAME
280
1
  9
$HALOGAP
280
0
  9
$OBSCOLOR
 70
257
  9
$OBSLTYPE
280
0
  9
$INTERSECTIONDISPLAY
280
0
  9
$INTERSECTIONCOLOR
 70
257
  9
$DIMASSOC
280
2
  9
$PROJECTNAME
  1

  9
$CAMERADISPLAY
290
0
  9
$LENSLENGTH
 40
50.0
  9
$CAMERAHEIGHT
 40
0.0
  9
$STEPSPERSEC
 40
24.0
  9
$STEPSIZE
 40
100.0
  9
$3DDWFPREC
 40
2.0
  9
$PSOLWIDTH
 40
0.005
  9
$PSOLHEIGHT
 40
0.08
  9
$LOFTANG1
 40
1.570796326795
  9
$LOFTANG2
 40
1.570796326795
  9
$LOFTMAG1
 40
0.0
  9
$LOFTMAG2
 40
0.0
  9
$LOFTPARAM
 70
7
  9
$LOFTNORMALS
280
1
  9
$LATITUDE
 40
37.795
  9
$LONGITUDE
 40
-122.394
  9
$NORTHDIRECTION
 40
0.0
  9
$TIMEZONE
 70
-8000
  9
$LIGHTGLYPHDISPLAY
280
1
  9
$TILEMODELIGHTSYNCH
280
1
  9
$CMATERIAL
347
20
  9
$SOLIDHIST
280
0
  9
$SHOWHIST
280
1
  9
$DWFFRAME
280
2
  9
$DGNFRAME
280
2
  9
$REALWORLDSCALE
290
1
  9
$INTERFERECOLOR
 62
256
  9
$CSHADOW
280
0
  9
$SHADOWPLANELOCATION
 40
0.0
  0
ENDSEC
  0
SECTION
  2
CLASSES
  0
CLASS
  1
ACDBDICTIONARYWDFLT
  2
AcDbDictionaryWithDefault
  3
ObjectDBX Classes
 90
0
 91
0
280
0
281
0
  0
CLASS
  1
SUN
  2
AcDbSun
  3
SCENEOE
 90
1153
 91
0
280
0
281
0
  0
CLASS
  1
VISUALSTYLE
  2
AcDbVisualStyle
  3
ObjectDBX Classes
 90
4095
 91
0
280
0
281
0
  0
CLASS
  1
MATERIAL
  2
AcDbMaterial
  3
ObjectDBX Classes
 90
1153
 91
0
280
0
281
0
  0
CLASS
  1
SCALE
  2
AcDbScale
  3
ObjectDBX Classes
 90
1153
 91
0
280
0
281
0
  0
CLASS
  1
TABLESTYLE
  2
AcDbTableStyle
  3
ObjectDBX Classes
 90
4095
 91
0
280
0
281
0
  0
CLASS
  1
MLEADERSTYLE
  2
AcDbMLeaderStyle
  3
ACDB_MLEADERSTYLE_CLASS
 90
4095
 91
0
280
0
281
0
  0
CLASS
  1
DICTIONARYVAR
  2
AcDbDictionaryVar
  3
ObjectDBX Classes
 90
0
 91
0
280
0
281
0
  0
CLASS
  1
CELLSTYLEMAP
  2
AcDbCellStyleMap
  3
ObjectDBX Classes
 90
1152
 91
0
280
0
281
0
  0
CLASS
  1
MENTALRAYRENDERSETTINGS
  2
AcDbMentalRayRenderSettings
  3
SCENEOE
 90
1024
 91
0
280
0
281
0
  0
CLASS
  1
ACDBDETAILVIEWSTYLE
  2
AcDbDetailViewStyle
  3
ObjectDBX Classes
 90
1025
 91
0
280
0
281
0
  0
CLASS
  1
ACDBSECTIONVIEWSTYLE
  2
AcDbSectionViewStyle
  3
ObjectDBX Classes
 90
1025
 91
0
280
0
281
0
  0
CLASS
  1
RASTERVARIABLES
  2
AcDbRasterVariables
  3
ISM
 90
0
 91
0
280
0
281
0
  0
CLASS
  1
ACDBPLACEHOLDER
  2
AcDbPlaceHolder
  3
ObjectDBX Classes
 90
0
 91
0
280
0
281
0
  0
CLASS
  1
LAYOUT
  2
AcDbLayout
  3
ObjectDBX Classes
 90
0
 91
0
280
0
281
0
  0
ENDSEC
  0
SECTION
  2
TABLES
  0
TABLE
  2
VPORT
  5
8
330
0
100
AcDbSymbolTable
 70
1
  0
VPORT
  5
23
330
8
100
AcDbSymbolTableRecord
100
AcDbViewportTableRecord
  2
*Active
 70
0
 10
0.0
 20
0.0
 11
1.0
 21
1.0
 12
0.0
 22
0.0
 13
0.0
 23
0.0
 14
0.5
 24
0.5
 15
0.5
 25
0.5
 16
0.0
 26
0.0
 36
1.0
 17
0.0
 27
0.0
 37
0.0
 40
1000.0
 41
1.34
 42
50.0
 43
0.0
 44
0.0
 50
0.0
 51
0.0
 71
0
 72
1000
 73
1
 74
3
 75
0
 76
0
 77
0
 78
0
281
0
 65
0
146
0.0
  0
ENDTAB
  0
TABLE
  2
LTYPE
  5
2
330
0
100
AcDbSymbolTable
 70
21
  0
LTYPE
  5
24
330
2
100
AcDbSymbolTableRecord
100
AcDbLinetypeTableRecord
  2
ByBlock
 70
0
  3

 72
65
 73
0
 40
0.0
  0
LTYPE
  5
25
330
2
100
AcDbSymbolTableRecord
100
AcDbLinetypeTableRecord
  2
ByLayer
 70
0
  3

 72
65
 73
0
 40
0.0
  0
LTYPE
  5
26
330
2
100
AcDbSymbolTableRecord
100
AcDbLinetypeTableRecord
  2
Continuous
 70
0
  3

 72
65
 73
0
 40
0.0
  0
LTYPE
  5
2F
330
2
100
AcDbSymbolTableRecord
100
AcDbLinetypeTableRecord
  2
CENTER
 70
0
  3
Center ____ _ ____ _ ____ _ ____ _ ____ _ ____
 72
65
 73
4
 40
5.08
 49
3.175
 74
0
 49
-0.635
 74
0
 49
0.635
 74
0
 49
-0.635
 74
0
  0
LTYPE
  5
30
330
2
100
AcDbSymbolTableRecord
100
AcDbLinetypeTableRecord
  2
CENTERX2
 70
0
  3
Center (2x) ________  __  ________  __  ________
 72
65
 73
4
 40
8.89
 49
6.35
 74
0
 49
-0.635
 74
0
 49
1.27
 74
0
 49
-0.635
 74
0
  0
LTYPE
  5
31
330
2
100
AcDbSymbolTableRecord
100
AcDbLinetypeTableRecord
  2
CENTER2
 70
0
  3
Center (.5x) ____ _ ____ _ ____ _ ____ _ ____
 72
65
 73
4
 40
2.54
 49
1.587
 74
0
 49
-0.318
 74
0
 49
0.318
 74
0
 49
-0.318
 74
0
  0
LTYPE
  5
32
330
2
100
AcDbSymbolTableRecord
100
AcDbLinetypeTableRecord
  2
DASHED
 70
0
  3
Dashed __ __ __ __ __ __ __ __ __ __ __ __ __ _
 72
65
 73
2
 40
1.524
 49
1.27
 74
0
 49
-0.254
 74
0
  0
LTYPE
  5
33
330
2
100
AcDbSymbolTableRecord
100
AcDbLinetypeTableRecord
  2
DASHEDX2
 70
0
  3
Dashed (2x) ____  ____  ____  ____  ____  ____
 72
65
 73
2
 40
3.048
 49
2.54
 74
0
 49
-0.508
 74
0
  0
LTYPE
  5
34
330
2
100
AcDbSymbolTableRecord
100
AcDbLinetypeTableRecord
  2
DASHED2
 70
0
  3
Dashed (.5x) _ _ _ _ _ _ _ _ _ _ _ _ _ _
 72
65
 73
2
 40
0.762
 49
0.635
 74
0
 49
-0.127
 74
0
  0
LTYPE
  5
35
330
2
100
AcDbSymbolTableRecord
100
AcDbLinetypeTableRecord
  2
PHANTOM
 70
0
  3
Phantom ______  __  __  ______  __  __  ______
 72
65
 73
6
 40
6.35
 49
3.175
 74
0
 49
-0.635
 74
0
 49
0.635
 74
0
 49
-0.635
 74
0
 49
0.635
 74
0
 49
-0.635
 74
0
  0
LTYPE
  5
36
330
2
100
AcDbSymbolTableRecord
100
AcDbLinetypeTableRecord
  2
PHANTOMX2
 70
0
  3
Phantom (2x)____________    ____    ____    ____________
 72
65
 73
6
 40
10.795
 49
6.35
 74
0
 49
-0.635
 74
0
 49
1.27
 74
0
 49
-0.635
 74
0
 49
1.27
 74
0
 49
-0.635
 74
0
  0
LTYPE
  5
37
330
2
100
AcDbSymbolTableRecord
100
AcDbLinetypeTableRecord
  2
PHANTOM2
 70
0
  3
Phantom (.5x) ___ _ _ ___ _ _ ___ _ _ ___ _ _ ___
 72
65
 73
6
 40
3.175
 49
1.587
 74
0
 49
-0.318
 74
0
 49
0.318
 74
0
 49
-0.318
 74
0
 49
0.318
 74
0
 49
-0.318
 74
0
  0
LTYPE
  5
38
330
2
100
AcDbSymbolTableRecord
100
AcDbLinetypeTableRecord
  2
DASHDOT
 70
0
  3
Dash dot __ . __ . __ . __ . __ . __ . __ . __
 72
65
 73
4
 40
3.556
 49
2.54
 74
0
 49
-0.508
 74
0
 49
0.0
 74
0
 49
-0.508
 74
0
  0
LTYPE
  5
39
330
2
100
AcDbSymbolTableRecord
100
AcDbLinetypeTableRecord
  2
DASHDOTX2
 70
0
  3
Dash dot (2x) ____  .  ____  .  ____  .  ____
 72
65
 73
4
 40
6.096
 49
5.08
 74
0
 49
-0.508
 74
0
 49
0.0
 74
0
 49
-0.508
 74
0
  0
LTYPE
  5
3A
330
2
100
AcDbSymbolTableRecord
100
AcDbLinetypeTableRecord
  2
DASHDOT2
 70
0
  3
Dash dot (.5x) _ . _ . _ . _ . _ . _ . _ . _
 72
65
 73
4
 40
1.778
 49
1.27
 74
0
 49
-0.254
 74
0
 49
0.0
 74
0
 49
-0.254
 74
0
  0
LTYPE
  5
3B
330
2
100
AcDbSymbolTableRecord
100
AcDbLinetypeTableRecord
  2
DOT
 70
0
  3
Dot .  .  .  .  .  .  .  .  .  .  .  .  .  .  .  .
 72
65
 73
2
 40
0.508
 49
0.0
 74
0
 49
-0.508
 74
0
  0
LTYPE
  5
3C
330
2
100
AcDbSymbolTableRecord
100
AcDbLinetypeTableRecord
  2
DOTX2
 70
0
  3
Dot (2x) .    .    .    .    .    .    .    . 
 72
65
 73
2
 40
1.016
 49
0.0
 74
0
 49
-1.016
 74
0
  0
LTYPE
  5
3D
330
2
100
AcDbSymbolTableRecord
100
AcDbLinetypeTableRecord
  2
DOT2
 70
0
  3
Dot (.5) . . . . . . . . . . . . . . . . . . . 
 72
65
 73
2
 40
0.254
 49
0.0
 74
0
 49
-0.254
 74
0
  0
LTYPE
  5
3E
330
2
100
AcDbSymbolTableRecord
100
AcDbLinetypeTableRecord
  2
DIVIDE
 70
0
  3
Divide __ . . __ . . __ . . __ . . __ . . __
 72
65
 73
6
 40
4.064
 49
2.54
 74
0
 49
-0.508
 74
0
 49
0.0
 74
0
 49
-0.508
 74
0
 49
0.0
 74
0
 49
-0.508
 74
0
  0
LTYPE
  5
3F
330
2
100
AcDbSymbolTableRecord
100
AcDbLinetypeTableRecord
  2
DIVIDEX2
 70
0
  3
Divide (2x) ____  . .  ____  . .  ____  . .  ____
 72
65
 73
6
 40
6.604
 49
5.08
 74
0
 49
-0.508
 74
0
 49
0.0
 74
0
 49
-0.508
 74
0
 49
0.0
 74
0
 49
-0.508
 74
0
  0
LTYPE
  5
40
330
2
100
AcDbSymbolTableRecord
100
AcDbLinetypeTableRecord
  2
DIVIDE2
 70
0
  3
Divide(.5x) _ . _ . _ . _ . _ . _ . _ . _
 72
65
 73
6
 40
2.032
 49
1.27
 74
0
 49
-0.254
 74
0
 49
0.0
 74
0
 49
-0.254
 74
0
 49
0.0
 74
0
 49
-0.254
 74
0
  0
ENDTAB
  0
TABLE
  2
LAYER
  5
1
330
0
100
AcDbSymbolTable
 70
14
  0
LAYER
  5
27
330
1
100
AcDbSymbolTableRecord
100
AcDbLayerTableRecord
  2
0
 70
0
 62
7
  6
Continuous
370
-3
390
13
347
21
  0
LAYER
  5
28
330
1
100
AcDbSymbolTableRecord
100
AcDbLayerTableRecord
  2
Defpoints
 70
0
 62
7
  6
Continuous
290
0
370
-3
390
13
347
21
  0
LAYER
  5
8A
330
1
100
AcDbSymbolTableRecord
100
AcDbLayerTableRecord
  2
BORDER
 70
0
 62
7
  6
Continuous
370
-3
390
13
347
21
  0
LAYER
  5
8B
330
1
100
AcDbSymbolTableRecord
100
AcDbLayerTableRecord
  2
TITLEBLOCK
 70
0
 62
7
  6
Continuous
370
-3
390
13
347
21
  0
LAYER
  5
8C
330
1
100
AcDbSymbolTableRecord
100
AcDbLayerTableRecord
  2
ORIENTATION
 70
0
 62
7
  6
Continuous
370
-3
390
13
347
21
  0
LAYER
  5
8D
330
1
100
AcDbSymbolTableRecord
100
AcDbLayerTableRecord
  2
OUTLINE
 70
0
 62
7
  6
Continuous
370
-3
390
13
347
21
  0
LAYER
  5
8E
330
1
100
AcDbSymbolTableRecord
100
AcDbLayerTableRecord
  2
HIDDEN
 70
0
 62
7
  6
Continuous
370
-3
390
13
347
21
  0
LAYER
  5
8F
330
1
100
AcDbSymbolTableRecord
100
AcDbLayerTableRecord
  2
CENTERLINE
 70
0
 62
5
  6
Continuous
370
-3
390
13
347
21
  0
LAYER
  5
90
330
1
100
AcDbSymbolTableRecord
100
AcDbLayerTableRecord
  2
SPAR
 70
0
 62
3
  6
Continuous
370
-3
390
13
347
21
  0
LAYER
  5
91
330
1
100
AcDbSymbolTableRecord
100
AcDbLayerTableRecord
  2
WALL
 70
0
 62
6
  6
Continuous
370
-3
390
13
347
21
  0
LAYER
  5
92
330
1
100
AcDbSymbolTableRecord
100
AcDbLayerTableRecord
  2
SECTION
 70
0
 62
4
  6
Continuous
370
-3
390
13
347
21
  0
LAYER
  5
93
330
1
100
AcDbSymbolTableRecord
100
AcDbLayerTableRecord
  2
HATCH
 70
0
 62
252
  6
Continuous
370
-3
390
13
347
21
  0
LAYER
  5
94
330
1
100
AcDbSymbolTableRecord
100
AcDbLayerTableRecord
  2
DIMENSION
 70
0
 62
1
  6
Continuous
370
-3
390
13
347
21
  0
LAYER
  5
95
330
1
100
AcDbSymbolTableRecord
100
AcDbLayerTableRecord
  2
TEXT
 70
0
 62
7
  6
Continuous
370
-3
390
13
347
21
  0
ENDTAB
  0
TABLE
  2
STYLE
  5
5
330
0
100
AcDbSymbolTable
 70
26
  0
STYLE
  5
29
330
5
100
AcDbSymbolTableRecord
100
AcDbTextStyleTableRecord
  2
Standard
 70
0
 40
0.0
 41
1.0
 50
0.0
 71
0
 42
2.5
  3
txt
  4

  0
STYLE
  5
41
330
5
100
AcDbSymbolTableRecord
100
AcDbTextStyleTableRecord
  2
OpenSans-Light
 70
0
 40
0.0
 41
1.0
 50
0.0
 71
0
 42
2.5
  3
OpenSans-Light.ttf
  4

  0
STYLE
  5
42
330
5
100
AcDbSymbolTableRecord
100
AcDbTextStyleTableRecord
  2
OpenSans-Light-Italic
 70
0
 40
0.0
 41
1.0
 50
0.0
 71
0
 42
2.5
  3
OpenSans-LightItalic.ttf
  4

  0
STYLE
  5
43
330
5
100
AcDbSymbolTableRecord
100
AcDbTextStyleTableRecord
  2
OpenSans
 70
0
 40
0.0
 41
1.0
 50
0.0
 71
0
 42
2.5
  3
OpenSans-Regular.ttf
  4

  0
STYLE
  5
44
330
5
100
AcDbSymbolTableRecord
100
AcDbTextStyleTableRecord
  2
OpenSans-Italic
 70
0
 40
0.0
 41
1.0
 50
0.0
 71
0
 42
2.5
  3
OpenSans-Italic.ttf
  4

  0
STYLE
  5
45
330
5
100
AcDbSymbolTableRecord
100
AcDbTextStyleTableRecord
  2
OpenSans-SemiBold
 70
0
 40
0.0
 41
1.0
 50
0.0
 71
0
 42
2.5
  3
OpenSans-SemiBold.ttf
  4

  0
STYLE
  5
46
330
5
100
AcDbSymbolTableRecord
100
AcDbTextStyleTableRecord
  2
OpenSans-SemiBoldItalic
 70
0
 40
0.0
 41
1.0
 50
0.0
 71
0
 42
2.5
  3
OpenSans-SemiBoldItalic.ttf
  4

  0
STYLE
  5
47
330
5
100
AcDbSymbolTableRecord
100
AcDbTextStyleTableRecord
  2
OpenSans-Bold
 70
0
 40
0.0
 41
1.0
 50
0.0
 71
0
 42
2.5
  3
OpenSans-Bold.ttf
  4

  0
STYLE
  5
48
330
5
100
AcDbSymbolTableRecord
100
AcDbTextStyleTableRecord
  2
OpenSans-BoldItalic
 70
0
 40
0.0
 41
1.0
 50
0.0
 71
0
 42
2.5
  3
OpenSans-BoldItalic.ttf
  4

  0
STYLE
  5
49
330
5
100
AcDbSymbolTableRecord
100
AcDbTextStyleTableRecord
  2
OpenSans-ExtraBold
 70
0
 40
0.0
 41
1.0
 50
0.0
 71
0
 42
2.5
  3
OpenSans-ExtraBold.ttf
  4

  0
STYLE
  5
4A
330
5
100
AcDbSymbolTableRecord
100
AcDbTextStyleTableRecord
  2
OpenSans-ExtraBoldItalic
 70
0
 40
0.0
 41
1.0
 50
0.0
 71
0
 42
2.5
  3
OpenSans-ExtraBoldItalic.ttf
  4

  0
STYLE
  5
4B
330
5
100
AcDbSymbolTableRecord
100
AcDbTextStyleTableRecord
  2
OpenSansCondensed-Bold
 70
0
 40
0.0
 41
1.0
 50
0.0
 71
0
 42
2.5
  3
OpenSansCondensed-Bold.ttf
  4

  0
STYLE
  5
4C
330
5
100
AcDbSymbolTableRecord
100
AcDbTextStyleTableRecord
  2
OpenSansCondensed-Light
 70
0
 40
0.0
 41
1.0
 50
0.0
 71
0
 42
2.5
  3
OpenSansCondensed-Light.ttf
  4

  0
STYLE
  5
4D
330
5
100
AcDbSymbolTableRecord
100
AcDbTextStyleTableRecord
  2
OpenSansCondensed-Italic
 70
0
 40
0.0
 41
1.0
 50
0.0
 71
0
 42
2.5
  3
OpenSansCondensed-LightItalic.ttf
  4

  0
STYLE
  5
4E
330
5
100
AcDbSymbolTableRecord
100
AcDbTextStyleTableRecord
  2
LiberationSans
 70
0
 40
0.0
 41
1.0
 50
0.0
 71
0
 42
2.5
  3
LiberationSans-Regular.ttf
  4

  0
STYLE
  5
4F
330
5
100
AcDbSymbolTableRecord
100
AcDbTextStyleTableRecord
  2
LiberationSans-Bold
 70
0
 40
0.0
 41
1.0
 50
0.0
 71
0
 42
2.5
  3
LiberationSans-Bold.ttf
  4

  0
STYLE
  5
50
330
5
100
AcDbSymbolTableRecord
100
AcDbTextStyleTableRecord
  2
LiberationSans-BoldItalic
 70
0
 40
0.0
 41
1.0
 50
0.0
 71
0
 42
2.5
  3
LiberationSans-BoldItalic.ttf
  4

  0
STYLE
  5
51
330
5
100
AcDbSymbolTableRecord
100
AcDbTextStyleTableRecord
  2
LiberationSans-Italic
 70
0
 40
0.0
 41
1.0
 50
0.0
 71
0
 42
2.5
  3
LiberationSans-Italic.ttf
  4

  0
STYLE
  5
52
330
5
100
AcDbSymbolTableRecord
100
AcDbTextStyleTableRecord
  2
LiberationSerif
 70
0
 40
0.0
 41
1.0
 50
0.0
 71
0
 42
2.5
  3
LiberationSerif-Regular.ttf
  4

  0
STYLE
  5
53
330
5
100
AcDbSymbolTableRecord
100
AcDbTextStyleTableRecord
  2
LiberationSerif-Bold
 70
0
 40
0.0
 41
1.0
 50
0.0
 71
0
 42
2.5
  3
LiberationSerif-Bold.ttf
  4

  0
STYLE
  5
54
330
5
100
AcDbSymbolTableRecord
100
AcDbTextStyleTableRecord
  2
LiberationSerif-BoldItalic
 70
0
 40
0.0
 41
1.0
 50
0.0
 71
0
 42
2.5
  3
LiberationSerif-BoldItalic.ttf
  4

  0
STYLE
  5
55
330
5
100
AcDbSymbolTableRecord
100
AcDbTextStyleTableRecord
  2
LiberationSerif-Italic
 70
0
 40
0.0
 41
1.0
 50
0.0
 71
0
 42
2.5
  3
LiberationSerif-Italic.ttf
  4

  0
STYLE
  5
56
330
5
100
AcDbSymbolTableRecord
100
AcDbTextStyleTableRecord
  2
LiberationMono
 70
0
 40
0.0
 41
1.0
 50
0.0
 71
0
 42
2.5
  3
LiberationMono-Regular.ttf
  4

  0
STYLE
  5
57
330
5
100
AcDbSymbolTableRecord
100
AcDbTextStyleTableRecord
  2
LiberationMono-Bold
 70
0
 40
0.0
 41
1.0
 50
0.0
 71
0
 42
2.5
  3
LiberationMono-Bold.ttf
  4

  0
STYLE
  5
58
330
5
100
AcDbSymbolTableRecord
100
AcDbTextStyleTableRecord
  2
LiberationMono-BoldItalic
 70
0
 40
0.0
 41
1.0
 50
0.0
 71
0
 42
2.5
  3
LiberationMono-BoldItalic.ttf
  4

  0
STYLE
  5
59
330
5
100
AcDbSymbolTableRecord
100
AcDbTextStyleTableRecord
  2
LiberationMono-Italic
 70
0
 40
0.0
 41
1.0
 50
0.0
 71
0
 42
2.5
  3
LiberationMono-Italic.ttf
  4

  0
ENDTAB
  0
TABLE
  2
VIEW
  5
7
330
0
100
AcDbSymbolTable
 70
0
  0
ENDTAB
  0
TABLE
  2
UCS
  5
6
330
0
100
AcDbSymbolTable
 70
0
  0
ENDTAB
  0
TABLE
  2
APPID
  5
3
330
0
100
AcDbSymbolTable
 70
3
  0
APPID
  5
2A
330
3
100
AcDbSymbolTableRecord
100
AcDbRegAppTableRecord
  2
ACAD
 70
0
  0
APPID
  5
203
330
3
100
AcDbSymbolTableRecord
100
AcDbRegAppTableRecord
  2
HATCHBACKGROUNDCOLOR
 70
0
  0
APPID
  5
204
330
3
100
AcDbSymbolTableRecord
100
AcDbRegAppTableRecord
  2
EZDXF
 70
0
  0
ENDTAB
  0
TABLE
  2
DIMSTYLE
  5
4
330
0
100
AcDbSymbolTable
 70
13
100
AcDbDimStyleTable
  0
DIMSTYLE
105
2B
330
4
100
AcDbSymbolTableRecord
100
AcDbDimStyleTableRecord
  2
Standard
 70
0
 40
1.0
 41
2.5
 42
0.625
 43
3.75
 44
1.25
 45
0.0
 46
0.0
 47
0.0
 48
0.0
 49
2.5
140
2.5
141
2.5
142
0.0
143
0.03937007874
144
1.0
145
0.0
146
1.0
147
0.625
148
0.0
 69
0
 70
0
 71
0
 72
0
 73
0
 74
0
 75
0
 76
0
 77
1
 78
8
 79
3
170
0
171
3
172
1
173
0
174
0
175
0
176
0
177
0
178
0
179
2
271
2
272
2
273
2
274
3
275
0
276
0
277
2
278
44
279
0
280
0
281
0
282
0
283
0
284
8
285
0
286
0
288
0
289
3
290
0
371
-2
372
-2
  0
DIMSTYLE
105
73
330
4
100
AcDbSymbolTableRecord
100
AcDbDimStyleTableRecord
  2
EZDXF
 70
0
 40
1.0
 41
0.175
 42
0.125
 43
3.75
 44
0.375
 45
0.0
 46
0.0
 47
0.0
 48
0.0
 49
2.5
140
0.25
141
2.5
142
0.0
143
0.03937007874
144
100.0
145
0.0
146
0.5
147
0.1
148
0.0
 69
0
 70
0
 71
0
 72
0
 73
0
 74
0
 75
0
 76
0
 77
1
 78
12
 79
3
170
0
171
3
172
1
173
0
174
0
175
0
176
0
177
0
178
0
179
2
271
2
272
2
273
2
274
3
275
0
276
0
277
2
278
46
279
2
280
0
281
0
282
0
283
0
284
8
285
0
286
0
288
1
289
3
290
0
340
4C
342
74
371
-2
372
-2
  0
DIMSTYLE
105
7C
330
4
100
AcDbSymbolTableRecord
100
AcDbDimStyleTableRecord
  2
EZ_M_100_H25_CM
 70
0
 40
1.0
 41
0.25
 42
0.125
 43
3.75
 44
0.375
 45
0.0
 46
0.0
 47
0.0
 48
0.0
 49
2.5
140
0.25
141
2.5
142
0.125
143
0.03937007874
144
100.0
145
0.0
146
0.5
147
0.1
148
0.0
 69
0
 70
0
 71
0
 72
0
 73
0
 74
0
 75
0
 76
0
 77
1
 78
12
 79
3
170
0
171
3
172
1
173
0
174
0
175
0
176
0
177
0
178
0
179
2
271
2
272
2
273
2
274
3
275
0
276
0
277
2
278
46
279
2
280
0
281
0
282
0
283
0
284
8
285
0
286
0
288
1
289
3
290
0
340
4C
371
-2
372
-2
  0
DIMSTYLE
105
7D
330
4
100
AcDbSymbolTableRecord
100
AcDbDimStyleTableRecord
  2
EZ_M_50_H25_CM
 70
0
 40
1.0
 41
0.125
 42
0.0625
 43
3.75
 44
0.1875
 45
0.0
 46
0.0
 47
0.0
 48
0.0
 49
2.5
140
0.125
141
2.5
142
0.0625
143
0.03937007874
144
100.0
145
0.0
146
0.5
147
0.05
148
0.0
 69
0
 70
0
 71
0
 72
0
 73
0
 74
0
 75
0
 76
0
 77
1
 78
12
 79
3
170
0
171
3
172
1
173
0
174
0
175
0
176
0
177
0
178
0
179
2
271
2
272
2
273
2
274
3
275
0
276
0
277
2
278
46
279
2
280
0
281
0
282
0
283
0
284
8
285
0
286
0
288
1
289
3
290
0
340
4C
371
-2
372
-2
  0
DIMSTYLE
105
7E
330
4
100
AcDbSymbolTableRecord
100
AcDbDimStyleTableRecord
  2
EZ_M_25_H25_CM
 70
0
 40
1.0
 41
0.0625
 42
0.03125
 43
3.75
 44
0.09375
 45
0.0
 46
0.0
 47
0.0
 48
0.0
 49
2.5
140
0.0625
141
2.5
142
0.03125
143
0.03937007874
144
100.0
145
0.0
146
0.5
147
0.025
148
0.0
 69
0
 70
0
 71
0
 72
0
 73
0
 74
0
 75
0
 76
0
 77
1
 78
12
 79
3
170
0
171
3
172
1
173
0
174
0
175
0
176
0
177
0
178
0
179
2
271
2
272
2
273
2
274
3
275
0
276
0
277
2
278
46
279
2
280
0
281
0
282
0
283
0
284
8
285
0
286
0
288
1
289
3
290
0
340
4C
371
-2
372
-2
  0
DIMSTYLE
105
7F
330
4
100
AcDbSymbolTableRecord
100
AcDbDimStyleTableRecord
  2
EZ_M_20_H25_CM
 70
0
 40
1.0
 41
0.05
 42
0.025
 43
3.75
 44
0.07500000000000001
 45
0.0
 46
0.0
 47
0.0
 48
0.0
 49
2.5
140
0.05
141
2.5
142
0.025
143
0.03937007874
144
100.0
145
0.0
146
0.5
147
0.020000000000000004
148
0.0
 69
0
 70
0
 71
0
 72
0
 73
0
 74
0
 75
0
 76
0
 77
1
 78
12
 79
3
170
0
171
3
172
1
173
0
174
0
175
0
176
0
177
0
178
0
179
2
271
2
272
2
273
2
274
3
275
0
276
0
277
2
278
46
279
2
280
0
281
0
282
0
283
0
284
8
285
0
286
0
288
1
289
3
290
0
340
4C
371
-2
372
-2
  0
DIMSTYLE
105
80
330
4
100
AcDbSymbolTableRecord
100
AcDbDimStyleTableRecord
  2
EZ_M_10_H25_CM
 70
0
 40
1.0
 41
0.025
 42
0.0125
 43
3.75
 44
0.037500000000000006
 45
0.0
 46
0.0
 47
0.0
 48
0.0
 49
2.5
140
0.025
141
2.5
142
0.0125
143
0.03937007874
144
100.0
145
0.0
146
0.5
147
0.010000000000000002
148
0.0
 69
0
 70
0
 71
0
 72
0
 73
0
 74
0
 75
0
 76
0
 77
1
 78
12
 79
3
170
0
171
3
172
1
173
0
174
0
175
0
176
0
177
0
178
0
179
2
271
2
272
2
273
2
274
3
275
0
276
0
277
2
278
46
279
2
280
0
281
0
282
0
283
0
284
8
285
0
286
0
288
1
289
3
290
0
340
4C
371
-2
372
-2
  0
DIMSTYLE
105
81
330
4
100
AcDbSymbolTableRecord
100
AcDbDimStyleTableRecord
  2
EZ_M_5_H25_CM
 70
0
 40
1.0
 41
0.0125
 42
0.00625
 43
3.75
 44
0.018750000000000003
 45
0.0
 46
0.0
 47
0.0
 48
0.0
 49
2.5
140
0.0125
141
2.5
142
0.00625
143
0.03937007874
144
100.0
145
0.0
146
0.5
147
0.005000000000000001
148
0.0
 69
0
 70
0
 71
0
 72
0
 73
0
 74
0
 75
0
 76
0
 77
1
 78
12
 79
3
170
0
171
3
172
1
173
0
174
0
175
0
176
0
177
0
178
0
179
2
271
2
272
2
273
2
274
3
275
0
276
0
277
2
278
46
279
2
280
0
281
0
282
0
283
0
284
8
285
0
286
0
288
1
289
3
290
0
340
4C
371
-2
372
-2
  0
DIMSTYLE
105
82
330
4
100
AcDbSymbolTableRecord
100
AcDbDimStyleTableRecord
  2
EZ_M_1_H25_CM
 70
0
 40
1.0
 41
0.0025
 42
0.00125
 43
3.75
 44
0.00375
 45
0.0
 46
0.0
 47
0.0
 48
0.0
 49
2.5
140
0.0025
141
2.5
142
0.00125
143
0.03937007874
144
100.0
145
0.0
146
0.5
147
0.001
148
0.0
 69
0
 70
0
 71
0
 72
0
 73
0
 74
0
 75
0
 76
0
 77
1
 78
12
 79
3
170
0
171
3
172
1
173
0
174
0
175
0
176
0
177
0
178
0
179
2
271
2
272
2
273
2
274
3
275
0
276
0
277
2
278
46
279
2
280
0
281
0
282
0
283
0
284
8
285
0
286
0
288
1
289
3
290
0
340
4C
371
-2
372
-2
  0
DIMSTYLE
105
83
330
4
100
AcDbSymbolTableRecord
100
AcDbDimStyleTableRecord
  2
EZ_RADIUS
 70
0
 40
1.0
 41
0.25
 42
0.125
 43
3.75
 44
0.375
 45
0.0
 46
0.0
 47
0.0
 48
0.0
 49
2.5
140
0.25
141
0.0
142
0.0
143
0.03937007874
144
100.0
145
0.0
146
0.5
147
0.1
148
0.0
 69
0
 70
0
 71
0
 72
0
 73
0
 74
0
 75
0
 76
0
 77
1
 78
12
 79
3
170
0
171
3
172
0
173
0
174
0
175
0
176
0
177
0
178
0
179
2
271
2
272
2
273
2
274
3
275
0
276
0
277
2
278
46
279
1
280
0
281
0
282
0
283
0
284
8
285
0
286
0
288
1
289
3
290
0
340
4C
342
84
371
-2
372
-2
  0
DIMSTYLE
105
88
330
4
100
AcDbSymbolTableRecord
100
AcDbDimStyleTableRecord
  2
EZ_RADIUS_INSIDE
 70
0
 40
1.0
 41
0.25
 42
0.125
 43
3.75
 44
0.375
 45
0.0
 46
0.0
 47
0.0
 48
0.0
 49
2.5
140
0.25
141
0.0
142
0.0
143
0.03937007874
144
100.0
145
0.0
146
0.5
147
0.1
148
0.0
 69
0
 70
0
 71
0
 72
0
 73
0
 74
0
 75
0
 76
0
 77
0
 78
12
 79
3
170
0
171
3
172
0
173
0
174
1
175
0
176
0
177
0
178
0
179
2
271
2
272
2
273
2
274
3
275
0
276
0
277
2
278
46
279
0
280
0
281
0
282
0
283
0
284
8
285
0
286
0
288
1
289
0
290
0
340
4C
342
84
371
-2
372
-2
  0
DIMSTYLE
105
89
330
4
100
AcDbSymbolTableRecord
100
AcDbDimStyleTableRecord
  2
EZ_CURVED
 70
0
 40
1.0
 41
0.25
 42
0.125
 43
3.75
 44
0.375
 45
0.0
 46
0.0
 47
0.0
 48
0.0
 49
2.5
140
0.25
141
2.5
142
0.0
143
0.03937007874
144
100.0
145
0.0
146
0.5
147
0.1
148
0.0
 69
0
 70
0
 71
0
 72
0
 73
0
 74
0
 75
0
 76
0
 77
1
 78
12
 79
2
 90
2
170
0
171
3
172
1
173
0
174
0
175
0
176
0
177
0
178
0
179
2
271
2
272
2
273
2
274
3
275
0
276
0
277
2
278
46
279
2
280
0
281
0
282
0
283
0
284
8
285
0
286
0
288
1
289
3
290
0
340
4C
371
-2
372
-2
  0
DIMSTYLE
105
96
330
4
100
AcDbSymbolTableRecord
100
AcDbDimStyleTableRecord
  2
AEROFORGE
 70
0
 40
1.0
 41
1.5
 42
0.5
 43
3.75
 44
0.8
 45
0.0
 46
0.0
 47
0.0
 48
0.0
 49
2.5
140
2.5
141
2.5
142
0.0
143
0.03937007874
144
1.0
145
0.0
146
1.0
147
0.6
148
0.0
 69
0
 70
0
 71
0
 72
0
 73
0
 74
0
 75
0
 76
0
 77
1
 78
8
 79
3
170
0
171
3
172
1
173
0
174
0
175
0
176
0
177
0
178
0
179
2
271
2
272
2
273
2
274
3
275
0
276
0
277
2
278
44
279
0
280
0
281
0
282
0
283
0
284
8
285
0
286
0
288
0
289
3
290
0
371
-2
372
-2
  0
ENDTAB
  0
TABLE
  2
BLOCK_RECORD
  5
9
330
0
100
AcDbSymbolTable
 70
7
  0
BLOCK_RECORD
  5
17
330
9
100
AcDbSymbolTableRecord
100
AcDbBlockTableRecord
  2
*Model_Space
340
1A
 70
0
280
1
281
0
  0
BLOCK_RECORD
  5
1B
330
9
100
AcDbSymbolTableRecord
100
AcDbBlockTableRecord
  2
*Paper_Space
340
1E
 70
0
280
1
281
0
  0
BLOCK_RECORD
  5
74
330
9
100
AcDbSymbolTableRecord
100
AcDbBlockTableRecord
  2
_ARCHTICK
340
0
 70
0
280
1
281
0
  0
BLOCK_RECORD
  5
78
330
9
100
AcDbSymbolTableRecord
100
AcDbBlockTableRecord
  2
_CLOSEDFILLED
340
0
 70
0
280
1
281
0
  0
BLOCK_RECORD
  5
84
330
9
100
AcDbSymbolTableRecord
100
AcDbBlockTableRecord
  2
_CLOSEDBLANK
340
0
 70
0
280
1
281
0
  0
BLOCK_RECORD
  5
1E2
330
9
100
AcDbSymbolTableRecord
100
AcDbBlockTableRecord
  2
*D1
340
0
 70
0
280
1
281
0
  0
BLOCK_RECORD
  5
1F1
330
9
100
AcDbSymbolTableRecord
100
AcDbBlockTableRecord
  2
*D2
340
0
 70
0
280
1
281
0
  0
ENDTAB
  0
ENDSEC
  0
SECTION
  2
BLOCKS
  0
BLOCK
  5
18
330
17
100
AcDbEntity
  8
0
100
AcDbBlockBegin
  2
*Model_Space
 70
0
 10
0.0
 20
0.0
 30
0.0
  3
*Model_Space
  1

  0
ENDBLK
  5
19
330
17
100
AcDbEntity
  8
0
100
AcDbBlockEnd
  0
BLOCK
  5
1C
330
1B
100
AcDbEntity
  8
0
100
AcDbBlockBegin
  2
*Paper_Space
 70
0
 10
0.0
 20
0.0
 30
0.0
  3
*Paper_Space
  1

  0
ENDBLK
  5
1D
330
1B
100
AcDbEntity
  8
0
100
AcDbBlockEnd
  0
BLOCK
  5
75
330
74
100
AcDbEntity
  8
0
100
AcDbBlockBegin
  2
_ARCHTICK
 70
0
 10
0.0
 20
0.0
 30
0.0
  3
_ARCHTICK
  1

  0
LWPOLYLINE
  5
77
330
74
100
AcDbEntity
  8
0
  6
BYBLOCK
 62
0
100
AcDbPolyline
 90
2
 70
0
 43
0.15
 10
-0.5
 20
-0.5
 10
0.5
 20
0.5
  0
ENDBLK
  5
76
330
74
100
AcDbEntity
  8
0
100
AcDbBlockEnd
  0
BLOCK
  5
79
330
78
100
AcDbEntity
  8
0
100
AcDbBlockBegin
  2
_CLOSEDFILLED
 70
0
 10
0.0
 20
0.0
 30
0.0
  3
_CLOSEDFILLED
  1

  0
SOLID
  5
7B
330
78
100
AcDbEntity
  8
0
  6
BYBLOCK
 62
0
100
AcDbTrace
 10
-1.0
 20
0.16439898372402537
 30
0.0
 11
0.0
 21
0.0
 31
0.0
 12
-1.0
 22
-0.16439898372402537
 32
0.0
 13
-1.0
 23
-0.16439898372402537
 33
0.0
  0
ENDBLK
  5
7A
330
78
100
AcDbEntity
  8
0
100
AcDbBlockEnd
  0
BLOCK
  5
85
330
84
100
AcDbEntity
  8
0
100
AcDbBlockBegin
  2
_CLOSEDBLANK
 70
0
 10
0.0
 20
0.0
 30
0.0
  3
_CLOSEDBLANK
  1

  0
LWPOLYLINE
  5
87
330
84
100
AcDbEntity
  8
0
  6
BYBLOCK
 62
0
100
AcDbPolyline
 90
3
 70
1
 10
-1.0
 20
0.16439898372402537
 10
0.0
 20
0.0
 10
-1.0
 20
-0.16439898372402537
  0
ENDBLK
  5
86
330
84
100
AcDbEntity
  8
0
100
AcDbBlockEnd
  0
BLOCK
  5
1E3
330
1E2
100
AcDbEntity
  8
0
100
AcDbBlockBegin
  2
*D1
 70
1
 10
0.0
 20
0.0
 30
0.0
  3
*D1
  1

  0
LINE
  5
1E5
330
1E2
100
AcDbEntity
  8
0
100
AcDbLine
 10
85.0
 20
117.875
 30
0.0
 11
85.0
 21
109.625
 31
0.0
  0
LINE
  5
1E6
330
1E2
100
AcDbEntity
  8
0
100
AcDbLine
 10
479.24
 20
117.875
 30
0.0
 11
479.24
 21
109.625
 31
0.0
  0
INSERT
  5
1E7
330
1E2
100
AcDbEntity
  8
DIMENSION
100
AcDbBlockReference
  2
_ARCHTICK
 10
85.0
 20
110.0
 30
0.0
 41
0.175
 42
0.175
 50
180.0
  0
INSERT
  5
1E9
330
1E2
100
AcDbEntity
  8
DIMENSION
100
AcDbBlockReference
  2
_ARCHTICK
 10
479.24
 20
110.0
 30
0.0
 41
0.175
 42
0.175
  0
LINE
  5
1EB
330
1E2
100
AcDbEntity
  8
0
100
AcDbLine
 10
85.0
 20
110.0
 30
0.0
 11
479.24
 21
110.0
 31
0.0
  0
MTEXT
  5
1EC
330
1E2
100
AcDbEntity
  8
DIMENSION
100
AcDbMText
 10
282.12
 20
110.225
 30
0.0
 40
0.25
 71
5
  1
39424
  7
OpenSansCondensed-Light
  0
POINT
  5
1ED
330
1E2
100
AcDbEntity
  8
Defpoints
100
AcDbPoint
 10
85.0
 20
110.0
 30
0.0
  0
POINT
  5
1EE
330
1E2
100
AcDbEntity
  8
Defpoints
100
AcDbPoint
 10
85.0
 20
118.0
 30
0.0
  0
POINT
  5
1EF
330
1E2
100
AcDbEntity
  8
Defpoints
100
AcDbPoint
 10
479.24
 20
118.0
 30
0.0
  0
ENDBLK
  5
1E4
330
1E2
100
AcDbEntity
  8
0
100
AcDbBlockEnd
  0
BLOCK
  5
1F2
330
1F1
100
AcDbEntity
  8
0
100
AcDbBlockBegin
  2
*D2
 70
1
 10
0.0
 20
0.0
 30
0.0
  3
*D2
  1

  0
LINE
  5
1F4
330
1F1
100
AcDbEntity
  8
0
100
AcDbLine
 10
67.875
 20
505.0
 30
0.0
 11
59.625
 21
505.0
 31
0.0
  0
LINE
  5
1F5
330
1F1
100
AcDbEntity
  8
0
100
AcDbLine
 10
67.875
 20
457.4
 30
0.0
 11
59.625
 21
457.4
 31
0.0
  0
INSERT
  5
1F6
330
1F1
100
AcDbEntity
  8
DIMENSION
100
AcDbBlockReference
  2
_ARCHTICK
 10
60.0
 20
505.0
 30
0.0
 41
0.175
 42
0.175
 50
270.0
  0
INSERT
  5
1F8
330
1F1
100
AcDbEntity
  8
DIMENSION
100
AcDbBlockReference
  2
_ARCHTICK
 10
60.0
 20
457.4
 30
0.0
 41
0.175
 42
0.175
 50
90.0
  0
LINE
  5
1FA
330
1F1
100
AcDbEntity
  8
0
100
AcDbLine
 10
60.0
 20
505.0
 30
0.0
 11
60.0
 21
457.4
 31
0.0
  0
MTEXT
  5
1FB
330
1F1
100
AcDbEntity
  8
DIMENSION
100
AcDbMText
 10
60.225
 20
481.2
 30
0.0
 40
0.25
 71
5
  1
4760
  7
OpenSansCondensed-Light
 50
90.0
  0
POINT
  5
1FC
330
1F1
100
AcDbEntity
  8
Defpoints
100
AcDbPoint
 10
60.0
 20
505.0
 30
0.0
  0
POINT
  5
1FD
330
1F1
100
AcDbEntity
  8
Defpoints
100
AcDbPoint
 10
68.0
 20
505.0
 30
0.0
  0
POINT
  5
1FE
330
1F1
100
AcDbEntity
  8
Defpoints
100
AcDbPoint
 10
68.0
 20
457.4
 30
0.0
  0
ENDBLK
  5
1F3
330
1F1
100
AcDbEntity
  8
0
100
AcDbBlockEnd
  0
ENDSEC
  0
SECTION
  2
ENTITIES
  0
LINE
  5
97
330
17
100
AcDbEntity
  8
BORDER
100
AcDbLine
 10
20.0
 20
10.0
 30
0.0
 11
831.0
 21
10.0
 31
0.0
  0
LINE
  5
98
330
17
100
AcDbEntity
  8
BORDER
100
AcDbLine
 10
831.0
 20
10.0
 30
0.0
 11
831.0
 21
584.0
 31
0.0
  0
LINE
  5
99
330
17
100
AcDbEntity
  8
BORDER
100
AcDbLine
 10
831.0
 20
584.0
 30
0.0
 11
20.0
 21
584.0
 31
0.0
  0
LINE
  5
9A
330
17
100
AcDbEntity
  8
BORDER
100
AcDbLine
 10
20.0
 20
584.0
 30
0.0
 11
20.0
 21
10.0
 31
0.0
  0
LINE
  5
9B
330
17
100
AcDbEntity
  8
BORDER
100
AcDbLine
 10
425.5
 20
5.0
 30
0.0
 11
425.5
 21
10.0
 31
0.0
  0
LINE
  5
9C
330
17
100
AcDbEntity
  8
BORDER
100
AcDbLine
 10
425.5
 20
584.0
 30
0.0
 11
425.5
 21
589.0
 31
0.0
  0
LINE
  5
9D
330
17
100
AcDbEntity
  8
BORDER
100
AcDbLine
 10
15.0
 20
297.0
 30
0.0
 11
20.0
 21
297.0
 31
0.0
  0
LINE
  5
9E
330
17
100
AcDbEntity
  8
BORDER
100
AcDbLine
 10
831.0
 20
297.0
 30
0.0
 11
836.0
 21
297.0
 31
0.0
  0
LINE
  5
9F
330
17
100
AcDbEntity
  8
BORDER
100
AcDbLine
 10
20.0
 20
81.75
 30
0.0
 11
23.0
 21
81.75
 31
0.0
  0
LINE
  5
A0
330
17
100
AcDbEntity
  8
BORDER
100
AcDbLine
 10
828.0
 20
81.75
 30
0.0
 11
831.0
 21
81.75
 31
0.0
  0
TEXT
  5
A1
330
17
100
AcDbEntity
  8
BORDER
100
AcDbText
 10
21.0
 20
44.875
 30
0.0
 40
2.5
  1
A
 11
21.0
 21
44.875
 31
0.0
100
AcDbText
  0
TEXT
  5
A2
330
17
100
AcDbEntity
  8
BORDER
100
AcDbText
 10
827.5
 20
44.875
 30
0.0
 40
2.5
  1
A
 11
827.5
 21
44.875
 31
0.0
100
AcDbText
  0
LINE
  5
A3
330
17
100
AcDbEntity
  8
BORDER
100
AcDbLine
 10
20.0
 20
153.5
 30
0.0
 11
23.0
 21
153.5
 31
0.0
  0
LINE
  5
A4
330
17
100
AcDbEntity
  8
BORDER
100
AcDbLine
 10
828.0
 20
153.5
 30
0.0
 11
831.0
 21
153.5
 31
0.0
  0
TEXT
  5
A5
330
17
100
AcDbEntity
  8
BORDER
100
AcDbText
 10
21.0
 20
116.625
 30
0.0
 40
2.5
  1
B
 11
21.0
 21
116.625
 31
0.0
100
AcDbText
  0
TEXT
  5
A6
330
17
100
AcDbEntity
  8
BORDER
100
AcDbText
 10
827.5
 20
116.625
 30
0.0
 40
2.5
  1
B
 11
827.5
 21
116.625
 31
0.0
100
AcDbText
  0
LINE
  5
A7
330
17
100
AcDbEntity
  8
BORDER
100
AcDbLine
 10
20.0
 20
225.25
 30
0.0
 11
23.0
 21
225.25
 31
0.0
  0
LINE
  5
A8
330
17
100
AcDbEntity
  8
BORDER
100
AcDbLine
 10
828.0
 20
225.25
 30
0.0
 11
831.0
 21
225.25
 31
0.0
  0
TEXT
  5
A9
330
17
100
AcDbEntity
  8
BORDER
100
AcDbText
 10
21.0
 20
188.375
 30
0.0
 40
2.5
  1
C
 11
21.0
 21
188.375
 31
0.0
100
AcDbText
  0
TEXT
  5
AA
330
17
100
AcDbEntity
  8
BORDER
100
AcDbText
 10
827.5
 20
188.375
 30
0.0
 40
2.5
  1
C
 11
827.5
 21
188.375
 31
0.0
100
AcDbText
  0
LINE
  5
AB
330
17
100
AcDbEntity
  8
BORDER
100
AcDbLine
 10
20.0
 20
297.0
 30
0.0
 11
23.0
 21
297.0
 31
0.0
  0
LINE
  5
AC
330
17
100
AcDbEntity
  8
BORDER
100
AcDbLine
 10
828.0
 20
297.0
 30
0.0
 11
831.0
 21
297.0
 31
0.0
  0
TEXT
  5
AD
330
17
100
AcDbEntity
  8
BORDER
100
AcDbText
 10
21.0
 20
260.125
 30
0.0
 40
2.5
  1
D
 11
21.0
 21
260.125
 31
0.0
100
AcDbText
  0
TEXT
  5
AE
330
17
100
AcDbEntity
  8
BORDER
100
AcDbText
 10
827.5
 20
260.125
 30
0.0
 40
2.5
  1
D
 11
827.5
 21
260.125
 31
0.0
100
AcDbText
  0
LINE
  5
AF
330
17
100
AcDbEntity
  8
BORDER
100
AcDbLine
 10
20.0
 20
368.75
 30
0.0
 11
23.0
 21
368.75
 31
0.0
  0
LINE
  5
B0
330
17
100
AcDbEntity
  8
BORDER
100
AcDbLine
 10
828.0
 20
368.75
 30
0.0
 11
831.0
 21
368.75
 31
0.0
  0
TEXT
  5
B1
330
17
100
AcDbEntity
  8
BORDER
100
AcDbText
 10
21.0
 20
331.875
 30
0.0
 40
2.5
  1
E
 11
21.0
 21
331.875
 31
0.0
100
AcDbText
  0
TEXT
  5
B2
330
17
100
AcDbEntity
  8
BORDER
100
AcDbText
 10
827.5
 20
331.875
 30
0.0
 40
2.5
  1
E
 11
827.5
 21
331.875
 31
0.0
100
AcDbText
  0
LINE
  5
B3
330
17
100
AcDbEntity
  8
BORDER
100
AcDbLine
 10
20.0
 20
440.5
 30
0.0
 11
23.0
 21
440.5
 31
0.0
  0
LINE
  5
B4
330
17
100
AcDbEntity
  8
BORDER
100
AcDbLine
 10
828.0
 20
440.5
 30
0.0
 11
831.0
 21
440.5
 31
0.0
  0
TEXT
  5
B5
330
17
100
AcDbEntity
  8
BORDER
100
AcDbText
 10
21.0
 20
403.625
 30
0.0
 40
2.5
  1
F
 11
21.0
 21
403.625
 31
0.0
100
AcDbText
  0
TEXT
  5
B6
330
17
100
AcDbEntity
  8
BORDER
100
AcDbText
 10
827.5
 20
403.625
 30
0.0
 40
2.5
  1
F
 11
827.5
 21
403.625
 31
0.0
100
AcDbText
  0
LINE
  5
B7
330
17
100
AcDbEntity
  8
BORDER
100
AcDbLine
 10
20.0
 20
512.25
 30
0.0
 11
23.0
 21
512.25
 31
0.0
  0
LINE
  5
B8
330
17
100
AcDbEntity
  8
BORDER
100
AcDbLine
 10
828.0
 20
512.25
 30
0.0
 11
831.0
 21
512.25
 31
0.0
  0
TEXT
  5
B9
330
17
100
AcDbEntity
  8
BORDER
100
AcDbText
 10
21.0
 20
475.375
 30
0.0
 40
2.5
  1
G
 11
21.0
 21
475.375
 31
0.0
100
AcDbText
  0
TEXT
  5
BA
330
17
100
AcDbEntity
  8
BORDER
100
AcDbText
 10
827.5
 20
475.375
 30
0.0
 40
2.5
  1
G
 11
827.5
 21
475.375
 31
0.0
100
AcDbText
  0
LINE
  5
BB
330
17
100
AcDbEntity
  8
BORDER
100
AcDbLine
 10
20.0
 20
584.0
 30
0.0
 11
23.0
 21
584.0
 31
0.0
  0
LINE
  5
BC
330
17
100
AcDbEntity
  8
BORDER
100
AcDbLine
 10
828.0
 20
584.0
 30
0.0
 11
831.0
 21
584.0
 31
0.0
  0
TEXT
  5
BD
330
17
100
AcDbEntity
  8
BORDER
100
AcDbText
 10
21.0
 20
547.125
 30
0.0
 40
2.5
  1
H
 11
21.0
 21
547.125
 31
0.0
100
AcDbText
  0
TEXT
  5
BE
330
17
100
AcDbEntity
  8
BORDER
100
AcDbText
 10
827.5
 20
547.125
 30
0.0
 40
2.5
  1
H
 11
827.5
 21
547.125
 31
0.0
100
AcDbText
  0
LINE
  5
BF
330
17
100
AcDbEntity
  8
BORDER
100
AcDbLine
 10
87.58333333333333
 20
10.0
 30
0.0
 11
87.58333333333333
 21
13.0
 31
0.0
  0
LINE
  5
C0
330
17
100
AcDbEntity
  8
BORDER
100
AcDbLine
 10
87.58333333333333
 20
581.0
 30
0.0
 11
87.58333333333333
 21
584.0
 31
0.0
  0
TEXT
  5
C1
330
17
100
AcDbEntity
  8
BORDER
100
AcDbText
 10
52.791666666666664
 20
10.5
 30
0.0
 40
2.0
  1
1
 11
52.791666666666664
 21
10.5
 31
0.0
100
AcDbText
  0
TEXT
  5
C2
330
17
100
AcDbEntity
  8
BORDER
100
AcDbText
 10
52.791666666666664
 20
581.0
 30
0.0
 40
2.0
  1
1
 11
52.791666666666664
 21
581.0
 31
0.0
100
AcDbText
  0
LINE
  5
C3
330
17
100
AcDbEntity
  8
BORDER
100
AcDbLine
 10
155.16666666666666
 20
10.0
 30
0.0
 11
155.16666666666666
 21
13.0
 31
0.0
  0
LINE
  5
C4
330
17
100
AcDbEntity
  8
BORDER
100
AcDbLine
 10
155.16666666666666
 20
581.0
 30
0.0
 11
155.16666666666666
 21
584.0
 31
0.0
  0
TEXT
  5
C5
330
17
100
AcDbEntity
  8
BORDER
100
AcDbText
 10
120.375
 20
10.5
 30
0.0
 40
2.0
  1
2
 11
120.375
 21
10.5
 31
0.0
100
AcDbText
  0
TEXT
  5
C6
330
17
100
AcDbEntity
  8
BORDER
100
AcDbText
 10
120.375
 20
581.0
 30
0.0
 40
2.0
  1
2
 11
120.375
 21
581.0
 31
0.0
100
AcDbText
  0
LINE
  5
C7
330
17
100
AcDbEntity
  8
BORDER
100
AcDbLine
 10
222.75
 20
10.0
 30
0.0
 11
222.75
 21
13.0
 31
0.0
  0
LINE
  5
C8
330
17
100
AcDbEntity
  8
BORDER
100
AcDbLine
 10
222.75
 20
581.0
 30
0.0
 11
222.75
 21
584.0
 31
0.0
  0
TEXT
  5
C9
330
17
100
AcDbEntity
  8
BORDER
100
AcDbText
 10
187.95833333333331
 20
10.5
 30
0.0
 40
2.0
  1
3
 11
187.95833333333331
 21
10.5
 31
0.0
100
AcDbText
  0
TEXT
  5
CA
330
17
100
AcDbEntity
  8
BORDER
100
AcDbText
 10
187.95833333333331
 20
581.0
 30
0.0
 40
2.0
  1
3
 11
187.95833333333331
 21
581.0
 31
0.0
100
AcDbText
  0
LINE
  5
CB
330
17
100
AcDbEntity
  8
BORDER
100
AcDbLine
 10
290.3333333333333
 20
10.0
 30
0.0
 11
290.3333333333333
 21
13.0
 31
0.0
  0
LINE
  5
CC
330
17
100
AcDbEntity
  8
BORDER
100
AcDbLine
 10
290.3333333333333
 20
581.0
 30
0.0
 11
290.3333333333333
 21
584.0
 31
0.0
  0
TEXT
  5
CD
330
17
100
AcDbEntity
  8
BORDER
100
AcDbText
 10
255.54166666666663
 20
10.5
 30
0.0
 40
2.0
  1
4
 11
255.54166666666663
 21
10.5
 31
0.0
100
AcDbText
  0
TEXT
  5
CE
330
17
100
AcDbEntity
  8
BORDER
100
AcDbText
 10
255.54166666666663
 20
581.0
 30
0.0
 40
2.0
  1
4
 11
255.54166666666663
 21
581.0
 31
0.0
100
AcDbText
  0
LINE
  5
CF
330
17
100
AcDbEntity
  8
BORDER
100
AcDbLine
 10
357.91666666666663
 20
10.0
 30
0.0
 11
357.91666666666663
 21
13.0
 31
0.0
  0
LINE
  5
D0
330
17
100
AcDbEntity
  8
BORDER
100
AcDbLine
 10
357.91666666666663
 20
581.0
 30
0.0
 11
357.91666666666663
 21
584.0
 31
0.0
  0
TEXT
  5
D1
330
17
100
AcDbEntity
  8
BORDER
100
AcDbText
 10
323.125
 20
10.5
 30
0.0
 40
2.0
  1
5
 11
323.125
 21
10.5
 31
0.0
100
AcDbText
  0
TEXT
  5
D2
330
17
100
AcDbEntity
  8
BORDER
100
AcDbText
 10
323.125
 20
581.0
 30
0.0
 40
2.0
  1
5
 11
323.125
 21
581.0
 31
0.0
100
AcDbText
  0
LINE
  5
D3
330
17
100
AcDbEntity
  8
BORDER
100
AcDbLine
 10
425.5
 20
10.0
 30
0.0
 11
425.5
 21
13.0
 31
0.0
  0
LINE
  5
D4
330
17
100
AcDbEntity
  8
BORDER
100
AcDbLine
 10
425.5
 20
581.0
 30
0.0
 11
425.5
 21
584.0
 31
0.0
  0
TEXT
  5
D5
330
17
100
AcDbEntity
  8
BORDER
100
AcDbText
 10
390.7083333333333
 20
10.5
 30
0.0
 40
2.0
  1
6
 11
390.7083333333333
 21
10.5
 31
0.0
100
AcDbText
  0
TEXT
  5
D6
330
17
100
AcDbEntity
  8
BORDER
100
AcDbText
 10
390.7083333333333
 20
581.0
 30
0.0
 40
2.0
  1
6
 11
390.7083333333333
 21
581.0
 31
0.0
100
AcDbText
  0
LINE
  5
D7
330
17
100
AcDbEntity
  8
BORDER
100
AcDbLine
 10
493.0833333333333
 20
10.0
 30
0.0
 11
493.0833333333333
 21
13.0
 31
0.0
  0
LINE
  5
D8
330
17
100
AcDbEntity
  8
BORDER
100
AcDbLine
 10
493.0833333333333
 20
581.0
 30
0.0
 11
493.0833333333333
 21
584.0
 31
0.0
  0
TEXT
  5
D9
330
17
100
AcDbEntity
  8
BORDER
100
AcDbText
 10
458.29166666666663
 20
10.5
 30
0.0
 40
2.0
  1
7
 11
458.29166666666663
 21
10.5
 31
0.0
100
AcDbText
  0
TEXT
  5
DA
330
17
100
AcDbEntity
  8
BORDER
100
AcDbText
 10
458.29166666666663
 20
581.0
 30
0.0
 40
2.0
  1
7
 11
458.29166666666663
 21
581.0
 31
0.0
100
AcDbText
  0
LINE
  5
DB
330
17
100
AcDbEntity
  8
BORDER
100
AcDbLine
 10
560.6666666666666
 20
10.0
 30
0.0
 11
560.6666666666666
 21
13.0
 31
0.0
  0
LINE
  5
DC
330
17
100
AcDbEntity
  8
BORDER
100
AcDbLine
 10
560.6666666666666
 20
581.0
 30
0.0
 11
560.6666666666666
 21
584.0
 31
0.0
  0
TEXT
  5
DD
330
17
100
AcDbEntity
  8
BORDER
100
AcDbText
 10
525.875
 20
10.5
 30
0.0
 40
2.0
  1
8
 11
525.875
 21
10.5
 31
0.0
100
AcDbText
  0
TEXT
  5
DE
330
17
100
AcDbEntity
  8
BORDER
100
AcDbText
 10
525.875
 20
581.0
 30
0.0
 40
2.0
  1
8
 11
525.875
 21
581.0
 31
0.0
100
AcDbText
  0
LINE
  5
DF
330
17
100
AcDbEntity
  8
BORDER
100
AcDbLine
 10
628.25
 20
10.0
 30
0.0
 11
628.25
 21
13.0
 31
0.0
  0
LINE
  5
E0
330
17
100
AcDbEntity
  8
BORDER
100
AcDbLine
 10
628.25
 20
581.0
 30
0.0
 11
628.25
 21
584.0
 31
0.0
  0
TEXT
  5
E1
330
17
100
AcDbEntity
  8
BORDER
100
AcDbText
 10
593.4583333333333
 20
10.5
 30
0.0
 40
2.0
  1
9
 11
593.4583333333333
 21
10.5
 31
0.0
100
AcDbText
  0
TEXT
  5
E2
330
17
100
AcDbEntity
  8
BORDER
100
AcDbText
 10
593.4583333333333
 20
581.0
 30
0.0
 40
2.0
  1
9
 11
593.4583333333333
 21
581.0
 31
0.0
100
AcDbText
  0
LINE
  5
E3
330
17
100
AcDbEntity
  8
BORDER
100
AcDbLine
 10
695.8333333333333
 20
10.0
 30
0.0
 11
695.8333333333333
 21
13.0
 31
0.0
  0
LINE
  5
E4
330
17
100
AcDbEntity
  8
BORDER
100
AcDbLine
 10
695.8333333333333
 20
581.0
 30
0.0
 11
695.8333333333333
 21
584.0
 31
0.0
  0
TEXT
  5
E5
330
17
100
AcDbEntity
  8
BORDER
100
AcDbText
 10
661.0416666666666
 20
10.5
 30
0.0
 40
2.0
  1
10
 11
661.0416666666666
 21
10.5
 31
0.0
100
AcDbText
  0
TEXT
  5
E6
330
17
100
AcDbEntity
  8
BORDER
100
AcDbText
 10
661.0416666666666
 20
581.0
 30
0.0
 40
2.0
  1
10
 11
661.0416666666666
 21
581.0
 31
0.0
100
AcDbText
  0
LINE
  5
E7
330
17
100
AcDbEntity
  8
BORDER
100
AcDbLine
 10
763.4166666666666
 20
10.0
 30
0.0
 11
763.4166666666666
 21
13.0
 31
0.0
  0
LINE
  5
E8
330
17
100
AcDbEntity
  8
BORDER
100
AcDbLine
 10
763.4166666666666
 20
581.0
 30
0.0
 11
763.4166666666666
 21
584.0
 31
0.0
  0
TEXT
  5
E9
330
17
100
AcDbEntity
  8
BORDER
100
AcDbText
 10
728.625
 20
10.5
 30
0.0
 40
2.0
  1
11
 11
728.625
 21
10.5
 31
0.0
100
AcDbText
  0
TEXT
  5
EA
330
17
100
AcDbEntity
  8
BORDER
100
AcDbText
 10
728.625
 20
581.0
 30
0.0
 40
2.0
  1
11
 11
728.625
 21
581.0
 31
0.0
100
AcDbText
  0
LINE
  5
EB
330
17
100
AcDbEntity
  8
BORDER
100
AcDbLine
 10
831.0
 20
10.0
 30
0.0
 11
831.0
 21
13.0
 31
0.0
  0
LINE
  5
EC
330
17
100
AcDbEntity
  8
BORDER
100
AcDbLine
 10
831.0
 20
581.0
 30
0.0
 11
831.0
 21
584.0
 31
0.0
  0
TEXT
  5
ED
330
17
100
AcDbEntity
  8
BORDER
100
AcDbText
 10
796.2083333333333
 20
10.5
 30
0.0
 40
2.0
  1
12
 11
796.2083333333333
 21
10.5
 31
0.0
100
AcDbText
  0
TEXT
  5
EE
330
17
100
AcDbEntity
  8
BORDER
100
AcDbText
 10
796.2083333333333
 20
581.0
 30
0.0
 40
2.0
  1
12
 11
796.2083333333333
 21
581.0
 31
0.0
100
AcDbText
  0
LINE
  5
EF
330
17
100
AcDbEntity
  8
TITLEBLOCK
100
AcDbLine
 10
661.0
 20
10.0
 30
0.0
 11
831.0
 21
10.0
 31
0.0
  0
LINE
  5
F0
330
17
100
AcDbEntity
  8
TITLEBLOCK
100
AcDbLine
 10
661.0
 20
46.0
 30
0.0
 11
831.0
 21
46.0
 31
0.0
  0
LINE
  5
F1
330
17
100
AcDbEntity
  8
TITLEBLOCK
100
AcDbLine
 10
661.0
 20
10.0
 30
0.0
 11
661.0
 21
46.0
 31
0.0
  0
LINE
  5
F2
330
17
100
AcDbEntity
  8
TITLEBLOCK
100
AcDbLine
 10
831.0
 20
10.0
 30
0.0
 11
831.0
 21
46.0
 31
0.0
  0
LINE
  5
F3
330
17
100
AcDbEntity
  8
TITLEBLOCK
100
AcDbLine
 10
661.0
 20
19.0
 30
0.0
 11
831.0
 21
19.0
 31
0.0
  0
LINE
  5
F4
330
17
100
AcDbEntity
  8
TITLEBLOCK
100
AcDbLine
 10
661.0
 20
28.0
 30
0.0
 11
831.0
 21
28.0
 31
0.0
  0
LINE
  5
F5
330
17
100
AcDbEntity
  8
TITLEBLOCK
100
AcDbLine
 10
661.0
 20
37.0
 30
0.0
 11
831.0
 21
37.0
 31
0.0
  0
TEXT
  5
F6
330
17
100
AcDbEntity
  8
TITLEBLOCK
100
AcDbText
 10
664.0
 20
39.0
 30
0.0
 40
3.5
  1
AEROFORGE — Wing_Half_Assembly
 11
664.0
 21
39.0
 31
0.0
100
AcDbText
  0
TEXT
  5
F7
330
17
100
AcDbEntity
  8
TITLEBLOCK
100
AcDbText
 10
664.0
 20
30.0
 30
0.0
 40
2.0
  1
Canonical half-wing parent drawing. Use this before panel decomposition.
 11
664.0
 21
30.0
 31
0.0
100
AcDbText
  0
TEXT
  5
F8
330
17
100
AcDbEntity
  8
TITLEBLOCK
100
AcDbText
 10
664.0
 20
21.0
 30
0.0
 40
2.0
  1
LW-PLA shells + CF-PLA ribs + 8mm/5mm CF spars + spruce rear spar
 11
664.0
 21
21.0
 31
0.0
100
AcDbText
  0
TEXT
  5
F9
330
17
100
AcDbEntity
  8
TITLEBLOCK
100
AcDbText
 10
664.0
 20
12.0
 30
0.0
 40
1.8
  1
Scale: 1:3 / 1:2 detail | Units: mm | Date: 2026-03-30 | Mass: 215g target with contingency | Rev: v2 | Status: FOR ITERATION
 11
664.0
 21
12.0
 31
0.0
100
AcDbText
  0
LINE
  5
FA
330
17
100
AcDbEntity
  8
TITLEBLOCK
100
AcDbLine
 10
811.0
 20
12.0
 30
0.0
 11
819.0
 21
12.0
 31
0.0
  0
LINE
  5
FB
330
17
100
AcDbEntity
  8
TITLEBLOCK
100
AcDbLine
 10
813.0
 20
18.0
 30
0.0
 11
817.0
 21
18.0
 31
0.0
  0
LINE
  5
FC
330
17
100
AcDbEntity
  8
TITLEBLOCK
100
AcDbLine
 10
811.0
 20
12.0
 30
0.0
 11
813.0
 21
18.0
 31
0.0
  0
LINE
  5
FD
330
17
100
AcDbEntity
  8
TITLEBLOCK
100
AcDbLine
 10
819.0
 20
12.0
 30
0.0
 11
817.0
 21
18.0
 31
0.0
  0
CIRCLE
  5
FE
330
17
100
AcDbEntity
  8
TITLEBLOCK
100
AcDbCircle
 10
807.0
 20
15.0
 30
0.0
 40
3.0
  0
LINE
  5
FF
330
17
100
AcDbEntity
  8
TITLEBLOCK
100
AcDbLine
 10
810.0
 20
15.0
 30
0.0
 11
811.0
 21
15.0
 31
0.0
  0
LINE
  5
100
330
17
100
AcDbEntity
  8
ORIENTATION
100
AcDbLine
 10
45.0
 20
569.0
 30
0.0
 11
30.0
 21
569.0
 31
0.0
  0
LINE
  5
101
330
17
100
AcDbEntity
  8
ORIENTATION
100
AcDbLine
 10
30.0
 20
569.0
 30
0.0
 11
32.0
 21
570.0
 31
0.0
  0
LINE
  5
102
330
17
100
AcDbEntity
  8
ORIENTATION
100
AcDbLine
 10
30.0
 20
569.0
 30
0.0
 11
32.0
 21
568.0
 31
0.0
  0
TEXT
  5
103
330
17
100
AcDbEntity
  8
ORIENTATION
100
AcDbText
 10
29.0
 20
571.0
 30
0.0
 40
2.5
  1
FWD
 11
29.0
 21
571.0
 31
0.0
100
AcDbText
  0
LINE
  5
104
330
17
100
AcDbEntity
  8
ORIENTATION
100
AcDbLine
 10
50.0
 20
584.0
 30
0.0
 11
50.0
 21
569.0
 31
0.0
  0
LINE
  5
105
330
17
100
AcDbEntity
  8
ORIENTATION
100
AcDbLine
 10
50.0
 20
569.0
 30
0.0
 11
49.0
 21
571.0
 31
0.0
  0
LINE
  5
106
330
17
100
AcDbEntity
  8
ORIENTATION
100
AcDbLine
 10
50.0
 20
569.0
 30
0.0
 11
51.0
 21
571.0
 31
0.0
  0
TEXT
  5
107
330
17
100
AcDbEntity
  8
ORIENTATION
100
AcDbText
 10
52.0
 20
571.0
 30
0.0
 40
2.0
  1
INBD
 11
52.0
 21
571.0
 31
0.0
100
AcDbText
  0
TEXT
  5
108
330
17
100
AcDbEntity
  8
TEXT
100
AcDbText
 10
85.0
 20
530.0
 30
0.0
 40
4.2
  1
TOP VIEW — WING HALF ASSEMBLY
 11
85.0
 21
530.0
 31
0.0
100
AcDbText
  0
LINE
  5
109
330
17
100
AcDbEntity
  8
OUTLINE
100
AcDbLine
 10
85.0
 20
505.0
 30
0.0
 11
97.32
 21
504.99723559316675
 31
0.0
  0
LINE
  5
10A
330
17
100
AcDbEntity
  8
OUTLINE
100
AcDbLine
 10
85.0
 20
457.4
 30
0.0
 11
97.32
 21
457.40366444626727
 31
0.0
  0
LINE
  5
10B
330
17
100
AcDbEntity
  8
OUTLINE
100
AcDbLine
 10
97.32
 20
504.99723559316675
 30
0.0
 11
109.64
 21
504.98772423359287
 31
0.0
  0
LINE
  5
10C
330
17
100
AcDbEntity
  8
OUTLINE
100
AcDbLine
 10
97.32
 20
457.40366444626727
 30
0.0
 11
109.64
 21
457.41627252756285
 31
0.0
  0
LINE
  5
10D
330
17
100
AcDbEntity
  8
OUTLINE
100
AcDbLine
 10
109.64
 20
504.98772423359287
 30
0.0
 11
121.96000000000001
 21
504.97061926852314
 31
0.0
  0
LINE
  5
10E
330
17
100
AcDbEntity
  8
OUTLINE
100
AcDbLine
 10
109.64
 20
457.41627252756285
 30
0.0
 11
121.96000000000001
 21
457.43894655102747
 31
0.0
  0
LINE
  5
10F
330
17
100
AcDbEntity
  8
OUTLINE
100
AcDbLine
 10
121.96000000000001
 20
504.97061926852314
 30
0.0
 11
134.28
 21
504.94538677955956
 31
0.0
  0
LINE
  5
110
330
17
100
AcDbEntity
  8
OUTLINE
100
AcDbLine
 10
121.96000000000001
 20
457.43894655102747
 30
0.0
 11
134.28
 21
457.4723942689559
 31
0.0
  0
LINE
  5
111
330
17
100
AcDbEntity
  8
OUTLINE
100
AcDbLine
 10
134.28
 20
504.94538677955956
 30
0.0
 11
146.60000000000002
 21
504.91159402142654
 31
0.0
  0
LINE
  5
112
330
17
100
AcDbEntity
  8
OUTLINE
100
AcDbLine
 10
134.28
 20
457.4723942689559
 30
0.0
 11
146.60000000000002
 21
457.5171893204345
 31
0.0
  0
LINE
  5
113
330
17
100
AcDbEntity
  8
OUTLINE
100
AcDbLine
 10
146.60000000000002
 20
504.91159402142654
 30
0.0
 11
158.92000000000002
 21
504.86884958781053
 31
0.0
  0
LINE
  5
114
330
17
100
AcDbEntity
  8
OUTLINE
100
AcDbLine
 10
146.60000000000002
 20
457.5171893204345
 30
0.0
 11
158.92000000000002
 21
457.5738505463907
 31
0.0
  0
LINE
  5
115
330
17
100
AcDbEntity
  8
OUTLINE
100
AcDbLine
 10
158.92000000000002
 20
504.86884958781053
 30
0.0
 11
171.24
 21
504.8167747733037
 31
0.0
  0
LINE
  5
116
330
17
100
AcDbEntity
  8
OUTLINE
100
AcDbLine
 10
158.92000000000002
 20
457.5738505463907
 30
0.0
 11
171.24
 21
457.64287995166717
 31
0.0
  0
LINE
  5
117
330
17
100
AcDbEntity
  8
OUTLINE
100
AcDbLine
 10
171.24
 20
504.8167747733037
 30
0.0
 11
183.56
 21
504.75498606623455
 31
0.0
  0
LINE
  5
118
330
17
100
AcDbEntity
  8
OUTLINE
100
AcDbLine
 10
171.24
 20
457.64287995166717
 30
0.0
 11
183.56
 21
457.7247859122007
 31
0.0
  0
LINE
  5
119
330
17
100
AcDbEntity
  8
OUTLINE
100
AcDbLine
 10
183.56
 20
504.75498606623455
 30
0.0
 11
195.88
 21
504.68308237642714
 31
0.0
  0
LINE
  5
11A
330
17
100
AcDbEntity
  8
OUTLINE
100
AcDbLine
 10
183.56
 20
457.7247859122007
 30
0.0
 11
195.88
 21
457.82010010566626
 31
0.0
  0
LINE
  5
11B
330
17
100
AcDbEntity
  8
OUTLINE
100
AcDbLine
 10
195.88
 20
504.68308237642714
 30
0.0
 11
208.20000000000002
 21
504.60063428120907
 31
0.0
  0
LINE
  5
11C
330
17
100
AcDbEntity
  8
OUTLINE
100
AcDbLine
 10
195.88
 20
457.82010010566626
 30
0.0
 11
208.20000000000002
 21
457.9293917667693
 31
0.0
  0
LINE
  5
11D
330
17
100
AcDbEntity
  8
OUTLINE
100
AcDbLine
 10
208.20000000000002
 20
504.60063428120907
 30
0.0
 11
220.52
 21
504.50717385649375
 31
0.0
  0
LINE
  5
11E
330
17
100
AcDbEntity
  8
OUTLINE
100
AcDbLine
 10
208.20000000000002
 20
457.9293917667693
 30
0.0
 11
220.52
 21
458.0532811669733
 31
0.0
  0
LINE
  5
11F
330
17
100
AcDbEntity
  8
OUTLINE
100
AcDbLine
 10
220.52
 20
504.50717385649375
 30
0.0
 11
232.84
 21
504.40218415845493
 31
0.0
  0
LINE
  5
120
330
17
100
AcDbEntity
  8
OUTLINE
100
AcDbLine
 10
220.52
 20
458.0532811669733
 30
0.0
 11
232.84
 21
458.19245355739685
 31
0.0
  0
LINE
  5
121
330
17
100
AcDbEntity
  8
OUTLINE
100
AcDbLine
 10
232.84
 20
504.40218415845493
 30
0.0
 11
245.16000000000003
 21
504.2850875972076
 31
0.0
  0
LINE
  5
122
330
17
100
AcDbEntity
  8
OUTLINE
100
AcDbLine
 10
232.84
 20
458.19245355739685
 30
0.0
 11
245.16000000000003
 21
458.34767458044564
 31
0.0
  0
LINE
  5
123
330
17
100
AcDbEntity
  8
OUTLINE
100
AcDbLine
 10
245.16000000000003
 20
504.2850875972076
 30
0.0
 11
257.48
 21
504.15523245077554
 31
0.0
  0
LINE
  5
124
330
17
100
AcDbEntity
  8
OUTLINE
100
AcDbLine
 10
245.16000000000003
 20
458.34767458044564
 30
0.0
 11
257.48
 21
458.5198081466463
 31
0.0
  0
LINE
  5
125
330
17
100
AcDbEntity
  8
OUTLINE
100
AcDbLine
 10
257.48
 20
504.15523245077554
 30
0.0
 11
269.8
 21
504.011876653835
 31
0.0
  0
LINE
  5
126
330
17
100
AcDbEntity
  8
OUTLINE
100
AcDbLine
 10
257.48
 20
458.5198081466463
 30
0.0
 11
269.8
 21
458.70983792398613
 31
0.0
  0
LINE
  5
127
330
17
100
AcDbEntity
  8
OUTLINE
100
AcDbLine
 10
269.8
 20
504.011876653835
 30
0.0
 11
282.12
 21
503.8541677619142
 31
0.0
  0
LINE
  5
128
330
17
100
AcDbEntity
  8
OUTLINE
100
AcDbLine
 10
269.8
 20
458.70983792398613
 30
0.0
 11
282.12
 21
458.91889389699736
 31
0.0
  0
LINE
  5
129
330
17
100
AcDbEntity
  8
OUTLINE
100
AcDbLine
 10
282.12
 20
503.8541677619142
 30
0.0
 11
294.44000000000005
 21
503.6811176051981
 31
0.0
  0
LINE
  5
12A
330
17
100
AcDbEntity
  8
OUTLINE
100
AcDbLine
 10
282.12
 20
458.91889389699736
 30
0.0
 11
294.44000000000005
 21
459.1482859652025
 31
0.0
  0
LINE
  5
12B
330
17
100
AcDbEntity
  8
OUTLINE
100
AcDbLine
 10
294.44000000000005
 20
503.6811176051981
 30
0.0
 11
306.76
 21
503.4915695364381
 31
0.0
  0
LINE
  5
12C
330
17
100
AcDbEntity
  8
OUTLINE
100
AcDbLine
 10
294.44000000000005
 20
459.1482859652025
 30
0.0
 11
306.76
 21
459.399547358675
 31
0.0
  0
LINE
  5
12D
330
17
100
AcDbEntity
  8
OUTLINE
100
AcDbLine
 10
306.76
 20
503.4915695364381
 30
0.0
 11
319.08000000000004
 21
503.2841552166324
 31
0.0
  0
LINE
  5
12E
330
17
100
AcDbEntity
  8
OUTLINE
100
AcDbLine
 10
306.76
 20
459.399547358675
 30
0.0
 11
319.08000000000004
 21
459.67449192213843
 31
0.0
  0
LINE
  5
12F
330
17
100
AcDbEntity
  8
OUTLINE
100
AcDbLine
 10
319.08000000000004
 20
503.2841552166324
 30
0.0
 11
331.40000000000003
 21
503.057236340995
 31
0.0
  0
LINE
  5
130
330
17
100
AcDbEntity
  8
OUTLINE
100
AcDbLine
 10
319.08000000000004
 20
459.67449192213843
 30
0.0
 11
331.40000000000003
 21
459.97529136193674
 31
0.0
  0
LINE
  5
131
330
17
100
AcDbEntity
  8
OUTLINE
100
AcDbLine
 10
331.40000000000003
 20
503.057236340995
 30
0.0
 11
343.72
 21
502.8088241673495
 31
0.0
  0
LINE
  5
132
330
17
100
AcDbEntity
  8
OUTLINE
100
AcDbLine
 10
331.40000000000003
 20
459.97529136193674
 30
0.0
 11
343.72
 21
460.3045819176995
 31
0.0
  0
LINE
  5
133
330
17
100
AcDbEntity
  8
OUTLINE
100
AcDbLine
 10
343.72
 20
502.8088241673495
 30
0.0
 11
356.04
 21
502.5364653746621
 31
0.0
  0
LINE
  5
134
330
17
100
AcDbEntity
  8
OUTLINE
100
AcDbLine
 10
343.72
 20
460.3045819176995
 30
0.0
 11
356.04
 21
460.6656156661455
 31
0.0
  0
LINE
  5
135
330
17
100
AcDbEntity
  8
OUTLINE
100
AcDbLine
 10
356.04
 20
502.5364653746621
 30
0.0
 11
368.36
 21
502.23707507112374
 31
0.0
  0
LINE
  5
136
330
17
100
AcDbEntity
  8
OUTLINE
100
AcDbLine
 10
356.04
 20
460.6656156661455
 30
0.0
 11
368.36
 21
461.06248188246377
 31
0.0
  0
LINE
  5
137
330
17
100
AcDbEntity
  8
OUTLINE
100
AcDbLine
 10
368.36
 20
502.23707507112374
 30
0.0
 11
380.68
 21
501.906683368147
 31
0.0
  0
LINE
  5
138
330
17
100
AcDbEntity
  8
OUTLINE
100
AcDbLine
 10
368.36
 20
461.06248188246377
 30
0.0
 11
380.68
 21
461.50044297710735
 31
0.0
  0
LINE
  5
139
330
17
100
AcDbEntity
  8
OUTLINE
100
AcDbLine
 10
380.68
 20
501.906683368147
 30
0.0
 11
393.00000000000006
 21
501.5400333749718
 31
0.0
  0
LINE
  5
13A
330
17
100
AcDbEntity
  8
OUTLINE
100
AcDbLine
 10
380.68
 20
461.50044297710735
 30
0.0
 11
393.00000000000006
 21
461.98646738666525
 31
0.0
  0
LINE
  5
13B
330
17
100
AcDbEntity
  8
OUTLINE
100
AcDbLine
 10
393.00000000000006
 20
501.5400333749718
 30
0.0
 11
405.32000000000005
 21
501.12990754885107
 31
0.0
  0
LINE
  5
13C
330
17
100
AcDbEntity
  8
OUTLINE
100
AcDbLine
 10
393.00000000000006
 20
461.98646738666525
 30
0.0
 11
405.32000000000005
 21
462.5301225515229
 31
0.0
  0
LINE
  5
13D
330
17
100
AcDbEntity
  8
OUTLINE
100
AcDbLine
 10
405.32000000000005
 20
501.12990754885107
 30
0.0
 11
417.64000000000004
 21
500.66591694165425
 31
0.0
  0
LINE
  5
13E
330
17
100
AcDbEntity
  8
OUTLINE
100
AcDbLine
 10
405.32000000000005
 20
462.5301225515229
 30
0.0
 11
417.64000000000004
 21
463.1451798680397
 31
0.0
  0
LINE
  5
13F
330
17
100
AcDbEntity
  8
OUTLINE
100
AcDbLine
 10
417.64000000000004
 20
500.66591694165425
 30
0.0
 11
429.96000000000004
 21
500.1321129267358
 31
0.0
  0
LINE
  5
140
330
17
100
AcDbEntity
  8
OUTLINE
100
AcDbLine
 10
417.64000000000004
 20
463.1451798680397
 30
0.0
 11
429.96000000000004
 21
463.8527805389781
 31
0.0
  0
LINE
  5
141
330
17
100
AcDbEntity
  8
OUTLINE
100
AcDbLine
 10
429.96000000000004
 20
500.1321129267358
 30
0.0
 11
442.28000000000003
 21
499.50161847448254
 31
0.0
  0
LINE
  5
142
330
17
100
AcDbEntity
  8
OUTLINE
100
AcDbLine
 10
429.96000000000004
 20
463.8527805389781
 30
0.0
 11
442.28000000000003
 21
464.6885522547557
 31
0.0
  0
LINE
  5
143
330
17
100
AcDbEntity
  8
OUTLINE
100
AcDbLine
 10
442.28000000000003
 20
499.50161847448254
 30
0.0
 11
454.6
 21
498.7218795615613
 31
0.0
  0
LINE
  5
144
330
17
100
AcDbEntity
  8
OUTLINE
100
AcDbLine
 10
442.28000000000003
 20
464.6885522547557
 30
0.0
 11
454.6
 21
465.7221596509536
 31
0.0
  0
LINE
  5
145
330
17
100
AcDbEntity
  8
OUTLINE
100
AcDbLine
 10
454.6
 20
498.7218795615613
 30
0.0
 11
466.92
 21
497.6562896064057
 31
0.0
  0
LINE
  5
146
330
17
100
AcDbEntity
  8
OUTLINE
100
AcDbLine
 10
454.6
 20
465.7221596509536
 30
0.0
 11
466.92
 21
467.13468587057844
 31
0.0
  0
LINE
  5
147
330
17
100
AcDbEntity
  8
OUTLINE
100
AcDbLine
 10
466.92
 20
497.6562896064057
 30
0.0
 11
479.24
 21
494.76599999999996
 31
0.0
  0
LINE
  5
148
330
17
100
AcDbEntity
  8
OUTLINE
100
AcDbLine
 10
466.92
 20
467.13468587057844
 30
0.0
 11
479.24
 21
470.96599999999995
 31
0.0
  0
LINE
  5
149
330
17
100
AcDbEntity
  8
OUTLINE
100
AcDbLine
 10
85.0
 20
505.0
 30
0.0
 11
85.0
 21
457.4
 31
0.0
  0
LWPOLYLINE
  5
14A
330
17
100
AcDbEntity
  8
OUTLINE
100
AcDbPolyline
 90
9
 70
0
 10
479.24
 20
470.966
 10
482.7009889623099
 20
471.8718335631157
 10
485.63507372905116
 20
474.45142930388005
 10
487.5955664920321
 20
478.3120671548554
 10
488.284
 20
482.866
 10
487.5955664920321
 20
487.41993284514456
 10
485.63507372905116
 20
491.2805706961199
 10
482.7009889623099
 20
493.8601664368843
 10
479.24
 20
494.76599999999996
  0
LINE
  5
14B
330
17
100
AcDbEntity
  8
SECTION
100
AcDbLine
 10
156.68
 20
504.87730422184984
 30
0.0
 11
156.68
 21
457.5626432408037
 31
0.0
  0
TEXT
  5
14C
330
17
100
AcDbEntity
  8
TEXT
100
AcDbText
 10
144.68
 20
495.87730422184984
 30
0.0
 40
2.0
  1
P1
 11
144.68
 21
495.87730422184984
 31
0.0
100
AcDbText
  0
LINE
  5
14D
330
17
100
AcDbEntity
  8
SECTION
100
AcDbLine
 10
228.36
 20
504.4417312002998
 30
0.0
 11
228.36
 21
458.14003073448623
 31
0.0
  0
TEXT
  5
14E
330
17
100
AcDbEntity
  8
TEXT
100
AcDbText
 10
216.36
 20
495.4417312002998
 30
0.0
 40
2.0
  1
P2
 11
216.36
 21
495.4417312002998
 31
0.0
100
AcDbText
  0
LINE
  5
14F
330
17
100
AcDbEntity
  8
SECTION
100
AcDbLine
 10
300.04
 20
503.5970813382633
 30
0.0
 11
300.04
 21
459.2596828771858
 31
0.0
  0
TEXT
  5
150
330
17
100
AcDbEntity
  8
TEXT
100
AcDbText
 10
288.04
 20
494.5970813382633
 30
0.0
 40
2.0
  1
P3
 11
288.04
 21
494.5970813382633
 31
0.0
100
AcDbText
  0
LINE
  5
151
330
17
100
AcDbEntity
  8
SECTION
100
AcDbLine
 10
371.72
 20
502.1502363140674
 30
0.0
 11
371.72
 21
461.1775937232129
 31
0.0
  0
TEXT
  5
152
330
17
100
AcDbEntity
  8
TEXT
100
AcDbText
 10
359.72
 20
493.1502363140674
 30
0.0
 40
2.0
  1
P4
 11
359.72
 21
493.1502363140674
 31
0.0
100
AcDbText
  0
LINE
  5
153
330
17
100
AcDbEntity
  8
SECTION
100
AcDbLine
 10
443.40000000000003
 20
499.43803373207385
 30
0.0
 11
443.40000000000003
 21
464.7728390063206
 31
0.0
  0
TEXT
  5
154
330
17
100
AcDbEntity
  8
TEXT
100
AcDbText
 10
431.40000000000003
 20
490.43803373207385
 30
0.0
 40
2.0
  1
P5
 11
431.40000000000003
 21
490.43803373207385
 31
0.0
100
AcDbText
  0
TEXT
  5
155
330
17
100
AcDbEntity
  8
TEXT
100
AcDbText
 10
461.24
 20
485.76599999999996
 30
0.0
 40
2.0
  1
TIP
 11
461.24
 21
485.76599999999996
 31
0.0
100
AcDbText
  0
LINE
  5
156
330
17
100
AcDbEntity
  8
SPAR
100
AcDbLine
 10
85.0
 20
493.1
 30
0.0
 11
97.32
 21
493.0988428064419
 31
0.0
  0
LINE
  5
157
330
17
100
AcDbEntity
  8
SPAR
100
AcDbLine
 10
97.32
 20
493.0988428064419
 30
0.0
 11
109.64
 21
493.09486130708535
 31
0.0
  0
LINE
  5
158
330
17
100
AcDbEntity
  8
SPAR
100
AcDbLine
 10
109.64
 20
493.09486130708535
 30
0.0
 11
121.96000000000001
 21
493.0877010891492
 31
0.0
  0
LINE
  5
159
330
17
100
AcDbEntity
  8
SPAR
100
AcDbLine
 10
121.96000000000001
 20
493.0877010891492
 30
0.0
 11
134.28
 21
493.0771386519086
 31
0.0
  0
LINE
  5
15A
330
17
100
AcDbEntity
  8
SPAR
100
AcDbLine
 10
134.28
 20
493.0771386519086
 30
0.0
 11
146.60000000000002
 21
493.06299284617853
 31
0.0
  0
LINE
  5
15B
330
17
100
AcDbEntity
  8
SPAR
100
AcDbLine
 10
146.60000000000002
 20
493.06299284617853
 30
0.0
 11
158.92000000000002
 21
493.0450998274556
 31
0.0
  0
LINE
  5
15C
330
17
100
AcDbEntity
  8
SPAR
100
AcDbLine
 10
158.92000000000002
 20
493.0450998274556
 30
0.0
 11
171.24
 21
493.0233010678945
 31
0.0
  0
LINE
  5
15D
330
17
100
AcDbEntity
  8
SPAR
100
AcDbLine
 10
171.24
 20
493.0233010678945
 30
0.0
 11
183.56
 21
492.99743602772605
 31
0.0
  0
LINE
  5
15E
330
17
100
AcDbEntity
  8
SPAR
100
AcDbLine
 10
183.56
 20
492.99743602772605
 30
0.0
 11
195.88
 21
492.9673368087369
 31
0.0
  0
LINE
  5
15F
330
17
100
AcDbEntity
  8
SPAR
100
AcDbLine
 10
195.88
 20
492.9673368087369
 30
0.0
 11
208.20000000000002
 21
492.93282365259915
 31
0.0
  0
LINE
  5
160
330
17
100
AcDbEntity
  8
SPAR
100
AcDbLine
 10
208.20000000000002
 20
492.93282365259915
 30
0.0
 11
220.52
 21
492.89370068411364
 31
0.0
  0
LINE
  5
161
330
17
100
AcDbEntity
  8
SPAR
100
AcDbLine
 10
220.52
 20
492.89370068411364
 30
0.0
 11
232.84
 21
492.8497515081904
 31
0.0
  0
LINE
  5
162
330
17
100
AcDbEntity
  8
SPAR
100
AcDbLine
 10
232.84
 20
492.8497515081904
 30
0.0
 11
245.16000000000003
 21
492.80073434301715
 31
0.0
  0
LINE
  5
163
330
17
100
AcDbEntity
  8
SPAR
100
AcDbLine
 10
245.16000000000003
 20
492.80073434301715
 30
0.0
 11
257.48
 21
492.74637637474325
 31
0.0
  0
LINE
  5
164
330
17
100
AcDbEntity
  8
SPAR
100
AcDbLine
 10
257.48
 20
492.74637637474325
 30
0.0
 11
269.8
 21
492.68636697137276
 31
0.0
  0
LINE
  5
165
330
17
100
AcDbEntity
  8
SPAR
100
AcDbLine
 10
269.8
 20
492.68636697137276
 30
0.0
 11
282.12
 21
492.620349295685
 31
0.0
  0
LINE
  5
166
330
17
100
AcDbEntity
  8
SPAR
100
AcDbLine
 10
282.12
 20
492.620349295685
 30
0.0
 11
294.44000000000005
 21
492.54790969519917
 31
0.0
  0
LINE
  5
167
330
17
100
AcDbEntity
  8
SPAR
100
AcDbLine
 10
294.44000000000005
 20
492.54790969519917
 30
0.0
 11
306.76
 21
492.4685639919973
 31
0.0
  0
LINE
  5
168
330
17
100
AcDbEntity
  8
SPAR
100
AcDbLine
 10
306.76
 20
492.4685639919973
 30
0.0
 11
319.08000000000004
 21
492.38173939300896
 31
0.0
  0
LINE
  5
169
330
17
100
AcDbEntity
  8
SPAR
100
AcDbLine
 10
319.08000000000004
 20
492.38173939300896
 30
0.0
 11
331.40000000000003
 21
492.28675009623043
 31
0.0
  0
LINE
  5
16A
330
17
100
AcDbEntity
  8
SPAR
100
AcDbLine
 10
331.40000000000003
 20
492.28675009623043
 30
0.0
 11
343.72
 21
492.182763604937
 31
0.0
  0
LINE
  5
16B
330
17
100
AcDbEntity
  8
SPAR
100
AcDbLine
 10
343.72
 20
492.182763604937
 30
0.0
 11
356.04
 21
492.06875294753297
 31
0.0
  0
LINE
  5
16C
330
17
100
AcDbEntity
  8
SPAR
100
AcDbLine
 10
356.04
 20
492.06875294753297
 30
0.0
 11
368.36
 21
491.9434267739588
 31
0.0
  0
LINE
  5
16D
330
17
100
AcDbEntity
  8
SPAR
100
AcDbLine
 10
368.36
 20
491.9434267739588
 30
0.0
 11
380.68
 21
491.80512327038707
 31
0.0
  0
LINE
  5
16E
330
17
100
AcDbEntity
  8
SPAR
100
AcDbLine
 10
380.68
 20
491.80512327038707
 30
0.0
 11
393.00000000000006
 21
491.6516418778952
 31
0.0
  0
LINE
  5
16F
330
17
100
AcDbEntity
  8
SPAR
100
AcDbLine
 10
393.00000000000006
 20
491.6516418778952
 30
0.0
 11
405.32000000000005
 21
491.479961299519
 31
0.0
  0
LINE
  5
170
330
17
100
AcDbEntity
  8
SPAR
100
AcDbLine
 10
85.0
 20
476.44
 30
0.0
 11
97.32
 21
476.44109290502706
 31
0.0
  0
LINE
  5
171
330
17
100
AcDbEntity
  8
SPAR
100
AcDbLine
 10
97.32
 20
476.44109290502706
 30
0.0
 11
109.64
 21
476.4448532099749
 31
0.0
  0
LINE
  5
172
330
17
100
AcDbEntity
  8
SPAR
100
AcDbLine
 10
109.64
 20
476.4448532099749
 30
0.0
 11
121.96000000000001
 21
476.4516156380257
 31
0.0
  0
LINE
  5
173
330
17
100
AcDbEntity
  8
SPAR
100
AcDbLine
 10
121.96000000000001
 20
476.4516156380257
 30
0.0
 11
134.28
 21
476.46159127319737
 31
0.0
  0
LINE
  5
174
330
17
100
AcDbEntity
  8
SPAR
100
AcDbLine
 10
134.28
 20
476.46159127319737
 30
0.0
 11
146.60000000000002
 21
476.4749512008313
 31
0.0
  0
LINE
  5
175
330
17
100
AcDbEntity
  8
SPAR
100
AcDbLine
 10
146.60000000000002
 20
476.4749512008313
 30
0.0
 11
158.92000000000002
 21
476.49185016295866
 31
0.0
  0
LINE
  5
176
330
17
100
AcDbEntity
  8
SPAR
100
AcDbLine
 10
158.92000000000002
 20
476.49185016295866
 30
0.0
 11
171.24
 21
476.5124378803218
 31
0.0
  0
LINE
  5
177
330
17
100
AcDbEntity
  8
SPAR
100
AcDbLine
 10
171.24
 20
476.5124378803218
 30
0.0
 11
183.56
 21
476.5368659738142
 31
0.0
  0
LINE
  5
178
330
17
100
AcDbEntity
  8
SPAR
100
AcDbLine
 10
183.56
 20
476.5368659738142
 30
0.0
 11
195.88
 21
476.56529301397063
 31
0.0
  0
LINE
  5
179
330
17
100
AcDbEntity
  8
SPAR
100
AcDbLine
 10
195.88
 20
476.56529301397063
 30
0.0
 11
208.20000000000002
 21
476.5978887725452
 31
0.0
  0
LINE
  5
17A
330
17
100
AcDbEntity
  8
SPAR
100
AcDbLine
 10
208.20000000000002
 20
476.5978887725452
 30
0.0
 11
220.52
 21
476.6348382427815
 31
0.0
  0
LINE
  5
17B
330
17
100
AcDbEntity
  8
SPAR
100
AcDbLine
 10
220.52
 20
476.6348382427815
 30
0.0
 11
232.84
 21
476.6763457978201
 31
0.0
  0
LINE
  5
17C
330
17
100
AcDbEntity
  8
SPAR
100
AcDbLine
 10
232.84
 20
476.6763457978201
 30
0.0
 11
245.16000000000003
 21
476.72263978715046
 31
0.0
  0
LINE
  5
17D
330
17
100
AcDbEntity
  8
SPAR
100
AcDbLine
 10
245.16000000000003
 20
476.72263978715046
 30
0.0
 11
257.48
 21
476.773977868298
 31
0.0
  0
LINE
  5
17E
330
17
100
AcDbEntity
  8
SPAR
100
AcDbLine
 10
257.48
 20
476.773977868298
 30
0.0
 11
269.8
 21
476.83065341592567
 31
0.0
  0
LINE
  5
17F
330
17
100
AcDbEntity
  8
SPAR
100
AcDbLine
 10
269.8
 20
476.83065341592567
 30
0.0
 11
282.12
 21
476.8930034429641
 31
0.0
  0
LINE
  5
180
330
17
100
AcDbEntity
  8
SPAR
100
AcDbLine
 10
282.12
 20
476.8930034429641
 30
0.0
 11
294.44000000000005
 21
476.9614186212007
 31
0.0
  0
LINE
  5
181
330
17
100
AcDbEntity
  8
SPAR
100
AcDbLine
 10
294.44000000000005
 20
476.9614186212007
 30
0.0
 11
306.76
 21
477.03635622978027
 31
0.0
  0
LINE
  5
182
330
17
100
AcDbEntity
  8
SPAR
100
AcDbLine
 10
306.76
 20
477.03635622978027
 30
0.0
 11
319.08000000000004
 21
477.118357239936
 31
0.0
  0
LINE
  5
183
330
17
100
AcDbEntity
  8
SPAR
100
AcDbLine
 10
319.08000000000004
 20
477.118357239936
 30
0.0
 11
331.40000000000003
 21
477.20806935356006
 31
0.0
  0
LINE
  5
184
330
17
100
AcDbEntity
  8
SPAR
100
AcDbLine
 10
331.40000000000003
 20
477.20806935356006
 30
0.0
 11
343.72
 21
477.3062788175595
 31
0.0
  0
LINE
  5
185
330
17
100
AcDbEntity
  8
SPAR
100
AcDbLine
 10
343.72
 20
477.3062788175595
 30
0.0
 11
356.04
 21
477.41395554955216
 31
0.0
  0
LINE
  5
186
330
17
100
AcDbEntity
  8
SPAR
100
AcDbLine
 10
356.04
 20
477.41395554955216
 30
0.0
 11
368.36
 21
477.53231915792776
 31
0.0
  0
LINE
  5
187
330
17
100
AcDbEntity
  8
SPAR
100
AcDbLine
 10
368.36
 20
477.53231915792776
 30
0.0
 11
380.68
 21
477.6629391335232
 31
0.0
  0
LINE
  5
188
330
17
100
AcDbEntity
  8
SPAR
100
AcDbLine
 10
380.68
 20
477.6629391335232
 30
0.0
 11
393.00000000000006
 21
477.8078937819879
 31
0.0
  0
LINE
  5
189
330
17
100
AcDbEntity
  8
SPAR
100
AcDbLine
 10
393.00000000000006
 20
477.8078937819879
 30
0.0
 11
405.32000000000005
 21
477.97003655045415
 31
0.0
  0
LINE
  5
18A
330
17
100
AcDbEntity
  8
CENTERLINE
100
AcDbLine
 10
85.0
 20
470.728
 30
0.0
 11
97.32
 21
470.72986436739916
 31
0.0
  0
LINE
  5
18B
330
17
100
AcDbEntity
  8
CENTERLINE
100
AcDbLine
 10
97.32
 20
470.72986436739916
 30
0.0
 11
109.64
 21
470.7362790052513
 31
0.0
  0
LINE
  5
18C
330
17
100
AcDbEntity
  8
CENTERLINE
100
AcDbLine
 10
109.64
 20
470.7362790052513
 30
0.0
 11
121.96000000000001
 21
470.74781491192624
 31
0.0
  0
LINE
  5
18D
330
17
100
AcDbEntity
  8
CENTERLINE
100
AcDbLine
 10
121.96000000000001
 20
470.74781491192624
 30
0.0
 11
134.28
 21
470.7648321719249
 31
0.0
  0
LINE
  5
18E
330
17
100
AcDbEntity
  8
CENTERLINE
100
AcDbLine
 10
134.28
 20
470.7648321719249
 30
0.0
 11
146.60000000000002
 21
470.7876226367123
 31
0.0
  0
LINE
  5
18F
330
17
100
AcDbEntity
  8
CENTERLINE
100
AcDbLine
 10
146.60000000000002
 20
470.7876226367123
 30
0.0
 11
158.92000000000002
 21
470.8164502779883
 31
0.0
  0
LINE
  5
190
330
17
100
AcDbEntity
  8
CENTERLINE
100
AcDbLine
 10
158.92000000000002
 20
470.8164502779883
 30
0.0
 11
171.24
 21
470.8515705017254
 31
0.0
  0
LINE
  5
191
330
17
100
AcDbEntity
  8
CENTERLINE
100
AcDbLine
 10
171.24
 20
470.8515705017254
 30
0.0
 11
183.56
 21
470.89324195533015
 31
0.0
  0
LINE
  5
192
330
17
100
AcDbEntity
  8
CENTERLINE
100
AcDbLine
 10
183.56
 20
470.89324195533015
 30
0.0
 11
195.88
 21
470.9417351414793
 31
0.0
  0
LINE
  5
193
330
17
100
AcDbEntity
  8
CENTERLINE
100
AcDbLine
 10
195.88
 20
470.9417351414793
 30
0.0
 11
208.20000000000002
 21
470.99733967081244
 31
0.0
  0
LINE
  5
194
330
17
100
AcDbEntity
  8
CENTERLINE
100
AcDbLine
 10
208.20000000000002
 20
470.99733967081244
 30
0.0
 11
220.52
 21
471.06037112003906
 31
0.0
  0
LINE
  5
195
330
17
100
AcDbEntity
  8
CENTERLINE
100
AcDbLine
 10
220.52
 20
471.06037112003906
 30
0.0
 11
232.84
 21
471.1311781256931
 31
0.0
  0
LINE
  5
196
330
17
100
AcDbEntity
  8
CENTERLINE
100
AcDbLine
 10
232.84
 20
471.1311781256931
 30
0.0
 11
245.16000000000003
 21
471.210150225139
 31
0.0
  0
LINE
  5
197
330
17
100
AcDbEntity
  8
CENTERLINE
100
AcDbLine
 10
245.16000000000003
 20
471.210150225139
 30
0.0
 11
257.48
 21
471.2977269518025
 31
0.0
  0
LINE
  5
198
330
17
100
AcDbEntity
  8
CENTERLINE
100
AcDbLine
 10
257.48
 20
471.2977269518025
 30
0.0
 11
269.8
 21
471.3944087683438
 31
0.0
  0
LINE
  5
199
330
17
100
AcDbEntity
  8
CENTERLINE
100
AcDbLine
 10
269.8
 20
471.3944087683438
 30
0.0
 11
282.12
 21
471.50077057917406
 31
0.0
  0
LINE
  5
19A
330
17
100
AcDbEntity
  8
CENTERLINE
100
AcDbLine
 10
282.12
 20
471.50077057917406
 30
0.0
 11
294.44000000000005
 21
471.61747882440125
 31
0.0
  0
LINE
  5
19B
330
17
100
AcDbEntity
  8
CENTERLINE
100
AcDbLine
 10
294.44000000000005
 20
471.61747882440125
 30
0.0
 11
306.76
 21
471.7453135684487
 31
0.0
  0
LINE
  5
19C
330
17
100
AcDbEntity
  8
CENTERLINE
100
AcDbLine
 10
306.76
 20
471.7453135684487
 30
0.0
 11
319.08000000000004
 21
471.88519764459676
 31
0.0
  0
LINE
  5
19D
330
17
100
AcDbEntity
  8
CENTERLINE
100
AcDbLine
 10
319.08000000000004
 20
471.88519764459676
 30
0.0
 11
331.40000000000003
 21
472.0382359560731
 31
0.0
  0
LINE
  5
19E
330
17
100
AcDbEntity
  8
CENTERLINE
100
AcDbLine
 10
331.40000000000003
 20
472.0382359560731
 30
0.0
 11
343.72
 21
472.2057697476015
 31
0.0
  0
LINE
  5
19F
330
17
100
AcDbEntity
  8
CENTERLINE
100
AcDbLine
 10
343.72
 20
472.2057697476015
 30
0.0
 11
356.04
 21
472.38945358453014
 31
0.0
  0
LINE
  5
1A0
330
17
100
AcDbEntity
  8
CENTERLINE
100
AcDbLine
 10
356.04
 20
472.38945358453014
 30
0.0
 11
368.36
 21
472.59136797528856
 31
0.0
  0
LINE
  5
1A1
330
17
100
AcDbEntity
  8
CENTERLINE
100
AcDbLine
 10
368.36
 20
472.59136797528856
 30
0.0
 11
380.68
 21
472.81419028659843
 31
0.0
  0
LINE
  5
1A2
330
17
100
AcDbEntity
  8
CENTERLINE
100
AcDbLine
 10
380.68
 20
472.81419028659843
 30
0.0
 11
393.00000000000006
 21
473.0614658633911
 31
0.0
  0
LINE
  5
1A3
330
17
100
AcDbEntity
  8
CENTERLINE
100
AcDbLine
 10
393.00000000000006
 20
473.0614658633911
 30
0.0
 11
405.32000000000005
 21
473.3380623507748
 31
0.0
  0
LINE
  5
1A4
330
17
100
AcDbEntity
  8
CENTERLINE
100
AcDbLine
 10
405.32000000000005
 20
473.3380623507748
 30
0.0
 11
417.64000000000004
 21
473.65098624865175
 31
0.0
  0
LINE
  5
1A5
330
17
100
AcDbEntity
  8
CENTERLINE
100
AcDbLine
 10
417.64000000000004
 20
473.65098624865175
 30
0.0
 11
429.96000000000004
 21
474.01099360755023
 31
0.0
  0
LINE
  5
1A6
330
17
100
AcDbEntity
  8
CENTERLINE
100
AcDbLine
 10
429.96000000000004
 20
474.01099360755023
 30
0.0
 11
442.28000000000003
 21
474.4362107962792
 31
0.0
  0
LINE
  5
1A7
330
17
100
AcDbEntity
  8
CENTERLINE
100
AcDbLine
 10
442.28000000000003
 20
474.4362107962792
 30
0.0
 11
454.6
 21
474.9620812259238
 31
0.0
  0
LINE
  5
1A8
330
17
100
AcDbEntity
  8
CENTERLINE
100
AcDbLine
 10
454.6
 20
474.9620812259238
 30
0.0
 11
466.92
 21
475.68073491661005
 31
0.0
  0
LINE
  5
1A9
330
17
100
AcDbEntity
  8
CENTERLINE
100
AcDbLine
 10
466.92
 20
475.68073491661005
 30
0.0
 11
479.24
 21
477.62999999999994
 31
0.0
  0
LINE
  5
1AA
330
17
100
AcDbEntity
  8
SPAR
100
AcDbLine
 10
407.56000000000006
 20
490.6782049637411
 30
0.0
 11
443.40000000000003
 21
490.0784311561205
 31
0.0
  0
LINE
  5
1AB
330
17
100
AcDbEntity
  8
SPAR
100
AcDbLine
 10
443.40000000000003
 20
490.0784311561205
 30
0.0
 11
461.32000000000005
 21
489.6152624752038
 31
0.0
  0
LINE
  5
1AC
330
17
100
AcDbEntity
  8
SPAR
100
AcDbLine
 10
461.32000000000005
 20
489.6152624752038
 30
0.0
 11
479.24
 21
488.34
 31
0.0
  0
LINE
  5
1AD
330
17
100
AcDbEntity
  8
CENTERLINE
100
AcDbLine
 10
85.0
 20
470.728
 30
0.0
 11
300.04
 21
471.6741544462875
 31
0.0
  0
TEXT
  5
1AE
330
17
100
AcDbEntity
  8
TEXT
100
AcDbText
 10
184.52
 20
459.2010772231438
 30
0.0
 40
2.0
  1
FLAP
 11
184.52
 21
459.2010772231438
 31
0.0
100
AcDbText
  0
LINE
  5
1AF
330
17
100
AcDbEntity
  8
CENTERLINE
100
AcDbLine
 10
300.04
 20
471.6741544462875
 30
0.0
 11
479.24
 21
477.62999999999994
 31
0.0
  0
TEXT
  5
1B0
330
17
100
AcDbEntity
  8
TEXT
100
AcDbText
 10
381.64
 20
462.6520772231437
 30
0.0
 40
2.0
  1
AILERON
 11
381.64
 21
462.6520772231437
 31
0.0
100
AcDbText
  0
LINE
  5
1B1
330
17
100
AcDbEntity
  8
HIDDEN
100
AcDbLine
 10
117.62
 20
486.79488429384753
 30
0.0
 11
124.06
 21
486.79488429384753
 31
0.0
  0
LINE
  5
1B2
330
17
100
AcDbEntity
  8
HIDDEN
100
AcDbLine
 10
124.06
 20
486.79488429384753
 30
0.0
 11
124.06
 21
489.8748842938476
 31
0.0
  0
LINE
  5
1B3
330
17
100
AcDbEntity
  8
HIDDEN
100
AcDbLine
 10
124.06
 20
489.8748842938476
 30
0.0
 11
117.62
 21
489.8748842938476
 31
0.0
  0
LINE
  5
1B4
330
17
100
AcDbEntity
  8
HIDDEN
100
AcDbLine
 10
117.62
 20
489.8748842938476
 30
0.0
 11
117.62
 21
486.79488429384753
 31
0.0
  0
TEXT
  5
1B5
330
17
100
AcDbEntity
  8
TEXT
100
AcDbText
 10
110.84
 20
492.33488429384755
 30
0.0
 40
1.5
  1
FLAP SERVO P1
 11
110.84
 21
492.33488429384755
 31
0.0
100
AcDbText
  0
LINE
  5
1B6
330
17
100
AcDbEntity
  8
HIDDEN
100
AcDbLine
 10
260.98
 20
486.62860718507477
 30
0.0
 11
267.4200000000001
 21
486.62860718507477
 31
0.0
  0
LINE
  5
1B7
330
17
100
AcDbEntity
  8
HIDDEN
100
AcDbLine
 10
267.4200000000001
 20
486.62860718507477
 30
0.0
 11
267.4200000000001
 21
489.7086071850748
 31
0.0
  0
LINE
  5
1B8
330
17
100
AcDbEntity
  8
HIDDEN
100
AcDbLine
 10
267.4200000000001
 20
489.7086071850748
 30
0.0
 11
260.98
 21
489.7086071850748
 31
0.0
  0
LINE
  5
1B9
330
17
100
AcDbEntity
  8
HIDDEN
100
AcDbLine
 10
260.98
 20
489.7086071850748
 30
0.0
 11
260.98
 21
486.62860718507477
 31
0.0
  0
TEXT
  5
1BA
330
17
100
AcDbEntity
  8
TEXT
100
AcDbText
 10
254.20000000000005
 20
492.1686071850748
 30
0.0
 40
1.5
  1
FLAP SERVO P3
 11
254.20000000000005
 21
492.1686071850748
 31
0.0
100
AcDbText
  0
LINE
  5
1BB
330
17
100
AcDbEntity
  8
HIDDEN
100
AcDbLine
 10
342.04
 20
486.52792465594047
 30
0.0
 11
347.64000000000004
 21
486.52792465594047
 31
0.0
  0
LINE
  5
1BC
330
17
100
AcDbEntity
  8
HIDDEN
100
AcDbLine
 10
347.64000000000004
 20
486.52792465594047
 30
0.0
 11
347.64000000000004
 21
489.3279246559404
 31
0.0
  0
LINE
  5
1BD
330
17
100
AcDbEntity
  8
HIDDEN
100
AcDbLine
 10
347.64000000000004
 20
489.3279246559404
 30
0.0
 11
342.04
 21
489.3279246559404
 31
0.0
  0
LINE
  5
1BE
330
17
100
AcDbEntity
  8
HIDDEN
100
AcDbLine
 10
342.04
 20
489.3279246559404
 30
0.0
 11
342.04
 21
486.52792465594047
 31
0.0
  0
TEXT
  5
1BF
330
17
100
AcDbEntity
  8
TEXT
100
AcDbText
 10
334.84000000000003
 20
491.92792465594044
 30
0.0
 40
1.5
  1
AILERON SERVO P4
 11
334.84000000000003
 21
491.92792465594044
 31
0.0
100
AcDbText
  0
LINE
  5
1C0
330
17
100
AcDbEntity
  8
HIDDEN
100
AcDbLine
 10
413.72
 20
488.0232311824945
 30
0.0
 11
419.32000000000005
 21
488.0232311824945
 31
0.0
  0
LINE
  5
1C1
330
17
100
AcDbEntity
  8
HIDDEN
100
AcDbLine
 10
419.32000000000005
 20
488.0232311824945
 30
0.0
 11
419.32000000000005
 21
490.82323118249445
 31
0.0
  0
LINE
  5
1C2
330
17
100
AcDbEntity
  8
HIDDEN
100
AcDbLine
 10
419.32000000000005
 20
490.82323118249445
 30
0.0
 11
413.72
 21
490.82323118249445
 31
0.0
  0
LINE
  5
1C3
330
17
100
AcDbEntity
  8
HIDDEN
100
AcDbLine
 10
413.72
 20
490.82323118249445
 30
0.0
 11
413.72
 21
488.0232311824945
 31
0.0
  0
TEXT
  5
1C4
330
17
100
AcDbEntity
  8
TEXT
100
AcDbText
 10
406.52000000000004
 20
493.4232311824945
 30
0.0
 40
1.5
  1
AILERON SERVO P5
 11
406.52000000000004
 21
493.4232311824945
 31
0.0
100
AcDbText
  0
TEXT
  5
1C5
330
17
100
AcDbEntity
  8
TEXT
100
AcDbText
 10
85.0
 20
260.0
 30
0.0
 40
3.4
  1
FRONT VIEW — POLYHEDRAL / DIHEDRAL
 11
85.0
 21
260.0
 31
0.0
100
AcDbText
  0
LINE
  5
1C6
330
17
100
AcDbEntity
  8
OUTLINE
100
AcDbLine
 10
85.0
 20
205.0
 30
0.0
 11
156.68
 21
205.0
 31
0.0
  0
LINE
  5
1C7
330
17
100
AcDbEntity
  8
OUTLINE
100
AcDbLine
 10
156.68
 20
205.0
 30
0.0
 11
228.36
 21
205.0
 31
0.0
  0
LINE
  5
1C8
330
17
100
AcDbEntity
  8
OUTLINE
100
AcDbLine
 10
228.36
 20
205.0
 30
0.0
 11
300.04
 21
205.84
 31
0.0
  0
LINE
  5
1C9
330
17
100
AcDbEntity
  8
OUTLINE
100
AcDbLine
 10
300.04
 20
205.84
 30
0.0
 11
371.72
 21
207.52
 31
0.0
  0
LINE
  5
1CA
330
17
100
AcDbEntity
  8
OUTLINE
100
AcDbLine
 10
371.72
 20
207.52
 30
0.0
 11
443.40000000000003
 21
209.76
 31
0.0
  0
LINE
  5
1CB
330
17
100
AcDbEntity
  8
OUTLINE
100
AcDbLine
 10
443.40000000000003
 20
209.76
 30
0.0
 11
479.24
 21
211.16
 31
0.0
  0
LINE
  5
1CC
330
17
100
AcDbEntity
  8
SECTION
100
AcDbLine
 10
85.0
 20
195.0
 30
0.0
 11
85.0
 21
213.0
 31
0.0
  0
TEXT
  5
1CD
330
17
100
AcDbEntity
  8
TEXT
100
AcDbText
 10
87.0
 20
215.0
 30
0.0
 40
1.8
  1
0.0°
 11
87.0
 21
215.0
 31
0.0
100
AcDbText
  0
LINE
  5
1CE
330
17
100
AcDbEntity
  8
SECTION
100
AcDbLine
 10
156.68
 20
195.0
 30
0.0
 11
156.68
 21
213.0
 31
0.0
  0
TEXT
  5
1CF
330
17
100
AcDbEntity
  8
TEXT
100
AcDbText
 10
158.68
 20
215.0
 30
0.0
 40
1.8
  1
0.0°
 11
158.68
 21
215.0
 31
0.0
100
AcDbText
  0
LINE
  5
1D0
330
17
100
AcDbEntity
  8
SECTION
100
AcDbLine
 10
228.36
 20
195.0
 30
0.0
 11
228.36
 21
213.0
 31
0.0
  0
TEXT
  5
1D1
330
17
100
AcDbEntity
  8
TEXT
100
AcDbText
 10
230.36
 20
215.0
 30
0.0
 40
1.8
  1
1.0°
 11
230.36
 21
215.0
 31
0.0
100
AcDbText
  0
LINE
  5
1D2
330
17
100
AcDbEntity
  8
SECTION
100
AcDbLine
 10
300.04
 20
195.0
 30
0.0
 11
300.04
 21
213.84
 31
0.0
  0
TEXT
  5
1D3
330
17
100
AcDbEntity
  8
TEXT
100
AcDbText
 10
302.04
 20
215.84
 30
0.0
 40
1.8
  1
2.0°
 11
302.04
 21
215.84
 31
0.0
100
AcDbText
  0
LINE
  5
1D4
330
17
100
AcDbEntity
  8
SECTION
100
AcDbLine
 10
371.72
 20
195.0
 30
0.0
 11
371.72
 21
215.52
 31
0.0
  0
TEXT
  5
1D5
330
17
100
AcDbEntity
  8
TEXT
100
AcDbText
 10
373.72
 20
217.52
 30
0.0
 40
1.8
  1
3.5°
 11
373.72
 21
217.52
 31
0.0
100
AcDbText
  0
LINE
  5
1D6
330
17
100
AcDbEntity
  8
SECTION
100
AcDbLine
 10
443.40000000000003
 20
195.0
 30
0.0
 11
443.40000000000003
 21
217.76
 31
0.0
  0
TEXT
  5
1D7
330
17
100
AcDbEntity
  8
TEXT
100
AcDbText
 10
445.40000000000003
 20
219.76
 30
0.0
 40
1.8
  1
5.0°
 11
445.40000000000003
 21
219.76
 31
0.0
100
AcDbText
  0
LINE
  5
1D8
330
17
100
AcDbEntity
  8
SECTION
100
AcDbLine
 10
479.24
 20
195.0
 30
0.0
 11
479.24
 21
219.16
 31
0.0
  0
TEXT
  5
1D9
330
17
100
AcDbEntity
  8
TEXT
100
AcDbText
 10
500.0
 20
260.0
 30
0.0
 40
3.4
  1
PROFILE DETAILS — ROOT / TIP AIRFOIL
 11
500.0
 21
260.0
 31
0.0
100
AcDbText
  0
LWPOLYLINE
  5
1DA
330
17
100
AcDbEntity
  8
OUTLINE
100
AcDbPolyline
 90
122
 70
1
 10
525.0
 20
215.0
 10
525.7933333333333
 20
215.0971564691694
 10
526.5866666666667
 20
215.1940466392101
 10
527.38
 20
215.2904049409007
 10
528.1733333333333
 20
215.3859672628341
 10
528.9666666666667
 20
215.48047167532832
 10
529.76
 20
215.57365914835765
 10
530.5533333333333
 20
215.6652742615359
 10
531.3466666666667
 20
215.7550659042059
 10
532.14
 20
215.8427879637165
 10
532.9333333333333
 20
215.9282
 10
533.7266666666667
 20
216.0110679046019
 10
534.52
 20
216.09116454235576
 10
535.3133333333334
 20
216.16827037394492
 10
536.1066666666667
 20
216.24217405764458
 10
536.9
 20
216.3126730285947
 10
537.6933333333334
 20
216.37957405401625
 10
538.4866666666667
 20
216.44269376284873
 10
539.28
 20
216.50185914835765
 10
540.0733333333334
 20
216.55690804233387
 10
540.8666666666667
 20
216.60768955958542
 10
541.66
 20
216.6540645115033
 10
542.4533333333334
 20
216.6959057875677
 10
543.2466666666667
 20
216.73309870374942
 10
544.04
 20
216.76554131685032
 10
544.8333333333334
 20
216.79314470392302
 10
545.6266666666667
 20
216.81583320600222
 10
546.42
 20
216.83354463548082
 10
547.2133333333334
 20
216.84623044656166
 10
548.0066666666667
 20
216.8538558683184
 10
548.8
 20
216.8564
 10
549.5933333333334
 20
216.8538558683184
 10
550.3866666666667
 20
216.84623044656166
 10
551.18
 20
216.83354463548082
 10
551.9733333333334
 20
216.81583320600222
 10
552.7666666666667
 20
216.79314470392302
 10
553.56
 20
216.76554131685032
 10
554.3533333333334
 20
216.73309870374942
 10
555.1466666666666
 20
216.6959057875677
 10
555.94
 20
216.6540645115033
 10
556.7333333333333
 20
216.60768955958542
 10
557.5266666666666
 20
216.55690804233387
 10
558.32
 20
216.50185914835765
 10
559.1133333333333
 20
216.44269376284873
 10
559.9066666666666
 20
216.37957405401625
 10
560.7
 20
216.3126730285947
 10
561.4933333333333
 20
216.24217405764458
 10
562.2866666666666
 20
216.16827037394492
 10
563.08
 20
216.09116454235576
 10
563.8733333333333
 20
216.0110679046019
 10
564.6666666666666
 20
215.9282
 10
565.46
 20
215.8427879637165
 10
566.2533333333333
 20
215.7550659042059
 10
567.0466666666666
 20
215.6652742615359
 10
567.84
 20
215.57365914835765
 10
568.6333333333333
 20
215.48047167532832
 10
569.4266666666666
 20
215.3859672628341
 10
570.22
 20
215.2904049409007
 10
571.0133333333333
 20
215.19404663921006
 10
571.8066666666666
 20
215.0971564691694
 10
572.6
 20
215.0
 10
572.5999999999999
 20
215.0
 10
571.8066666666666
 20
214.9028435308306
 10
571.0133333333332
 20
214.80595336078994
 10
570.2199999999999
 20
214.7095950590993
 10
569.4266666666666
 20
214.6140327371659
 10
568.6333333333332
 20
214.51952832467168
 10
567.8399999999999
 20
214.42634085164235
 10
567.0466666666666
 20
214.3347257384641
 10
566.2533333333332
 20
214.2449340957941
 10
565.4599999999999
 20
214.1572120362835
 10
564.6666666666666
 20
214.0718
 10
563.8733333333332
 20
213.9889320953981
 10
563.0799999999999
 20
213.90883545764424
 10
562.2866666666665
 20
213.83172962605508
 10
561.4933333333332
 20
213.75782594235542
 10
560.6999999999999
 20
213.6873269714053
 10
559.9066666666665
 20
213.62042594598375
 10
559.1133333333332
 20
213.55730623715127
 10
558.3199999999999
 20
213.49814085164235
 10
557.5266666666665
 20
213.44309195766613
 10
556.7333333333332
 20
213.39231044041458
 10
555.9399999999999
 20
213.3459354884967
 10
555.1466666666665
 20
213.3040942124323
 10
554.3533333333332
 20
213.26690129625058
 10
553.56
 20
213.23445868314968
 10
552.7666666666665
 20
213.20685529607698
 10
551.9733333333332
 20
213.18416679399778
 10
551.18
 20
213.16645536451918
 10
550.3866666666665
 20
213.15376955343834
 10
549.5933333333332
 20
213.1461441316816
 10
548.8
 20
213.1436
 10
548.0066666666665
 20
213.1461441316816
 10
547.2133333333333
 20
213.15376955343834
 10
546.42
 20
213.16645536451918
 10
545.6266666666666
 20
213.18416679399778
 10
544.8333333333333
 20
213.20685529607698
 10
544.04
 20
213.23445868314968
 10
543.2466666666666
 20
213.26690129625058
 10
542.4533333333333
 20
213.3040942124323
 10
541.6599999999999
 20
213.3459354884967
 10
540.8666666666666
 20
213.39231044041458
 10
540.0733333333333
 20
213.44309195766613
 10
539.2799999999999
 20
213.49814085164235
 10
538.4866666666666
 20
213.55730623715127
 10
537.6933333333333
 20
213.62042594598375
 10
536.8999999999999
 20
213.6873269714053
 10
536.1066666666666
 20
213.75782594235542
 10
535.3133333333333
 20
213.83172962605508
 10
534.5199999999999
 20
213.90883545764424
 10
533.7266666666666
 20
213.9889320953981
 10
532.9333333333333
 20
214.0718
 10
532.1399999999999
 20
214.1572120362835
 10
531.3466666666666
 20
214.2449340957941
 10
530.5533333333333
 20
214.3347257384641
 10
529.7599999999999
 20
214.42634085164235
 10
528.9666666666666
 20
214.51952832467168
 10
528.1733333333333
 20
214.6140327371659
 10
527.3799999999999
 20
214.7095950590993
 10
526.5866666666666
 20
214.8059533607899
 10
525.7933333333333
 20
214.9028435308306
 10
524.9999999999999
 20
215.0
  0
LWPOLYLINE
  5
1DB
330
17
100
AcDbEntity
  8
OUTLINE
100
AcDbPolyline
 90
122
 70
1
 10
525.0
 20
160.0
 10
525.3966666666666
 20
160.03612227699887
 10
525.7933333333333
 20
160.07214554534733
 10
526.19
 20
160.10797106777076
 10
526.5866666666667
 20
160.14350064900242
 10
526.9833333333333
 20
160.17863690492976
 10
527.38
 20
160.21328352951758
 10
527.7766666666666
 20
160.24734555877617
 10
528.1733333333333
 20
160.28072963105092
 10
528.57
 20
160.31334424292024
 10
528.9666666666667
 20
160.3451
 10
529.3633333333333
 20
160.37590986196736
 10
529.76
 20
160.40568938113228
 10
530.1566666666666
 20
160.4343569339026
 10
530.5533333333333
 20
160.4618339445089
 10
530.95
 20
160.48804510037496
 10
531.3466666666667
 20
160.5129185585445
 10
531.7433333333333
 20
160.5363861425976
 10
532.14
 20
160.55838352951758
 10
532.5366666666666
 20
160.57885042599594
 10
532.9333333333333
 20
160.59773073369203
 10
533.33
 20
160.6149727029948
 10
533.7266666666667
 20
160.6305290748649
 10
534.1233333333333
 20
160.64435721036836
 10
534.52
 20
160.65641920754692
 10
534.9166666666666
 20
160.66668200530472
 10
535.3133333333334
 20
160.67511747402648
 10
535.71
 20
160.68170249267877
 10
536.1066666666667
 20
160.6864190121832
 10
536.5033333333333
 20
160.6892541048876
 10
536.9
 20
160.6902
 10
537.2966666666666
 20
160.6892541048876
 10
537.6933333333334
 20
160.6864190121832
 10
538.09
 20
160.68170249267877
 10
538.4866666666667
 20
160.67511747402648
 10
538.8833333333333
 20
160.66668200530472
 10
539.28
 20
160.65641920754692
 10
539.6766666666666
 20
160.64435721036836
 10
540.0733333333334
 20
160.6305290748649
 10
540.47
 20
160.6149727029948
 10
540.8666666666667
 20
160.59773073369203
 10
541.2633333333333
 20
160.57885042599594
 10
541.66
 20
160.55838352951758
 10
542.0566666666666
 20
160.5363861425976
 10
542.4533333333334
 20
160.5129185585445
 10
542.85
 20
160.48804510037496
 10
543.2466666666667
 20
160.4618339445089
 10
543.6433333333333
 20
160.4343569339026
 10
544.04
 20
160.40568938113228
 10
544.4366666666667
 20
160.37590986196736
 10
544.8333333333334
 20
160.3451
 10
545.23
 20
160.31334424292024
 10
545.6266666666667
 20
160.28072963105092
 10
546.0233333333333
 20
160.24734555877617
 10
546.42
 20
160.21328352951758
 10
546.8166666666667
 20
160.17863690492976
 10
547.2133333333334
 20
160.14350064900242
 10
547.61
 20
160.10797106777076
 10
548.0066666666667
 20
160.07214554534733
 10
548.4033333333333
 20
160.03612227699887
 10
548.8
 20
160.0
 10
548.8
 20
160.0
 10
548.4033333333333
 20
159.96387772300113
 10
548.0066666666667
 20
159.92785445465267
 10
547.6099999999999
 20
159.89202893222924
 10
547.2133333333333
 20
159.85649935099758
 10
546.8166666666666
 20
159.82136309507024
 10
546.42
 20
159.78671647048242
 10
546.0233333333333
 20
159.75265444122383
 10
545.6266666666667
 20
159.71927036894908
 10
545.2299999999999
 20
159.68665575707976
 10
544.8333333333333
 20
159.6549
 10
544.4366666666666
 20
159.62409013803264
 10
544.04
 20
159.59431061886772
 10
543.6433333333333
 20
159.5656430660974
 10
543.2466666666667
 20
159.5381660554911
 10
542.8499999999999
 20
159.51195489962504
 10
542.4533333333333
 20
159.4870814414555
 10
542.0566666666666
 20
159.4636138574024
 10
541.66
 20
159.44161647048242
 10
541.2633333333333
 20
159.42114957400406
 10
540.8666666666667
 20
159.40226926630797
 10
540.4699999999999
 20
159.3850272970052
 10
540.0733333333333
 20
159.3694709251351
 10
539.6766666666666
 20
159.35564278963164
 10
539.28
 20
159.34358079245308
 10
538.8833333333333
 20
159.33331799469528
 10
538.4866666666666
 20
159.32488252597352
 10
538.0899999999999
 20
159.31829750732123
 10
537.6933333333333
 20
159.3135809878168
 10
537.2966666666666
 20
159.3107458951124
 10
536.9
 20
159.3098
 10
536.5033333333333
 20
159.3107458951124
 10
536.1066666666666
 20
159.3135809878168
 10
535.7099999999999
 20
159.31829750732123
 10
535.3133333333333
 20
159.32488252597352
 10
534.9166666666666
 20
159.33331799469528
 10
534.52
 20
159.34358079245308
 10
534.1233333333333
 20
159.35564278963164
 10
533.7266666666666
 20
159.3694709251351
 10
533.3299999999999
 20
159.3850272970052
 10
532.9333333333333
 20
159.40226926630797
 10
532.5366666666666
 20
159.42114957400406
 10
532.14
 20
159.44161647048242
 10
531.7433333333333
 20
159.4636138574024
 10
531.3466666666666
 20
159.4870814414555
 10
530.9499999999999
 20
159.51195489962504
 10
530.5533333333333
 20
159.5381660554911
 10
530.1566666666666
 20
159.5656430660974
 10
529.76
 20
159.59431061886772
 10
529.3633333333332
 20
159.62409013803264
 10
528.9666666666666
 20
159.6549
 10
528.5699999999999
 20
159.68665575707976
 10
528.1733333333333
 20
159.71927036894908
 10
527.7766666666666
 20
159.75265444122383
 10
527.38
 20
159.78671647048242
 10
526.9833333333332
 20
159.82136309507024
 10
526.5866666666666
 20
159.85649935099758
 10
526.1899999999999
 20
159.89202893222924
 10
525.7933333333333
 20
159.92785445465267
 10
525.3966666666666
 20
159.96387772300113
 10
525.0
 20
160.0
  0
TEXT
  5
1DC
330
17
100
AcDbEntity
  8
TEXT
100
AcDbText
 10
535.0
 20
229.0
 30
0.0
 40
2.1
  1
ROOT PROFILE
 11
535.0
 21
229.0
 31
0.0
100
AcDbText
  0
TEXT
  5
1DD
330
17
100
AcDbEntity
  8
TEXT
100
AcDbText
 10
535.0
 20
174.0
 30
0.0
 40
2.1
  1
TIP PROFILE
 11
535.0
 21
174.0
 31
0.0
100
AcDbText
  0
LINE
  5
1DE
330
17
100
AcDbEntity
  8
SPAR
100
AcDbLine
 10
536.9
 20
209.1436
 30
0.0
 11
536.9
 21
220.8564
 31
0.0
  0
LINE
  5
1DF
330
17
100
AcDbEntity
  8
SPAR
100
AcDbLine
 10
553.56
 20
209.1436
 30
0.0
 11
553.56
 21
220.8564
 31
0.0
  0
LINE
  5
1E0
330
17
100
AcDbEntity
  8
CENTERLINE
100
AcDbLine
 10
559.272
 20
209.1436
 30
0.0
 11
559.272
 21
220.8564
 31
0.0
  0
DIMENSION
  5
1E1
330
17
100
AcDbEntity
  8
DIMENSION
100
AcDbDimension
280
0
  2
*D1
  3
EZDXF
 10
85.0
 20
110.0
 30
0.0
 11
282.12
 21
110.225
 31
0.0
 70
32
 71
5
  1
<>
100
AcDbAlignedDimension
 13
85.0
 23
118.0
 33
0.0
 14
479.24
 24
118.0
 34
0.0
 50
0.0
100
AcDbRotatedDimension
  0
DIMENSION
  5
1F0
330
17
100
AcDbEntity
  8
DIMENSION
100
AcDbDimension
280
0
  2
*D2
  3
EZDXF
 10
60.0
 20
505.0
 30
0.0
 11
60.225
 21
481.2
 31
0.0
 70
32
 71
5
  1
<>
100
AcDbAlignedDimension
 13
68.0
 23
505.0
 33
0.0
 14
68.0
 24
457.4
 34
0.0
 50
90.0
100
AcDbRotatedDimension
  0
TEXT
  5
1FF
330
17
100
AcDbEntity
  8
TEXT
100
AcDbText
 10
430.0
 20
175.0
 30
0.0
 40
2.0
  1
Main spar 8mm tube to P5, 4mm rod in P6 tip section
 11
430.0
 21
175.0
 31
0.0
100
AcDbText
  0
TEXT
  5
200
330
17
100
AcDbEntity
  8
TEXT
100
AcDbText
 10
430.0
 20
155.0
 30
0.0
 40
2.0
  1
Rear spar 5x3 spruce to P5 only; short tip uses D-box + rod
 11
430.0
 21
155.0
 31
0.0
100
AcDbText
  0
TEXT
  5
201
330
17
100
AcDbEntity
  8
TEXT
100
AcDbText
 10
430.0
 20
135.0
 30
0.0
 40
2.0
  1
Hinge line at 72% chord; flap P1-P3, aileron P4-P6
 11
430.0
 21
135.0
 31
0.0
100
AcDbText
  0
TEXT
  5
202
330
17
100
AcDbEntity
  8
TEXT
100
AcDbText
 10
460.0
 20
115.0
 30
0.0
 40
2.0
  1
Servo envelopes shown at current packaging baseline
 11
460.0
 21
115.0
 31
0.0
100
AcDbText
  0
ENDSEC
  0
SECTION
  2
OBJECTS
  0
DICTIONARY
  5
A
330
0
100
AcDbDictionary
281
1
  3
ACAD_COLOR
350
B
  3
ACAD_GROUP
350
C
  3
ACAD_LAYOUT
350
D
  3
ACAD_MATERIAL
350
E
  3
ACAD_MLEADERSTYLE
350
F
  3
ACAD_MLINESTYLE
350
10
  3
ACAD_PLOTSETTINGS
350
11
  3
ACAD_PLOTSTYLENAME
350
12
  3
ACAD_SCALELIST
350
14
  3
ACAD_TABLESTYLE
350
15
  3
ACAD_VISUALSTYLE
350
16
  3
EZDXF_META
350
2D
  0
DICTIONARY
  5
B
330
A
100
AcDbDictionary
281
1
  0
DICTIONARY
  5
C
330
A
100
AcDbDictionary
281
1
  0
DICTIONARY
  5
D
330
A
100
AcDbDictionary
281
1
  3
Model
350
1A
  3
Layout1
350
1E
  0
DICTIONARY
  5
E
330
A
100
AcDbDictionary
281
1
  3
ByBlock
350
1F
  3
ByLayer
350
20
  3
Global
350
21
  0
DICTIONARY
  5
F
330
A
100
AcDbDictionary
281
1
  3
Standard
350
2C
  0
DICTIONARY
  5
10
330
A
100
AcDbDictionary
281
1
  3
Standard
350
22
  0
DICTIONARY
  5
11
330
A
100
AcDbDictionary
281
1
  0
ACDBDICTIONARYWDFLT
  5
12
330
A
100
AcDbDictionary
281
1
  3
Normal
350
13
100
AcDbDictionaryWithDefault
340
13
  0
ACDBPLACEHOLDER
  5
13
330
12
  0
DICTIONARY
  5
14
330
A
100
AcDbDictionary
281
1
  0
DICTIONARY
  5
15
330
A
100
AcDbDictionary
281
1
  0
DICTIONARY
  5
16
330
A
100
AcDbDictionary
281
1
  3
2dWireframe
350
5A
  3
Basic
350
5B
  3
Brighten
350
5C
  3
ColorChange
350
5D
  3
Conceptual
350
5E
  3
Dim
350
5F
  3
EdgeColorOff
350
60
  3
Facepattern
350
61
  3
Flat
350
62
  3
FlatWithEdges
350
63
  3
Gouraud
350
64
  3
GouraudWithEdges
350
65
  3
Hidden
350
66
  3
JitterOff
350
67
  3
Linepattern
350
68
  3
Modeling
350
69
  3
OverhangOff
350
6A
  3
Realistic
350
6B
  3
Shaded
350
6C
  3
Shaded with edges
350
6D
  3
Shades of Gray
350
6E
  3
Sketchy
350
6F
  3
Thicken
350
70
  3
Wireframe
350
71
  3
X-Ray
350
72
  0
LAYOUT
  5
1A
330
D
100
AcDbPlotSettings
  1

  4
A3
  6

 40
7.5
 41
20.0
 42
7.5
 43
20.0
 44
420.0
 45
297.0
 46
0.0
 47
0.0
 48
0.0
 49
0.0
140
0.0
141
0.0
142
1.0
143
1.0
 70
1024
 72
1
 73
0
 74
5
  7

 75
16
 76
0
 77
2
 78
300
147
1.0
148
0.0
149
0.0
100
AcDbLayout
  1
Model
 70
1
 71
0
 10
0.0
 20
0.0
 11
420.0
 21
297.0
 12
0.0
 22
0.0
 32
0.0
 14
1e+20
 24
1e+20
 34
1e+20
 15
-1e+20
 25
-1e+20
 35
-1e+20
146
0.0
 13
0.0
 23
0.0
 33
0.0
 16
1.0
 26
0.0
 36
0.0
 17
0.0
 27
1.0
 37
0.0
 76
1
330
17
  0
LAYOUT
  5
1E
330
D
100
AcDbPlotSettings
  1

  4
A3
  6

 40
7.5
 41
20.0
 42
7.5
 43
20.0
 44
420.0
 45
297.0
 46
0.0
 47
0.0
 48
0.0
 49
0.0
140
0.0
141
0.0
142
1.0
143
1.0
 70
0
 72
1
 73
0
 74
5
  7

 75
16
 76
0
 77
2
 78
300
147
1.0
148
0.0
149
0.0
100
AcDbLayout
  1
Layout1
 70
1
 71
1
 10
0.0
 20
0.0
 11
420.0
 21
297.0
 12
0.0
 22
0.0
 32
0.0
 14
1e+20
 24
1e+20
 34
1e+20
 15
-1e+20
 25
-1e+20
 35
-1e+20
146
0.0
 13
0.0
 23
0.0
 33
0.0
 16
1.0
 26
0.0
 36
0.0
 17
0.0
 27
1.0
 37
0.0
 76
1
330
1B
  0
MATERIAL
  5
1F
102
{ACAD_REACTORS
330
E
102
}
330
E
100
AcDbMaterial
  1
ByBlock
  2

 70
0
 40
1.0
 71
1
 41
1.0
 91
-1023410177
 42
1.0
 72
1
  3

 73
1
 74
1
 75
1
 44
0.5
 73
0
 45
1.0
 46
1.0
 77
1
  4

 78
1
 79
1
170
1
 48
1.0
171
1
  6

172
1
173
1
174
1
140
1.0
141
1.0
175
1
  7

176
1
177
1
178
1
143
1.0
179
1
  8

270
1
271
1
272
1
145
1.0
146
1.0
273
1
  9

274
1
275
1
276
1
 42
1.0
 72
1
  3

 73
1
 74
1
 75
1
 94
63
  0
MATERIAL
  5
20
102
{ACAD_REACTORS
330
E
102
}
330
E
100
AcDbMaterial
  1
ByLayer
  2

 70
0
 40
1.0
 71
1
 41
1.0
 91
-1023410177
 42
1.0
 72
1
  3

 73
1
 74
1
 75
1
 44
0.5
 73
0
 45
1.0
 46
1.0
 77
1
  4

 78
1
 79
1
170
1
 48
1.0
171
1
  6

172
1
173
1
174
1
140
1.0
141
1.0
175
1
  7

176
1
177
1
178
1
143
1.0
179
1
  8

270
1
271
1
272
1
145
1.0
146
1.0
273
1
  9

274
1
275
1
276
1
 42
1.0
 72
1
  3

 73
1
 74
1
 75
1
 94
63
  0
MATERIAL
  5
21
102
{ACAD_REACTORS
330
E
102
}
330
E
100
AcDbMaterial
  1
Global
  2

 70
0
 40
1.0
 71
1
 41
1.0
 91
-1023410177
 42
1.0
 72
1
  3

 73
1
 74
1
 75
1
 44
0.5
 73
0
 45
1.0
 46
1.0
 77
1
  4

 78
1
 79
1
170
1
 48
1.0
171
1
  6

172
1
173
1
174
1
140
1.0
141
1.0
175
1
  7

176
1
177
1
178
1
143
1.0
179
1
  8

270
1
271
1
272
1
145
1.0
146
1.0
273
1
  9

274
1
275
1
276
1
 42
1.0
 72
1
  3

 73
1
 74
1
 75
1
 94
63
  0
MLINESTYLE
  5
22
102
{ACAD_REACTORS
330
10
102
}
330
10
100
AcDbMlineStyle
  2
Standard
 70
0
  3

 62
256
 51
90.0
 52
90.0
 71
2
 49
0.5
 62
256
  6
BYLAYER
 49
-0.5
 62
256
  6
BYLAYER
  0
MLEADERSTYLE
  5
2C
102
{ACAD_REACTORS
330
F
102
}
330
F
100
AcDbMLeaderStyle
179
2
170
2
171
1
172
0
 90
2
 40
0.0
 41
0.0
173
1
 91
-1056964608
 92
-2
290
1
 42
2.0
291
1
 43
8.0
  3
Standard
 44
4.0
300

342
29
174
1
175
1
176
0
178
1
 93
-1056964608
 45
4.0
292
0
297
0
 46
4.0
 94
-1056964608
 47
1.0
 49
1.0
140
1.0
294
1
141
0.0
177
0
142
1.0
295
0
296
0
143
3.75
271
0
272
9
273
9
  0
DICTIONARY
  5
2D
330
A
100
AcDbDictionary
280
1
281
1
  3
CREATED_BY_EZDXF
350
2E
  3
WRITTEN_BY_EZDXF
350
205
  0
DICTIONARYVAR
  5
2E
330
2D
100
DictionaryVariables
280
0
  1
1.4.3 @ 2026-04-02T11:56:52.767039+00:00
  0
VISUALSTYLE
  5
5A
102
{ACAD_REACTORS
330
16
102
}
330
16
100
AcDbVisualStyle
  2
2dWireframe
 70
4
 90
0
 40
0.6
 62
7
290
0
291
0
  0
VISUALSTYLE
  5
5B
102
{ACAD_REACTORS
330
16
102
}
330
16
100
AcDbVisualStyle
  2
Basic
 70
7
 90
1
 40
0.6
 62
7
290
0
291
1
  0
VISUALSTYLE
  5
5C
102
{ACAD_REACTORS
330
16
102
}
330
16
100
AcDbVisualStyle
  2
Brighten
 70
12
 90
2
 40
0.6
 62
7
290
0
291
1
  0
VISUALSTYLE
  5
5D
102
{ACAD_REACTORS
330
16
102
}
330
16
100
AcDbVisualStyle
  2
ColorChange
 70
16
 90
2
 40
0.6
 62
8
290
0
291
1
  0
VISUALSTYLE
  5
5E
102
{ACAD_REACTORS
330
16
102
}
330
16
100
AcDbVisualStyle
  2
Conceptual
 70
9
 90
3
 40
0.6
 62
7
290
0
291
0
  0
VISUALSTYLE
  5
5F
102
{ACAD_REACTORS
330
16
102
}
330
16
100
AcDbVisualStyle
  2
Dim
 70
11
 90
2
 40
0.6
 62
7
290
0
291
1
  0
VISUALSTYLE
  5
60
102
{ACAD_REACTORS
330
16
102
}
330
16
100
AcDbVisualStyle
  2
EdgeColorOff
 70
22
 90
2
 40
0.6
 62
7
290
0
291
1
  0
VISUALSTYLE
  5
61
102
{ACAD_REACTORS
330
16
102
}
330
16
100
AcDbVisualStyle
  2
Facepattern
 70
15
 90
2
 40
0.6
 62
7
290
0
291
1
  0
VISUALSTYLE
  5
62
102
{ACAD_REACTORS
330
16
102
}
330
16
100
AcDbVisualStyle
  2
Flat
 70
0
 90
2
 40
0.6
 62
7
290
0
291
1
  0
VISUALSTYLE
  5
63
102
{ACAD_REACTORS
330
16
102
}
330
16
100
AcDbVisualStyle
  2
FlatWithEdges
 70
1
 90
2
 40
0.6
 62
7
290
0
291
1
  0
VISUALSTYLE
  5
64
102
{ACAD_REACTORS
330
16
102
}
330
16
100
AcDbVisualStyle
  2
Gouraud
 70
2
 90
2
 40
0.6
 62
7
290
0
291
1
  0
VISUALSTYLE
  5
65
102
{ACAD_REACTORS
330
16
102
}
330
16
100
AcDbVisualStyle
  2
GouraudWithEdges
 70
3
 90
2
 40
0.6
 62
7
290
0
291
1
  0
VISUALSTYLE
  5
66
102
{ACAD_REACTORS
330
16
102
}
330
16
100
AcDbVisualStyle
  2
Hidden
 70
6
 90
1
 40
0.6
 62
7
290
0
291
0
  0
VISUALSTYLE
  5
67
102
{ACAD_REACTORS
330
16
102
}
330
16
100
AcDbVisualStyle
  2
JitterOff
 70
20
 90
2
 40
0.6
 62
7
290
0
291
1
  0
VISUALSTYLE
  5
68
102
{ACAD_REACTORS
330
16
102
}
330
16
100
AcDbVisualStyle
  2
Linepattern
 70
14
 90
2
 40
0.6
 62
7
290
0
291
1
  0
VISUALSTYLE
  5
69
102
{ACAD_REACTORS
330
16
102
}
330
16
100
AcDbVisualStyle
  2
Modeling
 70
10
 90
2
 40
0.6
 62
7
290
0
291
0
  0
VISUALSTYLE
  5
6A
102
{ACAD_REACTORS
330
16
102
}
330
16
100
AcDbVisualStyle
  2
OverhangOff
 70
21
 90
2
 40
0.6
 62
7
290
0
291
1
  0
VISUALSTYLE
  5
6B
102
{ACAD_REACTORS
330
16
102
}
330
16
100
AcDbVisualStyle
  2
Realistic
 70
8
 90
2
 40
0.6
 62
7
290
0
291
0
  0
VISUALSTYLE
  5
6C
102
{ACAD_REACTORS
330
16
102
}
330
16
100
AcDbVisualStyle
  2
Shaded
 70
27
 90
2
 40
0.6
 62
7
290
0
291
0
  0
VISUALSTYLE
  5
6D
102
{ACAD_REACTORS
330
16
102
}
330
16
100
AcDbVisualStyle
  2
Shaded with edges
 70
26
 90
2
 40
0.6
 62
7
290
0
291
0
  0
VISUALSTYLE
  5
6E
102
{ACAD_REACTORS
330
16
102
}
330
16
100
AcDbVisualStyle
  2
Shades of Gray
 70
23
 90
2
 40
0.6
 62
7
290
0
291
0
  0
VISUALSTYLE
  5
6F
102
{ACAD_REACTORS
330
16
102
}
330
16
100
AcDbVisualStyle
  2
Sketchy
 70
24
 90
1
 40
0.6
 62
7
290
0
291
0
  0
VISUALSTYLE
  5
70
102
{ACAD_REACTORS
330
16
102
}
330
16
100
AcDbVisualStyle
  2
Thicken
 70
13
 90
2
 40
0.6
 62
7
290
0
291
1
  0
VISUALSTYLE
  5
71
102
{ACAD_REACTORS
330
16
102
}
330
16
100
AcDbVisualStyle
  2
Wireframe
 70
5
 90
0
 40
0.6
 62
7
290
0
291
0
  0
VISUALSTYLE
  5
72
102
{ACAD_REACTORS
330
16
102
}
330
16
100
AcDbVisualStyle
  2
X-Ray
 70
25
 90
2
 40
0.5
 62
7
290
0
291
0
  0
DICTIONARYVAR
  5
205
330
2D
100
DictionaryVariables
280
0
  1
1.4.3 @ 2026-04-02T11:56:52.790038+00:00
  0
ENDSEC
  0
EOF
