  0
SECTION
  2
HEADER
  9
$ACADVER
  1
AC1024
  9
$ACADMAINTVER
 70
6
  9
$DWGCODEPAGE
  3
ANSI_1252
  9
$LASTSAVEDBY
  1
ezdxf
  9
$INSBASE
 10
0.0
 20
0.0
 30
0.0
  9
$EXTMIN
 10
1e+20
 20
1e+20
 30
1e+20
  9
$EXTMAX
 10
-1e+20
 20
-1e+20
 30
-1e+20
  9
$LIMMIN
 10
0.0
 20
0.0
  9
$LIMMAX
 10
420.0
 20
297.0
  9
$ORTHOMODE
 70
0
  9
$REGENMODE
 70
1
  9
$FILLMODE
 70
1
  9
$QTEXTMODE
 70
0
  9
$MIRRTEXT
 70
1
  9
$LTSCALE
 40
1.0
  9
$ATTMODE
 70
1
  9
$TEXTSIZE
 40
2.5
  9
$TRACEWID
 40
1.0
  9
$TEXTSTYLE
  7
OpenSans
  9
$CLAYER
  8
0
  9
$CELTYPE
  6
ByLayer
  9
$CECOLOR
 62
256
  9
$CELTSCALE
 40
1.0
  9
$DISPSILH
 70
0
  9
$DIMSCALE
 40
1.0
  9
$DIMASZ
 40
0.175
  9
$DIMEXO
 40
0.125
  9
$DIMDLI
 40
3.75
  9
$DIMRND
 40
0.0
  9
$DIMDLE
 40
0.0
  9
$DIMEXE
 40
0.375
  9
$DIMTP
 40
0.0
  9
$DIMTM
 40
0.0
  9
$DIMTXT
 40
0.25
  9
$DIMCEN
 40
2.5
  9
$DIMTSZ
 40
0.0
  9
$DIMTOL
 70
0
  9
$DIMLIM
 70
0
  9
$DIMTIH
 70
0
  9
$DIMTOH
 70
0
  9
$DIMSE1
 70
0
  9
$DIMSE2
 70
0
  9
$DIMTAD
 70
1
  9
$DIMZIN
 70
12
  9
$DIMBLK
  1
ARCHTICK
  9
$DIMASO
 70
1
  9
$DIMSHO
 70
1
  9
$DIMPOST
  1

  9
$DIMAPOST
  1

  9
$DIMALT
 70
0
  9
$DIMALTD
 70
3
  9
$DIMALTF
 40
0.03937007874
  9
$DIMLFAC
 40
100.0
  9
$DIMTOFL
 70
1
  9
$DIMTVP
 40
0.0
  9
$DIMTIX
 70
0
  9
$DIMSOXD
 70
0
  9
$DIMSAH
 70
0
  9
$DIMBLK1
  1

  9
$DIMBLK2
  1

  9
$DIMSTYLE
  2
EZDXF
  9
$DIMCLRD
 70
0
  9
$DIMCLRE
 70
0
  9
$DIMCLRT
 70
0
  9
$DIMTFAC
 40
0.5
  9
$DIMGAP
 40
0.1
  9
$DIMJUST
 70
0
  9
$DIMSD1
 70
0
  9
$DIMSD2
 70
0
  9
$DIMTOLJ
 70
0
  9
$DIMTZIN
 70
8
  9
$DIMALTZ
 70
0
  9
$DIMALTTZ
 70
0
  9
$DIMUPT
 70
1
  9
$DIMDEC
 70
2
  9
$DIMTDEC
 70
2
  9
$DIMALTU
 70
2
  9
$DIMALTTD
 70
3
  9
$DIMTXSTY
  7
OpenSansCondensed-Light
  9
$DIMAUNIT
 70
0
  9
$DIMADEC
 70
2
  9
$DIMALTRND
 40
0.0
  9
$DIMAZIN
 70
3
  9
$DIMDSEP
 70
46
  9
$DIMATFIT
 70
3
  9
$DIMFRAC
 70
0
  9
$DIMLDRBLK
  1

  9
$DIMLUNIT
 70
2
  9
$DIMLWD
 70
-2
  9
$DIMLWE
 70
-2
  9
$DIMTMOVE
 70
2
  9
$DIMFXL
 40
1.0
  9
$DIMFXLON
 70
0
  9
$DIMJOGANG
 40
0.785398163397
  9
$DIMTFILL
 70
0
  9
$DIMTFILLCLR
 70
0
  9
$DIMARCSYM
 70
0
  9
$DIMLTYPE
  6

  9
$DIMLTEX1
  6

  9
$DIMLTEX2
  6

  9
$DIMTXTDIRECTION
 70
0
  9
$LUNITS
 70
2
  9
$LUPREC
 70
4
  9
$SKETCHINC
 40
1.0
  9
$FILLETRAD
 40
10.0
  9
$AUNITS
 70
0
  9
$AUPREC
 70
2
  9
$MENU
  1
.
  9
$ELEVATION
 40
0.0
  9
$PELEVATION
 40
0.0
  9
$THICKNESS
 40
0.0
  9
$LIMCHECK
 70
0
  9
$CHAMFERA
 40
0.0
  9
$CHAMFERB
 40
0.0
  9
$CHAMFERC
 40
0.0
  9
$CHAMFERD
 40
0.0
  9
$SKPOLY
 70
0
  9
$TDCREATE
 40
2461133.5811921298
  9
$TDUCREATE
 40
2458532.153996898
  9
$TDUPDATE
 40
2461133.5811921298
  9
$TDUUPDATE
 40
2458532.1544311
  9
$TDINDWG
 40
0.0
  9
$TDUSRTIMER
 40
0.0
  9
$USRTIMER
 70
1
  9
$ANGBASE
 50
0.0
  9
$ANGDIR
 70
0
  9
$PDMODE
 70
0
  9
$PDSIZE
 40
0.0
  9
$PLINEWID
 40
0.0
  9
$SPLFRAME
 70
0
  9
$SPLINETYPE
 70
6
  9
$SPLINESEGS
 70
8
  9
$HANDSEED
  5
2E3
  9
$SURFTAB1
 70
6
  9
$SURFTAB2
 70
6
  9
$SURFTYPE
 70
6
  9
$SURFU
 70
6
  9
$SURFV
 70
6
  9
$UCSBASE
  2

  9
$UCSNAME
  2

  9
$UCSORG
 10
0.0
 20
0.0
 30
0.0
  9
$UCSXDIR
 10
1.0
 20
0.0
 30
0.0
  9
$UCSYDIR
 10
0.0
 20
1.0
 30
0.0
  9
$UCSORTHOREF
  2

  9
$UCSORTHOVIEW
 70
0
  9
$UCSORGTOP
 10
0.0
 20
0.0
 30
0.0
  9
$UCSORGBOTTOM
 10
0.0
 20
0.0
 30
0.0
  9
$UCSORGLEFT
 10
0.0
 20
0.0
 30
0.0
  9
$UCSORGRIGHT
 10
0.0
 20
0.0
 30
0.0
  9
$UCSORGFRONT
 10
0.0
 20
0.0
 30
0.0
  9
$UCSORGBACK
 10
0.0
 20
0.0
 30
0.0
  9
$PUCSBASE
  2

  9
$PUCSNAME
  2

  9
$PUCSORG
 10
0.0
 20
0.0
 30
0.0
  9
$PUCSXDIR
 10
1.0
 20
0.0
 30
0.0
  9
$PUCSYDIR
 10
0.0
 20
1.0
 30
0.0
  9
$PUCSORTHOREF
  2

  9
$PUCSORTHOVIEW
 70
0
  9
$PUCSORGTOP
 10
0.0
 20
0.0
 30
0.0
  9
$PUCSORGBOTTOM
 10
0.0
 20
0.0
 30
0.0
  9
$PUCSORGLEFT
 10
0.0
 20
0.0
 30
0.0
  9
$PUCSORGRIGHT
 10
0.0
 20
0.0
 30
0.0
  9
$PUCSORGFRONT
 10
0.0
 20
0.0
 30
0.0
  9
$PUCSORGBACK
 10
0.0
 20
0.0
 30
0.0
  9
$USERI1
 70
0
  9
$USERI2
 70
0
  9
$USERI3
 70
0
  9
$USERI4
 70
0
  9
$USERI5
 70
0
  9
$USERR1
 40
0.0
  9
$USERR2
 40
0.0
  9
$USERR3
 40
0.0
  9
$USERR4
 40
0.0
  9
$USERR5
 40
0.0
  9
$WORLDVIEW
 70
1
  9
$SHADEDGE
 70
3
  9
$SHADEDIF
 70
70
  9
$TILEMODE
 70
1
  9
$MAXACTVP
 70
64
  9
$PINSBASE
 10
0.0
 20
0.0
 30
0.0
  9
$PLIMCHECK
 70
0
  9
$PEXTMIN
 10
1e+20
 20
1e+20
 30
1e+20
  9
$PEXTMAX
 10
-1e+20
 20
-1e+20
 30
-1e+20
  9
$PLIMMIN
 10
0.0
 20
0.0
  9
$PLIMMAX
 10
420.0
 20
297.0
  9
$UNITMODE
 70
0
  9
$VISRETAIN
 70
1
  9
$PLINEGEN
 70
0
  9
$PSLTSCALE
 70
1
  9
$TREEDEPTH
 70
3020
  9
$CMLSTYLE
  2
Standard
  9
$CMLJUST
 70
0
  9
$CMLSCALE
 40
20.0
  9
$PROXYGRAPHICS
 70
1
  9
$MEASUREMENT
 70
1
  9
$CELWEIGHT
370
-1
  9
$ENDCAPS
280
0
  9
$JOINSTYLE
280
0
  9
$LWDISPLAY
290
0
  9
$INSUNITS
 70
6
  9
$HYPERLINKBASE
  1

  9
$STYLESHEET
  1

  9
$XEDIT
290
1
  9
$CEPSNTYPE
380
0
  9
$PSTYLEMODE
290
1
  9
$FINGERPRINTGUID
  2
{D9ED2375-1A97-4B3A-8B12-1CD7FFF0036D}
  9
$VERSIONGUID
  2
{4A3300D5-A325-44CE-90D0-1C0BED1E1D52}
  9
$EXTNAMES
290
1
  9
$PSVPSCALE
 40
0.0
  9
$OLESTARTUP
290
0
  9
$SORTENTS
280
127
  9
$INDEXCTL
280
0
  9
$HIDETEXT
280
1
  9
$XCLIPFRAME
280
1
  9
$HALOGAP
280
0
  9
$OBSCOLOR
 70
257
  9
$OBSLTYPE
280
0
  9
$INTERSECTIONDISPLAY
280
0
  9
$INTERSECTIONCOLOR
 70
257
  9
$DIMASSOC
280
2
  9
$PROJECTNAME
  1

  9
$CAMERADISPLAY
290
0
  9
$LENSLENGTH
 40
50.0
  9
$CAMERAHEIGHT
 40
0.0
  9
$STEPSPERSEC
 40
24.0
  9
$STEPSIZE
 40
100.0
  9
$3DDWFPREC
 40
2.0
  9
$PSOLWIDTH
 40
0.005
  9
$PSOLHEIGHT
 40
0.08
  9
$LOFTANG1
 40
1.570796326795
  9
$LOFTANG2
 40
1.570796326795
  9
$LOFTMAG1
 40
0.0
  9
$LOFTMAG2
 40
0.0
  9
$LOFTPARAM
 70
7
  9
$LOFTNORMALS
280
1
  9
$LATITUDE
 40
37.795
  9
$LONGITUDE
 40
-122.394
  9
$NORTHDIRECTION
 40
0.0
  9
$TIMEZONE
 70
-8000
  9
$LIGHTGLYPHDISPLAY
280
1
  9
$TILEMODELIGHTSYNCH
280
1
  9
$CMATERIAL
347
20
  9
$SOLIDHIST
280
0
  9
$SHOWHIST
280
1
  9
$DWFFRAME
280
2
  9
$DGNFRAME
280
2
  9
$REALWORLDSCALE
290
1
  9
$INTERFERECOLOR
 62
256
  9
$CSHADOW
280
0
  9
$SHADOWPLANELOCATION
 40
0.0
  0
ENDSEC
  0
SECTION
  2
CLASSES
  0
CLASS
  1
ACDBDICTIONARYWDFLT
  2
AcDbDictionaryWithDefault
  3
ObjectDBX Classes
 90
0
 91
0
280
0
281
0
  0
CLASS
  1
SUN
  2
AcDbSun
  3
SCENEOE
 90
1153
 91
0
280
0
281
0
  0
CLASS
  1
VISUALSTYLE
  2
AcDbVisualStyle
  3
ObjectDBX Classes
 90
4095
 91
0
280
0
281
0
  0
CLASS
  1
MATERIAL
  2
AcDbMaterial
  3
ObjectDBX Classes
 90
1153
 91
0
280
0
281
0
  0
CLASS
  1
SCALE
  2
AcDbScale
  3
ObjectDBX Classes
 90
1153
 91
0
280
0
281
0
  0
CLASS
  1
TABLESTYLE
  2
AcDbTableStyle
  3
ObjectDBX Classes
 90
4095
 91
0
280
0
281
0
  0
CLASS
  1
MLEADERSTYLE
  2
AcDbMLeaderStyle
  3
ACDB_MLEADERSTYLE_CLASS
 90
4095
 91
0
280
0
281
0
  0
CLASS
  1
DICTIONARYVAR
  2
AcDbDictionaryVar
  3
ObjectDBX Classes
 90
0
 91
0
280
0
281
0
  0
CLASS
  1
CELLSTYLEMAP
  2
AcDbCellStyleMap
  3
ObjectDBX Classes
 90
1152
 91
0
280
0
281
0
  0
CLASS
  1
MENTALRAYRENDERSETTINGS
  2
AcDbMentalRayRenderSettings
  3
SCENEOE
 90
1024
 91
0
280
0
281
0
  0
CLASS
  1
ACDBDETAILVIEWSTYLE
  2
AcDbDetailViewStyle
  3
ObjectDBX Classes
 90
1025
 91
0
280
0
281
0
  0
CLASS
  1
ACDBSECTIONVIEWSTYLE
  2
AcDbSectionViewStyle
  3
ObjectDBX Classes
 90
1025
 91
0
280
0
281
0
  0
CLASS
  1
RASTERVARIABLES
  2
AcDbRasterVariables
  3
ISM
 90
0
 91
0
280
0
281
0
  0
CLASS
  1
ACDBPLACEHOLDER
  2
AcDbPlaceHolder
  3
ObjectDBX Classes
 90
0
 91
0
280
0
281
0
  0
CLASS
  1
LAYOUT
  2
AcDbLayout
  3
ObjectDBX Classes
 90
0
 91
0
280
0
281
0
  0
ENDSEC
  0
SECTION
  2
TABLES
  0
TABLE
  2
VPORT
  5
8
330
0
100
AcDbSymbolTable
 70
1
  0
VPORT
  5
23
330
8
100
AcDbSymbolTableRecord
100
AcDbViewportTableRecord
  2
*Active
 70
0
 10
0.0
 20
0.0
 11
1.0
 21
1.0
 12
0.0
 22
0.0
 13
0.0
 23
0.0
 14
0.5
 24
0.5
 15
0.5
 25
0.5
 16
0.0
 26
0.0
 36
1.0
 17
0.0
 27
0.0
 37
0.0
 40
1000.0
 41
1.34
 42
50.0
 43
0.0
 44
0.0
 50
0.0
 51
0.0
 71
0
 72
1000
 73
1
 74
3
 75
0
 76
0
 77
0
 78
0
281
0
 65
0
146
0.0
  0
ENDTAB
  0
TABLE
  2
LTYPE
  5
2
330
0
100
AcDbSymbolTable
 70
21
  0
LTYPE
  5
24
330
2
100
AcDbSymbolTableRecord
100
AcDbLinetypeTableRecord
  2
ByBlock
 70
0
  3

 72
65
 73
0
 40
0.0
  0
LTYPE
  5
25
330
2
100
AcDbSymbolTableRecord
100
AcDbLinetypeTableRecord
  2
ByLayer
 70
0
  3

 72
65
 73
0
 40
0.0
  0
LTYPE
  5
26
330
2
100
AcDbSymbolTableRecord
100
AcDbLinetypeTableRecord
  2
Continuous
 70
0
  3

 72
65
 73
0
 40
0.0
  0
LTYPE
  5
2F
330
2
100
AcDbSymbolTableRecord
100
AcDbLinetypeTableRecord
  2
CENTER
 70
0
  3
Center ____ _ ____ _ ____ _ ____ _ ____ _ ____
 72
65
 73
4
 40
5.08
 49
3.175
 74
0
 49
-0.635
 74
0
 49
0.635
 74
0
 49
-0.635
 74
0
  0
LTYPE
  5
30
330
2
100
AcDbSymbolTableRecord
100
AcDbLinetypeTableRecord
  2
CENTERX2
 70
0
  3
Center (2x) ________  __  ________  __  ________
 72
65
 73
4
 40
8.89
 49
6.35
 74
0
 49
-0.635
 74
0
 49
1.27
 74
0
 49
-0.635
 74
0
  0
LTYPE
  5
31
330
2
100
AcDbSymbolTableRecord
100
AcDbLinetypeTableRecord
  2
CENTER2
 70
0
  3
Center (.5x) ____ _ ____ _ ____ _ ____ _ ____
 72
65
 73
4
 40
2.54
 49
1.587
 74
0
 49
-0.318
 74
0
 49
0.318
 74
0
 49
-0.318
 74
0
  0
LTYPE
  5
32
330
2
100
AcDbSymbolTableRecord
100
AcDbLinetypeTableRecord
  2
DASHED
 70
0
  3
Dashed __ __ __ __ __ __ __ __ __ __ __ __ __ _
 72
65
 73
2
 40
1.524
 49
1.27
 74
0
 49
-0.254
 74
0
  0
LTYPE
  5
33
330
2
100
AcDbSymbolTableRecord
100
AcDbLinetypeTableRecord
  2
DASHEDX2
 70
0
  3
Dashed (2x) ____  ____  ____  ____  ____  ____
 72
65
 73
2
 40
3.048
 49
2.54
 74
0
 49
-0.508
 74
0
  0
LTYPE
  5
34
330
2
100
AcDbSymbolTableRecord
100
AcDbLinetypeTableRecord
  2
DASHED2
 70
0
  3
Dashed (.5x) _ _ _ _ _ _ _ _ _ _ _ _ _ _
 72
65
 73
2
 40
0.762
 49
0.635
 74
0
 49
-0.127
 74
0
  0
LTYPE
  5
35
330
2
100
AcDbSymbolTableRecord
100
AcDbLinetypeTableRecord
  2
PHANTOM
 70
0
  3
Phantom ______  __  __  ______  __  __  ______
 72
65
 73
6
 40
6.35
 49
3.175
 74
0
 49
-0.635
 74
0
 49
0.635
 74
0
 49
-0.635
 74
0
 49
0.635
 74
0
 49
-0.635
 74
0
  0
LTYPE
  5
36
330
2
100
AcDbSymbolTableRecord
100
AcDbLinetypeTableRecord
  2
PHANTOMX2
 70
0
  3
Phantom (2x)____________    ____    ____    ____________
 72
65
 73
6
 40
10.795
 49
6.35
 74
0
 49
-0.635
 74
0
 49
1.27
 74
0
 49
-0.635
 74
0
 49
1.27
 74
0
 49
-0.635
 74
0
  0
LTYPE
  5
37
330
2
100
AcDbSymbolTableRecord
100
AcDbLinetypeTableRecord
  2
PHANTOM2
 70
0
  3
Phantom (.5x) ___ _ _ ___ _ _ ___ _ _ ___ _ _ ___
 72
65
 73
6
 40
3.175
 49
1.587
 74
0
 49
-0.318
 74
0
 49
0.318
 74
0
 49
-0.318
 74
0
 49
0.318
 74
0
 49
-0.318
 74
0
  0
LTYPE
  5
38
330
2
100
AcDbSymbolTableRecord
100
AcDbLinetypeTableRecord
  2
DASHDOT
 70
0
  3
Dash dot __ . __ . __ . __ . __ . __ . __ . __
 72
65
 73
4
 40
3.556
 49
2.54
 74
0
 49
-0.508
 74
0
 49
0.0
 74
0
 49
-0.508
 74
0
  0
LTYPE
  5
39
330
2
100
AcDbSymbolTableRecord
100
AcDbLinetypeTableRecord
  2
DASHDOTX2
 70
0
  3
Dash dot (2x) ____  .  ____  .  ____  .  ____
 72
65
 73
4
 40
6.096
 49
5.08
 74
0
 49
-0.508
 74
0
 49
0.0
 74
0
 49
-0.508
 74
0
  0
LTYPE
  5
3A
330
2
100
AcDbSymbolTableRecord
100
AcDbLinetypeTableRecord
  2
DASHDOT2
 70
0
  3
Dash dot (.5x) _ . _ . _ . _ . _ . _ . _ . _
 72
65
 73
4
 40
1.778
 49
1.27
 74
0
 49
-0.254
 74
0
 49
0.0
 74
0
 49
-0.254
 74
0
  0
LTYPE
  5
3B
330
2
100
AcDbSymbolTableRecord
100
AcDbLinetypeTableRecord
  2
DOT
 70
0
  3
Dot .  .  .  .  .  .  .  .  .  .  .  .  .  .  .  .
 72
65
 73
2
 40
0.508
 49
0.0
 74
0
 49
-0.508
 74
0
  0
LTYPE
  5
3C
330
2
100
AcDbSymbolTableRecord
100
AcDbLinetypeTableRecord
  2
DOTX2
 70
0
  3
Dot (2x) .    .    .    .    .    .    .    . 
 72
65
 73
2
 40
1.016
 49
0.0
 74
0
 49
-1.016
 74
0
  0
LTYPE
  5
3D
330
2
100
AcDbSymbolTableRecord
100
AcDbLinetypeTableRecord
  2
DOT2
 70
0
  3
Dot (.5) . . . . . . . . . . . . . . . . . . . 
 72
65
 73
2
 40
0.254
 49
0.0
 74
0
 49
-0.254
 74
0
  0
LTYPE
  5
3E
330
2
100
AcDbSymbolTableRecord
100
AcDbLinetypeTableRecord
  2
DIVIDE
 70
0
  3
Divide __ . . __ . . __ . . __ . . __ . . __
 72
65
 73
6
 40
4.064
 49
2.54
 74
0
 49
-0.508
 74
0
 49
0.0
 74
0
 49
-0.508
 74
0
 49
0.0
 74
0
 49
-0.508
 74
0
  0
LTYPE
  5
3F
330
2
100
AcDbSymbolTableRecord
100
AcDbLinetypeTableRecord
  2
DIVIDEX2
 70
0
  3
Divide (2x) ____  . .  ____  . .  ____  . .  ____
 72
65
 73
6
 40
6.604
 49
5.08
 74
0
 49
-0.508
 74
0
 49
0.0
 74
0
 49
-0.508
 74
0
 49
0.0
 74
0
 49
-0.508
 74
0
  0
LTYPE
  5
40
330
2
100
AcDbSymbolTableRecord
100
AcDbLinetypeTableRecord
  2
DIVIDE2
 70
0
  3
Divide(.5x) _ . _ . _ . _ . _ . _ . _ . _
 72
65
 73
6
 40
2.032
 49
1.27
 74
0
 49
-0.254
 74
0
 49
0.0
 74
0
 49
-0.254
 74
0
 49
0.0
 74
0
 49
-0.254
 74
0
  0
ENDTAB
  0
TABLE
  2
LAYER
  5
1
330
0
100
AcDbSymbolTable
 70
14
  0
LAYER
  5
27
330
1
100
AcDbSymbolTableRecord
100
AcDbLayerTableRecord
  2
0
 70
0
 62
7
  6
Continuous
370
-3
390
13
347
21
  0
LAYER
  5
28
330
1
100
AcDbSymbolTableRecord
100
AcDbLayerTableRecord
  2
Defpoints
 70
0
 62
7
  6
Continuous
290
0
370
-3
390
13
347
21
  0
LAYER
  5
8A
330
1
100
AcDbSymbolTableRecord
100
AcDbLayerTableRecord
  2
BORDER
 70
0
 62
7
  6
Continuous
370
-3
390
13
347
21
  0
LAYER
  5
8B
330
1
100
AcDbSymbolTableRecord
100
AcDbLayerTableRecord
  2
TITLEBLOCK
 70
0
 62
7
  6
Continuous
370
-3
390
13
347
21
  0
LAYER
  5
8C
330
1
100
AcDbSymbolTableRecord
100
AcDbLayerTableRecord
  2
ORIENTATION
 70
0
 62
7
  6
Continuous
370
-3
390
13
347
21
  0
LAYER
  5
8D
330
1
100
AcDbSymbolTableRecord
100
AcDbLayerTableRecord
  2
OUTLINE
 70
0
 62
7
  6
Continuous
370
-3
390
13
347
21
  0
LAYER
  5
8E
330
1
100
AcDbSymbolTableRecord
100
AcDbLayerTableRecord
  2
HIDDEN
 70
0
 62
7
  6
Continuous
370
-3
390
13
347
21
  0
LAYER
  5
8F
330
1
100
AcDbSymbolTableRecord
100
AcDbLayerTableRecord
  2
CENTERLINE
 70
0
 62
5
  6
Continuous
370
-3
390
13
347
21
  0
LAYER
  5
90
330
1
100
AcDbSymbolTableRecord
100
AcDbLayerTableRecord
  2
SPAR
 70
0
 62
3
  6
Continuous
370
-3
390
13
347
21
  0
LAYER
  5
91
330
1
100
AcDbSymbolTableRecord
100
AcDbLayerTableRecord
  2
WALL
 70
0
 62
6
  6
Continuous
370
-3
390
13
347
21
  0
LAYER
  5
92
330
1
100
AcDbSymbolTableRecord
100
AcDbLayerTableRecord
  2
SECTION
 70
0
 62
4
  6
Continuous
370
-3
390
13
347
21
  0
LAYER
  5
93
330
1
100
AcDbSymbolTableRecord
100
AcDbLayerTableRecord
  2
HATCH
 70
0
 62
252
  6
Continuous
370
-3
390
13
347
21
  0
LAYER
  5
94
330
1
100
AcDbSymbolTableRecord
100
AcDbLayerTableRecord
  2
DIMENSION
 70
0
 62
1
  6
Continuous
370
-3
390
13
347
21
  0
LAYER
  5
95
330
1
100
AcDbSymbolTableRecord
100
AcDbLayerTableRecord
  2
TEXT
 70
0
 62
7
  6
Continuous
370
-3
390
13
347
21
  0
ENDTAB
  0
TABLE
  2
STYLE
  5
5
330
0
100
AcDbSymbolTable
 70
26
  0
STYLE
  5
29
330
5
100
AcDbSymbolTableRecord
100
AcDbTextStyleTableRecord
  2
Standard
 70
0
 40
0.0
 41
1.0
 50
0.0
 71
0
 42
2.5
  3
txt
  4

  0
STYLE
  5
41
330
5
100
AcDbSymbolTableRecord
100
AcDbTextStyleTableRecord
  2
OpenSans-Light
 70
0
 40
0.0
 41
1.0
 50
0.0
 71
0
 42
2.5
  3
OpenSans-Light.ttf
  4

  0
STYLE
  5
42
330
5
100
AcDbSymbolTableRecord
100
AcDbTextStyleTableRecord
  2
OpenSans-Light-Italic
 70
0
 40
0.0
 41
1.0
 50
0.0
 71
0
 42
2.5
  3
OpenSans-LightItalic.ttf
  4

  0
STYLE
  5
43
330
5
100
AcDbSymbolTableRecord
100
AcDbTextStyleTableRecord
  2
OpenSans
 70
0
 40
0.0
 41
1.0
 50
0.0
 71
0
 42
2.5
  3
OpenSans-Regular.ttf
  4

  0
STYLE
  5
44
330
5
100
AcDbSymbolTableRecord
100
AcDbTextStyleTableRecord
  2
OpenSans-Italic
 70
0
 40
0.0
 41
1.0
 50
0.0
 71
0
 42
2.5
  3
OpenSans-Italic.ttf
  4

  0
STYLE
  5
45
330
5
100
AcDbSymbolTableRecord
100
AcDbTextStyleTableRecord
  2
OpenSans-SemiBold
 70
0
 40
0.0
 41
1.0
 50
0.0
 71
0
 42
2.5
  3
OpenSans-SemiBold.ttf
  4

  0
STYLE
  5
46
330
5
100
AcDbSymbolTableRecord
100
AcDbTextStyleTableRecord
  2
OpenSans-SemiBoldItalic
 70
0
 40
0.0
 41
1.0
 50
0.0
 71
0
 42
2.5
  3
OpenSans-SemiBoldItalic.ttf
  4

  0
STYLE
  5
47
330
5
100
AcDbSymbolTableRecord
100
AcDbTextStyleTableRecord
  2
OpenSans-Bold
 70
0
 40
0.0
 41
1.0
 50
0.0
 71
0
 42
2.5
  3
OpenSans-Bold.ttf
  4

  0
STYLE
  5
48
330
5
100
AcDbSymbolTableRecord
100
AcDbTextStyleTableRecord
  2
OpenSans-BoldItalic
 70
0
 40
0.0
 41
1.0
 50
0.0
 71
0
 42
2.5
  3
OpenSans-BoldItalic.ttf
  4

  0
STYLE
  5
49
330
5
100
AcDbSymbolTableRecord
100
AcDbTextStyleTableRecord
  2
OpenSans-ExtraBold
 70
0
 40
0.0
 41
1.0
 50
0.0
 71
0
 42
2.5
  3
OpenSans-ExtraBold.ttf
  4

  0
STYLE
  5
4A
330
5
100
AcDbSymbolTableRecord
100
AcDbTextStyleTableRecord
  2
OpenSans-ExtraBoldItalic
 70
0
 40
0.0
 41
1.0
 50
0.0
 71
0
 42
2.5
  3
OpenSans-ExtraBoldItalic.ttf
  4

  0
STYLE
  5
4B
330
5
100
AcDbSymbolTableRecord
100
AcDbTextStyleTableRecord
  2
OpenSansCondensed-Bold
 70
0
 40
0.0
 41
1.0
 50
0.0
 71
0
 42
2.5
  3
OpenSansCondensed-Bold.ttf
  4

  0
STYLE
  5
4C
330
5
100
AcDbSymbolTableRecord
100
AcDbTextStyleTableRecord
  2
OpenSansCondensed-Light
 70
0
 40
0.0
 41
1.0
 50
0.0
 71
0
 42
2.5
  3
OpenSansCondensed-Light.ttf
  4

  0
STYLE
  5
4D
330
5
100
AcDbSymbolTableRecord
100
AcDbTextStyleTableRecord
  2
OpenSansCondensed-Italic
 70
0
 40
0.0
 41
1.0
 50
0.0
 71
0
 42
2.5
  3
OpenSansCondensed-LightItalic.ttf
  4

  0
STYLE
  5
4E
330
5
100
AcDbSymbolTableRecord
100
AcDbTextStyleTableRecord
  2
LiberationSans
 70
0
 40
0.0
 41
1.0
 50
0.0
 71
0
 42
2.5
  3
LiberationSans-Regular.ttf
  4

  0
STYLE
  5
4F
330
5
100
AcDbSymbolTableRecord
100
AcDbTextStyleTableRecord
  2
LiberationSans-Bold
 70
0
 40
0.0
 41
1.0
 50
0.0
 71
0
 42
2.5
  3
LiberationSans-Bold.ttf
  4

  0
STYLE
  5
50
330
5
100
AcDbSymbolTableRecord
100
AcDbTextStyleTableRecord
  2
LiberationSans-BoldItalic
 70
0
 40
0.0
 41
1.0
 50
0.0
 71
0
 42
2.5
  3
LiberationSans-BoldItalic.ttf
  4

  0
STYLE
  5
51
330
5
100
AcDbSymbolTableRecord
100
AcDbTextStyleTableRecord
  2
LiberationSans-Italic
 70
0
 40
0.0
 41
1.0
 50
0.0
 71
0
 42
2.5
  3
LiberationSans-Italic.ttf
  4

  0
STYLE
  5
52
330
5
100
AcDbSymbolTableRecord
100
AcDbTextStyleTableRecord
  2
LiberationSerif
 70
0
 40
0.0
 41
1.0
 50
0.0
 71
0
 42
2.5
  3
LiberationSerif-Regular.ttf
  4

  0
STYLE
  5
53
330
5
100
AcDbSymbolTableRecord
100
AcDbTextStyleTableRecord
  2
LiberationSerif-Bold
 70
0
 40
0.0
 41
1.0
 50
0.0
 71
0
 42
2.5
  3
LiberationSerif-Bold.ttf
  4

  0
STYLE
  5
54
330
5
100
AcDbSymbolTableRecord
100
AcDbTextStyleTableRecord
  2
LiberationSerif-BoldItalic
 70
0
 40
0.0
 41
1.0
 50
0.0
 71
0
 42
2.5
  3
LiberationSerif-BoldItalic.ttf
  4

  0
STYLE
  5
55
330
5
100
AcDbSymbolTableRecord
100
AcDbTextStyleTableRecord
  2
LiberationSerif-Italic
 70
0
 40
0.0
 41
1.0
 50
0.0
 71
0
 42
2.5
  3
LiberationSerif-Italic.ttf
  4

  0
STYLE
  5
56
330
5
100
AcDbSymbolTableRecord
100
AcDbTextStyleTableRecord
  2
LiberationMono
 70
0
 40
0.0
 41
1.0
 50
0.0
 71
0
 42
2.5
  3
LiberationMono-Regular.ttf
  4

  0
STYLE
  5
57
330
5
100
AcDbSymbolTableRecord
100
AcDbTextStyleTableRecord
  2
LiberationMono-Bold
 70
0
 40
0.0
 41
1.0
 50
0.0
 71
0
 42
2.5
  3
LiberationMono-Bold.ttf
  4

  0
STYLE
  5
58
330
5
100
AcDbSymbolTableRecord
100
AcDbTextStyleTableRecord
  2
LiberationMono-BoldItalic
 70
0
 40
0.0
 41
1.0
 50
0.0
 71
0
 42
2.5
  3
LiberationMono-BoldItalic.ttf
  4

  0
STYLE
  5
59
330
5
100
AcDbSymbolTableRecord
100
AcDbTextStyleTableRecord
  2
LiberationMono-Italic
 70
0
 40
0.0
 41
1.0
 50
0.0
 71
0
 42
2.5
  3
LiberationMono-Italic.ttf
  4

  0
ENDTAB
  0
TABLE
  2
VIEW
  5
7
330
0
100
AcDbSymbolTable
 70
0
  0
ENDTAB
  0
TABLE
  2
UCS
  5
6
330
0
100
AcDbSymbolTable
 70
0
  0
ENDTAB
  0
TABLE
  2
APPID
  5
3
330
0
100
AcDbSymbolTable
 70
3
  0
APPID
  5
2A
330
3
100
AcDbSymbolTableRecord
100
AcDbRegAppTableRecord
  2
ACAD
 70
0
  0
APPID
  5
2E0
330
3
100
AcDbSymbolTableRecord
100
AcDbRegAppTableRecord
  2
HATCHBACKGROUNDCOLOR
 70
0
  0
APPID
  5
2E1
330
3
100
AcDbSymbolTableRecord
100
AcDbRegAppTableRecord
  2
EZDXF
 70
0
  0
ENDTAB
  0
TABLE
  2
DIMSTYLE
  5
4
330
0
100
AcDbSymbolTable
 70
13
100
AcDbDimStyleTable
  0
DIMSTYLE
105
2B
330
4
100
AcDbSymbolTableRecord
100
AcDbDimStyleTableRecord
  2
Standard
 70
0
 40
1.0
 41
2.5
 42
0.625
 43
3.75
 44
1.25
 45
0.0
 46
0.0
 47
0.0
 48
0.0
 49
2.5
140
2.5
141
2.5
142
0.0
143
0.03937007874
144
1.0
145
0.0
146
1.0
147
0.625
148
0.0
 69
0
 70
0
 71
0
 72
0
 73
0
 74
0
 75
0
 76
0
 77
1
 78
8
 79
3
170
0
171
3
172
1
173
0
174
0
175
0
176
0
177
0
178
0
179
2
271
2
272
2
273
2
274
3
275
0
276
0
277
2
278
44
279
0
280
0
281
0
282
0
283
0
284
8
285
0
286
0
288
0
289
3
290
0
371
-2
372
-2
  0
DIMSTYLE
105
73
330
4
100
AcDbSymbolTableRecord
100
AcDbDimStyleTableRecord
  2
EZDXF
 70
0
 40
1.0
 41
0.175
 42
0.125
 43
3.75
 44
0.375
 45
0.0
 46
0.0
 47
0.0
 48
0.0
 49
2.5
140
0.25
141
2.5
142
0.0
143
0.03937007874
144
100.0
145
0.0
146
0.5
147
0.1
148
0.0
 69
0
 70
0
 71
0
 72
0
 73
0
 74
0
 75
0
 76
0
 77
1
 78
12
 79
3
170
0
171
3
172
1
173
0
174
0
175
0
176
0
177
0
178
0
179
2
271
2
272
2
273
2
274
3
275
0
276
0
277
2
278
46
279
2
280
0
281
0
282
0
283
0
284
8
285
0
286
0
288
1
289
3
290
0
340
4C
342
74
371
-2
372
-2
  0
DIMSTYLE
105
7C
330
4
100
AcDbSymbolTableRecord
100
AcDbDimStyleTableRecord
  2
EZ_M_100_H25_CM
 70
0
 40
1.0
 41
0.25
 42
0.125
 43
3.75
 44
0.375
 45
0.0
 46
0.0
 47
0.0
 48
0.0
 49
2.5
140
0.25
141
2.5
142
0.125
143
0.03937007874
144
100.0
145
0.0
146
0.5
147
0.1
148
0.0
 69
0
 70
0
 71
0
 72
0
 73
0
 74
0
 75
0
 76
0
 77
1
 78
12
 79
3
170
0
171
3
172
1
173
0
174
0
175
0
176
0
177
0
178
0
179
2
271
2
272
2
273
2
274
3
275
0
276
0
277
2
278
46
279
2
280
0
281
0
282
0
283
0
284
8
285
0
286
0
288
1
289
3
290
0
340
4C
371
-2
372
-2
  0
DIMSTYLE
105
7D
330
4
100
AcDbSymbolTableRecord
100
AcDbDimStyleTableRecord
  2
EZ_M_50_H25_CM
 70
0
 40
1.0
 41
0.125
 42
0.0625
 43
3.75
 44
0.1875
 45
0.0
 46
0.0
 47
0.0
 48
0.0
 49
2.5
140
0.125
141
2.5
142
0.0625
143
0.03937007874
144
100.0
145
0.0
146
0.5
147
0.05
148
0.0
 69
0
 70
0
 71
0
 72
0
 73
0
 74
0
 75
0
 76
0
 77
1
 78
12
 79
3
170
0
171
3
172
1
173
0
174
0
175
0
176
0
177
0
178
0
179
2
271
2
272
2
273
2
274
3
275
0
276
0
277
2
278
46
279
2
280
0
281
0
282
0
283
0
284
8
285
0
286
0
288
1
289
3
290
0
340
4C
371
-2
372
-2
  0
DIMSTYLE
105
7E
330
4
100
AcDbSymbolTableRecord
100
AcDbDimStyleTableRecord
  2
EZ_M_25_H25_CM
 70
0
 40
1.0
 41
0.0625
 42
0.03125
 43
3.75
 44
0.09375
 45
0.0
 46
0.0
 47
0.0
 48
0.0
 49
2.5
140
0.0625
141
2.5
142
0.03125
143
0.03937007874
144
100.0
145
0.0
146
0.5
147
0.025
148
0.0
 69
0
 70
0
 71
0
 72
0
 73
0
 74
0
 75
0
 76
0
 77
1
 78
12
 79
3
170
0
171
3
172
1
173
0
174
0
175
0
176
0
177
0
178
0
179
2
271
2
272
2
273
2
274
3
275
0
276
0
277
2
278
46
279
2
280
0
281
0
282
0
283
0
284
8
285
0
286
0
288
1
289
3
290
0
340
4C
371
-2
372
-2
  0
DIMSTYLE
105
7F
330
4
100
AcDbSymbolTableRecord
100
AcDbDimStyleTableRecord
  2
EZ_M_20_H25_CM
 70
0
 40
1.0
 41
0.05
 42
0.025
 43
3.75
 44
0.07500000000000001
 45
0.0
 46
0.0
 47
0.0
 48
0.0
 49
2.5
140
0.05
141
2.5
142
0.025
143
0.03937007874
144
100.0
145
0.0
146
0.5
147
0.020000000000000004
148
0.0
 69
0
 70
0
 71
0
 72
0
 73
0
 74
0
 75
0
 76
0
 77
1
 78
12
 79
3
170
0
171
3
172
1
173
0
174
0
175
0
176
0
177
0
178
0
179
2
271
2
272
2
273
2
274
3
275
0
276
0
277
2
278
46
279
2
280
0
281
0
282
0
283
0
284
8
285
0
286
0
288
1
289
3
290
0
340
4C
371
-2
372
-2
  0
DIMSTYLE
105
80
330
4
100
AcDbSymbolTableRecord
100
AcDbDimStyleTableRecord
  2
EZ_M_10_H25_CM
 70
0
 40
1.0
 41
0.025
 42
0.0125
 43
3.75
 44
0.037500000000000006
 45
0.0
 46
0.0
 47
0.0
 48
0.0
 49
2.5
140
0.025
141
2.5
142
0.0125
143
0.03937007874
144
100.0
145
0.0
146
0.5
147
0.010000000000000002
148
0.0
 69
0
 70
0
 71
0
 72
0
 73
0
 74
0
 75
0
 76
0
 77
1
 78
12
 79
3
170
0
171
3
172
1
173
0
174
0
175
0
176
0
177
0
178
0
179
2
271
2
272
2
273
2
274
3
275
0
276
0
277
2
278
46
279
2
280
0
281
0
282
0
283
0
284
8
285
0
286
0
288
1
289
3
290
0
340
4C
371
-2
372
-2
  0
DIMSTYLE
105
81
330
4
100
AcDbSymbolTableRecord
100
AcDbDimStyleTableRecord
  2
EZ_M_5_H25_CM
 70
0
 40
1.0
 41
0.0125
 42
0.00625
 43
3.75
 44
0.018750000000000003
 45
0.0
 46
0.0
 47
0.0
 48
0.0
 49
2.5
140
0.0125
141
2.5
142
0.00625
143
0.03937007874
144
100.0
145
0.0
146
0.5
147
0.005000000000000001
148
0.0
 69
0
 70
0
 71
0
 72
0
 73
0
 74
0
 75
0
 76
0
 77
1
 78
12
 79
3
170
0
171
3
172
1
173
0
174
0
175
0
176
0
177
0
178
0
179
2
271
2
272
2
273
2
274
3
275
0
276
0
277
2
278
46
279
2
280
0
281
0
282
0
283
0
284
8
285
0
286
0
288
1
289
3
290
0
340
4C
371
-2
372
-2
  0
DIMSTYLE
105
82
330
4
100
AcDbSymbolTableRecord
100
AcDbDimStyleTableRecord
  2
EZ_M_1_H25_CM
 70
0
 40
1.0
 41
0.0025
 42
0.00125
 43
3.75
 44
0.00375
 45
0.0
 46
0.0
 47
0.0
 48
0.0
 49
2.5
140
0.0025
141
2.5
142
0.00125
143
0.03937007874
144
100.0
145
0.0
146
0.5
147
0.001
148
0.0
 69
0
 70
0
 71
0
 72
0
 73
0
 74
0
 75
0
 76
0
 77
1
 78
12
 79
3
170
0
171
3
172
1
173
0
174
0
175
0
176
0
177
0
178
0
179
2
271
2
272
2
273
2
274
3
275
0
276
0
277
2
278
46
279
2
280
0
281
0
282
0
283
0
284
8
285
0
286
0
288
1
289
3
290
0
340
4C
371
-2
372
-2
  0
DIMSTYLE
105
83
330
4
100
AcDbSymbolTableRecord
100
AcDbDimStyleTableRecord
  2
EZ_RADIUS
 70
0
 40
1.0
 41
0.25
 42
0.125
 43
3.75
 44
0.375
 45
0.0
 46
0.0
 47
0.0
 48
0.0
 49
2.5
140
0.25
141
0.0
142
0.0
143
0.03937007874
144
100.0
145
0.0
146
0.5
147
0.1
148
0.0
 69
0
 70
0
 71
0
 72
0
 73
0
 74
0
 75
0
 76
0
 77
1
 78
12
 79
3
170
0
171
3
172
0
173
0
174
0
175
0
176
0
177
0
178
0
179
2
271
2
272
2
273
2
274
3
275
0
276
0
277
2
278
46
279
1
280
0
281
0
282
0
283
0
284
8
285
0
286
0
288
1
289
3
290
0
340
4C
342
84
371
-2
372
-2
  0
DIMSTYLE
105
88
330
4
100
AcDbSymbolTableRecord
100
AcDbDimStyleTableRecord
  2
EZ_RADIUS_INSIDE
 70
0
 40
1.0
 41
0.25
 42
0.125
 43
3.75
 44
0.375
 45
0.0
 46
0.0
 47
0.0
 48
0.0
 49
2.5
140
0.25
141
0.0
142
0.0
143
0.03937007874
144
100.0
145
0.0
146
0.5
147
0.1
148
0.0
 69
0
 70
0
 71
0
 72
0
 73
0
 74
0
 75
0
 76
0
 77
0
 78
12
 79
3
170
0
171
3
172
0
173
0
174
1
175
0
176
0
177
0
178
0
179
2
271
2
272
2
273
2
274
3
275
0
276
0
277
2
278
46
279
0
280
0
281
0
282
0
283
0
284
8
285
0
286
0
288
1
289
0
290
0
340
4C
342
84
371
-2
372
-2
  0
DIMSTYLE
105
89
330
4
100
AcDbSymbolTableRecord
100
AcDbDimStyleTableRecord
  2
EZ_CURVED
 70
0
 40
1.0
 41
0.25
 42
0.125
 43
3.75
 44
0.375
 45
0.0
 46
0.0
 47
0.0
 48
0.0
 49
2.5
140
0.25
141
2.5
142
0.0
143
0.03937007874
144
100.0
145
0.0
146
0.5
147
0.1
148
0.0
 69
0
 70
0
 71
0
 72
0
 73
0
 74
0
 75
0
 76
0
 77
1
 78
12
 79
2
 90
2
170
0
171
3
172
1
173
0
174
0
175
0
176
0
177
0
178
0
179
2
271
2
272
2
273
2
274
3
275
0
276
0
277
2
278
46
279
2
280
0
281
0
282
0
283
0
284
8
285
0
286
0
288
1
289
3
290
0
340
4C
371
-2
372
-2
  0
DIMSTYLE
105
96
330
4
100
AcDbSymbolTableRecord
100
AcDbDimStyleTableRecord
  2
AEROFORGE
 70
0
 40
1.0
 41
1.5
 42
0.5
 43
3.75
 44
0.8
 45
0.0
 46
0.0
 47
0.0
 48
0.0
 49
2.5
140
2.5
141
2.5
142
0.0
143
0.03937007874
144
1.0
145
0.0
146
1.0
147
0.6
148
0.0
 69
0
 70
0
 71
0
 72
0
 73
0
 74
0
 75
0
 76
0
 77
1
 78
8
 79
3
170
0
171
3
172
1
173
0
174
0
175
0
176
0
177
0
178
0
179
2
271
2
272
2
273
2
274
3
275
0
276
0
277
2
278
44
279
0
280
0
281
0
282
0
283
0
284
8
285
0
286
0
288
0
289
3
290
0
371
-2
372
-2
  0
ENDTAB
  0
TABLE
  2
BLOCK_RECORD
  5
9
330
0
100
AcDbSymbolTable
 70
8
  0
BLOCK_RECORD
  5
17
330
9
100
AcDbSymbolTableRecord
100
AcDbBlockTableRecord
  2
*Model_Space
340
1A
 70
0
280
1
281
0
  0
BLOCK_RECORD
  5
1B
330
9
100
AcDbSymbolTableRecord
100
AcDbBlockTableRecord
  2
*Paper_Space
340
1E
 70
0
280
1
281
0
  0
BLOCK_RECORD
  5
74
330
9
100
AcDbSymbolTableRecord
100
AcDbBlockTableRecord
  2
_ARCHTICK
340
0
 70
0
280
1
281
0
  0
BLOCK_RECORD
  5
78
330
9
100
AcDbSymbolTableRecord
100
AcDbBlockTableRecord
  2
_CLOSEDFILLED
340
0
 70
0
280
1
281
0
  0
BLOCK_RECORD
  5
84
330
9
100
AcDbSymbolTableRecord
100
AcDbBlockTableRecord
  2
_CLOSEDBLANK
340
0
 70
0
280
1
281
0
  0
BLOCK_RECORD
  5
299
330
9
100
AcDbSymbolTableRecord
100
AcDbBlockTableRecord
  2
*D1
340
0
 70
0
280
1
281
0
  0
BLOCK_RECORD
  5
2A8
330
9
100
AcDbSymbolTableRecord
100
AcDbBlockTableRecord
  2
*D2
340
0
 70
0
280
1
281
0
  0
BLOCK_RECORD
  5
2B7
330
9
100
AcDbSymbolTableRecord
100
AcDbBlockTableRecord
  2
*D3
340
0
 70
0
280
1
281
0
  0
ENDTAB
  0
ENDSEC
  0
SECTION
  2
BLOCKS
  0
BLOCK
  5
18
330
17
100
AcDbEntity
  8
0
100
AcDbBlockBegin
  2
*Model_Space
 70
0
 10
0.0
 20
0.0
 30
0.0
  3
*Model_Space
  1

  0
ENDBLK
  5
19
330
17
100
AcDbEntity
  8
0
100
AcDbBlockEnd
  0
BLOCK
  5
1C
330
1B
100
AcDbEntity
  8
0
100
AcDbBlockBegin
  2
*Paper_Space
 70
0
 10
0.0
 20
0.0
 30
0.0
  3
*Paper_Space
  1

  0
ENDBLK
  5
1D
330
1B
100
AcDbEntity
  8
0
100
AcDbBlockEnd
  0
BLOCK
  5
75
330
74
100
AcDbEntity
  8
0
100
AcDbBlockBegin
  2
_ARCHTICK
 70
0
 10
0.0
 20
0.0
 30
0.0
  3
_ARCHTICK
  1

  0
LWPOLYLINE
  5
77
330
74
100
AcDbEntity
  8
0
  6
BYBLOCK
 62
0
100
AcDbPolyline
 90
2
 70
0
 43
0.15
 10
-0.5
 20
-0.5
 10
0.5
 20
0.5
  0
ENDBLK
  5
76
330
74
100
AcDbEntity
  8
0
100
AcDbBlockEnd
  0
BLOCK
  5
79
330
78
100
AcDbEntity
  8
0
100
AcDbBlockBegin
  2
_CLOSEDFILLED
 70
0
 10
0.0
 20
0.0
 30
0.0
  3
_CLOSEDFILLED
  1

  0
SOLID
  5
7B
330
78
100
AcDbEntity
  8
0
  6
BYBLOCK
 62
0
100
AcDbTrace
 10
-1.0
 20
0.16439898372402537
 30
0.0
 11
0.0
 21
0.0
 31
0.0
 12
-1.0
 22
-0.16439898372402537
 32
0.0
 13
-1.0
 23
-0.16439898372402537
 33
0.0
  0
ENDBLK
  5
7A
330
78
100
AcDbEntity
  8
0
100
AcDbBlockEnd
  0
BLOCK
  5
85
330
84
100
AcDbEntity
  8
0
100
AcDbBlockBegin
  2
_CLOSEDBLANK
 70
0
 10
0.0
 20
0.0
 30
0.0
  3
_CLOSEDBLANK
  1

  0
LWPOLYLINE
  5
87
330
84
100
AcDbEntity
  8
0
  6
BYBLOCK
 62
0
100
AcDbPolyline
 90
3
 70
1
 10
-1.0
 20
0.16439898372402537
 10
0.0
 20
0.0
 10
-1.0
 20
-0.16439898372402537
  0
ENDBLK
  5
86
330
84
100
AcDbEntity
  8
0
100
AcDbBlockEnd
  0
BLOCK
  5
29A
330
299
100
AcDbEntity
  8
0
100
AcDbBlockBegin
  2
*D1
 70
1
 10
0.0
 20
0.0
 30
0.0
  3
*D1
  1

  0
LINE
  5
29C
330
299
100
AcDbEntity
  8
0
100
AcDbLine
 10
46.0
 20
112.875
 30
0.0
 11
46.0
 21
104.625
 31
0.0
  0
LINE
  5
29D
330
299
100
AcDbEntity
  8
0
100
AcDbLine
 10
873.66
 20
112.875
 30
0.0
 11
873.66
 21
104.625
 31
0.0
  0
INSERT
  5
29E
330
299
100
AcDbEntity
  8
DIMENSION
100
AcDbBlockReference
  2
_ARCHTICK
 10
46.0
 20
105.0
 30
0.0
 41
0.175
 42
0.175
 50
180.0
  0
INSERT
  5
2A0
330
299
100
AcDbEntity
  8
DIMENSION
100
AcDbBlockReference
  2
_ARCHTICK
 10
873.66
 20
105.0
 30
0.0
 41
0.175
 42
0.175
  0
LINE
  5
2A2
330
299
100
AcDbEntity
  8
0
100
AcDbLine
 10
46.0
 20
105.0
 30
0.0
 11
873.66
 21
105.0
 31
0.0
  0
MTEXT
  5
2A3
330
299
100
AcDbEntity
  8
DIMENSION
100
AcDbMText
 10
459.83
 20
105.225
 30
0.0
 40
0.25
 71
5
  1
82766
  7
OpenSansCondensed-Light
  0
POINT
  5
2A4
330
299
100
AcDbEntity
  8
Defpoints
100
AcDbPoint
 10
46.0
 20
105.0
 30
0.0
  0
POINT
  5
2A5
330
299
100
AcDbEntity
  8
Defpoints
100
AcDbPoint
 10
46.0
 20
113.0
 30
0.0
  0
POINT
  5
2A6
330
299
100
AcDbEntity
  8
Defpoints
100
AcDbPoint
 10
873.66
 20
113.0
 30
0.0
  0
ENDBLK
  5
29B
330
299
100
AcDbEntity
  8
0
100
AcDbBlockEnd
  0
BLOCK
  5
2A9
330
2A8
100
AcDbEntity
  8
0
100
AcDbBlockBegin
  2
*D2
 70
1
 10
0.0
 20
0.0
 30
0.0
  3
*D2
  1

  0
LINE
  5
2AB
330
2A8
100
AcDbEntity
  8
0
100
AcDbLine
 10
65.875
 20
505.0
 30
0.0
 11
57.625
 21
505.0
 31
0.0
  0
LINE
  5
2AC
330
2A8
100
AcDbEntity
  8
0
100
AcDbLine
 10
65.875
 20
455.7
 30
0.0
 11
57.625
 21
455.7
 31
0.0
  0
INSERT
  5
2AD
330
2A8
100
AcDbEntity
  8
DIMENSION
100
AcDbBlockReference
  2
_ARCHTICK
 10
58.0
 20
505.0
 30
0.0
 41
0.175
 42
0.175
 50
270.0
  0
INSERT
  5
2AF
330
2A8
100
AcDbEntity
  8
DIMENSION
100
AcDbBlockReference
  2
_ARCHTICK
 10
58.0
 20
455.7
 30
0.0
 41
0.175
 42
0.175
 50
90.0
  0
LINE
  5
2B1
330
2A8
100
AcDbEntity
  8
0
100
AcDbLine
 10
58.0
 20
505.0
 30
0.0
 11
58.0
 21
455.7
 31
0.0
  0
MTEXT
  5
2B2
330
2A8
100
AcDbEntity
  8
DIMENSION
100
AcDbMText
 10
58.225
 20
480.35
 30
0.0
 40
0.25
 71
5
  1
4930
  7
OpenSansCondensed-Light
 50
90.0
  0
POINT
  5
2B3
330
2A8
100
AcDbEntity
  8
Defpoints
100
AcDbPoint
 10
58.0
 20
505.0
 30
0.0
  0
POINT
  5
2B4
330
2A8
100
AcDbEntity
  8
Defpoints
100
AcDbPoint
 10
66.0
 20
505.0
 30
0.0
  0
POINT
  5
2B5
330
2A8
100
AcDbEntity
  8
Defpoints
100
AcDbPoint
 10
66.0
 20
455.7
 30
0.0
  0
ENDBLK
  5
2AA
330
2A8
100
AcDbEntity
  8
0
100
AcDbBlockEnd
  0
BLOCK
  5
2B8
330
2B7
100
AcDbEntity
  8
0
100
AcDbBlockBegin
  2
*D3
 70
1
 10
0.0
 20
0.0
 30
0.0
  3
*D3
  1

  0
LINE
  5
2BA
330
2B7
100
AcDbEntity
  8
0
100
AcDbLine
 10
454.32
 20
515.125
 30
0.0
 11
454.32
 21
523.375
 31
0.0
  0
LINE
  5
2BB
330
2B7
100
AcDbEntity
  8
0
100
AcDbLine
 10
465.34
 20
515.125
 30
0.0
 11
465.34
 21
523.375
 31
0.0
  0
INSERT
  5
2BC
330
2B7
100
AcDbEntity
  8
DIMENSION
100
AcDbBlockReference
  2
_ARCHTICK
 10
454.32
 20
523.0
 30
0.0
 41
0.175
 42
0.175
 50
180.0
  0
INSERT
  5
2BE
330
2B7
100
AcDbEntity
  8
DIMENSION
100
AcDbBlockReference
  2
_ARCHTICK
 10
465.34
 20
523.0
 30
0.0
 41
0.175
 42
0.175
  0
LINE
  5
2C0
330
2B7
100
AcDbEntity
  8
0
100
AcDbLine
 10
454.32
 20
523.0
 30
0.0
 11
465.34
 21
523.0
 31
0.0
  0
MTEXT
  5
2C1
330
2B7
100
AcDbEntity
  8
DIMENSION
100
AcDbMText
 10
459.83
 20
523.225
 30
0.0
 40
0.25
 71
5
  1
1102
  7
OpenSansCondensed-Light
  0
POINT
  5
2C2
330
2B7
100
AcDbEntity
  8
Defpoints
100
AcDbPoint
 10
454.32
 20
523.0
 30
0.0
  0
POINT
  5
2C3
330
2B7
100
AcDbEntity
  8
Defpoints
100
AcDbPoint
 10
454.32
 20
515.0
 30
0.0
  0
POINT
  5
2C4
330
2B7
100
AcDbEntity
  8
Defpoints
100
AcDbPoint
 10
465.34
 20
515.0
 30
0.0
  0
ENDBLK
  5
2B9
330
2B7
100
AcDbEntity
  8
0
100
AcDbBlockEnd
  0
ENDSEC
  0
SECTION
  2
ENTITIES
  0
LINE
  5
97
330
17
100
AcDbEntity
  8
BORDER
100
AcDbLine
 10
20.0
 20
10.0
 30
0.0
 11
831.0
 21
10.0
 31
0.0
  0
LINE
  5
98
330
17
100
AcDbEntity
  8
BORDER
100
AcDbLine
 10
831.0
 20
10.0
 30
0.0
 11
831.0
 21
584.0
 31
0.0
  0
LINE
  5
99
330
17
100
AcDbEntity
  8
BORDER
100
AcDbLine
 10
831.0
 20
584.0
 30
0.0
 11
20.0
 21
584.0
 31
0.0
  0
LINE
  5
9A
330
17
100
AcDbEntity
  8
BORDER
100
AcDbLine
 10
20.0
 20
584.0
 30
0.0
 11
20.0
 21
10.0
 31
0.0
  0
LINE
  5
9B
330
17
100
AcDbEntity
  8
BORDER
100
AcDbLine
 10
425.5
 20
5.0
 30
0.0
 11
425.5
 21
10.0
 31
0.0
  0
LINE
  5
9C
330
17
100
AcDbEntity
  8
BORDER
100
AcDbLine
 10
425.5
 20
584.0
 30
0.0
 11
425.5
 21
589.0
 31
0.0
  0
LINE
  5
9D
330
17
100
AcDbEntity
  8
BORDER
100
AcDbLine
 10
15.0
 20
297.0
 30
0.0
 11
20.0
 21
297.0
 31
0.0
  0
LINE
  5
9E
330
17
100
AcDbEntity
  8
BORDER
100
AcDbLine
 10
831.0
 20
297.0
 30
0.0
 11
836.0
 21
297.0
 31
0.0
  0
LINE
  5
9F
330
17
100
AcDbEntity
  8
BORDER
100
AcDbLine
 10
20.0
 20
81.75
 30
0.0
 11
23.0
 21
81.75
 31
0.0
  0
LINE
  5
A0
330
17
100
AcDbEntity
  8
BORDER
100
AcDbLine
 10
828.0
 20
81.75
 30
0.0
 11
831.0
 21
81.75
 31
0.0
  0
TEXT
  5
A1
330
17
100
AcDbEntity
  8
BORDER
100
AcDbText
 10
21.0
 20
44.875
 30
0.0
 40
2.5
  1
A
 11
21.0
 21
44.875
 31
0.0
100
AcDbText
  0
TEXT
  5
A2
330
17
100
AcDbEntity
  8
BORDER
100
AcDbText
 10
827.5
 20
44.875
 30
0.0
 40
2.5
  1
A
 11
827.5
 21
44.875
 31
0.0
100
AcDbText
  0
LINE
  5
A3
330
17
100
AcDbEntity
  8
BORDER
100
AcDbLine
 10
20.0
 20
153.5
 30
0.0
 11
23.0
 21
153.5
 31
0.0
  0
LINE
  5
A4
330
17
100
AcDbEntity
  8
BORDER
100
AcDbLine
 10
828.0
 20
153.5
 30
0.0
 11
831.0
 21
153.5
 31
0.0
  0
TEXT
  5
A5
330
17
100
AcDbEntity
  8
BORDER
100
AcDbText
 10
21.0
 20
116.625
 30
0.0
 40
2.5
  1
B
 11
21.0
 21
116.625
 31
0.0
100
AcDbText
  0
TEXT
  5
A6
330
17
100
AcDbEntity
  8
BORDER
100
AcDbText
 10
827.5
 20
116.625
 30
0.0
 40
2.5
  1
B
 11
827.5
 21
116.625
 31
0.0
100
AcDbText
  0
LINE
  5
A7
330
17
100
AcDbEntity
  8
BORDER
100
AcDbLine
 10
20.0
 20
225.25
 30
0.0
 11
23.0
 21
225.25
 31
0.0
  0
LINE
  5
A8
330
17
100
AcDbEntity
  8
BORDER
100
AcDbLine
 10
828.0
 20
225.25
 30
0.0
 11
831.0
 21
225.25
 31
0.0
  0
TEXT
  5
A9
330
17
100
AcDbEntity
  8
BORDER
100
AcDbText
 10
21.0
 20
188.375
 30
0.0
 40
2.5
  1
C
 11
21.0
 21
188.375
 31
0.0
100
AcDbText
  0
TEXT
  5
AA
330
17
100
AcDbEntity
  8
BORDER
100
AcDbText
 10
827.5
 20
188.375
 30
0.0
 40
2.5
  1
C
 11
827.5
 21
188.375
 31
0.0
100
AcDbText
  0
LINE
  5
AB
330
17
100
AcDbEntity
  8
BORDER
100
AcDbLine
 10
20.0
 20
297.0
 30
0.0
 11
23.0
 21
297.0
 31
0.0
  0
LINE
  5
AC
330
17
100
AcDbEntity
  8
BORDER
100
AcDbLine
 10
828.0
 20
297.0
 30
0.0
 11
831.0
 21
297.0
 31
0.0
  0
TEXT
  5
AD
330
17
100
AcDbEntity
  8
BORDER
100
AcDbText
 10
21.0
 20
260.125
 30
0.0
 40
2.5
  1
D
 11
21.0
 21
260.125
 31
0.0
100
AcDbText
  0
TEXT
  5
AE
330
17
100
AcDbEntity
  8
BORDER
100
AcDbText
 10
827.5
 20
260.125
 30
0.0
 40
2.5
  1
D
 11
827.5
 21
260.125
 31
0.0
100
AcDbText
  0
LINE
  5
AF
330
17
100
AcDbEntity
  8
BORDER
100
AcDbLine
 10
20.0
 20
368.75
 30
0.0
 11
23.0
 21
368.75
 31
0.0
  0
LINE
  5
B0
330
17
100
AcDbEntity
  8
BORDER
100
AcDbLine
 10
828.0
 20
368.75
 30
0.0
 11
831.0
 21
368.75
 31
0.0
  0
TEXT
  5
B1
330
17
100
AcDbEntity
  8
BORDER
100
AcDbText
 10
21.0
 20
331.875
 30
0.0
 40
2.5
  1
E
 11
21.0
 21
331.875
 31
0.0
100
AcDbText
  0
TEXT
  5
B2
330
17
100
AcDbEntity
  8
BORDER
100
AcDbText
 10
827.5
 20
331.875
 30
0.0
 40
2.5
  1
E
 11
827.5
 21
331.875
 31
0.0
100
AcDbText
  0
LINE
  5
B3
330
17
100
AcDbEntity
  8
BORDER
100
AcDbLine
 10
20.0
 20
440.5
 30
0.0
 11
23.0
 21
440.5
 31
0.0
  0
LINE
  5
B4
330
17
100
AcDbEntity
  8
BORDER
100
AcDbLine
 10
828.0
 20
440.5
 30
0.0
 11
831.0
 21
440.5
 31
0.0
  0
TEXT
  5
B5
330
17
100
AcDbEntity
  8
BORDER
100
AcDbText
 10
21.0
 20
403.625
 30
0.0
 40
2.5
  1
F
 11
21.0
 21
403.625
 31
0.0
100
AcDbText
  0
TEXT
  5
B6
330
17
100
AcDbEntity
  8
BORDER
100
AcDbText
 10
827.5
 20
403.625
 30
0.0
 40
2.5
  1
F
 11
827.5
 21
403.625
 31
0.0
100
AcDbText
  0
LINE
  5
B7
330
17
100
AcDbEntity
  8
BORDER
100
AcDbLine
 10
20.0
 20
512.25
 30
0.0
 11
23.0
 21
512.25
 31
0.0
  0
LINE
  5
B8
330
17
100
AcDbEntity
  8
BORDER
100
AcDbLine
 10
828.0
 20
512.25
 30
0.0
 11
831.0
 21
512.25
 31
0.0
  0
TEXT
  5
B9
330
17
100
AcDbEntity
  8
BORDER
100
AcDbText
 10
21.0
 20
475.375
 30
0.0
 40
2.5
  1
G
 11
21.0
 21
475.375
 31
0.0
100
AcDbText
  0
TEXT
  5
BA
330
17
100
AcDbEntity
  8
BORDER
100
AcDbText
 10
827.5
 20
475.375
 30
0.0
 40
2.5
  1
G
 11
827.5
 21
475.375
 31
0.0
100
AcDbText
  0
LINE
  5
BB
330
17
100
AcDbEntity
  8
BORDER
100
AcDbLine
 10
20.0
 20
584.0
 30
0.0
 11
23.0
 21
584.0
 31
0.0
  0
LINE
  5
BC
330
17
100
AcDbEntity
  8
BORDER
100
AcDbLine
 10
828.0
 20
584.0
 30
0.0
 11
831.0
 21
584.0
 31
0.0
  0
TEXT
  5
BD
330
17
100
AcDbEntity
  8
BORDER
100
AcDbText
 10
21.0
 20
547.125
 30
0.0
 40
2.5
  1
H
 11
21.0
 21
547.125
 31
0.0
100
AcDbText
  0
TEXT
  5
BE
330
17
100
AcDbEntity
  8
BORDER
100
AcDbText
 10
827.5
 20
547.125
 30
0.0
 40
2.5
  1
H
 11
827.5
 21
547.125
 31
0.0
100
AcDbText
  0
LINE
  5
BF
330
17
100
AcDbEntity
  8
BORDER
100
AcDbLine
 10
87.58333333333333
 20
10.0
 30
0.0
 11
87.58333333333333
 21
13.0
 31
0.0
  0
LINE
  5
C0
330
17
100
AcDbEntity
  8
BORDER
100
AcDbLine
 10
87.58333333333333
 20
581.0
 30
0.0
 11
87.58333333333333
 21
584.0
 31
0.0
  0
TEXT
  5
C1
330
17
100
AcDbEntity
  8
BORDER
100
AcDbText
 10
52.791666666666664
 20
10.5
 30
0.0
 40
2.0
  1
1
 11
52.791666666666664
 21
10.5
 31
0.0
100
AcDbText
  0
TEXT
  5
C2
330
17
100
AcDbEntity
  8
BORDER
100
AcDbText
 10
52.791666666666664
 20
581.0
 30
0.0
 40
2.0
  1
1
 11
52.791666666666664
 21
581.0
 31
0.0
100
AcDbText
  0
LINE
  5
C3
330
17
100
AcDbEntity
  8
BORDER
100
AcDbLine
 10
155.16666666666666
 20
10.0
 30
0.0
 11
155.16666666666666
 21
13.0
 31
0.0
  0
LINE
  5
C4
330
17
100
AcDbEntity
  8
BORDER
100
AcDbLine
 10
155.16666666666666
 20
581.0
 30
0.0
 11
155.16666666666666
 21
584.0
 31
0.0
  0
TEXT
  5
C5
330
17
100
AcDbEntity
  8
BORDER
100
AcDbText
 10
120.375
 20
10.5
 30
0.0
 40
2.0
  1
2
 11
120.375
 21
10.5
 31
0.0
100
AcDbText
  0
TEXT
  5
C6
330
17
100
AcDbEntity
  8
BORDER
100
AcDbText
 10
120.375
 20
581.0
 30
0.0
 40
2.0
  1
2
 11
120.375
 21
581.0
 31
0.0
100
AcDbText
  0
LINE
  5
C7
330
17
100
AcDbEntity
  8
BORDER
100
AcDbLine
 10
222.75
 20
10.0
 30
0.0
 11
222.75
 21
13.0
 31
0.0
  0
LINE
  5
C8
330
17
100
AcDbEntity
  8
BORDER
100
AcDbLine
 10
222.75
 20
581.0
 30
0.0
 11
222.75
 21
584.0
 31
0.0
  0
TEXT
  5
C9
330
17
100
AcDbEntity
  8
BORDER
100
AcDbText
 10
187.95833333333331
 20
10.5
 30
0.0
 40
2.0
  1
3
 11
187.95833333333331
 21
10.5
 31
0.0
100
AcDbText
  0
TEXT
  5
CA
330
17
100
AcDbEntity
  8
BORDER
100
AcDbText
 10
187.95833333333331
 20
581.0
 30
0.0
 40
2.0
  1
3
 11
187.95833333333331
 21
581.0
 31
0.0
100
AcDbText
  0
LINE
  5
CB
330
17
100
AcDbEntity
  8
BORDER
100
AcDbLine
 10
290.3333333333333
 20
10.0
 30
0.0
 11
290.3333333333333
 21
13.0
 31
0.0
  0
LINE
  5
CC
330
17
100
AcDbEntity
  8
BORDER
100
AcDbLine
 10
290.3333333333333
 20
581.0
 30
0.0
 11
290.3333333333333
 21
584.0
 31
0.0
  0
TEXT
  5
CD
330
17
100
AcDbEntity
  8
BORDER
100
AcDbText
 10
255.54166666666663
 20
10.5
 30
0.0
 40
2.0
  1
4
 11
255.54166666666663
 21
10.5
 31
0.0
100
AcDbText
  0
TEXT
  5
CE
330
17
100
AcDbEntity
  8
BORDER
100
AcDbText
 10
255.54166666666663
 20
581.0
 30
0.0
 40
2.0
  1
4
 11
255.54166666666663
 21
581.0
 31
0.0
100
AcDbText
  0
LINE
  5
CF
330
17
100
AcDbEntity
  8
BORDER
100
AcDbLine
 10
357.91666666666663
 20
10.0
 30
0.0
 11
357.91666666666663
 21
13.0
 31
0.0
  0
LINE
  5
D0
330
17
100
AcDbEntity
  8
BORDER
100
AcDbLine
 10
357.91666666666663
 20
581.0
 30
0.0
 11
357.91666666666663
 21
584.0
 31
0.0
  0
TEXT
  5
D1
330
17
100
AcDbEntity
  8
BORDER
100
AcDbText
 10
323.125
 20
10.5
 30
0.0
 40
2.0
  1
5
 11
323.125
 21
10.5
 31
0.0
100
AcDbText
  0
TEXT
  5
D2
330
17
100
AcDbEntity
  8
BORDER
100
AcDbText
 10
323.125
 20
581.0
 30
0.0
 40
2.0
  1
5
 11
323.125
 21
581.0
 31
0.0
100
AcDbText
  0
LINE
  5
D3
330
17
100
AcDbEntity
  8
BORDER
100
AcDbLine
 10
425.5
 20
10.0
 30
0.0
 11
425.5
 21
13.0
 31
0.0
  0
LINE
  5
D4
330
17
100
AcDbEntity
  8
BORDER
100
AcDbLine
 10
425.5
 20
581.0
 30
0.0
 11
425.5
 21
584.0
 31
0.0
  0
TEXT
  5
D5
330
17
100
AcDbEntity
  8
BORDER
100
AcDbText
 10
390.7083333333333
 20
10.5
 30
0.0
 40
2.0
  1
6
 11
390.7083333333333
 21
10.5
 31
0.0
100
AcDbText
  0
TEXT
  5
D6
330
17
100
AcDbEntity
  8
BORDER
100
AcDbText
 10
390.7083333333333
 20
581.0
 30
0.0
 40
2.0
  1
6
 11
390.7083333333333
 21
581.0
 31
0.0
100
AcDbText
  0
LINE
  5
D7
330
17
100
AcDbEntity
  8
BORDER
100
AcDbLine
 10
493.0833333333333
 20
10.0
 30
0.0
 11
493.0833333333333
 21
13.0
 31
0.0
  0
LINE
  5
D8
330
17
100
AcDbEntity
  8
BORDER
100
AcDbLine
 10
493.0833333333333
 20
581.0
 30
0.0
 11
493.0833333333333
 21
584.0
 31
0.0
  0
TEXT
  5
D9
330
17
100
AcDbEntity
  8
BORDER
100
AcDbText
 10
458.29166666666663
 20
10.5
 30
0.0
 40
2.0
  1
7
 11
458.29166666666663
 21
10.5
 31
0.0
100
AcDbText
  0
TEXT
  5
DA
330
17
100
AcDbEntity
  8
BORDER
100
AcDbText
 10
458.29166666666663
 20
581.0
 30
0.0
 40
2.0
  1
7
 11
458.29166666666663
 21
581.0
 31
0.0
100
AcDbText
  0
LINE
  5
DB
330
17
100
AcDbEntity
  8
BORDER
100
AcDbLine
 10
560.6666666666666
 20
10.0
 30
0.0
 11
560.6666666666666
 21
13.0
 31
0.0
  0
LINE
  5
DC
330
17
100
AcDbEntity
  8
BORDER
100
AcDbLine
 10
560.6666666666666
 20
581.0
 30
0.0
 11
560.6666666666666
 21
584.0
 31
0.0
  0
TEXT
  5
DD
330
17
100
AcDbEntity
  8
BORDER
100
AcDbText
 10
525.875
 20
10.5
 30
0.0
 40
2.0
  1
8
 11
525.875
 21
10.5
 31
0.0
100
AcDbText
  0
TEXT
  5
DE
330
17
100
AcDbEntity
  8
BORDER
100
AcDbText
 10
525.875
 20
581.0
 30
0.0
 40
2.0
  1
8
 11
525.875
 21
581.0
 31
0.0
100
AcDbText
  0
LINE
  5
DF
330
17
100
AcDbEntity
  8
BORDER
100
AcDbLine
 10
628.25
 20
10.0
 30
0.0
 11
628.25
 21
13.0
 31
0.0
  0
LINE
  5
E0
330
17
100
AcDbEntity
  8
BORDER
100
AcDbLine
 10
628.25
 20
581.0
 30
0.0
 11
628.25
 21
584.0
 31
0.0
  0
TEXT
  5
E1
330
17
100
AcDbEntity
  8
BORDER
100
AcDbText
 10
593.4583333333333
 20
10.5
 30
0.0
 40
2.0
  1
9
 11
593.4583333333333
 21
10.5
 31
0.0
100
AcDbText
  0
TEXT
  5
E2
330
17
100
AcDbEntity
  8
BORDER
100
AcDbText
 10
593.4583333333333
 20
581.0
 30
0.0
 40
2.0
  1
9
 11
593.4583333333333
 21
581.0
 31
0.0
100
AcDbText
  0
LINE
  5
E3
330
17
100
AcDbEntity
  8
BORDER
100
AcDbLine
 10
695.8333333333333
 20
10.0
 30
0.0
 11
695.8333333333333
 21
13.0
 31
0.0
  0
LINE
  5
E4
330
17
100
AcDbEntity
  8
BORDER
100
AcDbLine
 10
695.8333333333333
 20
581.0
 30
0.0
 11
695.8333333333333
 21
584.0
 31
0.0
  0
TEXT
  5
E5
330
17
100
AcDbEntity
  8
BORDER
100
AcDbText
 10
661.0416666666666
 20
10.5
 30
0.0
 40
2.0
  1
10
 11
661.0416666666666
 21
10.5
 31
0.0
100
AcDbText
  0
TEXT
  5
E6
330
17
100
AcDbEntity
  8
BORDER
100
AcDbText
 10
661.0416666666666
 20
581.0
 30
0.0
 40
2.0
  1
10
 11
661.0416666666666
 21
581.0
 31
0.0
100
AcDbText
  0
LINE
  5
E7
330
17
100
AcDbEntity
  8
BORDER
100
AcDbLine
 10
763.4166666666666
 20
10.0
 30
0.0
 11
763.4166666666666
 21
13.0
 31
0.0
  0
LINE
  5
E8
330
17
100
AcDbEntity
  8
BORDER
100
AcDbLine
 10
763.4166666666666
 20
581.0
 30
0.0
 11
763.4166666666666
 21
584.0
 31
0.0
  0
TEXT
  5
E9
330
17
100
AcDbEntity
  8
BORDER
100
AcDbText
 10
728.625
 20
10.5
 30
0.0
 40
2.0
  1
11
 11
728.625
 21
10.5
 31
0.0
100
AcDbText
  0
TEXT
  5
EA
330
17
100
AcDbEntity
  8
BORDER
100
AcDbText
 10
728.625
 20
581.0
 30
0.0
 40
2.0
  1
11
 11
728.625
 21
581.0
 31
0.0
100
AcDbText
  0
LINE
  5
EB
330
17
100
AcDbEntity
  8
BORDER
100
AcDbLine
 10
831.0
 20
10.0
 30
0.0
 11
831.0
 21
13.0
 31
0.0
  0
LINE
  5
EC
330
17
100
AcDbEntity
  8
BORDER
100
AcDbLine
 10
831.0
 20
581.0
 30
0.0
 11
831.0
 21
584.0
 31
0.0
  0
TEXT
  5
ED
330
17
100
AcDbEntity
  8
BORDER
100
AcDbText
 10
796.2083333333333
 20
10.5
 30
0.0
 40
2.0
  1
12
 11
796.2083333333333
 21
10.5
 31
0.0
100
AcDbText
  0
TEXT
  5
EE
330
17
100
AcDbEntity
  8
BORDER
100
AcDbText
 10
796.2083333333333
 20
581.0
 30
0.0
 40
2.0
  1
12
 11
796.2083333333333
 21
581.0
 31
0.0
100
AcDbText
  0
LINE
  5
EF
330
17
100
AcDbEntity
  8
TITLEBLOCK
100
AcDbLine
 10
661.0
 20
10.0
 30
0.0
 11
831.0
 21
10.0
 31
0.0
  0
LINE
  5
F0
330
17
100
AcDbEntity
  8
TITLEBLOCK
100
AcDbLine
 10
661.0
 20
46.0
 30
0.0
 11
831.0
 21
46.0
 31
0.0
  0
LINE
  5
F1
330
17
100
AcDbEntity
  8
TITLEBLOCK
100
AcDbLine
 10
661.0
 20
10.0
 30
0.0
 11
661.0
 21
46.0
 31
0.0
  0
LINE
  5
F2
330
17
100
AcDbEntity
  8
TITLEBLOCK
100
AcDbLine
 10
831.0
 20
10.0
 30
0.0
 11
831.0
 21
46.0
 31
0.0
  0
LINE
  5
F3
330
17
100
AcDbEntity
  8
TITLEBLOCK
100
AcDbLine
 10
661.0
 20
19.0
 30
0.0
 11
831.0
 21
19.0
 31
0.0
  0
LINE
  5
F4
330
17
100
AcDbEntity
  8
TITLEBLOCK
100
AcDbLine
 10
661.0
 20
28.0
 30
0.0
 11
831.0
 21
28.0
 31
0.0
  0
LINE
  5
F5
330
17
100
AcDbEntity
  8
TITLEBLOCK
100
AcDbLine
 10
661.0
 20
37.0
 30
0.0
 11
831.0
 21
37.0
 31
0.0
  0
TEXT
  5
F6
330
17
100
AcDbEntity
  8
TITLEBLOCK
100
AcDbText
 10
664.0
 20
39.0
 30
0.0
 40
3.5
  1
AEROFORGE — Wing_Assembly
 11
664.0
 21
39.0
 31
0.0
100
AcDbText
  0
TEXT
  5
F7
330
17
100
AcDbEntity
  8
TITLEBLOCK
100
AcDbText
 10
664.0
 20
30.0
 30
0.0
 40
2.0
  1
Full-wing parent drawing. Candidate higher-AR wing for aircraft R4 closure before panel derivation.
 11
664.0
 21
30.0
 31
0.0
100
AcDbText
  0
TEXT
  5
F8
330
17
100
AcDbEntity
  8
TITLEBLOCK
100
AcDbText
 10
664.0
 20
21.0
 30
0.0
 40
2.0
  1
Mirrored half-wing assemblies with moderate stretch, tighter taper, and shorter tip section
 11
664.0
 21
21.0
 31
0.0
100
AcDbText
  0
TEXT
  5
F9
330
17
100
AcDbEntity
  8
TITLEBLOCK
100
AcDbText
 10
664.0
 20
12.0
 30
0.0
 40
1.8
  1
Scale: 1:6 common | Units: mm | Date: 2026-03-30 | Mass: 420-455g full wing candidate | Rev: v2 | Status: FOR ITERATION
 11
664.0
 21
12.0
 31
0.0
100
AcDbText
  0
LINE
  5
FA
330
17
100
AcDbEntity
  8
TITLEBLOCK
100
AcDbLine
 10
811.0
 20
12.0
 30
0.0
 11
819.0
 21
12.0
 31
0.0
  0
LINE
  5
FB
330
17
100
AcDbEntity
  8
TITLEBLOCK
100
AcDbLine
 10
813.0
 20
18.0
 30
0.0
 11
817.0
 21
18.0
 31
0.0
  0
LINE
  5
FC
330
17
100
AcDbEntity
  8
TITLEBLOCK
100
AcDbLine
 10
811.0
 20
12.0
 30
0.0
 11
813.0
 21
18.0
 31
0.0
  0
LINE
  5
FD
330
17
100
AcDbEntity
  8
TITLEBLOCK
100
AcDbLine
 10
819.0
 20
12.0
 30
0.0
 11
817.0
 21
18.0
 31
0.0
  0
CIRCLE
  5
FE
330
17
100
AcDbEntity
  8
TITLEBLOCK
100
AcDbCircle
 10
807.0
 20
15.0
 30
0.0
 40
3.0
  0
LINE
  5
FF
330
17
100
AcDbEntity
  8
TITLEBLOCK
100
AcDbLine
 10
810.0
 20
15.0
 30
0.0
 11
811.0
 21
15.0
 31
0.0
  0
LINE
  5
100
330
17
100
AcDbEntity
  8
ORIENTATION
100
AcDbLine
 10
45.0
 20
569.0
 30
0.0
 11
30.0
 21
569.0
 31
0.0
  0
LINE
  5
101
330
17
100
AcDbEntity
  8
ORIENTATION
100
AcDbLine
 10
30.0
 20
569.0
 30
0.0
 11
32.0
 21
570.0
 31
0.0
  0
LINE
  5
102
330
17
100
AcDbEntity
  8
ORIENTATION
100
AcDbLine
 10
30.0
 20
569.0
 30
0.0
 11
32.0
 21
568.0
 31
0.0
  0
TEXT
  5
103
330
17
100
AcDbEntity
  8
ORIENTATION
100
AcDbText
 10
29.0
 20
571.0
 30
0.0
 40
2.5
  1
FWD
 11
29.0
 21
571.0
 31
0.0
100
AcDbText
  0
LINE
  5
104
330
17
100
AcDbEntity
  8
ORIENTATION
100
AcDbLine
 10
50.0
 20
584.0
 30
0.0
 11
50.0
 21
569.0
 31
0.0
  0
LINE
  5
105
330
17
100
AcDbEntity
  8
ORIENTATION
100
AcDbLine
 10
50.0
 20
569.0
 30
0.0
 11
49.0
 21
571.0
 31
0.0
  0
LINE
  5
106
330
17
100
AcDbEntity
  8
ORIENTATION
100
AcDbLine
 10
50.0
 20
569.0
 30
0.0
 11
51.0
 21
571.0
 31
0.0
  0
TEXT
  5
107
330
17
100
AcDbEntity
  8
ORIENTATION
100
AcDbText
 10
52.0
 20
571.0
 30
0.0
 40
2.0
  1
CL
 11
52.0
 21
571.0
 31
0.0
100
AcDbText
  0
TEXT
  5
108
330
17
100
AcDbEntity
  8
TEXT
100
AcDbText
 10
46.0
 20
530.0
 30
0.0
 40
4.2
  1
TOP VIEW — FULL WING ASSEMBLY
 11
46.0
 21
530.0
 31
0.0
100
AcDbText
  0
LINE
  5
109
330
17
100
AcDbEntity
  8
OUTLINE
100
AcDbLine
 10
454.32
 20
505.0
 30
0.0
 11
441.56
 21
504.99713686435126
 31
0.0
  0
LINE
  5
10A
330
17
100
AcDbEntity
  8
OUTLINE
100
AcDbLine
 10
454.32
 20
455.7
 30
0.0
 11
441.56
 21
455.7037953193483
 31
0.0
  0
LINE
  5
10B
330
17
100
AcDbEntity
  8
OUTLINE
100
AcDbLine
 10
441.56
 20
504.99713686435126
 30
0.0
 11
428.8
 21
504.98728581336405
 31
0.0
  0
LINE
  5
10C
330
17
100
AcDbEntity
  8
OUTLINE
100
AcDbLine
 10
441.56
 20
455.7037953193483
 30
0.0
 11
428.8
 21
455.7168536892616
 31
0.0
  0
LINE
  5
10D
330
17
100
AcDbEntity
  8
OUTLINE
100
AcDbLine
 10
428.8
 20
504.98728581336405
 30
0.0
 11
416.04
 21
504.96956995668467
 31
0.0
  0
LINE
  5
10E
330
17
100
AcDbEntity
  8
OUTLINE
100
AcDbLine
 10
428.8
 20
455.7168536892616
 30
0.0
 11
416.04
 21
455.74033749927844
 31
0.0
  0
LINE
  5
10F
330
17
100
AcDbEntity
  8
OUTLINE
100
AcDbLine
 10
416.04
 20
504.96956995668467
 30
0.0
 11
403.28
 21
504.94343630740093
 31
0.0
  0
LINE
  5
110
330
17
100
AcDbEntity
  8
OUTLINE
100
AcDbLine
 10
416.04
 20
455.74033749927844
 30
0.0
 11
403.28
 21
455.7749797785615
 31
0.0
  0
LINE
  5
111
330
17
100
AcDbEntity
  8
OUTLINE
100
AcDbLine
 10
403.28
 20
504.94343630740093
 30
0.0
 11
390.52
 21
504.90843666504895
 31
0.0
  0
LINE
  5
112
330
17
100
AcDbEntity
  8
OUTLINE
100
AcDbLine
 10
403.28
 20
455.7749797785615
 30
0.0
 11
390.52
 21
455.8213746533072
 31
0.0
  0
LINE
  5
113
330
17
100
AcDbEntity
  8
OUTLINE
100
AcDbLine
 10
390.52
 20
504.90843666504895
 30
0.0
 11
377.76
 21
504.86416564451804
 31
0.0
  0
LINE
  5
114
330
17
100
AcDbEntity
  8
OUTLINE
100
AcDbLine
 10
390.52
 20
455.8213746533072
 30
0.0
 11
377.76
 21
455.8800594944761
 31
0.0
  0
LINE
  5
115
330
17
100
AcDbEntity
  8
OUTLINE
100
AcDbLine
 10
377.76
 20
504.86416564451804
 30
0.0
 11
365.0
 21
504.8102310152074
 31
0.0
  0
LINE
  5
116
330
17
100
AcDbEntity
  8
OUTLINE
100
AcDbLine
 10
377.76
 20
455.8800594944761
 30
0.0
 11
365.0
 21
455.9515542356553
 31
0.0
  0
LINE
  5
117
330
17
100
AcDbEntity
  8
OUTLINE
100
AcDbLine
 10
365.0
 20
504.8102310152074
 30
0.0
 11
352.24
 21
504.74623556860007
 31
0.0
  0
LINE
  5
118
330
17
100
AcDbEntity
  8
OUTLINE
100
AcDbLine
 10
365.0
 20
455.9515542356553
 30
0.0
 11
352.24
 21
456.03638540906496
 31
0.0
  0
LINE
  5
119
330
17
100
AcDbEntity
  8
OUTLINE
100
AcDbLine
 10
352.24
 20
504.74623556860007
 30
0.0
 11
339.48
 21
504.671763889871
 31
0.0
  0
LINE
  5
11A
330
17
100
AcDbEntity
  8
OUTLINE
100
AcDbLine
 10
352.24
 20
456.03638540906496
 30
0.0
 11
339.48
 21
456.13510368086867
 31
0.0
  0
LINE
  5
11B
330
17
100
AcDbEntity
  8
OUTLINE
100
AcDbLine
 10
339.48
 20
504.671763889871
 30
0.0
 11
326.72
 21
504.58637121982366
 31
0.0
  0
LINE
  5
11C
330
17
100
AcDbEntity
  8
OUTLINE
100
AcDbLine
 10
339.48
 20
456.13510368086867
 30
0.0
 11
326.72
 21
456.2482986155825
 31
0.0
  0
LINE
  5
11D
330
17
100
AcDbEntity
  8
OUTLINE
100
AcDbLine
 10
326.72
 20
504.58637121982366
 30
0.0
 11
313.96000000000004
 21
504.4895729227971
 31
0.0
  0
LINE
  5
11E
330
17
100
AcDbEntity
  8
OUTLINE
100
AcDbLine
 10
326.72
 20
456.2482986155825
 30
0.0
 11
313.96000000000004
 21
456.37661263722237
 31
0.0
  0
LINE
  5
11F
330
17
100
AcDbEntity
  8
OUTLINE
100
AcDbLine
 10
313.96000000000004
 20
504.4895729227971
 30
0.0
 11
301.20000000000005
 21
504.38083359268546
 31
0.0
  0
LINE
  5
120
330
17
100
AcDbEntity
  8
OUTLINE
100
AcDbLine
 10
313.96000000000004
 20
456.37661263722237
 30
0.0
 11
301.20000000000005
 21
456.520755470161
 31
0.0
  0
LINE
  5
121
330
17
100
AcDbEntity
  8
OUTLINE
100
AcDbLine
 10
301.20000000000005
 20
504.38083359268546
 30
0.0
 11
288.44
 21
504.2595550113936
 31
0.0
  0
LINE
  5
122
330
17
100
AcDbEntity
  8
OUTLINE
100
AcDbLine
 10
301.20000000000005
 20
456.520755470161
 30
0.0
 11
288.44
 21
456.68152010117586
 31
0.0
  0
LINE
  5
123
330
17
100
AcDbEntity
  8
OUTLINE
100
AcDbLine
 10
288.44
 20
504.2595550113936
 30
0.0
 11
275.68
 21
504.1250621811604
 31
0.0
  0
LINE
  5
124
330
17
100
AcDbEntity
  8
OUTLINE
100
AcDbLine
 10
288.44
 20
456.68152010117586
 30
0.0
 11
275.68
 21
456.8598012947408
 31
0.0
  0
LINE
  5
125
330
17
100
AcDbEntity
  8
OUTLINE
100
AcDbLine
 10
275.68
 20
504.1250621811604
 30
0.0
 11
262.92
 21
503.9765865343291
 31
0.0
  0
LINE
  5
126
330
17
100
AcDbEntity
  8
OUTLINE
100
AcDbLine
 10
275.68
 20
456.8598012947408
 30
0.0
 11
262.92
 21
457.0566178498428
 31
0.0
  0
LINE
  5
127
330
17
100
AcDbEntity
  8
OUTLINE
100
AcDbLine
 10
262.92
 20
503.9765865343291
 30
0.0
 11
250.16
 21
503.8132451819826
 31
0.0
  0
LINE
  5
128
330
17
100
AcDbEntity
  8
OUTLINE
100
AcDbLine
 10
262.92
 20
457.0566178498428
 30
0.0
 11
250.16
 21
457.2731401076045
 31
0.0
  0
LINE
  5
129
330
17
100
AcDbEntity
  8
OUTLINE
100
AcDbLine
 10
250.16
 20
503.8132451819826
 30
0.0
 11
237.4
 21
503.6340146625266
 31
0.0
  0
LINE
  5
12A
330
17
100
AcDbEntity
  8
OUTLINE
100
AcDbLine
 10
250.16
 20
457.2731401076045
 30
0.0
 11
237.4
 21
457.510724749674
 31
0.0
  0
LINE
  5
12B
330
17
100
AcDbEntity
  8
OUTLINE
100
AcDbLine
 10
237.4
 20
503.6340146625266
 30
0.0
 11
224.64000000000001
 21
503.4376970198823
 31
0.0
  0
LINE
  5
12C
330
17
100
AcDbEntity
  8
OUTLINE
100
AcDbLine
 10
237.4
 20
457.510724749674
 30
0.0
 11
224.64000000000001
 21
457.770959764342
 31
0.0
  0
LINE
  5
12D
330
17
100
AcDbEntity
  8
OUTLINE
100
AcDbLine
 10
224.64000000000001
 20
503.4376970198823
 30
0.0
 11
211.88000000000002
 21
503.2228750457979
 31
0.0
  0
LINE
  5
12E
330
17
100
AcDbEntity
  8
OUTLINE
100
AcDbLine
 10
224.64000000000001
 20
457.770959764342
 30
0.0
 11
211.88000000000002
 21
458.05572377650054
 31
0.0
  0
LINE
  5
12F
330
17
100
AcDbEntity
  8
OUTLINE
100
AcDbLine
 10
211.88000000000002
 20
503.2228750457979
 30
0.0
 11
199.12
 21
502.987851924602
 31
0.0
  0
LINE
  5
130
330
17
100
AcDbEntity
  8
OUTLINE
100
AcDbLine
 10
211.88000000000002
 20
458.05572377650054
 30
0.0
 11
199.12
 21
458.36726605343455
 31
0.0
  0
LINE
  5
131
330
17
100
AcDbEntity
  8
OUTLINE
100
AcDbLine
 10
199.12
 20
502.987851924602
 30
0.0
 11
186.36
 21
502.730567887612
 31
0.0
  0
LINE
  5
132
330
17
100
AcDbEntity
  8
OUTLINE
100
AcDbLine
 10
199.12
 20
458.36726605343455
 30
0.0
 11
186.36
 21
458.7083169861888
 31
0.0
  0
LINE
  5
133
330
17
100
AcDbEntity
  8
OUTLINE
100
AcDbLine
 10
186.36
 20
502.730567887612
 30
0.0
 11
173.60000000000002
 21
502.4484819951858
 31
0.0
  0
LINE
  5
134
330
17
100
AcDbEntity
  8
OUTLINE
100
AcDbLine
 10
186.36
 20
458.7083169861888
 30
0.0
 11
173.60000000000002
 21
459.08224479707934
 31
0.0
  0
LINE
  5
135
330
17
100
AcDbEntity
  8
OUTLINE
100
AcDbLine
 10
173.60000000000002
 20
502.4484819951858
 30
0.0
 11
160.84000000000003
 21
502.13839918080674
 31
0.0
  0
LINE
  5
136
330
17
100
AcDbEntity
  8
OUTLINE
100
AcDbLine
 10
173.60000000000002
 20
459.08224479707934
 30
0.0
 11
160.84000000000003
 21
459.49328480683755
 31
0.0
  0
LINE
  5
137
330
17
100
AcDbEntity
  8
OUTLINE
100
AcDbLine
 10
160.84000000000003
 20
502.13839918080674
 30
0.0
 11
148.08000000000004
 21
501.7962077741523
 31
0.0
  0
LINE
  5
138
330
17
100
AcDbEntity
  8
OUTLINE
100
AcDbLine
 10
160.84000000000003
 20
459.49328480683755
 30
0.0
 11
148.08000000000004
 21
459.94688736914696
 31
0.0
  0
LINE
  5
139
330
17
100
AcDbEntity
  8
OUTLINE
100
AcDbLine
 10
148.08000000000004
 20
501.7962077741523
 30
0.0
 11
135.32
 21
501.41646313836367
 31
0.0
  0
LINE
  5
13A
330
17
100
AcDbEntity
  8
OUTLINE
100
AcDbLine
 10
148.08000000000004
 20
459.94688736914696
 30
0.0
 11
135.32
 21
460.4502697933319
 31
0.0
  0
LINE
  5
13B
330
17
100
AcDbEntity
  8
OUTLINE
100
AcDbLine
 10
135.32
 20
501.41646313836367
 30
0.0
 11
122.56
 21
500.99168996131004
 31
0.0
  0
LINE
  5
13C
330
17
100
AcDbEntity
  8
OUTLINE
100
AcDbLine
 10
135.32
 20
460.4502697933319
 30
0.0
 11
122.56
 21
461.0133412140773
 31
0.0
  0
LINE
  5
13D
330
17
100
AcDbEntity
  8
OUTLINE
100
AcDbLine
 10
122.56
 20
500.99168996131004
 30
0.0
 11
109.80000000000001
 21
500.51112826099904
 31
0.0
  0
LINE
  5
13E
330
17
100
AcDbEntity
  8
OUTLINE
100
AcDbLine
 10
122.56
 20
461.0133412140773
 30
0.0
 11
109.80000000000001
 21
461.6503648633268
 31
0.0
  0
LINE
  5
13F
330
17
100
AcDbEntity
  8
OUTLINE
100
AcDbLine
 10
109.80000000000001
 20
500.51112826099904
 30
0.0
 11
97.04000000000002
 21
499.95825981697635
 31
0.0
  0
LINE
  5
140
330
17
100
AcDbEntity
  8
OUTLINE
100
AcDbLine
 10
109.80000000000001
 20
461.6503648633268
 30
0.0
 11
97.04000000000002
 21
462.38323698679875
 31
0.0
  0
LINE
  5
141
330
17
100
AcDbEntity
  8
OUTLINE
100
AcDbLine
 10
97.04000000000002
 20
499.95825981697635
 30
0.0
 11
84.28000000000003
 21
499.30524770571407
 31
0.0
  0
LINE
  5
142
330
17
100
AcDbEntity
  8
OUTLINE
100
AcDbLine
 10
97.04000000000002
 20
462.38323698679875
 30
0.0
 11
84.28000000000003
 21
463.24885769242553
 31
0.0
  0
LINE
  5
143
330
17
100
AcDbEntity
  8
OUTLINE
100
AcDbLine
 10
84.28000000000003
 20
499.30524770571407
 30
0.0
 11
71.52000000000004
 21
498.49766097447423
 31
0.0
  0
LINE
  5
144
330
17
100
AcDbEntity
  8
OUTLINE
100
AcDbLine
 10
84.28000000000003
 20
463.24885769242553
 30
0.0
 11
71.52000000000004
 21
464.3193796384877
 31
0.0
  0
LINE
  5
145
330
17
100
AcDbEntity
  8
OUTLINE
100
AcDbLine
 10
71.52000000000004
 20
498.49766097447423
 30
0.0
 11
58.76000000000005
 21
497.39401423520593
 31
0.0
  0
LINE
  5
146
330
17
100
AcDbEntity
  8
OUTLINE
100
AcDbLine
 10
71.52000000000004
 20
464.3193796384877
 30
0.0
 11
58.76000000000005
 21
465.7823532230991
 31
0.0
  0
LINE
  5
147
330
17
100
AcDbEntity
  8
OUTLINE
100
AcDbLine
 10
58.76000000000005
 20
497.39401423520593
 30
0.0
 11
46.0
 21
494.40049999999997
 31
0.0
  0
LINE
  5
148
330
17
100
AcDbEntity
  8
OUTLINE
100
AcDbLine
 10
58.76000000000005
 20
465.7823532230991
 30
0.0
 11
46.0
 21
469.7505
 31
0.0
  0
LINE
  5
149
330
17
100
AcDbEntity
  8
OUTLINE
100
AcDbLine
 10
454.32
 20
505.0
 30
0.0
 11
454.32
 21
455.7
 31
0.0
  0
LWPOLYLINE
  5
14A
330
17
100
AcDbEntity
  8
OUTLINE
100
AcDbPolyline
 90
9
 70
0
 10
46.0
 20
469.7505
 10
42.4154042890362
 20
470.68868476179836
 10
39.376530780625615
 20
473.3604089218758
 10
37.34602041896679
 20
477.35892669610024
 10
36.63300000000001
 20
482.0755
 10
37.34602041896679
 20
486.7920733038997
 10
39.376530780625615
 20
490.7905910781242
 10
42.4154042890362
 20
493.4623152382016
 10
46.0
 20
494.40049999999997
  0
LINE
  5
14B
330
17
100
AcDbEntity
  8
SECTION
100
AcDbLine
 10
380.08
 20
504.87292222977305
 30
0.0
 11
380.08
 21
455.8684519279753
 31
0.0
  0
TEXT
  5
14C
330
17
100
AcDbEntity
  8
TEXT
100
AcDbText
 10
384.08
 20
495.87292222977305
 30
0.0
 40
2.0
  1
P1
 11
384.08
 21
495.87292222977305
 31
0.0
100
AcDbText
  0
LINE
  5
14D
330
17
100
AcDbEntity
  8
SECTION
100
AcDbLine
 10
305.84000000000003
 20
504.42179302888195
 30
0.0
 11
305.84000000000003
 21
456.46646040357507
 31
0.0
  0
TEXT
  5
14E
330
17
100
AcDbEntity
  8
TEXT
100
AcDbText
 10
309.84000000000003
 20
495.42179302888195
 30
0.0
 40
2.0
  1
P2
 11
309.84000000000003
 21
495.42179302888195
 31
0.0
100
AcDbText
  0
LINE
  5
14F
330
17
100
AcDbEntity
  8
SECTION
100
AcDbLine
 10
231.60000000000002
 20
503.5469771003441
 30
0.0
 11
231.60000000000002
 21
457.6261001227996
 31
0.0
  0
TEXT
  5
150
330
17
100
AcDbEntity
  8
TEXT
100
AcDbText
 10
235.60000000000002
 20
494.5469771003441
 30
0.0
 40
2.0
  1
P3
 11
235.60000000000002
 21
494.5469771003441
 31
0.0
100
AcDbText
  0
LINE
  5
151
330
17
100
AcDbEntity
  8
SECTION
100
AcDbLine
 10
157.36
 20
502.0484590395698
 30
0.0
 11
157.36
 21
459.61250778475625
 31
0.0
  0
TEXT
  5
152
330
17
100
AcDbEntity
  8
TEXT
100
AcDbText
 10
161.36
 20
493.0484590395698
 30
0.0
 40
2.0
  1
P4
 11
161.36
 21
493.0484590395698
 31
0.0
100
AcDbText
  0
LINE
  5
153
330
17
100
AcDbEntity
  8
SECTION
100
AcDbLine
 10
83.12
 20
499.2393920796479
 30
0.0
 11
83.12
 21
463.3361546851178
 31
0.0
  0
TEXT
  5
154
330
17
100
AcDbEntity
  8
TEXT
100
AcDbText
 10
87.12
 20
490.2393920796479
 30
0.0
 40
2.0
  1
P5
 11
87.12
 21
490.2393920796479
 31
0.0
100
AcDbText
  0
TEXT
  5
155
330
17
100
AcDbEntity
  8
TEXT
100
AcDbText
 10
50.0
 20
485.40049999999997
 30
0.0
 40
2.0
  1
TIP
 11
50.0
 21
485.40049999999997
 31
0.0
100
AcDbText
  0
LINE
  5
156
330
17
100
AcDbEntity
  8
SPAR
100
AcDbLine
 10
454.32
 20
492.675
 30
0.0
 11
441.56
 21
492.67380147810053
 31
0.0
  0
LINE
  5
157
330
17
100
AcDbEntity
  8
SPAR
100
AcDbLine
 10
441.56
 20
492.67380147810053
 30
0.0
 11
428.8
 21
492.66967778233845
 31
0.0
  0
LINE
  5
158
330
17
100
AcDbEntity
  8
SPAR
100
AcDbLine
 10
428.8
 20
492.66967778233845
 30
0.0
 11
416.04
 21
492.6622618423331
 31
0.0
  0
LINE
  5
159
330
17
100
AcDbEntity
  8
SPAR
100
AcDbLine
 10
416.04
 20
492.6622618423331
 30
0.0
 11
403.28
 21
492.65132217519107
 31
0.0
  0
LINE
  5
15A
330
17
100
AcDbEntity
  8
SPAR
100
AcDbLine
 10
403.28
 20
492.65132217519107
 30
0.0
 11
390.52
 21
492.63667116211354
 31
0.0
  0
LINE
  5
15B
330
17
100
AcDbEntity
  8
SPAR
100
AcDbLine
 10
390.52
 20
492.63667116211354
 30
0.0
 11
377.76
 21
492.61813910700755
 31
0.0
  0
LINE
  5
15C
330
17
100
AcDbEntity
  8
SPAR
100
AcDbLine
 10
377.76
 20
492.61813910700755
 30
0.0
 11
365.0
 21
492.5955618203194
 31
0.0
  0
LINE
  5
15D
330
17
100
AcDbEntity
  8
SPAR
100
AcDbLine
 10
365.0
 20
492.5955618203194
 30
0.0
 11
352.24
 21
492.5687730287163
 31
0.0
  0
LINE
  5
15E
330
17
100
AcDbEntity
  8
SPAR
100
AcDbLine
 10
352.24
 20
492.5687730287163
 30
0.0
 11
339.48
 21
492.5375988376204
 31
0.0
  0
LINE
  5
15F
330
17
100
AcDbEntity
  8
SPAR
100
AcDbLine
 10
339.48
 20
492.5375988376204
 30
0.0
 11
326.72
 21
492.50185306876335
 31
0.0
  0
LINE
  5
160
330
17
100
AcDbEntity
  8
SPAR
100
AcDbLine
 10
326.72
 20
492.50185306876335
 30
0.0
 11
313.96000000000004
 21
492.4613328514034
 31
0.0
  0
LINE
  5
161
330
17
100
AcDbEntity
  8
SPAR
100
AcDbLine
 10
313.96000000000004
 20
492.4613328514034
 30
0.0
 11
301.20000000000005
 21
492.4158140620544
 31
0.0
  0
LINE
  5
162
330
17
100
AcDbEntity
  8
SPAR
100
AcDbLine
 10
301.20000000000005
 20
492.4158140620544
 30
0.0
 11
288.44
 21
492.3650462838392
 31
0.0
  0
LINE
  5
163
330
17
100
AcDbEntity
  8
SPAR
100
AcDbLine
 10
288.44
 20
492.3650462838392
 30
0.0
 11
275.68
 21
492.3087469595555
 31
0.0
  0
LINE
  5
164
330
17
100
AcDbEntity
  8
SPAR
100
AcDbLine
 10
275.68
 20
492.3087469595555
 30
0.0
 11
262.92
 21
492.2465943632075
 31
0.0
  0
LINE
  5
165
330
17
100
AcDbEntity
  8
SPAR
100
AcDbLine
 10
262.92
 20
492.2465943632075
 30
0.0
 11
250.16
 21
492.1782189133881
 31
0.0
  0
LINE
  5
166
330
17
100
AcDbEntity
  8
SPAR
100
AcDbLine
 10
250.16
 20
492.1782189133881
 30
0.0
 11
237.4
 21
492.10319218431346
 31
0.0
  0
LINE
  5
167
330
17
100
AcDbEntity
  8
SPAR
100
AcDbLine
 10
237.4
 20
492.10319218431346
 30
0.0
 11
224.64000000000001
 21
492.02101270599724
 31
0.0
  0
LINE
  5
168
330
17
100
AcDbEntity
  8
SPAR
100
AcDbLine
 10
224.64000000000001
 20
492.02101270599724
 30
0.0
 11
211.88000000000002
 21
491.93108722847353
 31
0.0
  0
LINE
  5
169
330
17
100
AcDbEntity
  8
SPAR
100
AcDbLine
 10
211.88000000000002
 20
491.93108722847353
 30
0.0
 11
199.12
 21
491.8327054568101
 31
0.0
  0
LINE
  5
16A
330
17
100
AcDbEntity
  8
SPAR
100
AcDbLine
 10
199.12
 20
491.8327054568101
 30
0.0
 11
186.36
 21
491.7250051622562
 31
0.0
  0
LINE
  5
16B
330
17
100
AcDbEntity
  8
SPAR
100
AcDbLine
 10
186.36
 20
491.7250051622562
 30
0.0
 11
173.60000000000002
 21
491.60692269565914
 31
0.0
  0
LINE
  5
16C
330
17
100
AcDbEntity
  8
SPAR
100
AcDbLine
 10
173.60000000000002
 20
491.60692269565914
 30
0.0
 11
160.84000000000003
 21
491.47712058731446
 31
0.0
  0
LINE
  5
16D
330
17
100
AcDbEntity
  8
SPAR
100
AcDbLine
 10
160.84000000000003
 20
491.47712058731446
 30
0.0
 11
148.08000000000004
 21
491.333877672901
 31
0.0
  0
LINE
  5
16E
330
17
100
AcDbEntity
  8
SPAR
100
AcDbLine
 10
148.08000000000004
 20
491.333877672901
 30
0.0
 11
135.32
 21
491.1749148021057
 31
0.0
  0
LINE
  5
16F
330
17
100
AcDbEntity
  8
SPAR
100
AcDbLine
 10
135.32
 20
491.1749148021057
 30
0.0
 11
122.56
 21
490.99710277450185
 31
0.0
  0
LINE
  5
170
330
17
100
AcDbEntity
  8
SPAR
100
AcDbLine
 10
454.32
 20
475.42
 30
0.0
 11
441.56
 21
475.42113193734946
 31
0.0
  0
LINE
  5
171
330
17
100
AcDbEntity
  8
SPAR
100
AcDbLine
 10
441.56
 20
475.42113193734946
 30
0.0
 11
428.8
 21
475.42502653890256
 31
0.0
  0
LINE
  5
172
330
17
100
AcDbEntity
  8
SPAR
100
AcDbLine
 10
428.8
 20
475.42502653890256
 30
0.0
 11
416.04
 21
475.4320304822409
 31
0.0
  0
LINE
  5
173
330
17
100
AcDbEntity
  8
SPAR
100
AcDbLine
 10
416.04
 20
475.4320304822409
 30
0.0
 11
403.28
 21
475.44236239009723
 31
0.0
  0
LINE
  5
174
330
17
100
AcDbEntity
  8
SPAR
100
AcDbLine
 10
403.28
 20
475.44236239009723
 30
0.0
 11
390.52
 21
475.4561994580039
 31
0.0
  0
LINE
  5
175
330
17
100
AcDbEntity
  8
SPAR
100
AcDbLine
 10
390.52
 20
475.4561994580039
 30
0.0
 11
377.76
 21
475.47370195449287
 31
0.0
  0
LINE
  5
176
330
17
100
AcDbEntity
  8
SPAR
100
AcDbLine
 10
377.76
 20
475.47370195449287
 30
0.0
 11
365.0
 21
475.49502494747617
 31
0.0
  0
LINE
  5
177
330
17
100
AcDbEntity
  8
SPAR
100
AcDbLine
 10
365.0
 20
475.49502494747617
 30
0.0
 11
352.24
 21
475.520325472879
 31
0.0
  0
LINE
  5
178
330
17
100
AcDbEntity
  8
SPAR
100
AcDbLine
 10
352.24
 20
475.520325472879
 30
0.0
 11
339.48
 21
475.5497677644696
 31
0.0
  0
LINE
  5
179
330
17
100
AcDbEntity
  8
SPAR
100
AcDbLine
 10
339.48
 20
475.5497677644696
 30
0.0
 11
326.72
 21
475.583527657279
 31
0.0
  0
LINE
  5
17A
330
17
100
AcDbEntity
  8
SPAR
100
AcDbLine
 10
326.72
 20
475.583527657279
 30
0.0
 11
313.96000000000004
 21
475.6217967514523
 31
0.0
  0
LINE
  5
17B
330
17
100
AcDbEntity
  8
SPAR
100
AcDbLine
 10
313.96000000000004
 20
475.6217967514523
 30
0.0
 11
301.20000000000005
 21
475.6647867191708
 31
0.0
  0
LINE
  5
17C
330
17
100
AcDbEntity
  8
SPAR
100
AcDbLine
 10
301.20000000000005
 20
475.6647867191708
 30
0.0
 11
288.44
 21
475.71273406526296
 31
0.0
  0
LINE
  5
17D
330
17
100
AcDbEntity
  8
SPAR
100
AcDbLine
 10
288.44
 20
475.71273406526296
 30
0.0
 11
275.68
 21
475.76590564930865
 31
0.0
  0
LINE
  5
17E
330
17
100
AcDbEntity
  8
SPAR
100
AcDbLine
 10
275.68
 20
475.76590564930865
 30
0.0
 11
262.92
 21
475.82460532363734
 31
0.0
  0
LINE
  5
17F
330
17
100
AcDbEntity
  8
SPAR
100
AcDbLine
 10
262.92
 20
475.82460532363734
 30
0.0
 11
250.16
 21
475.8891821373557
 31
0.0
  0
LINE
  5
180
330
17
100
AcDbEntity
  8
SPAR
100
AcDbLine
 10
250.16
 20
475.8891821373557
 30
0.0
 11
237.4
 21
475.9600407148151
 31
0.0
  0
LINE
  5
181
330
17
100
AcDbEntity
  8
SPAR
100
AcDbLine
 10
237.4
 20
475.9600407148151
 30
0.0
 11
224.64000000000001
 21
476.0376546665581
 31
0.0
  0
LINE
  5
182
330
17
100
AcDbEntity
  8
SPAR
100
AcDbLine
 10
224.64000000000001
 20
476.0376546665581
 30
0.0
 11
211.88000000000002
 21
476.12258428421944
 31
0.0
  0
LINE
  5
183
330
17
100
AcDbEntity
  8
SPAR
100
AcDbLine
 10
211.88000000000002
 20
476.12258428421944
 30
0.0
 11
199.12
 21
476.2155004019015
 31
0.0
  0
LINE
  5
184
330
17
100
AcDbEntity
  8
SPAR
100
AcDbLine
 10
199.12
 20
476.2155004019015
 30
0.0
 11
186.36
 21
476.31721734675807
 31
0.0
  0
LINE
  5
185
330
17
100
AcDbEntity
  8
SPAR
100
AcDbLine
 10
186.36
 20
476.31721734675807
 30
0.0
 11
173.60000000000002
 21
476.4287396763219
 31
0.0
  0
LINE
  5
186
330
17
100
AcDbEntity
  8
SPAR
100
AcDbLine
 10
173.60000000000002
 20
476.4287396763219
 30
0.0
 11
160.84000000000003
 21
476.5513305564252
 31
0.0
  0
LINE
  5
187
330
17
100
AcDbEntity
  8
SPAR
100
AcDbLine
 10
160.84000000000003
 20
476.5513305564252
 30
0.0
 11
148.08000000000004
 21
476.6866155311491
 31
0.0
  0
LINE
  5
188
330
17
100
AcDbEntity
  8
SPAR
100
AcDbLine
 10
148.08000000000004
 20
476.6866155311491
 30
0.0
 11
135.32
 21
476.8367471313446
 31
0.0
  0
LINE
  5
189
330
17
100
AcDbEntity
  8
SPAR
100
AcDbLine
 10
135.32
 20
476.8367471313446
 30
0.0
 11
122.56
 21
477.0046807129704
 31
0.0
  0
LINE
  5
18A
330
17
100
AcDbEntity
  8
CENTERLINE
100
AcDbLine
 10
454.32
 20
469.504
 30
0.0
 11
441.56
 21
469.5059309519491
 31
0.0
  0
LINE
  5
18B
330
17
100
AcDbEntity
  8
CENTERLINE
100
AcDbLine
 10
441.56
 20
469.5059309519491
 30
0.0
 11
428.8
 21
469.51257468401025
 31
0.0
  0
LINE
  5
18C
330
17
100
AcDbEntity
  8
CENTERLINE
100
AcDbLine
 10
428.8
 20
469.51257468401025
 30
0.0
 11
416.04
 21
469.5245225873522
 31
0.0
  0
LINE
  5
18D
330
17
100
AcDbEntity
  8
CENTERLINE
100
AcDbLine
 10
416.04
 20
469.5245225873522
 30
0.0
 11
403.28
 21
469.5421476066365
 31
0.0
  0
LINE
  5
18E
330
17
100
AcDbEntity
  8
CENTERLINE
100
AcDbLine
 10
403.28
 20
469.5421476066365
 30
0.0
 11
390.52
 21
469.5657520165949
 31
0.0
  0
LINE
  5
18F
330
17
100
AcDbEntity
  8
CENTERLINE
100
AcDbLine
 10
390.52
 20
469.5657520165949
 30
0.0
 11
377.76
 21
469.59560921648784
 31
0.0
  0
LINE
  5
190
330
17
100
AcDbEntity
  8
CENTERLINE
100
AcDbLine
 10
377.76
 20
469.59560921648784
 30
0.0
 11
365.0
 21
469.6319837339299
 31
0.0
  0
LINE
  5
191
330
17
100
AcDbEntity
  8
CENTERLINE
100
AcDbLine
 10
365.0
 20
469.6319837339299
 30
0.0
 11
352.24
 21
469.6751434537348
 31
0.0
  0
LINE
  5
192
330
17
100
AcDbEntity
  8
CENTERLINE
100
AcDbLine
 10
352.24
 20
469.6751434537348
 30
0.0
 11
339.48
 21
469.7253685393893
 31
0.0
  0
LINE
  5
193
330
17
100
AcDbEntity
  8
CENTERLINE
100
AcDbLine
 10
339.48
 20
469.7253685393893
 30
0.0
 11
326.72
 21
469.78295894477003
 31
0.0
  0
LINE
  5
194
330
17
100
AcDbEntity
  8
CENTERLINE
100
AcDbLine
 10
326.72
 20
469.78295894477003
 30
0.0
 11
313.96000000000004
 21
469.8482415171833
 31
0.0
  0
LINE
  5
195
330
17
100
AcDbEntity
  8
CENTERLINE
100
AcDbLine
 10
313.96000000000004
 20
469.8482415171833
 30
0.0
 11
301.20000000000005
 21
469.9215773444679
 31
0.0
  0
LINE
  5
196
330
17
100
AcDbEntity
  8
CENTERLINE
100
AcDbLine
 10
301.20000000000005
 20
469.9215773444679
 30
0.0
 11
288.44
 21
470.00336987603686
 31
0.0
  0
LINE
  5
197
330
17
100
AcDbEntity
  8
CENTERLINE
100
AcDbLine
 10
288.44
 20
470.00336987603686
 30
0.0
 11
275.68
 21
470.0940743429383
 31
0.0
  0
LINE
  5
198
330
17
100
AcDbEntity
  8
CENTERLINE
100
AcDbLine
 10
275.68
 20
470.0940743429383
 30
0.0
 11
262.92
 21
470.19420908149897
 31
0.0
  0
LINE
  5
199
330
17
100
AcDbEntity
  8
CENTERLINE
100
AcDbLine
 10
262.92
 20
470.19420908149897
 30
0.0
 11
250.16
 21
470.30436952843036
 31
0.0
  0
LINE
  5
19A
330
17
100
AcDbEntity
  8
CENTERLINE
100
AcDbLine
 10
250.16
 20
470.30436952843036
 30
0.0
 11
237.4
 21
470.42524592527275
 31
0.0
  0
LINE
  5
19B
330
17
100
AcDbEntity
  8
CENTERLINE
100
AcDbLine
 10
237.4
 20
470.42524592527275
 30
0.0
 11
224.64000000000001
 21
470.5576461958933
 31
0.0
  0
LINE
  5
19C
330
17
100
AcDbEntity
  8
CENTERLINE
100
AcDbLine
 10
224.64000000000001
 20
470.5576461958933
 30
0.0
 11
211.88000000000002
 21
470.70252613190377
 31
0.0
  0
LINE
  5
19D
330
17
100
AcDbEntity
  8
CENTERLINE
100
AcDbLine
 10
211.88000000000002
 20
470.70252613190377
 30
0.0
 11
199.12
 21
470.86103009736144
 31
0.0
  0
LINE
  5
19E
330
17
100
AcDbEntity
  8
CENTERLINE
100
AcDbLine
 10
199.12
 20
470.86103009736144
 30
0.0
 11
186.36
 21
471.03454723858727
 31
0.0
  0
LINE
  5
19F
330
17
100
AcDbEntity
  8
CENTERLINE
100
AcDbLine
 10
186.36
 20
471.03454723858727
 30
0.0
 11
173.60000000000002
 21
471.2247912125491
 31
0.0
  0
LINE
  5
1A0
330
17
100
AcDbEntity
  8
CENTERLINE
100
AcDbLine
 10
173.60000000000002
 20
471.2247912125491
 30
0.0
 11
160.84000000000003
 21
471.4339168315489
 31
0.0
  0
LINE
  5
1A1
330
17
100
AcDbEntity
  8
CENTERLINE
100
AcDbLine
 10
160.84000000000003
 20
471.4339168315489
 30
0.0
 11
148.08000000000004
 21
471.66469708254846
 31
0.0
  0
LINE
  5
1A2
330
17
100
AcDbEntity
  8
CENTERLINE
100
AcDbLine
 10
148.08000000000004
 20
471.66469708254846
 30
0.0
 11
135.32
 21
471.9208039299408
 31
0.0
  0
LINE
  5
1A3
330
17
100
AcDbEntity
  8
CENTERLINE
100
AcDbLine
 10
135.32
 20
471.9208039299408
 30
0.0
 11
122.56
 21
472.20727886330246
 31
0.0
  0
LINE
  5
1A4
330
17
100
AcDbEntity
  8
CENTERLINE
100
AcDbLine
 10
122.56
 20
472.20727886330246
 30
0.0
 11
109.80000000000001
 21
472.531378614675
 31
0.0
  0
LINE
  5
1A5
330
17
100
AcDbEntity
  8
CENTERLINE
100
AcDbLine
 10
109.80000000000001
 20
472.531378614675
 30
0.0
 11
97.04000000000002
 21
472.9042433792485
 31
0.0
  0
LINE
  5
1A6
330
17
100
AcDbEntity
  8
CENTERLINE
100
AcDbLine
 10
97.04000000000002
 20
472.9042433792485
 30
0.0
 11
84.28000000000003
 21
473.34464689614634
 31
0.0
  0
LINE
  5
1A7
330
17
100
AcDbEntity
  8
CENTERLINE
100
AcDbLine
 10
84.28000000000003
 20
473.34464689614634
 30
0.0
 11
71.52000000000004
 21
473.8892984125639
 31
0.0
  0
LINE
  5
1A8
330
17
100
AcDbEntity
  8
CENTERLINE
100
AcDbLine
 10
71.52000000000004
 20
473.8892984125639
 30
0.0
 11
58.76000000000005
 21
474.63361830648904
 31
0.0
  0
LINE
  5
1A9
330
17
100
AcDbEntity
  8
CENTERLINE
100
AcDbLine
 10
58.76000000000005
 20
474.63361830648904
 30
0.0
 11
46.0
 21
476.6525
 31
0.0
  0
LINE
  5
1AA
330
17
100
AcDbEntity
  8
SPAR
100
AcDbLine
 10
120.24000000000001
 20
490.16671228387474
 30
0.0
 11
83.12
 21
489.5455179831248
 31
0.0
  0
LINE
  5
1AB
330
17
100
AcDbEntity
  8
SPAR
100
AcDbLine
 10
83.12
 20
489.5455179831248
 30
0.0
 11
64.56
 21
489.0658075636039
 31
0.0
  0
LINE
  5
1AC
330
17
100
AcDbEntity
  8
SPAR
100
AcDbLine
 10
64.56
 20
489.0658075636039
 30
0.0
 11
46.0
 21
487.74499999999995
 31
0.0
  0
LINE
  5
1AD
330
17
100
AcDbEntity
  8
CENTERLINE
100
AcDbLine
 10
454.32
 20
469.504
 30
0.0
 11
231.60000000000002
 21
470.48394567651206
 31
0.0
  0
TEXT
  5
1AE
330
17
100
AcDbEntity
  8
TEXT
100
AcDbText
 10
334.96000000000004
 20
457.993972838256
 30
0.0
 40
2.0
  1
FLAP
 11
334.96000000000004
 21
457.993972838256
 31
0.0
100
AcDbText
  0
LINE
  5
1AF
330
17
100
AcDbEntity
  8
CENTERLINE
100
AcDbLine
 10
231.60000000000002
 20
470.48394567651206
 30
0.0
 11
46.0
 21
476.6525
 31
0.0
  0
TEXT
  5
1B0
330
17
100
AcDbEntity
  8
TEXT
100
AcDbText
 10
130.8
 20
461.568222838256
 30
0.0
 40
2.0
  1
AILERON
 11
130.8
 21
461.568222838256
 31
0.0
100
AcDbText
  0
LINE
  5
1B1
330
17
100
AcDbEntity
  8
OUTLINE
100
AcDbLine
 10
465.34
 20
505.0
 30
0.0
 11
478.09999999999997
 21
504.99713686435126
 31
0.0
  0
LINE
  5
1B2
330
17
100
AcDbEntity
  8
OUTLINE
100
AcDbLine
 10
465.34
 20
455.7
 30
0.0
 11
478.09999999999997
 21
455.7037953193483
 31
0.0
  0
LINE
  5
1B3
330
17
100
AcDbEntity
  8
OUTLINE
100
AcDbLine
 10
478.09999999999997
 20
504.99713686435126
 30
0.0
 11
490.85999999999996
 21
504.98728581336405
 31
0.0
  0
LINE
  5
1B4
330
17
100
AcDbEntity
  8
OUTLINE
100
AcDbLine
 10
478.09999999999997
 20
455.7037953193483
 30
0.0
 11
490.85999999999996
 21
455.7168536892616
 31
0.0
  0
LINE
  5
1B5
330
17
100
AcDbEntity
  8
OUTLINE
100
AcDbLine
 10
490.85999999999996
 20
504.98728581336405
 30
0.0
 11
503.61999999999995
 21
504.96956995668467
 31
0.0
  0
LINE
  5
1B6
330
17
100
AcDbEntity
  8
OUTLINE
100
AcDbLine
 10
490.85999999999996
 20
455.7168536892616
 30
0.0
 11
503.61999999999995
 21
455.74033749927844
 31
0.0
  0
LINE
  5
1B7
330
17
100
AcDbEntity
  8
OUTLINE
100
AcDbLine
 10
503.61999999999995
 20
504.96956995668467
 30
0.0
 11
516.38
 21
504.94343630740093
 31
0.0
  0
LINE
  5
1B8
330
17
100
AcDbEntity
  8
OUTLINE
100
AcDbLine
 10
503.61999999999995
 20
455.74033749927844
 30
0.0
 11
516.38
 21
455.7749797785615
 31
0.0
  0
LINE
  5
1B9
330
17
100
AcDbEntity
  8
OUTLINE
100
AcDbLine
 10
516.38
 20
504.94343630740093
 30
0.0
 11
529.14
 21
504.90843666504895
 31
0.0
  0
LINE
  5
1BA
330
17
100
AcDbEntity
  8
OUTLINE
100
AcDbLine
 10
516.38
 20
455.7749797785615
 30
0.0
 11
529.14
 21
455.8213746533072
 31
0.0
  0
LINE
  5
1BB
330
17
100
AcDbEntity
  8
OUTLINE
100
AcDbLine
 10
529.14
 20
504.90843666504895
 30
0.0
 11
541.9
 21
504.86416564451804
 31
0.0
  0
LINE
  5
1BC
330
17
100
AcDbEntity
  8
OUTLINE
100
AcDbLine
 10
529.14
 20
455.8213746533072
 30
0.0
 11
541.9
 21
455.8800594944761
 31
0.0
  0
LINE
  5
1BD
330
17
100
AcDbEntity
  8
OUTLINE
100
AcDbLine
 10
541.9
 20
504.86416564451804
 30
0.0
 11
554.66
 21
504.8102310152074
 31
0.0
  0
LINE
  5
1BE
330
17
100
AcDbEntity
  8
OUTLINE
100
AcDbLine
 10
541.9
 20
455.8800594944761
 30
0.0
 11
554.66
 21
455.9515542356553
 31
0.0
  0
LINE
  5
1BF
330
17
100
AcDbEntity
  8
OUTLINE
100
AcDbLine
 10
554.66
 20
504.8102310152074
 30
0.0
 11
567.42
 21
504.74623556860007
 31
0.0
  0
LINE
  5
1C0
330
17
100
AcDbEntity
  8
OUTLINE
100
AcDbLine
 10
554.66
 20
455.9515542356553
 30
0.0
 11
567.42
 21
456.03638540906496
 31
0.0
  0
LINE
  5
1C1
330
17
100
AcDbEntity
  8
OUTLINE
100
AcDbLine
 10
567.42
 20
504.74623556860007
 30
0.0
 11
580.18
 21
504.671763889871
 31
0.0
  0
LINE
  5
1C2
330
17
100
AcDbEntity
  8
OUTLINE
100
AcDbLine
 10
567.42
 20
456.03638540906496
 30
0.0
 11
580.18
 21
456.13510368086867
 31
0.0
  0
LINE
  5
1C3
330
17
100
AcDbEntity
  8
OUTLINE
100
AcDbLine
 10
580.18
 20
504.671763889871
 30
0.0
 11
592.9399999999999
 21
504.58637121982366
 31
0.0
  0
LINE
  5
1C4
330
17
100
AcDbEntity
  8
OUTLINE
100
AcDbLine
 10
580.18
 20
456.13510368086867
 30
0.0
 11
592.9399999999999
 21
456.2482986155825
 31
0.0
  0
LINE
  5
1C5
330
17
100
AcDbEntity
  8
OUTLINE
100
AcDbLine
 10
592.9399999999999
 20
504.58637121982366
 30
0.0
 11
605.6999999999999
 21
504.4895729227971
 31
0.0
  0
LINE
  5
1C6
330
17
100
AcDbEntity
  8
OUTLINE
100
AcDbLine
 10
592.9399999999999
 20
456.2482986155825
 30
0.0
 11
605.6999999999999
 21
456.37661263722237
 31
0.0
  0
LINE
  5
1C7
330
17
100
AcDbEntity
  8
OUTLINE
100
AcDbLine
 10
605.6999999999999
 20
504.4895729227971
 30
0.0
 11
618.4599999999999
 21
504.38083359268546
 31
0.0
  0
LINE
  5
1C8
330
17
100
AcDbEntity
  8
OUTLINE
100
AcDbLine
 10
605.6999999999999
 20
456.37661263722237
 30
0.0
 11
618.4599999999999
 21
456.520755470161
 31
0.0
  0
LINE
  5
1C9
330
17
100
AcDbEntity
  8
OUTLINE
100
AcDbLine
 10
618.4599999999999
 20
504.38083359268546
 30
0.0
 11
631.22
 21
504.2595550113936
 31
0.0
  0
LINE
  5
1CA
330
17
100
AcDbEntity
  8
OUTLINE
100
AcDbLine
 10
618.4599999999999
 20
456.520755470161
 30
0.0
 11
631.22
 21
456.68152010117586
 31
0.0
  0
LINE
  5
1CB
330
17
100
AcDbEntity
  8
OUTLINE
100
AcDbLine
 10
631.22
 20
504.2595550113936
 30
0.0
 11
643.98
 21
504.1250621811604
 31
0.0
  0
LINE
  5
1CC
330
17
100
AcDbEntity
  8
OUTLINE
100
AcDbLine
 10
631.22
 20
456.68152010117586
 30
0.0
 11
643.98
 21
456.8598012947408
 31
0.0
  0
LINE
  5
1CD
330
17
100
AcDbEntity
  8
OUTLINE
100
AcDbLine
 10
643.98
 20
504.1250621811604
 30
0.0
 11
656.74
 21
503.9765865343291
 31
0.0
  0
LINE
  5
1CE
330
17
100
AcDbEntity
  8
OUTLINE
100
AcDbLine
 10
643.98
 20
456.8598012947408
 30
0.0
 11
656.74
 21
457.0566178498428
 31
0.0
  0
LINE
  5
1CF
330
17
100
AcDbEntity
  8
OUTLINE
100
AcDbLine
 10
656.74
 20
503.9765865343291
 30
0.0
 11
669.5
 21
503.8132451819826
 31
0.0
  0
LINE
  5
1D0
330
17
100
AcDbEntity
  8
OUTLINE
100
AcDbLine
 10
656.74
 20
457.0566178498428
 30
0.0
 11
669.5
 21
457.2731401076045
 31
0.0
  0
LINE
  5
1D1
330
17
100
AcDbEntity
  8
OUTLINE
100
AcDbLine
 10
669.5
 20
503.8132451819826
 30
0.0
 11
682.26
 21
503.6340146625266
 31
0.0
  0
LINE
  5
1D2
330
17
100
AcDbEntity
  8
OUTLINE
100
AcDbLine
 10
669.5
 20
457.2731401076045
 30
0.0
 11
682.26
 21
457.510724749674
 31
0.0
  0
LINE
  5
1D3
330
17
100
AcDbEntity
  8
OUTLINE
100
AcDbLine
 10
682.26
 20
503.6340146625266
 30
0.0
 11
695.02
 21
503.4376970198823
 31
0.0
  0
LINE
  5
1D4
330
17
100
AcDbEntity
  8
OUTLINE
100
AcDbLine
 10
682.26
 20
457.510724749674
 30
0.0
 11
695.02
 21
457.770959764342
 31
0.0
  0
LINE
  5
1D5
330
17
100
AcDbEntity
  8
OUTLINE
100
AcDbLine
 10
695.02
 20
503.4376970198823
 30
0.0
 11
707.78
 21
503.2228750457979
 31
0.0
  0
LINE
  5
1D6
330
17
100
AcDbEntity
  8
OUTLINE
100
AcDbLine
 10
695.02
 20
457.770959764342
 30
0.0
 11
707.78
 21
458.05572377650054
 31
0.0
  0
LINE
  5
1D7
330
17
100
AcDbEntity
  8
OUTLINE
100
AcDbLine
 10
707.78
 20
503.2228750457979
 30
0.0
 11
720.54
 21
502.987851924602
 31
0.0
  0
LINE
  5
1D8
330
17
100
AcDbEntity
  8
OUTLINE
100
AcDbLine
 10
707.78
 20
458.05572377650054
 30
0.0
 11
720.54
 21
458.36726605343455
 31
0.0
  0
LINE
  5
1D9
330
17
100
AcDbEntity
  8
OUTLINE
100
AcDbLine
 10
720.54
 20
502.987851924602
 30
0.0
 11
733.3
 21
502.730567887612
 31
0.0
  0
LINE
  5
1DA
330
17
100
AcDbEntity
  8
OUTLINE
100
AcDbLine
 10
720.54
 20
458.36726605343455
 30
0.0
 11
733.3
 21
458.7083169861888
 31
0.0
  0
LINE
  5
1DB
330
17
100
AcDbEntity
  8
OUTLINE
100
AcDbLine
 10
733.3
 20
502.730567887612
 30
0.0
 11
746.06
 21
502.4484819951858
 31
0.0
  0
LINE
  5
1DC
330
17
100
AcDbEntity
  8
OUTLINE
100
AcDbLine
 10
733.3
 20
458.7083169861888
 30
0.0
 11
746.06
 21
459.08224479707934
 31
0.0
  0
LINE
  5
1DD
330
17
100
AcDbEntity
  8
OUTLINE
100
AcDbLine
 10
746.06
 20
502.4484819951858
 30
0.0
 11
758.8199999999999
 21
502.13839918080674
 31
0.0
  0
LINE
  5
1DE
330
17
100
AcDbEntity
  8
OUTLINE
100
AcDbLine
 10
746.06
 20
459.08224479707934
 30
0.0
 11
758.8199999999999
 21
459.49328480683755
 31
0.0
  0
LINE
  5
1DF
330
17
100
AcDbEntity
  8
OUTLINE
100
AcDbLine
 10
758.8199999999999
 20
502.13839918080674
 30
0.0
 11
771.5799999999999
 21
501.7962077741523
 31
0.0
  0
LINE
  5
1E0
330
17
100
AcDbEntity
  8
OUTLINE
100
AcDbLine
 10
758.8199999999999
 20
459.49328480683755
 30
0.0
 11
771.5799999999999
 21
459.94688736914696
 31
0.0
  0
LINE
  5
1E1
330
17
100
AcDbEntity
  8
OUTLINE
100
AcDbLine
 10
771.5799999999999
 20
501.7962077741523
 30
0.0
 11
784.3399999999999
 21
501.41646313836367
 31
0.0
  0
LINE
  5
1E2
330
17
100
AcDbEntity
  8
OUTLINE
100
AcDbLine
 10
771.5799999999999
 20
459.94688736914696
 30
0.0
 11
784.3399999999999
 21
460.4502697933319
 31
0.0
  0
LINE
  5
1E3
330
17
100
AcDbEntity
  8
OUTLINE
100
AcDbLine
 10
784.3399999999999
 20
501.41646313836367
 30
0.0
 11
797.0999999999999
 21
500.99168996131004
 31
0.0
  0
LINE
  5
1E4
330
17
100
AcDbEntity
  8
OUTLINE
100
AcDbLine
 10
784.3399999999999
 20
460.4502697933319
 30
0.0
 11
797.0999999999999
 21
461.0133412140773
 31
0.0
  0
LINE
  5
1E5
330
17
100
AcDbEntity
  8
OUTLINE
100
AcDbLine
 10
797.0999999999999
 20
500.99168996131004
 30
0.0
 11
809.8599999999999
 21
500.51112826099904
 31
0.0
  0
LINE
  5
1E6
330
17
100
AcDbEntity
  8
OUTLINE
100
AcDbLine
 10
797.0999999999999
 20
461.0133412140773
 30
0.0
 11
809.8599999999999
 21
461.6503648633268
 31
0.0
  0
LINE
  5
1E7
330
17
100
AcDbEntity
  8
OUTLINE
100
AcDbLine
 10
809.8599999999999
 20
500.51112826099904
 30
0.0
 11
822.6199999999999
 21
499.95825981697635
 31
0.0
  0
LINE
  5
1E8
330
17
100
AcDbEntity
  8
OUTLINE
100
AcDbLine
 10
809.8599999999999
 20
461.6503648633268
 30
0.0
 11
822.6199999999999
 21
462.38323698679875
 31
0.0
  0
LINE
  5
1E9
330
17
100
AcDbEntity
  8
OUTLINE
100
AcDbLine
 10
822.6199999999999
 20
499.95825981697635
 30
0.0
 11
835.3799999999999
 21
499.30524770571407
 31
0.0
  0
LINE
  5
1EA
330
17
100
AcDbEntity
  8
OUTLINE
100
AcDbLine
 10
822.6199999999999
 20
462.38323698679875
 30
0.0
 11
835.3799999999999
 21
463.24885769242553
 31
0.0
  0
LINE
  5
1EB
330
17
100
AcDbEntity
  8
OUTLINE
100
AcDbLine
 10
835.3799999999999
 20
499.30524770571407
 30
0.0
 11
848.1399999999999
 21
498.49766097447423
 31
0.0
  0
LINE
  5
1EC
330
17
100
AcDbEntity
  8
OUTLINE
100
AcDbLine
 10
835.3799999999999
 20
463.24885769242553
 30
0.0
 11
848.1399999999999
 21
464.3193796384877
 31
0.0
  0
LINE
  5
1ED
330
17
100
AcDbEntity
  8
OUTLINE
100
AcDbLine
 10
848.1399999999999
 20
498.49766097447423
 30
0.0
 11
860.8999999999999
 21
497.39401423520593
 31
0.0
  0
LINE
  5
1EE
330
17
100
AcDbEntity
  8
OUTLINE
100
AcDbLine
 10
848.1399999999999
 20
464.3193796384877
 30
0.0
 11
860.8999999999999
 21
465.7823532230991
 31
0.0
  0
LINE
  5
1EF
330
17
100
AcDbEntity
  8
OUTLINE
100
AcDbLine
 10
860.8999999999999
 20
497.39401423520593
 30
0.0
 11
873.66
 21
494.40049999999997
 31
0.0
  0
LINE
  5
1F0
330
17
100
AcDbEntity
  8
OUTLINE
100
AcDbLine
 10
860.8999999999999
 20
465.7823532230991
 30
0.0
 11
873.66
 21
469.7505
 31
0.0
  0
LINE
  5
1F1
330
17
100
AcDbEntity
  8
OUTLINE
100
AcDbLine
 10
465.34
 20
505.0
 30
0.0
 11
465.34
 21
455.7
 31
0.0
  0
LWPOLYLINE
  5
1F2
330
17
100
AcDbEntity
  8
OUTLINE
100
AcDbPolyline
 90
9
 70
0
 10
873.66
 20
469.7505
 10
877.2445957109637
 20
470.68868476179836
 10
880.2834692193744
 20
473.3604089218758
 10
882.3139795810332
 20
477.35892669610024
 10
883.0269999999999
 20
482.0755
 10
882.3139795810332
 20
486.7920733038997
 10
880.2834692193744
 20
490.7905910781242
 10
877.2445957109637
 20
493.4623152382016
 10
873.66
 20
494.40049999999997
  0
LINE
  5
1F3
330
17
100
AcDbEntity
  8
SECTION
100
AcDbLine
 10
539.5799999999999
 20
504.87292222977305
 30
0.0
 11
539.5799999999999
 21
455.8684519279753
 31
0.0
  0
TEXT
  5
1F4
330
17
100
AcDbEntity
  8
TEXT
100
AcDbText
 10
527.5799999999999
 20
495.87292222977305
 30
0.0
 40
2.0
  1
P1
 11
527.5799999999999
 21
495.87292222977305
 31
0.0
100
AcDbText
  0
LINE
  5
1F5
330
17
100
AcDbEntity
  8
SECTION
100
AcDbLine
 10
613.8199999999999
 20
504.42179302888195
 30
0.0
 11
613.8199999999999
 21
456.46646040357507
 31
0.0
  0
TEXT
  5
1F6
330
17
100
AcDbEntity
  8
TEXT
100
AcDbText
 10
601.8199999999999
 20
495.42179302888195
 30
0.0
 40
2.0
  1
P2
 11
601.8199999999999
 21
495.42179302888195
 31
0.0
100
AcDbText
  0
LINE
  5
1F7
330
17
100
AcDbEntity
  8
SECTION
100
AcDbLine
 10
688.06
 20
503.5469771003441
 30
0.0
 11
688.06
 21
457.6261001227996
 31
0.0
  0
TEXT
  5
1F8
330
17
100
AcDbEntity
  8
TEXT
100
AcDbText
 10
676.06
 20
494.5469771003441
 30
0.0
 40
2.0
  1
P3
 11
676.06
 21
494.5469771003441
 31
0.0
100
AcDbText
  0
LINE
  5
1F9
330
17
100
AcDbEntity
  8
SECTION
100
AcDbLine
 10
762.3
 20
502.0484590395698
 30
0.0
 11
762.3
 21
459.61250778475625
 31
0.0
  0
TEXT
  5
1FA
330
17
100
AcDbEntity
  8
TEXT
100
AcDbText
 10
750.3
 20
493.0484590395698
 30
0.0
 40
2.0
  1
P4
 11
750.3
 21
493.0484590395698
 31
0.0
100
AcDbText
  0
LINE
  5
1FB
330
17
100
AcDbEntity
  8
SECTION
100
AcDbLine
 10
836.54
 20
499.2393920796479
 30
0.0
 11
836.54
 21
463.3361546851178
 31
0.0
  0
TEXT
  5
1FC
330
17
100
AcDbEntity
  8
TEXT
100
AcDbText
 10
824.54
 20
490.2393920796479
 30
0.0
 40
2.0
  1
P5
 11
824.54
 21
490.2393920796479
 31
0.0
100
AcDbText
  0
TEXT
  5
1FD
330
17
100
AcDbEntity
  8
TEXT
100
AcDbText
 10
855.66
 20
485.40049999999997
 30
0.0
 40
2.0
  1
TIP
 11
855.66
 21
485.40049999999997
 31
0.0
100
AcDbText
  0
LINE
  5
1FE
330
17
100
AcDbEntity
  8
SPAR
100
AcDbLine
 10
465.34
 20
492.675
 30
0.0
 11
478.09999999999997
 21
492.67380147810053
 31
0.0
  0
LINE
  5
1FF
330
17
100
AcDbEntity
  8
SPAR
100
AcDbLine
 10
478.09999999999997
 20
492.67380147810053
 30
0.0
 11
490.85999999999996
 21
492.66967778233845
 31
0.0
  0
LINE
  5
200
330
17
100
AcDbEntity
  8
SPAR
100
AcDbLine
 10
490.85999999999996
 20
492.66967778233845
 30
0.0
 11
503.61999999999995
 21
492.6622618423331
 31
0.0
  0
LINE
  5
201
330
17
100
AcDbEntity
  8
SPAR
100
AcDbLine
 10
503.61999999999995
 20
492.6622618423331
 30
0.0
 11
516.38
 21
492.65132217519107
 31
0.0
  0
LINE
  5
202
330
17
100
AcDbEntity
  8
SPAR
100
AcDbLine
 10
516.38
 20
492.65132217519107
 30
0.0
 11
529.14
 21
492.63667116211354
 31
0.0
  0
LINE
  5
203
330
17
100
AcDbEntity
  8
SPAR
100
AcDbLine
 10
529.14
 20
492.63667116211354
 30
0.0
 11
541.9
 21
492.61813910700755
 31
0.0
  0
LINE
  5
204
330
17
100
AcDbEntity
  8
SPAR
100
AcDbLine
 10
541.9
 20
492.61813910700755
 30
0.0
 11
554.66
 21
492.5955618203194
 31
0.0
  0
LINE
  5
205
330
17
100
AcDbEntity
  8
SPAR
100
AcDbLine
 10
554.66
 20
492.5955618203194
 30
0.0
 11
567.42
 21
492.5687730287163
 31
0.0
  0
LINE
  5
206
330
17
100
AcDbEntity
  8
SPAR
100
AcDbLine
 10
567.42
 20
492.5687730287163
 30
0.0
 11
580.18
 21
492.5375988376204
 31
0.0
  0
LINE
  5
207
330
17
100
AcDbEntity
  8
SPAR
100
AcDbLine
 10
580.18
 20
492.5375988376204
 30
0.0
 11
592.9399999999999
 21
492.50185306876335
 31
0.0
  0
LINE
  5
208
330
17
100
AcDbEntity
  8
SPAR
100
AcDbLine
 10
592.9399999999999
 20
492.50185306876335
 30
0.0
 11
605.6999999999999
 21
492.4613328514034
 31
0.0
  0
LINE
  5
209
330
17
100
AcDbEntity
  8
SPAR
100
AcDbLine
 10
605.6999999999999
 20
492.4613328514034
 30
0.0
 11
618.4599999999999
 21
492.4158140620544
 31
0.0
  0
LINE
  5
20A
330
17
100
AcDbEntity
  8
SPAR
100
AcDbLine
 10
618.4599999999999
 20
492.4158140620544
 30
0.0
 11
631.22
 21
492.3650462838392
 31
0.0
  0
LINE
  5
20B
330
17
100
AcDbEntity
  8
SPAR
100
AcDbLine
 10
631.22
 20
492.3650462838392
 30
0.0
 11
643.98
 21
492.3087469595555
 31
0.0
  0
LINE
  5
20C
330
17
100
AcDbEntity
  8
SPAR
100
AcDbLine
 10
643.98
 20
492.3087469595555
 30
0.0
 11
656.74
 21
492.2465943632075
 31
0.0
  0
LINE
  5
20D
330
17
100
AcDbEntity
  8
SPAR
100
AcDbLine
 10
656.74
 20
492.2465943632075
 30
0.0
 11
669.5
 21
492.1782189133881
 31
0.0
  0
LINE
  5
20E
330
17
100
AcDbEntity
  8
SPAR
100
AcDbLine
 10
669.5
 20
492.1782189133881
 30
0.0
 11
682.26
 21
492.10319218431346
 31
0.0
  0
LINE
  5
20F
330
17
100
AcDbEntity
  8
SPAR
100
AcDbLine
 10
682.26
 20
492.10319218431346
 30
0.0
 11
695.02
 21
492.02101270599724
 31
0.0
  0
LINE
  5
210
330
17
100
AcDbEntity
  8
SPAR
100
AcDbLine
 10
695.02
 20
492.02101270599724
 30
0.0
 11
707.78
 21
491.93108722847353
 31
0.0
  0
LINE
  5
211
330
17
100
AcDbEntity
  8
SPAR
100
AcDbLine
 10
707.78
 20
491.93108722847353
 30
0.0
 11
720.54
 21
491.8327054568101
 31
0.0
  0
LINE
  5
212
330
17
100
AcDbEntity
  8
SPAR
100
AcDbLine
 10
720.54
 20
491.8327054568101
 30
0.0
 11
733.3
 21
491.7250051622562
 31
0.0
  0
LINE
  5
213
330
17
100
AcDbEntity
  8
SPAR
100
AcDbLine
 10
733.3
 20
491.7250051622562
 30
0.0
 11
746.06
 21
491.60692269565914
 31
0.0
  0
LINE
  5
214
330
17
100
AcDbEntity
  8
SPAR
100
AcDbLine
 10
746.06
 20
491.60692269565914
 30
0.0
 11
758.8199999999999
 21
491.47712058731446
 31
0.0
  0
LINE
  5
215
330
17
100
AcDbEntity
  8
SPAR
100
AcDbLine
 10
758.8199999999999
 20
491.47712058731446
 30
0.0
 11
771.5799999999999
 21
491.333877672901
 31
0.0
  0
LINE
  5
216
330
17
100
AcDbEntity
  8
SPAR
100
AcDbLine
 10
771.5799999999999
 20
491.333877672901
 30
0.0
 11
784.3399999999999
 21
491.1749148021057
 31
0.0
  0
LINE
  5
217
330
17
100
AcDbEntity
  8
SPAR
100
AcDbLine
 10
784.3399999999999
 20
491.1749148021057
 30
0.0
 11
797.0999999999999
 21
490.99710277450185
 31
0.0
  0
LINE
  5
218
330
17
100
AcDbEntity
  8
SPAR
100
AcDbLine
 10
465.34
 20
475.42
 30
0.0
 11
478.09999999999997
 21
475.42113193734946
 31
0.0
  0
LINE
  5
219
330
17
100
AcDbEntity
  8
SPAR
100
AcDbLine
 10
478.09999999999997
 20
475.42113193734946
 30
0.0
 11
490.85999999999996
 21
475.42502653890256
 31
0.0
  0
LINE
  5
21A
330
17
100
AcDbEntity
  8
SPAR
100
AcDbLine
 10
490.85999999999996
 20
475.42502653890256
 30
0.0
 11
503.61999999999995
 21
475.4320304822409
 31
0.0
  0
LINE
  5
21B
330
17
100
AcDbEntity
  8
SPAR
100
AcDbLine
 10
503.61999999999995
 20
475.4320304822409
 30
0.0
 11
516.38
 21
475.44236239009723
 31
0.0
  0
LINE
  5
21C
330
17
100
AcDbEntity
  8
SPAR
100
AcDbLine
 10
516.38
 20
475.44236239009723
 30
0.0
 11
529.14
 21
475.4561994580039
 31
0.0
  0
LINE
  5
21D
330
17
100
AcDbEntity
  8
SPAR
100
AcDbLine
 10
529.14
 20
475.4561994580039
 30
0.0
 11
541.9
 21
475.47370195449287
 31
0.0
  0
LINE
  5
21E
330
17
100
AcDbEntity
  8
SPAR
100
AcDbLine
 10
541.9
 20
475.47370195449287
 30
0.0
 11
554.66
 21
475.49502494747617
 31
0.0
  0
LINE
  5
21F
330
17
100
AcDbEntity
  8
SPAR
100
AcDbLine
 10
554.66
 20
475.49502494747617
 30
0.0
 11
567.42
 21
475.520325472879
 31
0.0
  0
LINE
  5
220
330
17
100
AcDbEntity
  8
SPAR
100
AcDbLine
 10
567.42
 20
475.520325472879
 30
0.0
 11
580.18
 21
475.5497677644696
 31
0.0
  0
LINE
  5
221
330
17
100
AcDbEntity
  8
SPAR
100
AcDbLine
 10
580.18
 20
475.5497677644696
 30
0.0
 11
592.9399999999999
 21
475.583527657279
 31
0.0
  0
LINE
  5
222
330
17
100
AcDbEntity
  8
SPAR
100
AcDbLine
 10
592.9399999999999
 20
475.583527657279
 30
0.0
 11
605.6999999999999
 21
475.6217967514523
 31
0.0
  0
LINE
  5
223
330
17
100
AcDbEntity
  8
SPAR
100
AcDbLine
 10
605.6999999999999
 20
475.6217967514523
 30
0.0
 11
618.4599999999999
 21
475.6647867191708
 31
0.0
  0
LINE
  5
224
330
17
100
AcDbEntity
  8
SPAR
100
AcDbLine
 10
618.4599999999999
 20
475.6647867191708
 30
0.0
 11
631.22
 21
475.71273406526296
 31
0.0
  0
LINE
  5
225
330
17
100
AcDbEntity
  8
SPAR
100
AcDbLine
 10
631.22
 20
475.71273406526296
 30
0.0
 11
643.98
 21
475.76590564930865
 31
0.0
  0
LINE
  5
226
330
17
100
AcDbEntity
  8
SPAR
100
AcDbLine
 10
643.98
 20
475.76590564930865
 30
0.0
 11
656.74
 21
475.82460532363734
 31
0.0
  0
LINE
  5
227
330
17
100
AcDbEntity
  8
SPAR
100
AcDbLine
 10
656.74
 20
475.82460532363734
 30
0.0
 11
669.5
 21
475.8891821373557
 31
0.0
  0
LINE
  5
228
330
17
100
AcDbEntity
  8
SPAR
100
AcDbLine
 10
669.5
 20
475.8891821373557
 30
0.0
 11
682.26
 21
475.9600407148151
 31
0.0
  0
LINE
  5
229
330
17
100
AcDbEntity
  8
SPAR
100
AcDbLine
 10
682.26
 20
475.9600407148151
 30
0.0
 11
695.02
 21
476.0376546665581
 31
0.0
  0
LINE
  5
22A
330
17
100
AcDbEntity
  8
SPAR
100
AcDbLine
 10
695.02
 20
476.0376546665581
 30
0.0
 11
707.78
 21
476.12258428421944
 31
0.0
  0
LINE
  5
22B
330
17
100
AcDbEntity
  8
SPAR
100
AcDbLine
 10
707.78
 20
476.12258428421944
 30
0.0
 11
720.54
 21
476.2155004019015
 31
0.0
  0
LINE
  5
22C
330
17
100
AcDbEntity
  8
SPAR
100
AcDbLine
 10
720.54
 20
476.2155004019015
 30
0.0
 11
733.3
 21
476.31721734675807
 31
0.0
  0
LINE
  5
22D
330
17
100
AcDbEntity
  8
SPAR
100
AcDbLine
 10
733.3
 20
476.31721734675807
 30
0.0
 11
746.06
 21
476.4287396763219
 31
0.0
  0
LINE
  5
22E
330
17
100
AcDbEntity
  8
SPAR
100
AcDbLine
 10
746.06
 20
476.4287396763219
 30
0.0
 11
758.8199999999999
 21
476.5513305564252
 31
0.0
  0
LINE
  5
22F
330
17
100
AcDbEntity
  8
SPAR
100
AcDbLine
 10
758.8199999999999
 20
476.5513305564252
 30
0.0
 11
771.5799999999999
 21
476.6866155311491
 31
0.0
  0
LINE
  5
230
330
17
100
AcDbEntity
  8
SPAR
100
AcDbLine
 10
771.5799999999999
 20
476.6866155311491
 30
0.0
 11
784.3399999999999
 21
476.8367471313446
 31
0.0
  0
LINE
  5
231
330
17
100
AcDbEntity
  8
SPAR
100
AcDbLine
 10
784.3399999999999
 20
476.8367471313446
 30
0.0
 11
797.0999999999999
 21
477.0046807129704
 31
0.0
  0
LINE
  5
232
330
17
100
AcDbEntity
  8
CENTERLINE
100
AcDbLine
 10
465.34
 20
469.504
 30
0.0
 11
478.09999999999997
 21
469.5059309519491
 31
0.0
  0
LINE
  5
233
330
17
100
AcDbEntity
  8
CENTERLINE
100
AcDbLine
 10
478.09999999999997
 20
469.5059309519491
 30
0.0
 11
490.85999999999996
 21
469.51257468401025
 31
0.0
  0
LINE
  5
234
330
17
100
AcDbEntity
  8
CENTERLINE
100
AcDbLine
 10
490.85999999999996
 20
469.51257468401025
 30
0.0
 11
503.61999999999995
 21
469.5245225873522
 31
0.0
  0
LINE
  5
235
330
17
100
AcDbEntity
  8
CENTERLINE
100
AcDbLine
 10
503.61999999999995
 20
469.5245225873522
 30
0.0
 11
516.38
 21
469.5421476066365
 31
0.0
  0
LINE
  5
236
330
17
100
AcDbEntity
  8
CENTERLINE
100
AcDbLine
 10
516.38
 20
469.5421476066365
 30
0.0
 11
529.14
 21
469.5657520165949
 31
0.0
  0
LINE
  5
237
330
17
100
AcDbEntity
  8
CENTERLINE
100
AcDbLine
 10
529.14
 20
469.5657520165949
 30
0.0
 11
541.9
 21
469.59560921648784
 31
0.0
  0
LINE
  5
238
330
17
100
AcDbEntity
  8
CENTERLINE
100
AcDbLine
 10
541.9
 20
469.59560921648784
 30
0.0
 11
554.66
 21
469.6319837339299
 31
0.0
  0
LINE
  5
239
330
17
100
AcDbEntity
  8
CENTERLINE
100
AcDbLine
 10
554.66
 20
469.6319837339299
 30
0.0
 11
567.42
 21
469.6751434537348
 31
0.0
  0
LINE
  5
23A
330
17
100
AcDbEntity
  8
CENTERLINE
100
AcDbLine
 10
567.42
 20
469.6751434537348
 30
0.0
 11
580.18
 21
469.7253685393893
 31
0.0
  0
LINE
  5
23B
330
17
100
AcDbEntity
  8
CENTERLINE
100
AcDbLine
 10
580.18
 20
469.7253685393893
 30
0.0
 11
592.9399999999999
 21
469.78295894477003
 31
0.0
  0
LINE
  5
23C
330
17
100
AcDbEntity
  8
CENTERLINE
100
AcDbLine
 10
592.9399999999999
 20
469.78295894477003
 30
0.0
 11
605.6999999999999
 21
469.8482415171833
 31
0.0
  0
LINE
  5
23D
330
17
100
AcDbEntity
  8
CENTERLINE
100
AcDbLine
 10
605.6999999999999
 20
469.8482415171833
 30
0.0
 11
618.4599999999999
 21
469.9215773444679
 31
0.0
  0
LINE
  5
23E
330
17
100
AcDbEntity
  8
CENTERLINE
100
AcDbLine
 10
618.4599999999999
 20
469.9215773444679
 30
0.0
 11
631.22
 21
470.00336987603686
 31
0.0
  0
LINE
  5
23F
330
17
100
AcDbEntity
  8
CENTERLINE
100
AcDbLine
 10
631.22
 20
470.00336987603686
 30
0.0
 11
643.98
 21
470.0940743429383
 31
0.0
  0
LINE
  5
240
330
17
100
AcDbEntity
  8
CENTERLINE
100
AcDbLine
 10
643.98
 20
470.0940743429383
 30
0.0
 11
656.74
 21
470.19420908149897
 31
0.0
  0
LINE
  5
241
330
17
100
AcDbEntity
  8
CENTERLINE
100
AcDbLine
 10
656.74
 20
470.19420908149897
 30
0.0
 11
669.5
 21
470.30436952843036
 31
0.0
  0
LINE
  5
242
330
17
100
AcDbEntity
  8
CENTERLINE
100
AcDbLine
 10
669.5
 20
470.30436952843036
 30
0.0
 11
682.26
 21
470.42524592527275
 31
0.0
  0
LINE
  5
243
330
17
100
AcDbEntity
  8
CENTERLINE
100
AcDbLine
 10
682.26
 20
470.42524592527275
 30
0.0
 11
695.02
 21
470.5576461958933
 31
0.0
  0
LINE
  5
244
330
17
100
AcDbEntity
  8
CENTERLINE
100
AcDbLine
 10
695.02
 20
470.5576461958933
 30
0.0
 11
707.78
 21
470.70252613190377
 31
0.0
  0
LINE
  5
245
330
17
100
AcDbEntity
  8
CENTERLINE
100
AcDbLine
 10
707.78
 20
470.70252613190377
 30
0.0
 11
720.54
 21
470.86103009736144
 31
0.0
  0
LINE
  5
246
330
17
100
AcDbEntity
  8
CENTERLINE
100
AcDbLine
 10
720.54
 20
470.86103009736144
 30
0.0
 11
733.3
 21
471.03454723858727
 31
0.0
  0
LINE
  5
247
330
17
100
AcDbEntity
  8
CENTERLINE
100
AcDbLine
 10
733.3
 20
471.03454723858727
 30
0.0
 11
746.06
 21
471.2247912125491
 31
0.0
  0
LINE
  5
248
330
17
100
AcDbEntity
  8
CENTERLINE
100
AcDbLine
 10
746.06
 20
471.2247912125491
 30
0.0
 11
758.8199999999999
 21
471.4339168315489
 31
0.0
  0
LINE
  5
249
330
17
100
AcDbEntity
  8
CENTERLINE
100
AcDbLine
 10
758.8199999999999
 20
471.4339168315489
 30
0.0
 11
771.5799999999999
 21
471.66469708254846
 31
0.0
  0
LINE
  5
24A
330
17
100
AcDbEntity
  8
CENTERLINE
100
AcDbLine
 10
771.5799999999999
 20
471.66469708254846
 30
0.0
 11
784.3399999999999
 21
471.9208039299408
 31
0.0
  0
LINE
  5
24B
330
17
100
AcDbEntity
  8
CENTERLINE
100
AcDbLine
 10
784.3399999999999
 20
471.9208039299408
 30
0.0
 11
797.0999999999999
 21
472.20727886330246
 31
0.0
  0
LINE
  5
24C
330
17
100
AcDbEntity
  8
CENTERLINE
100
AcDbLine
 10
797.0999999999999
 20
472.20727886330246
 30
0.0
 11
809.8599999999999
 21
472.531378614675
 31
0.0
  0
LINE
  5
24D
330
17
100
AcDbEntity
  8
CENTERLINE
100
AcDbLine
 10
809.8599999999999
 20
472.531378614675
 30
0.0
 11
822.6199999999999
 21
472.9042433792485
 31
0.0
  0
LINE
  5
24E
330
17
100
AcDbEntity
  8
CENTERLINE
100
AcDbLine
 10
822.6199999999999
 20
472.9042433792485
 30
0.0
 11
835.3799999999999
 21
473.34464689614634
 31
0.0
  0
LINE
  5
24F
330
17
100
AcDbEntity
  8
CENTERLINE
100
AcDbLine
 10
835.3799999999999
 20
473.34464689614634
 30
0.0
 11
848.1399999999999
 21
473.8892984125639
 31
0.0
  0
LINE
  5
250
330
17
100
AcDbEntity
  8
CENTERLINE
100
AcDbLine
 10
848.1399999999999
 20
473.8892984125639
 30
0.0
 11
860.8999999999999
 21
474.63361830648904
 31
0.0
  0
LINE
  5
251
330
17
100
AcDbEntity
  8
CENTERLINE
100
AcDbLine
 10
860.8999999999999
 20
474.63361830648904
 30
0.0
 11
873.66
 21
476.6525
 31
0.0
  0
LINE
  5
252
330
17
100
AcDbEntity
  8
SPAR
100
AcDbLine
 10
799.42
 20
490.16671228387474
 30
0.0
 11
836.54
 21
489.5455179831248
 31
0.0
  0
LINE
  5
253
330
17
100
AcDbEntity
  8
SPAR
100
AcDbLine
 10
836.54
 20
489.5455179831248
 30
0.0
 11
855.0999999999999
 21
489.0658075636039
 31
0.0
  0
LINE
  5
254
330
17
100
AcDbEntity
  8
SPAR
100
AcDbLine
 10
855.0999999999999
 20
489.0658075636039
 30
0.0
 11
873.66
 21
487.74499999999995
 31
0.0
  0
LINE
  5
255
330
17
100
AcDbEntity
  8
CENTERLINE
100
AcDbLine
 10
465.34
 20
469.504
 30
0.0
 11
688.06
 21
470.48394567651206
 31
0.0
  0
TEXT
  5
256
330
17
100
AcDbEntity
  8
TEXT
100
AcDbText
 10
568.6999999999999
 20
457.993972838256
 30
0.0
 40
2.0
  1
FLAP
 11
568.6999999999999
 21
457.993972838256
 31
0.0
100
AcDbText
  0
LINE
  5
257
330
17
100
AcDbEntity
  8
CENTERLINE
100
AcDbLine
 10
688.06
 20
470.48394567651206
 30
0.0
 11
873.66
 21
476.6525
 31
0.0
  0
TEXT
  5
258
330
17
100
AcDbEntity
  8
TEXT
100
AcDbText
 10
772.8599999999999
 20
461.568222838256
 30
0.0
 40
2.0
  1
AILERON
 11
772.8599999999999
 21
461.568222838256
 31
0.0
100
AcDbText
  0
LINE
  5
259
330
17
100
AcDbEntity
  8
HIDDEN
100
AcDbLine
 10
499.125
 20
486.14470159005634
 30
0.0
 11
505.79499999999996
 21
486.14470159005634
 31
0.0
  0
LINE
  5
25A
330
17
100
AcDbEntity
  8
HIDDEN
100
AcDbLine
 10
505.79499999999996
 20
486.14470159005634
 30
0.0
 11
505.79499999999996
 21
489.3347015900564
 31
0.0
  0
LINE
  5
25B
330
17
100
AcDbEntity
  8
HIDDEN
100
AcDbLine
 10
505.79499999999996
 20
489.3347015900564
 30
0.0
 11
499.125
 21
489.3347015900564
 31
0.0
  0
LINE
  5
25C
330
17
100
AcDbEntity
  8
HIDDEN
100
AcDbLine
 10
499.125
 20
489.3347015900564
 30
0.0
 11
499.125
 21
486.14470159005634
 31
0.0
  0
TEXT
  5
25D
330
17
100
AcDbEntity
  8
TEXT
100
AcDbText
 10
492.46
 20
491.73970159005637
 30
0.0
 40
1.5
  1
FLAP SERVO P1
 11
492.46
 21
491.73970159005637
 31
0.0
100
AcDbText
  0
LINE
  5
25E
330
17
100
AcDbEntity
  8
HIDDEN
100
AcDbLine
 10
647.6049999999999
 20
485.97248601311315
 30
0.0
 11
654.275
 21
485.97248601311315
 31
0.0
  0
LINE
  5
25F
330
17
100
AcDbEntity
  8
HIDDEN
100
AcDbLine
 10
654.275
 20
485.97248601311315
 30
0.0
 11
654.275
 21
489.1624860131132
 31
0.0
  0
LINE
  5
260
330
17
100
AcDbEntity
  8
HIDDEN
100
AcDbLine
 10
654.275
 20
489.1624860131132
 30
0.0
 11
647.6049999999999
 21
489.1624860131132
 31
0.0
  0
LINE
  5
261
330
17
100
AcDbEntity
  8
HIDDEN
100
AcDbLine
 10
647.6049999999999
 20
489.1624860131132
 30
0.0
 11
647.6049999999999
 21
485.97248601311315
 31
0.0
  0
TEXT
  5
262
330
17
100
AcDbEntity
  8
TEXT
100
AcDbText
 10
640.9399999999999
 20
491.5674860131132
 30
0.0
 40
1.5
  1
FLAP SERVO P3
 11
640.9399999999999
 21
491.5674860131132
 31
0.0
100
AcDbText
  0
LINE
  5
263
330
17
100
AcDbEntity
  8
HIDDEN
100
AcDbLine
 10
731.5600000000001
 20
485.86820767936695
 30
0.0
 11
737.36
 21
485.86820767936695
 31
0.0
  0
LINE
  5
264
330
17
100
AcDbEntity
  8
HIDDEN
100
AcDbLine
 10
737.36
 20
485.86820767936695
 30
0.0
 11
737.36
 21
488.7682076793669
 31
0.0
  0
LINE
  5
265
330
17
100
AcDbEntity
  8
HIDDEN
100
AcDbLine
 10
737.36
 20
488.7682076793669
 30
0.0
 11
731.5600000000001
 21
488.7682076793669
 31
0.0
  0
LINE
  5
266
330
17
100
AcDbEntity
  8
HIDDEN
100
AcDbLine
 10
731.5600000000001
 20
488.7682076793669
 30
0.0
 11
731.5600000000001
 21
485.86820767936695
 31
0.0
  0
TEXT
  5
267
330
17
100
AcDbEntity
  8
TEXT
100
AcDbText
 10
724.46
 20
491.31820767936694
 30
0.0
 40
1.5
  1
AILERON SERVO P4
 11
724.46
 21
491.31820767936694
 31
0.0
100
AcDbText
  0
LINE
  5
268
330
17
100
AcDbEntity
  8
HIDDEN
100
AcDbLine
 10
805.8
 20
487.4169180104408
 30
0.0
 11
811.5999999999999
 21
487.4169180104408
 31
0.0
  0
LINE
  5
269
330
17
100
AcDbEntity
  8
HIDDEN
100
AcDbLine
 10
811.5999999999999
 20
487.4169180104408
 30
0.0
 11
811.5999999999999
 21
490.31691801044076
 31
0.0
  0
LINE
  5
26A
330
17
100
AcDbEntity
  8
HIDDEN
100
AcDbLine
 10
811.5999999999999
 20
490.31691801044076
 30
0.0
 11
805.8
 21
490.31691801044076
 31
0.0
  0
LINE
  5
26B
330
17
100
AcDbEntity
  8
HIDDEN
100
AcDbLine
 10
805.8
 20
490.31691801044076
 30
0.0
 11
805.8
 21
487.4169180104408
 31
0.0
  0
TEXT
  5
26C
330
17
100
AcDbEntity
  8
TEXT
100
AcDbText
 10
798.6999999999999
 20
492.86691801044077
 30
0.0
 40
1.5
  1
AILERON SERVO P5
 11
798.6999999999999
 21
492.86691801044077
 31
0.0
100
AcDbText
  0
LINE
  5
26D
330
17
100
AcDbEntity
  8
CENTERLINE
100
AcDbLine
 10
454.32
 20
515.0
 30
0.0
 11
454.32
 21
445.7
 31
0.0
  0
LINE
  5
26E
330
17
100
AcDbEntity
  8
CENTERLINE
100
AcDbLine
 10
465.34
 20
515.0
 30
0.0
 11
465.34
 21
445.7
 31
0.0
  0
TEXT
  5
26F
330
17
100
AcDbEntity
  8
TEXT
100
AcDbText
 10
116.0
 20
286.0
 30
0.0
 40
3.4
  1
FRONT VIEW — FULL SPAN POLYHEDRAL
 11
116.0
 21
286.0
 31
0.0
100
AcDbText
  0
LINE
  5
270
330
17
100
AcDbEntity
  8
OUTLINE
100
AcDbLine
 10
46.0
 20
252.38
 30
0.0
 11
83.12
 21
250.93
 31
0.0
  0
LINE
  5
271
330
17
100
AcDbEntity
  8
OUTLINE
100
AcDbLine
 10
83.12
 20
250.93
 30
0.0
 11
157.36
 21
248.61
 31
0.0
  0
LINE
  5
272
330
17
100
AcDbEntity
  8
OUTLINE
100
AcDbLine
 10
157.36
 20
248.61
 30
0.0
 11
231.60000000000002
 21
246.87
 31
0.0
  0
LINE
  5
273
330
17
100
AcDbEntity
  8
OUTLINE
100
AcDbLine
 10
231.60000000000002
 20
246.87
 30
0.0
 11
305.84000000000003
 21
246.0
 31
0.0
  0
LINE
  5
274
330
17
100
AcDbEntity
  8
OUTLINE
100
AcDbLine
 10
305.84000000000003
 20
246.0
 30
0.0
 11
380.08
 21
246.0
 31
0.0
  0
LINE
  5
275
330
17
100
AcDbEntity
  8
OUTLINE
100
AcDbLine
 10
380.08
 20
246.0
 30
0.0
 11
454.32
 21
246.0
 31
0.0
  0
LINE
  5
276
330
17
100
AcDbEntity
  8
OUTLINE
100
AcDbLine
 10
454.32
 20
246.0
 30
0.0
 11
465.34
 21
246.0
 31
0.0
  0
LINE
  5
277
330
17
100
AcDbEntity
  8
OUTLINE
100
AcDbLine
 10
465.34
 20
246.0
 30
0.0
 11
539.5799999999999
 21
246.0
 31
0.0
  0
LINE
  5
278
330
17
100
AcDbEntity
  8
OUTLINE
100
AcDbLine
 10
539.5799999999999
 20
246.0
 30
0.0
 11
613.8199999999999
 21
246.0
 31
0.0
  0
LINE
  5
279
330
17
100
AcDbEntity
  8
OUTLINE
100
AcDbLine
 10
613.8199999999999
 20
246.0
 30
0.0
 11
688.06
 21
246.87
 31
0.0
  0
LINE
  5
27A
330
17
100
AcDbEntity
  8
OUTLINE
100
AcDbLine
 10
688.06
 20
246.87
 30
0.0
 11
762.3
 21
248.61
 31
0.0
  0
LINE
  5
27B
330
17
100
AcDbEntity
  8
OUTLINE
100
AcDbLine
 10
762.3
 20
248.61
 30
0.0
 11
836.54
 21
250.93
 31
0.0
  0
LINE
  5
27C
330
17
100
AcDbEntity
  8
OUTLINE
100
AcDbLine
 10
836.54
 20
250.93
 30
0.0
 11
873.66
 21
252.38
 31
0.0
  0
LINE
  5
27D
330
17
100
AcDbEntity
  8
SECTION
100
AcDbLine
 10
465.34
 20
236.0
 30
0.0
 11
465.34
 21
254.0
 31
0.0
  0
TEXT
  5
27E
330
17
100
AcDbEntity
  8
TEXT
100
AcDbText
 10
467.34
 20
256.0
 30
0.0
 40
1.8
  1
0.0°
 11
467.34
 21
256.0
 31
0.0
100
AcDbText
  0
LINE
  5
27F
330
17
100
AcDbEntity
  8
SECTION
100
AcDbLine
 10
539.5799999999999
 20
236.0
 30
0.0
 11
539.5799999999999
 21
254.0
 31
0.0
  0
TEXT
  5
280
330
17
100
AcDbEntity
  8
TEXT
100
AcDbText
 10
541.5799999999999
 20
256.0
 30
0.0
 40
1.8
  1
0.0°
 11
541.5799999999999
 21
256.0
 31
0.0
100
AcDbText
  0
LINE
  5
281
330
17
100
AcDbEntity
  8
SECTION
100
AcDbLine
 10
380.08
 20
236.0
 30
0.0
 11
380.08
 21
254.0
 31
0.0
  0
LINE
  5
282
330
17
100
AcDbEntity
  8
SECTION
100
AcDbLine
 10
613.8199999999999
 20
236.0
 30
0.0
 11
613.8199999999999
 21
254.0
 31
0.0
  0
TEXT
  5
283
330
17
100
AcDbEntity
  8
TEXT
100
AcDbText
 10
615.8199999999999
 20
256.0
 30
0.0
 40
1.8
  1
1.0°
 11
615.8199999999999
 21
256.0
 31
0.0
100
AcDbText
  0
LINE
  5
284
330
17
100
AcDbEntity
  8
SECTION
100
AcDbLine
 10
305.84000000000003
 20
236.0
 30
0.0
 11
305.84000000000003
 21
254.0
 31
0.0
  0
LINE
  5
285
330
17
100
AcDbEntity
  8
SECTION
100
AcDbLine
 10
688.06
 20
236.0
 30
0.0
 11
688.06
 21
254.87
 31
0.0
  0
TEXT
  5
286
330
17
100
AcDbEntity
  8
TEXT
100
AcDbText
 10
690.06
 20
256.87
 30
0.0
 40
1.8
  1
2.0°
 11
690.06
 21
256.87
 31
0.0
100
AcDbText
  0
LINE
  5
287
330
17
100
AcDbEntity
  8
SECTION
100
AcDbLine
 10
231.60000000000002
 20
236.0
 30
0.0
 11
231.60000000000002
 21
254.87
 31
0.0
  0
LINE
  5
288
330
17
100
AcDbEntity
  8
SECTION
100
AcDbLine
 10
762.3
 20
236.0
 30
0.0
 11
762.3
 21
256.61
 31
0.0
  0
TEXT
  5
289
330
17
100
AcDbEntity
  8
TEXT
100
AcDbText
 10
764.3
 20
258.61
 30
0.0
 40
1.8
  1
3.5°
 11
764.3
 21
258.61
 31
0.0
100
AcDbText
  0
LINE
  5
28A
330
17
100
AcDbEntity
  8
SECTION
100
AcDbLine
 10
157.36
 20
236.0
 30
0.0
 11
157.36
 21
256.61
 31
0.0
  0
LINE
  5
28B
330
17
100
AcDbEntity
  8
SECTION
100
AcDbLine
 10
836.54
 20
236.0
 30
0.0
 11
836.54
 21
258.93
 31
0.0
  0
TEXT
  5
28C
330
17
100
AcDbEntity
  8
TEXT
100
AcDbText
 10
838.54
 20
260.93
 30
0.0
 40
1.8
  1
5.0°
 11
838.54
 21
260.93
 31
0.0
100
AcDbText
  0
LINE
  5
28D
330
17
100
AcDbEntity
  8
SECTION
100
AcDbLine
 10
83.12
 20
236.0
 30
0.0
 11
83.12
 21
258.93
 31
0.0
  0
LINE
  5
28E
330
17
100
AcDbEntity
  8
SECTION
100
AcDbLine
 10
873.66
 20
236.0
 30
0.0
 11
873.66
 21
260.38
 31
0.0
  0
LINE
  5
28F
330
17
100
AcDbEntity
  8
SECTION
100
AcDbLine
 10
46.0
 20
236.0
 30
0.0
 11
46.0
 21
260.38
 31
0.0
  0
TEXT
  5
290
330
17
100
AcDbEntity
  8
TEXT
100
AcDbText
 10
640.0
 20
286.0
 30
0.0
 40
3.4
  1
PROFILE DETAILS — ROOT / TIP AIRFOIL
 11
640.0
 21
286.0
 31
0.0
100
AcDbText
  0
LWPOLYLINE
  5
291
330
17
100
AcDbEntity
  8
OUTLINE
100
AcDbPolyline
 90
122
 70
1
 10
650.0
 20
250.0
 10
650.8216666666667
 20
250.1006263430683
 10
651.6433333333333
 20
250.20097687632472
 10
652.465
 20
250.30077654593285
 10
653.2866666666666
 20
250.3997518079353
 10
654.1083333333333
 20
250.4976313780186
 10
654.93
 20
250.5941469750847
 10
655.7516666666667
 20
250.68903405659074
 10
656.5733333333334
 20
250.78203254364183
 10
657.395
 20
250.87288753384922
 10
658.2166666666667
 20
250.96135
 10
659.0383333333333
 20
251.0471774726234
 10
659.86
 20
251.13013470458273
 10
660.6816666666666
 20
251.2099943158715
 10
661.5033333333333
 20
251.2865374168462
 10
662.325
 20
251.35955420818738
 10
663.1466666666666
 20
251.42884455594537
 10
663.9683333333334
 20
251.49421854009333
 10
664.79
 20
251.5554969750847
 10
665.6116666666667
 20
251.61251190098866
 10
666.4333333333333
 20
251.66510704385635
 10
667.255
 20
251.71313824405698
 10
668.0766666666667
 20
251.75647385140942
 10
668.8983333333333
 20
251.79499508602618
 10
669.72
 20
251.82859636388068
 10
670.5416666666666
 20
251.857185586206
 10
671.3633333333333
 20
251.88068439193088
 10
672.185
 20
251.89902837246228
 10
673.0066666666667
 20
251.9121672482246
 10
673.8283333333334
 20
251.9200650064726
 10
674.65
 20
251.9227
 10
675.4716666666667
 20
251.9200650064726
 10
676.2933333333333
 20
251.9121672482246
 10
677.115
 20
251.89902837246228
 10
677.9366666666666
 20
251.88068439193088
 10
678.7583333333333
 20
251.857185586206
 10
679.58
 20
251.82859636388068
 10
680.4016666666666
 20
251.79499508602618
 10
681.2233333333334
 20
251.75647385140942
 10
682.045
 20
251.71313824405698
 10
682.8666666666667
 20
251.66510704385635
 10
683.6883333333333
 20
251.61251190098866
 10
684.51
 20
251.5554969750847
 10
685.3316666666667
 20
251.49421854009333
 10
686.1533333333333
 20
251.42884455594537
 10
686.975
 20
251.35955420818738
 10
687.7966666666666
 20
251.2865374168462
 10
688.6183333333333
 20
251.2099943158715
 10
689.4399999999999
 20
251.13013470458273
 10
690.2616666666667
 20
251.0471774726234
 10
691.0833333333334
 20
250.96135
 10
691.905
 20
250.87288753384922
 10
692.7266666666667
 20
250.78203254364183
 10
693.5483333333333
 20
250.68903405659074
 10
694.37
 20
250.5941469750847
 10
695.1916666666667
 20
250.4976313780186
 10
696.0133333333333
 20
250.3997518079353
 10
696.835
 20
250.30077654593285
 10
697.6566666666666
 20
250.20097687632472
 10
698.4783333333334
 20
250.1006263430683
 10
699.3
 20
250.0
 10
699.3
 20
250.0
 10
698.4783333333332
 20
249.8993736569317
 10
697.6566666666666
 20
249.79902312367528
 10
696.8349999999999
 20
249.69922345406715
 10
696.0133333333333
 20
249.6002481920647
 10
695.1916666666666
 20
249.5023686219814
 10
694.37
 20
249.4058530249153
 10
693.5483333333333
 20
249.31096594340926
 10
692.7266666666666
 20
249.21796745635817
 10
691.905
 20
249.12711246615078
 10
691.0833333333333
 20
249.03865
 10
690.2616666666667
 20
248.9528225273766
 10
689.4399999999999
 20
248.86986529541727
 10
688.6183333333333
 20
248.7900056841285
 10
687.7966666666666
 20
248.7134625831538
 10
686.9749999999999
 20
248.64044579181262
 10
686.1533333333333
 20
248.57115544405463
 10
685.3316666666666
 20
248.50578145990667
 10
684.51
 20
248.4445030249153
 10
683.6883333333333
 20
248.38748809901134
 10
682.8666666666667
 20
248.33489295614365
 10
682.045
 20
248.28686175594302
 10
681.2233333333332
 20
248.24352614859058
 10
680.4016666666666
 20
248.20500491397382
 10
679.5799999999999
 20
248.17140363611932
 10
678.7583333333333
 20
248.142814413794
 10
677.9366666666666
 20
248.11931560806912
 10
677.115
 20
248.10097162753772
 10
676.2933333333333
 20
248.0878327517754
 10
675.4716666666666
 20
248.0799349935274
 10
674.65
 20
248.0773
 10
673.8283333333333
 20
248.0799349935274
 10
673.0066666666667
 20
248.0878327517754
 10
672.185
 20
248.10097162753772
 10
671.3633333333333
 20
248.11931560806912
 10
670.5416666666666
 20
248.142814413794
 10
669.7199999999999
 20
248.17140363611932
 10
668.8983333333333
 20
248.20500491397382
 10
668.0766666666666
 20
248.24352614859058
 10
667.255
 20
248.28686175594302
 10
666.4333333333333
 20
248.33489295614365
 10
665.6116666666667
 20
248.38748809901134
 10
664.79
 20
248.4445030249153
 10
663.9683333333332
 20
248.50578145990667
 10
663.1466666666666
 20
248.57115544405463
 10
662.3249999999999
 20
248.64044579181262
 10
661.5033333333333
 20
248.7134625831538
 10
660.6816666666666
 20
248.7900056841285
 10
659.86
 20
248.86986529541727
 10
659.0383333333333
 20
248.9528225273766
 10
658.2166666666666
 20
249.03865
 10
657.395
 20
249.12711246615078
 10
656.5733333333333
 20
249.21796745635817
 10
655.7516666666667
 20
249.31096594340926
 10
654.93
 20
249.4058530249153
 10
654.1083333333332
 20
249.5023686219814
 10
653.2866666666666
 20
249.6002481920647
 10
652.4649999999999
 20
249.69922345406715
 10
651.6433333333333
 20
249.79902312367528
 10
650.8216666666666
 20
249.8993736569317
 10
650.0
 20
250.0
  0
LWPOLYLINE
  5
292
330
17
100
AcDbEntity
  8
OUTLINE
100
AcDbPolyline
 90
122
 70
1
 10
650.0
 20
195.0
 10
650.4108333333334
 20
195.03741235832027
 10
650.8216666666667
 20
195.07472217196687
 10
651.2325
 20
195.11182717733402
 10
651.6433333333333
 20
195.14862567218108
 10
652.0541666666667
 20
195.18501679439154
 10
652.465
 20
195.22090079842894
 10
652.8758333333334
 20
195.25617932873246
 10
653.2866666666666
 20
195.29075568930273
 10
653.6975
 20
195.32453510873881
 10
654.1083333333333
 20
195.357425
 10
654.5191666666667
 20
195.3893352141805
 10
654.93
 20
195.4201782876013
 10
655.3408333333333
 20
195.44986968154197
 10
655.7516666666667
 20
195.47832801395563
 10
656.1625
 20
195.5054752825312
 10
656.5733333333334
 20
195.53123707849252
 10
656.9841666666666
 20
195.55554279054752
 10
657.395
 20
195.57832579842892
 10
657.8058333333333
 20
195.59952365549577
 10
658.2166666666667
 20
195.6190782598953
 10
658.6275
 20
195.63693601381607
 10
659.0383333333333
 20
195.65304797039582
 10
659.4491666666667
 20
195.6673699678815
 10
659.86
 20
195.67986275067358
 10
660.2708333333334
 20
195.69049207692274
 10
660.6816666666666
 20
195.69922881238455
 10
661.0925
 20
195.70604901027443
 10
661.5033333333333
 20
195.71093397690402
 10
661.9141666666667
 20
195.71387032291932
 10
662.325
 20
195.71485
 10
662.7358333333333
 20
195.71387032291932
 10
663.1466666666666
 20
195.71093397690402
 10
663.5575
 20
195.70604901027443
 10
663.9683333333334
 20
195.69922881238455
 10
664.3791666666667
 20
195.69049207692274
 10
664.79
 20
195.67986275067358
 10
665.2008333333333
 20
195.6673699678815
 10
665.6116666666667
 20
195.65304797039582
 10
666.0225
 20
195.63693601381607
 10
666.4333333333333
 20
195.6190782598953
 10
666.8441666666666
 20
195.59952365549577
 10
667.255
 20
195.57832579842892
 10
667.6658333333334
 20
195.55554279054752
 10
668.0766666666667
 20
195.53123707849252
 10
668.4875
 20
195.5054752825312
 10
668.8983333333333
 20
195.47832801395563
 10
669.3091666666667
 20
195.44986968154197
 10
669.72
 20
195.4201782876013
 10
670.1308333333334
 20
195.3893352141805
 10
670.5416666666666
 20
195.357425
 10
670.9525
 20
195.32453510873881
 10
671.3633333333333
 20
195.29075568930273
 10
671.7741666666667
 20
195.25617932873246
 10
672.185
 20
195.22090079842894
 10
672.5958333333333
 20
195.18501679439154
 10
673.0066666666667
 20
195.14862567218108
 10
673.4175
 20
195.11182717733402
 10
673.8283333333334
 20
195.07472217196687
 10
674.2391666666666
 20
195.03741235832027
 10
674.65
 20
195.0
 10
674.6500000000001
 20
195.0
 10
674.2391666666667
 20
194.96258764167973
 10
673.8283333333334
 20
194.92527782803313
 10
673.4175000000001
 20
194.88817282266598
 10
673.0066666666668
 20
194.85137432781892
 10
672.5958333333334
 20
194.81498320560846
 10
672.1850000000001
 20
194.77909920157106
 10
671.7741666666667
 20
194.74382067126754
 10
671.3633333333335
 20
194.70924431069727
 10
670.9525000000001
 20
194.67546489126119
 10
670.5416666666667
 20
194.642575
 10
670.1308333333334
 20
194.6106647858195
 10
669.7200000000001
 20
194.5798217123987
 10
669.3091666666668
 20
194.55013031845803
 10
668.8983333333334
 20
194.52167198604437
 10
668.4875000000001
 20
194.4945247174688
 10
668.0766666666667
 20
194.46876292150748
 10
667.6658333333335
 20
194.44445720945248
 10
667.2550000000001
 20
194.42167420157108
 10
666.8441666666668
 20
194.40047634450423
 10
666.4333333333334
 20
194.3809217401047
 10
666.0225
 20
194.36306398618393
 10
665.6116666666668
 20
194.34695202960418
 10
665.2008333333334
 20
194.3326300321185
 10
664.7900000000001
 20
194.32013724932642
 10
664.3791666666667
 20
194.30950792307726
 10
663.9683333333335
 20
194.30077118761545
 10
663.5575000000001
 20
194.29395098972557
 10
663.1466666666668
 20
194.28906602309598
 10
662.7358333333334
 20
194.28612967708068
 10
662.325
 20
194.28515
 10
661.9141666666668
 20
194.28612967708068
 10
661.5033333333334
 20
194.28906602309598
 10
661.0925000000001
 20
194.29395098972557
 10
660.6816666666667
 20
194.30077118761545
 10
660.2708333333334
 20
194.30950792307726
 10
659.8600000000001
 20
194.32013724932642
 10
659.4491666666668
 20
194.3326300321185
 10
659.0383333333334
 20
194.34695202960418
 10
658.6275
 20
194.36306398618393
 10
658.2166666666668
 20
194.3809217401047
 10
657.8058333333335
 20
194.40047634450423
 10
657.3950000000001
 20
194.42167420157108
 10
656.9841666666667
 20
194.44445720945248
 10
656.5733333333334
 20
194.46876292150748
 10
656.1625000000001
 20
194.4945247174688
 10
655.7516666666668
 20
194.52167198604437
 10
655.3408333333334
 20
194.55013031845803
 10
654.9300000000001
 20
194.5798217123987
 10
654.5191666666667
 20
194.6106647858195
 10
654.1083333333335
 20
194.642575
 10
653.6975000000001
 20
194.67546489126119
 10
653.2866666666667
 20
194.70924431069727
 10
652.8758333333334
 20
194.74382067126754
 10
652.4650000000001
 20
194.77909920157106
 10
652.0541666666668
 20
194.81498320560846
 10
651.6433333333334
 20
194.85137432781892
 10
651.2325000000001
 20
194.88817282266598
 10
650.8216666666667
 20
194.92527782803313
 10
650.4108333333335
 20
194.96258764167973
 10
650.0000000000001
 20
195.0
  0
TEXT
  5
293
330
17
100
AcDbEntity
  8
TEXT
100
AcDbText
 10
660.0
 20
264.0
 30
0.0
 40
2.1
  1
ROOT PROFILE
 11
660.0
 21
264.0
 31
0.0
100
AcDbText
  0
TEXT
  5
294
330
17
100
AcDbEntity
  8
TEXT
100
AcDbText
 10
660.0
 20
209.0
 30
0.0
 40
2.1
  1
TIP PROFILE
 11
660.0
 21
209.0
 31
0.0
100
AcDbText
  0
LINE
  5
295
330
17
100
AcDbEntity
  8
SPAR
100
AcDbLine
 10
662.325
 20
244.0773
 30
0.0
 11
662.325
 21
255.9227
 31
0.0
  0
LINE
  5
296
330
17
100
AcDbEntity
  8
SPAR
100
AcDbLine
 10
679.58
 20
244.0773
 30
0.0
 11
679.58
 21
255.9227
 31
0.0
  0
LINE
  5
297
330
17
100
AcDbEntity
  8
CENTERLINE
100
AcDbLine
 10
685.496
 20
244.0773
 30
0.0
 11
685.496
 21
255.9227
 31
0.0
  0
DIMENSION
  5
298
330
17
100
AcDbEntity
  8
DIMENSION
100
AcDbDimension
280
0
  2
*D1
  3
EZDXF
 10
46.0
 20
105.0
 30
0.0
 11
459.83
 21
105.225
 31
0.0
 70
32
 71
5
  1
<>
100
AcDbAlignedDimension
 13
46.0
 23
113.0
 33
0.0
 14
873.66
 24
113.0
 34
0.0
 50
0.0
100
AcDbRotatedDimension
  0
DIMENSION
  5
2A7
330
17
100
AcDbEntity
  8
DIMENSION
100
AcDbDimension
280
0
  2
*D2
  3
EZDXF
 10
58.0
 20
505.0
 30
0.0
 11
58.225
 21
480.35
 31
0.0
 70
32
 71
5
  1
<>
100
AcDbAlignedDimension
 13
66.0
 23
505.0
 33
0.0
 14
66.0
 24
455.7
 34
0.0
 50
90.0
100
AcDbRotatedDimension
  0
DIMENSION
  5
2B6
330
17
100
AcDbEntity
  8
DIMENSION
100
AcDbDimension
280
0
  2
*D3
  3
EZDXF
 10
454.32
 20
523.0
 30
0.0
 11
459.83
 21
523.225
 31
0.0
 70
32
 71
5
  1
<>
100
AcDbAlignedDimension
 13
454.32
 23
515.0
 33
0.0
 14
465.34
 24
515.0
 34
0.0
 50
0.0
100
AcDbRotatedDimension
  0
TEXT
  5
2C5
330
17
100
AcDbEntity
  8
TEXT
100
AcDbText
 10
95.0
 20
72.0
 30
0.0
 40
2.1
  1
Panel hierarchy retained; this is the parent sheet before panel generation.
 11
95.0
 21
72.0
 31
0.0
100
AcDbText
  0
TEXT
  5
2C6
330
17
100
AcDbEntity
  8
TEXT
100
AcDbText
 10
95.0
 20
58.0
 30
0.0
 40
2.0
  1
Right half shows servo envelopes. Left half remains clean for planform review.
 11
95.0
 21
58.0
 31
0.0
100
AcDbText
  0
TEXT
  5
2C7
330
17
100
AcDbEntity
  8
TEXT
100
AcDbText
 10
180.0
 20
180.0
 30
0.0
 40
2.0
  1
Candidate span 2816 | root chord 170 | tip chord 85 | superelliptic taper
 11
180.0
 21
180.0
 31
0.0
100
AcDbText
  0
TEXT
  5
2C8
330
17
100
AcDbEntity
  8
TEXT
100
AcDbText
 10
180.0
 20
162.0
 30
0.0
 40
2.0
  1
Area ~43.7 dm^2 | Aspect ratio ~18.2 | flap P1-P3 | aileron P4-P6
 11
180.0
 21
162.0
 31
0.0
100
AcDbText
  0
TEXT
  5
2C9
330
17
100
AcDbEntity
  8
TEXT
100
AcDbText
 10
180.0
 20
144.0
 30
0.0
 40
2.0
  1
Root gap is fuselage packaging space, not an aero dead zone.
 11
180.0
 21
144.0
 31
0.0
100
AcDbText
  0
TEXT
  5
2CA
330
17
100
AcDbEntity
  8
TEXT
100
AcDbText
 10
610.0
 20
505.0
 30
0.0
 40
2.8
  1
ROOT DETAIL — CENTER GAP / SPAR / SYSTEMS
 11
610.0
 21
505.0
 31
0.0
100
AcDbText
  0
LINE
  5
2CB
330
17
100
AcDbEntity
  8
OUTLINE
100
AcDbLine
 10
620.0
 20
485.0
 30
0.0
 11
620.0
 21
423.375
 31
0.0
  0
LINE
  5
2CC
330
17
100
AcDbEntity
  8
OUTLINE
100
AcDbLine
 10
703.775
 20
485.0
 30
0.0
 11
703.775
 21
423.375
 31
0.0
  0
LINE
  5
2CD
330
17
100
AcDbEntity
  8
SPAR
100
AcDbLine
 10
592.0
 20
469.59375
 30
0.0
 11
620.0
 21
469.59375
 31
0.0
  0
LINE
  5
2CE
330
17
100
AcDbEntity
  8
SPAR
100
AcDbLine
 10
703.775
 20
469.59375
 30
0.0
 11
731.775
 21
469.59375
 31
0.0
  0
TEXT
  5
2CF
330
17
100
AcDbEntity
  8
TEXT
100
AcDbText
 10
735.775
 20
468.59375
 30
0.0
 40
1.6
  1
8mm MAIN
 11
735.775
 21
468.59375
 31
0.0
100
AcDbText
  0
LINE
  5
2D0
330
17
100
AcDbEntity
  8
SPAR
100
AcDbLine
 10
592.0
 20
448.025
 30
0.0
 11
620.0
 21
448.025
 31
0.0
  0
LINE
  5
2D1
330
17
100
AcDbEntity
  8
SPAR
100
AcDbLine
 10
703.775
 20
448.025
 30
0.0
 11
731.775
 21
448.025
 31
0.0
  0
TEXT
  5
2D2
330
17
100
AcDbEntity
  8
TEXT
100
AcDbText
 10
735.775
 20
447.025
 30
0.0
 40
1.6
  1
REAR 5x3
 11
735.775
 21
447.025
 31
0.0
100
AcDbText
  0
LINE
  5
2D3
330
17
100
AcDbEntity
  8
CENTERLINE
100
AcDbLine
 10
592.0
 20
440.63
 30
0.0
 11
620.0
 21
440.63
 31
0.0
  0
LINE
  5
2D4
330
17
100
AcDbEntity
  8
CENTERLINE
100
AcDbLine
 10
703.775
 20
440.63
 30
0.0
 11
731.775
 21
440.63
 31
0.0
  0
TEXT
  5
2D5
330
17
100
AcDbEntity
  8
TEXT
100
AcDbText
 10
735.775
 20
439.63
 30
0.0
 40
1.6
  1
HINGE
 11
735.775
 21
439.63
 31
0.0
100
AcDbText
  0
LINE
  5
2D6
330
17
100
AcDbEntity
  8
HIDDEN
100
AcDbLine
 10
608.0
 20
453.0
 30
0.0
 11
622.0
 21
453.0
 31
0.0
  0
LINE
  5
2D7
330
17
100
AcDbEntity
  8
HIDDEN
100
AcDbLine
 10
622.0
 20
453.0
 30
0.0
 11
622.0
 21
467.0
 31
0.0
  0
LINE
  5
2D8
330
17
100
AcDbEntity
  8
HIDDEN
100
AcDbLine
 10
622.0
 20
467.0
 30
0.0
 11
608.0
 21
467.0
 31
0.0
  0
LINE
  5
2D9
330
17
100
AcDbEntity
  8
HIDDEN
100
AcDbLine
 10
608.0
 20
467.0
 30
0.0
 11
608.0
 21
453.0
 31
0.0
  0
LINE
  5
2DA
330
17
100
AcDbEntity
  8
HIDDEN
100
AcDbLine
 10
701.775
 20
453.0
 30
0.0
 11
715.775
 21
453.0
 31
0.0
  0
LINE
  5
2DB
330
17
100
AcDbEntity
  8
HIDDEN
100
AcDbLine
 10
715.775
 20
453.0
 30
0.0
 11
715.775
 21
467.0
 31
0.0
  0
LINE
  5
2DC
330
17
100
AcDbEntity
  8
HIDDEN
100
AcDbLine
 10
715.775
 20
467.0
 30
0.0
 11
701.775
 21
467.0
 31
0.0
  0
LINE
  5
2DD
330
17
100
AcDbEntity
  8
HIDDEN
100
AcDbLine
 10
701.775
 20
467.0
 30
0.0
 11
701.775
 21
453.0
 31
0.0
  0
TEXT
  5
2DE
330
17
100
AcDbEntity
  8
TEXT
100
AcDbText
 10
727.775
 20
454.0
 30
0.0
 40
1.5
  1
ROOT WIRING
 11
727.775
 21
454.0
 31
0.0
100
AcDbText
  0
TEXT
  5
2DF
330
17
100
AcDbEntity
  8
TEXT
100
AcDbText
 10
727.775
 20
440.0
 30
0.0
 40
1.5
  1
ANTI-CRUSH / BOLT PAD
 11
727.775
 21
440.0
 31
0.0
100
AcDbText
  0
ENDSEC
  0
SECTION
  2
OBJECTS
  0
DICTIONARY
  5
A
330
0
100
AcDbDictionary
281
1
  3
ACAD_COLOR
350
B
  3
ACAD_GROUP
350
C
  3
ACAD_LAYOUT
350
D
  3
ACAD_MATERIAL
350
E
  3
ACAD_MLEADERSTYLE
350
F
  3
ACAD_MLINESTYLE
350
10
  3
ACAD_PLOTSETTINGS
350
11
  3
ACAD_PLOTSTYLENAME
350
12
  3
ACAD_SCALELIST
350
14
  3
ACAD_TABLESTYLE
350
15
  3
ACAD_VISUALSTYLE
350
16
  3
EZDXF_META
350
2D
  0
DICTIONARY
  5
B
330
A
100
AcDbDictionary
281
1
  0
DICTIONARY
  5
C
330
A
100
AcDbDictionary
281
1
  0
DICTIONARY
  5
D
330
A
100
AcDbDictionary
281
1
  3
Model
350
1A
  3
Layout1
350
1E
  0
DICTIONARY
  5
E
330
A
100
AcDbDictionary
281
1
  3
ByBlock
350
1F
  3
ByLayer
350
20
  3
Global
350
21
  0
DICTIONARY
  5
F
330
A
100
AcDbDictionary
281
1
  3
Standard
350
2C
  0
DICTIONARY
  5
10
330
A
100
AcDbDictionary
281
1
  3
Standard
350
22
  0
DICTIONARY
  5
11
330
A
100
AcDbDictionary
281
1
  0
ACDBDICTIONARYWDFLT
  5
12
330
A
100
AcDbDictionary
281
1
  3
Normal
350
13
100
AcDbDictionaryWithDefault
340
13
  0
ACDBPLACEHOLDER
  5
13
330
12
  0
DICTIONARY
  5
14
330
A
100
AcDbDictionary
281
1
  0
DICTIONARY
  5
15
330
A
100
AcDbDictionary
281
1
  0
DICTIONARY
  5
16
330
A
100
AcDbDictionary
281
1
  3
2dWireframe
350
5A
  3
Basic
350
5B
  3
Brighten
350
5C
  3
ColorChange
350
5D
  3
Conceptual
350
5E
  3
Dim
350
5F
  3
EdgeColorOff
350
60
  3
Facepattern
350
61
  3
Flat
350
62
  3
FlatWithEdges
350
63
  3
Gouraud
350
64
  3
GouraudWithEdges
350
65
  3
Hidden
350
66
  3
JitterOff
350
67
  3
Linepattern
350
68
  3
Modeling
350
69
  3
OverhangOff
350
6A
  3
Realistic
350
6B
  3
Shaded
350
6C
  3
Shaded with edges
350
6D
  3
Shades of Gray
350
6E
  3
Sketchy
350
6F
  3
Thicken
350
70
  3
Wireframe
350
71
  3
X-Ray
350
72
  0
LAYOUT
  5
1A
330
D
100
AcDbPlotSettings
  1

  4
A3
  6

 40
7.5
 41
20.0
 42
7.5
 43
20.0
 44
420.0
 45
297.0
 46
0.0
 47
0.0
 48
0.0
 49
0.0
140
0.0
141
0.0
142
1.0
143
1.0
 70
1024
 72
1
 73
0
 74
5
  7

 75
16
 76
0
 77
2
 78
300
147
1.0
148
0.0
149
0.0
100
AcDbLayout
  1
Model
 70
1
 71
0
 10
0.0
 20
0.0
 11
420.0
 21
297.0
 12
0.0
 22
0.0
 32
0.0
 14
1e+20
 24
1e+20
 34
1e+20
 15
-1e+20
 25
-1e+20
 35
-1e+20
146
0.0
 13
0.0
 23
0.0
 33
0.0
 16
1.0
 26
0.0
 36
0.0
 17
0.0
 27
1.0
 37
0.0
 76
1
330
17
  0
LAYOUT
  5
1E
330
D
100
AcDbPlotSettings
  1

  4
A3
  6

 40
7.5
 41
20.0
 42
7.5
 43
20.0
 44
420.0
 45
297.0
 46
0.0
 47
0.0
 48
0.0
 49
0.0
140
0.0
141
0.0
142
1.0
143
1.0
 70
0
 72
1
 73
0
 74
5
  7

 75
16
 76
0
 77
2
 78
300
147
1.0
148
0.0
149
0.0
100
AcDbLayout
  1
Layout1
 70
1
 71
1
 10
0.0
 20
0.0
 11
420.0
 21
297.0
 12
0.0
 22
0.0
 32
0.0
 14
1e+20
 24
1e+20
 34
1e+20
 15
-1e+20
 25
-1e+20
 35
-1e+20
146
0.0
 13
0.0
 23
0.0
 33
0.0
 16
1.0
 26
0.0
 36
0.0
 17
0.0
 27
1.0
 37
0.0
 76
1
330
1B
  0
MATERIAL
  5
1F
102
{ACAD_REACTORS
330
E
102
}
330
E
100
AcDbMaterial
  1
ByBlock
  2

 70
0
 40
1.0
 71
1
 41
1.0
 91
-1023410177
 42
1.0
 72
1
  3

 73
1
 74
1
 75
1
 44
0.5
 73
0
 45
1.0
 46
1.0
 77
1
  4

 78
1
 79
1
170
1
 48
1.0
171
1
  6

172
1
173
1
174
1
140
1.0
141
1.0
175
1
  7

176
1
177
1
178
1
143
1.0
179
1
  8

270
1
271
1
272
1
145
1.0
146
1.0
273
1
  9

274
1
275
1
276
1
 42
1.0
 72
1
  3

 73
1
 74
1
 75
1
 94
63
  0
MATERIAL
  5
20
102
{ACAD_REACTORS
330
E
102
}
330
E
100
AcDbMaterial
  1
ByLayer
  2

 70
0
 40
1.0
 71
1
 41
1.0
 91
-1023410177
 42
1.0
 72
1
  3

 73
1
 74
1
 75
1
 44
0.5
 73
0
 45
1.0
 46
1.0
 77
1
  4

 78
1
 79
1
170
1
 48
1.0
171
1
  6

172
1
173
1
174
1
140
1.0
141
1.0
175
1
  7

176
1
177
1
178
1
143
1.0
179
1
  8

270
1
271
1
272
1
145
1.0
146
1.0
273
1
  9

274
1
275
1
276
1
 42
1.0
 72
1
  3

 73
1
 74
1
 75
1
 94
63
  0
MATERIAL
  5
21
102
{ACAD_REACTORS
330
E
102
}
330
E
100
AcDbMaterial
  1
Global
  2

 70
0
 40
1.0
 71
1
 41
1.0
 91
-1023410177
 42
1.0
 72
1
  3

 73
1
 74
1
 75
1
 44
0.5
 73
0
 45
1.0
 46
1.0
 77
1
  4

 78
1
 79
1
170
1
 48
1.0
171
1
  6

172
1
173
1
174
1
140
1.0
141
1.0
175
1
  7

176
1
177
1
178
1
143
1.0
179
1
  8

270
1
271
1
272
1
145
1.0
146
1.0
273
1
  9

274
1
275
1
276
1
 42
1.0
 72
1
  3

 73
1
 74
1
 75
1
 94
63
  0
MLINESTYLE
  5
22
102
{ACAD_REACTORS
330
10
102
}
330
10
100
AcDbMlineStyle
  2
Standard
 70
0
  3

 62
256
 51
90.0
 52
90.0
 71
2
 49
0.5
 62
256
  6
BYLAYER
 49
-0.5
 62
256
  6
BYLAYER
  0
MLEADERSTYLE
  5
2C
102
{ACAD_REACTORS
330
F
102
}
330
F
100
AcDbMLeaderStyle
179
2
170
2
171
1
172
0
 90
2
 40
0.0
 41
0.0
173
1
 91
-1056964608
 92
-2
290
1
 42
2.0
291
1
 43
8.0
  3
Standard
 44
4.0
300

342
29
174
1
175
1
176
0
178
1
 93
-1056964608
 45
4.0
292
0
297
0
 46
4.0
 94
-1056964608
 47
1.0
 49
1.0
140
1.0
294
1
141
0.0
177
0
142
1.0
295
0
296
0
143
3.75
271
0
272
9
273
9
  0
DICTIONARY
  5
2D
330
A
100
AcDbDictionary
280
1
281
1
  3
CREATED_BY_EZDXF
350
2E
  3
WRITTEN_BY_EZDXF
350
2E2
  0
DICTIONARYVAR
  5
2E
330
2D
100
DictionaryVariables
280
0
  1
1.4.3 @ 2026-04-02T11:56:55.021362+00:00
  0
VISUALSTYLE
  5
5A
102
{ACAD_REACTORS
330
16
102
}
330
16
100
AcDbVisualStyle
  2
2dWireframe
 70
4
 90
0
 40
0.6
 62
7
290
0
291
0
  0
VISUALSTYLE
  5
5B
102
{ACAD_REACTORS
330
16
102
}
330
16
100
AcDbVisualStyle
  2
Basic
 70
7
 90
1
 40
0.6
 62
7
290
0
291
1
  0
VISUALSTYLE
  5
5C
102
{ACAD_REACTORS
330
16
102
}
330
16
100
AcDbVisualStyle
  2
Brighten
 70
12
 90
2
 40
0.6
 62
7
290
0
291
1
  0
VISUALSTYLE
  5
5D
102
{ACAD_REACTORS
330
16
102
}
330
16
100
AcDbVisualStyle
  2
ColorChange
 70
16
 90
2
 40
0.6
 62
8
290
0
291
1
  0
VISUALSTYLE
  5
5E
102
{ACAD_REACTORS
330
16
102
}
330
16
100
AcDbVisualStyle
  2
Conceptual
 70
9
 90
3
 40
0.6
 62
7
290
0
291
0
  0
VISUALSTYLE
  5
5F
102
{ACAD_REACTORS
330
16
102
}
330
16
100
AcDbVisualStyle
  2
Dim
 70
11
 90
2
 40
0.6
 62
7
290
0
291
1
  0
VISUALSTYLE
  5
60
102
{ACAD_REACTORS
330
16
102
}
330
16
100
AcDbVisualStyle
  2
EdgeColorOff
 70
22
 90
2
 40
0.6
 62
7
290
0
291
1
  0
VISUALSTYLE
  5
61
102
{ACAD_REACTORS
330
16
102
}
330
16
100
AcDbVisualStyle
  2
Facepattern
 70
15
 90
2
 40
0.6
 62
7
290
0
291
1
  0
VISUALSTYLE
  5
62
102
{ACAD_REACTORS
330
16
102
}
330
16
100
AcDbVisualStyle
  2
Flat
 70
0
 90
2
 40
0.6
 62
7
290
0
291
1
  0
VISUALSTYLE
  5
63
102
{ACAD_REACTORS
330
16
102
}
330
16
100
AcDbVisualStyle
  2
FlatWithEdges
 70
1
 90
2
 40
0.6
 62
7
290
0
291
1
  0
VISUALSTYLE
  5
64
102
{ACAD_REACTORS
330
16
102
}
330
16
100
AcDbVisualStyle
  2
Gouraud
 70
2
 90
2
 40
0.6
 62
7
290
0
291
1
  0
VISUALSTYLE
  5
65
102
{ACAD_REACTORS
330
16
102
}
330
16
100
AcDbVisualStyle
  2
GouraudWithEdges
 70
3
 90
2
 40
0.6
 62
7
290
0
291
1
  0
VISUALSTYLE
  5
66
102
{ACAD_REACTORS
330
16
102
}
330
16
100
AcDbVisualStyle
  2
Hidden
 70
6
 90
1
 40
0.6
 62
7
290
0
291
0
  0
VISUALSTYLE
  5
67
102
{ACAD_REACTORS
330
16
102
}
330
16
100
AcDbVisualStyle
  2
JitterOff
 70
20
 90
2
 40
0.6
 62
7
290
0
291
1
  0
VISUALSTYLE
  5
68
102
{ACAD_REACTORS
330
16
102
}
330
16
100
AcDbVisualStyle
  2
Linepattern
 70
14
 90
2
 40
0.6
 62
7
290
0
291
1
  0
VISUALSTYLE
  5
69
102
{ACAD_REACTORS
330
16
102
}
330
16
100
AcDbVisualStyle
  2
Modeling
 70
10
 90
2
 40
0.6
 62
7
290
0
291
0
  0
VISUALSTYLE
  5
6A
102
{ACAD_REACTORS
330
16
102
}
330
16
100
AcDbVisualStyle
  2
OverhangOff
 70
21
 90
2
 40
0.6
 62
7
290
0
291
1
  0
VISUALSTYLE
  5
6B
102
{ACAD_REACTORS
330
16
102
}
330
16
100
AcDbVisualStyle
  2
Realistic
 70
8
 90
2
 40
0.6
 62
7
290
0
291
0
  0
VISUALSTYLE
  5
6C
102
{ACAD_REACTORS
330
16
102
}
330
16
100
AcDbVisualStyle
  2
Shaded
 70
27
 90
2
 40
0.6
 62
7
290
0
291
0
  0
VISUALSTYLE
  5
6D
102
{ACAD_REACTORS
330
16
102
}
330
16
100
AcDbVisualStyle
  2
Shaded with edges
 70
26
 90
2
 40
0.6
 62
7
290
0
291
0
  0
VISUALSTYLE
  5
6E
102
{ACAD_REACTORS
330
16
102
}
330
16
100
AcDbVisualStyle
  2
Shades of Gray
 70
23
 90
2
 40
0.6
 62
7
290
0
291
0
  0
VISUALSTYLE
  5
6F
102
{ACAD_REACTORS
330
16
102
}
330
16
100
AcDbVisualStyle
  2
Sketchy
 70
24
 90
1
 40
0.6
 62
7
290
0
291
0
  0
VISUALSTYLE
  5
70
102
{ACAD_REACTORS
330
16
102
}
330
16
100
AcDbVisualStyle
  2
Thicken
 70
13
 90
2
 40
0.6
 62
7
290
0
291
1
  0
VISUALSTYLE
  5
71
102
{ACAD_REACTORS
330
16
102
}
330
16
100
AcDbVisualStyle
  2
Wireframe
 70
5
 90
0
 40
0.6
 62
7
290
0
291
0
  0
VISUALSTYLE
  5
72
102
{ACAD_REACTORS
330
16
102
}
330
16
100
AcDbVisualStyle
  2
X-Ray
 70
25
 90
2
 40
0.5
 62
7
290
0
291
0
  0
DICTIONARYVAR
  5
2E2
330
2D
100
DictionaryVariables
280
0
  1
1.4.3 @ 2026-04-02T11:56:55.043875+00:00
  0
ENDSEC
  0
EOF
