  0
SECTION
  2
HEADER
  9
$ACADVER
  1
AC1024
  9
$ACADMAINTVER
 70
6
  9
$DWGCODEPAGE
  3
ANSI_1252
  9
$LASTSAVEDBY
  1
ezdxf
  9
$INSBASE
 10
0.0
 20
0.0
 30
0.0
  9
$EXTMIN
 10
1e+20
 20
1e+20
 30
1e+20
  9
$EXTMAX
 10
-1e+20
 20
-1e+20
 30
-1e+20
  9
$LIMMIN
 10
0.0
 20
0.0
  9
$LIMMAX
 10
420.0
 20
297.0
  9
$ORTHOMODE
 70
0
  9
$REGENMODE
 70
1
  9
$FILLMODE
 70
1
  9
$QTEXTMODE
 70
0
  9
$MIRRTEXT
 70
1
  9
$LTSCALE
 40
1.0
  9
$ATTMODE
 70
1
  9
$TEXTSIZE
 40
2.5
  9
$TRACEWID
 40
1.0
  9
$TEXTSTYLE
  7
OpenSans
  9
$CLAYER
  8
0
  9
$CELTYPE
  6
ByLayer
  9
$CECOLOR
 62
256
  9
$CELTSCALE
 40
1.0
  9
$DISPSILH
 70
0
  9
$DIMSCALE
 40
1.0
  9
$DIMASZ
 40
0.175
  9
$DIMEXO
 40
0.125
  9
$DIMDLI
 40
3.75
  9
$DIMRND
 40
0.0
  9
$DIMDLE
 40
0.0
  9
$DIMEXE
 40
0.375
  9
$DIMTP
 40
0.0
  9
$DIMTM
 40
0.0
  9
$DIMTXT
 40
0.25
  9
$DIMCEN
 40
2.5
  9
$DIMTSZ
 40
0.0
  9
$DIMTOL
 70
0
  9
$DIMLIM
 70
0
  9
$DIMTIH
 70
0
  9
$DIMTOH
 70
0
  9
$DIMSE1
 70
0
  9
$DIMSE2
 70
0
  9
$DIMTAD
 70
1
  9
$DIMZIN
 70
12
  9
$DIMBLK
  1
ARCHTICK
  9
$DIMASO
 70
1
  9
$DIMSHO
 70
1
  9
$DIMPOST
  1

  9
$DIMAPOST
  1

  9
$DIMALT
 70
0
  9
$DIMALTD
 70
3
  9
$DIMALTF
 40
0.03937007874
  9
$DIMLFAC
 40
100.0
  9
$DIMTOFL
 70
1
  9
$DIMTVP
 40
0.0
  9
$DIMTIX
 70
0
  9
$DIMSOXD
 70
0
  9
$DIMSAH
 70
0
  9
$DIMBLK1
  1

  9
$DIMBLK2
  1

  9
$DIMSTYLE
  2
EZDXF
  9
$DIMCLRD
 70
0
  9
$DIMCLRE
 70
0
  9
$DIMCLRT
 70
0
  9
$DIMTFAC
 40
0.5
  9
$DIMGAP
 40
0.1
  9
$DIMJUST
 70
0
  9
$DIMSD1
 70
0
  9
$DIMSD2
 70
0
  9
$DIMTOLJ
 70
0
  9
$DIMTZIN
 70
8
  9
$DIMALTZ
 70
0
  9
$DIMALTTZ
 70
0
  9
$DIMUPT
 70
1
  9
$DIMDEC
 70
2
  9
$DIMTDEC
 70
2
  9
$DIMALTU
 70
2
  9
$DIMALTTD
 70
3
  9
$DIMTXSTY
  7
OpenSansCondensed-Light
  9
$DIMAUNIT
 70
0
  9
$DIMADEC
 70
2
  9
$DIMALTRND
 40
0.0
  9
$DIMAZIN
 70
3
  9
$DIMDSEP
 70
46
  9
$DIMATFIT
 70
3
  9
$DIMFRAC
 70
0
  9
$DIMLDRBLK
  1

  9
$DIMLUNIT
 70
2
  9
$DIMLWD
 70
-2
  9
$DIMLWE
 70
-2
  9
$DIMTMOVE
 70
2
  9
$DIMFXL
 40
1.0
  9
$DIMFXLON
 70
0
  9
$DIMJOGANG
 40
0.785398163397
  9
$DIMTFILL
 70
0
  9
$DIMTFILLCLR
 70
0
  9
$DIMARCSYM
 70
0
  9
$DIMLTYPE
  6

  9
$DIMLTEX1
  6

  9
$DIMLTEX2
  6

  9
$DIMTXTDIRECTION
 70
0
  9
$LUNITS
 70
2
  9
$LUPREC
 70
4
  9
$SKETCHINC
 40
1.0
  9
$FILLETRAD
 40
10.0
  9
$AUNITS
 70
0
  9
$AUPREC
 70
2
  9
$MENU
  1
.
  9
$ELEVATION
 40
0.0
  9
$PELEVATION
 40
0.0
  9
$THICKNESS
 40
0.0
  9
$LIMCHECK
 70
0
  9
$CHAMFERA
 40
0.0
  9
$CHAMFERB
 40
0.0
  9
$CHAMFERC
 40
0.0
  9
$CHAMFERD
 40
0.0
  9
$SKPOLY
 70
0
  9
$TDCREATE
 40
2461133.385914352
  9
$TDUCREATE
 40
2458532.153996898
  9
$TDUPDATE
 40
2461133.385914352
  9
$TDUUPDATE
 40
2458532.1544311
  9
$TDINDWG
 40
0.0
  9
$TDUSRTIMER
 40
0.0
  9
$USRTIMER
 70
1
  9
$ANGBASE
 50
0.0
  9
$ANGDIR
 70
0
  9
$PDMODE
 70
0
  9
$PDSIZE
 40
0.0
  9
$PLINEWID
 40
0.0
  9
$SPLFRAME
 70
0
  9
$SPLINETYPE
 70
6
  9
$SPLINESEGS
 70
8
  9
$HANDSEED
  5
1E2
  9
$SURFTAB1
 70
6
  9
$SURFTAB2
 70
6
  9
$SURFTYPE
 70
6
  9
$SURFU
 70
6
  9
$SURFV
 70
6
  9
$UCSBASE
  2

  9
$UCSNAME
  2

  9
$UCSORG
 10
0.0
 20
0.0
 30
0.0
  9
$UCSXDIR
 10
1.0
 20
0.0
 30
0.0
  9
$UCSYDIR
 10
0.0
 20
1.0
 30
0.0
  9
$UCSORTHOREF
  2

  9
$UCSORTHOVIEW
 70
0
  9
$UCSORGTOP
 10
0.0
 20
0.0
 30
0.0
  9
$UCSORGBOTTOM
 10
0.0
 20
0.0
 30
0.0
  9
$UCSORGLEFT
 10
0.0
 20
0.0
 30
0.0
  9
$UCSORGRIGHT
 10
0.0
 20
0.0
 30
0.0
  9
$UCSORGFRONT
 10
0.0
 20
0.0
 30
0.0
  9
$UCSORGBACK
 10
0.0
 20
0.0
 30
0.0
  9
$PUCSBASE
  2

  9
$PUCSNAME
  2

  9
$PUCSORG
 10
0.0
 20
0.0
 30
0.0
  9
$PUCSXDIR
 10
1.0
 20
0.0
 30
0.0
  9
$PUCSYDIR
 10
0.0
 20
1.0
 30
0.0
  9
$PUCSORTHOREF
  2

  9
$PUCSORTHOVIEW
 70
0
  9
$PUCSORGTOP
 10
0.0
 20
0.0
 30
0.0
  9
$PUCSORGBOTTOM
 10
0.0
 20
0.0
 30
0.0
  9
$PUCSORGLEFT
 10
0.0
 20
0.0
 30
0.0
  9
$PUCSORGRIGHT
 10
0.0
 20
0.0
 30
0.0
  9
$PUCSORGFRONT
 10
0.0
 20
0.0
 30
0.0
  9
$PUCSORGBACK
 10
0.0
 20
0.0
 30
0.0
  9
$USERI1
 70
0
  9
$USERI2
 70
0
  9
$USERI3
 70
0
  9
$USERI4
 70
0
  9
$USERI5
 70
0
  9
$USERR1
 40
0.0
  9
$USERR2
 40
0.0
  9
$USERR3
 40
0.0
  9
$USERR4
 40
0.0
  9
$USERR5
 40
0.0
  9
$WORLDVIEW
 70
1
  9
$SHADEDGE
 70
3
  9
$SHADEDIF
 70
70
  9
$TILEMODE
 70
1
  9
$MAXACTVP
 70
64
  9
$PINSBASE
 10
0.0
 20
0.0
 30
0.0
  9
$PLIMCHECK
 70
0
  9
$PEXTMIN
 10
1e+20
 20
1e+20
 30
1e+20
  9
$PEXTMAX
 10
-1e+20
 20
-1e+20
 30
-1e+20
  9
$PLIMMIN
 10
0.0
 20
0.0
  9
$PLIMMAX
 10
420.0
 20
297.0
  9
$UNITMODE
 70
0
  9
$VISRETAIN
 70
1
  9
$PLINEGEN
 70
0
  9
$PSLTSCALE
 70
1
  9
$TREEDEPTH
 70
3020
  9
$CMLSTYLE
  2
Standard
  9
$CMLJUST
 70
0
  9
$CMLSCALE
 40
20.0
  9
$PROXYGRAPHICS
 70
1
  9
$MEASUREMENT
 70
1
  9
$CELWEIGHT
370
-1
  9
$ENDCAPS
280
0
  9
$JOINSTYLE
280
0
  9
$LWDISPLAY
290
0
  9
$INSUNITS
 70
6
  9
$HYPERLINKBASE
  1

  9
$STYLESHEET
  1

  9
$XEDIT
290
1
  9
$CEPSNTYPE
380
0
  9
$PSTYLEMODE
290
1
  9
$FINGERPRINTGUID
  2
{3585A430-EE11-4F7B-A163-1079AAAAC594}
  9
$VERSIONGUID
  2
{24008232-B510-47C6-9AAE-22715D5AD260}
  9
$EXTNAMES
290
1
  9
$PSVPSCALE
 40
0.0
  9
$OLESTARTUP
290
0
  9
$SORTENTS
280
127
  9
$INDEXCTL
280
0
  9
$HIDETEXT
280
1
  9
$XCLIPFRAME
280
1
  9
$HALOGAP
280
0
  9
$OBSCOLOR
 70
257
  9
$OBSLTYPE
280
0
  9
$INTERSECTIONDISPLAY
280
0
  9
$INTERSECTIONCOLOR
 70
257
  9
$DIMASSOC
280
2
  9
$PROJECTNAME
  1

  9
$CAMERADISPLAY
290
0
  9
$LENSLENGTH
 40
50.0
  9
$CAMERAHEIGHT
 40
0.0
  9
$STEPSPERSEC
 40
24.0
  9
$STEPSIZE
 40
100.0
  9
$3DDWFPREC
 40
2.0
  9
$PSOLWIDTH
 40
0.005
  9
$PSOLHEIGHT
 40
0.08
  9
$LOFTANG1
 40
1.570796326795
  9
$LOFTANG2
 40
1.570796326795
  9
$LOFTMAG1
 40
0.0
  9
$LOFTMAG2
 40
0.0
  9
$LOFTPARAM
 70
7
  9
$LOFTNORMALS
280
1
  9
$LATITUDE
 40
37.795
  9
$LONGITUDE
 40
-122.394
  9
$NORTHDIRECTION
 40
0.0
  9
$TIMEZONE
 70
-8000
  9
$LIGHTGLYPHDISPLAY
280
1
  9
$TILEMODELIGHTSYNCH
280
1
  9
$CMATERIAL
347
20
  9
$SOLIDHIST
280
0
  9
$SHOWHIST
280
1
  9
$DWFFRAME
280
2
  9
$DGNFRAME
280
2
  9
$REALWORLDSCALE
290
1
  9
$INTERFERECOLOR
 62
256
  9
$CSHADOW
280
0
  9
$SHADOWPLANELOCATION
 40
0.0
  0
ENDSEC
  0
SECTION
  2
CLASSES
  0
CLASS
  1
ACDBDICTIONARYWDFLT
  2
AcDbDictionaryWithDefault
  3
ObjectDBX Classes
 90
0
 91
0
280
0
281
0
  0
CLASS
  1
SUN
  2
AcDbSun
  3
SCENEOE
 90
1153
 91
0
280
0
281
0
  0
CLASS
  1
VISUALSTYLE
  2
AcDbVisualStyle
  3
ObjectDBX Classes
 90
4095
 91
0
280
0
281
0
  0
CLASS
  1
MATERIAL
  2
AcDbMaterial
  3
ObjectDBX Classes
 90
1153
 91
0
280
0
281
0
  0
CLASS
  1
SCALE
  2
AcDbScale
  3
ObjectDBX Classes
 90
1153
 91
0
280
0
281
0
  0
CLASS
  1
TABLESTYLE
  2
AcDbTableStyle
  3
ObjectDBX Classes
 90
4095
 91
0
280
0
281
0
  0
CLASS
  1
MLEADERSTYLE
  2
AcDbMLeaderStyle
  3
ACDB_MLEADERSTYLE_CLASS
 90
4095
 91
0
280
0
281
0
  0
CLASS
  1
DICTIONARYVAR
  2
AcDbDictionaryVar
  3
ObjectDBX Classes
 90
0
 91
0
280
0
281
0
  0
CLASS
  1
CELLSTYLEMAP
  2
AcDbCellStyleMap
  3
ObjectDBX Classes
 90
1152
 91
0
280
0
281
0
  0
CLASS
  1
MENTALRAYRENDERSETTINGS
  2
AcDbMentalRayRenderSettings
  3
SCENEOE
 90
1024
 91
0
280
0
281
0
  0
CLASS
  1
ACDBDETAILVIEWSTYLE
  2
AcDbDetailViewStyle
  3
ObjectDBX Classes
 90
1025
 91
0
280
0
281
0
  0
CLASS
  1
ACDBSECTIONVIEWSTYLE
  2
AcDbSectionViewStyle
  3
ObjectDBX Classes
 90
1025
 91
0
280
0
281
0
  0
CLASS
  1
RASTERVARIABLES
  2
AcDbRasterVariables
  3
ISM
 90
0
 91
0
280
0
281
0
  0
CLASS
  1
LAYOUT
  2
AcDbLayout
  3
ObjectDBX Classes
 90
0
 91
0
280
0
281
0
  0
CLASS
  1
ACDBPLACEHOLDER
  2
AcDbPlaceHolder
  3
ObjectDBX Classes
 90
0
 91
0
280
0
281
0
  0
ENDSEC
  0
SECTION
  2
TABLES
  0
TABLE
  2
VPORT
  5
8
330
0
100
AcDbSymbolTable
 70
1
  0
VPORT
  5
23
330
8
100
AcDbSymbolTableRecord
100
AcDbViewportTableRecord
  2
*Active
 70
0
 10
0.0
 20
0.0
 11
1.0
 21
1.0
 12
0.0
 22
0.0
 13
0.0
 23
0.0
 14
0.5
 24
0.5
 15
0.5
 25
0.5
 16
0.0
 26
0.0
 36
1.0
 17
0.0
 27
0.0
 37
0.0
 40
1000.0
 41
1.34
 42
50.0
 43
0.0
 44
0.0
 50
0.0
 51
0.0
 71
0
 72
1000
 73
1
 74
3
 75
0
 76
0
 77
0
 78
0
281
0
 65
0
146
0.0
  0
ENDTAB
  0
TABLE
  2
LTYPE
  5
2
330
0
100
AcDbSymbolTable
 70
21
  0
LTYPE
  5
24
330
2
100
AcDbSymbolTableRecord
100
AcDbLinetypeTableRecord
  2
ByBlock
 70
0
  3

 72
65
 73
0
 40
0.0
  0
LTYPE
  5
25
330
2
100
AcDbSymbolTableRecord
100
AcDbLinetypeTableRecord
  2
ByLayer
 70
0
  3

 72
65
 73
0
 40
0.0
  0
LTYPE
  5
26
330
2
100
AcDbSymbolTableRecord
100
AcDbLinetypeTableRecord
  2
Continuous
 70
0
  3

 72
65
 73
0
 40
0.0
  0
LTYPE
  5
2F
330
2
100
AcDbSymbolTableRecord
100
AcDbLinetypeTableRecord
  2
CENTER
 70
0
  3
Center ____ _ ____ _ ____ _ ____ _ ____ _ ____
 72
65
 73
4
 40
5.08
 49
3.175
 74
0
 49
-0.635
 74
0
 49
0.635
 74
0
 49
-0.635
 74
0
  0
LTYPE
  5
30
330
2
100
AcDbSymbolTableRecord
100
AcDbLinetypeTableRecord
  2
CENTERX2
 70
0
  3
Center (2x) ________  __  ________  __  ________
 72
65
 73
4
 40
8.89
 49
6.35
 74
0
 49
-0.635
 74
0
 49
1.27
 74
0
 49
-0.635
 74
0
  0
LTYPE
  5
31
330
2
100
AcDbSymbolTableRecord
100
AcDbLinetypeTableRecord
  2
CENTER2
 70
0
  3
Center (.5x) ____ _ ____ _ ____ _ ____ _ ____
 72
65
 73
4
 40
2.54
 49
1.587
 74
0
 49
-0.318
 74
0
 49
0.318
 74
0
 49
-0.318
 74
0
  0
LTYPE
  5
32
330
2
100
AcDbSymbolTableRecord
100
AcDbLinetypeTableRecord
  2
DASHED
 70
0
  3
Dashed __ __ __ __ __ __ __ __ __ __ __ __ __ _
 72
65
 73
2
 40
1.524
 49
1.27
 74
0
 49
-0.254
 74
0
  0
LTYPE
  5
33
330
2
100
AcDbSymbolTableRecord
100
AcDbLinetypeTableRecord
  2
DASHEDX2
 70
0
  3
Dashed (2x) ____  ____  ____  ____  ____  ____
 72
65
 73
2
 40
3.048
 49
2.54
 74
0
 49
-0.508
 74
0
  0
LTYPE
  5
34
330
2
100
AcDbSymbolTableRecord
100
AcDbLinetypeTableRecord
  2
DASHED2
 70
0
  3
Dashed (.5x) _ _ _ _ _ _ _ _ _ _ _ _ _ _
 72
65
 73
2
 40
0.762
 49
0.635
 74
0
 49
-0.127
 74
0
  0
LTYPE
  5
35
330
2
100
AcDbSymbolTableRecord
100
AcDbLinetypeTableRecord
  2
PHANTOM
 70
0
  3
Phantom ______  __  __  ______  __  __  ______
 72
65
 73
6
 40
6.35
 49
3.175
 74
0
 49
-0.635
 74
0
 49
0.635
 74
0
 49
-0.635
 74
0
 49
0.635
 74
0
 49
-0.635
 74
0
  0
LTYPE
  5
36
330
2
100
AcDbSymbolTableRecord
100
AcDbLinetypeTableRecord
  2
PHANTOMX2
 70
0
  3
Phantom (2x)____________    ____    ____    ____________
 72
65
 73
6
 40
10.795
 49
6.35
 74
0
 49
-0.635
 74
0
 49
1.27
 74
0
 49
-0.635
 74
0
 49
1.27
 74
0
 49
-0.635
 74
0
  0
LTYPE
  5
37
330
2
100
AcDbSymbolTableRecord
100
AcDbLinetypeTableRecord
  2
PHANTOM2
 70
0
  3
Phantom (.5x) ___ _ _ ___ _ _ ___ _ _ ___ _ _ ___
 72
65
 73
6
 40
3.175
 49
1.587
 74
0
 49
-0.318
 74
0
 49
0.318
 74
0
 49
-0.318
 74
0
 49
0.318
 74
0
 49
-0.318
 74
0
  0
LTYPE
  5
38
330
2
100
AcDbSymbolTableRecord
100
AcDbLinetypeTableRecord
  2
DASHDOT
 70
0
  3
Dash dot __ . __ . __ . __ . __ . __ . __ . __
 72
65
 73
4
 40
3.556
 49
2.54
 74
0
 49
-0.508
 74
0
 49
0.0
 74
0
 49
-0.508
 74
0
  0
LTYPE
  5
39
330
2
100
AcDbSymbolTableRecord
100
AcDbLinetypeTableRecord
  2
DASHDOTX2
 70
0
  3
Dash dot (2x) ____  .  ____  .  ____  .  ____
 72
65
 73
4
 40
6.096
 49
5.08
 74
0
 49
-0.508
 74
0
 49
0.0
 74
0
 49
-0.508
 74
0
  0
LTYPE
  5
3A
330
2
100
AcDbSymbolTableRecord
100
AcDbLinetypeTableRecord
  2
DASHDOT2
 70
0
  3
Dash dot (.5x) _ . _ . _ . _ . _ . _ . _ . _
 72
65
 73
4
 40
1.778
 49
1.27
 74
0
 49
-0.254
 74
0
 49
0.0
 74
0
 49
-0.254
 74
0
  0
LTYPE
  5
3B
330
2
100
AcDbSymbolTableRecord
100
AcDbLinetypeTableRecord
  2
DOT
 70
0
  3
Dot .  .  .  .  .  .  .  .  .  .  .  .  .  .  .  .
 72
65
 73
2
 40
0.508
 49
0.0
 74
0
 49
-0.508
 74
0
  0
LTYPE
  5
3C
330
2
100
AcDbSymbolTableRecord
100
AcDbLinetypeTableRecord
  2
DOTX2
 70
0
  3
Dot (2x) .    .    .    .    .    .    .    . 
 72
65
 73
2
 40
1.016
 49
0.0
 74
0
 49
-1.016
 74
0
  0
LTYPE
  5
3D
330
2
100
AcDbSymbolTableRecord
100
AcDbLinetypeTableRecord
  2
DOT2
 70
0
  3
Dot (.5) . . . . . . . . . . . . . . . . . . . 
 72
65
 73
2
 40
0.254
 49
0.0
 74
0
 49
-0.254
 74
0
  0
LTYPE
  5
3E
330
2
100
AcDbSymbolTableRecord
100
AcDbLinetypeTableRecord
  2
DIVIDE
 70
0
  3
Divide __ . . __ . . __ . . __ . . __ . . __
 72
65
 73
6
 40
4.064
 49
2.54
 74
0
 49
-0.508
 74
0
 49
0.0
 74
0
 49
-0.508
 74
0
 49
0.0
 74
0
 49
-0.508
 74
0
  0
LTYPE
  5
3F
330
2
100
AcDbSymbolTableRecord
100
AcDbLinetypeTableRecord
  2
DIVIDEX2
 70
0
  3
Divide (2x) ____  . .  ____  . .  ____  . .  ____
 72
65
 73
6
 40
6.604
 49
5.08
 74
0
 49
-0.508
 74
0
 49
0.0
 74
0
 49
-0.508
 74
0
 49
0.0
 74
0
 49
-0.508
 74
0
  0
LTYPE
  5
40
330
2
100
AcDbSymbolTableRecord
100
AcDbLinetypeTableRecord
  2
DIVIDE2
 70
0
  3
Divide(.5x) _ . _ . _ . _ . _ . _ . _ . _
 72
65
 73
6
 40
2.032
 49
1.27
 74
0
 49
-0.254
 74
0
 49
0.0
 74
0
 49
-0.254
 74
0
 49
0.0
 74
0
 49
-0.254
 74
0
  0
ENDTAB
  0
TABLE
  2
LAYER
  5
1
330
0
100
AcDbSymbolTable
 70
14
  0
LAYER
  5
27
330
1
100
AcDbSymbolTableRecord
100
AcDbLayerTableRecord
  2
0
 70
0
 62
7
  6
Continuous
370
-3
390
13
347
21
  0
LAYER
  5
28
330
1
100
AcDbSymbolTableRecord
100
AcDbLayerTableRecord
  2
Defpoints
 70
0
 62
7
  6
Continuous
290
0
370
-3
390
13
347
21
  0
LAYER
  5
8A
330
1
100
AcDbSymbolTableRecord
100
AcDbLayerTableRecord
  2
BORDER
 70
0
 62
7
  6
Continuous
370
-3
390
13
347
21
  0
LAYER
  5
8B
330
1
100
AcDbSymbolTableRecord
100
AcDbLayerTableRecord
  2
TITLEBLOCK
 70
0
 62
7
  6
Continuous
370
-3
390
13
347
21
  0
LAYER
  5
8C
330
1
100
AcDbSymbolTableRecord
100
AcDbLayerTableRecord
  2
ORIENTATION
 70
0
 62
7
  6
Continuous
370
-3
390
13
347
21
  0
LAYER
  5
8D
330
1
100
AcDbSymbolTableRecord
100
AcDbLayerTableRecord
  2
OUTLINE
 70
0
 62
7
  6
Continuous
370
-3
390
13
347
21
  0
LAYER
  5
8E
330
1
100
AcDbSymbolTableRecord
100
AcDbLayerTableRecord
  2
HIDDEN
 70
0
 62
7
  6
Continuous
370
-3
390
13
347
21
  0
LAYER
  5
8F
330
1
100
AcDbSymbolTableRecord
100
AcDbLayerTableRecord
  2
CENTERLINE
 70
0
 62
5
  6
Continuous
370
-3
390
13
347
21
  0
LAYER
  5
90
330
1
100
AcDbSymbolTableRecord
100
AcDbLayerTableRecord
  2
SPAR
 70
0
 62
3
  6
Continuous
370
-3
390
13
347
21
  0
LAYER
  5
91
330
1
100
AcDbSymbolTableRecord
100
AcDbLayerTableRecord
  2
WALL
 70
0
 62
6
  6
Continuous
370
-3
390
13
347
21
  0
LAYER
  5
92
330
1
100
AcDbSymbolTableRecord
100
AcDbLayerTableRecord
  2
SECTION
 70
0
 62
4
  6
Continuous
370
-3
390
13
347
21
  0
LAYER
  5
93
330
1
100
AcDbSymbolTableRecord
100
AcDbLayerTableRecord
  2
HATCH
 70
0
 62
252
  6
Continuous
370
-3
390
13
347
21
  0
LAYER
  5
94
330
1
100
AcDbSymbolTableRecord
100
AcDbLayerTableRecord
  2
DIMENSION
 70
0
 62
1
  6
Continuous
370
-3
390
13
347
21
  0
LAYER
  5
95
330
1
100
AcDbSymbolTableRecord
100
AcDbLayerTableRecord
  2
TEXT
 70
0
 62
7
  6
Continuous
370
-3
390
13
347
21
  0
ENDTAB
  0
TABLE
  2
STYLE
  5
5
330
0
100
AcDbSymbolTable
 70
26
  0
STYLE
  5
29
330
5
100
AcDbSymbolTableRecord
100
AcDbTextStyleTableRecord
  2
Standard
 70
0
 40
0.0
 41
1.0
 50
0.0
 71
0
 42
2.5
  3
txt
  4

  0
STYLE
  5
41
330
5
100
AcDbSymbolTableRecord
100
AcDbTextStyleTableRecord
  2
OpenSans-Light
 70
0
 40
0.0
 41
1.0
 50
0.0
 71
0
 42
2.5
  3
OpenSans-Light.ttf
  4

  0
STYLE
  5
42
330
5
100
AcDbSymbolTableRecord
100
AcDbTextStyleTableRecord
  2
OpenSans-Light-Italic
 70
0
 40
0.0
 41
1.0
 50
0.0
 71
0
 42
2.5
  3
OpenSans-LightItalic.ttf
  4

  0
STYLE
  5
43
330
5
100
AcDbSymbolTableRecord
100
AcDbTextStyleTableRecord
  2
OpenSans
 70
0
 40
0.0
 41
1.0
 50
0.0
 71
0
 42
2.5
  3
OpenSans-Regular.ttf
  4

  0
STYLE
  5
44
330
5
100
AcDbSymbolTableRecord
100
AcDbTextStyleTableRecord
  2
OpenSans-Italic
 70
0
 40
0.0
 41
1.0
 50
0.0
 71
0
 42
2.5
  3
OpenSans-Italic.ttf
  4

  0
STYLE
  5
45
330
5
100
AcDbSymbolTableRecord
100
AcDbTextStyleTableRecord
  2
OpenSans-SemiBold
 70
0
 40
0.0
 41
1.0
 50
0.0
 71
0
 42
2.5
  3
OpenSans-SemiBold.ttf
  4

  0
STYLE
  5
46
330
5
100
AcDbSymbolTableRecord
100
AcDbTextStyleTableRecord
  2
OpenSans-SemiBoldItalic
 70
0
 40
0.0
 41
1.0
 50
0.0
 71
0
 42
2.5
  3
OpenSans-SemiBoldItalic.ttf
  4

  0
STYLE
  5
47
330
5
100
AcDbSymbolTableRecord
100
AcDbTextStyleTableRecord
  2
OpenSans-Bold
 70
0
 40
0.0
 41
1.0
 50
0.0
 71
0
 42
2.5
  3
OpenSans-Bold.ttf
  4

  0
STYLE
  5
48
330
5
100
AcDbSymbolTableRecord
100
AcDbTextStyleTableRecord
  2
OpenSans-BoldItalic
 70
0
 40
0.0
 41
1.0
 50
0.0
 71
0
 42
2.5
  3
OpenSans-BoldItalic.ttf
  4

  0
STYLE
  5
49
330
5
100
AcDbSymbolTableRecord
100
AcDbTextStyleTableRecord
  2
OpenSans-ExtraBold
 70
0
 40
0.0
 41
1.0
 50
0.0
 71
0
 42
2.5
  3
OpenSans-ExtraBold.ttf
  4

  0
STYLE
  5
4A
330
5
100
AcDbSymbolTableRecord
100
AcDbTextStyleTableRecord
  2
OpenSans-ExtraBoldItalic
 70
0
 40
0.0
 41
1.0
 50
0.0
 71
0
 42
2.5
  3
OpenSans-ExtraBoldItalic.ttf
  4

  0
STYLE
  5
4B
330
5
100
AcDbSymbolTableRecord
100
AcDbTextStyleTableRecord
  2
OpenSansCondensed-Bold
 70
0
 40
0.0
 41
1.0
 50
0.0
 71
0
 42
2.5
  3
OpenSansCondensed-Bold.ttf
  4

  0
STYLE
  5
4C
330
5
100
AcDbSymbolTableRecord
100
AcDbTextStyleTableRecord
  2
OpenSansCondensed-Light
 70
0
 40
0.0
 41
1.0
 50
0.0
 71
0
 42
2.5
  3
OpenSansCondensed-Light.ttf
  4

  0
STYLE
  5
4D
330
5
100
AcDbSymbolTableRecord
100
AcDbTextStyleTableRecord
  2
OpenSansCondensed-Italic
 70
0
 40
0.0
 41
1.0
 50
0.0
 71
0
 42
2.5
  3
OpenSansCondensed-LightItalic.ttf
  4

  0
STYLE
  5
4E
330
5
100
AcDbSymbolTableRecord
100
AcDbTextStyleTableRecord
  2
LiberationSans
 70
0
 40
0.0
 41
1.0
 50
0.0
 71
0
 42
2.5
  3
LiberationSans-Regular.ttf
  4

  0
STYLE
  5
4F
330
5
100
AcDbSymbolTableRecord
100
AcDbTextStyleTableRecord
  2
LiberationSans-Bold
 70
0
 40
0.0
 41
1.0
 50
0.0
 71
0
 42
2.5
  3
LiberationSans-Bold.ttf
  4

  0
STYLE
  5
50
330
5
100
AcDbSymbolTableRecord
100
AcDbTextStyleTableRecord
  2
LiberationSans-BoldItalic
 70
0
 40
0.0
 41
1.0
 50
0.0
 71
0
 42
2.5
  3
LiberationSans-BoldItalic.ttf
  4

  0
STYLE
  5
51
330
5
100
AcDbSymbolTableRecord
100
AcDbTextStyleTableRecord
  2
LiberationSans-Italic
 70
0
 40
0.0
 41
1.0
 50
0.0
 71
0
 42
2.5
  3
LiberationSans-Italic.ttf
  4

  0
STYLE
  5
52
330
5
100
AcDbSymbolTableRecord
100
AcDbTextStyleTableRecord
  2
LiberationSerif
 70
0
 40
0.0
 41
1.0
 50
0.0
 71
0
 42
2.5
  3
LiberationSerif-Regular.ttf
  4

  0
STYLE
  5
53
330
5
100
AcDbSymbolTableRecord
100
AcDbTextStyleTableRecord
  2
LiberationSerif-Bold
 70
0
 40
0.0
 41
1.0
 50
0.0
 71
0
 42
2.5
  3
LiberationSerif-Bold.ttf
  4

  0
STYLE
  5
54
330
5
100
AcDbSymbolTableRecord
100
AcDbTextStyleTableRecord
  2
LiberationSerif-BoldItalic
 70
0
 40
0.0
 41
1.0
 50
0.0
 71
0
 42
2.5
  3
LiberationSerif-BoldItalic.ttf
  4

  0
STYLE
  5
55
330
5
100
AcDbSymbolTableRecord
100
AcDbTextStyleTableRecord
  2
LiberationSerif-Italic
 70
0
 40
0.0
 41
1.0
 50
0.0
 71
0
 42
2.5
  3
LiberationSerif-Italic.ttf
  4

  0
STYLE
  5
56
330
5
100
AcDbSymbolTableRecord
100
AcDbTextStyleTableRecord
  2
LiberationMono
 70
0
 40
0.0
 41
1.0
 50
0.0
 71
0
 42
2.5
  3
LiberationMono-Regular.ttf
  4

  0
STYLE
  5
57
330
5
100
AcDbSymbolTableRecord
100
AcDbTextStyleTableRecord
  2
LiberationMono-Bold
 70
0
 40
0.0
 41
1.0
 50
0.0
 71
0
 42
2.5
  3
LiberationMono-Bold.ttf
  4

  0
STYLE
  5
58
330
5
100
AcDbSymbolTableRecord
100
AcDbTextStyleTableRecord
  2
LiberationMono-BoldItalic
 70
0
 40
0.0
 41
1.0
 50
0.0
 71
0
 42
2.5
  3
LiberationMono-BoldItalic.ttf
  4

  0
STYLE
  5
59
330
5
100
AcDbSymbolTableRecord
100
AcDbTextStyleTableRecord
  2
LiberationMono-Italic
 70
0
 40
0.0
 41
1.0
 50
0.0
 71
0
 42
2.5
  3
LiberationMono-Italic.ttf
  4

  0
ENDTAB
  0
TABLE
  2
VIEW
  5
7
330
0
100
AcDbSymbolTable
 70
0
  0
ENDTAB
  0
TABLE
  2
UCS
  5
6
330
0
100
AcDbSymbolTable
 70
0
  0
ENDTAB
  0
TABLE
  2
APPID
  5
3
330
0
100
AcDbSymbolTable
 70
3
  0
APPID
  5
2A
330
3
100
AcDbSymbolTableRecord
100
AcDbRegAppTableRecord
  2
ACAD
 70
0
  0
APPID
  5
1DF
330
3
100
AcDbSymbolTableRecord
100
AcDbRegAppTableRecord
  2
HATCHBACKGROUNDCOLOR
 70
0
  0
APPID
  5
1E0
330
3
100
AcDbSymbolTableRecord
100
AcDbRegAppTableRecord
  2
EZDXF
 70
0
  0
ENDTAB
  0
TABLE
  2
DIMSTYLE
  5
4
330
0
100
AcDbSymbolTable
 70
13
100
AcDbDimStyleTable
  0
DIMSTYLE
105
2B
330
4
100
AcDbSymbolTableRecord
100
AcDbDimStyleTableRecord
  2
Standard
 70
0
 40
1.0
 41
2.5
 42
0.625
 43
3.75
 44
1.25
 45
0.0
 46
0.0
 47
0.0
 48
0.0
 49
2.5
140
2.5
141
2.5
142
0.0
143
0.03937007874
144
1.0
145
0.0
146
1.0
147
0.625
148
0.0
 69
0
 70
0
 71
0
 72
0
 73
0
 74
0
 75
0
 76
0
 77
1
 78
8
 79
3
170
0
171
3
172
1
173
0
174
0
175
0
176
0
177
0
178
0
179
2
271
2
272
2
273
2
274
3
275
0
276
0
277
2
278
44
279
0
280
0
281
0
282
0
283
0
284
8
285
0
286
0
288
0
289
3
290
0
371
-2
372
-2
  0
DIMSTYLE
105
73
330
4
100
AcDbSymbolTableRecord
100
AcDbDimStyleTableRecord
  2
EZDXF
 70
0
 40
1.0
 41
0.175
 42
0.125
 43
3.75
 44
0.375
 45
0.0
 46
0.0
 47
0.0
 48
0.0
 49
2.5
140
0.25
141
2.5
142
0.0
143
0.03937007874
144
100.0
145
0.0
146
0.5
147
0.1
148
0.0
 69
0
 70
0
 71
0
 72
0
 73
0
 74
0
 75
0
 76
0
 77
1
 78
12
 79
3
170
0
171
3
172
1
173
0
174
0
175
0
176
0
177
0
178
0
179
2
271
2
272
2
273
2
274
3
275
0
276
0
277
2
278
46
279
2
280
0
281
0
282
0
283
0
284
8
285
0
286
0
288
1
289
3
290
0
340
4C
342
74
371
-2
372
-2
  0
DIMSTYLE
105
7C
330
4
100
AcDbSymbolTableRecord
100
AcDbDimStyleTableRecord
  2
EZ_M_100_H25_CM
 70
0
 40
1.0
 41
0.25
 42
0.125
 43
3.75
 44
0.375
 45
0.0
 46
0.0
 47
0.0
 48
0.0
 49
2.5
140
0.25
141
2.5
142
0.125
143
0.03937007874
144
100.0
145
0.0
146
0.5
147
0.1
148
0.0
 69
0
 70
0
 71
0
 72
0
 73
0
 74
0
 75
0
 76
0
 77
1
 78
12
 79
3
170
0
171
3
172
1
173
0
174
0
175
0
176
0
177
0
178
0
179
2
271
2
272
2
273
2
274
3
275
0
276
0
277
2
278
46
279
2
280
0
281
0
282
0
283
0
284
8
285
0
286
0
288
1
289
3
290
0
340
4C
371
-2
372
-2
  0
DIMSTYLE
105
7D
330
4
100
AcDbSymbolTableRecord
100
AcDbDimStyleTableRecord
  2
EZ_M_50_H25_CM
 70
0
 40
1.0
 41
0.125
 42
0.0625
 43
3.75
 44
0.1875
 45
0.0
 46
0.0
 47
0.0
 48
0.0
 49
2.5
140
0.125
141
2.5
142
0.0625
143
0.03937007874
144
100.0
145
0.0
146
0.5
147
0.05
148
0.0
 69
0
 70
0
 71
0
 72
0
 73
0
 74
0
 75
0
 76
0
 77
1
 78
12
 79
3
170
0
171
3
172
1
173
0
174
0
175
0
176
0
177
0
178
0
179
2
271
2
272
2
273
2
274
3
275
0
276
0
277
2
278
46
279
2
280
0
281
0
282
0
283
0
284
8
285
0
286
0
288
1
289
3
290
0
340
4C
371
-2
372
-2
  0
DIMSTYLE
105
7E
330
4
100
AcDbSymbolTableRecord
100
AcDbDimStyleTableRecord
  2
EZ_M_25_H25_CM
 70
0
 40
1.0
 41
0.0625
 42
0.03125
 43
3.75
 44
0.09375
 45
0.0
 46
0.0
 47
0.0
 48
0.0
 49
2.5
140
0.0625
141
2.5
142
0.03125
143
0.03937007874
144
100.0
145
0.0
146
0.5
147
0.025
148
0.0
 69
0
 70
0
 71
0
 72
0
 73
0
 74
0
 75
0
 76
0
 77
1
 78
12
 79
3
170
0
171
3
172
1
173
0
174
0
175
0
176
0
177
0
178
0
179
2
271
2
272
2
273
2
274
3
275
0
276
0
277
2
278
46
279
2
280
0
281
0
282
0
283
0
284
8
285
0
286
0
288
1
289
3
290
0
340
4C
371
-2
372
-2
  0
DIMSTYLE
105
7F
330
4
100
AcDbSymbolTableRecord
100
AcDbDimStyleTableRecord
  2
EZ_M_20_H25_CM
 70
0
 40
1.0
 41
0.05
 42
0.025
 43
3.75
 44
0.07500000000000001
 45
0.0
 46
0.0
 47
0.0
 48
0.0
 49
2.5
140
0.05
141
2.5
142
0.025
143
0.03937007874
144
100.0
145
0.0
146
0.5
147
0.020000000000000004
148
0.0
 69
0
 70
0
 71
0
 72
0
 73
0
 74
0
 75
0
 76
0
 77
1
 78
12
 79
3
170
0
171
3
172
1
173
0
174
0
175
0
176
0
177
0
178
0
179
2
271
2
272
2
273
2
274
3
275
0
276
0
277
2
278
46
279
2
280
0
281
0
282
0
283
0
284
8
285
0
286
0
288
1
289
3
290
0
340
4C
371
-2
372
-2
  0
DIMSTYLE
105
80
330
4
100
AcDbSymbolTableRecord
100
AcDbDimStyleTableRecord
  2
EZ_M_10_H25_CM
 70
0
 40
1.0
 41
0.025
 42
0.0125
 43
3.75
 44
0.037500000000000006
 45
0.0
 46
0.0
 47
0.0
 48
0.0
 49
2.5
140
0.025
141
2.5
142
0.0125
143
0.03937007874
144
100.0
145
0.0
146
0.5
147
0.010000000000000002
148
0.0
 69
0
 70
0
 71
0
 72
0
 73
0
 74
0
 75
0
 76
0
 77
1
 78
12
 79
3
170
0
171
3
172
1
173
0
174
0
175
0
176
0
177
0
178
0
179
2
271
2
272
2
273
2
274
3
275
0
276
0
277
2
278
46
279
2
280
0
281
0
282
0
283
0
284
8
285
0
286
0
288
1
289
3
290
0
340
4C
371
-2
372
-2
  0
DIMSTYLE
105
81
330
4
100
AcDbSymbolTableRecord
100
AcDbDimStyleTableRecord
  2
EZ_M_5_H25_CM
 70
0
 40
1.0
 41
0.0125
 42
0.00625
 43
3.75
 44
0.018750000000000003
 45
0.0
 46
0.0
 47
0.0
 48
0.0
 49
2.5
140
0.0125
141
2.5
142
0.00625
143
0.03937007874
144
100.0
145
0.0
146
0.5
147
0.005000000000000001
148
0.0
 69
0
 70
0
 71
0
 72
0
 73
0
 74
0
 75
0
 76
0
 77
1
 78
12
 79
3
170
0
171
3
172
1
173
0
174
0
175
0
176
0
177
0
178
0
179
2
271
2
272
2
273
2
274
3
275
0
276
0
277
2
278
46
279
2
280
0
281
0
282
0
283
0
284
8
285
0
286
0
288
1
289
3
290
0
340
4C
371
-2
372
-2
  0
DIMSTYLE
105
82
330
4
100
AcDbSymbolTableRecord
100
AcDbDimStyleTableRecord
  2
EZ_M_1_H25_CM
 70
0
 40
1.0
 41
0.0025
 42
0.00125
 43
3.75
 44
0.00375
 45
0.0
 46
0.0
 47
0.0
 48
0.0
 49
2.5
140
0.0025
141
2.5
142
0.00125
143
0.03937007874
144
100.0
145
0.0
146
0.5
147
0.001
148
0.0
 69
0
 70
0
 71
0
 72
0
 73
0
 74
0
 75
0
 76
0
 77
1
 78
12
 79
3
170
0
171
3
172
1
173
0
174
0
175
0
176
0
177
0
178
0
179
2
271
2
272
2
273
2
274
3
275
0
276
0
277
2
278
46
279
2
280
0
281
0
282
0
283
0
284
8
285
0
286
0
288
1
289
3
290
0
340
4C
371
-2
372
-2
  0
DIMSTYLE
105
83
330
4
100
AcDbSymbolTableRecord
100
AcDbDimStyleTableRecord
  2
EZ_RADIUS
 70
0
 40
1.0
 41
0.25
 42
0.125
 43
3.75
 44
0.375
 45
0.0
 46
0.0
 47
0.0
 48
0.0
 49
2.5
140
0.25
141
0.0
142
0.0
143
0.03937007874
144
100.0
145
0.0
146
0.5
147
0.1
148
0.0
 69
0
 70
0
 71
0
 72
0
 73
0
 74
0
 75
0
 76
0
 77
1
 78
12
 79
3
170
0
171
3
172
0
173
0
174
0
175
0
176
0
177
0
178
0
179
2
271
2
272
2
273
2
274
3
275
0
276
0
277
2
278
46
279
1
280
0
281
0
282
0
283
0
284
8
285
0
286
0
288
1
289
3
290
0
340
4C
342
84
371
-2
372
-2
  0
DIMSTYLE
105
88
330
4
100
AcDbSymbolTableRecord
100
AcDbDimStyleTableRecord
  2
EZ_RADIUS_INSIDE
 70
0
 40
1.0
 41
0.25
 42
0.125
 43
3.75
 44
0.375
 45
0.0
 46
0.0
 47
0.0
 48
0.0
 49
2.5
140
0.25
141
0.0
142
0.0
143
0.03937007874
144
100.0
145
0.0
146
0.5
147
0.1
148
0.0
 69
0
 70
0
 71
0
 72
0
 73
0
 74
0
 75
0
 76
0
 77
0
 78
12
 79
3
170
0
171
3
172
0
173
0
174
1
175
0
176
0
177
0
178
0
179
2
271
2
272
2
273
2
274
3
275
0
276
0
277
2
278
46
279
0
280
0
281
0
282
0
283
0
284
8
285
0
286
0
288
1
289
0
290
0
340
4C
342
84
371
-2
372
-2
  0
DIMSTYLE
105
89
330
4
100
AcDbSymbolTableRecord
100
AcDbDimStyleTableRecord
  2
EZ_CURVED
 70
0
 40
1.0
 41
0.25
 42
0.125
 43
3.75
 44
0.375
 45
0.0
 46
0.0
 47
0.0
 48
0.0
 49
2.5
140
0.25
141
2.5
142
0.0
143
0.03937007874
144
100.0
145
0.0
146
0.5
147
0.1
148
0.0
 69
0
 70
0
 71
0
 72
0
 73
0
 74
0
 75
0
 76
0
 77
1
 78
12
 79
2
 90
2
170
0
171
3
172
1
173
0
174
0
175
0
176
0
177
0
178
0
179
2
271
2
272
2
273
2
274
3
275
0
276
0
277
2
278
46
279
2
280
0
281
0
282
0
283
0
284
8
285
0
286
0
288
1
289
3
290
0
340
4C
371
-2
372
-2
  0
DIMSTYLE
105
96
330
4
100
AcDbSymbolTableRecord
100
AcDbDimStyleTableRecord
  2
AEROFORGE
 70
0
 40
1.0
 41
1.5
 42
0.5
 43
3.75
 44
0.8
 45
0.0
 46
0.0
 47
0.0
 48
0.0
 49
2.5
140
2.5
141
2.5
142
0.0
143
0.03937007874
144
1.0
145
0.0
146
1.0
147
0.6
148
0.0
 69
0
 70
0
 71
0
 72
0
 73
0
 74
0
 75
0
 76
0
 77
1
 78
8
 79
3
170
0
171
3
172
1
173
0
174
0
175
0
176
0
177
0
178
0
179
2
271
2
272
2
273
2
274
3
275
0
276
0
277
2
278
44
279
0
280
0
281
0
282
0
283
0
284
8
285
0
286
0
288
0
289
3
290
0
371
-2
372
-2
  0
ENDTAB
  0
TABLE
  2
BLOCK_RECORD
  5
9
330
0
100
AcDbSymbolTable
 70
8
  0
BLOCK_RECORD
  5
17
330
9
100
AcDbSymbolTableRecord
100
AcDbBlockTableRecord
  2
*Model_Space
340
1A
 70
0
280
1
281
0
  0
BLOCK_RECORD
  5
1B
330
9
100
AcDbSymbolTableRecord
100
AcDbBlockTableRecord
  2
*Paper_Space
340
1E
 70
0
280
1
281
0
  0
BLOCK_RECORD
  5
74
330
9
100
AcDbSymbolTableRecord
100
AcDbBlockTableRecord
  2
_ARCHTICK
340
0
 70
0
280
1
281
0
  0
BLOCK_RECORD
  5
78
330
9
100
AcDbSymbolTableRecord
100
AcDbBlockTableRecord
  2
_CLOSEDFILLED
340
0
 70
0
280
1
281
0
  0
BLOCK_RECORD
  5
84
330
9
100
AcDbSymbolTableRecord
100
AcDbBlockTableRecord
  2
_CLOSEDBLANK
340
0
 70
0
280
1
281
0
  0
BLOCK_RECORD
  5
1A2
330
9
100
AcDbSymbolTableRecord
100
AcDbBlockTableRecord
  2
*D1
340
0
 70
0
280
1
281
0
  0
BLOCK_RECORD
  5
1B1
330
9
100
AcDbSymbolTableRecord
100
AcDbBlockTableRecord
  2
*D2
340
0
 70
0
280
1
281
0
  0
BLOCK_RECORD
  5
1C0
330
9
100
AcDbSymbolTableRecord
100
AcDbBlockTableRecord
  2
*D3
340
0
 70
0
280
1
281
0
  0
ENDTAB
  0
ENDSEC
  0
SECTION
  2
BLOCKS
  0
BLOCK
  5
18
330
17
100
AcDbEntity
  8
0
100
AcDbBlockBegin
  2
*Model_Space
 70
0
 10
0.0
 20
0.0
 30
0.0
  3
*Model_Space
  1

  0
ENDBLK
  5
19
330
17
100
AcDbEntity
  8
0
100
AcDbBlockEnd
  0
BLOCK
  5
1C
330
1B
100
AcDbEntity
  8
0
100
AcDbBlockBegin
  2
*Paper_Space
 70
0
 10
0.0
 20
0.0
 30
0.0
  3
*Paper_Space
  1

  0
ENDBLK
  5
1D
330
1B
100
AcDbEntity
  8
0
100
AcDbBlockEnd
  0
BLOCK
  5
75
330
74
100
AcDbEntity
  8
0
100
AcDbBlockBegin
  2
_ARCHTICK
 70
0
 10
0.0
 20
0.0
 30
0.0
  3
_ARCHTICK
  1

  0
LWPOLYLINE
  5
77
330
74
100
AcDbEntity
  8
0
  6
BYBLOCK
 62
0
100
AcDbPolyline
 90
2
 70
0
 43
0.15
 10
-0.5
 20
-0.5
 10
0.5
 20
0.5
  0
ENDBLK
  5
76
330
74
100
AcDbEntity
  8
0
100
AcDbBlockEnd
  0
BLOCK
  5
79
330
78
100
AcDbEntity
  8
0
100
AcDbBlockBegin
  2
_CLOSEDFILLED
 70
0
 10
0.0
 20
0.0
 30
0.0
  3
_CLOSEDFILLED
  1

  0
SOLID
  5
7B
330
78
100
AcDbEntity
  8
0
  6
BYBLOCK
 62
0
100
AcDbTrace
 10
-1.0
 20
0.16439898372402537
 30
0.0
 11
0.0
 21
0.0
 31
0.0
 12
-1.0
 22
-0.16439898372402537
 32
0.0
 13
-1.0
 23
-0.16439898372402537
 33
0.0
  0
ENDBLK
  5
7A
330
78
100
AcDbEntity
  8
0
100
AcDbBlockEnd
  0
BLOCK
  5
85
330
84
100
AcDbEntity
  8
0
100
AcDbBlockBegin
  2
_CLOSEDBLANK
 70
0
 10
0.0
 20
0.0
 30
0.0
  3
_CLOSEDBLANK
  1

  0
LWPOLYLINE
  5
87
330
84
100
AcDbEntity
  8
0
  6
BYBLOCK
 62
0
100
AcDbPolyline
 90
3
 70
1
 10
-1.0
 20
0.16439898372402537
 10
0.0
 20
0.0
 10
-1.0
 20
-0.16439898372402537
  0
ENDBLK
  5
86
330
84
100
AcDbEntity
  8
0
100
AcDbBlockEnd
  0
BLOCK
  5
1A3
330
1A2
100
AcDbEntity
  8
0
100
AcDbBlockBegin
  2
*D1
 70
1
 10
0.0
 20
0.0
 30
0.0
  3
*D1
  1

  0
LINE
  5
1A5
330
1A2
100
AcDbEntity
  8
0
100
AcDbLine
 10
55.0
 20
112.875
 30
0.0
 11
55.0
 21
104.625
 31
0.0
  0
LINE
  5
1A6
330
1A2
100
AcDbEntity
  8
0
100
AcDbLine
 10
756.46
 20
112.875
 30
0.0
 11
756.46
 21
104.625
 31
0.0
  0
INSERT
  5
1A7
330
1A2
100
AcDbEntity
  8
DIMENSION
100
AcDbBlockReference
  2
_ARCHTICK
 10
55.0
 20
105.0
 30
0.0
 41
0.175
 42
0.175
 50
180.0
  0
INSERT
  5
1A9
330
1A2
100
AcDbEntity
  8
DIMENSION
100
AcDbBlockReference
  2
_ARCHTICK
 10
756.46
 20
105.0
 30
0.0
 41
0.175
 42
0.175
  0
LINE
  5
1AB
330
1A2
100
AcDbEntity
  8
0
100
AcDbLine
 10
55.0
 20
105.0
 30
0.0
 11
756.46
 21
105.0
 31
0.0
  0
MTEXT
  5
1AC
330
1A2
100
AcDbEntity
  8
DIMENSION
100
AcDbMText
 10
405.73
 20
105.225
 30
0.0
 40
0.25
 71
5
  1
70146
  7
OpenSansCondensed-Light
  0
POINT
  5
1AD
330
1A2
100
AcDbEntity
  8
Defpoints
100
AcDbPoint
 10
55.0
 20
105.0
 30
0.0
  0
POINT
  5
1AE
330
1A2
100
AcDbEntity
  8
Defpoints
100
AcDbPoint
 10
55.0
 20
113.0
 30
0.0
  0
POINT
  5
1AF
330
1A2
100
AcDbEntity
  8
Defpoints
100
AcDbPoint
 10
756.46
 20
113.0
 30
0.0
  0
ENDBLK
  5
1A4
330
1A2
100
AcDbEntity
  8
0
100
AcDbBlockEnd
  0
BLOCK
  5
1B2
330
1B1
100
AcDbEntity
  8
0
100
AcDbBlockBegin
  2
*D2
 70
1
 10
0.0
 20
0.0
 30
0.0
  3
*D2
  1

  0
LINE
  5
1B4
330
1B1
100
AcDbEntity
  8
0
100
AcDbLine
 10
65.875
 20
505.0
 30
0.0
 11
57.625
 21
505.0
 31
0.0
  0
LINE
  5
1B5
330
1B1
100
AcDbEntity
  8
0
100
AcDbLine
 10
65.875
 20
448.3
 30
0.0
 11
57.625
 21
448.3
 31
0.0
  0
INSERT
  5
1B6
330
1B1
100
AcDbEntity
  8
DIMENSION
100
AcDbBlockReference
  2
_ARCHTICK
 10
58.0
 20
505.0
 30
0.0
 41
0.175
 42
0.175
 50
270.0
  0
INSERT
  5
1B8
330
1B1
100
AcDbEntity
  8
DIMENSION
100
AcDbBlockReference
  2
_ARCHTICK
 10
58.0
 20
448.3
 30
0.0
 41
0.175
 42
0.175
 50
90.0
  0
LINE
  5
1BA
330
1B1
100
AcDbEntity
  8
0
100
AcDbLine
 10
58.0
 20
505.0
 30
0.0
 11
58.0
 21
448.3
 31
0.0
  0
MTEXT
  5
1BB
330
1B1
100
AcDbEntity
  8
DIMENSION
100
AcDbMText
 10
58.225
 20
476.65
 30
0.0
 40
0.25
 71
5
  1
5670
  7
OpenSansCondensed-Light
 50
90.0
  0
POINT
  5
1BC
330
1B1
100
AcDbEntity
  8
Defpoints
100
AcDbPoint
 10
58.0
 20
505.0
 30
0.0
  0
POINT
  5
1BD
330
1B1
100
AcDbEntity
  8
Defpoints
100
AcDbPoint
 10
66.0
 20
505.0
 30
0.0
  0
POINT
  5
1BE
330
1B1
100
AcDbEntity
  8
Defpoints
100
AcDbPoint
 10
66.0
 20
448.3
 30
0.0
  0
ENDBLK
  5
1B3
330
1B1
100
AcDbEntity
  8
0
100
AcDbBlockEnd
  0
BLOCK
  5
1C1
330
1C0
100
AcDbEntity
  8
0
100
AcDbBlockBegin
  2
*D3
 70
1
 10
0.0
 20
0.0
 30
0.0
  3
*D3
  1

  0
LINE
  5
1C3
330
1C0
100
AcDbEntity
  8
0
100
AcDbLine
 10
400.6
 20
515.125
 30
0.0
 11
400.6
 21
523.375
 31
0.0
  0
LINE
  5
1C4
330
1C0
100
AcDbEntity
  8
0
100
AcDbLine
 10
410.86
 20
515.125
 30
0.0
 11
410.86
 21
523.375
 31
0.0
  0
INSERT
  5
1C5
330
1C0
100
AcDbEntity
  8
DIMENSION
100
AcDbBlockReference
  2
_ARCHTICK
 10
400.6
 20
523.0
 30
0.0
 41
0.175
 42
0.175
 50
180.0
  0
INSERT
  5
1C7
330
1C0
100
AcDbEntity
  8
DIMENSION
100
AcDbBlockReference
  2
_ARCHTICK
 10
410.86
 20
523.0
 30
0.0
 41
0.175
 42
0.175
  0
LINE
  5
1C9
330
1C0
100
AcDbEntity
  8
0
100
AcDbLine
 10
400.6
 20
523.0
 30
0.0
 11
410.86
 21
523.0
 31
0.0
  0
MTEXT
  5
1CA
330
1C0
100
AcDbEntity
  8
DIMENSION
100
AcDbMText
 10
405.73
 20
523.225
 30
0.0
 40
0.25
 71
5
  1
1026
  7
OpenSansCondensed-Light
  0
POINT
  5
1CB
330
1C0
100
AcDbEntity
  8
Defpoints
100
AcDbPoint
 10
400.6
 20
523.0
 30
0.0
  0
POINT
  5
1CC
330
1C0
100
AcDbEntity
  8
Defpoints
100
AcDbPoint
 10
400.6
 20
515.0
 30
0.0
  0
POINT
  5
1CD
330
1C0
100
AcDbEntity
  8
Defpoints
100
AcDbPoint
 10
410.86
 20
515.0
 30
0.0
  0
ENDBLK
  5
1C2
330
1C0
100
AcDbEntity
  8
0
100
AcDbBlockEnd
  0
ENDSEC
  0
SECTION
  2
ENTITIES
  0
LINE
  5
97
330
17
100
AcDbEntity
  8
BORDER
100
AcDbLine
 10
20.0
 20
10.0
 30
0.0
 11
831.0
 21
10.0
 31
0.0
  0
LINE
  5
98
330
17
100
AcDbEntity
  8
BORDER
100
AcDbLine
 10
831.0
 20
10.0
 30
0.0
 11
831.0
 21
584.0
 31
0.0
  0
LINE
  5
99
330
17
100
AcDbEntity
  8
BORDER
100
AcDbLine
 10
831.0
 20
584.0
 30
0.0
 11
20.0
 21
584.0
 31
0.0
  0
LINE
  5
9A
330
17
100
AcDbEntity
  8
BORDER
100
AcDbLine
 10
20.0
 20
584.0
 30
0.0
 11
20.0
 21
10.0
 31
0.0
  0
LINE
  5
9B
330
17
100
AcDbEntity
  8
BORDER
100
AcDbLine
 10
425.5
 20
5.0
 30
0.0
 11
425.5
 21
10.0
 31
0.0
  0
LINE
  5
9C
330
17
100
AcDbEntity
  8
BORDER
100
AcDbLine
 10
425.5
 20
584.0
 30
0.0
 11
425.5
 21
589.0
 31
0.0
  0
LINE
  5
9D
330
17
100
AcDbEntity
  8
BORDER
100
AcDbLine
 10
15.0
 20
297.0
 30
0.0
 11
20.0
 21
297.0
 31
0.0
  0
LINE
  5
9E
330
17
100
AcDbEntity
  8
BORDER
100
AcDbLine
 10
831.0
 20
297.0
 30
0.0
 11
836.0
 21
297.0
 31
0.0
  0
LINE
  5
9F
330
17
100
AcDbEntity
  8
BORDER
100
AcDbLine
 10
20.0
 20
81.75
 30
0.0
 11
23.0
 21
81.75
 31
0.0
  0
LINE
  5
A0
330
17
100
AcDbEntity
  8
BORDER
100
AcDbLine
 10
828.0
 20
81.75
 30
0.0
 11
831.0
 21
81.75
 31
0.0
  0
TEXT
  5
A1
330
17
100
AcDbEntity
  8
BORDER
100
AcDbText
 10
21.0
 20
44.875
 30
0.0
 40
2.5
  1
A
 11
21.0
 21
44.875
 31
0.0
100
AcDbText
  0
TEXT
  5
A2
330
17
100
AcDbEntity
  8
BORDER
100
AcDbText
 10
827.5
 20
44.875
 30
0.0
 40
2.5
  1
A
 11
827.5
 21
44.875
 31
0.0
100
AcDbText
  0
LINE
  5
A3
330
17
100
AcDbEntity
  8
BORDER
100
AcDbLine
 10
20.0
 20
153.5
 30
0.0
 11
23.0
 21
153.5
 31
0.0
  0
LINE
  5
A4
330
17
100
AcDbEntity
  8
BORDER
100
AcDbLine
 10
828.0
 20
153.5
 30
0.0
 11
831.0
 21
153.5
 31
0.0
  0
TEXT
  5
A5
330
17
100
AcDbEntity
  8
BORDER
100
AcDbText
 10
21.0
 20
116.625
 30
0.0
 40
2.5
  1
B
 11
21.0
 21
116.625
 31
0.0
100
AcDbText
  0
TEXT
  5
A6
330
17
100
AcDbEntity
  8
BORDER
100
AcDbText
 10
827.5
 20
116.625
 30
0.0
 40
2.5
  1
B
 11
827.5
 21
116.625
 31
0.0
100
AcDbText
  0
LINE
  5
A7
330
17
100
AcDbEntity
  8
BORDER
100
AcDbLine
 10
20.0
 20
225.25
 30
0.0
 11
23.0
 21
225.25
 31
0.0
  0
LINE
  5
A8
330
17
100
AcDbEntity
  8
BORDER
100
AcDbLine
 10
828.0
 20
225.25
 30
0.0
 11
831.0
 21
225.25
 31
0.0
  0
TEXT
  5
A9
330
17
100
AcDbEntity
  8
BORDER
100
AcDbText
 10
21.0
 20
188.375
 30
0.0
 40
2.5
  1
C
 11
21.0
 21
188.375
 31
0.0
100
AcDbText
  0
TEXT
  5
AA
330
17
100
AcDbEntity
  8
BORDER
100
AcDbText
 10
827.5
 20
188.375
 30
0.0
 40
2.5
  1
C
 11
827.5
 21
188.375
 31
0.0
100
AcDbText
  0
LINE
  5
AB
330
17
100
AcDbEntity
  8
BORDER
100
AcDbLine
 10
20.0
 20
297.0
 30
0.0
 11
23.0
 21
297.0
 31
0.0
  0
LINE
  5
AC
330
17
100
AcDbEntity
  8
BORDER
100
AcDbLine
 10
828.0
 20
297.0
 30
0.0
 11
831.0
 21
297.0
 31
0.0
  0
TEXT
  5
AD
330
17
100
AcDbEntity
  8
BORDER
100
AcDbText
 10
21.0
 20
260.125
 30
0.0
 40
2.5
  1
D
 11
21.0
 21
260.125
 31
0.0
100
AcDbText
  0
TEXT
  5
AE
330
17
100
AcDbEntity
  8
BORDER
100
AcDbText
 10
827.5
 20
260.125
 30
0.0
 40
2.5
  1
D
 11
827.5
 21
260.125
 31
0.0
100
AcDbText
  0
LINE
  5
AF
330
17
100
AcDbEntity
  8
BORDER
100
AcDbLine
 10
20.0
 20
368.75
 30
0.0
 11
23.0
 21
368.75
 31
0.0
  0
LINE
  5
B0
330
17
100
AcDbEntity
  8
BORDER
100
AcDbLine
 10
828.0
 20
368.75
 30
0.0
 11
831.0
 21
368.75
 31
0.0
  0
TEXT
  5
B1
330
17
100
AcDbEntity
  8
BORDER
100
AcDbText
 10
21.0
 20
331.875
 30
0.0
 40
2.5
  1
E
 11
21.0
 21
331.875
 31
0.0
100
AcDbText
  0
TEXT
  5
B2
330
17
100
AcDbEntity
  8
BORDER
100
AcDbText
 10
827.5
 20
331.875
 30
0.0
 40
2.5
  1
E
 11
827.5
 21
331.875
 31
0.0
100
AcDbText
  0
LINE
  5
B3
330
17
100
AcDbEntity
  8
BORDER
100
AcDbLine
 10
20.0
 20
440.5
 30
0.0
 11
23.0
 21
440.5
 31
0.0
  0
LINE
  5
B4
330
17
100
AcDbEntity
  8
BORDER
100
AcDbLine
 10
828.0
 20
440.5
 30
0.0
 11
831.0
 21
440.5
 31
0.0
  0
TEXT
  5
B5
330
17
100
AcDbEntity
  8
BORDER
100
AcDbText
 10
21.0
 20
403.625
 30
0.0
 40
2.5
  1
F
 11
21.0
 21
403.625
 31
0.0
100
AcDbText
  0
TEXT
  5
B6
330
17
100
AcDbEntity
  8
BORDER
100
AcDbText
 10
827.5
 20
403.625
 30
0.0
 40
2.5
  1
F
 11
827.5
 21
403.625
 31
0.0
100
AcDbText
  0
LINE
  5
B7
330
17
100
AcDbEntity
  8
BORDER
100
AcDbLine
 10
20.0
 20
512.25
 30
0.0
 11
23.0
 21
512.25
 31
0.0
  0
LINE
  5
B8
330
17
100
AcDbEntity
  8
BORDER
100
AcDbLine
 10
828.0
 20
512.25
 30
0.0
 11
831.0
 21
512.25
 31
0.0
  0
TEXT
  5
B9
330
17
100
AcDbEntity
  8
BORDER
100
AcDbText
 10
21.0
 20
475.375
 30
0.0
 40
2.5
  1
G
 11
21.0
 21
475.375
 31
0.0
100
AcDbText
  0
TEXT
  5
BA
330
17
100
AcDbEntity
  8
BORDER
100
AcDbText
 10
827.5
 20
475.375
 30
0.0
 40
2.5
  1
G
 11
827.5
 21
475.375
 31
0.0
100
AcDbText
  0
LINE
  5
BB
330
17
100
AcDbEntity
  8
BORDER
100
AcDbLine
 10
20.0
 20
584.0
 30
0.0
 11
23.0
 21
584.0
 31
0.0
  0
LINE
  5
BC
330
17
100
AcDbEntity
  8
BORDER
100
AcDbLine
 10
828.0
 20
584.0
 30
0.0
 11
831.0
 21
584.0
 31
0.0
  0
TEXT
  5
BD
330
17
100
AcDbEntity
  8
BORDER
100
AcDbText
 10
21.0
 20
547.125
 30
0.0
 40
2.5
  1
H
 11
21.0
 21
547.125
 31
0.0
100
AcDbText
  0
TEXT
  5
BE
330
17
100
AcDbEntity
  8
BORDER
100
AcDbText
 10
827.5
 20
547.125
 30
0.0
 40
2.5
  1
H
 11
827.5
 21
547.125
 31
0.0
100
AcDbText
  0
LINE
  5
BF
330
17
100
AcDbEntity
  8
BORDER
100
AcDbLine
 10
87.58333333333333
 20
10.0
 30
0.0
 11
87.58333333333333
 21
13.0
 31
0.0
  0
LINE
  5
C0
330
17
100
AcDbEntity
  8
BORDER
100
AcDbLine
 10
87.58333333333333
 20
581.0
 30
0.0
 11
87.58333333333333
 21
584.0
 31
0.0
  0
TEXT
  5
C1
330
17
100
AcDbEntity
  8
BORDER
100
AcDbText
 10
52.791666666666664
 20
10.5
 30
0.0
 40
2.0
  1
1
 11
52.791666666666664
 21
10.5
 31
0.0
100
AcDbText
  0
TEXT
  5
C2
330
17
100
AcDbEntity
  8
BORDER
100
AcDbText
 10
52.791666666666664
 20
581.0
 30
0.0
 40
2.0
  1
1
 11
52.791666666666664
 21
581.0
 31
0.0
100
AcDbText
  0
LINE
  5
C3
330
17
100
AcDbEntity
  8
BORDER
100
AcDbLine
 10
155.16666666666666
 20
10.0
 30
0.0
 11
155.16666666666666
 21
13.0
 31
0.0
  0
LINE
  5
C4
330
17
100
AcDbEntity
  8
BORDER
100
AcDbLine
 10
155.16666666666666
 20
581.0
 30
0.0
 11
155.16666666666666
 21
584.0
 31
0.0
  0
TEXT
  5
C5
330
17
100
AcDbEntity
  8
BORDER
100
AcDbText
 10
120.375
 20
10.5
 30
0.0
 40
2.0
  1
2
 11
120.375
 21
10.5
 31
0.0
100
AcDbText
  0
TEXT
  5
C6
330
17
100
AcDbEntity
  8
BORDER
100
AcDbText
 10
120.375
 20
581.0
 30
0.0
 40
2.0
  1
2
 11
120.375
 21
581.0
 31
0.0
100
AcDbText
  0
LINE
  5
C7
330
17
100
AcDbEntity
  8
BORDER
100
AcDbLine
 10
222.75
 20
10.0
 30
0.0
 11
222.75
 21
13.0
 31
0.0
  0
LINE
  5
C8
330
17
100
AcDbEntity
  8
BORDER
100
AcDbLine
 10
222.75
 20
581.0
 30
0.0
 11
222.75
 21
584.0
 31
0.0
  0
TEXT
  5
C9
330
17
100
AcDbEntity
  8
BORDER
100
AcDbText
 10
187.95833333333331
 20
10.5
 30
0.0
 40
2.0
  1
3
 11
187.95833333333331
 21
10.5
 31
0.0
100
AcDbText
  0
TEXT
  5
CA
330
17
100
AcDbEntity
  8
BORDER
100
AcDbText
 10
187.95833333333331
 20
581.0
 30
0.0
 40
2.0
  1
3
 11
187.95833333333331
 21
581.0
 31
0.0
100
AcDbText
  0
LINE
  5
CB
330
17
100
AcDbEntity
  8
BORDER
100
AcDbLine
 10
290.3333333333333
 20
10.0
 30
0.0
 11
290.3333333333333
 21
13.0
 31
0.0
  0
LINE
  5
CC
330
17
100
AcDbEntity
  8
BORDER
100
AcDbLine
 10
290.3333333333333
 20
581.0
 30
0.0
 11
290.3333333333333
 21
584.0
 31
0.0
  0
TEXT
  5
CD
330
17
100
AcDbEntity
  8
BORDER
100
AcDbText
 10
255.54166666666663
 20
10.5
 30
0.0
 40
2.0
  1
4
 11
255.54166666666663
 21
10.5
 31
0.0
100
AcDbText
  0
TEXT
  5
CE
330
17
100
AcDbEntity
  8
BORDER
100
AcDbText
 10
255.54166666666663
 20
581.0
 30
0.0
 40
2.0
  1
4
 11
255.54166666666663
 21
581.0
 31
0.0
100
AcDbText
  0
LINE
  5
CF
330
17
100
AcDbEntity
  8
BORDER
100
AcDbLine
 10
357.91666666666663
 20
10.0
 30
0.0
 11
357.91666666666663
 21
13.0
 31
0.0
  0
LINE
  5
D0
330
17
100
AcDbEntity
  8
BORDER
100
AcDbLine
 10
357.91666666666663
 20
581.0
 30
0.0
 11
357.91666666666663
 21
584.0
 31
0.0
  0
TEXT
  5
D1
330
17
100
AcDbEntity
  8
BORDER
100
AcDbText
 10
323.125
 20
10.5
 30
0.0
 40
2.0
  1
5
 11
323.125
 21
10.5
 31
0.0
100
AcDbText
  0
TEXT
  5
D2
330
17
100
AcDbEntity
  8
BORDER
100
AcDbText
 10
323.125
 20
581.0
 30
0.0
 40
2.0
  1
5
 11
323.125
 21
581.0
 31
0.0
100
AcDbText
  0
LINE
  5
D3
330
17
100
AcDbEntity
  8
BORDER
100
AcDbLine
 10
425.5
 20
10.0
 30
0.0
 11
425.5
 21
13.0
 31
0.0
  0
LINE
  5
D4
330
17
100
AcDbEntity
  8
BORDER
100
AcDbLine
 10
425.5
 20
581.0
 30
0.0
 11
425.5
 21
584.0
 31
0.0
  0
TEXT
  5
D5
330
17
100
AcDbEntity
  8
BORDER
100
AcDbText
 10
390.7083333333333
 20
10.5
 30
0.0
 40
2.0
  1
6
 11
390.7083333333333
 21
10.5
 31
0.0
100
AcDbText
  0
TEXT
  5
D6
330
17
100
AcDbEntity
  8
BORDER
100
AcDbText
 10
390.7083333333333
 20
581.0
 30
0.0
 40
2.0
  1
6
 11
390.7083333333333
 21
581.0
 31
0.0
100
AcDbText
  0
LINE
  5
D7
330
17
100
AcDbEntity
  8
BORDER
100
AcDbLine
 10
493.0833333333333
 20
10.0
 30
0.0
 11
493.0833333333333
 21
13.0
 31
0.0
  0
LINE
  5
D8
330
17
100
AcDbEntity
  8
BORDER
100
AcDbLine
 10
493.0833333333333
 20
581.0
 30
0.0
 11
493.0833333333333
 21
584.0
 31
0.0
  0
TEXT
  5
D9
330
17
100
AcDbEntity
  8
BORDER
100
AcDbText
 10
458.29166666666663
 20
10.5
 30
0.0
 40
2.0
  1
7
 11
458.29166666666663
 21
10.5
 31
0.0
100
AcDbText
  0
TEXT
  5
DA
330
17
100
AcDbEntity
  8
BORDER
100
AcDbText
 10
458.29166666666663
 20
581.0
 30
0.0
 40
2.0
  1
7
 11
458.29166666666663
 21
581.0
 31
0.0
100
AcDbText
  0
LINE
  5
DB
330
17
100
AcDbEntity
  8
BORDER
100
AcDbLine
 10
560.6666666666666
 20
10.0
 30
0.0
 11
560.6666666666666
 21
13.0
 31
0.0
  0
LINE
  5
DC
330
17
100
AcDbEntity
  8
BORDER
100
AcDbLine
 10
560.6666666666666
 20
581.0
 30
0.0
 11
560.6666666666666
 21
584.0
 31
0.0
  0
TEXT
  5
DD
330
17
100
AcDbEntity
  8
BORDER
100
AcDbText
 10
525.875
 20
10.5
 30
0.0
 40
2.0
  1
8
 11
525.875
 21
10.5
 31
0.0
100
AcDbText
  0
TEXT
  5
DE
330
17
100
AcDbEntity
  8
BORDER
100
AcDbText
 10
525.875
 20
581.0
 30
0.0
 40
2.0
  1
8
 11
525.875
 21
581.0
 31
0.0
100
AcDbText
  0
LINE
  5
DF
330
17
100
AcDbEntity
  8
BORDER
100
AcDbLine
 10
628.25
 20
10.0
 30
0.0
 11
628.25
 21
13.0
 31
0.0
  0
LINE
  5
E0
330
17
100
AcDbEntity
  8
BORDER
100
AcDbLine
 10
628.25
 20
581.0
 30
0.0
 11
628.25
 21
584.0
 31
0.0
  0
TEXT
  5
E1
330
17
100
AcDbEntity
  8
BORDER
100
AcDbText
 10
593.4583333333333
 20
10.5
 30
0.0
 40
2.0
  1
9
 11
593.4583333333333
 21
10.5
 31
0.0
100
AcDbText
  0
TEXT
  5
E2
330
17
100
AcDbEntity
  8
BORDER
100
AcDbText
 10
593.4583333333333
 20
581.0
 30
0.0
 40
2.0
  1
9
 11
593.4583333333333
 21
581.0
 31
0.0
100
AcDbText
  0
LINE
  5
E3
330
17
100
AcDbEntity
  8
BORDER
100
AcDbLine
 10
695.8333333333333
 20
10.0
 30
0.0
 11
695.8333333333333
 21
13.0
 31
0.0
  0
LINE
  5
E4
330
17
100
AcDbEntity
  8
BORDER
100
AcDbLine
 10
695.8333333333333
 20
581.0
 30
0.0
 11
695.8333333333333
 21
584.0
 31
0.0
  0
TEXT
  5
E5
330
17
100
AcDbEntity
  8
BORDER
100
AcDbText
 10
661.0416666666666
 20
10.5
 30
0.0
 40
2.0
  1
10
 11
661.0416666666666
 21
10.5
 31
0.0
100
AcDbText
  0
TEXT
  5
E6
330
17
100
AcDbEntity
  8
BORDER
100
AcDbText
 10
661.0416666666666
 20
581.0
 30
0.0
 40
2.0
  1
10
 11
661.0416666666666
 21
581.0
 31
0.0
100
AcDbText
  0
LINE
  5
E7
330
17
100
AcDbEntity
  8
BORDER
100
AcDbLine
 10
763.4166666666666
 20
10.0
 30
0.0
 11
763.4166666666666
 21
13.0
 31
0.0
  0
LINE
  5
E8
330
17
100
AcDbEntity
  8
BORDER
100
AcDbLine
 10
763.4166666666666
 20
581.0
 30
0.0
 11
763.4166666666666
 21
584.0
 31
0.0
  0
TEXT
  5
E9
330
17
100
AcDbEntity
  8
BORDER
100
AcDbText
 10
728.625
 20
10.5
 30
0.0
 40
2.0
  1
11
 11
728.625
 21
10.5
 31
0.0
100
AcDbText
  0
TEXT
  5
EA
330
17
100
AcDbEntity
  8
BORDER
100
AcDbText
 10
728.625
 20
581.0
 30
0.0
 40
2.0
  1
11
 11
728.625
 21
581.0
 31
0.0
100
AcDbText
  0
LINE
  5
EB
330
17
100
AcDbEntity
  8
BORDER
100
AcDbLine
 10
831.0
 20
10.0
 30
0.0
 11
831.0
 21
13.0
 31
0.0
  0
LINE
  5
EC
330
17
100
AcDbEntity
  8
BORDER
100
AcDbLine
 10
831.0
 20
581.0
 30
0.0
 11
831.0
 21
584.0
 31
0.0
  0
TEXT
  5
ED
330
17
100
AcDbEntity
  8
BORDER
100
AcDbText
 10
796.2083333333333
 20
10.5
 30
0.0
 40
2.0
  1
12
 11
796.2083333333333
 21
10.5
 31
0.0
100
AcDbText
  0
TEXT
  5
EE
330
17
100
AcDbEntity
  8
BORDER
100
AcDbText
 10
796.2083333333333
 20
581.0
 30
0.0
 40
2.0
  1
12
 11
796.2083333333333
 21
581.0
 31
0.0
100
AcDbText
  0
LINE
  5
EF
330
17
100
AcDbEntity
  8
TITLEBLOCK
100
AcDbLine
 10
661.0
 20
10.0
 30
0.0
 11
831.0
 21
10.0
 31
0.0
  0
LINE
  5
F0
330
17
100
AcDbEntity
  8
TITLEBLOCK
100
AcDbLine
 10
661.0
 20
46.0
 30
0.0
 11
831.0
 21
46.0
 31
0.0
  0
LINE
  5
F1
330
17
100
AcDbEntity
  8
TITLEBLOCK
100
AcDbLine
 10
661.0
 20
10.0
 30
0.0
 11
661.0
 21
46.0
 31
0.0
  0
LINE
  5
F2
330
17
100
AcDbEntity
  8
TITLEBLOCK
100
AcDbLine
 10
831.0
 20
10.0
 30
0.0
 11
831.0
 21
46.0
 31
0.0
  0
LINE
  5
F3
330
17
100
AcDbEntity
  8
TITLEBLOCK
100
AcDbLine
 10
661.0
 20
19.0
 30
0.0
 11
831.0
 21
19.0
 31
0.0
  0
LINE
  5
F4
330
17
100
AcDbEntity
  8
TITLEBLOCK
100
AcDbLine
 10
661.0
 20
28.0
 30
0.0
 11
831.0
 21
28.0
 31
0.0
  0
LINE
  5
F5
330
17
100
AcDbEntity
  8
TITLEBLOCK
100
AcDbLine
 10
661.0
 20
37.0
 30
0.0
 11
831.0
 21
37.0
 31
0.0
  0
TEXT
  5
F6
330
17
100
AcDbEntity
  8
TITLEBLOCK
100
AcDbText
 10
664.0
 20
39.0
 30
0.0
 40
3.5
  1
AEROFORGE — Wing_Assembly
 11
664.0
 21
39.0
 31
0.0
100
AcDbText
  0
TEXT
  5
F7
330
17
100
AcDbEntity
  8
TITLEBLOCK
100
AcDbText
 10
664.0
 20
30.0
 30
0.0
 40
2.0
  1
Full-wing parent drawing. This sheet governs wing-level review before panel derivation.
 11
664.0
 21
30.0
 31
0.0
100
AcDbText
  0
TEXT
  5
F8
330
17
100
AcDbEntity
  8
TITLEBLOCK
100
AcDbText
 10
664.0
 20
21.0
 30
0.0
 40
2.0
  1
Mirrored half-wing assemblies with progressive polyhedral
 11
664.0
 21
21.0
 31
0.0
100
AcDbText
  0
TEXT
  5
F9
330
17
100
AcDbEntity
  8
TITLEBLOCK
100
AcDbText
 10
664.0
 20
12.0
 30
0.0
 40
1.8
  1
Scale: 1:6 common | Units: mm | Date: 2026-03-30 | Mass: 430g full wing target | Rev: v1 | Status: FOR ITERATION
 11
664.0
 21
12.0
 31
0.0
100
AcDbText
  0
LINE
  5
FA
330
17
100
AcDbEntity
  8
TITLEBLOCK
100
AcDbLine
 10
811.0
 20
12.0
 30
0.0
 11
819.0
 21
12.0
 31
0.0
  0
LINE
  5
FB
330
17
100
AcDbEntity
  8
TITLEBLOCK
100
AcDbLine
 10
813.0
 20
18.0
 30
0.0
 11
817.0
 21
18.0
 31
0.0
  0
LINE
  5
FC
330
17
100
AcDbEntity
  8
TITLEBLOCK
100
AcDbLine
 10
811.0
 20
12.0
 30
0.0
 11
813.0
 21
18.0
 31
0.0
  0
LINE
  5
FD
330
17
100
AcDbEntity
  8
TITLEBLOCK
100
AcDbLine
 10
819.0
 20
12.0
 30
0.0
 11
817.0
 21
18.0
 31
0.0
  0
CIRCLE
  5
FE
330
17
100
AcDbEntity
  8
TITLEBLOCK
100
AcDbCircle
 10
807.0
 20
15.0
 30
0.0
 40
3.0
  0
LINE
  5
FF
330
17
100
AcDbEntity
  8
TITLEBLOCK
100
AcDbLine
 10
810.0
 20
15.0
 30
0.0
 11
811.0
 21
15.0
 31
0.0
  0
LINE
  5
100
330
17
100
AcDbEntity
  8
ORIENTATION
100
AcDbLine
 10
45.0
 20
569.0
 30
0.0
 11
30.0
 21
569.0
 31
0.0
  0
LINE
  5
101
330
17
100
AcDbEntity
  8
ORIENTATION
100
AcDbLine
 10
30.0
 20
569.0
 30
0.0
 11
32.0
 21
570.0
 31
0.0
  0
LINE
  5
102
330
17
100
AcDbEntity
  8
ORIENTATION
100
AcDbLine
 10
30.0
 20
569.0
 30
0.0
 11
32.0
 21
568.0
 31
0.0
  0
TEXT
  5
103
330
17
100
AcDbEntity
  8
ORIENTATION
100
AcDbText
 10
29.0
 20
571.0
 30
0.0
 40
2.5
  1
FWD
 11
29.0
 21
571.0
 31
0.0
100
AcDbText
  0
LINE
  5
104
330
17
100
AcDbEntity
  8
ORIENTATION
100
AcDbLine
 10
50.0
 20
584.0
 30
0.0
 11
50.0
 21
569.0
 31
0.0
  0
LINE
  5
105
330
17
100
AcDbEntity
  8
ORIENTATION
100
AcDbLine
 10
50.0
 20
569.0
 30
0.0
 11
49.0
 21
571.0
 31
0.0
  0
LINE
  5
106
330
17
100
AcDbEntity
  8
ORIENTATION
100
AcDbLine
 10
50.0
 20
569.0
 30
0.0
 11
51.0
 21
571.0
 31
0.0
  0
TEXT
  5
107
330
17
100
AcDbEntity
  8
ORIENTATION
100
AcDbText
 10
52.0
 20
571.0
 30
0.0
 40
2.0
  1
CL
 11
52.0
 21
571.0
 31
0.0
100
AcDbText
  0
TEXT
  5
108
330
17
100
AcDbEntity
  8
TEXT
100
AcDbText
 10
55.0
 20
530.0
 30
0.0
 40
4.2
  1
TOP VIEW — FULL WING ASSEMBLY
 11
55.0
 21
530.0
 31
0.0
100
AcDbText
  0
LINE
  5
109
330
17
100
AcDbEntity
  8
OUTLINE
100
AcDbLine
 10
400.6
 20
505.0
 30
0.0
 11
331.48
 21
505.0
 31
0.0
  0
LINE
  5
10A
330
17
100
AcDbEntity
  8
OUTLINE
100
AcDbLine
 10
400.6
 20
448.3
 30
0.0
 11
331.48
 21
449.92
 31
0.0
  0
LINE
  5
10B
330
17
100
AcDbEntity
  8
OUTLINE
100
AcDbLine
 10
331.48
 20
505.0
 30
0.0
 11
262.36
 21
505.0
 31
0.0
  0
LINE
  5
10C
330
17
100
AcDbEntity
  8
OUTLINE
100
AcDbLine
 10
331.48
 20
449.92
 30
0.0
 11
262.36
 21
451.54
 31
0.0
  0
LINE
  5
10D
330
17
100
AcDbEntity
  8
OUTLINE
100
AcDbLine
 10
262.36
 20
505.0
 30
0.0
 11
227.8
 21
505.0
 31
0.0
  0
LINE
  5
10E
330
17
100
AcDbEntity
  8
OUTLINE
100
AcDbLine
 10
262.36
 20
451.54
 30
0.0
 11
227.8
 21
453.15999999999997
 31
0.0
  0
LINE
  5
10F
330
17
100
AcDbEntity
  8
OUTLINE
100
AcDbLine
 10
227.8
 20
505.0
 30
0.0
 11
193.24
 21
505.0
 31
0.0
  0
LINE
  5
110
330
17
100
AcDbEntity
  8
OUTLINE
100
AcDbLine
 10
227.8
 20
453.15999999999997
 30
0.0
 11
193.24
 21
454.78
 31
0.0
  0
LINE
  5
111
330
17
100
AcDbEntity
  8
OUTLINE
100
AcDbLine
 10
193.24
 20
505.0
 30
0.0
 11
158.68
 21
505.0
 31
0.0
  0
LINE
  5
112
330
17
100
AcDbEntity
  8
OUTLINE
100
AcDbLine
 10
193.24
 20
454.78
 30
0.0
 11
158.68
 21
456.4
 31
0.0
  0
LINE
  5
113
330
17
100
AcDbEntity
  8
OUTLINE
100
AcDbLine
 10
158.68
 20
505.0
 30
0.0
 11
124.12
 21
505.0
 31
0.0
  0
LINE
  5
114
330
17
100
AcDbEntity
  8
OUTLINE
100
AcDbLine
 10
158.68
 20
456.4
 30
0.0
 11
124.12
 21
459.64
 31
0.0
  0
LINE
  5
115
330
17
100
AcDbEntity
  8
OUTLINE
100
AcDbLine
 10
124.12
 20
505.0
 30
0.0
 11
89.56
 21
505.0
 31
0.0
  0
LINE
  5
116
330
17
100
AcDbEntity
  8
OUTLINE
100
AcDbLine
 10
124.12
 20
459.64
 30
0.0
 11
89.56
 21
462.88
 31
0.0
  0
LINE
  5
117
330
17
100
AcDbEntity
  8
OUTLINE
100
AcDbLine
 10
89.56
 20
505.0
 30
0.0
 11
72.27999999999997
 21
505.0
 31
0.0
  0
LINE
  5
118
330
17
100
AcDbEntity
  8
OUTLINE
100
AcDbLine
 10
89.56
 20
462.88
 30
0.0
 11
72.27999999999997
 21
466.12
 31
0.0
  0
LINE
  5
119
330
17
100
AcDbEntity
  8
OUTLINE
100
AcDbLine
 10
72.27999999999997
 20
505.0
 30
0.0
 11
55.0
 21
505.0
 31
0.0
  0
LINE
  5
11A
330
17
100
AcDbEntity
  8
OUTLINE
100
AcDbLine
 10
72.27999999999997
 20
466.12
 30
0.0
 11
55.0
 21
473.95
 31
0.0
  0
LINE
  5
11B
330
17
100
AcDbEntity
  8
OUTLINE
100
AcDbLine
 10
400.6
 20
505.0
 30
0.0
 11
400.6
 21
448.3
 31
0.0
  0
LINE
  5
11C
330
17
100
AcDbEntity
  8
OUTLINE
100
AcDbLine
 10
55.0
 20
505.0
 30
0.0
 11
55.0
 21
473.95
 31
0.0
  0
LINE
  5
11D
330
17
100
AcDbEntity
  8
SECTION
100
AcDbLine
 10
331.48
 20
505.0
 30
0.0
 11
331.48
 21
449.92
 31
0.0
  0
TEXT
  5
11E
330
17
100
AcDbEntity
  8
TEXT
100
AcDbText
 10
335.48
 20
496.0
 30
0.0
 40
2.0
  1
P1
 11
335.48
 21
496.0
 31
0.0
100
AcDbText
  0
LINE
  5
11F
330
17
100
AcDbEntity
  8
SECTION
100
AcDbLine
 10
262.36
 20
505.0
 30
0.0
 11
262.36
 21
451.54
 31
0.0
  0
TEXT
  5
120
330
17
100
AcDbEntity
  8
TEXT
100
AcDbText
 10
266.36
 20
496.0
 30
0.0
 40
2.0
  1
P2
 11
266.36
 21
496.0
 31
0.0
100
AcDbText
  0
LINE
  5
121
330
17
100
AcDbEntity
  8
SECTION
100
AcDbLine
 10
193.24
 20
505.0
 30
0.0
 11
193.24
 21
454.78
 31
0.0
  0
TEXT
  5
122
330
17
100
AcDbEntity
  8
TEXT
100
AcDbText
 10
197.24
 20
496.0
 30
0.0
 40
2.0
  1
P3
 11
197.24
 21
496.0
 31
0.0
100
AcDbText
  0
LINE
  5
123
330
17
100
AcDbEntity
  8
SECTION
100
AcDbLine
 10
124.12
 20
505.0
 30
0.0
 11
124.12
 21
459.64
 31
0.0
  0
TEXT
  5
124
330
17
100
AcDbEntity
  8
TEXT
100
AcDbText
 10
128.12
 20
496.0
 30
0.0
 40
2.0
  1
P4
 11
128.12
 21
496.0
 31
0.0
100
AcDbText
  0
TEXT
  5
125
330
17
100
AcDbEntity
  8
TEXT
100
AcDbText
 10
59.0
 20
496.0
 30
0.0
 40
2.0
  1
P5
 11
59.0
 21
496.0
 31
0.0
100
AcDbText
  0
LINE
  5
126
330
17
100
AcDbEntity
  8
SPAR
100
AcDbLine
 10
400.6
 20
490.825
 30
0.0
 11
331.48
 21
491.23
 31
0.0
  0
LINE
  5
127
330
17
100
AcDbEntity
  8
SPAR
100
AcDbLine
 10
331.48
 20
491.23
 30
0.0
 11
262.36
 21
491.635
 31
0.0
  0
LINE
  5
128
330
17
100
AcDbEntity
  8
SPAR
100
AcDbLine
 10
262.36
 20
491.635
 30
0.0
 11
227.8
 21
492.04
 31
0.0
  0
LINE
  5
129
330
17
100
AcDbEntity
  8
SPAR
100
AcDbLine
 10
227.8
 20
492.04
 30
0.0
 11
193.24
 21
492.445
 31
0.0
  0
LINE
  5
12A
330
17
100
AcDbEntity
  8
SPAR
100
AcDbLine
 10
193.24
 20
492.445
 30
0.0
 11
158.68
 21
492.85
 31
0.0
  0
LINE
  5
12B
330
17
100
AcDbEntity
  8
SPAR
100
AcDbLine
 10
158.68
 20
492.85
 30
0.0
 11
124.12
 21
493.66
 31
0.0
  0
LINE
  5
12C
330
17
100
AcDbEntity
  8
SPAR
100
AcDbLine
 10
400.6
 20
470.98
 30
0.0
 11
331.48
 21
471.952
 31
0.0
  0
LINE
  5
12D
330
17
100
AcDbEntity
  8
SPAR
100
AcDbLine
 10
331.48
 20
471.952
 30
0.0
 11
262.36
 21
472.924
 31
0.0
  0
LINE
  5
12E
330
17
100
AcDbEntity
  8
SPAR
100
AcDbLine
 10
262.36
 20
472.924
 30
0.0
 11
227.8
 21
473.896
 31
0.0
  0
LINE
  5
12F
330
17
100
AcDbEntity
  8
SPAR
100
AcDbLine
 10
227.8
 20
473.896
 30
0.0
 11
193.24
 21
474.868
 31
0.0
  0
LINE
  5
130
330
17
100
AcDbEntity
  8
SPAR
100
AcDbLine
 10
193.24
 20
474.868
 30
0.0
 11
158.68
 21
475.84
 31
0.0
  0
LINE
  5
131
330
17
100
AcDbEntity
  8
SPAR
100
AcDbLine
 10
158.68
 20
475.84
 30
0.0
 11
124.12
 21
477.784
 31
0.0
  0
LINE
  5
132
330
17
100
AcDbEntity
  8
CENTERLINE
100
AcDbLine
 10
400.6
 20
464.176
 30
0.0
 11
331.48
 21
465.3424
 31
0.0
  0
LINE
  5
133
330
17
100
AcDbEntity
  8
CENTERLINE
100
AcDbLine
 10
331.48
 20
465.3424
 30
0.0
 11
262.36
 21
466.5088
 31
0.0
  0
LINE
  5
134
330
17
100
AcDbEntity
  8
CENTERLINE
100
AcDbLine
 10
262.36
 20
466.5088
 30
0.0
 11
227.8
 21
467.6752
 31
0.0
  0
LINE
  5
135
330
17
100
AcDbEntity
  8
CENTERLINE
100
AcDbLine
 10
227.8
 20
467.6752
 30
0.0
 11
193.24
 21
468.84159999999997
 31
0.0
  0
LINE
  5
136
330
17
100
AcDbEntity
  8
CENTERLINE
100
AcDbLine
 10
193.24
 20
468.84159999999997
 30
0.0
 11
158.68
 21
470.008
 31
0.0
  0
LINE
  5
137
330
17
100
AcDbEntity
  8
CENTERLINE
100
AcDbLine
 10
158.68
 20
470.008
 30
0.0
 11
124.12
 21
472.3408
 31
0.0
  0
LINE
  5
138
330
17
100
AcDbEntity
  8
CENTERLINE
100
AcDbLine
 10
124.12
 20
472.3408
 30
0.0
 11
89.56
 21
474.6736
 31
0.0
  0
LINE
  5
139
330
17
100
AcDbEntity
  8
CENTERLINE
100
AcDbLine
 10
89.56
 20
474.6736
 30
0.0
 11
72.27999999999997
 21
477.0064
 31
0.0
  0
LINE
  5
13A
330
17
100
AcDbEntity
  8
CENTERLINE
100
AcDbLine
 10
72.27999999999997
 20
477.0064
 30
0.0
 11
55.0
 21
482.644
 31
0.0
  0
LINE
  5
13B
330
17
100
AcDbEntity
  8
SPAR
100
AcDbLine
 10
124.12
 20
492.7528
 30
0.0
 11
89.56
 21
493.6276
 31
0.0
  0
LINE
  5
13C
330
17
100
AcDbEntity
  8
SPAR
100
AcDbLine
 10
89.56
 20
493.6276
 30
0.0
 11
72.27999999999997
 21
494.5024
 31
0.0
  0
LINE
  5
13D
330
17
100
AcDbEntity
  8
SPAR
100
AcDbLine
 10
72.27999999999997
 20
494.5024
 30
0.0
 11
55.0
 21
496.6165
 31
0.0
  0
LINE
  5
13E
330
17
100
AcDbEntity
  8
CENTERLINE
100
AcDbLine
 10
400.6
 20
464.176
 30
0.0
 11
193.24
 21
468.84159999999997
 31
0.0
  0
TEXT
  5
13F
330
17
100
AcDbEntity
  8
TEXT
100
AcDbText
 10
288.92
 20
454.50879999999995
 30
0.0
 40
2.0
  1
FLAP
 11
288.92
 21
454.50879999999995
 31
0.0
100
AcDbText
  0
LINE
  5
140
330
17
100
AcDbEntity
  8
CENTERLINE
100
AcDbLine
 10
193.24
 20
468.84159999999997
 30
0.0
 11
55.0
 21
482.644
 31
0.0
  0
TEXT
  5
141
330
17
100
AcDbEntity
  8
TEXT
100
AcDbText
 10
116.12
 20
463.7428
 30
0.0
 40
2.0
  1
AILERON
 11
116.12
 21
463.7428
 31
0.0
100
AcDbText
  0
LINE
  5
142
330
17
100
AcDbEntity
  8
OUTLINE
100
AcDbLine
 10
410.86
 20
505.0
 30
0.0
 11
479.98
 21
505.0
 31
0.0
  0
LINE
  5
143
330
17
100
AcDbEntity
  8
OUTLINE
100
AcDbLine
 10
410.86
 20
448.3
 30
0.0
 11
479.98
 21
449.92
 31
0.0
  0
LINE
  5
144
330
17
100
AcDbEntity
  8
OUTLINE
100
AcDbLine
 10
479.98
 20
505.0
 30
0.0
 11
549.1
 21
505.0
 31
0.0
  0
LINE
  5
145
330
17
100
AcDbEntity
  8
OUTLINE
100
AcDbLine
 10
479.98
 20
449.92
 30
0.0
 11
549.1
 21
451.54
 31
0.0
  0
LINE
  5
146
330
17
100
AcDbEntity
  8
OUTLINE
100
AcDbLine
 10
549.1
 20
505.0
 30
0.0
 11
583.6600000000001
 21
505.0
 31
0.0
  0
LINE
  5
147
330
17
100
AcDbEntity
  8
OUTLINE
100
AcDbLine
 10
549.1
 20
451.54
 30
0.0
 11
583.6600000000001
 21
453.15999999999997
 31
0.0
  0
LINE
  5
148
330
17
100
AcDbEntity
  8
OUTLINE
100
AcDbLine
 10
583.6600000000001
 20
505.0
 30
0.0
 11
618.22
 21
505.0
 31
0.0
  0
LINE
  5
149
330
17
100
AcDbEntity
  8
OUTLINE
100
AcDbLine
 10
583.6600000000001
 20
453.15999999999997
 30
0.0
 11
618.22
 21
454.78
 31
0.0
  0
LINE
  5
14A
330
17
100
AcDbEntity
  8
OUTLINE
100
AcDbLine
 10
618.22
 20
505.0
 30
0.0
 11
652.78
 21
505.0
 31
0.0
  0
LINE
  5
14B
330
17
100
AcDbEntity
  8
OUTLINE
100
AcDbLine
 10
618.22
 20
454.78
 30
0.0
 11
652.78
 21
456.4
 31
0.0
  0
LINE
  5
14C
330
17
100
AcDbEntity
  8
OUTLINE
100
AcDbLine
 10
652.78
 20
505.0
 30
0.0
 11
687.34
 21
505.0
 31
0.0
  0
LINE
  5
14D
330
17
100
AcDbEntity
  8
OUTLINE
100
AcDbLine
 10
652.78
 20
456.4
 30
0.0
 11
687.34
 21
459.64
 31
0.0
  0
LINE
  5
14E
330
17
100
AcDbEntity
  8
OUTLINE
100
AcDbLine
 10
687.34
 20
505.0
 30
0.0
 11
721.9000000000001
 21
505.0
 31
0.0
  0
LINE
  5
14F
330
17
100
AcDbEntity
  8
OUTLINE
100
AcDbLine
 10
687.34
 20
459.64
 30
0.0
 11
721.9000000000001
 21
462.88
 31
0.0
  0
LINE
  5
150
330
17
100
AcDbEntity
  8
OUTLINE
100
AcDbLine
 10
721.9000000000001
 20
505.0
 30
0.0
 11
739.1800000000001
 21
505.0
 31
0.0
  0
LINE
  5
151
330
17
100
AcDbEntity
  8
OUTLINE
100
AcDbLine
 10
721.9000000000001
 20
462.88
 30
0.0
 11
739.1800000000001
 21
466.12
 31
0.0
  0
LINE
  5
152
330
17
100
AcDbEntity
  8
OUTLINE
100
AcDbLine
 10
739.1800000000001
 20
505.0
 30
0.0
 11
756.46
 21
505.0
 31
0.0
  0
LINE
  5
153
330
17
100
AcDbEntity
  8
OUTLINE
100
AcDbLine
 10
739.1800000000001
 20
466.12
 30
0.0
 11
756.46
 21
473.95
 31
0.0
  0
LINE
  5
154
330
17
100
AcDbEntity
  8
OUTLINE
100
AcDbLine
 10
410.86
 20
505.0
 30
0.0
 11
410.86
 21
448.3
 31
0.0
  0
LINE
  5
155
330
17
100
AcDbEntity
  8
OUTLINE
100
AcDbLine
 10
756.46
 20
505.0
 30
0.0
 11
756.46
 21
473.95
 31
0.0
  0
LINE
  5
156
330
17
100
AcDbEntity
  8
SECTION
100
AcDbLine
 10
479.98
 20
505.0
 30
0.0
 11
479.98
 21
449.92
 31
0.0
  0
TEXT
  5
157
330
17
100
AcDbEntity
  8
TEXT
100
AcDbText
 10
467.98
 20
496.0
 30
0.0
 40
2.0
  1
P1
 11
467.98
 21
496.0
 31
0.0
100
AcDbText
  0
LINE
  5
158
330
17
100
AcDbEntity
  8
SECTION
100
AcDbLine
 10
549.1
 20
505.0
 30
0.0
 11
549.1
 21
451.54
 31
0.0
  0
TEXT
  5
159
330
17
100
AcDbEntity
  8
TEXT
100
AcDbText
 10
537.1
 20
496.0
 30
0.0
 40
2.0
  1
P2
 11
537.1
 21
496.0
 31
0.0
100
AcDbText
  0
LINE
  5
15A
330
17
100
AcDbEntity
  8
SECTION
100
AcDbLine
 10
618.22
 20
505.0
 30
0.0
 11
618.22
 21
454.78
 31
0.0
  0
TEXT
  5
15B
330
17
100
AcDbEntity
  8
TEXT
100
AcDbText
 10
606.22
 20
496.0
 30
0.0
 40
2.0
  1
P3
 11
606.22
 21
496.0
 31
0.0
100
AcDbText
  0
LINE
  5
15C
330
17
100
AcDbEntity
  8
SECTION
100
AcDbLine
 10
687.34
 20
505.0
 30
0.0
 11
687.34
 21
459.64
 31
0.0
  0
TEXT
  5
15D
330
17
100
AcDbEntity
  8
TEXT
100
AcDbText
 10
675.34
 20
496.0
 30
0.0
 40
2.0
  1
P4
 11
675.34
 21
496.0
 31
0.0
100
AcDbText
  0
TEXT
  5
15E
330
17
100
AcDbEntity
  8
TEXT
100
AcDbText
 10
738.46
 20
496.0
 30
0.0
 40
2.0
  1
P5
 11
738.46
 21
496.0
 31
0.0
100
AcDbText
  0
LINE
  5
15F
330
17
100
AcDbEntity
  8
SPAR
100
AcDbLine
 10
410.86
 20
490.825
 30
0.0
 11
479.98
 21
491.23
 31
0.0
  0
LINE
  5
160
330
17
100
AcDbEntity
  8
SPAR
100
AcDbLine
 10
479.98
 20
491.23
 30
0.0
 11
549.1
 21
491.635
 31
0.0
  0
LINE
  5
161
330
17
100
AcDbEntity
  8
SPAR
100
AcDbLine
 10
549.1
 20
491.635
 30
0.0
 11
583.6600000000001
 21
492.04
 31
0.0
  0
LINE
  5
162
330
17
100
AcDbEntity
  8
SPAR
100
AcDbLine
 10
583.6600000000001
 20
492.04
 30
0.0
 11
618.22
 21
492.445
 31
0.0
  0
LINE
  5
163
330
17
100
AcDbEntity
  8
SPAR
100
AcDbLine
 10
618.22
 20
492.445
 30
0.0
 11
652.78
 21
492.85
 31
0.0
  0
LINE
  5
164
330
17
100
AcDbEntity
  8
SPAR
100
AcDbLine
 10
652.78
 20
492.85
 30
0.0
 11
687.34
 21
493.66
 31
0.0
  0
LINE
  5
165
330
17
100
AcDbEntity
  8
SPAR
100
AcDbLine
 10
410.86
 20
470.98
 30
0.0
 11
479.98
 21
471.952
 31
0.0
  0
LINE
  5
166
330
17
100
AcDbEntity
  8
SPAR
100
AcDbLine
 10
479.98
 20
471.952
 30
0.0
 11
549.1
 21
472.924
 31
0.0
  0
LINE
  5
167
330
17
100
AcDbEntity
  8
SPAR
100
AcDbLine
 10
549.1
 20
472.924
 30
0.0
 11
583.6600000000001
 21
473.896
 31
0.0
  0
LINE
  5
168
330
17
100
AcDbEntity
  8
SPAR
100
AcDbLine
 10
583.6600000000001
 20
473.896
 30
0.0
 11
618.22
 21
474.868
 31
0.0
  0
LINE
  5
169
330
17
100
AcDbEntity
  8
SPAR
100
AcDbLine
 10
618.22
 20
474.868
 30
0.0
 11
652.78
 21
475.84
 31
0.0
  0
LINE
  5
16A
330
17
100
AcDbEntity
  8
SPAR
100
AcDbLine
 10
652.78
 20
475.84
 30
0.0
 11
687.34
 21
477.784
 31
0.0
  0
LINE
  5
16B
330
17
100
AcDbEntity
  8
CENTERLINE
100
AcDbLine
 10
410.86
 20
464.176
 30
0.0
 11
479.98
 21
465.3424
 31
0.0
  0
LINE
  5
16C
330
17
100
AcDbEntity
  8
CENTERLINE
100
AcDbLine
 10
479.98
 20
465.3424
 30
0.0
 11
549.1
 21
466.5088
 31
0.0
  0
LINE
  5
16D
330
17
100
AcDbEntity
  8
CENTERLINE
100
AcDbLine
 10
549.1
 20
466.5088
 30
0.0
 11
583.6600000000001
 21
467.6752
 31
0.0
  0
LINE
  5
16E
330
17
100
AcDbEntity
  8
CENTERLINE
100
AcDbLine
 10
583.6600000000001
 20
467.6752
 30
0.0
 11
618.22
 21
468.84159999999997
 31
0.0
  0
LINE
  5
16F
330
17
100
AcDbEntity
  8
CENTERLINE
100
AcDbLine
 10
618.22
 20
468.84159999999997
 30
0.0
 11
652.78
 21
470.008
 31
0.0
  0
LINE
  5
170
330
17
100
AcDbEntity
  8
CENTERLINE
100
AcDbLine
 10
652.78
 20
470.008
 30
0.0
 11
687.34
 21
472.3408
 31
0.0
  0
LINE
  5
171
330
17
100
AcDbEntity
  8
CENTERLINE
100
AcDbLine
 10
687.34
 20
472.3408
 30
0.0
 11
721.9000000000001
 21
474.6736
 31
0.0
  0
LINE
  5
172
330
17
100
AcDbEntity
  8
CENTERLINE
100
AcDbLine
 10
721.9000000000001
 20
474.6736
 30
0.0
 11
739.1800000000001
 21
477.0064
 31
0.0
  0
LINE
  5
173
330
17
100
AcDbEntity
  8
CENTERLINE
100
AcDbLine
 10
739.1800000000001
 20
477.0064
 30
0.0
 11
756.46
 21
482.644
 31
0.0
  0
LINE
  5
174
330
17
100
AcDbEntity
  8
SPAR
100
AcDbLine
 10
687.34
 20
492.7528
 30
0.0
 11
721.9000000000001
 21
493.6276
 31
0.0
  0
LINE
  5
175
330
17
100
AcDbEntity
  8
SPAR
100
AcDbLine
 10
721.9000000000001
 20
493.6276
 30
0.0
 11
739.1800000000001
 21
494.5024
 31
0.0
  0
LINE
  5
176
330
17
100
AcDbEntity
  8
SPAR
100
AcDbLine
 10
739.1800000000001
 20
494.5024
 30
0.0
 11
756.46
 21
496.6165
 31
0.0
  0
LINE
  5
177
330
17
100
AcDbEntity
  8
CENTERLINE
100
AcDbLine
 10
410.86
 20
464.176
 30
0.0
 11
618.22
 21
468.84159999999997
 31
0.0
  0
TEXT
  5
178
330
17
100
AcDbEntity
  8
TEXT
100
AcDbText
 10
506.53999999999996
 20
454.50879999999995
 30
0.0
 40
2.0
  1
FLAP
 11
506.53999999999996
 21
454.50879999999995
 31
0.0
100
AcDbText
  0
LINE
  5
179
330
17
100
AcDbEntity
  8
CENTERLINE
100
AcDbLine
 10
618.22
 20
468.84159999999997
 30
0.0
 11
756.46
 21
482.644
 31
0.0
  0
TEXT
  5
17A
330
17
100
AcDbEntity
  8
TEXT
100
AcDbText
 10
679.34
 20
463.7428
 30
0.0
 40
2.0
  1
AILERON
 11
679.34
 21
463.7428
 31
0.0
100
AcDbText
  0
LINE
  5
17B
330
17
100
AcDbEntity
  8
CENTERLINE
100
AcDbLine
 10
400.6
 20
515.0
 30
0.0
 11
400.6
 21
438.3
 31
0.0
  0
LINE
  5
17C
330
17
100
AcDbEntity
  8
CENTERLINE
100
AcDbLine
 10
410.86
 20
515.0
 30
0.0
 11
410.86
 21
438.3
 31
0.0
  0
TEXT
  5
17D
330
17
100
AcDbEntity
  8
TEXT
100
AcDbText
 10
55.0
 20
255.0
 30
0.0
 40
3.4
  1
FRONT VIEW — FULL SPAN POLYHEDRAL
 11
55.0
 21
255.0
 31
0.0
100
AcDbText
  0
LINE
  5
17E
330
17
100
AcDbEntity
  8
OUTLINE
100
AcDbLine
 10
55.0
 20
255.0
 30
0.0
 11
124.12
 21
229.0
 31
0.0
  0
LINE
  5
17F
330
17
100
AcDbEntity
  8
OUTLINE
100
AcDbLine
 10
124.12
 20
229.0
 30
0.0
 11
193.24
 21
213.0
 31
0.0
  0
LINE
  5
180
330
17
100
AcDbEntity
  8
OUTLINE
100
AcDbLine
 10
193.24
 20
213.0
 30
0.0
 11
262.36
 21
205.0
 31
0.0
  0
LINE
  5
181
330
17
100
AcDbEntity
  8
OUTLINE
100
AcDbLine
 10
262.36
 20
205.0
 30
0.0
 11
331.48
 21
205.0
 31
0.0
  0
LINE
  5
182
330
17
100
AcDbEntity
  8
OUTLINE
100
AcDbLine
 10
331.48
 20
205.0
 30
0.0
 11
400.6
 21
205.0
 31
0.0
  0
LINE
  5
183
330
17
100
AcDbEntity
  8
OUTLINE
100
AcDbLine
 10
400.6
 20
205.0
 30
0.0
 11
410.86
 21
205.0
 31
0.0
  0
LINE
  5
184
330
17
100
AcDbEntity
  8
OUTLINE
100
AcDbLine
 10
410.86
 20
205.0
 30
0.0
 11
479.98
 21
205.0
 31
0.0
  0
LINE
  5
185
330
17
100
AcDbEntity
  8
OUTLINE
100
AcDbLine
 10
479.98
 20
205.0
 30
0.0
 11
549.1
 21
205.0
 31
0.0
  0
LINE
  5
186
330
17
100
AcDbEntity
  8
OUTLINE
100
AcDbLine
 10
549.1
 20
205.0
 30
0.0
 11
618.22
 21
213.0
 31
0.0
  0
LINE
  5
187
330
17
100
AcDbEntity
  8
OUTLINE
100
AcDbLine
 10
618.22
 20
213.0
 30
0.0
 11
687.34
 21
229.0
 31
0.0
  0
LINE
  5
188
330
17
100
AcDbEntity
  8
OUTLINE
100
AcDbLine
 10
687.34
 20
229.0
 30
0.0
 11
756.46
 21
255.0
 31
0.0
  0
LINE
  5
189
330
17
100
AcDbEntity
  8
SECTION
100
AcDbLine
 10
410.86
 20
195.0
 30
0.0
 11
410.86
 21
213.0
 31
0.0
  0
TEXT
  5
18A
330
17
100
AcDbEntity
  8
TEXT
100
AcDbText
 10
412.86
 20
215.0
 30
0.0
 40
1.8
  1
0.0°
 11
412.86
 21
215.0
 31
0.0
100
AcDbText
  0
LINE
  5
18B
330
17
100
AcDbEntity
  8
SECTION
100
AcDbLine
 10
479.98
 20
195.0
 30
0.0
 11
479.98
 21
213.0
 31
0.0
  0
TEXT
  5
18C
330
17
100
AcDbEntity
  8
TEXT
100
AcDbText
 10
481.98
 20
215.0
 30
0.0
 40
1.8
  1
0.0°
 11
481.98
 21
215.0
 31
0.0
100
AcDbText
  0
LINE
  5
18D
330
17
100
AcDbEntity
  8
SECTION
100
AcDbLine
 10
331.48
 20
195.0
 30
0.0
 11
331.48
 21
213.0
 31
0.0
  0
LINE
  5
18E
330
17
100
AcDbEntity
  8
SECTION
100
AcDbLine
 10
549.1
 20
195.0
 30
0.0
 11
549.1
 21
213.0
 31
0.0
  0
TEXT
  5
18F
330
17
100
AcDbEntity
  8
TEXT
100
AcDbText
 10
551.1
 20
215.0
 30
0.0
 40
1.8
  1
1.5°
 11
551.1
 21
215.0
 31
0.0
100
AcDbText
  0
LINE
  5
190
330
17
100
AcDbEntity
  8
SECTION
100
AcDbLine
 10
262.36
 20
195.0
 30
0.0
 11
262.36
 21
213.0
 31
0.0
  0
LINE
  5
191
330
17
100
AcDbEntity
  8
SECTION
100
AcDbLine
 10
618.22
 20
195.0
 30
0.0
 11
618.22
 21
221.0
 31
0.0
  0
TEXT
  5
192
330
17
100
AcDbEntity
  8
TEXT
100
AcDbText
 10
620.22
 20
223.0
 30
0.0
 40
1.8
  1
2.5°
 11
620.22
 21
223.0
 31
0.0
100
AcDbText
  0
LINE
  5
193
330
17
100
AcDbEntity
  8
SECTION
100
AcDbLine
 10
193.24
 20
195.0
 30
0.0
 11
193.24
 21
221.0
 31
0.0
  0
LINE
  5
194
330
17
100
AcDbEntity
  8
SECTION
100
AcDbLine
 10
687.34
 20
195.0
 30
0.0
 11
687.34
 21
237.0
 31
0.0
  0
TEXT
  5
195
330
17
100
AcDbEntity
  8
TEXT
100
AcDbText
 10
689.34
 20
239.0
 30
0.0
 40
1.8
  1
7.0°
 11
689.34
 21
239.0
 31
0.0
100
AcDbText
  0
LINE
  5
196
330
17
100
AcDbEntity
  8
SECTION
100
AcDbLine
 10
124.12
 20
195.0
 30
0.0
 11
124.12
 21
237.0
 31
0.0
  0
LINE
  5
197
330
17
100
AcDbEntity
  8
SECTION
100
AcDbLine
 10
756.46
 20
195.0
 30
0.0
 11
756.46
 21
263.0
 31
0.0
  0
LINE
  5
198
330
17
100
AcDbEntity
  8
SECTION
100
AcDbLine
 10
55.0
 20
195.0
 30
0.0
 11
55.0
 21
263.0
 31
0.0
  0
TEXT
  5
199
330
17
100
AcDbEntity
  8
TEXT
100
AcDbText
 10
625.0
 20
255.0
 30
0.0
 40
3.4
  1
PROFILE DETAILS — ROOT / TIP AIRFOIL
 11
625.0
 21
255.0
 31
0.0
100
AcDbText
  0
LWPOLYLINE
  5
19A
330
17
100
AcDbEntity
  8
OUTLINE
100
AcDbPolyline
 90
122
 70
1
 10
635.0
 20
210.0
 10
635.945
 20
210.1276002949159
 10
636.89
 20
210.25485084629287
 10
637.835
 20
210.38140286921458
 10
638.78
 20
210.50690949338278
 10
639.725
 20
210.63102671386446
 10
640.67
 20
210.75341433398555
 10
641.615
 20
210.8737368977864
 10
642.56
 20
210.9916646094831
 10
643.505
 20
211.10687423741498
 10
644.45
 20
211.21905
 10
645.395
 20
211.32788443127015
 10
646.34
 20
211.43307922361427
 10
647.285
 20
211.5343460454186
 10
648.23
 20
211.63140733136353
 10
649.175
 20
211.72399704321091
 10
650.12
 20
211.81186139899643
 10
651.065
 20
211.89475956862825
 10
652.01
 20
211.97246433398556
 10
652.955
 20
212.04476271170773
 10
653.9
 20
212.11145653696684
 10
654.845
 20
212.17236300662367
 10
655.79
 20
212.22731518027842
 10
656.735
 20
212.27616243784283
 10
657.68
 20
212.3187708923792
 10
658.625
 20
212.35502375707537
 10
659.57
 20
212.38482166534908
 10
660.515
 20
212.40808294320502
 10
661.46
 20
212.42474383309738
 10
662.405
 20
212.43475866868513
 10
663.35
 20
212.4381
 10
664.295
 20
212.43475866868513
 10
665.24
 20
212.42474383309738
 10
666.185
 20
212.40808294320502
 10
667.13
 20
212.38482166534908
 10
668.075
 20
212.35502375707537
 10
669.02
 20
212.3187708923792
 10
669.965
 20
212.27616243784283
 10
670.91
 20
212.22731518027842
 10
671.855
 20
212.17236300662367
 10
672.8
 20
212.11145653696684
 10
673.745
 20
212.04476271170773
 10
674.69
 20
211.97246433398556
 10
675.635
 20
211.89475956862825
 10
676.58
 20
211.81186139899643
 10
677.525
 20
211.72399704321091
 10
678.47
 20
211.63140733136353
 10
679.415
 20
211.5343460454186
 10
680.36
 20
211.43307922361427
 10
681.305
 20
211.32788443127015
 10
682.25
 20
211.21905
 10
683.195
 20
211.10687423741498
 10
684.14
 20
210.9916646094831
 10
685.085
 20
210.8737368977864
 10
686.03
 20
210.75341433398555
 10
686.975
 20
210.63102671386446
 10
687.92
 20
210.50690949338278
 10
688.865
 20
210.38140286921458
 10
689.8100000000001
 20
210.25485084629287
 10
690.755
 20
210.1276002949159
 10
691.7
 20
210.0
 10
691.7
 20
210.0
 10
690.755
 20
209.8723997050841
 10
689.8100000000001
 20
209.74514915370713
 10
688.865
 20
209.61859713078542
 10
687.9200000000001
 20
209.49309050661722
 10
686.975
 20
209.36897328613554
 10
686.0300000000001
 20
209.24658566601445
 10
685.085
 20
209.1262631022136
 10
684.1400000000001
 20
209.0083353905169
 10
683.195
 20
208.89312576258502
 10
682.25
 20
208.78095
 10
681.3050000000001
 20
208.67211556872985
 10
680.36
 20
208.56692077638573
 10
679.4150000000001
 20
208.4656539545814
 10
678.47
 20
208.36859266863647
 10
677.5250000000001
 20
208.27600295678909
 10
676.58
 20
208.18813860100357
 10
675.635
 20
208.10524043137175
 10
674.69
 20
208.02753566601444
 10
673.745
 20
207.95523728829227
 10
672.8000000000001
 20
207.88854346303316
 10
671.855
 20
207.82763699337633
 10
670.9100000000001
 20
207.77268481972158
 10
669.965
 20
207.72383756215717
 10
669.0200000000001
 20
207.6812291076208
 10
668.075
 20
207.64497624292463
 10
667.13
 20
207.61517833465092
 10
666.1850000000001
 20
207.59191705679498
 10
665.24
 20
207.57525616690262
 10
664.2950000000001
 20
207.56524133131487
 10
663.35
 20
207.5619
 10
662.4050000000001
 20
207.56524133131487
 10
661.46
 20
207.57525616690262
 10
660.5150000000001
 20
207.59191705679498
 10
659.57
 20
207.61517833465092
 10
658.625
 20
207.64497624292463
 10
657.6800000000001
 20
207.6812291076208
 10
656.735
 20
207.72383756215717
 10
655.7900000000001
 20
207.77268481972158
 10
654.845
 20
207.82763699337633
 10
653.9000000000001
 20
207.88854346303316
 10
652.955
 20
207.95523728829227
 10
652.01
 20
208.02753566601444
 10
651.065
 20
208.10524043137175
 10
650.12
 20
208.18813860100357
 10
649.1750000000001
 20
208.27600295678909
 10
648.23
 20
208.36859266863647
 10
647.2850000000001
 20
208.4656539545814
 10
646.34
 20
208.56692077638573
 10
645.3950000000001
 20
208.67211556872985
 10
644.45
 20
208.78095
 10
643.505
 20
208.89312576258502
 10
642.5600000000001
 20
209.0083353905169
 10
641.615
 20
209.1262631022136
 10
640.6700000000001
 20
209.24658566601445
 10
639.725
 20
209.36897328613554
 10
638.7800000000001
 20
209.49309050661722
 10
637.835
 20
209.61859713078542
 10
636.89
 20
209.74514915370713
 10
635.945
 20
209.8723997050841
 10
635.0
 20
210.0
  0
LWPOLYLINE
  5
19B
330
17
100
AcDbEntity
  8
OUTLINE
100
AcDbPolyline
 90
122
 70
1
 10
635.0
 20
155.0
 10
635.5175
 20
155.052001006123
 10
636.035
 20
155.10385948110275
 10
636.5525
 20
155.15543328446398
 10
637.07
 20
155.20658105599654
 10
637.5875
 20
155.25716260321386
 10
638.105
 20
155.30703928561095
 10
638.6225
 20
155.3560743946682
 10
639.14
 20
155.40413352856012
 10
639.6575
 20
155.4510849605412
 10
640.175
 20
155.4968
 10
640.6925
 20
155.54115334519093
 10
641.21
 20
155.5840234266778
 10
641.7275
 20
155.6252927405471
 10
642.245
 20
155.66484817047817
 10
642.7625
 20
155.70258129778696
 10
643.28
 20
155.73838869859435
 10
643.7975
 20
155.77217222730366
 10
644.315
 20
155.80383928561093
 10
644.8325
 20
155.83330307631059
 10
645.35
 20
155.86048284120022
 10
645.8675
 20
155.88530408243355
 10
646.385
 20
155.90769876671368
 10
646.9025
 20
155.9276055117676
 10
647.42
 20
155.94496975459086
 10
647.9375
 20
155.95974390100082
 10
648.455
 20
155.97188745608912
 10
648.9725
 20
155.98136713521532
 10
649.49
 20
155.9881569552379
 10
650.0075
 20
155.99223830573214
 10
650.525
 20
155.9936
 10
651.0425
 20
155.99223830573214
 10
651.56
 20
155.9881569552379
 10
652.0775
 20
155.98136713521532
 10
652.595
 20
155.97188745608912
 10
653.1125
 20
155.95974390100082
 10
653.63
 20
155.94496975459086
 10
654.1475
 20
155.9276055117676
 10
654.665
 20
155.90769876671368
 10
655.1825
 20
155.88530408243355
 10
655.7
 20
155.86048284120022
 10
656.2175
 20
155.83330307631059
 10
656.735
 20
155.80383928561093
 10
657.2525
 20
155.77217222730366
 10
657.77
 20
155.73838869859435
 10
658.2875
 20
155.70258129778696
 10
658.805
 20
155.66484817047817
 10
659.3225
 20
155.6252927405471
 10
659.84
 20
155.5840234266778
 10
660.3575
 20
155.54115334519093
 10
660.875
 20
155.4968
 10
661.3925
 20
155.4510849605412
 10
661.91
 20
155.40413352856012
 10
662.4275
 20
155.3560743946682
 10
662.945
 20
155.30703928561095
 10
663.4625
 20
155.25716260321386
 10
663.98
 20
155.20658105599654
 10
664.4975
 20
155.15543328446398
 10
665.015
 20
155.10385948110275
 10
665.5325
 20
155.052001006123
 10
666.05
 20
155.0
 10
666.05
 20
155.0
 10
665.5324999999999
 20
154.947998993877
 10
665.015
 20
154.89614051889725
 10
664.4975
 20
154.84456671553602
 10
663.9799999999999
 20
154.79341894400346
 10
663.4625
 20
154.74283739678614
 10
662.9449999999999
 20
154.69296071438905
 10
662.4275
 20
154.6439256053318
 10
661.91
 20
154.59586647143988
 10
661.3924999999999
 20
154.5489150394588
 10
660.875
 20
154.5032
 10
660.3575
 20
154.45884665480907
 10
659.8399999999999
 20
154.4159765733222
 10
659.3225
 20
154.3747072594529
 10
658.805
 20
154.33515182952183
 10
658.2874999999999
 20
154.29741870221304
 10
657.77
 20
154.26161130140565
 10
657.2524999999999
 20
154.22782777269634
 10
656.7349999999999
 20
154.19616071438907
 10
656.2175
 20
154.16669692368941
 10
655.6999999999999
 20
154.13951715879978
 10
655.1825
 20
154.11469591756645
 10
654.665
 20
154.09230123328632
 10
654.1474999999999
 20
154.0723944882324
 10
653.63
 20
154.05503024540914
 10
653.1125
 20
154.04025609899918
 10
652.5949999999999
 20
154.02811254391088
 10
652.0775
 20
154.01863286478468
 10
651.56
 20
154.0118430447621
 10
651.0424999999999
 20
154.00776169426786
 10
650.525
 20
154.0064
 10
650.0074999999999
 20
154.00776169426786
 10
649.49
 20
154.0118430447621
 10
648.9725
 20
154.01863286478468
 10
648.4549999999999
 20
154.02811254391088
 10
647.9375
 20
154.04025609899918
 10
647.42
 20
154.05503024540914
 10
646.9024999999999
 20
154.0723944882324
 10
646.385
 20
154.09230123328632
 10
645.8675
 20
154.11469591756645
 10
645.3499999999999
 20
154.13951715879978
 10
644.8325
 20
154.16669692368941
 10
644.3149999999999
 20
154.19616071438907
 10
643.7974999999999
 20
154.22782777269634
 10
643.28
 20
154.26161130140565
 10
642.7624999999999
 20
154.29741870221304
 10
642.245
 20
154.33515182952183
 10
641.7275
 20
154.3747072594529
 10
641.2099999999999
 20
154.4159765733222
 10
640.6925
 20
154.45884665480907
 10
640.175
 20
154.5032
 10
639.6574999999999
 20
154.5489150394588
 10
639.14
 20
154.59586647143988
 10
638.6225
 20
154.6439256053318
 10
638.1049999999999
 20
154.69296071438905
 10
637.5875
 20
154.74283739678614
 10
637.0699999999999
 20
154.79341894400346
 10
636.5525
 20
154.84456671553602
 10
636.035
 20
154.89614051889725
 10
635.5174999999999
 20
154.947998993877
 10
635.0
 20
155.0
  0
TEXT
  5
19C
330
17
100
AcDbEntity
  8
TEXT
100
AcDbText
 10
645.0
 20
224.0
 30
0.0
 40
2.1
  1
ROOT PROFILE
 11
645.0
 21
224.0
 31
0.0
100
AcDbText
  0
TEXT
  5
19D
330
17
100
AcDbEntity
  8
TEXT
100
AcDbText
 10
645.0
 20
169.0
 30
0.0
 40
2.1
  1
TIP PROFILE
 11
645.0
 21
169.0
 31
0.0
100
AcDbText
  0
LINE
  5
19E
330
17
100
AcDbEntity
  8
SPAR
100
AcDbLine
 10
649.175
 20
203.5619
 30
0.0
 11
649.175
 21
216.4381
 31
0.0
  0
LINE
  5
19F
330
17
100
AcDbEntity
  8
SPAR
100
AcDbLine
 10
669.02
 20
203.5619
 30
0.0
 11
669.02
 21
216.4381
 31
0.0
  0
LINE
  5
1A0
330
17
100
AcDbEntity
  8
CENTERLINE
100
AcDbLine
 10
675.824
 20
203.5619
 30
0.0
 11
675.824
 21
216.4381
 31
0.0
  0
DIMENSION
  5
1A1
330
17
100
AcDbEntity
  8
DIMENSION
100
AcDbDimension
280
0
  2
*D1
  3
EZDXF
 10
55.0
 20
105.0
 30
0.0
 11
405.73
 21
105.225
 31
0.0
 70
32
 71
5
  1
<>
100
AcDbAlignedDimension
 13
55.0
 23
113.0
 33
0.0
 14
756.46
 24
113.0
 34
0.0
 50
0.0
100
AcDbRotatedDimension
  0
DIMENSION
  5
1B0
330
17
100
AcDbEntity
  8
DIMENSION
100
AcDbDimension
280
0
  2
*D2
  3
EZDXF
 10
58.0
 20
505.0
 30
0.0
 11
58.225
 21
476.65
 31
0.0
 70
32
 71
5
  1
<>
100
AcDbAlignedDimension
 13
66.0
 23
505.0
 33
0.0
 14
66.0
 24
448.3
 34
0.0
 50
90.0
100
AcDbRotatedDimension
  0
DIMENSION
  5
1BF
330
17
100
AcDbEntity
  8
DIMENSION
100
AcDbDimension
280
0
  2
*D3
  3
EZDXF
 10
400.6
 20
523.0
 30
0.0
 11
405.73
 21
523.225
 31
0.0
 70
32
 71
5
  1
<>
100
AcDbAlignedDimension
 13
400.6
 23
515.0
 33
0.0
 14
410.86
 24
515.0
 34
0.0
 50
0.0
100
AcDbRotatedDimension
  0
TEXT
  5
1CE
330
17
100
AcDbEntity
  8
TEXT
100
AcDbText
 10
95.0
 20
72.0
 30
0.0
 40
2.2
  1
Baseline assembly only. Re-open planform optimization before next panel generation.
 11
95.0
 21
72.0
 31
0.0
100
AcDbText
  0
TEXT
  5
1CF
330
17
100
AcDbEntity
  8
TEXT
100
AcDbText
 10
250.0
 20
145.0
 30
0.0
 40
2.0
  1
Flap zone: P1-P3
 11
250.0
 21
145.0
 31
0.0
100
AcDbText
  0
TEXT
  5
1D0
330
17
100
AcDbEntity
  8
TEXT
100
AcDbText
 10
430.0
 20
145.0
 30
0.0
 40
2.0
  1
Aileron zone: P4-P5
 11
430.0
 21
145.0
 31
0.0
100
AcDbText
  0
TEXT
  5
1D1
330
17
100
AcDbEntity
  8
TEXT
100
AcDbText
 10
285.0
 20
125.0
 30
0.0
 40
2.0
  1
Fuselage center gap shown between root faces
 11
285.0
 21
125.0
 31
0.0
100
AcDbText
  0
TEXT
  5
1D2
330
17
100
AcDbEntity
  8
TEXT
100
AcDbText
 10
250.0
 20
105.0
 30
0.0
 40
2.0
  1
8mm main spar visible to root; carry-through/joiner region at center
 11
250.0
 21
105.0
 31
0.0
100
AcDbText
  0
TEXT
  5
1D3
330
17
100
AcDbEntity
  8
TEXT
100
AcDbText
 10
590.0
 20
505.0
 30
0.0
 40
2.8
  1
ROOT DETAIL — CENTER GAP / SPAR REGION
 11
590.0
 21
505.0
 31
0.0
100
AcDbText
  0
LINE
  5
1D4
330
17
100
AcDbEntity
  8
OUTLINE
100
AcDbLine
 10
600.0
 20
485.0
 30
0.0
 11
600.0
 21
414.125
 31
0.0
  0
LINE
  5
1D5
330
17
100
AcDbEntity
  8
OUTLINE
100
AcDbLine
 10
682.825
 20
485.0
 30
0.0
 11
682.825
 21
414.125
 31
0.0
  0
LINE
  5
1D6
330
17
100
AcDbEntity
  8
SPAR
100
AcDbLine
 10
572.0
 20
467.28125
 30
0.0
 11
600.0
 21
467.28125
 31
0.0
  0
LINE
  5
1D7
330
17
100
AcDbEntity
  8
SPAR
100
AcDbLine
 10
682.825
 20
467.28125
 30
0.0
 11
710.825
 21
467.28125
 31
0.0
  0
TEXT
  5
1D8
330
17
100
AcDbEntity
  8
TEXT
100
AcDbText
 10
714.825
 20
466.28125
 30
0.0
 40
1.6
  1
8mm MAIN
 11
714.825
 21
466.28125
 31
0.0
100
AcDbText
  0
LINE
  5
1D9
330
17
100
AcDbEntity
  8
SPAR
100
AcDbLine
 10
572.0
 20
442.475
 30
0.0
 11
600.0
 21
442.475
 31
0.0
  0
LINE
  5
1DA
330
17
100
AcDbEntity
  8
SPAR
100
AcDbLine
 10
682.825
 20
442.475
 30
0.0
 11
710.825
 21
442.475
 31
0.0
  0
TEXT
  5
1DB
330
17
100
AcDbEntity
  8
TEXT
100
AcDbText
 10
714.825
 20
441.475
 30
0.0
 40
1.6
  1
REAR 5x3
 11
714.825
 21
441.475
 31
0.0
100
AcDbText
  0
LINE
  5
1DC
330
17
100
AcDbEntity
  8
CENTERLINE
100
AcDbLine
 10
572.0
 20
433.97
 30
0.0
 11
600.0
 21
433.97
 31
0.0
  0
LINE
  5
1DD
330
17
100
AcDbEntity
  8
CENTERLINE
100
AcDbLine
 10
682.825
 20
433.97
 30
0.0
 11
710.825
 21
433.97
 31
0.0
  0
TEXT
  5
1DE
330
17
100
AcDbEntity
  8
TEXT
100
AcDbText
 10
714.825
 20
432.97
 30
0.0
 40
1.6
  1
HINGE
 11
714.825
 21
432.97
 31
0.0
100
AcDbText
  0
ENDSEC
  0
SECTION
  2
OBJECTS
  0
DICTIONARY
  5
A
330
0
100
AcDbDictionary
281
1
  3
ACAD_COLOR
350
B
  3
ACAD_GROUP
350
C
  3
ACAD_LAYOUT
350
D
  3
ACAD_MATERIAL
350
E
  3
ACAD_MLEADERSTYLE
350
F
  3
ACAD_MLINESTYLE
350
10
  3
ACAD_PLOTSETTINGS
350
11
  3
ACAD_PLOTSTYLENAME
350
12
  3
ACAD_SCALELIST
350
14
  3
ACAD_TABLESTYLE
350
15
  3
ACAD_VISUALSTYLE
350
16
  3
EZDXF_META
350
2D
  0
DICTIONARY
  5
B
330
A
100
AcDbDictionary
281
1
  0
DICTIONARY
  5
C
330
A
100
AcDbDictionary
281
1
  0
DICTIONARY
  5
D
330
A
100
AcDbDictionary
281
1
  3
Model
350
1A
  3
Layout1
350
1E
  0
DICTIONARY
  5
E
330
A
100
AcDbDictionary
281
1
  3
ByBlock
350
1F
  3
ByLayer
350
20
  3
Global
350
21
  0
DICTIONARY
  5
F
330
A
100
AcDbDictionary
281
1
  3
Standard
350
2C
  0
DICTIONARY
  5
10
330
A
100
AcDbDictionary
281
1
  3
Standard
350
22
  0
DICTIONARY
  5
11
330
A
100
AcDbDictionary
281
1
  0
ACDBDICTIONARYWDFLT
  5
12
330
A
100
AcDbDictionary
281
1
  3
Normal
350
13
100
AcDbDictionaryWithDefault
340
13
  0
ACDBPLACEHOLDER
  5
13
330
12
  0
DICTIONARY
  5
14
330
A
100
AcDbDictionary
281
1
  0
DICTIONARY
  5
15
330
A
100
AcDbDictionary
281
1
  0
DICTIONARY
  5
16
330
A
100
AcDbDictionary
281
1
  3
2dWireframe
350
5A
  3
Basic
350
5B
  3
Brighten
350
5C
  3
ColorChange
350
5D
  3
Conceptual
350
5E
  3
Dim
350
5F
  3
EdgeColorOff
350
60
  3
Facepattern
350
61
  3
Flat
350
62
  3
FlatWithEdges
350
63
  3
Gouraud
350
64
  3
GouraudWithEdges
350
65
  3
Hidden
350
66
  3
JitterOff
350
67
  3
Linepattern
350
68
  3
Modeling
350
69
  3
OverhangOff
350
6A
  3
Realistic
350
6B
  3
Shaded
350
6C
  3
Shaded with edges
350
6D
  3
Shades of Gray
350
6E
  3
Sketchy
350
6F
  3
Thicken
350
70
  3
Wireframe
350
71
  3
X-Ray
350
72
  0
LAYOUT
  5
1A
330
D
100
AcDbPlotSettings
  1

  4
A3
  6

 40
7.5
 41
20.0
 42
7.5
 43
20.0
 44
420.0
 45
297.0
 46
0.0
 47
0.0
 48
0.0
 49
0.0
140
0.0
141
0.0
142
1.0
143
1.0
 70
1024
 72
1
 73
0
 74
5
  7

 75
16
 76
0
 77
2
 78
300
147
1.0
148
0.0
149
0.0
100
AcDbLayout
  1
Model
 70
1
 71
0
 10
0.0
 20
0.0
 11
420.0
 21
297.0
 12
0.0
 22
0.0
 32
0.0
 14
1e+20
 24
1e+20
 34
1e+20
 15
-1e+20
 25
-1e+20
 35
-1e+20
146
0.0
 13
0.0
 23
0.0
 33
0.0
 16
1.0
 26
0.0
 36
0.0
 17
0.0
 27
1.0
 37
0.0
 76
1
330
17
  0
LAYOUT
  5
1E
330
D
100
AcDbPlotSettings
  1

  4
A3
  6

 40
7.5
 41
20.0
 42
7.5
 43
20.0
 44
420.0
 45
297.0
 46
0.0
 47
0.0
 48
0.0
 49
0.0
140
0.0
141
0.0
142
1.0
143
1.0
 70
0
 72
1
 73
0
 74
5
  7

 75
16
 76
0
 77
2
 78
300
147
1.0
148
0.0
149
0.0
100
AcDbLayout
  1
Layout1
 70
1
 71
1
 10
0.0
 20
0.0
 11
420.0
 21
297.0
 12
0.0
 22
0.0
 32
0.0
 14
1e+20
 24
1e+20
 34
1e+20
 15
-1e+20
 25
-1e+20
 35
-1e+20
146
0.0
 13
0.0
 23
0.0
 33
0.0
 16
1.0
 26
0.0
 36
0.0
 17
0.0
 27
1.0
 37
0.0
 76
1
330
1B
  0
MATERIAL
  5
1F
102
{ACAD_REACTORS
330
E
102
}
330
E
100
AcDbMaterial
  1
ByBlock
  2

 70
0
 40
1.0
 71
1
 41
1.0
 91
-1023410177
 42
1.0
 72
1
  3

 73
1
 74
1
 75
1
 44
0.5
 73
0
 45
1.0
 46
1.0
 77
1
  4

 78
1
 79
1
170
1
 48
1.0
171
1
  6

172
1
173
1
174
1
140
1.0
141
1.0
175
1
  7

176
1
177
1
178
1
143
1.0
179
1
  8

270
1
271
1
272
1
145
1.0
146
1.0
273
1
  9

274
1
275
1
276
1
 42
1.0
 72
1
  3

 73
1
 74
1
 75
1
 94
63
  0
MATERIAL
  5
20
102
{ACAD_REACTORS
330
E
102
}
330
E
100
AcDbMaterial
  1
ByLayer
  2

 70
0
 40
1.0
 71
1
 41
1.0
 91
-1023410177
 42
1.0
 72
1
  3

 73
1
 74
1
 75
1
 44
0.5
 73
0
 45
1.0
 46
1.0
 77
1
  4

 78
1
 79
1
170
1
 48
1.0
171
1
  6

172
1
173
1
174
1
140
1.0
141
1.0
175
1
  7

176
1
177
1
178
1
143
1.0
179
1
  8

270
1
271
1
272
1
145
1.0
146
1.0
273
1
  9

274
1
275
1
276
1
 42
1.0
 72
1
  3

 73
1
 74
1
 75
1
 94
63
  0
MATERIAL
  5
21
102
{ACAD_REACTORS
330
E
102
}
330
E
100
AcDbMaterial
  1
Global
  2

 70
0
 40
1.0
 71
1
 41
1.0
 91
-1023410177
 42
1.0
 72
1
  3

 73
1
 74
1
 75
1
 44
0.5
 73
0
 45
1.0
 46
1.0
 77
1
  4

 78
1
 79
1
170
1
 48
1.0
171
1
  6

172
1
173
1
174
1
140
1.0
141
1.0
175
1
  7

176
1
177
1
178
1
143
1.0
179
1
  8

270
1
271
1
272
1
145
1.0
146
1.0
273
1
  9

274
1
275
1
276
1
 42
1.0
 72
1
  3

 73
1
 74
1
 75
1
 94
63
  0
MLINESTYLE
  5
22
102
{ACAD_REACTORS
330
10
102
}
330
10
100
AcDbMlineStyle
  2
Standard
 70
0
  3

 62
256
 51
90.0
 52
90.0
 71
2
 49
0.5
 62
256
  6
BYLAYER
 49
-0.5
 62
256
  6
BYLAYER
  0
MLEADERSTYLE
  5
2C
102
{ACAD_REACTORS
330
F
102
}
330
F
100
AcDbMLeaderStyle
179
2
170
2
171
1
172
0
 90
2
 40
0.0
 41
0.0
173
1
 91
-1056964608
 92
-2
290
1
 42
2.0
291
1
 43
8.0
  3
Standard
 44
4.0
300

342
29
174
1
175
1
176
0
178
1
 93
-1056964608
 45
4.0
292
0
297
0
 46
4.0
 94
-1056964608
 47
1.0
 49
1.0
140
1.0
294
1
141
0.0
177
0
142
1.0
295
0
296
0
143
3.75
271
0
272
9
273
9
  0
DICTIONARY
  5
2D
330
A
100
AcDbDictionary
280
1
281
1
  3
CREATED_BY_EZDXF
350
2E
  3
WRITTEN_BY_EZDXF
350
1E1
  0
DICTIONARYVAR
  5
2E
330
2D
100
DictionaryVariables
280
0
  1
1.4.3 @ 2026-04-02T07:15:43.761309+00:00
  0
VISUALSTYLE
  5
5A
102
{ACAD_REACTORS
330
16
102
}
330
16
100
AcDbVisualStyle
  2
2dWireframe
 70
4
 90
0
 40
0.6
 62
7
290
0
291
0
  0
VISUALSTYLE
  5
5B
102
{ACAD_REACTORS
330
16
102
}
330
16
100
AcDbVisualStyle
  2
Basic
 70
7
 90
1
 40
0.6
 62
7
290
0
291
1
  0
VISUALSTYLE
  5
5C
102
{ACAD_REACTORS
330
16
102
}
330
16
100
AcDbVisualStyle
  2
Brighten
 70
12
 90
2
 40
0.6
 62
7
290
0
291
1
  0
VISUALSTYLE
  5
5D
102
{ACAD_REACTORS
330
16
102
}
330
16
100
AcDbVisualStyle
  2
ColorChange
 70
16
 90
2
 40
0.6
 62
8
290
0
291
1
  0
VISUALSTYLE
  5
5E
102
{ACAD_REACTORS
330
16
102
}
330
16
100
AcDbVisualStyle
  2
Conceptual
 70
9
 90
3
 40
0.6
 62
7
290
0
291
0
  0
VISUALSTYLE
  5
5F
102
{ACAD_REACTORS
330
16
102
}
330
16
100
AcDbVisualStyle
  2
Dim
 70
11
 90
2
 40
0.6
 62
7
290
0
291
1
  0
VISUALSTYLE
  5
60
102
{ACAD_REACTORS
330
16
102
}
330
16
100
AcDbVisualStyle
  2
EdgeColorOff
 70
22
 90
2
 40
0.6
 62
7
290
0
291
1
  0
VISUALSTYLE
  5
61
102
{ACAD_REACTORS
330
16
102
}
330
16
100
AcDbVisualStyle
  2
Facepattern
 70
15
 90
2
 40
0.6
 62
7
290
0
291
1
  0
VISUALSTYLE
  5
62
102
{ACAD_REACTORS
330
16
102
}
330
16
100
AcDbVisualStyle
  2
Flat
 70
0
 90
2
 40
0.6
 62
7
290
0
291
1
  0
VISUALSTYLE
  5
63
102
{ACAD_REACTORS
330
16
102
}
330
16
100
AcDbVisualStyle
  2
FlatWithEdges
 70
1
 90
2
 40
0.6
 62
7
290
0
291
1
  0
VISUALSTYLE
  5
64
102
{ACAD_REACTORS
330
16
102
}
330
16
100
AcDbVisualStyle
  2
Gouraud
 70
2
 90
2
 40
0.6
 62
7
290
0
291
1
  0
VISUALSTYLE
  5
65
102
{ACAD_REACTORS
330
16
102
}
330
16
100
AcDbVisualStyle
  2
GouraudWithEdges
 70
3
 90
2
 40
0.6
 62
7
290
0
291
1
  0
VISUALSTYLE
  5
66
102
{ACAD_REACTORS
330
16
102
}
330
16
100
AcDbVisualStyle
  2
Hidden
 70
6
 90
1
 40
0.6
 62
7
290
0
291
0
  0
VISUALSTYLE
  5
67
102
{ACAD_REACTORS
330
16
102
}
330
16
100
AcDbVisualStyle
  2
JitterOff
 70
20
 90
2
 40
0.6
 62
7
290
0
291
1
  0
VISUALSTYLE
  5
68
102
{ACAD_REACTORS
330
16
102
}
330
16
100
AcDbVisualStyle
  2
Linepattern
 70
14
 90
2
 40
0.6
 62
7
290
0
291
1
  0
VISUALSTYLE
  5
69
102
{ACAD_REACTORS
330
16
102
}
330
16
100
AcDbVisualStyle
  2
Modeling
 70
10
 90
2
 40
0.6
 62
7
290
0
291
0
  0
VISUALSTYLE
  5
6A
102
{ACAD_REACTORS
330
16
102
}
330
16
100
AcDbVisualStyle
  2
OverhangOff
 70
21
 90
2
 40
0.6
 62
7
290
0
291
1
  0
VISUALSTYLE
  5
6B
102
{ACAD_REACTORS
330
16
102
}
330
16
100
AcDbVisualStyle
  2
Realistic
 70
8
 90
2
 40
0.6
 62
7
290
0
291
0
  0
VISUALSTYLE
  5
6C
102
{ACAD_REACTORS
330
16
102
}
330
16
100
AcDbVisualStyle
  2
Shaded
 70
27
 90
2
 40
0.6
 62
7
290
0
291
0
  0
VISUALSTYLE
  5
6D
102
{ACAD_REACTORS
330
16
102
}
330
16
100
AcDbVisualStyle
  2
Shaded with edges
 70
26
 90
2
 40
0.6
 62
7
290
0
291
0
  0
VISUALSTYLE
  5
6E
102
{ACAD_REACTORS
330
16
102
}
330
16
100
AcDbVisualStyle
  2
Shades of Gray
 70
23
 90
2
 40
0.6
 62
7
290
0
291
0
  0
VISUALSTYLE
  5
6F
102
{ACAD_REACTORS
330
16
102
}
330
16
100
AcDbVisualStyle
  2
Sketchy
 70
24
 90
1
 40
0.6
 62
7
290
0
291
0
  0
VISUALSTYLE
  5
70
102
{ACAD_REACTORS
330
16
102
}
330
16
100
AcDbVisualStyle
  2
Thicken
 70
13
 90
2
 40
0.6
 62
7
290
0
291
1
  0
VISUALSTYLE
  5
71
102
{ACAD_REACTORS
330
16
102
}
330
16
100
AcDbVisualStyle
  2
Wireframe
 70
5
 90
0
 40
0.6
 62
7
290
0
291
0
  0
VISUALSTYLE
  5
72
102
{ACAD_REACTORS
330
16
102
}
330
16
100
AcDbVisualStyle
  2
X-Ray
 70
25
 90
2
 40
0.5
 62
7
290
0
291
0
  0
DICTIONARYVAR
  5
1E1
330
2D
100
DictionaryVariables
280
0
  1
1.4.3 @ 2026-04-02T07:15:43.778323+00:00
  0
ENDSEC
  0
EOF
