<?xml version='1.0' encoding='utf-8'?>
<svg width="45.0656mm" height="42.332344mm" viewBox="-11.2664 -10.583086 22.5328 21.166172" version="1.1" xmlns="http://www.w3.org/2000/svg">
  <g transform="scale(1,-1)" stroke-linecap="round">
    <g fill="none" stroke="rgb(0,0,0)" stroke-width="0.15" id="visible">
      <line x1="-3.135169" y1="-2.628824" x2="-8.6914" y2="1.693978" />
      <line x1="-3.778963" y1="8.008086" x2="-8.6914" y2="1.693978" />
      <line x1="1.777269" y1="3.685284" x2="-3.778963" y2="8.008086" />
      <path d="M 3.135169,2.628824 A 1.95,1.95 25.939782253103427 1,0 1.777269,3.685284" />
      <line x1="8.6914" y1="-1.693978" x2="3.135169" y2="2.628824" />
      <line x1="8.6914" y1="-1.693978" x2="3.778963" y2="-8.008086" />
      <line x1="3.778963" y1="-8.008086" x2="-1.777269" y2="-3.685284" />
      <path d="M -3.135169,-2.628824 A 1.95,1.95 -154.06021774689924 1,0 -1.777269,-3.685284" />
      <circle cx="-1.381623" cy="-1.775843" r="1.75" />
      <circle cx="1.381623" cy="1.775843" r="1.75" />
    </g>
    <g fill="none" stroke="rgb(0,0,0)" stroke-width="0.05" id="hidden" stroke-dasharray="0.6 0.15">
      <line x1="-3.135169" y1="-2.628824" x2="-8.6914" y2="1.693978" />
      <path d="M -3.135169,-2.628824 A 1.95,1.95 -154.06021774689924 1,0 -1.777269,-3.685284" />
      <line x1="3.778963" y1="-8.008086" x2="-1.777269" y2="-3.685284" />
      <line x1="8.6914" y1="-1.693978" x2="3.778963" y2="-8.008086" />
      <line x1="8.6914" y1="-1.693978" x2="3.135169" y2="2.628824" />
      <path d="M 3.135169,2.628824 A 1.95,1.95 25.939782253103427 1,0 1.777269,3.685284" />
      <line x1="1.777269" y1="3.685284" x2="-3.778963" y2="8.008086" />
      <line x1="-3.778963" y1="8.008086" x2="-8.6914" y2="1.693978" />
      <circle cx="-1.381623" cy="-1.775843" r="1.75" />
      <circle cx="1.381623" cy="1.775843" r="1.75" />
      <circle cx="-1.381623" cy="-1.775843" r="1.75" />
      <circle cx="-1.381623" cy="-1.775843" r="1.75" />
      <circle cx="-1.381623" cy="-1.775843" r="1.0" />
      <circle cx="-1.381623" cy="-1.775843" r="1.0" />
      <circle cx="1.381623" cy="1.775843" r="1.75" />
      <circle cx="1.381623" cy="1.775843" r="1.75" />
      <circle cx="1.381623" cy="1.775843" r="1.0" />
      <circle cx="1.381623" cy="1.775843" r="1.0" />
    </g>
  </g>
</svg>