  0
SECTION
  2
HEADER
  9
$ACADVER
  1
AC1024
  9
$ACADMAINTVER
 70
6
  9
$DWGCODEPAGE
  3
ANSI_1252
  9
$LASTSAVEDBY
  1
ezdxf
  9
$INSBASE
 10
0.0
 20
0.0
 30
0.0
  9
$EXTMIN
 10
1e+20
 20
1e+20
 30
1e+20
  9
$EXTMAX
 10
-1e+20
 20
-1e+20
 30
-1e+20
  9
$LIMMIN
 10
0.0
 20
0.0
  9
$LIMMAX
 10
420.0
 20
297.0
  9
$ORTHOMODE
 70
0
  9
$REGENMODE
 70
1
  9
$FILLMODE
 70
1
  9
$QTEXTMODE
 70
0
  9
$MIRRTEXT
 70
1
  9
$LTSCALE
 40
1.0
  9
$ATTMODE
 70
1
  9
$TEXTSIZE
 40
2.5
  9
$TRACEWID
 40
1.0
  9
$TEXTSTYLE
  7
OpenSans
  9
$CLAYER
  8
0
  9
$CELTYPE
  6
ByLayer
  9
$CECOLOR
 62
256
  9
$CELTSCALE
 40
1.0
  9
$DISPSILH
 70
0
  9
$DIMSCALE
 40
1.0
  9
$DIMASZ
 40
0.175
  9
$DIMEXO
 40
0.125
  9
$DIMDLI
 40
3.75
  9
$DIMRND
 40
0.0
  9
$DIMDLE
 40
0.0
  9
$DIMEXE
 40
0.375
  9
$DIMTP
 40
0.0
  9
$DIMTM
 40
0.0
  9
$DIMTXT
 40
0.25
  9
$DIMCEN
 40
2.5
  9
$DIMTSZ
 40
0.0
  9
$DIMTOL
 70
0
  9
$DIMLIM
 70
0
  9
$DIMTIH
 70
0
  9
$DIMTOH
 70
0
  9
$DIMSE1
 70
0
  9
$DIMSE2
 70
0
  9
$DIMTAD
 70
1
  9
$DIMZIN
 70
12
  9
$DIMBLK
  1
ARCHTICK
  9
$DIMASO
 70
1
  9
$DIMSHO
 70
1
  9
$DIMPOST
  1

  9
$DIMAPOST
  1

  9
$DIMALT
 70
0
  9
$DIMALTD
 70
3
  9
$DIMALTF
 40
0.03937007874
  9
$DIMLFAC
 40
100.0
  9
$DIMTOFL
 70
1
  9
$DIMTVP
 40
0.0
  9
$DIMTIX
 70
0
  9
$DIMSOXD
 70
0
  9
$DIMSAH
 70
0
  9
$DIMBLK1
  1

  9
$DIMBLK2
  1

  9
$DIMSTYLE
  2
EZDXF
  9
$DIMCLRD
 70
0
  9
$DIMCLRE
 70
0
  9
$DIMCLRT
 70
0
  9
$DIMTFAC
 40
0.5
  9
$DIMGAP
 40
0.1
  9
$DIMJUST
 70
0
  9
$DIMSD1
 70
0
  9
$DIMSD2
 70
0
  9
$DIMTOLJ
 70
0
  9
$DIMTZIN
 70
8
  9
$DIMALTZ
 70
0
  9
$DIMALTTZ
 70
0
  9
$DIMUPT
 70
1
  9
$DIMDEC
 70
2
  9
$DIMTDEC
 70
2
  9
$DIMALTU
 70
2
  9
$DIMALTTD
 70
3
  9
$DIMTXSTY
  7
OpenSansCondensed-Light
  9
$DIMAUNIT
 70
0
  9
$DIMADEC
 70
2
  9
$DIMALTRND
 40
0.0
  9
$DIMAZIN
 70
3
  9
$DIMDSEP
 70
46
  9
$DIMATFIT
 70
3
  9
$DIMFRAC
 70
0
  9
$DIMLDRBLK
  1

  9
$DIMLUNIT
 70
2
  9
$DIMLWD
 70
-2
  9
$DIMLWE
 70
-2
  9
$DIMTMOVE
 70
2
  9
$DIMFXL
 40
1.0
  9
$DIMFXLON
 70
0
  9
$DIMJOGANG
 40
0.785398163397
  9
$DIMTFILL
 70
0
  9
$DIMTFILLCLR
 70
0
  9
$DIMARCSYM
 70
0
  9
$DIMLTYPE
  6

  9
$DIMLTEX1
  6

  9
$DIMLTEX2
  6

  9
$DIMTXTDIRECTION
 70
0
  9
$LUNITS
 70
2
  9
$LUPREC
 70
4
  9
$SKETCHINC
 40
1.0
  9
$FILLETRAD
 40
10.0
  9
$AUNITS
 70
0
  9
$AUPREC
 70
2
  9
$MENU
  1
.
  9
$ELEVATION
 40
0.0
  9
$PELEVATION
 40
0.0
  9
$THICKNESS
 40
0.0
  9
$LIMCHECK
 70
0
  9
$CHAMFERA
 40
0.0
  9
$CHAMFERB
 40
0.0
  9
$CHAMFERC
 40
0.0
  9
$CHAMFERD
 40
0.0
  9
$SKPOLY
 70
0
  9
$TDCREATE
 40
2461130.0256018518
  9
$TDUCREATE
 40
2458532.153996898
  9
$TDUPDATE
 40
2461130.0256018518
  9
$TDUUPDATE
 40
2458532.1544311
  9
$TDINDWG
 40
0.0
  9
$TDUSRTIMER
 40
0.0
  9
$USRTIMER
 70
1
  9
$ANGBASE
 50
0.0
  9
$ANGDIR
 70
0
  9
$PDMODE
 70
0
  9
$PDSIZE
 40
0.0
  9
$PLINEWID
 40
0.0
  9
$SPLFRAME
 70
0
  9
$SPLINETYPE
 70
6
  9
$SPLINESEGS
 70
8
  9
$HANDSEED
  5
40D
  9
$SURFTAB1
 70
6
  9
$SURFTAB2
 70
6
  9
$SURFTYPE
 70
6
  9
$SURFU
 70
6
  9
$SURFV
 70
6
  9
$UCSBASE
  2

  9
$UCSNAME
  2

  9
$UCSORG
 10
0.0
 20
0.0
 30
0.0
  9
$UCSXDIR
 10
1.0
 20
0.0
 30
0.0
  9
$UCSYDIR
 10
0.0
 20
1.0
 30
0.0
  9
$UCSORTHOREF
  2

  9
$UCSORTHOVIEW
 70
0
  9
$UCSORGTOP
 10
0.0
 20
0.0
 30
0.0
  9
$UCSORGBOTTOM
 10
0.0
 20
0.0
 30
0.0
  9
$UCSORGLEFT
 10
0.0
 20
0.0
 30
0.0
  9
$UCSORGRIGHT
 10
0.0
 20
0.0
 30
0.0
  9
$UCSORGFRONT
 10
0.0
 20
0.0
 30
0.0
  9
$UCSORGBACK
 10
0.0
 20
0.0
 30
0.0
  9
$PUCSBASE
  2

  9
$PUCSNAME
  2

  9
$PUCSORG
 10
0.0
 20
0.0
 30
0.0
  9
$PUCSXDIR
 10
1.0
 20
0.0
 30
0.0
  9
$PUCSYDIR
 10
0.0
 20
1.0
 30
0.0
  9
$PUCSORTHOREF
  2

  9
$PUCSORTHOVIEW
 70
0
  9
$PUCSORGTOP
 10
0.0
 20
0.0
 30
0.0
  9
$PUCSORGBOTTOM
 10
0.0
 20
0.0
 30
0.0
  9
$PUCSORGLEFT
 10
0.0
 20
0.0
 30
0.0
  9
$PUCSORGRIGHT
 10
0.0
 20
0.0
 30
0.0
  9
$PUCSORGFRONT
 10
0.0
 20
0.0
 30
0.0
  9
$PUCSORGBACK
 10
0.0
 20
0.0
 30
0.0
  9
$USERI1
 70
0
  9
$USERI2
 70
0
  9
$USERI3
 70
0
  9
$USERI4
 70
0
  9
$USERI5
 70
0
  9
$USERR1
 40
0.0
  9
$USERR2
 40
0.0
  9
$USERR3
 40
0.0
  9
$USERR4
 40
0.0
  9
$USERR5
 40
0.0
  9
$WORLDVIEW
 70
1
  9
$SHADEDGE
 70
3
  9
$SHADEDIF
 70
70
  9
$TILEMODE
 70
1
  9
$MAXACTVP
 70
64
  9
$PINSBASE
 10
0.0
 20
0.0
 30
0.0
  9
$PLIMCHECK
 70
0
  9
$PEXTMIN
 10
1e+20
 20
1e+20
 30
1e+20
  9
$PEXTMAX
 10
-1e+20
 20
-1e+20
 30
-1e+20
  9
$PLIMMIN
 10
0.0
 20
0.0
  9
$PLIMMAX
 10
420.0
 20
297.0
  9
$UNITMODE
 70
0
  9
$VISRETAIN
 70
1
  9
$PLINEGEN
 70
0
  9
$PSLTSCALE
 70
1
  9
$TREEDEPTH
 70
3020
  9
$CMLSTYLE
  2
Standard
  9
$CMLJUST
 70
0
  9
$CMLSCALE
 40
20.0
  9
$PROXYGRAPHICS
 70
1
  9
$MEASUREMENT
 70
1
  9
$CELWEIGHT
370
-1
  9
$ENDCAPS
280
0
  9
$JOINSTYLE
280
0
  9
$LWDISPLAY
290
0
  9
$INSUNITS
 70
6
  9
$HYPERLINKBASE
  1

  9
$STYLESHEET
  1

  9
$XEDIT
290
1
  9
$CEPSNTYPE
380
0
  9
$PSTYLEMODE
290
1
  9
$FINGERPRINTGUID
  2
{141E0CED-30CC-406B-AD02-A59721812EC1}
  9
$VERSIONGUID
  2
{2CCA1408-D16C-4DEB-9117-A6DCDF116AFD}
  9
$EXTNAMES
290
1
  9
$PSVPSCALE
 40
0.0
  9
$OLESTARTUP
290
0
  9
$SORTENTS
280
127
  9
$INDEXCTL
280
0
  9
$HIDETEXT
280
1
  9
$XCLIPFRAME
280
1
  9
$HALOGAP
280
0
  9
$OBSCOLOR
 70
257
  9
$OBSLTYPE
280
0
  9
$INTERSECTIONDISPLAY
280
0
  9
$INTERSECTIONCOLOR
 70
257
  9
$DIMASSOC
280
2
  9
$PROJECTNAME
  1

  9
$CAMERADISPLAY
290
0
  9
$LENSLENGTH
 40
50.0
  9
$CAMERAHEIGHT
 40
0.0
  9
$STEPSPERSEC
 40
24.0
  9
$STEPSIZE
 40
100.0
  9
$3DDWFPREC
 40
2.0
  9
$PSOLWIDTH
 40
0.005
  9
$PSOLHEIGHT
 40
0.08
  9
$LOFTANG1
 40
1.570796326795
  9
$LOFTANG2
 40
1.570796326795
  9
$LOFTMAG1
 40
0.0
  9
$LOFTMAG2
 40
0.0
  9
$LOFTPARAM
 70
7
  9
$LOFTNORMALS
280
1
  9
$LATITUDE
 40
37.795
  9
$LONGITUDE
 40
-122.394
  9
$NORTHDIRECTION
 40
0.0
  9
$TIMEZONE
 70
-8000
  9
$LIGHTGLYPHDISPLAY
280
1
  9
$TILEMODELIGHTSYNCH
280
1
  9
$CMATERIAL
347
20
  9
$SOLIDHIST
280
0
  9
$SHOWHIST
280
1
  9
$DWFFRAME
280
2
  9
$DGNFRAME
280
2
  9
$REALWORLDSCALE
290
1
  9
$INTERFERECOLOR
 62
256
  9
$CSHADOW
280
0
  9
$SHADOWPLANELOCATION
 40
0.0
  0
ENDSEC
  0
SECTION
  2
CLASSES
  0
CLASS
  1
ACDBDICTIONARYWDFLT
  2
AcDbDictionaryWithDefault
  3
ObjectDBX Classes
 90
0
 91
0
280
0
281
0
  0
CLASS
  1
SUN
  2
AcDbSun
  3
SCENEOE
 90
1153
 91
0
280
0
281
0
  0
CLASS
  1
VISUALSTYLE
  2
AcDbVisualStyle
  3
ObjectDBX Classes
 90
4095
 91
0
280
0
281
0
  0
CLASS
  1
MATERIAL
  2
AcDbMaterial
  3
ObjectDBX Classes
 90
1153
 91
0
280
0
281
0
  0
CLASS
  1
SCALE
  2
AcDbScale
  3
ObjectDBX Classes
 90
1153
 91
0
280
0
281
0
  0
CLASS
  1
TABLESTYLE
  2
AcDbTableStyle
  3
ObjectDBX Classes
 90
4095
 91
0
280
0
281
0
  0
CLASS
  1
MLEADERSTYLE
  2
AcDbMLeaderStyle
  3
ACDB_MLEADERSTYLE_CLASS
 90
4095
 91
0
280
0
281
0
  0
CLASS
  1
DICTIONARYVAR
  2
AcDbDictionaryVar
  3
ObjectDBX Classes
 90
0
 91
0
280
0
281
0
  0
CLASS
  1
CELLSTYLEMAP
  2
AcDbCellStyleMap
  3
ObjectDBX Classes
 90
1152
 91
0
280
0
281
0
  0
CLASS
  1
MENTALRAYRENDERSETTINGS
  2
AcDbMentalRayRenderSettings
  3
SCENEOE
 90
1024
 91
0
280
0
281
0
  0
CLASS
  1
ACDBDETAILVIEWSTYLE
  2
AcDbDetailViewStyle
  3
ObjectDBX Classes
 90
1025
 91
0
280
0
281
0
  0
CLASS
  1
ACDBSECTIONVIEWSTYLE
  2
AcDbSectionViewStyle
  3
ObjectDBX Classes
 90
1025
 91
0
280
0
281
0
  0
CLASS
  1
RASTERVARIABLES
  2
AcDbRasterVariables
  3
ISM
 90
0
 91
0
280
0
281
0
  0
CLASS
  1
LAYOUT
  2
AcDbLayout
  3
ObjectDBX Classes
 90
0
 91
0
280
0
281
0
  0
CLASS
  1
ACDBPLACEHOLDER
  2
AcDbPlaceHolder
  3
ObjectDBX Classes
 90
0
 91
0
280
0
281
0
  0
ENDSEC
  0
SECTION
  2
TABLES
  0
TABLE
  2
VPORT
  5
8
330
0
100
AcDbSymbolTable
 70
1
  0
VPORT
  5
23
330
8
100
AcDbSymbolTableRecord
100
AcDbViewportTableRecord
  2
*Active
 70
0
 10
0.0
 20
0.0
 11
1.0
 21
1.0
 12
0.0
 22
0.0
 13
0.0
 23
0.0
 14
0.5
 24
0.5
 15
0.5
 25
0.5
 16
0.0
 26
0.0
 36
1.0
 17
0.0
 27
0.0
 37
0.0
 40
1000.0
 41
1.34
 42
50.0
 43
0.0
 44
0.0
 50
0.0
 51
0.0
 71
0
 72
1000
 73
1
 74
3
 75
0
 76
0
 77
0
 78
0
281
0
 65
0
146
0.0
  0
ENDTAB
  0
TABLE
  2
LTYPE
  5
2
330
0
100
AcDbSymbolTable
 70
21
  0
LTYPE
  5
24
330
2
100
AcDbSymbolTableRecord
100
AcDbLinetypeTableRecord
  2
ByBlock
 70
0
  3

 72
65
 73
0
 40
0.0
  0
LTYPE
  5
25
330
2
100
AcDbSymbolTableRecord
100
AcDbLinetypeTableRecord
  2
ByLayer
 70
0
  3

 72
65
 73
0
 40
0.0
  0
LTYPE
  5
26
330
2
100
AcDbSymbolTableRecord
100
AcDbLinetypeTableRecord
  2
Continuous
 70
0
  3

 72
65
 73
0
 40
0.0
  0
LTYPE
  5
2F
330
2
100
AcDbSymbolTableRecord
100
AcDbLinetypeTableRecord
  2
CENTER
 70
0
  3
Center ____ _ ____ _ ____ _ ____ _ ____ _ ____
 72
65
 73
4
 40
5.08
 49
3.175
 74
0
 49
-0.635
 74
0
 49
0.635
 74
0
 49
-0.635
 74
0
  0
LTYPE
  5
30
330
2
100
AcDbSymbolTableRecord
100
AcDbLinetypeTableRecord
  2
CENTERX2
 70
0
  3
Center (2x) ________  __  ________  __  ________
 72
65
 73
4
 40
8.89
 49
6.35
 74
0
 49
-0.635
 74
0
 49
1.27
 74
0
 49
-0.635
 74
0
  0
LTYPE
  5
31
330
2
100
AcDbSymbolTableRecord
100
AcDbLinetypeTableRecord
  2
CENTER2
 70
0
  3
Center (.5x) ____ _ ____ _ ____ _ ____ _ ____
 72
65
 73
4
 40
2.54
 49
1.587
 74
0
 49
-0.318
 74
0
 49
0.318
 74
0
 49
-0.318
 74
0
  0
LTYPE
  5
32
330
2
100
AcDbSymbolTableRecord
100
AcDbLinetypeTableRecord
  2
DASHED
 70
0
  3
Dashed __ __ __ __ __ __ __ __ __ __ __ __ __ _
 72
65
 73
2
 40
1.524
 49
1.27
 74
0
 49
-0.254
 74
0
  0
LTYPE
  5
33
330
2
100
AcDbSymbolTableRecord
100
AcDbLinetypeTableRecord
  2
DASHEDX2
 70
0
  3
Dashed (2x) ____  ____  ____  ____  ____  ____
 72
65
 73
2
 40
3.048
 49
2.54
 74
0
 49
-0.508
 74
0
  0
LTYPE
  5
34
330
2
100
AcDbSymbolTableRecord
100
AcDbLinetypeTableRecord
  2
DASHED2
 70
0
  3
Dashed (.5x) _ _ _ _ _ _ _ _ _ _ _ _ _ _
 72
65
 73
2
 40
0.762
 49
0.635
 74
0
 49
-0.127
 74
0
  0
LTYPE
  5
35
330
2
100
AcDbSymbolTableRecord
100
AcDbLinetypeTableRecord
  2
PHANTOM
 70
0
  3
Phantom ______  __  __  ______  __  __  ______
 72
65
 73
6
 40
6.35
 49
3.175
 74
0
 49
-0.635
 74
0
 49
0.635
 74
0
 49
-0.635
 74
0
 49
0.635
 74
0
 49
-0.635
 74
0
  0
LTYPE
  5
36
330
2
100
AcDbSymbolTableRecord
100
AcDbLinetypeTableRecord
  2
PHANTOMX2
 70
0
  3
Phantom (2x)____________    ____    ____    ____________
 72
65
 73
6
 40
10.795
 49
6.35
 74
0
 49
-0.635
 74
0
 49
1.27
 74
0
 49
-0.635
 74
0
 49
1.27
 74
0
 49
-0.635
 74
0
  0
LTYPE
  5
37
330
2
100
AcDbSymbolTableRecord
100
AcDbLinetypeTableRecord
  2
PHANTOM2
 70
0
  3
Phantom (.5x) ___ _ _ ___ _ _ ___ _ _ ___ _ _ ___
 72
65
 73
6
 40
3.175
 49
1.587
 74
0
 49
-0.318
 74
0
 49
0.318
 74
0
 49
-0.318
 74
0
 49
0.318
 74
0
 49
-0.318
 74
0
  0
LTYPE
  5
38
330
2
100
AcDbSymbolTableRecord
100
AcDbLinetypeTableRecord
  2
DASHDOT
 70
0
  3
Dash dot __ . __ . __ . __ . __ . __ . __ . __
 72
65
 73
4
 40
3.556
 49
2.54
 74
0
 49
-0.508
 74
0
 49
0.0
 74
0
 49
-0.508
 74
0
  0
LTYPE
  5
39
330
2
100
AcDbSymbolTableRecord
100
AcDbLinetypeTableRecord
  2
DASHDOTX2
 70
0
  3
Dash dot (2x) ____  .  ____  .  ____  .  ____
 72
65
 73
4
 40
6.096
 49
5.08
 74
0
 49
-0.508
 74
0
 49
0.0
 74
0
 49
-0.508
 74
0
  0
LTYPE
  5
3A
330
2
100
AcDbSymbolTableRecord
100
AcDbLinetypeTableRecord
  2
DASHDOT2
 70
0
  3
Dash dot (.5x) _ . _ . _ . _ . _ . _ . _ . _
 72
65
 73
4
 40
1.778
 49
1.27
 74
0
 49
-0.254
 74
0
 49
0.0
 74
0
 49
-0.254
 74
0
  0
LTYPE
  5
3B
330
2
100
AcDbSymbolTableRecord
100
AcDbLinetypeTableRecord
  2
DOT
 70
0
  3
Dot .  .  .  .  .  .  .  .  .  .  .  .  .  .  .  .
 72
65
 73
2
 40
0.508
 49
0.0
 74
0
 49
-0.508
 74
0
  0
LTYPE
  5
3C
330
2
100
AcDbSymbolTableRecord
100
AcDbLinetypeTableRecord
  2
DOTX2
 70
0
  3
Dot (2x) .    .    .    .    .    .    .    . 
 72
65
 73
2
 40
1.016
 49
0.0
 74
0
 49
-1.016
 74
0
  0
LTYPE
  5
3D
330
2
100
AcDbSymbolTableRecord
100
AcDbLinetypeTableRecord
  2
DOT2
 70
0
  3
Dot (.5) . . . . . . . . . . . . . . . . . . . 
 72
65
 73
2
 40
0.254
 49
0.0
 74
0
 49
-0.254
 74
0
  0
LTYPE
  5
3E
330
2
100
AcDbSymbolTableRecord
100
AcDbLinetypeTableRecord
  2
DIVIDE
 70
0
  3
Divide __ . . __ . . __ . . __ . . __ . . __
 72
65
 73
6
 40
4.064
 49
2.54
 74
0
 49
-0.508
 74
0
 49
0.0
 74
0
 49
-0.508
 74
0
 49
0.0
 74
0
 49
-0.508
 74
0
  0
LTYPE
  5
3F
330
2
100
AcDbSymbolTableRecord
100
AcDbLinetypeTableRecord
  2
DIVIDEX2
 70
0
  3
Divide (2x) ____  . .  ____  . .  ____  . .  ____
 72
65
 73
6
 40
6.604
 49
5.08
 74
0
 49
-0.508
 74
0
 49
0.0
 74
0
 49
-0.508
 74
0
 49
0.0
 74
0
 49
-0.508
 74
0
  0
LTYPE
  5
40
330
2
100
AcDbSymbolTableRecord
100
AcDbLinetypeTableRecord
  2
DIVIDE2
 70
0
  3
Divide(.5x) _ . _ . _ . _ . _ . _ . _ . _
 72
65
 73
6
 40
2.032
 49
1.27
 74
0
 49
-0.254
 74
0
 49
0.0
 74
0
 49
-0.254
 74
0
 49
0.0
 74
0
 49
-0.254
 74
0
  0
ENDTAB
  0
TABLE
  2
LAYER
  5
1
330
0
100
AcDbSymbolTable
 70
9
  0
LAYER
  5
27
330
1
100
AcDbSymbolTableRecord
100
AcDbLayerTableRecord
  2
0
 70
0
 62
7
  6
Continuous
370
-3
390
13
347
21
  0
LAYER
  5
28
330
1
100
AcDbSymbolTableRecord
100
AcDbLayerTableRecord
  2
Defpoints
 70
0
 62
7
  6
Continuous
290
0
370
-3
390
13
347
21
  0
LAYER
  5
8B
330
1
100
AcDbSymbolTableRecord
100
AcDbLayerTableRecord
  2
OUTLINE
 70
0
 62
7
  6
Continuous
370
-3
390
13
347
21
  0
LAYER
  5
8C
330
1
100
AcDbSymbolTableRecord
100
AcDbLayerTableRecord
  2
DIMENSION
 70
0
 62
1
  6
Continuous
370
-3
390
13
347
21
  0
LAYER
  5
8D
330
1
100
AcDbSymbolTableRecord
100
AcDbLayerTableRecord
  2
TEXT
 70
0
 62
7
  6
Continuous
370
-3
390
13
347
21
  0
LAYER
  5
8E
330
1
100
AcDbSymbolTableRecord
100
AcDbLayerTableRecord
  2
CENTERLINE
 70
0
 62
5
  6
Continuous
370
-3
390
13
347
21
  0
LAYER
  5
8F
330
1
100
AcDbSymbolTableRecord
100
AcDbLayerTableRecord
  2
SPAR
 70
0
 62
3
  6
Continuous
370
-3
390
13
347
21
  0
LAYER
  5
90
330
1
100
AcDbSymbolTableRecord
100
AcDbLayerTableRecord
  2
SECTION
 70
0
 62
4
  6
Continuous
370
-3
390
13
347
21
  0
LAYER
  5
91
330
1
100
AcDbSymbolTableRecord
100
AcDbLayerTableRecord
  2
WALL
 70
0
 62
6
  6
Continuous
370
-3
390
13
347
21
  0
ENDTAB
  0
TABLE
  2
STYLE
  5
5
330
0
100
AcDbSymbolTable
 70
26
  0
STYLE
  5
29
330
5
100
AcDbSymbolTableRecord
100
AcDbTextStyleTableRecord
  2
Standard
 70
0
 40
0.0
 41
1.0
 50
0.0
 71
0
 42
2.5
  3
txt
  4

  0
STYLE
  5
41
330
5
100
AcDbSymbolTableRecord
100
AcDbTextStyleTableRecord
  2
OpenSans-Light
 70
0
 40
0.0
 41
1.0
 50
0.0
 71
0
 42
2.5
  3
OpenSans-Light.ttf
  4

  0
STYLE
  5
42
330
5
100
AcDbSymbolTableRecord
100
AcDbTextStyleTableRecord
  2
OpenSans-Light-Italic
 70
0
 40
0.0
 41
1.0
 50
0.0
 71
0
 42
2.5
  3
OpenSans-LightItalic.ttf
  4

  0
STYLE
  5
43
330
5
100
AcDbSymbolTableRecord
100
AcDbTextStyleTableRecord
  2
OpenSans
 70
0
 40
0.0
 41
1.0
 50
0.0
 71
0
 42
2.5
  3
OpenSans-Regular.ttf
  4

  0
STYLE
  5
44
330
5
100
AcDbSymbolTableRecord
100
AcDbTextStyleTableRecord
  2
OpenSans-Italic
 70
0
 40
0.0
 41
1.0
 50
0.0
 71
0
 42
2.5
  3
OpenSans-Italic.ttf
  4

  0
STYLE
  5
45
330
5
100
AcDbSymbolTableRecord
100
AcDbTextStyleTableRecord
  2
OpenSans-SemiBold
 70
0
 40
0.0
 41
1.0
 50
0.0
 71
0
 42
2.5
  3
OpenSans-SemiBold.ttf
  4

  0
STYLE
  5
46
330
5
100
AcDbSymbolTableRecord
100
AcDbTextStyleTableRecord
  2
OpenSans-SemiBoldItalic
 70
0
 40
0.0
 41
1.0
 50
0.0
 71
0
 42
2.5
  3
OpenSans-SemiBoldItalic.ttf
  4

  0
STYLE
  5
47
330
5
100
AcDbSymbolTableRecord
100
AcDbTextStyleTableRecord
  2
OpenSans-Bold
 70
0
 40
0.0
 41
1.0
 50
0.0
 71
0
 42
2.5
  3
OpenSans-Bold.ttf
  4

  0
STYLE
  5
48
330
5
100
AcDbSymbolTableRecord
100
AcDbTextStyleTableRecord
  2
OpenSans-BoldItalic
 70
0
 40
0.0
 41
1.0
 50
0.0
 71
0
 42
2.5
  3
OpenSans-BoldItalic.ttf
  4

  0
STYLE
  5
49
330
5
100
AcDbSymbolTableRecord
100
AcDbTextStyleTableRecord
  2
OpenSans-ExtraBold
 70
0
 40
0.0
 41
1.0
 50
0.0
 71
0
 42
2.5
  3
OpenSans-ExtraBold.ttf
  4

  0
STYLE
  5
4A
330
5
100
AcDbSymbolTableRecord
100
AcDbTextStyleTableRecord
  2
OpenSans-ExtraBoldItalic
 70
0
 40
0.0
 41
1.0
 50
0.0
 71
0
 42
2.5
  3
OpenSans-ExtraBoldItalic.ttf
  4

  0
STYLE
  5
4B
330
5
100
AcDbSymbolTableRecord
100
AcDbTextStyleTableRecord
  2
OpenSansCondensed-Bold
 70
0
 40
0.0
 41
1.0
 50
0.0
 71
0
 42
2.5
  3
OpenSansCondensed-Bold.ttf
  4

  0
STYLE
  5
4C
330
5
100
AcDbSymbolTableRecord
100
AcDbTextStyleTableRecord
  2
OpenSansCondensed-Light
 70
0
 40
0.0
 41
1.0
 50
0.0
 71
0
 42
2.5
  3
OpenSansCondensed-Light.ttf
  4

  0
STYLE
  5
4D
330
5
100
AcDbSymbolTableRecord
100
AcDbTextStyleTableRecord
  2
OpenSansCondensed-Italic
 70
0
 40
0.0
 41
1.0
 50
0.0
 71
0
 42
2.5
  3
OpenSansCondensed-LightItalic.ttf
  4

  0
STYLE
  5
4E
330
5
100
AcDbSymbolTableRecord
100
AcDbTextStyleTableRecord
  2
LiberationSans
 70
0
 40
0.0
 41
1.0
 50
0.0
 71
0
 42
2.5
  3
LiberationSans-Regular.ttf
  4

  0
STYLE
  5
4F
330
5
100
AcDbSymbolTableRecord
100
AcDbTextStyleTableRecord
  2
LiberationSans-Bold
 70
0
 40
0.0
 41
1.0
 50
0.0
 71
0
 42
2.5
  3
LiberationSans-Bold.ttf
  4

  0
STYLE
  5
50
330
5
100
AcDbSymbolTableRecord
100
AcDbTextStyleTableRecord
  2
LiberationSans-BoldItalic
 70
0
 40
0.0
 41
1.0
 50
0.0
 71
0
 42
2.5
  3
LiberationSans-BoldItalic.ttf
  4

  0
STYLE
  5
51
330
5
100
AcDbSymbolTableRecord
100
AcDbTextStyleTableRecord
  2
LiberationSans-Italic
 70
0
 40
0.0
 41
1.0
 50
0.0
 71
0
 42
2.5
  3
LiberationSans-Italic.ttf
  4

  0
STYLE
  5
52
330
5
100
AcDbSymbolTableRecord
100
AcDbTextStyleTableRecord
  2
LiberationSerif
 70
0
 40
0.0
 41
1.0
 50
0.0
 71
0
 42
2.5
  3
LiberationSerif-Regular.ttf
  4

  0
STYLE
  5
53
330
5
100
AcDbSymbolTableRecord
100
AcDbTextStyleTableRecord
  2
LiberationSerif-Bold
 70
0
 40
0.0
 41
1.0
 50
0.0
 71
0
 42
2.5
  3
LiberationSerif-Bold.ttf
  4

  0
STYLE
  5
54
330
5
100
AcDbSymbolTableRecord
100
AcDbTextStyleTableRecord
  2
LiberationSerif-BoldItalic
 70
0
 40
0.0
 41
1.0
 50
0.0
 71
0
 42
2.5
  3
LiberationSerif-BoldItalic.ttf
  4

  0
STYLE
  5
55
330
5
100
AcDbSymbolTableRecord
100
AcDbTextStyleTableRecord
  2
LiberationSerif-Italic
 70
0
 40
0.0
 41
1.0
 50
0.0
 71
0
 42
2.5
  3
LiberationSerif-Italic.ttf
  4

  0
STYLE
  5
56
330
5
100
AcDbSymbolTableRecord
100
AcDbTextStyleTableRecord
  2
LiberationMono
 70
0
 40
0.0
 41
1.0
 50
0.0
 71
0
 42
2.5
  3
LiberationMono-Regular.ttf
  4

  0
STYLE
  5
57
330
5
100
AcDbSymbolTableRecord
100
AcDbTextStyleTableRecord
  2
LiberationMono-Bold
 70
0
 40
0.0
 41
1.0
 50
0.0
 71
0
 42
2.5
  3
LiberationMono-Bold.ttf
  4

  0
STYLE
  5
58
330
5
100
AcDbSymbolTableRecord
100
AcDbTextStyleTableRecord
  2
LiberationMono-BoldItalic
 70
0
 40
0.0
 41
1.0
 50
0.0
 71
0
 42
2.5
  3
LiberationMono-BoldItalic.ttf
  4

  0
STYLE
  5
59
330
5
100
AcDbSymbolTableRecord
100
AcDbTextStyleTableRecord
  2
LiberationMono-Italic
 70
0
 40
0.0
 41
1.0
 50
0.0
 71
0
 42
2.5
  3
LiberationMono-Italic.ttf
  4

  0
ENDTAB
  0
TABLE
  2
VIEW
  5
7
330
0
100
AcDbSymbolTable
 70
0
  0
ENDTAB
  0
TABLE
  2
UCS
  5
6
330
0
100
AcDbSymbolTable
 70
0
  0
ENDTAB
  0
TABLE
  2
APPID
  5
3
330
0
100
AcDbSymbolTable
 70
3
  0
APPID
  5
2A
330
3
100
AcDbSymbolTableRecord
100
AcDbRegAppTableRecord
  2
ACAD
 70
0
  0
APPID
  5
40A
330
3
100
AcDbSymbolTableRecord
100
AcDbRegAppTableRecord
  2
HATCHBACKGROUNDCOLOR
 70
0
  0
APPID
  5
40B
330
3
100
AcDbSymbolTableRecord
100
AcDbRegAppTableRecord
  2
EZDXF
 70
0
  0
ENDTAB
  0
TABLE
  2
DIMSTYLE
  5
4
330
0
100
AcDbSymbolTable
 70
13
100
AcDbDimStyleTable
  0
DIMSTYLE
105
2B
330
4
100
AcDbSymbolTableRecord
100
AcDbDimStyleTableRecord
  2
Standard
 70
0
 40
1.0
 41
2.5
 42
0.625
 43
3.75
 44
1.25
 45
0.0
 46
0.0
 47
0.0
 48
0.0
 49
2.5
140
2.5
141
2.5
142
0.0
143
0.03937007874
144
1.0
145
0.0
146
1.0
147
0.625
148
0.0
 69
0
 70
0
 71
0
 72
0
 73
0
 74
0
 75
0
 76
0
 77
1
 78
8
 79
3
170
0
171
3
172
1
173
0
174
0
175
0
176
0
177
0
178
0
179
2
271
2
272
2
273
2
274
3
275
0
276
0
277
2
278
44
279
0
280
0
281
0
282
0
283
0
284
8
285
0
286
0
288
0
289
3
290
0
371
-2
372
-2
  0
DIMSTYLE
105
73
330
4
100
AcDbSymbolTableRecord
100
AcDbDimStyleTableRecord
  2
EZDXF
 70
0
 40
1.0
 41
0.175
 42
0.125
 43
3.75
 44
0.375
 45
0.0
 46
0.0
 47
0.0
 48
0.0
 49
2.5
140
0.25
141
2.5
142
0.0
143
0.03937007874
144
100.0
145
0.0
146
0.5
147
0.1
148
0.0
 69
0
 70
0
 71
0
 72
0
 73
0
 74
0
 75
0
 76
0
 77
1
 78
12
 79
3
170
0
171
3
172
1
173
0
174
0
175
0
176
0
177
0
178
0
179
2
271
2
272
2
273
2
274
3
275
0
276
0
277
2
278
46
279
2
280
0
281
0
282
0
283
0
284
8
285
0
286
0
288
1
289
3
290
0
340
4C
342
74
371
-2
372
-2
  0
DIMSTYLE
105
7C
330
4
100
AcDbSymbolTableRecord
100
AcDbDimStyleTableRecord
  2
EZ_M_100_H25_CM
 70
0
 40
1.0
 41
0.25
 42
0.125
 43
3.75
 44
0.375
 45
0.0
 46
0.0
 47
0.0
 48
0.0
 49
2.5
140
0.25
141
2.5
142
0.125
143
0.03937007874
144
100.0
145
0.0
146
0.5
147
0.1
148
0.0
 69
0
 70
0
 71
0
 72
0
 73
0
 74
0
 75
0
 76
0
 77
1
 78
12
 79
3
170
0
171
3
172
1
173
0
174
0
175
0
176
0
177
0
178
0
179
2
271
2
272
2
273
2
274
3
275
0
276
0
277
2
278
46
279
2
280
0
281
0
282
0
283
0
284
8
285
0
286
0
288
1
289
3
290
0
340
4C
371
-2
372
-2
  0
DIMSTYLE
105
7D
330
4
100
AcDbSymbolTableRecord
100
AcDbDimStyleTableRecord
  2
EZ_M_50_H25_CM
 70
0
 40
1.0
 41
0.125
 42
0.0625
 43
3.75
 44
0.1875
 45
0.0
 46
0.0
 47
0.0
 48
0.0
 49
2.5
140
0.125
141
2.5
142
0.0625
143
0.03937007874
144
100.0
145
0.0
146
0.5
147
0.05
148
0.0
 69
0
 70
0
 71
0
 72
0
 73
0
 74
0
 75
0
 76
0
 77
1
 78
12
 79
3
170
0
171
3
172
1
173
0
174
0
175
0
176
0
177
0
178
0
179
2
271
2
272
2
273
2
274
3
275
0
276
0
277
2
278
46
279
2
280
0
281
0
282
0
283
0
284
8
285
0
286
0
288
1
289
3
290
0
340
4C
371
-2
372
-2
  0
DIMSTYLE
105
7E
330
4
100
AcDbSymbolTableRecord
100
AcDbDimStyleTableRecord
  2
EZ_M_25_H25_CM
 70
0
 40
1.0
 41
0.0625
 42
0.03125
 43
3.75
 44
0.09375
 45
0.0
 46
0.0
 47
0.0
 48
0.0
 49
2.5
140
0.0625
141
2.5
142
0.03125
143
0.03937007874
144
100.0
145
0.0
146
0.5
147
0.025
148
0.0
 69
0
 70
0
 71
0
 72
0
 73
0
 74
0
 75
0
 76
0
 77
1
 78
12
 79
3
170
0
171
3
172
1
173
0
174
0
175
0
176
0
177
0
178
0
179
2
271
2
272
2
273
2
274
3
275
0
276
0
277
2
278
46
279
2
280
0
281
0
282
0
283
0
284
8
285
0
286
0
288
1
289
3
290
0
340
4C
371
-2
372
-2
  0
DIMSTYLE
105
7F
330
4
100
AcDbSymbolTableRecord
100
AcDbDimStyleTableRecord
  2
EZ_M_20_H25_CM
 70
0
 40
1.0
 41
0.05
 42
0.025
 43
3.75
 44
0.07500000000000001
 45
0.0
 46
0.0
 47
0.0
 48
0.0
 49
2.5
140
0.05
141
2.5
142
0.025
143
0.03937007874
144
100.0
145
0.0
146
0.5
147
0.020000000000000004
148
0.0
 69
0
 70
0
 71
0
 72
0
 73
0
 74
0
 75
0
 76
0
 77
1
 78
12
 79
3
170
0
171
3
172
1
173
0
174
0
175
0
176
0
177
0
178
0
179
2
271
2
272
2
273
2
274
3
275
0
276
0
277
2
278
46
279
2
280
0
281
0
282
0
283
0
284
8
285
0
286
0
288
1
289
3
290
0
340
4C
371
-2
372
-2
  0
DIMSTYLE
105
80
330
4
100
AcDbSymbolTableRecord
100
AcDbDimStyleTableRecord
  2
EZ_M_10_H25_CM
 70
0
 40
1.0
 41
0.025
 42
0.0125
 43
3.75
 44
0.037500000000000006
 45
0.0
 46
0.0
 47
0.0
 48
0.0
 49
2.5
140
0.025
141
2.5
142
0.0125
143
0.03937007874
144
100.0
145
0.0
146
0.5
147
0.010000000000000002
148
0.0
 69
0
 70
0
 71
0
 72
0
 73
0
 74
0
 75
0
 76
0
 77
1
 78
12
 79
3
170
0
171
3
172
1
173
0
174
0
175
0
176
0
177
0
178
0
179
2
271
2
272
2
273
2
274
3
275
0
276
0
277
2
278
46
279
2
280
0
281
0
282
0
283
0
284
8
285
0
286
0
288
1
289
3
290
0
340
4C
371
-2
372
-2
  0
DIMSTYLE
105
81
330
4
100
AcDbSymbolTableRecord
100
AcDbDimStyleTableRecord
  2
EZ_M_5_H25_CM
 70
0
 40
1.0
 41
0.0125
 42
0.00625
 43
3.75
 44
0.018750000000000003
 45
0.0
 46
0.0
 47
0.0
 48
0.0
 49
2.5
140
0.0125
141
2.5
142
0.00625
143
0.03937007874
144
100.0
145
0.0
146
0.5
147
0.005000000000000001
148
0.0
 69
0
 70
0
 71
0
 72
0
 73
0
 74
0
 75
0
 76
0
 77
1
 78
12
 79
3
170
0
171
3
172
1
173
0
174
0
175
0
176
0
177
0
178
0
179
2
271
2
272
2
273
2
274
3
275
0
276
0
277
2
278
46
279
2
280
0
281
0
282
0
283
0
284
8
285
0
286
0
288
1
289
3
290
0
340
4C
371
-2
372
-2
  0
DIMSTYLE
105
82
330
4
100
AcDbSymbolTableRecord
100
AcDbDimStyleTableRecord
  2
EZ_M_1_H25_CM
 70
0
 40
1.0
 41
0.0025
 42
0.00125
 43
3.75
 44
0.00375
 45
0.0
 46
0.0
 47
0.0
 48
0.0
 49
2.5
140
0.0025
141
2.5
142
0.00125
143
0.03937007874
144
100.0
145
0.0
146
0.5
147
0.001
148
0.0
 69
0
 70
0
 71
0
 72
0
 73
0
 74
0
 75
0
 76
0
 77
1
 78
12
 79
3
170
0
171
3
172
1
173
0
174
0
175
0
176
0
177
0
178
0
179
2
271
2
272
2
273
2
274
3
275
0
276
0
277
2
278
46
279
2
280
0
281
0
282
0
283
0
284
8
285
0
286
0
288
1
289
3
290
0
340
4C
371
-2
372
-2
  0
DIMSTYLE
105
83
330
4
100
AcDbSymbolTableRecord
100
AcDbDimStyleTableRecord
  2
EZ_RADIUS
 70
0
 40
1.0
 41
0.25
 42
0.125
 43
3.75
 44
0.375
 45
0.0
 46
0.0
 47
0.0
 48
0.0
 49
2.5
140
0.25
141
0.0
142
0.0
143
0.03937007874
144
100.0
145
0.0
146
0.5
147
0.1
148
0.0
 69
0
 70
0
 71
0
 72
0
 73
0
 74
0
 75
0
 76
0
 77
1
 78
12
 79
3
170
0
171
3
172
0
173
0
174
0
175
0
176
0
177
0
178
0
179
2
271
2
272
2
273
2
274
3
275
0
276
0
277
2
278
46
279
1
280
0
281
0
282
0
283
0
284
8
285
0
286
0
288
1
289
3
290
0
340
4C
342
84
371
-2
372
-2
  0
DIMSTYLE
105
88
330
4
100
AcDbSymbolTableRecord
100
AcDbDimStyleTableRecord
  2
EZ_RADIUS_INSIDE
 70
0
 40
1.0
 41
0.25
 42
0.125
 43
3.75
 44
0.375
 45
0.0
 46
0.0
 47
0.0
 48
0.0
 49
2.5
140
0.25
141
0.0
142
0.0
143
0.03937007874
144
100.0
145
0.0
146
0.5
147
0.1
148
0.0
 69
0
 70
0
 71
0
 72
0
 73
0
 74
0
 75
0
 76
0
 77
0
 78
12
 79
3
170
0
171
3
172
0
173
0
174
1
175
0
176
0
177
0
178
0
179
2
271
2
272
2
273
2
274
3
275
0
276
0
277
2
278
46
279
0
280
0
281
0
282
0
283
0
284
8
285
0
286
0
288
1
289
0
290
0
340
4C
342
84
371
-2
372
-2
  0
DIMSTYLE
105
89
330
4
100
AcDbSymbolTableRecord
100
AcDbDimStyleTableRecord
  2
EZ_CURVED
 70
0
 40
1.0
 41
0.25
 42
0.125
 43
3.75
 44
0.375
 45
0.0
 46
0.0
 47
0.0
 48
0.0
 49
2.5
140
0.25
141
2.5
142
0.0
143
0.03937007874
144
100.0
145
0.0
146
0.5
147
0.1
148
0.0
 69
0
 70
0
 71
0
 72
0
 73
0
 74
0
 75
0
 76
0
 77
1
 78
12
 79
2
 90
2
170
0
171
3
172
1
173
0
174
0
175
0
176
0
177
0
178
0
179
2
271
2
272
2
273
2
274
3
275
0
276
0
277
2
278
46
279
2
280
0
281
0
282
0
283
0
284
8
285
0
286
0
288
1
289
3
290
0
340
4C
371
-2
372
-2
  0
DIMSTYLE
105
8A
330
4
100
AcDbSymbolTableRecord
100
AcDbDimStyleTableRecord
  2
COMP
 70
0
 40
1.0
 41
1.5
 42
0.5
 43
3.75
 44
0.8
 45
0.0
 46
0.0
 47
0.0
 48
0.0
 49
2.5
140
2.5
141
2.5
142
0.0
143
0.03937007874
144
1.0
145
0.0
146
1.0
147
0.6
148
0.0
 69
0
 70
0
 71
0
 72
0
 73
0
 74
0
 75
0
 76
0
 77
1
 78
8
 79
3
170
0
171
3
172
1
173
0
174
0
175
0
176
0
177
0
178
0
179
2
271
2
272
2
273
2
274
3
275
0
276
0
277
2
278
44
279
0
280
0
281
0
282
0
283
0
284
8
285
0
286
0
288
0
289
3
290
0
371
-2
372
-2
  0
ENDTAB
  0
TABLE
  2
BLOCK_RECORD
  5
9
330
0
100
AcDbSymbolTable
 70
15
  0
BLOCK_RECORD
  5
17
330
9
100
AcDbSymbolTableRecord
100
AcDbBlockTableRecord
  2
*Model_Space
340
1A
 70
0
280
1
281
0
  0
BLOCK_RECORD
  5
1B
330
9
100
AcDbSymbolTableRecord
100
AcDbBlockTableRecord
  2
*Paper_Space
340
1E
 70
0
280
1
281
0
  0
BLOCK_RECORD
  5
74
330
9
100
AcDbSymbolTableRecord
100
AcDbBlockTableRecord
  2
_ARCHTICK
340
0
 70
0
280
1
281
0
  0
BLOCK_RECORD
  5
78
330
9
100
AcDbSymbolTableRecord
100
AcDbBlockTableRecord
  2
_CLOSEDFILLED
340
0
 70
0
280
1
281
0
  0
BLOCK_RECORD
  5
84
330
9
100
AcDbSymbolTableRecord
100
AcDbBlockTableRecord
  2
_CLOSEDBLANK
340
0
 70
0
280
1
281
0
  0
BLOCK_RECORD
  5
17B
330
9
100
AcDbSymbolTableRecord
100
AcDbBlockTableRecord
  2
*D1
340
0
 70
0
280
1
281
0
  0
BLOCK_RECORD
  5
18B
330
9
100
AcDbSymbolTableRecord
100
AcDbBlockTableRecord
  2
*D2
340
0
 70
0
280
1
281
0
  0
BLOCK_RECORD
  5
19B
330
9
100
AcDbSymbolTableRecord
100
AcDbBlockTableRecord
  2
*D3
340
0
 70
0
280
1
281
0
  0
BLOCK_RECORD
  5
1AB
330
9
100
AcDbSymbolTableRecord
100
AcDbBlockTableRecord
  2
*D4
340
0
 70
0
280
1
281
0
  0
BLOCK_RECORD
  5
2B0
330
9
100
AcDbSymbolTableRecord
100
AcDbBlockTableRecord
  2
*D5
340
0
 70
0
280
1
281
0
  0
BLOCK_RECORD
  5
2C0
330
9
100
AcDbSymbolTableRecord
100
AcDbBlockTableRecord
  2
*D6
340
0
 70
0
280
1
281
0
  0
BLOCK_RECORD
  5
2CF
330
9
100
AcDbSymbolTableRecord
100
AcDbBlockTableRecord
  2
*D7
340
0
 70
0
280
1
281
0
  0
BLOCK_RECORD
  5
2DF
330
9
100
AcDbSymbolTableRecord
100
AcDbBlockTableRecord
  2
*D8
340
0
 70
0
280
1
281
0
  0
BLOCK_RECORD
  5
3DD
330
9
100
AcDbSymbolTableRecord
100
AcDbBlockTableRecord
  2
*D9
340
0
 70
0
280
1
281
0
  0
BLOCK_RECORD
  5
3ED
330
9
100
AcDbSymbolTableRecord
100
AcDbBlockTableRecord
  2
*D10
340
0
 70
0
280
1
281
0
  0
ENDTAB
  0
ENDSEC
  0
SECTION
  2
BLOCKS
  0
BLOCK
  5
18
330
17
100
AcDbEntity
  8
0
100
AcDbBlockBegin
  2
*Model_Space
 70
0
 10
0.0
 20
0.0
 30
0.0
  3
*Model_Space
  1

  0
ENDBLK
  5
19
330
17
100
AcDbEntity
  8
0
100
AcDbBlockEnd
  0
BLOCK
  5
1C
330
1B
100
AcDbEntity
  8
0
100
AcDbBlockBegin
  2
*Paper_Space
 70
0
 10
0.0
 20
0.0
 30
0.0
  3
*Paper_Space
  1

  0
ENDBLK
  5
1D
330
1B
100
AcDbEntity
  8
0
100
AcDbBlockEnd
  0
BLOCK
  5
75
330
74
100
AcDbEntity
  8
0
100
AcDbBlockBegin
  2
_ARCHTICK
 70
0
 10
0.0
 20
0.0
 30
0.0
  3
_ARCHTICK
  1

  0
LWPOLYLINE
  5
77
330
74
100
AcDbEntity
  8
0
  6
BYBLOCK
 62
0
100
AcDbPolyline
 90
2
 70
0
 43
0.15
 10
-0.5
 20
-0.5
 10
0.5
 20
0.5
  0
ENDBLK
  5
76
330
74
100
AcDbEntity
  8
0
100
AcDbBlockEnd
  0
BLOCK
  5
79
330
78
100
AcDbEntity
  8
0
100
AcDbBlockBegin
  2
_CLOSEDFILLED
 70
0
 10
0.0
 20
0.0
 30
0.0
  3
_CLOSEDFILLED
  1

  0
SOLID
  5
7B
330
78
100
AcDbEntity
  8
0
  6
BYBLOCK
 62
0
100
AcDbTrace
 10
-1.0
 20
0.16439898372402537
 30
0.0
 11
0.0
 21
0.0
 31
0.0
 12
-1.0
 22
-0.16439898372402537
 32
0.0
 13
-1.0
 23
-0.16439898372402537
 33
0.0
  0
ENDBLK
  5
7A
330
78
100
AcDbEntity
  8
0
100
AcDbBlockEnd
  0
BLOCK
  5
85
330
84
100
AcDbEntity
  8
0
100
AcDbBlockBegin
  2
_CLOSEDBLANK
 70
0
 10
0.0
 20
0.0
 30
0.0
  3
_CLOSEDBLANK
  1

  0
LWPOLYLINE
  5
87
330
84
100
AcDbEntity
  8
0
  6
BYBLOCK
 62
0
100
AcDbPolyline
 90
3
 70
1
 10
-1.0
 20
0.16439898372402537
 10
0.0
 20
0.0
 10
-1.0
 20
-0.16439898372402537
  0
ENDBLK
  5
86
330
84
100
AcDbEntity
  8
0
100
AcDbBlockEnd
  0
BLOCK
  5
17C
330
17B
100
AcDbEntity
  8
0
100
AcDbBlockBegin
  2
*D1
 70
1
 10
0.0
 20
0.0
 30
0.0
  3
*D1
  1

  0
LINE
  5
17E
330
17B
100
AcDbEntity
  8
0
100
AcDbLine
 10
30.75
 20
300.0
 30
0.0
 11
12.45
 21
300.0
 31
0.0
  0
LINE
  5
17F
330
17B
100
AcDbEntity
  8
0
100
AcDbLine
 10
30.75
 20
85.0
 30
0.0
 11
12.45
 21
85.0
 31
0.0
  0
INSERT
  5
180
330
17B
100
AcDbEntity
  8
0
100
AcDbBlockReference
  2
_CLOSEDFILLED
 10
13.25
 20
300.0
 30
0.0
 41
1.5
 42
1.5
 50
270.0
  0
INSERT
  5
182
330
17B
100
AcDbEntity
  8
0
100
AcDbBlockReference
  2
_CLOSEDFILLED
 10
13.25
 20
85.0
 30
0.0
 41
1.5
 42
1.5
 50
90.0
  0
LINE
  5
184
330
17B
100
AcDbEntity
  8
0
100
AcDbLine
 10
13.25
 20
301.5
 30
0.0
 11
13.25
 21
196.25
 31
0.0
  0
LINE
  5
185
330
17B
100
AcDbEntity
  8
0
100
AcDbLine
 10
13.25
 20
188.75
 30
0.0
 11
13.25
 21
83.5
 31
0.0
  0
MTEXT
  5
186
330
17B
100
AcDbEntity
  8
0
100
AcDbMText
 10
13.25
 20
192.5
 30
0.0
 40
2.5
 71
5
  1
215
  7
OpenSansCondensed-Light
 50
90.0
  0
POINT
  5
187
330
17B
100
AcDbEntity
  8
Defpoints
100
AcDbPoint
 10
13.25
 20
300.0
 30
0.0
  0
POINT
  5
188
330
17B
100
AcDbEntity
  8
Defpoints
100
AcDbPoint
 10
31.25
 20
300.0
 30
0.0
  0
POINT
  5
189
330
17B
100
AcDbEntity
  8
Defpoints
100
AcDbPoint
 10
31.25
 20
85.0
 30
0.0
  0
ENDBLK
  5
17D
330
17B
100
AcDbEntity
  8
0
100
AcDbBlockEnd
  0
BLOCK
  5
18C
330
18B
100
AcDbEntity
  8
0
100
AcDbBlockBegin
  2
*D2
 70
1
 10
0.0
 20
0.0
 30
0.0
  3
*D2
  1

  0
LINE
  5
18E
330
18B
100
AcDbEntity
  8
0
100
AcDbLine
 10
31.25
 20
300.5
 30
0.0
 11
31.25
 21
312.8
 31
0.0
  0
LINE
  5
18F
330
18B
100
AcDbEntity
  8
0
100
AcDbLine
 10
106.0
 20
300.5
 30
0.0
 11
106.0
 21
312.8
 31
0.0
  0
INSERT
  5
190
330
18B
100
AcDbEntity
  8
0
100
AcDbBlockReference
  2
_CLOSEDFILLED
 10
31.25
 20
312.0
 30
0.0
 41
1.5
 42
1.5
 50
180.0
  0
INSERT
  5
192
330
18B
100
AcDbEntity
  8
0
100
AcDbBlockReference
  2
_CLOSEDFILLED
 10
106.0
 20
312.0
 30
0.0
 41
1.5
 42
1.5
  0
LINE
  5
194
330
18B
100
AcDbEntity
  8
0
100
AcDbLine
 10
32.75
 20
312.0
 30
0.0
 11
62.375
 21
312.0
 31
0.0
  0
LINE
  5
195
330
18B
100
AcDbEntity
  8
0
100
AcDbLine
 10
74.875
 20
312.0
 30
0.0
 11
104.5
 21
312.0
 31
0.0
  0
MTEXT
  5
196
330
18B
100
AcDbEntity
  8
0
100
AcDbMText
 10
68.625
 20
312.0
 30
0.0
 40
2.5
 71
5
  1
74,75
  7
OpenSansCondensed-Light
  0
POINT
  5
197
330
18B
100
AcDbEntity
  8
Defpoints
100
AcDbPoint
 10
31.25
 20
312.0
 30
0.0
  0
POINT
  5
198
330
18B
100
AcDbEntity
  8
Defpoints
100
AcDbPoint
 10
31.25
 20
300.0
 30
0.0
  0
POINT
  5
199
330
18B
100
AcDbEntity
  8
Defpoints
100
AcDbPoint
 10
106.0
 20
300.0
 30
0.0
  0
ENDBLK
  5
18D
330
18B
100
AcDbEntity
  8
0
100
AcDbBlockEnd
  0
BLOCK
  5
19C
330
19B
100
AcDbEntity
  8
0
100
AcDbBlockBegin
  2
*D3
 70
1
 10
0.0
 20
0.0
 30
0.0
  3
*D3
  1

  0
LINE
  5
19E
330
19B
100
AcDbEntity
  8
0
100
AcDbLine
 10
46.719325308179094
 20
95.25
 30
0.0
 11
46.719325308179094
 21
86.95
 31
0.0
  0
LINE
  5
19F
330
19B
100
AcDbEntity
  8
0
100
AcDbLine
 10
75.49412047379106
 20
95.25
 30
0.0
 11
75.49412047379106
 21
86.95
 31
0.0
  0
INSERT
  5
1A0
330
19B
100
AcDbEntity
  8
0
100
AcDbBlockReference
  2
_CLOSEDFILLED
 10
46.719325308179094
 20
87.75
 30
0.0
 41
1.5
 42
1.5
 50
180.0
  0
INSERT
  5
1A2
330
19B
100
AcDbEntity
  8
0
100
AcDbBlockReference
  2
_CLOSEDFILLED
 10
75.49412047379106
 20
87.75
 30
0.0
 41
1.5
 42
1.5
  0
LINE
  5
1A4
330
19B
100
AcDbEntity
  8
0
100
AcDbLine
 10
48.219325308179094
 20
87.75
 30
0.0
 11
56.106722890985075
 21
87.75
 31
0.0
  0
LINE
  5
1A5
330
19B
100
AcDbEntity
  8
0
100
AcDbLine
 10
66.10672289098508
 20
87.75
 30
0.0
 11
73.99412047379106
 21
87.75
 31
0.0
  0
MTEXT
  5
1A6
330
19B
100
AcDbEntity
  8
0
100
AcDbMText
 10
61.106722890985075
 20
87.75
 30
0.0
 40
2.0
 71
5
  1
28,77
  7
OpenSansCondensed-Light
  0
POINT
  5
1A7
330
19B
100
AcDbEntity
  8
Defpoints
100
AcDbPoint
 10
46.719325308179094
 20
87.75
 30
0.0
  0
POINT
  5
1A8
330
19B
100
AcDbEntity
  8
Defpoints
100
AcDbPoint
 10
46.719325308179094
 20
95.75
 30
0.0
  0
POINT
  5
1A9
330
19B
100
AcDbEntity
  8
Defpoints
100
AcDbPoint
 10
75.49412047379106
 20
95.75
 30
0.0
  0
ENDBLK
  5
19D
330
19B
100
AcDbEntity
  8
0
100
AcDbBlockEnd
  0
BLOCK
  5
1AC
330
1AB
100
AcDbEntity
  8
0
100
AcDbBlockBegin
  2
*D4
 70
1
 10
0.0
 20
0.0
 30
0.0
  3
*D4
  1

  0
LINE
  5
1AE
330
1AB
100
AcDbEntity
  8
0
100
AcDbLine
 10
31.25
 20
300.5
 30
0.0
 11
31.25
 21
320.8
 31
0.0
  0
LINE
  5
1AF
330
1AB
100
AcDbEntity
  8
0
100
AcDbLine
 10
60.0
 20
300.5
 30
0.0
 11
60.0
 21
320.8
 31
0.0
  0
INSERT
  5
1B0
330
1AB
100
AcDbEntity
  8
0
100
AcDbBlockReference
  2
_CLOSEDFILLED
 10
31.25
 20
320.0
 30
0.0
 41
1.5
 42
1.5
 50
180.0
  0
INSERT
  5
1B2
330
1AB
100
AcDbEntity
  8
0
100
AcDbBlockReference
  2
_CLOSEDFILLED
 10
60.0
 20
320.0
 30
0.0
 41
1.5
 42
1.5
  0
LINE
  5
1B4
330
1AB
100
AcDbEntity
  8
0
100
AcDbLine
 10
32.75
 20
320.0
 30
0.0
 11
41.125
 21
320.0
 31
0.0
  0
LINE
  5
1B5
330
1AB
100
AcDbEntity
  8
0
100
AcDbLine
 10
50.125
 20
320.0
 30
0.0
 11
58.5
 21
320.0
 31
0.0
  0
MTEXT
  5
1B6
330
1AB
100
AcDbEntity
  8
0
100
AcDbMText
 10
45.625
 20
320.0
 30
0.0
 40
1.8
 71
5
  1
28,75
  7
OpenSansCondensed-Light
  0
POINT
  5
1B7
330
1AB
100
AcDbEntity
  8
Defpoints
100
AcDbPoint
 10
31.25
 20
320.0
 30
0.0
  0
POINT
  5
1B8
330
1AB
100
AcDbEntity
  8
Defpoints
100
AcDbPoint
 10
31.25
 20
300.0
 30
0.0
  0
POINT
  5
1B9
330
1AB
100
AcDbEntity
  8
Defpoints
100
AcDbPoint
 10
60.0
 20
300.0
 30
0.0
  0
ENDBLK
  5
1AD
330
1AB
100
AcDbEntity
  8
0
100
AcDbBlockEnd
  0
BLOCK
  5
2B1
330
2B0
100
AcDbEntity
  8
0
100
AcDbBlockBegin
  2
*D5
 70
1
 10
0.0
 20
0.0
 30
0.0
  3
*D5
  1

  0
LINE
  5
2B3
330
2B0
100
AcDbEntity
  8
0
100
AcDbLine
 10
10.0
 20
-10.5
 30
0.0
 11
10.0
 21
-22.8
 31
0.0
  0
LINE
  5
2B4
330
2B0
100
AcDbEntity
  8
0
100
AcDbLine
 10
84.75
 20
-10.5
 30
0.0
 11
84.75
 21
-22.8
 31
0.0
  0
INSERT
  5
2B5
330
2B0
100
AcDbEntity
  8
0
100
AcDbBlockReference
  2
_CLOSEDFILLED
 10
10.0
 20
-22.0
 30
0.0
 41
1.5
 42
1.5
 50
180.0
  0
INSERT
  5
2B7
330
2B0
100
AcDbEntity
  8
0
100
AcDbBlockReference
  2
_CLOSEDFILLED
 10
84.75
 20
-22.0
 30
0.0
 41
1.5
 42
1.5
  0
LINE
  5
2B9
330
2B0
100
AcDbEntity
  8
0
100
AcDbLine
 10
11.5
 20
-22.0
 30
0.0
 11
41.125
 21
-22.0
 31
0.0
  0
LINE
  5
2BA
330
2B0
100
AcDbEntity
  8
0
100
AcDbLine
 10
53.625
 20
-22.0
 30
0.0
 11
83.25
 21
-22.0
 31
0.0
  0
MTEXT
  5
2BB
330
2B0
100
AcDbEntity
  8
0
100
AcDbMText
 10
47.375
 20
-22.0
 30
0.0
 40
2.5
 71
5
  1
74,75
  7
OpenSansCondensed-Light
  0
POINT
  5
2BC
330
2B0
100
AcDbEntity
  8
Defpoints
100
AcDbPoint
 10
10.0
 20
-22.0
 30
0.0
  0
POINT
  5
2BD
330
2B0
100
AcDbEntity
  8
Defpoints
100
AcDbPoint
 10
10.0
 20
-10.0
 30
0.0
  0
POINT
  5
2BE
330
2B0
100
AcDbEntity
  8
Defpoints
100
AcDbPoint
 10
84.75
 20
-10.0
 30
0.0
  0
ENDBLK
  5
2B2
330
2B0
100
AcDbEntity
  8
0
100
AcDbBlockEnd
  0
BLOCK
  5
2C1
330
2C0
100
AcDbEntity
  8
0
100
AcDbBlockBegin
  2
*D6
 70
1
 10
0.0
 20
0.0
 30
0.0
  3
*D6
  1

  0
LINE
  5
2C3
330
2C0
100
AcDbEntity
  8
0
100
AcDbLine
 10
44.0
 20
-13.738575552457732
 30
0.0
 11
31.7
 21
-13.738575552457732
 31
0.0
  0
LINE
  5
2C4
330
2C0
100
AcDbEntity
  8
0
100
AcDbLine
 10
44.0
 20
-6.261424447542268
 30
0.0
 11
31.7
 21
-6.261424447542268
 31
0.0
  0
INSERT
  5
2C5
330
2C0
100
AcDbEntity
  8
0
100
AcDbBlockReference
  2
_CLOSEDFILLED
 10
32.5
 20
-13.738575552457732
 30
0.0
 41
1.5
 42
1.5
 50
270.0
  0
INSERT
  5
2C7
330
2C0
100
AcDbEntity
  8
0
100
AcDbBlockReference
  2
_CLOSEDFILLED
 10
32.5
 20
-6.261424447542268
 30
0.0
 41
1.5
 42
1.5
 50
90.0
  0
LINE
  5
2C9
330
2C0
100
AcDbEntity
  8
0
100
AcDbLine
 10
32.5
 20
-12.238575552457732
 30
0.0
 11
32.5
 21
-7.761424447542268
 31
0.0
  0
MTEXT
  5
2CA
330
2C0
100
AcDbEntity
  8
0
100
AcDbMText
 10
30.1
 20
-10.0
 30
0.0
 40
2.0
 71
5
  1
7,48
  7
OpenSansCondensed-Light
 50
90.0
  0
POINT
  5
2CB
330
2C0
100
AcDbEntity
  8
Defpoints
100
AcDbPoint
 10
32.5
 20
-13.738575552457732
 30
0.0
  0
POINT
  5
2CC
330
2C0
100
AcDbEntity
  8
Defpoints
100
AcDbPoint
 10
44.5
 20
-13.738575552457732
 30
0.0
  0
POINT
  5
2CD
330
2C0
100
AcDbEntity
  8
Defpoints
100
AcDbPoint
 10
44.5
 20
-6.261424447542268
 30
0.0
  0
ENDBLK
  5
2C2
330
2C0
100
AcDbEntity
  8
0
100
AcDbBlockEnd
  0
BLOCK
  5
2D0
330
2CF
100
AcDbEntity
  8
0
100
AcDbBlockBegin
  2
*D7
 70
1
 10
0.0
 20
0.0
 30
0.0
  3
*D7
  1

  0
LINE
  5
2D2
330
2CF
100
AcDbEntity
  8
0
100
AcDbLine
 10
10.0
 20
-9.5
 30
0.0
 11
10.0
 21
2.538575552457732
 31
0.0
  0
LINE
  5
2D3
330
2CF
100
AcDbEntity
  8
0
100
AcDbLine
 10
38.75
 20
-9.5
 30
0.0
 11
38.75
 21
2.538575552457732
 31
0.0
  0
INSERT
  5
2D4
330
2CF
100
AcDbEntity
  8
0
100
AcDbBlockReference
  2
_CLOSEDFILLED
 10
10.0
 20
1.738575552457732
 30
0.0
 41
1.5
 42
1.5
 50
180.0
  0
INSERT
  5
2D6
330
2CF
100
AcDbEntity
  8
0
100
AcDbBlockReference
  2
_CLOSEDFILLED
 10
38.75
 20
1.738575552457732
 30
0.0
 41
1.5
 42
1.5
  0
LINE
  5
2D8
330
2CF
100
AcDbEntity
  8
0
100
AcDbLine
 10
11.5
 20
1.7385755524577318
 30
0.0
 11
19.875
 21
1.7385755524577318
 31
0.0
  0
LINE
  5
2D9
330
2CF
100
AcDbEntity
  8
0
100
AcDbLine
 10
28.874999999999996
 20
1.738575552457732
 30
0.0
 11
37.25
 21
1.738575552457732
 31
0.0
  0
MTEXT
  5
2DA
330
2CF
100
AcDbEntity
  8
0
100
AcDbMText
 10
24.375
 20
1.738575552457732
 30
0.0
 40
1.8
 71
5
  1
28,75
  7
OpenSansCondensed-Light
  0
POINT
  5
2DB
330
2CF
100
AcDbEntity
  8
Defpoints
100
AcDbPoint
 10
10.0
 20
1.738575552457732
 30
0.0
  0
POINT
  5
2DC
330
2CF
100
AcDbEntity
  8
Defpoints
100
AcDbPoint
 10
10.0
 20
-10.0
 30
0.0
  0
POINT
  5
2DD
330
2CF
100
AcDbEntity
  8
Defpoints
100
AcDbPoint
 10
38.75
 20
-10.0
 30
0.0
  0
ENDBLK
  5
2D1
330
2CF
100
AcDbEntity
  8
0
100
AcDbBlockEnd
  0
BLOCK
  5
2E0
330
2DF
100
AcDbEntity
  8
0
100
AcDbBlockBegin
  2
*D8
 70
1
 10
0.0
 20
0.0
 30
0.0
  3
*D8
  1

  0
LINE
  5
2E2
330
2DF
100
AcDbEntity
  8
0
100
AcDbLine
 10
10.0
 20
-9.5
 30
0.0
 11
10.0
 21
8.538575552457733
 31
0.0
  0
LINE
  5
2E3
330
2DF
100
AcDbEntity
  8
0
100
AcDbLine
 10
79.0
 20
-9.5
 30
0.0
 11
79.0
 21
8.538575552457733
 31
0.0
  0
INSERT
  5
2E4
330
2DF
100
AcDbEntity
  8
0
100
AcDbBlockReference
  2
_CLOSEDFILLED
 10
10.0
 20
7.738575552457732
 30
0.0
 41
1.5
 42
1.5
 50
180.0
  0
INSERT
  5
2E6
330
2DF
100
AcDbEntity
  8
0
100
AcDbBlockReference
  2
_CLOSEDFILLED
 10
79.0
 20
7.738575552457732
 30
0.0
 41
1.5
 42
1.5
  0
LINE
  5
2E8
330
2DF
100
AcDbEntity
  8
0
100
AcDbLine
 10
11.5
 20
7.738575552457732
 30
0.0
 11
42.7
 21
7.738575552457732
 31
0.0
  0
LINE
  5
2E9
330
2DF
100
AcDbEntity
  8
0
100
AcDbLine
 10
46.3
 20
7.738575552457732
 30
0.0
 11
77.5
 21
7.738575552457732
 31
0.0
  0
MTEXT
  5
2EA
330
2DF
100
AcDbEntity
  8
0
100
AcDbMText
 10
44.5
 20
7.738575552457732
 30
0.0
 40
1.8
 71
5
  1
69
  7
OpenSansCondensed-Light
  0
POINT
  5
2EB
330
2DF
100
AcDbEntity
  8
Defpoints
100
AcDbPoint
 10
10.0
 20
7.738575552457732
 30
0.0
  0
POINT
  5
2EC
330
2DF
100
AcDbEntity
  8
Defpoints
100
AcDbPoint
 10
10.0
 20
-10.0
 30
0.0
  0
POINT
  5
2ED
330
2DF
100
AcDbEntity
  8
Defpoints
100
AcDbPoint
 10
79.0
 20
-10.0
 30
0.0
  0
ENDBLK
  5
2E1
330
2DF
100
AcDbEntity
  8
0
100
AcDbBlockEnd
  0
BLOCK
  5
3DE
330
3DD
100
AcDbEntity
  8
0
100
AcDbBlockBegin
  2
*D9
 70
1
 10
0.0
 20
0.0
 30
0.0
  3
*D9
  1

  0
LINE
  5
3E0
330
3DD
100
AcDbEntity
  8
0
100
AcDbLine
 10
134.75
 20
-10.5
 30
0.0
 11
134.75
 21
-20.8
 31
0.0
  0
LINE
  5
3E1
330
3DD
100
AcDbEntity
  8
0
100
AcDbLine
 10
202.4754717743298
 20
-10.5
 30
0.0
 11
202.4754717743298
 21
-20.8
 31
0.0
  0
INSERT
  5
3E2
330
3DD
100
AcDbEntity
  8
0
100
AcDbBlockReference
  2
_CLOSEDFILLED
 10
134.75
 20
-20.0
 30
0.0
 41
1.5
 42
1.5
 50
180.0
  0
INSERT
  5
3E4
330
3DD
100
AcDbEntity
  8
0
100
AcDbBlockReference
  2
_CLOSEDFILLED
 10
202.4754717743298
 20
-20.0
 30
0.0
 41
1.5
 42
1.5
  0
LINE
  5
3E6
330
3DD
100
AcDbEntity
  8
0
100
AcDbLine
 10
136.25
 20
-20.0
 30
0.0
 11
163.6127358871649
 21
-20.0
 31
0.0
  0
LINE
  5
3E7
330
3DD
100
AcDbEntity
  8
0
100
AcDbLine
 10
173.6127358871649
 20
-20.0
 30
0.0
 11
200.9754717743298
 21
-20.0
 31
0.0
  0
MTEXT
  5
3E8
330
3DD
100
AcDbEntity
  8
0
100
AcDbMText
 10
168.6127358871649
 20
-20.0
 30
0.0
 40
2.0
 71
5
  1
67,73
  7
OpenSansCondensed-Light
  0
POINT
  5
3E9
330
3DD
100
AcDbEntity
  8
Defpoints
100
AcDbPoint
 10
134.75
 20
-20.0
 30
0.0
  0
POINT
  5
3EA
330
3DD
100
AcDbEntity
  8
Defpoints
100
AcDbPoint
 10
134.75
 20
-10.0
 30
0.0
  0
POINT
  5
3EB
330
3DD
100
AcDbEntity
  8
Defpoints
100
AcDbPoint
 10
202.4754717743298
 20
-10.0
 30
0.0
  0
ENDBLK
  5
3DF
330
3DD
100
AcDbEntity
  8
0
100
AcDbBlockEnd
  0
BLOCK
  5
3EE
330
3ED
100
AcDbEntity
  8
0
100
AcDbBlockBegin
  2
*D10
 70
1
 10
0.0
 20
0.0
 30
0.0
  3
*D10
  1

  0
LINE
  5
3F0
330
3ED
100
AcDbEntity
  8
0
100
AcDbLine
 10
165.50791004969068
 20
-13.022467506486686
 30
0.0
 11
155.20791004969067
 21
-13.022467506486686
 31
0.0
  0
LINE
  5
3F1
330
3ED
100
AcDbEntity
  8
0
100
AcDbLine
 10
165.50791004969068
 20
-6.977532493513314
 30
0.0
 11
155.20791004969067
 21
-6.977532493513314
 31
0.0
  0
INSERT
  5
3F2
330
3ED
100
AcDbEntity
  8
0
100
AcDbBlockReference
  2
_CLOSEDFILLED
 10
156.00791004969068
 20
-13.022467506486686
 30
0.0
 41
1.5
 42
1.5
 50
270.0
  0
INSERT
  5
3F4
330
3ED
100
AcDbEntity
  8
0
100
AcDbBlockReference
  2
_CLOSEDFILLED
 10
156.00791004969068
 20
-6.977532493513314
 30
0.0
 41
1.5
 42
1.5
 50
90.0
  0
LINE
  5
3F6
330
3ED
100
AcDbEntity
  8
0
100
AcDbLine
 10
156.00791004969068
 20
-11.522467506486686
 30
0.0
 11
156.00791004969068
 21
-8.477532493513314
 31
0.0
  0
MTEXT
  5
3F7
330
3ED
100
AcDbEntity
  8
0
100
AcDbMText
 10
153.70791004969067
 20
-10.0
 30
0.0
 40
1.8
 71
5
  1
6,04
  7
OpenSansCondensed-Light
 50
90.0
  0
POINT
  5
3F8
330
3ED
100
AcDbEntity
  8
Defpoints
100
AcDbPoint
 10
156.00791004969068
 20
-13.022467506486686
 30
0.0
  0
POINT
  5
3F9
330
3ED
100
AcDbEntity
  8
Defpoints
100
AcDbPoint
 10
166.00791004969068
 20
-13.022467506486686
 30
0.0
  0
POINT
  5
3FA
330
3ED
100
AcDbEntity
  8
Defpoints
100
AcDbPoint
 10
166.00791004969068
 20
-6.977532493513314
 30
0.0
  0
ENDBLK
  5
3EF
330
3ED
100
AcDbEntity
  8
0
100
AcDbBlockEnd
  0
ENDSEC
  0
SECTION
  2
ENTITIES
  0
LINE
  5
92
330
17
100
AcDbEntity
  8
OUTLINE
100
AcDbLine
 10
31.25
 20
300.0
 30
0.0
 11
31.191292058743503
 21
298.0
 31
0.0
  0
LINE
  5
93
330
17
100
AcDbEntity
  8
OUTLINE
100
AcDbLine
 10
31.191292058743503
 20
298.0
 30
0.0
 11
31.133365993569097
 21
296.0
 31
0.0
  0
LINE
  5
94
330
17
100
AcDbEntity
  8
OUTLINE
100
AcDbLine
 10
31.133365993569097
 20
296.0
 30
0.0
 11
31.076424622774542
 21
294.0
 31
0.0
  0
LINE
  5
95
330
17
100
AcDbEntity
  8
OUTLINE
100
AcDbLine
 10
31.076424622774542
 20
294.0
 30
0.0
 11
31.02060417162555
 21
292.0
 31
0.0
  0
LINE
  5
96
330
17
100
AcDbEntity
  8
OUTLINE
100
AcDbLine
 10
31.02060417162555
 20
292.0
 30
0.0
 11
30.966013469328278
 21
290.0
 31
0.0
  0
LINE
  5
97
330
17
100
AcDbEntity
  8
OUTLINE
100
AcDbLine
 10
30.966013469328278
 20
290.0
 30
0.0
 11
30.91274558523799
 21
288.0
 31
0.0
  0
LINE
  5
98
330
17
100
AcDbEntity
  8
OUTLINE
100
AcDbLine
 10
30.91274558523799
 20
288.0
 30
0.0
 11
30.860883245128587
 21
286.0
 31
0.0
  0
LINE
  5
99
330
17
100
AcDbEntity
  8
OUTLINE
100
AcDbLine
 10
30.860883245128587
 20
286.0
 30
0.0
 11
30.810501863793665
 21
284.0
 31
0.0
  0
LINE
  5
9A
330
17
100
AcDbEntity
  8
OUTLINE
100
AcDbLine
 10
30.810501863793665
 20
284.0
 30
0.0
 11
30.761671440780876
 21
282.0
 31
0.0
  0
LINE
  5
9B
330
17
100
AcDbEntity
  8
OUTLINE
100
AcDbLine
 10
30.761671440780876
 20
282.0
 30
0.0
 11
30.714457837729388
 21
280.0
 31
0.0
  0
LINE
  5
9C
330
17
100
AcDbEntity
  8
OUTLINE
100
AcDbLine
 10
30.714457837729388
 20
280.0
 30
0.0
 11
30.668923687818978
 21
278.0
 31
0.0
  0
LINE
  5
9D
330
17
100
AcDbEntity
  8
OUTLINE
100
AcDbLine
 10
30.668923687818978
 20
278.0
 30
0.0
 11
30.625129071571447
 21
276.0
 31
0.0
  0
LINE
  5
9E
330
17
100
AcDbEntity
  8
OUTLINE
100
AcDbLine
 10
30.625129071571447
 20
276.0
 30
0.0
 11
30.583132036665322
 21
274.0
 31
0.0
  0
LINE
  5
9F
330
17
100
AcDbEntity
  8
OUTLINE
100
AcDbLine
 10
30.583132036665322
 20
274.0
 30
0.0
 11
30.542989009440323
 21
272.0
 31
0.0
  0
LINE
  5
A0
330
17
100
AcDbEntity
  8
OUTLINE
100
AcDbLine
 10
30.542989009440323
 20
272.0
 30
0.0
 11
30.504755128785696
 21
270.0
 31
0.0
  0
LINE
  5
A1
330
17
100
AcDbEntity
  8
OUTLINE
100
AcDbLine
 10
30.504755128785696
 20
270.0
 30
0.0
 11
30.468484522962765
 21
268.0
 31
0.0
  0
LINE
  5
A2
330
17
100
AcDbEntity
  8
OUTLINE
100
AcDbLine
 10
30.468484522962765
 20
268.0
 30
0.0
 11
30.434230543581624
 21
266.0
 31
0.0
  0
LINE
  5
A3
330
17
100
AcDbEntity
  8
OUTLINE
100
AcDbLine
 10
30.434230543581624
 20
266.0
 30
0.0
 11
30.402045966853386
 21
264.0
 31
0.0
  0
LINE
  5
A4
330
17
100
AcDbEntity
  8
OUTLINE
100
AcDbLine
 10
30.402045966853386
 20
264.0
 30
0.0
 11
30.371983169502844
 21
262.0
 31
0.0
  0
LINE
  5
A5
330
17
100
AcDbEntity
  8
OUTLINE
100
AcDbLine
 10
30.371983169502844
 20
262.0
 30
0.0
 11
30.34409428484914
 21
260.0
 31
0.0
  0
LINE
  5
A6
330
17
100
AcDbEntity
  8
OUTLINE
100
AcDbLine
 10
30.34409428484914
 20
260.0
 30
0.0
 11
30.31843134324442
 21
258.0
 31
0.0
  0
LINE
  5
A7
330
17
100
AcDbEntity
  8
OUTLINE
100
AcDbLine
 10
30.31843134324442
 20
258.0
 30
0.0
 11
30.29504640011739
 21
256.0
 31
0.0
  0
LINE
  5
A8
330
17
100
AcDbEntity
  8
OUTLINE
100
AcDbLine
 10
30.29504640011739
 20
256.0
 30
0.0
 11
30.273991654181394
 21
254.0
 31
0.0
  0
LINE
  5
A9
330
17
100
AcDbEntity
  8
OUTLINE
100
AcDbLine
 10
30.273991654181394
 20
254.0
 30
0.0
 11
30.25531955785826
 21
252.0
 31
0.0
  0
LINE
  5
AA
330
17
100
AcDbEntity
  8
OUTLINE
100
AcDbLine
 10
30.25531955785826
 20
252.0
 30
0.0
 11
30.239082921588846
 21
250.0
 31
0.0
  0
LINE
  5
AB
330
17
100
AcDbEntity
  8
OUTLINE
100
AcDbLine
 10
30.239082921588846
 20
250.0
 30
0.0
 11
30.22533501341323
 21
248.0
 31
0.0
  0
LINE
  5
AC
330
17
100
AcDbEntity
  8
OUTLINE
100
AcDbLine
 10
30.22533501341323
 20
248.0
 30
0.0
 11
30.214129654983484
 21
246.0
 31
0.0
  0
LINE
  5
AD
330
17
100
AcDbEntity
  8
OUTLINE
100
AcDbLine
 10
30.214129654983484
 20
246.0
 30
0.0
 11
30.205521315003985
 21
244.0
 31
0.0
  0
LINE
  5
AE
330
17
100
AcDbEntity
  8
OUTLINE
100
AcDbLine
 10
30.205521315003985
 20
244.0
 30
0.0
 11
30.199565200964035
 21
242.0
 31
0.0
  0
LINE
  5
AF
330
17
100
AcDbEntity
  8
OUTLINE
100
AcDbLine
 10
30.199565200964035
 20
242.0
 30
0.0
 11
30.196317349928485
 21
240.0
 31
0.0
  0
LINE
  5
B0
330
17
100
AcDbEntity
  8
OUTLINE
100
AcDbLine
 10
30.196317349928485
 20
240.0
 30
0.0
 11
30.195834719076085
 21
238.0
 31
0.0
  0
LINE
  5
B1
330
17
100
AcDbEntity
  8
OUTLINE
100
AcDbLine
 10
30.195834719076085
 20
238.0
 30
0.0
 11
30.19817527661806
 21
236.0
 31
0.0
  0
LINE
  5
B2
330
17
100
AcDbEntity
  8
OUTLINE
100
AcDbLine
 10
30.19817527661806
 20
236.0
 30
0.0
 11
30.203398093688033
 21
234.0
 31
0.0
  0
LINE
  5
B3
330
17
100
AcDbEntity
  8
OUTLINE
100
AcDbLine
 10
30.203398093688033
 20
234.0
 30
0.0
 11
30.211563437765196
 21
232.0
 31
0.0
  0
LINE
  5
B4
330
17
100
AcDbEntity
  8
OUTLINE
100
AcDbLine
 10
30.211563437765196
 20
232.0
 30
0.0
 11
30.222732868174457
 21
230.0
 31
0.0
  0
LINE
  5
B5
330
17
100
AcDbEntity
  8
OUTLINE
100
AcDbLine
 10
30.222732868174457
 20
230.0
 30
0.0
 11
30.236969334198477
 21
228.0
 31
0.0
  0
LINE
  5
B6
330
17
100
AcDbEntity
  8
OUTLINE
100
AcDbLine
 10
30.236969334198477
 20
228.0
 30
0.0
 11
30.254337276335853
 21
226.0
 31
0.0
  0
LINE
  5
B7
330
17
100
AcDbEntity
  8
OUTLINE
100
AcDbLine
 10
30.254337276335853
 20
226.0
 30
0.0
 11
30.274902731246723
 21
224.0
 31
0.0
  0
LINE
  5
B8
330
17
100
AcDbEntity
  8
OUTLINE
100
AcDbLine
 10
30.274902731246723
 20
224.0
 30
0.0
 11
30.298733440941543
 21
222.0
 31
0.0
  0
LINE
  5
B9
330
17
100
AcDbEntity
  8
OUTLINE
100
AcDbLine
 10
30.298733440941543
 20
222.0
 30
0.0
 11
30.32589896678941
 21
220.0
 31
0.0
  0
LINE
  5
BA
330
17
100
AcDbEntity
  8
OUTLINE
100
AcDbLine
 10
30.32589896678941
 20
220.0
 30
0.0
 11
30.356470808950974
 21
218.0
 31
0.0
  0
LINE
  5
BB
330
17
100
AcDbEntity
  8
OUTLINE
100
AcDbLine
 10
30.356470808950974
 20
218.0
 30
0.0
 11
30.390522531875643
 21
216.0
 31
0.0
  0
LINE
  5
BC
330
17
100
AcDbEntity
  8
OUTLINE
100
AcDbLine
 10
30.390522531875643
 20
216.0
 30
0.0
 11
30.428129896545315
 21
214.0
 31
0.0
  0
LINE
  5
BD
330
17
100
AcDbEntity
  8
OUTLINE
100
AcDbLine
 10
30.428129896545315
 20
214.0
 30
0.0
 11
30.46937100019721
 21
212.0
 31
0.0
  0
LINE
  5
BE
330
17
100
AcDbEntity
  8
OUTLINE
100
AcDbLine
 10
30.46937100019721
 20
212.0
 30
0.0
 11
30.51432642431669
 21
210.0
 31
0.0
  0
LINE
  5
BF
330
17
100
AcDbEntity
  8
OUTLINE
100
AcDbLine
 10
30.51432642431669
 20
210.0
 30
0.0
 11
30.56307939175894
 21
208.0
 31
0.0
  0
LINE
  5
C0
330
17
100
AcDbEntity
  8
OUTLINE
100
AcDbLine
 10
30.56307939175894
 20
208.0
 30
0.0
 11
30.61571593393625
 21
206.0
 31
0.0
  0
LINE
  5
C1
330
17
100
AcDbEntity
  8
OUTLINE
100
AcDbLine
 10
30.61571593393625
 20
206.0
 30
0.0
 11
30.672325069096665
 21
204.0
 31
0.0
  0
LINE
  5
C2
330
17
100
AcDbEntity
  8
OUTLINE
100
AcDbLine
 10
30.672325069096665
 20
204.0
 30
0.0
 11
30.732998992821766
 21
202.0
 31
0.0
  0
LINE
  5
C3
330
17
100
AcDbEntity
  8
OUTLINE
100
AcDbLine
 10
30.732998992821766
 20
202.0
 30
0.0
 11
30.797833281987895
 21
200.0
 31
0.0
  0
LINE
  5
C4
330
17
100
AcDbEntity
  8
OUTLINE
100
AcDbLine
 10
30.797833281987895
 20
200.0
 30
0.0
 11
30.86692711356716
 21
198.0
 31
0.0
  0
LINE
  5
C5
330
17
100
AcDbEntity
  8
OUTLINE
100
AcDbLine
 10
30.86692711356716
 20
198.0
 30
0.0
 11
30.94038349979636
 21
196.0
 31
0.0
  0
LINE
  5
C6
330
17
100
AcDbEntity
  8
OUTLINE
100
AcDbLine
 10
30.94038349979636
 20
196.0
 30
0.0
 11
31.018309541414663
 21
194.0
 31
0.0
  0
LINE
  5
C7
330
17
100
AcDbEntity
  8
OUTLINE
100
AcDbLine
 10
31.018309541414663
 20
194.0
 30
0.0
 11
31.100816700867824
 21
192.0
 31
0.0
  0
LINE
  5
C8
330
17
100
AcDbEntity
  8
OUTLINE
100
AcDbLine
 10
31.100816700867824
 20
192.0
 30
0.0
 11
31.188021097603425
 21
190.0
 31
0.0
  0
LINE
  5
C9
330
17
100
AcDbEntity
  8
OUTLINE
100
AcDbLine
 10
31.188021097603425
 20
190.0
 30
0.0
 11
31.28004382783999
 21
188.0
 31
0.0
  0
LINE
  5
CA
330
17
100
AcDbEntity
  8
OUTLINE
100
AcDbLine
 10
31.28004382783999
 20
188.0
 30
0.0
 11
31.377011311491042
 21
186.0
 31
0.0
  0
LINE
  5
CB
330
17
100
AcDbEntity
  8
OUTLINE
100
AcDbLine
 10
31.377011311491042
 20
186.0
 30
0.0
 11
31.47905566926757
 21
184.0
 31
0.0
  0
LINE
  5
CC
330
17
100
AcDbEntity
  8
OUTLINE
100
AcDbLine
 10
31.47905566926757
 20
184.0
 30
0.0
 11
31.5863151333779
 21
182.0
 31
0.0
  0
LINE
  5
CD
330
17
100
AcDbEntity
  8
OUTLINE
100
AcDbLine
 10
31.5863151333779
 20
182.0
 30
0.0
 11
31.698934495701597
 21
180.0
 31
0.0
  0
LINE
  5
CE
330
17
100
AcDbEntity
  8
OUTLINE
100
AcDbLine
 10
31.698934495701597
 20
180.0
 30
0.0
 11
31.81706559784473
 21
178.0
 31
0.0
  0
LINE
  5
CF
330
17
100
AcDbEntity
  8
OUTLINE
100
AcDbLine
 10
31.81706559784473
 20
178.0
 30
0.0
 11
31.940867868101275
 21
176.0
 31
0.0
  0
LINE
  5
D0
330
17
100
AcDbEntity
  8
OUTLINE
100
AcDbLine
 10
31.940867868101275
 20
176.0
 30
0.0
 11
32.07050891106587
 21
174.0
 31
0.0
  0
LINE
  5
D1
330
17
100
AcDbEntity
  8
OUTLINE
100
AcDbLine
 10
32.07050891106587
 20
174.0
 30
0.0
 11
32.2061651564866
 21
172.0
 31
0.0
  0
LINE
  5
D2
330
17
100
AcDbEntity
  8
OUTLINE
100
AcDbLine
 10
32.2061651564866
 20
172.0
 30
0.0
 11
32.34802257493644
 21
170.0
 31
0.0
  0
LINE
  5
D3
330
17
100
AcDbEntity
  8
OUTLINE
100
AcDbLine
 10
32.34802257493644
 20
170.0
 30
0.0
 11
32.496277469049474
 21
168.0
 31
0.0
  0
LINE
  5
D4
330
17
100
AcDbEntity
  8
OUTLINE
100
AcDbLine
 10
32.496277469049474
 20
168.0
 30
0.0
 11
32.65113735044797
 21
166.0
 31
0.0
  0
LINE
  5
D5
330
17
100
AcDbEntity
  8
OUTLINE
100
AcDbLine
 10
32.65113735044797
 20
166.0
 30
0.0
 11
32.81282191412528
 21
164.0
 31
0.0
  0
LINE
  5
D6
330
17
100
AcDbEntity
  8
OUTLINE
100
AcDbLine
 10
32.81282191412528
 20
164.0
 30
0.0
 11
32.9815641240032
 21
162.0
 31
0.0
  0
LINE
  5
D7
330
17
100
AcDbEntity
  8
OUTLINE
100
AcDbLine
 10
32.9815641240032
 20
162.0
 30
0.0
 11
33.15761142572059
 21
160.0
 31
0.0
  0
LINE
  5
D8
330
17
100
AcDbEntity
  8
OUTLINE
100
AcDbLine
 10
33.15761142572059
 20
160.0
 30
0.0
 11
33.341227105521966
 21
158.0
 31
0.0
  0
LINE
  5
D9
330
17
100
AcDbEntity
  8
OUTLINE
100
AcDbLine
 10
33.341227105521966
 20
158.0
 30
0.0
 11
33.53269181751119
 21
156.0
 31
0.0
  0
LINE
  5
DA
330
17
100
AcDbEntity
  8
OUTLINE
100
AcDbLine
 10
33.53269181751119
 20
156.0
 30
0.0
 11
33.7323053056579
 21
154.0
 31
0.0
  0
LINE
  5
DB
330
17
100
AcDbEntity
  8
OUTLINE
100
AcDbLine
 10
33.7323053056579
 20
154.0
 30
0.0
 11
33.94038835197557
 21
152.0
 31
0.0
  0
LINE
  5
DC
330
17
100
AcDbEntity
  8
OUTLINE
100
AcDbLine
 10
33.94038835197557
 20
152.0
 30
0.0
 11
34.15728498846102
 21
150.0
 31
0.0
  0
LINE
  5
DD
330
17
100
AcDbEntity
  8
OUTLINE
100
AcDbLine
 10
34.15728498846102
 20
150.0
 30
0.0
 11
34.383365018000944
 21
148.0
 31
0.0
  0
LINE
  5
DE
330
17
100
AcDbEntity
  8
OUTLINE
100
AcDbLine
 10
34.383365018000944
 20
148.0
 30
0.0
 11
34.61902689890452
 21
146.0
 31
0.0
  0
LINE
  5
DF
330
17
100
AcDbEntity
  8
OUTLINE
100
AcDbLine
 10
34.61902689890452
 20
146.0
 30
0.0
 11
34.864701059532955
 21
144.0
 31
0.0
  0
LINE
  5
E0
330
17
100
AcDbEntity
  8
OUTLINE
100
AcDbLine
 10
34.864701059532955
 20
144.0
 30
0.0
 11
35.1208537243573
 21
142.0
 31
0.0
  0
LINE
  5
E1
330
17
100
AcDbEntity
  8
OUTLINE
100
AcDbLine
 10
35.1208537243573
 20
142.0
 30
0.0
 11
35.38799135160666
 21
140.0
 31
0.0
  0
LINE
  5
E2
330
17
100
AcDbEntity
  8
OUTLINE
100
AcDbLine
 10
35.38799135160666
 20
140.0
 30
0.0
 11
35.66666580671804
 21
138.0
 31
0.0
  0
LINE
  5
E3
330
17
100
AcDbEntity
  8
OUTLINE
100
AcDbLine
 10
35.66666580671804
 20
138.0
 30
0.0
 11
35.95748042676904
 21
136.0
 31
0.0
  0
LINE
  5
E4
330
17
100
AcDbEntity
  8
OUTLINE
100
AcDbLine
 10
35.95748042676904
 20
136.0
 30
0.0
 11
36.261097171309075
 21
134.0
 31
0.0
  0
LINE
  5
E5
330
17
100
AcDbEntity
  8
OUTLINE
100
AcDbLine
 10
36.261097171309075
 20
134.0
 30
0.0
 11
36.578245107780354
 21
132.0
 31
0.0
  0
LINE
  5
E6
330
17
100
AcDbEntity
  8
OUTLINE
100
AcDbLine
 10
36.578245107780354
 20
132.0
 30
0.0
 11
36.909730549652366
 21
130.0
 31
0.0
  0
LINE
  5
E7
330
17
100
AcDbEntity
  8
OUTLINE
100
AcDbLine
 10
36.909730549652366
 20
130.0
 30
0.0
 11
37.25644925909551
 21
128.0
 31
0.0
  0
LINE
  5
E8
330
17
100
AcDbEntity
  8
OUTLINE
100
AcDbLine
 10
37.25644925909551
 20
128.0
 30
0.0
 11
37.61940125307652
 21
126.0
 31
0.0
  0
LINE
  5
E9
330
17
100
AcDbEntity
  8
OUTLINE
100
AcDbLine
 10
37.61940125307652
 20
126.0
 30
0.0
 11
37.999708926296584
 21
124.0
 31
0.0
  0
LINE
  5
EA
330
17
100
AcDbEntity
  8
OUTLINE
100
AcDbLine
 10
37.999708926296584
 20
124.0
 30
0.0
 11
38.39863944757432
 21
122.0
 31
0.0
  0
LINE
  5
EB
330
17
100
AcDbEntity
  8
OUTLINE
100
AcDbLine
 10
38.39863944757432
 20
122.0
 30
0.0
 11
38.81763273037984
 21
120.0
 31
0.0
  0
LINE
  5
EC
330
17
100
AcDbEntity
  8
OUTLINE
100
AcDbLine
 10
38.81763273037984
 20
120.0
 30
0.0
 11
39.258336773496765
 21
118.0
 31
0.0
  0
LINE
  5
ED
330
17
100
AcDbEntity
  8
OUTLINE
100
AcDbLine
 10
39.258336773496765
 20
118.0
 30
0.0
 11
39.722652894150585
 21
116.0
 31
0.0
  0
LINE
  5
EE
330
17
100
AcDbEntity
  8
OUTLINE
100
AcDbLine
 10
39.722652894150585
 20
116.0
 30
0.0
 11
40.212794463683274
 21
114.0
 31
0.0
  0
LINE
  5
EF
330
17
100
AcDbEntity
  8
OUTLINE
100
AcDbLine
 10
40.212794463683274
 20
114.0
 30
0.0
 11
40.7313644231765
 21
112.0
 31
0.0
  0
LINE
  5
F0
330
17
100
AcDbEntity
  8
OUTLINE
100
AcDbLine
 10
40.7313644231765
 20
112.0
 30
0.0
 11
41.281459480028246
 21
110.0
 31
0.0
  0
LINE
  5
F1
330
17
100
AcDbEntity
  8
OUTLINE
100
AcDbLine
 10
41.281459480028246
 20
110.0
 30
0.0
 11
41.86681313935874
 21
108.0
 31
0.0
  0
LINE
  5
F2
330
17
100
AcDbEntity
  8
OUTLINE
100
AcDbLine
 10
41.86681313935874
 20
108.0
 30
0.0
 11
42.49199685638989
 21
106.0
 31
0.0
  0
LINE
  5
F3
330
17
100
AcDbEntity
  8
OUTLINE
100
AcDbLine
 10
42.49199685638989
 20
106.0
 30
0.0
 11
43.17708959227767
 21
104.0
 31
0.0
  0
LINE
  5
F4
330
17
100
AcDbEntity
  8
OUTLINE
100
AcDbLine
 10
43.17708959227767
 20
104.0
 30
0.0
 11
43.92743204146154
 21
102.0
 31
0.0
  0
LINE
  5
F5
330
17
100
AcDbEntity
  8
OUTLINE
100
AcDbLine
 10
43.92743204146154
 20
102.0
 30
0.0
 11
44.73725688316739
 21
100.0
 31
0.0
  0
LINE
  5
F6
330
17
100
AcDbEntity
  8
OUTLINE
100
AcDbLine
 10
44.73725688316739
 20
100.0
 30
0.0
 11
45.61904226968861
 21
98.0
 31
0.0
  0
LINE
  5
F7
330
17
100
AcDbEntity
  8
OUTLINE
100
AcDbLine
 10
45.61904226968861
 20
98.0
 30
0.0
 11
46.59042308582947
 21
96.0
 31
0.0
  0
LINE
  5
F8
330
17
100
AcDbEntity
  8
OUTLINE
100
AcDbLine
 10
46.59042308582947
 20
96.0
 30
0.0
 11
47.67775738469982
 21
94.0
 31
0.0
  0
LINE
  5
F9
330
17
100
AcDbEntity
  8
OUTLINE
100
AcDbLine
 10
47.67775738469982
 20
94.0
 30
0.0
 11
48.923647686614686
 21
92.0
 31
0.0
  0
LINE
  5
FA
330
17
100
AcDbEntity
  8
OUTLINE
100
AcDbLine
 10
48.923647686614686
 20
92.0
 30
0.0
 11
50.40557276414088
 21
90.0
 31
0.0
  0
LINE
  5
FB
330
17
100
AcDbEntity
  8
OUTLINE
100
AcDbLine
 10
50.40557276414088
 20
90.0
 30
0.0
 11
52.296032719105476
 21
88.0
 31
0.0
  0
LINE
  5
FC
330
17
100
AcDbEntity
  8
OUTLINE
100
AcDbLine
 10
52.296032719105476
 20
88.0
 30
0.0
 11
55.209101956778234
 21
86.0
 31
0.0
  0
LINE
  5
FD
330
17
100
AcDbEntity
  8
OUTLINE
100
AcDbLine
 10
55.209101956778234
 20
86.0
 30
0.0
 11
60.0
 21
85.0
 31
0.0
  0
LINE
  5
FE
330
17
100
AcDbEntity
  8
OUTLINE
100
AcDbLine
 10
106.0
 20
300.0
 30
0.0
 11
105.94060079066287
 21
298.0
 31
0.0
  0
LINE
  5
FF
330
17
100
AcDbEntity
  8
OUTLINE
100
AcDbLine
 10
105.94060079066287
 20
298.0
 30
0.0
 11
105.8799617099147
 21
296.0
 31
0.0
  0
LINE
  5
100
330
17
100
AcDbEntity
  8
OUTLINE
100
AcDbLine
 10
105.8799617099147
 20
296.0
 30
0.0
 11
105.81777383915225
 21
294.0
 31
0.0
  0
LINE
  5
101
330
17
100
AcDbEntity
  8
OUTLINE
100
AcDbLine
 10
105.81777383915225
 20
294.0
 30
0.0
 11
105.75383756422903
 21
292.0
 31
0.0
  0
LINE
  5
102
330
17
100
AcDbEntity
  8
OUTLINE
100
AcDbLine
 10
105.75383756422903
 20
292.0
 30
0.0
 11
105.68799910917886
 21
290.0
 31
0.0
  0
LINE
  5
103
330
17
100
AcDbEntity
  8
OUTLINE
100
AcDbLine
 10
105.68799910917886
 20
290.0
 30
0.0
 11
105.62013154412523
 21
288.0
 31
0.0
  0
LINE
  5
104
330
17
100
AcDbEntity
  8
OUTLINE
100
AcDbLine
 10
105.62013154412523
 20
288.0
 30
0.0
 11
105.55012588779698
 21
286.0
 31
0.0
  0
LINE
  5
105
330
17
100
AcDbEntity
  8
OUTLINE
100
AcDbLine
 10
105.55012588779698
 20
286.0
 30
0.0
 11
105.47788609717719
 21
284.0
 31
0.0
  0
LINE
  5
106
330
17
100
AcDbEntity
  8
OUTLINE
100
AcDbLine
 10
105.47788609717719
 20
284.0
 30
0.0
 11
105.40332591975417
 21
282.0
 31
0.0
  0
LINE
  5
107
330
17
100
AcDbEntity
  8
OUTLINE
100
AcDbLine
 10
105.40332591975417
 20
282.0
 30
0.0
 11
105.32636676371533
 21
280.0
 31
0.0
  0
LINE
  5
108
330
17
100
AcDbEntity
  8
OUTLINE
100
AcDbLine
 10
105.32636676371533
 20
280.0
 30
0.0
 11
105.2469361766644
 21
278.0
 31
0.0
  0
LINE
  5
109
330
17
100
AcDbEntity
  8
OUTLINE
100
AcDbLine
 10
105.2469361766644
 20
278.0
 30
0.0
 11
105.16496671277903
 21
276.0
 31
0.0
  0
LINE
  5
10A
330
17
100
AcDbEntity
  8
OUTLINE
100
AcDbLine
 10
105.16496671277903
 20
276.0
 30
0.0
 11
105.08039506069471
 21
274.0
 31
0.0
  0
LINE
  5
10B
330
17
100
AcDbEntity
  8
OUTLINE
100
AcDbLine
 10
105.08039506069471
 20
274.0
 30
0.0
 11
104.99316135347699
 21
272.0
 31
0.0
  0
LINE
  5
10C
330
17
100
AcDbEntity
  8
OUTLINE
100
AcDbLine
 10
104.99316135347699
 20
272.0
 30
0.0
 11
104.90320860990835
 21
270.0
 31
0.0
  0
LINE
  5
10D
330
17
100
AcDbEntity
  8
OUTLINE
100
AcDbLine
 10
104.90320860990835
 20
270.0
 30
0.0
 11
104.8104822730019
 21
268.0
 31
0.0
  0
LINE
  5
10E
330
17
100
AcDbEntity
  8
OUTLINE
100
AcDbLine
 10
104.8104822730019
 20
268.0
 30
0.0
 11
104.71492982209557
 21
266.0
 31
0.0
  0
LINE
  5
10F
330
17
100
AcDbEntity
  8
OUTLINE
100
AcDbLine
 10
104.71492982209557
 20
266.0
 30
0.0
 11
104.61650044165722
 21
264.0
 31
0.0
  0
LINE
  5
110
330
17
100
AcDbEntity
  8
OUTLINE
100
AcDbLine
 10
104.61650044165722
 20
264.0
 30
0.0
 11
104.51514473446858
 21
262.0
 31
0.0
  0
LINE
  5
111
330
17
100
AcDbEntity
  8
OUTLINE
100
AcDbLine
 10
104.51514473446858
 20
262.0
 30
0.0
 11
104.41081446997961
 21
260.0
 31
0.0
  0
LINE
  5
112
330
17
100
AcDbEntity
  8
OUTLINE
100
AcDbLine
 10
104.41081446997961
 20
260.0
 30
0.0
 11
104.30346236082102
 21
258.0
 31
0.0
  0
LINE
  5
113
330
17
100
AcDbEntity
  8
OUTLINE
100
AcDbLine
 10
104.30346236082102
 20
258.0
 30
0.0
 11
104.19304186204323
 21
256.0
 31
0.0
  0
LINE
  5
114
330
17
100
AcDbEntity
  8
OUTLINE
100
AcDbLine
 10
104.19304186204323
 20
256.0
 30
0.0
 11
104.07950698880447
 21
254.0
 31
0.0
  0
LINE
  5
115
330
17
100
AcDbEntity
  8
OUTLINE
100
AcDbLine
 10
104.07950698880447
 20
254.0
 30
0.0
 11
103.96281214908926
 21
252.0
 31
0.0
  0
LINE
  5
116
330
17
100
AcDbEntity
  8
OUTLINE
100
AcDbLine
 10
103.96281214908926
 20
252.0
 30
0.0
 11
103.84291198868374
 21
250.0
 31
0.0
  0
LINE
  5
117
330
17
100
AcDbEntity
  8
OUTLINE
100
AcDbLine
 10
103.84291198868374
 20
250.0
 30
0.0
 11
103.71976124612742
 21
248.0
 31
0.0
  0
LINE
  5
118
330
17
100
AcDbEntity
  8
OUTLINE
100
AcDbLine
 10
103.71976124612742
 20
248.0
 30
0.0
 11
103.59331461573846
 21
246.0
 31
0.0
  0
LINE
  5
119
330
17
100
AcDbEntity
  8
OUTLINE
100
AcDbLine
 10
103.59331461573846
 20
246.0
 30
0.0
 11
103.46352661710378
 21
244.0
 31
0.0
  0
LINE
  5
11A
330
17
100
AcDbEntity
  8
OUTLINE
100
AcDbLine
 10
103.46352661710378
 20
244.0
 30
0.0
 11
103.33035146965346
 21
242.0
 31
0.0
  0
LINE
  5
11B
330
17
100
AcDbEntity
  8
OUTLINE
100
AcDbLine
 10
103.33035146965346
 20
242.0
 30
0.0
 11
103.19374297111814
 21
240.0
 31
0.0
  0
LINE
  5
11C
330
17
100
AcDbEntity
  8
OUTLINE
100
AcDbLine
 10
103.19374297111814
 20
240.0
 30
0.0
 11
103.05365437880812
 21
238.0
 31
0.0
  0
LINE
  5
11D
330
17
100
AcDbEntity
  8
OUTLINE
100
AcDbLine
 10
103.05365437880812
 20
238.0
 30
0.0
 11
102.91003829276168
 21
236.0
 31
0.0
  0
LINE
  5
11E
330
17
100
AcDbEntity
  8
OUTLINE
100
AcDbLine
 10
102.91003829276168
 20
236.0
 30
0.0
 11
102.76284653989441
 21
234.0
 31
0.0
  0
LINE
  5
11F
330
17
100
AcDbEntity
  8
OUTLINE
100
AcDbLine
 10
102.76284653989441
 20
234.0
 30
0.0
 11
102.61203005834548
 21
232.0
 31
0.0
  0
LINE
  5
120
330
17
100
AcDbEntity
  8
OUTLINE
100
AcDbLine
 10
102.61203005834548
 20
232.0
 30
0.0
 11
102.45753878126322
 21
230.0
 31
0.0
  0
LINE
  5
121
330
17
100
AcDbEntity
  8
OUTLINE
100
AcDbLine
 10
102.45753878126322
 20
230.0
 30
0.0
 11
102.29932151930532
 21
228.0
 31
0.0
  0
LINE
  5
122
330
17
100
AcDbEntity
  8
OUTLINE
100
AcDbLine
 10
102.29932151930532
 20
228.0
 30
0.0
 11
102.13732584114865
 21
226.0
 31
0.0
  0
LINE
  5
123
330
17
100
AcDbEntity
  8
OUTLINE
100
AcDbLine
 10
102.13732584114865
 20
226.0
 30
0.0
 11
101.97149795131291
 21
224.0
 31
0.0
  0
LINE
  5
124
330
17
100
AcDbEntity
  8
OUTLINE
100
AcDbLine
 10
101.97149795131291
 20
224.0
 30
0.0
 11
101.80178256460079
 21
222.0
 31
0.0
  0
LINE
  5
125
330
17
100
AcDbEntity
  8
OUTLINE
100
AcDbLine
 10
101.80178256460079
 20
222.0
 30
0.0
 11
101.6281227764471
 21
220.0
 31
0.0
  0
LINE
  5
126
330
17
100
AcDbEntity
  8
OUTLINE
100
AcDbLine
 10
101.6281227764471
 20
220.0
 30
0.0
 11
101.45045992844888
 21
218.0
 31
0.0
  0
LINE
  5
127
330
17
100
AcDbEntity
  8
OUTLINE
100
AcDbLine
 10
101.45045992844888
 20
218.0
 30
0.0
 11
101.26873346832065
 21
216.0
 31
0.0
  0
LINE
  5
128
330
17
100
AcDbEntity
  8
OUTLINE
100
AcDbLine
 10
101.26873346832065
 20
216.0
 30
0.0
 11
101.08288080347994
 21
214.0
 31
0.0
  0
LINE
  5
129
330
17
100
AcDbEntity
  8
OUTLINE
100
AcDbLine
 10
101.08288080347994
 20
214.0
 30
0.0
 11
100.89283714742211
 21
212.0
 31
0.0
  0
LINE
  5
12A
330
17
100
AcDbEntity
  8
OUTLINE
100
AcDbLine
 10
100.89283714742211
 20
212.0
 30
0.0
 11
100.69853535798543
 21
210.0
 31
0.0
  0
LINE
  5
12B
330
17
100
AcDbEntity
  8
OUTLINE
100
AcDbLine
 10
100.69853535798543
 20
210.0
 30
0.0
 11
100.49990576653971
 21
208.0
 31
0.0
  0
LINE
  5
12C
330
17
100
AcDbEntity
  8
OUTLINE
100
AcDbLine
 10
100.49990576653971
 20
208.0
 30
0.0
 11
100.29687599705281
 21
206.0
 31
0.0
  0
LINE
  5
12D
330
17
100
AcDbEntity
  8
OUTLINE
100
AcDbLine
 10
100.29687599705281
 20
206.0
 30
0.0
 11
100.0893707738959
 21
204.0
 31
0.0
  0
LINE
  5
12E
330
17
100
AcDbEntity
  8
OUTLINE
100
AcDbLine
 10
100.0893707738959
 20
204.0
 30
0.0
 11
99.87731171714313
 21
202.0
 31
0.0
  0
LINE
  5
12F
330
17
100
AcDbEntity
  8
OUTLINE
100
AcDbLine
 10
99.87731171714313
 20
202.0
 30
0.0
 11
99.66061712399784
 21
200.0
 31
0.0
  0
LINE
  5
130
330
17
100
AcDbEntity
  8
OUTLINE
100
AcDbLine
 10
99.66061712399784
 20
200.0
 30
0.0
 11
99.43920173483667
 21
198.0
 31
0.0
  0
LINE
  5
131
330
17
100
AcDbEntity
  8
OUTLINE
100
AcDbLine
 10
99.43920173483667
 20
198.0
 30
0.0
 11
99.2129764822025
 21
196.0
 31
0.0
  0
LINE
  5
132
330
17
100
AcDbEntity
  8
OUTLINE
100
AcDbLine
 10
99.2129764822025
 20
196.0
 30
0.0
 11
98.98184822089092
 21
194.0
 31
0.0
  0
LINE
  5
133
330
17
100
AcDbEntity
  8
OUTLINE
100
AcDbLine
 10
98.98184822089092
 20
194.0
 30
0.0
 11
98.74571943706364
 21
192.0
 31
0.0
  0
LINE
  5
134
330
17
100
AcDbEntity
  8
OUTLINE
100
AcDbLine
 10
98.74571943706364
 20
192.0
 30
0.0
 11
98.50448793407838
 21
190.0
 31
0.0
  0
LINE
  5
135
330
17
100
AcDbEntity
  8
OUTLINE
100
AcDbLine
 10
98.50448793407838
 20
190.0
 30
0.0
 11
98.25804649244499
 21
188.0
 31
0.0
  0
LINE
  5
136
330
17
100
AcDbEntity
  8
OUTLINE
100
AcDbLine
 10
98.25804649244499
 20
188.0
 30
0.0
 11
98.00628250099537
 21
186.0
 31
0.0
  0
LINE
  5
137
330
17
100
AcDbEntity
  8
OUTLINE
100
AcDbLine
 10
98.00628250099537
 20
186.0
 30
0.0
 11
97.74907755598315
 21
184.0
 31
0.0
  0
LINE
  5
138
330
17
100
AcDbEntity
  8
OUTLINE
100
AcDbLine
 10
97.74907755598315
 20
184.0
 30
0.0
 11
97.48630702439988
 21
182.0
 31
0.0
  0
LINE
  5
139
330
17
100
AcDbEntity
  8
OUTLINE
100
AcDbLine
 10
97.48630702439988
 20
182.0
 30
0.0
 11
97.21783956729654
 21
180.0
 31
0.0
  0
LINE
  5
13A
330
17
100
AcDbEntity
  8
OUTLINE
100
AcDbLine
 10
97.21783956729654
 20
180.0
 30
0.0
 11
96.94353661832204
 21
178.0
 31
0.0
  0
LINE
  5
13B
330
17
100
AcDbEntity
  8
OUTLINE
100
AcDbLine
 10
96.94353661832204
 20
178.0
 30
0.0
 11
96.66325181201691
 21
176.0
 31
0.0
  0
LINE
  5
13C
330
17
100
AcDbEntity
  8
OUTLINE
100
AcDbLine
 10
96.66325181201691
 20
176.0
 30
0.0
 11
96.37683035561447
 21
174.0
 31
0.0
  0
LINE
  5
13D
330
17
100
AcDbEntity
  8
OUTLINE
100
AcDbLine
 10
96.37683035561447
 20
174.0
 30
0.0
 11
96.0841083371815
 21
172.0
 31
0.0
  0
LINE
  5
13E
330
17
100
AcDbEntity
  8
OUTLINE
100
AcDbLine
 10
96.0841083371815
 20
172.0
 30
0.0
 11
95.78491196184697
 21
170.0
 31
0.0
  0
LINE
  5
13F
330
17
100
AcDbEntity
  8
OUTLINE
100
AcDbLine
 10
95.78491196184697
 20
170.0
 30
0.0
 11
95.479056706592
 21
168.0
 31
0.0
  0
LINE
  5
140
330
17
100
AcDbEntity
  8
OUTLINE
100
AcDbLine
 10
95.479056706592
 20
168.0
 30
0.0
 11
95.16634638256195
 21
166.0
 31
0.0
  0
LINE
  5
141
330
17
100
AcDbEntity
  8
OUTLINE
100
AcDbLine
 10
95.16634638256195
 20
166.0
 30
0.0
 11
94.84657209206625
 21
164.0
 31
0.0
  0
LINE
  5
142
330
17
100
AcDbEntity
  8
OUTLINE
100
AcDbLine
 10
94.84657209206625
 20
164.0
 30
0.0
 11
94.51951106528972
 21
162.0
 31
0.0
  0
LINE
  5
143
330
17
100
AcDbEntity
  8
OUTLINE
100
AcDbLine
 10
94.51951106528972
 20
162.0
 30
0.0
 11
94.184925359172
 21
160.0
 31
0.0
  0
LINE
  5
144
330
17
100
AcDbEntity
  8
OUTLINE
100
AcDbLine
 10
94.184925359172
 20
160.0
 30
0.0
 11
93.8425603978244
 21
158.0
 31
0.0
  0
LINE
  5
145
330
17
100
AcDbEntity
  8
OUTLINE
100
AcDbLine
 10
93.8425603978244
 20
158.0
 30
0.0
 11
93.49214333011989
 21
156.0
 31
0.0
  0
LINE
  5
146
330
17
100
AcDbEntity
  8
OUTLINE
100
AcDbLine
 10
93.49214333011989
 20
156.0
 30
0.0
 11
93.13338117555729
 21
154.0
 31
0.0
  0
LINE
  5
147
330
17
100
AcDbEntity
  8
OUTLINE
100
AcDbLine
 10
93.13338117555729
 20
154.0
 30
0.0
 11
92.76595872396304
 21
152.0
 31
0.0
  0
LINE
  5
148
330
17
100
AcDbEntity
  8
OUTLINE
100
AcDbLine
 10
92.76595872396304
 20
152.0
 30
0.0
 11
92.38953614779552
 21
150.0
 31
0.0
  0
LINE
  5
149
330
17
100
AcDbEntity
  8
OUTLINE
100
AcDbLine
 10
92.38953614779552
 20
150.0
 30
0.0
 11
92.00374627742207
 21
148.0
 31
0.0
  0
LINE
  5
14A
330
17
100
AcDbEntity
  8
OUTLINE
100
AcDbLine
 10
92.00374627742207
 20
148.0
 30
0.0
 11
91.60819147930934
 21
146.0
 31
0.0
  0
LINE
  5
14B
330
17
100
AcDbEntity
  8
OUTLINE
100
AcDbLine
 10
91.60819147930934
 20
146.0
 30
0.0
 11
91.20244006402807
 21
144.0
 31
0.0
  0
LINE
  5
14C
330
17
100
AcDbEntity
  8
OUTLINE
100
AcDbLine
 10
91.20244006402807
 20
144.0
 30
0.0
 11
90.78602213455522
 21
142.0
 31
0.0
  0
LINE
  5
14D
330
17
100
AcDbEntity
  8
OUTLINE
100
AcDbLine
 10
90.78602213455522
 20
142.0
 30
0.0
 11
90.35842476453806
 21
140.0
 31
0.0
  0
LINE
  5
14E
330
17
100
AcDbEntity
  8
OUTLINE
100
AcDbLine
 10
90.35842476453806
 20
140.0
 30
0.0
 11
89.91908636957623
 21
138.0
 31
0.0
  0
LINE
  5
14F
330
17
100
AcDbEntity
  8
OUTLINE
100
AcDbLine
 10
89.91908636957623
 20
138.0
 30
0.0
 11
89.4673901002901
 21
136.0
 31
0.0
  0
LINE
  5
150
330
17
100
AcDbEntity
  8
OUTLINE
100
AcDbLine
 10
89.4673901002901
 20
136.0
 30
0.0
 11
89.00265604136297
 21
134.0
 31
0.0
  0
LINE
  5
151
330
17
100
AcDbEntity
  8
OUTLINE
100
AcDbLine
 10
89.00265604136297
 20
134.0
 30
0.0
 11
88.52413194223075
 21
132.0
 31
0.0
  0
LINE
  5
152
330
17
100
AcDbEntity
  8
OUTLINE
100
AcDbLine
 10
88.52413194223075
 20
132.0
 30
0.0
 11
88.03098212749626
 21
130.0
 31
0.0
  0
LINE
  5
153
330
17
100
AcDbEntity
  8
OUTLINE
100
AcDbLine
 10
88.03098212749626
 20
130.0
 30
0.0
 11
87.52227413110326
 21
128.0
 31
0.0
  0
LINE
  5
154
330
17
100
AcDbEntity
  8
OUTLINE
100
AcDbLine
 10
87.52227413110326
 20
128.0
 30
0.0
 11
86.99696245712441
 21
126.0
 31
0.0
  0
LINE
  5
155
330
17
100
AcDbEntity
  8
OUTLINE
100
AcDbLine
 10
86.99696245712441
 20
126.0
 30
0.0
 11
86.45386867593876
 21
124.0
 31
0.0
  0
LINE
  5
156
330
17
100
AcDbEntity
  8
OUTLINE
100
AcDbLine
 10
86.45386867593876
 20
124.0
 30
0.0
 11
85.89165679397424
 21
122.0
 31
0.0
  0
LINE
  5
157
330
17
100
AcDbEntity
  8
OUTLINE
100
AcDbLine
 10
85.89165679397424
 20
122.0
 30
0.0
 11
85.30880245201371
 21
120.0
 31
0.0
  0
LINE
  5
158
330
17
100
AcDbEntity
  8
OUTLINE
100
AcDbLine
 10
85.30880245201371
 20
120.0
 30
0.0
 11
84.70355395516115
 21
118.0
 31
0.0
  0
LINE
  5
159
330
17
100
AcDbEntity
  8
OUTLINE
100
AcDbLine
 10
84.70355395516115
 20
118.0
 30
0.0
 11
84.07388232756584
 21
116.0
 31
0.0
  0
LINE
  5
15A
330
17
100
AcDbEntity
  8
OUTLINE
100
AcDbLine
 10
84.07388232756584
 20
116.0
 30
0.0
 11
83.41741637114487
 21
114.0
 31
0.0
  0
LINE
  5
15B
330
17
100
AcDbEntity
  8
OUTLINE
100
AcDbLine
 10
83.41741637114487
 20
114.0
 30
0.0
 11
82.73135684557337
 21
112.0
 31
0.0
  0
LINE
  5
15C
330
17
100
AcDbEntity
  8
OUTLINE
100
AcDbLine
 10
82.73135684557337
 20
112.0
 30
0.0
 11
82.01236095481657
 21
110.0
 31
0.0
  0
LINE
  5
15D
330
17
100
AcDbEntity
  8
OUTLINE
100
AcDbLine
 10
82.01236095481657
 20
110.0
 30
0.0
 11
81.25638356928641
 21
108.0
 31
0.0
  0
LINE
  5
15E
330
17
100
AcDbEntity
  8
OUTLINE
100
AcDbLine
 10
81.25638356928641
 20
108.0
 30
0.0
 11
80.45845363060002
 21
106.0
 31
0.0
  0
LINE
  5
15F
330
17
100
AcDbEntity
  8
OUTLINE
100
AcDbLine
 10
80.45845363060002
 20
106.0
 30
0.0
 11
79.62672880900939
 21
104.0
 31
0.0
  0
LINE
  5
160
330
17
100
AcDbEntity
  8
OUTLINE
100
AcDbLine
 10
79.62672880900939
 20
104.0
 30
0.0
 11
78.75132928496154
 21
102.0
 31
0.0
  0
LINE
  5
161
330
17
100
AcDbEntity
  8
OUTLINE
100
AcDbLine
 10
78.75132928496154
 20
102.0
 30
0.0
 11
77.8065336363047
 21
100.0
 31
0.0
  0
LINE
  5
162
330
17
100
AcDbEntity
  8
OUTLINE
100
AcDbLine
 10
77.8065336363047
 20
100.0
 30
0.0
 11
76.77778401869662
 21
98.0
 31
0.0
  0
LINE
  5
163
330
17
100
AcDbEntity
  8
OUTLINE
100
AcDbLine
 10
76.77778401869662
 20
98.0
 30
0.0
 11
75.64450639986562
 21
96.0
 31
0.0
  0
LINE
  5
164
330
17
100
AcDbEntity
  8
OUTLINE
100
AcDbLine
 10
75.64450639986562
 20
96.0
 30
0.0
 11
74.37594971785022
 21
94.0
 31
0.0
  0
LINE
  5
165
330
17
100
AcDbEntity
  8
OUTLINE
100
AcDbLine
 10
74.37594971785022
 20
94.0
 30
0.0
 11
72.92241103228287
 21
92.0
 31
0.0
  0
LINE
  5
166
330
17
100
AcDbEntity
  8
OUTLINE
100
AcDbLine
 10
72.92241103228287
 20
92.0
 30
0.0
 11
71.19349844183564
 21
90.0
 31
0.0
  0
LINE
  5
167
330
17
100
AcDbEntity
  8
OUTLINE
100
AcDbLine
 10
71.19349844183564
 20
90.0
 30
0.0
 11
68.98796182771028
 21
88.0
 31
0.0
  0
LINE
  5
168
330
17
100
AcDbEntity
  8
OUTLINE
100
AcDbLine
 10
68.98796182771028
 20
88.0
 30
0.0
 11
65.58938105042539
 21
86.0
 31
0.0
  0
LINE
  5
169
330
17
100
AcDbEntity
  8
OUTLINE
100
AcDbLine
 10
65.58938105042539
 20
86.0
 30
0.0
 11
60.0
 21
85.0
 31
0.0
  0
LINE
  5
16A
330
17
100
AcDbEntity
  8
OUTLINE
100
AcDbLine
 10
31.25
 20
300.0
 30
0.0
 11
106.0
 21
300.0
 31
0.0
  0
LINE
  5
16B
330
17
100
AcDbEntity
  8
OUTLINE
100
AcDbLine
 10
60.0
 20
85.0
 30
0.0
 11
60.0
 21
85.0
 31
0.0
  0
LINE
  5
16C
330
17
100
AcDbEntity
  8
SPAR
  6
DASHED
100
AcDbLine
 10
60.0
 20
300.0
 30
0.0
 11
60.0
 21
105.0
 31
0.0
  0
LINE
  5
16D
330
17
100
AcDbEntity
  8
SPAR
  6
DASHED
100
AcDbLine
 10
100.25
 20
300.0
 30
0.0
 11
100.25
 21
85.0
 31
0.0
  0
CIRCLE
  5
16E
330
17
100
AcDbEntity
  8
SPAR
100
AcDbCircle
 10
60.0
 20
105.0
 30
0.0
 40
1.5
  0
TEXT
  5
16F
330
17
100
AcDbEntity
  8
SPAR
100
AcDbText
 10
63.0
 20
104.0
 30
0.0
 40
1.8
  1
SPAR ENDSy=195mm
 11
63.0
 21
104.0
 31
0.0
100
AcDbText
  0
LINE
  5
170
330
17
100
AcDbEntity
  8
SECTION
  6
DASHDOT
100
AcDbLine
 10
23.079754163427218
 20
192.5
 30
0.0
 11
106.80522593775702
 21
192.5
 31
0.0
  0
TEXT
  5
171
330
17
100
AcDbEntity
  8
SECTION
100
AcDbText
 10
17.079754163427218
 20
191.0
 30
0.0
 40
3.0
  1
A
 11
17.079754163427218
 21
191.0
 31
0.0
100
AcDbText
  0
TEXT
  5
172
330
17
100
AcDbEntity
  8
SECTION
100
AcDbText
 10
108.80522593775702
 20
191.0
 30
0.0
 40
3.0
  1
A
 11
108.80522593775702
 21
191.0
 31
0.0
100
AcDbText
  0
LINE
  5
173
330
17
100
AcDbEntity
  8
SECTION
  6
DASHED
100
AcDbLine
 10
57.4125
 20
300.0
 30
0.0
 11
79.8375
 21
300.0
 31
0.0
  0
LINE
  5
174
330
17
100
AcDbEntity
  8
SECTION
  6
DASHED
100
AcDbLine
 10
57.4125
 20
280.0
 30
0.0
 11
79.8375
 21
280.0
 31
0.0
  0
LINE
  5
175
330
17
100
AcDbEntity
  8
SECTION
  6
DASHED
100
AcDbLine
 10
57.4125
 20
300.0
 30
0.0
 11
57.4125
 21
280.0
 31
0.0
  0
LINE
  5
176
330
17
100
AcDbEntity
  8
SECTION
  6
DASHED
100
AcDbLine
 10
79.8375
 20
300.0
 30
0.0
 11
79.8375
 21
280.0
 31
0.0
  0
TEXT
  5
177
330
17
100
AcDbEntity
  8
SECTION
100
AcDbText
 10
57.4125
 20
275.0
 30
0.0
 40
1.5
  1
DOVETAILZONE
 11
57.4125
 21
275.0
 31
0.0
100
AcDbText
  0
LINE
  5
178
330
17
100
AcDbEntity
  8
SECTION
  6
DASHDOT
100
AcDbLine
 10
47.40557276414088
 20
90.0
 30
0.0
 11
74.19349844183564
 21
90.0
 31
0.0
  0
TEXT
  5
179
330
17
100
AcDbEntity
  8
SECTION
100
AcDbText
 10
76.19349844183564
 20
89.0
 30
0.0
 40
1.3
  1
TIP FAIRING(0.55mm wall)
 11
76.19349844183564
 21
89.0
 31
0.0
100
AcDbText
  0
DIMENSION
  5
17A
330
17
100
AcDbEntity
  8
0
100
AcDbDimension
280
0
  2
*D1
  3
COMP
 10
13.25
 20
300.0
 30
0.0
 11
13.25
 21
192.5
 31
0.0
 70
32
 71
5
  1
<>
100
AcDbAlignedDimension
 13
31.25
 23
300.0
 33
0.0
 14
31.25
 24
85.0
 34
0.0
 50
90.0
100
AcDbRotatedDimension
  0
DIMENSION
  5
18A
330
17
100
AcDbEntity
  8
0
100
AcDbDimension
280
0
  2
*D2
  3
COMP
 10
31.25
 20
312.0
 30
0.0
 11
68.625
 21
312.0
 31
0.0
 70
32
 71
5
  1
<>
100
AcDbAlignedDimension
 13
31.25
 23
300.0
 33
0.0
 14
106.0
 24
300.0
 34
0.0
 50
0.0
100
AcDbRotatedDimension
  0
DIMENSION
  5
19A
330
17
100
AcDbEntity
  8
0
100
AcDbDimension
280
0
  2
*D3
  3
COMP
 10
46.719325308179094
 20
87.75
 30
0.0
 11
61.106722890985075
 21
87.75
 31
0.0
 70
32
 71
5
  1
<>
100
AcDbAlignedDimension
 13
46.719325308179094
 23
95.75
 33
0.0
 14
75.49412047379106
 24
95.75
 34
0.0
 50
0.0
100
AcDbRotatedDimension
1001
ACAD
1000
DSTYLE
1002
{
1070
140
1040
2.0
1002
}
  0
DIMENSION
  5
1AA
330
17
100
AcDbEntity
  8
0
100
AcDbDimension
280
0
  2
*D4
  3
COMP
 10
31.25
 20
320.0
 30
0.0
 11
45.625
 21
320.0
 31
0.0
 70
32
 71
5
  1
<>
100
AcDbAlignedDimension
 13
31.25
 23
300.0
 33
0.0
 14
60.0
 24
300.0
 34
0.0
 50
0.0
100
AcDbRotatedDimension
1001
ACAD
1000
DSTYLE
1002
{
1070
140
1040
1.8
1002
}
  0
TEXT
  5
1BA
330
17
100
AcDbEntity
  8
TEXT
100
AcDbText
 10
26.25
 20
328.0
 30
0.0
 40
3.5
  1
TOP VIEW -- PLANFORM (LE to 65% chord hinge)
 11
26.25
 21
328.0
 31
0.0
100
AcDbText
  0
TEXT
  5
1BB
330
17
100
AcDbEntity
  8
TEXT
100
AcDbText
 10
111.0
 20
298.0
 30
0.0
 40
2.5
  1
ROOT
 11
111.0
 21
298.0
 31
0.0
100
AcDbText
  0
TEXT
  5
1BC
330
17
100
AcDbEntity
  8
TEXT
100
AcDbText
 10
55.0
 20
79.0
 30
0.0
 40
2.5
  1
TIP
 11
55.0
 21
79.0
 31
0.0
100
AcDbText
  0
TEXT
  5
1BD
330
17
100
AcDbEntity
  8
TEXT
100
AcDbText
 10
26.25
 20
323.0
 30
0.0
 40
2.0
  1
Superellipse n=2.3
 11
26.25
 21
323.0
 31
0.0
100
AcDbText
  0
TEXT
  5
1BE
330
17
100
AcDbEntity
  8
SPAR
100
AcDbText
 10
63.0
 20
270.0
 30
0.0
 40
1.5
  1
MAIN SPAR3.1mm IDSTRAIGHT
 11
63.0
 21
270.0
 31
0.0
100
AcDbText
  0
TEXT
  5
1BF
330
17
100
AcDbEntity
  8
SPAR
100
AcDbText
 10
103.25
 20
240.0
 30
0.0
 40
1.5
  1
REAR SPAR1.6mm IDSTRAIGHT
 11
103.25
 21
240.0
 31
0.0
100
AcDbText
  0
CIRCLE
  5
1C0
330
17
100
AcDbEntity
  8
SPAR
100
AcDbCircle
 10
60.0
 20
300.0
 30
0.0
 40
1.55
  0
CIRCLE
  5
1C1
330
17
100
AcDbEntity
  8
SPAR
100
AcDbCircle
 10
100.25
 20
300.0
 30
0.0
 40
0.8
  0
LINE
  5
1C2
330
17
100
AcDbEntity
  8
OUTLINE
100
AcDbLine
 10
10.0
 20
-10.0
 30
0.0
 11
11.245833333333334
 21
-8.897571016213977
 31
0.0
  0
LINE
  5
1C3
330
17
100
AcDbEntity
  8
OUTLINE
100
AcDbLine
 10
10.0
 20
-10.0
 30
0.0
 11
11.245833333333334
 21
-11.102428983786023
 31
0.0
  0
LINE
  5
1C4
330
17
100
AcDbEntity
  8
OUTLINE
100
AcDbLine
 10
11.245833333333334
 20
-8.897571016213977
 30
0.0
 11
12.491666666666667
 21
-8.474714687992414
 31
0.0
  0
LINE
  5
1C5
330
17
100
AcDbEntity
  8
OUTLINE
100
AcDbLine
 10
11.245833333333334
 20
-11.102428983786023
 30
0.0
 11
12.491666666666667
 21
-11.525285312007586
 31
0.0
  0
LINE
  5
1C6
330
17
100
AcDbEntity
  8
OUTLINE
100
AcDbLine
 10
12.491666666666667
 20
-8.474714687992414
 30
0.0
 11
13.7375
 21
-8.16609555604261
 31
0.0
  0
LINE
  5
1C7
330
17
100
AcDbEntity
  8
OUTLINE
100
AcDbLine
 10
12.491666666666667
 20
-11.525285312007586
 30
0.0
 11
13.7375
 21
-11.83390444395739
 31
0.0
  0
LINE
  5
1C8
330
17
100
AcDbEntity
  8
OUTLINE
100
AcDbLine
 10
13.7375
 20
-8.16609555604261
 30
0.0
 11
14.983333333333334
 21
-7.917942930578717
 31
0.0
  0
LINE
  5
1C9
330
17
100
AcDbEntity
  8
OUTLINE
100
AcDbLine
 10
13.7375
 20
-11.83390444395739
 30
0.0
 11
14.983333333333334
 21
-12.082057069421282
 31
0.0
  0
LINE
  5
1CA
330
17
100
AcDbEntity
  8
OUTLINE
100
AcDbLine
 10
14.983333333333334
 20
-7.917942930578717
 30
0.0
 11
16.229166666666668
 21
-7.709382701525736
 31
0.0
  0
LINE
  5
1CB
330
17
100
AcDbEntity
  8
OUTLINE
100
AcDbLine
 10
14.983333333333334
 20
-12.082057069421282
 30
0.0
 11
16.229166666666668
 21
-12.290617298474263
 31
0.0
  0
LINE
  5
1CC
330
17
100
AcDbEntity
  8
OUTLINE
100
AcDbLine
 10
16.229166666666668
 20
-7.709382701525736
 30
0.0
 11
17.475
 21
-7.529673260028016
 31
0.0
  0
LINE
  5
1CD
330
17
100
AcDbEntity
  8
OUTLINE
100
AcDbLine
 10
16.229166666666668
 20
-12.290617298474263
 30
0.0
 11
17.475
 21
-12.470326739971984
 31
0.0
  0
LINE
  5
1CE
330
17
100
AcDbEntity
  8
OUTLINE
100
AcDbLine
 10
17.475
 20
-7.529673260028016
 30
0.0
 11
18.72083333333333
 21
-7.372404236781754
 31
0.0
  0
LINE
  5
1CF
330
17
100
AcDbEntity
  8
OUTLINE
100
AcDbLine
 10
17.475
 20
-12.470326739971984
 30
0.0
 11
18.72083333333333
 21
-12.627595763218245
 31
0.0
  0
LINE
  5
1D0
330
17
100
AcDbEntity
  8
OUTLINE
100
AcDbLine
 10
18.72083333333333
 20
-7.372404236781754
 30
0.0
 11
19.96666666666667
 21
-7.233374334649254
 31
0.0
  0
LINE
  5
1D1
330
17
100
AcDbEntity
  8
OUTLINE
100
AcDbLine
 10
18.72083333333333
 20
-12.627595763218245
 30
0.0
 11
19.96666666666667
 21
-12.766625665350746
 31
0.0
  0
LINE
  5
1D2
330
17
100
AcDbEntity
  8
OUTLINE
100
AcDbLine
 10
19.96666666666667
 20
-7.233374334649254
 30
0.0
 11
21.2125
 21
-7.109644311142548
 31
0.0
  0
LINE
  5
1D3
330
17
100
AcDbEntity
  8
OUTLINE
100
AcDbLine
 10
19.96666666666667
 20
-12.766625665350746
 30
0.0
 11
21.2125
 21
-12.890355688857452
 31
0.0
  0
LINE
  5
1D4
330
17
100
AcDbEntity
  8
OUTLINE
100
AcDbLine
 10
21.2125
 20
-7.109644311142548
 30
0.0
 11
22.458333333333336
 21
-6.999055892905124
 31
0.0
  0
LINE
  5
1D5
330
17
100
AcDbEntity
  8
OUTLINE
100
AcDbLine
 10
21.2125
 20
-12.890355688857452
 30
0.0
 11
22.458333333333336
 21
-13.000944107094876
 31
0.0
  0
LINE
  5
1D6
330
17
100
AcDbEntity
  8
OUTLINE
100
AcDbLine
 10
22.458333333333336
 20
-6.999055892905124
 30
0.0
 11
23.704166666666666
 21
-6.899963758541572
 31
0.0
  0
LINE
  5
1D7
330
17
100
AcDbEntity
  8
OUTLINE
100
AcDbLine
 10
22.458333333333336
 20
-13.000944107094876
 30
0.0
 11
23.704166666666666
 21
-13.100036241458428
 31
0.0
  0
LINE
  5
1D8
330
17
100
AcDbEntity
  8
OUTLINE
100
AcDbLine
 10
23.704166666666666
 20
-6.899963758541572
 30
0.0
 11
24.950000000000003
 21
-6.811075484874472
 31
0.0
  0
LINE
  5
1D9
330
17
100
AcDbEntity
  8
OUTLINE
100
AcDbLine
 10
23.704166666666666
 20
-13.100036241458428
 30
0.0
 11
24.950000000000003
 21
-13.188924515125528
 31
0.0
  0
LINE
  5
1DA
330
17
100
AcDbEntity
  8
OUTLINE
100
AcDbLine
 10
24.950000000000003
 20
-6.811075484874472
 30
0.0
 11
26.195833333333333
 21
-6.731350628840825
 31
0.0
  0
LINE
  5
1DB
330
17
100
AcDbEntity
  8
OUTLINE
100
AcDbLine
 10
24.950000000000003
 20
-13.188924515125528
 30
0.0
 11
26.195833333333333
 21
-13.268649371159174
 31
0.0
  0
LINE
  5
1DC
330
17
100
AcDbEntity
  8
OUTLINE
100
AcDbLine
 10
26.195833333333333
 20
-6.731350628840825
 30
0.0
 11
27.441666666666666
 21
-6.659934249323226
 31
0.0
  0
LINE
  5
1DD
330
17
100
AcDbEntity
  8
OUTLINE
100
AcDbLine
 10
26.195833333333333
 20
-13.268649371159174
 30
0.0
 11
27.441666666666666
 21
-13.340065750676775
 31
0.0
  0
LINE
  5
1DE
330
17
100
AcDbEntity
  8
OUTLINE
100
AcDbLine
 10
27.441666666666666
 20
-6.659934249323226
 30
0.0
 11
28.6875
 21
-6.596111508320291
 31
0.0
  0
LINE
  5
1DF
330
17
100
AcDbEntity
  8
OUTLINE
100
AcDbLine
 10
27.441666666666666
 20
-13.340065750676775
 30
0.0
 11
28.6875
 21
-13.403888491679709
 31
0.0
  0
LINE
  5
1E0
330
17
100
AcDbEntity
  8
OUTLINE
100
AcDbLine
 10
28.6875
 20
-6.596111508320291
 30
0.0
 11
29.933333333333334
 21
-6.539275715805877
 31
0.0
  0
LINE
  5
1E1
330
17
100
AcDbEntity
  8
OUTLINE
100
AcDbLine
 10
28.6875
 20
-13.403888491679709
 30
0.0
 11
29.933333333333334
 21
-13.460724284194123
 31
0.0
  0
LINE
  5
1E2
330
17
100
AcDbEntity
  8
OUTLINE
100
AcDbLine
 10
29.933333333333334
 20
-6.539275715805877
 30
0.0
 11
31.179166666666667
 21
-6.488905250870163
 31
0.0
  0
LINE
  5
1E3
330
17
100
AcDbEntity
  8
OUTLINE
100
AcDbLine
 10
29.933333333333334
 20
-13.460724284194123
 30
0.0
 11
31.179166666666667
 21
-13.511094749129837
 31
0.0
  0
LINE
  5
1E4
330
17
100
AcDbEntity
  8
OUTLINE
100
AcDbLine
 10
31.179166666666667
 20
-6.488905250870163
 30
0.0
 11
32.425
 21
-6.444546519649986
 31
0.0
  0
LINE
  5
1E5
330
17
100
AcDbEntity
  8
OUTLINE
100
AcDbLine
 10
31.179166666666667
 20
-13.511094749129837
 30
0.0
 11
32.425
 21
-13.555453480350014
 31
0.0
  0
LINE
  5
1E6
330
17
100
AcDbEntity
  8
OUTLINE
100
AcDbLine
 10
32.425
 20
-6.444546519649986
 30
0.0
 11
33.670833333333334
 21
-6.405801125426924
 31
0.0
  0
LINE
  5
1E7
330
17
100
AcDbEntity
  8
OUTLINE
100
AcDbLine
 10
32.425
 20
-13.555453480350014
 30
0.0
 11
33.670833333333334
 21
-13.594198874573076
 31
0.0
  0
LINE
  5
1E8
330
17
100
AcDbEntity
  8
OUTLINE
100
AcDbLine
 10
33.670833333333334
 20
-6.405801125426924
 30
0.0
 11
34.91666666666667
 21
-6.372316044291609
 31
0.0
  0
LINE
  5
1E9
330
17
100
AcDbEntity
  8
OUTLINE
100
AcDbLine
 10
33.670833333333334
 20
-13.594198874573076
 30
0.0
 11
34.91666666666667
 21
-13.627683955708392
 31
0.0
  0
LINE
  5
1EA
330
17
100
AcDbEntity
  8
OUTLINE
100
AcDbLine
 10
34.91666666666667
 20
-6.372316044291609
 30
0.0
 11
36.1625
 21
-6.343775988150894
 31
0.0
  0
LINE
  5
1EB
330
17
100
AcDbEntity
  8
OUTLINE
100
AcDbLine
 10
34.91666666666667
 20
-13.627683955708392
 30
0.0
 11
36.1625
 21
-13.656224011849105
 31
0.0
  0
LINE
  5
1EC
330
17
100
AcDbEntity
  8
OUTLINE
100
AcDbLine
 10
36.1625
 20
-6.343775988150894
 30
0.0
 11
37.40833333333333
 21
-6.31989738775801
 31
0.0
  0
LINE
  5
1ED
330
17
100
AcDbEntity
  8
OUTLINE
100
AcDbLine
 10
36.1625
 20
-13.656224011849105
 30
0.0
 11
37.40833333333333
 21
-13.68010261224199
 31
0.0
  0
LINE
  5
1EE
330
17
100
AcDbEntity
  8
OUTLINE
100
AcDbLine
 10
37.40833333333333
 20
-6.31989738775801
 30
0.0
 11
38.65416666666667
 21
-6.30042359455255
 31
0.0
  0
LINE
  5
1EF
330
17
100
AcDbEntity
  8
OUTLINE
100
AcDbLine
 10
37.40833333333333
 20
-13.68010261224199
 30
0.0
 11
38.65416666666667
 21
-13.69957640544745
 31
0.0
  0
LINE
  5
1F0
330
17
100
AcDbEntity
  8
OUTLINE
100
AcDbLine
 10
38.65416666666667
 20
-6.30042359455255
 30
0.0
 11
39.900000000000006
 21
-6.2851210124934545
 31
0.0
  0
LINE
  5
1F1
330
17
100
AcDbEntity
  8
OUTLINE
100
AcDbLine
 10
38.65416666666667
 20
-13.69957640544745
 30
0.0
 11
39.900000000000006
 21
-13.714878987506545
 31
0.0
  0
LINE
  5
1F2
330
17
100
AcDbEntity
  8
OUTLINE
100
AcDbLine
 10
39.900000000000006
 20
-6.2851210124934545
 30
0.0
 11
41.14583333333333
 21
-6.27377594862707
 31
0.0
  0
LINE
  5
1F3
330
17
100
AcDbEntity
  8
OUTLINE
100
AcDbLine
 10
39.900000000000006
 20
-13.714878987506545
 30
0.0
 11
41.14583333333333
 21
-13.726224051372931
 31
0.0
  0
LINE
  5
1F4
330
17
100
AcDbEntity
  8
OUTLINE
100
AcDbLine
 10
41.14583333333333
 20
-6.27377594862707
 30
0.0
 11
42.391666666666666
 21
-6.266192025608463
 31
0.0
  0
LINE
  5
1F5
330
17
100
AcDbEntity
  8
OUTLINE
100
AcDbLine
 10
41.14583333333333
 20
-13.726224051372931
 30
0.0
 11
42.391666666666666
 21
-13.733807974391537
 31
0.0
  0
LINE
  5
1F6
330
17
100
AcDbEntity
  8
OUTLINE
100
AcDbLine
 10
42.391666666666666
 20
-6.266192025608463
 30
0.0
 11
43.6375
 21
-6.262188038277159
 31
0.0
  0
LINE
  5
1F7
330
17
100
AcDbEntity
  8
OUTLINE
100
AcDbLine
 10
42.391666666666666
 20
-13.733807974391537
 30
0.0
 11
43.6375
 21
-13.73781196172284
 31
0.0
  0
LINE
  5
1F8
330
17
100
AcDbEntity
  8
OUTLINE
100
AcDbLine
 10
43.6375
 20
-6.262188038277159
 30
0.0
 11
44.88333333333333
 21
-6.261596164551829
 31
0.0
  0
LINE
  5
1F9
330
17
100
AcDbEntity
  8
OUTLINE
100
AcDbLine
 10
43.6375
 20
-13.73781196172284
 30
0.0
 11
44.88333333333333
 21
-13.738403835448171
 31
0.0
  0
LINE
  5
1FA
330
17
100
AcDbEntity
  8
OUTLINE
100
AcDbLine
 10
44.88333333333333
 20
-6.261596164551829
 30
0.0
 11
46.12916666666667
 21
-6.26426046158317
 31
0.0
  0
LINE
  5
1FB
330
17
100
AcDbEntity
  8
OUTLINE
100
AcDbLine
 10
44.88333333333333
 20
-13.738403835448171
 30
0.0
 11
46.12916666666667
 21
-13.73573953841683
 31
0.0
  0
LINE
  5
1FC
330
17
100
AcDbEntity
  8
OUTLINE
100
AcDbLine
 10
46.12916666666667
 20
-6.26426046158317
 30
0.0
 11
47.375
 21
-6.270035593470146
 31
0.0
  0
LINE
  5
1FD
330
17
100
AcDbEntity
  8
OUTLINE
100
AcDbLine
 10
46.12916666666667
 20
-13.73573953841683
 30
0.0
 11
47.375
 21
-13.729964406529854
 31
0.0
  0
LINE
  5
1FE
330
17
100
AcDbEntity
  8
OUTLINE
100
AcDbLine
 10
47.375
 20
-6.270035593470146
 30
0.0
 11
48.62083333333334
 21
-6.278785748395813
 31
0.0
  0
LINE
  5
1FF
330
17
100
AcDbEntity
  8
OUTLINE
100
AcDbLine
 10
47.375
 20
-13.729964406529854
 30
0.0
 11
48.62083333333334
 21
-13.721214251604188
 31
0.0
  0
LINE
  5
200
330
17
100
AcDbEntity
  8
OUTLINE
100
AcDbLine
 10
48.62083333333334
 20
-6.278785748395813
 30
0.0
 11
49.86666666666667
 21
-6.290383711814311
 31
0.0
  0
LINE
  5
201
330
17
100
AcDbEntity
  8
OUTLINE
100
AcDbLine
 10
48.62083333333334
 20
-13.721214251604188
 30
0.0
 11
49.86666666666667
 21
-13.70961628818569
 31
0.0
  0
LINE
  5
202
330
17
100
AcDbEntity
  8
OUTLINE
100
AcDbLine
 10
49.86666666666667
 20
-6.290383711814311
 30
0.0
 11
51.1125
 21
-6.30471006905282
 31
0.0
  0
LINE
  5
203
330
17
100
AcDbEntity
  8
OUTLINE
100
AcDbLine
 10
49.86666666666667
 20
-13.70961628818569
 30
0.0
 11
51.1125
 21
-13.69528993094718
 31
0.0
  0
LINE
  5
204
330
17
100
AcDbEntity
  8
OUTLINE
100
AcDbLine
 10
51.1125
 20
-6.30471006905282
 30
0.0
 11
52.358333333333334
 21
-6.321652515904253
 31
0.0
  0
LINE
  5
205
330
17
100
AcDbEntity
  8
OUTLINE
100
AcDbLine
 10
51.1125
 20
-13.69528993094718
 30
0.0
 11
52.358333333333334
 21
-13.678347484095747
 31
0.0
  0
LINE
  5
206
330
17
100
AcDbEntity
  8
OUTLINE
100
AcDbLine
 10
52.358333333333334
 20
-6.321652515904253
 30
0.0
 11
53.604166666666664
 21
-6.341105259855997
 31
0.0
  0
LINE
  5
207
330
17
100
AcDbEntity
  8
OUTLINE
100
AcDbLine
 10
52.358333333333334
 20
-13.678347484095747
 30
0.0
 11
53.604166666666664
 21
-13.658894740144003
 31
0.0
  0
LINE
  5
208
330
17
100
AcDbEntity
  8
OUTLINE
100
AcDbLine
 10
53.604166666666664
 20
-6.341105259855997
 30
0.0
 11
54.85
 21
-6.362968497802864
 31
0.0
  0
LINE
  5
209
330
17
100
AcDbEntity
  8
OUTLINE
100
AcDbLine
 10
53.604166666666664
 20
-13.658894740144003
 30
0.0
 11
54.85
 21
-13.637031502197136
 31
0.0
  0
LINE
  5
20A
330
17
100
AcDbEntity
  8
OUTLINE
100
AcDbLine
 10
54.85
 20
-6.362968497802864
 30
0.0
 11
56.09583333333333
 21
-6.3871479586319175
 31
0.0
  0
LINE
  5
20B
330
17
100
AcDbEntity
  8
OUTLINE
100
AcDbLine
 10
54.85
 20
-13.637031502197136
 30
0.0
 11
56.09583333333333
 21
-13.612852041368082
 31
0.0
  0
LINE
  5
20C
330
17
100
AcDbEntity
  8
OUTLINE
100
AcDbLine
 10
56.09583333333333
 20
-6.3871479586319175
 30
0.0
 11
57.34166666666667
 21
-6.413554501094726
 31
0.0
  0
LINE
  5
20D
330
17
100
AcDbEntity
  8
OUTLINE
100
AcDbLine
 10
56.09583333333333
 20
-13.612852041368082
 30
0.0
 11
57.34166666666667
 21
-13.586445498905274
 31
0.0
  0
LINE
  5
20E
330
17
100
AcDbEntity
  8
OUTLINE
100
AcDbLine
 10
57.34166666666667
 20
-6.413554501094726
 30
0.0
 11
58.587500000000006
 21
-6.4421037590124435
 31
0.0
  0
LINE
  5
20F
330
17
100
AcDbEntity
  8
OUTLINE
100
AcDbLine
 10
57.34166666666667
 20
-13.586445498905274
 30
0.0
 11
58.587500000000006
 21
-13.557896240987557
 31
0.0
  0
LINE
  5
210
330
17
100
AcDbEntity
  8
OUTLINE
100
AcDbLine
 10
58.587500000000006
 20
-6.4421037590124435
 30
0.0
 11
59.833333333333336
 21
-6.472715827177318
 31
0.0
  0
LINE
  5
211
330
17
100
AcDbEntity
  8
OUTLINE
100
AcDbLine
 10
58.587500000000006
 20
-13.557896240987557
 30
0.0
 11
59.833333333333336
 21
-13.527284172822682
 31
0.0
  0
LINE
  5
212
330
17
100
AcDbEntity
  8
OUTLINE
100
AcDbLine
 10
59.833333333333336
 20
-6.472715827177318
 30
0.0
 11
61.07916666666667
 21
-6.505314982386606
 31
0.0
  0
LINE
  5
213
330
17
100
AcDbEntity
  8
OUTLINE
100
AcDbLine
 10
59.833333333333336
 20
-13.527284172822682
 30
0.0
 11
61.07916666666667
 21
-13.494685017613394
 31
0.0
  0
LINE
  5
214
330
17
100
AcDbEntity
  8
OUTLINE
100
AcDbLine
 10
61.07916666666667
 20
-6.505314982386606
 30
0.0
 11
62.325
 21
-6.539829434922199
 31
0.0
  0
LINE
  5
215
330
17
100
AcDbEntity
  8
OUTLINE
100
AcDbLine
 10
61.07916666666667
 20
-13.494685017613394
 30
0.0
 11
62.325
 21
-13.460170565077801
 31
0.0
  0
LINE
  5
216
330
17
100
AcDbEntity
  8
OUTLINE
100
AcDbLine
 10
62.325
 20
-6.539829434922199
 30
0.0
 11
63.57083333333333
 21
-6.576191106510656
 31
0.0
  0
LINE
  5
217
330
17
100
AcDbEntity
  8
OUTLINE
100
AcDbLine
 10
62.325
 20
-13.460170565077801
 30
0.0
 11
63.57083333333333
 21
-13.423808893489344
 31
0.0
  0
LINE
  5
218
330
17
100
AcDbEntity
  8
OUTLINE
100
AcDbLine
 10
63.57083333333333
 20
-6.576191106510656
 30
0.0
 11
64.81666666666666
 21
-6.614335431394631
 31
0.0
  0
LINE
  5
219
330
17
100
AcDbEntity
  8
OUTLINE
100
AcDbLine
 10
63.57083333333333
 20
-13.423808893489344
 30
0.0
 11
64.81666666666666
 21
-13.38566456860537
 31
0.0
  0
LINE
  5
21A
330
17
100
AcDbEntity
  8
OUTLINE
100
AcDbLine
 10
64.81666666666666
 20
-6.614335431394631
 30
0.0
 11
66.0625
 21
-6.65420117764183
 31
0.0
  0
LINE
  5
21B
330
17
100
AcDbEntity
  8
OUTLINE
100
AcDbLine
 10
64.81666666666666
 20
-13.38566456860537
 30
0.0
 11
66.0625
 21
-13.34579882235817
 31
0.0
  0
LINE
  5
21C
330
17
100
AcDbEntity
  8
OUTLINE
100
AcDbLine
 10
66.0625
 20
-6.65420117764183
 30
0.0
 11
67.30833333333334
 21
-6.6957302862306305
 31
0.0
  0
LINE
  5
21D
330
17
100
AcDbEntity
  8
OUTLINE
100
AcDbLine
 10
66.0625
 20
-13.34579882235817
 30
0.0
 11
67.30833333333334
 21
-13.304269713769369
 31
0.0
  0
LINE
  5
21E
330
17
100
AcDbEntity
  8
OUTLINE
100
AcDbLine
 10
67.30833333333334
 20
-6.6957302862306305
 30
0.0
 11
68.55416666666667
 21
-6.738867725797539
 31
0.0
  0
LINE
  5
21F
330
17
100
AcDbEntity
  8
OUTLINE
100
AcDbLine
 10
67.30833333333334
 20
-13.304269713769369
 30
0.0
 11
68.55416666666667
 21
-13.26113227420246
 31
0.0
  0
LINE
  5
220
330
17
100
AcDbEntity
  8
OUTLINE
100
AcDbLine
 10
68.55416666666667
 20
-6.738867725797539
 30
0.0
 11
69.80000000000001
 21
-6.783561361222692
 31
0.0
  0
LINE
  5
221
330
17
100
AcDbEntity
  8
OUTLINE
100
AcDbLine
 10
68.55416666666667
 20
-13.26113227420246
 30
0.0
 11
69.80000000000001
 21
-13.216438638777309
 31
0.0
  0
LINE
  5
222
330
17
100
AcDbEntity
  8
OUTLINE
100
AcDbLine
 10
69.80000000000001
 20
-6.783561361222692
 30
0.0
 11
71.04583333333335
 21
-6.829761834475459
 31
0.0
  0
LINE
  5
223
330
17
100
AcDbEntity
  8
OUTLINE
100
AcDbLine
 10
69.80000000000001
 20
-13.216438638777309
 30
0.0
 11
71.04583333333335
 21
-13.170238165524541
 31
0.0
  0
LINE
  5
224
330
17
100
AcDbEntity
  8
OUTLINE
100
AcDbLine
 10
71.04583333333335
 20
-6.829761834475459
 30
0.0
 11
72.29166666666666
 21
-6.877422456350444
 31
0.0
  0
LINE
  5
225
330
17
100
AcDbEntity
  8
OUTLINE
100
AcDbLine
 10
71.04583333333335
 20
-13.170238165524541
 30
0.0
 11
72.29166666666666
 21
-13.122577543649555
 31
0.0
  0
LINE
  5
226
330
17
100
AcDbEntity
  8
OUTLINE
100
AcDbLine
 10
72.29166666666666
 20
-6.877422456350444
 30
0.0
 11
73.5375
 21
-6.9264991079015905
 31
0.0
  0
LINE
  5
227
330
17
100
AcDbEntity
  8
OUTLINE
100
AcDbLine
 10
72.29166666666666
 20
-13.122577543649555
 30
0.0
 11
73.5375
 21
-13.073500892098409
 31
0.0
  0
LINE
  5
228
330
17
100
AcDbEntity
  8
OUTLINE
100
AcDbLine
 10
73.5375
 20
-6.9264991079015905
 30
0.0
 11
74.78333333333333
 21
-6.976950150533181
 31
0.0
  0
LINE
  5
229
330
17
100
AcDbEntity
  8
OUTLINE
100
AcDbLine
 10
73.5375
 20
-13.073500892098409
 30
0.0
 11
74.78333333333333
 21
-13.023049849466819
 31
0.0
  0
LINE
  5
22A
330
17
100
AcDbEntity
  8
OUTLINE
100
AcDbLine
 10
74.78333333333333
 20
-6.976950150533181
 30
0.0
 11
76.02916666666667
 21
-7.028736343836263
 31
0.0
  0
LINE
  5
22B
330
17
100
AcDbEntity
  8
OUTLINE
100
AcDbLine
 10
74.78333333333333
 20
-13.023049849466819
 30
0.0
 11
76.02916666666667
 21
-12.971263656163737
 31
0.0
  0
LINE
  5
22C
330
17
100
AcDbEntity
  8
OUTLINE
100
AcDbLine
 10
76.02916666666667
 20
-7.028736343836263
 30
0.0
 11
77.275
 21
-7.081820770370221
 31
0.0
  0
LINE
  5
22D
330
17
100
AcDbEntity
  8
OUTLINE
100
AcDbLine
 10
76.02916666666667
 20
-12.971263656163737
 30
0.0
 11
77.275
 21
-12.918179229629779
 31
0.0
  0
LINE
  5
22E
330
17
100
AcDbEntity
  8
OUTLINE
100
AcDbLine
 10
77.275
 20
-7.081820770370221
 30
0.0
 11
78.52083333333333
 21
-7.136168766685193
 31
0.0
  0
LINE
  5
22F
330
17
100
AcDbEntity
  8
OUTLINE
100
AcDbLine
 10
77.275
 20
-12.918179229629779
 30
0.0
 11
78.52083333333333
 21
-12.863831233314807
 31
0.0
  0
LINE
  5
230
330
17
100
AcDbEntity
  8
OUTLINE
100
AcDbLine
 10
78.52083333333333
 20
-7.136168766685193
 30
0.0
 11
79.76666666666667
 21
-7.19174785996389
 31
0.0
  0
LINE
  5
231
330
17
100
AcDbEntity
  8
OUTLINE
100
AcDbLine
 10
78.52083333333333
 20
-12.863831233314807
 30
0.0
 11
79.76666666666667
 21
-12.80825214003611
 31
0.0
  0
LINE
  5
232
330
17
100
AcDbEntity
  8
OUTLINE
100
AcDbLine
 10
79.76666666666667
 20
-7.19174785996389
 30
0.0
 11
81.0125
 21
-7.248527709733224
 31
0.0
  0
LINE
  5
233
330
17
100
AcDbEntity
  8
OUTLINE
100
AcDbLine
 10
79.76666666666667
 20
-12.80825214003611
 30
0.0
 11
81.0125
 21
-12.751472290266776
 31
0.0
  0
LINE
  5
234
330
17
100
AcDbEntity
  8
OUTLINE
100
AcDbLine
 10
81.0125
 20
-7.248527709733224
 30
0.0
 11
82.25833333333334
 21
-7.306480054158541
 31
0.0
  0
LINE
  5
235
330
17
100
AcDbEntity
  8
OUTLINE
100
AcDbLine
 10
81.0125
 20
-12.751472290266776
 30
0.0
 11
82.25833333333334
 21
-12.693519945841459
 31
0.0
  0
LINE
  5
236
330
17
100
AcDbEntity
  8
OUTLINE
100
AcDbLine
 10
82.25833333333334
 20
-7.306480054158541
 30
0.0
 11
83.50416666666666
 21
-7.365578660487692
 31
0.0
  0
LINE
  5
237
330
17
100
AcDbEntity
  8
OUTLINE
100
AcDbLine
 10
82.25833333333334
 20
-12.693519945841459
 30
0.0
 11
83.50416666666666
 21
-12.634421339512308
 31
0.0
  0
LINE
  5
238
330
17
100
AcDbEntity
  8
OUTLINE
100
AcDbLine
 10
83.50416666666666
 20
-7.365578660487692
 30
0.0
 11
84.75
 21
-7.425799279259601
 31
0.0
  0
LINE
  5
239
330
17
100
AcDbEntity
  8
OUTLINE
100
AcDbLine
 10
83.50416666666666
 20
-12.634421339512308
 30
0.0
 11
84.75
 21
-12.5742007207404
 31
0.0
  0
LINE
  5
23A
330
17
100
AcDbEntity
  8
OUTLINE
100
AcDbLine
 10
84.75
 20
-7.425799279259601
 30
0.0
 11
84.75
 21
-12.5742007207404
 31
0.0
  0
LINE
  5
23B
330
17
100
AcDbEntity
  8
OUTLINE
100
AcDbLine
 10
10.0
 20
-9.23922268794502
 30
0.0
 11
10.0
 21
-10.76077731205498
 31
0.0
  0
LINE
  5
23C
330
17
100
AcDbEntity
  8
WALL
100
AcDbLine
 10
13.7375
 20
-8.386836581120544
 30
0.0
 11
14.983333333333334
 21
-8.168553268150642
 31
0.0
  0
LINE
  5
23D
330
17
100
AcDbEntity
  8
WALL
100
AcDbLine
 10
13.7375
 20
-11.613163418879456
 30
0.0
 11
14.983333333333334
 21
-11.831446731849358
 31
0.0
  0
LINE
  5
23E
330
17
100
AcDbEntity
  8
WALL
100
AcDbLine
 10
14.983333333333334
 20
-8.168553268150642
 30
0.0
 11
16.229166666666668
 21
-7.985096745511228
 31
0.0
  0
LINE
  5
23F
330
17
100
AcDbEntity
  8
WALL
100
AcDbLine
 10
14.983333333333334
 20
-11.831446731849358
 30
0.0
 11
16.229166666666668
 21
-12.014903254488772
 31
0.0
  0
LINE
  5
240
330
17
100
AcDbEntity
  8
WALL
100
AcDbLine
 10
16.229166666666668
 20
-7.985096745511228
 30
0.0
 11
17.475
 21
-7.827018336351697
 31
0.0
  0
LINE
  5
241
330
17
100
AcDbEntity
  8
WALL
100
AcDbLine
 10
16.229166666666668
 20
-12.014903254488772
 30
0.0
 11
17.475
 21
-12.172981663648303
 31
0.0
  0
LINE
  5
242
330
17
100
AcDbEntity
  8
WALL
100
AcDbLine
 10
17.475
 20
-7.827018336351697
 30
0.0
 11
18.72083333333333
 21
-7.68867926636378
 31
0.0
  0
LINE
  5
243
330
17
100
AcDbEntity
  8
WALL
100
AcDbLine
 10
17.475
 20
-12.172981663648303
 30
0.0
 11
18.72083333333333
 21
-12.311320733636219
 31
0.0
  0
LINE
  5
244
330
17
100
AcDbEntity
  8
WALL
100
AcDbLine
 10
18.72083333333333
 20
-7.68867926636378
 30
0.0
 11
19.96666666666667
 21
-7.566383934679775
 31
0.0
  0
LINE
  5
245
330
17
100
AcDbEntity
  8
WALL
100
AcDbLine
 10
18.72083333333333
 20
-12.311320733636219
 30
0.0
 11
19.96666666666667
 21
-12.433616065320225
 31
0.0
  0
LINE
  5
246
330
17
100
AcDbEntity
  8
WALL
100
AcDbLine
 10
19.96666666666667
 20
-7.566383934679775
 30
0.0
 11
21.2125
 21
-7.457546885728957
 31
0.0
  0
LINE
  5
247
330
17
100
AcDbEntity
  8
WALL
100
AcDbLine
 10
19.96666666666667
 20
-12.433616065320225
 30
0.0
 11
21.2125
 21
-12.542453114271044
 31
0.0
  0
LINE
  5
248
330
17
100
AcDbEntity
  8
WALL
100
AcDbLine
 10
21.2125
 20
-7.457546885728957
 30
0.0
 11
22.458333333333336
 21
-7.36026963039531
 31
0.0
  0
LINE
  5
249
330
17
100
AcDbEntity
  8
WALL
100
AcDbLine
 10
21.2125
 20
-12.542453114271044
 30
0.0
 11
22.458333333333336
 21
-12.63973036960469
 31
0.0
  0
LINE
  5
24A
330
17
100
AcDbEntity
  8
WALL
100
AcDbLine
 10
22.458333333333336
 20
-7.36026963039531
 30
0.0
 11
23.704166666666666
 21
-7.27310488918937
 31
0.0
  0
LINE
  5
24B
330
17
100
AcDbEntity
  8
WALL
100
AcDbLine
 10
22.458333333333336
 20
-12.63973036960469
 30
0.0
 11
23.704166666666666
 21
-12.72689511081063
 31
0.0
  0
LINE
  5
24C
330
17
100
AcDbEntity
  8
WALL
100
AcDbLine
 10
23.704166666666666
 20
-7.27310488918937
 30
0.0
 11
24.950000000000003
 21
-7.194915803645911
 31
0.0
  0
LINE
  5
24D
330
17
100
AcDbEntity
  8
WALL
100
AcDbLine
 10
23.704166666666666
 20
-12.72689511081063
 30
0.0
 11
24.950000000000003
 21
-12.80508419635409
 31
0.0
  0
LINE
  5
24E
330
17
100
AcDbEntity
  8
WALL
100
AcDbLine
 10
24.950000000000003
 20
-7.194915803645911
 30
0.0
 11
26.195833333333333
 21
-7.124787165399425
 31
0.0
  0
LINE
  5
24F
330
17
100
AcDbEntity
  8
WALL
100
AcDbLine
 10
24.950000000000003
 20
-12.80508419635409
 30
0.0
 11
26.195833333333333
 21
-12.875212834600575
 31
0.0
  0
LINE
  5
250
330
17
100
AcDbEntity
  8
WALL
100
AcDbLine
 10
26.195833333333333
 20
-7.124787165399425
 30
0.0
 11
27.441666666666666
 21
-7.061966939773058
 31
0.0
  0
LINE
  5
251
330
17
100
AcDbEntity
  8
WALL
100
AcDbLine
 10
26.195833333333333
 20
-12.875212834600575
 30
0.0
 11
27.441666666666666
 21
-12.938033060226942
 31
0.0
  0
LINE
  5
252
330
17
100
AcDbEntity
  8
WALL
100
AcDbLine
 10
27.441666666666666
 20
-7.061966939773058
 30
0.0
 11
28.6875
 21
-7.005826331456312
 31
0.0
  0
LINE
  5
253
330
17
100
AcDbEntity
  8
WALL
100
AcDbLine
 10
27.441666666666666
 20
-12.938033060226942
 30
0.0
 11
28.6875
 21
-12.994173668543688
 31
0.0
  0
LINE
  5
254
330
17
100
AcDbEntity
  8
WALL
100
AcDbLine
 10
28.6875
 20
-7.005826331456312
 30
0.0
 11
29.933333333333334
 21
-6.9558316756990966
 31
0.0
  0
LINE
  5
255
330
17
100
AcDbEntity
  8
WALL
100
AcDbLine
 10
28.6875
 20
-12.994173668543688
 30
0.0
 11
29.933333333333334
 21
-13.044168324300903
 31
0.0
  0
LINE
  5
256
330
17
100
AcDbEntity
  8
WALL
100
AcDbLine
 10
29.933333333333334
 20
-6.9558316756990966
 30
0.0
 11
31.179166666666667
 21
-6.911524137378887
 31
0.0
  0
LINE
  5
257
330
17
100
AcDbEntity
  8
WALL
100
AcDbLine
 10
29.933333333333334
 20
-13.044168324300903
 30
0.0
 11
31.179166666666667
 21
-13.088475862621113
 31
0.0
  0
LINE
  5
258
330
17
100
AcDbEntity
  8
WALL
100
AcDbLine
 10
31.179166666666667
 20
-6.911524137378887
 30
0.0
 11
32.425
 21
-6.872504720228733
 31
0.0
  0
LINE
  5
259
330
17
100
AcDbEntity
  8
WALL
100
AcDbLine
 10
31.179166666666667
 20
-13.088475862621113
 30
0.0
 11
32.425
 21
-13.127495279771267
 31
0.0
  0
LINE
  5
25A
330
17
100
AcDbEntity
  8
WALL
100
AcDbLine
 10
32.425
 20
-6.872504720228733
 30
0.0
 11
33.670833333333334
 21
-6.838422981228291
 31
0.0
  0
LINE
  5
25B
330
17
100
AcDbEntity
  8
WALL
100
AcDbLine
 10
32.425
 20
-13.127495279771267
 30
0.0
 11
33.670833333333334
 21
-13.161577018771709
 31
0.0
  0
LINE
  5
25C
330
17
100
AcDbEntity
  8
WALL
100
AcDbLine
 10
33.670833333333334
 20
-6.838422981228291
 30
0.0
 11
34.91666666666667
 21
-6.808968388791
 31
0.0
  0
LINE
  5
25D
330
17
100
AcDbEntity
  8
WALL
100
AcDbLine
 10
33.670833333333334
 20
-13.161577018771709
 30
0.0
 11
34.91666666666667
 21
-13.191031611208999
 31
0.0
  0
LINE
  5
25E
330
17
100
AcDbEntity
  8
WALL
100
AcDbLine
 10
34.91666666666667
 20
-6.808968388791
 30
0.0
 11
36.1625
 21
-6.783863605010872
 31
0.0
  0
LINE
  5
25F
330
17
100
AcDbEntity
  8
WALL
100
AcDbLine
 10
34.91666666666667
 20
-13.191031611208999
 30
0.0
 11
36.1625
 21
-13.216136394989128
 31
0.0
  0
LINE
  5
260
330
17
100
AcDbEntity
  8
WALL
100
AcDbLine
 10
36.1625
 20
-6.783863605010872
 30
0.0
 11
37.40833333333333
 21
-6.7628591929354425
 31
0.0
  0
LINE
  5
261
330
17
100
AcDbEntity
  8
WALL
100
AcDbLine
 10
36.1625
 20
-13.216136394989128
 30
0.0
 11
37.40833333333333
 21
-13.237140807064558
 31
0.0
  0
LINE
  5
262
330
17
100
AcDbEntity
  8
WALL
100
AcDbLine
 10
37.40833333333333
 20
-6.7628591929354425
 30
0.0
 11
38.65416666666667
 21
-6.745729395944449
 31
0.0
  0
LINE
  5
263
330
17
100
AcDbEntity
  8
WALL
100
AcDbLine
 10
37.40833333333333
 20
-13.237140807064558
 30
0.0
 11
38.65416666666667
 21
-13.254270604055552
 31
0.0
  0
LINE
  5
264
330
17
100
AcDbEntity
  8
WALL
100
AcDbLine
 10
38.65416666666667
 20
-6.745729395944449
 30
0.0
 11
39.900000000000006
 21
-6.732268735181304
 31
0.0
  0
LINE
  5
265
330
17
100
AcDbEntity
  8
WALL
100
AcDbLine
 10
38.65416666666667
 20
-13.254270604055552
 30
0.0
 11
39.900000000000006
 21
-13.267731264818696
 31
0.0
  0
LINE
  5
266
330
17
100
AcDbEntity
  8
WALL
100
AcDbLine
 10
39.900000000000006
 20
-6.732268735181304
 30
0.0
 11
41.14583333333333
 21
-6.722289239207888
 31
0.0
  0
LINE
  5
267
330
17
100
AcDbEntity
  8
WALL
100
AcDbLine
 10
39.900000000000006
 20
-13.267731264818696
 30
0.0
 11
41.14583333333333
 21
-13.277710760792111
 31
0.0
  0
LINE
  5
268
330
17
100
AcDbEntity
  8
WALL
100
AcDbLine
 10
41.14583333333333
 20
-6.722289239207888
 30
0.0
 11
42.391666666666666
 21
-6.71561816797213
 31
0.0
  0
LINE
  5
269
330
17
100
AcDbEntity
  8
WALL
100
AcDbLine
 10
41.14583333333333
 20
-13.277710760792111
 30
0.0
 11
42.391666666666666
 21
-13.28438183202787
 31
0.0
  0
LINE
  5
26A
330
17
100
AcDbEntity
  8
WALL
100
AcDbLine
 10
42.391666666666666
 20
-6.71561816797213
 30
0.0
 11
43.6375
 21
-6.712096127380647
 31
0.0
  0
LINE
  5
26B
330
17
100
AcDbEntity
  8
WALL
100
AcDbLine
 10
42.391666666666666
 20
-13.28438183202787
 30
0.0
 11
43.6375
 21
-13.287903872619353
 31
0.0
  0
LINE
  5
26C
330
17
100
AcDbEntity
  8
WALL
100
AcDbLine
 10
43.6375
 20
-6.712096127380647
 30
0.0
 11
44.88333333333333
 21
-6.711575495542144
 31
0.0
  0
LINE
  5
26D
330
17
100
AcDbEntity
  8
WALL
100
AcDbLine
 10
43.6375
 20
-13.287903872619353
 30
0.0
 11
44.88333333333333
 21
-13.288424504457856
 31
0.0
  0
LINE
  5
26E
330
17
100
AcDbEntity
  8
WALL
100
AcDbLine
 10
44.88333333333333
 20
-6.711575495542144
 30
0.0
 11
46.12916666666667
 21
-6.713919099933392
 31
0.0
  0
LINE
  5
26F
330
17
100
AcDbEntity
  8
WALL
100
AcDbLine
 10
44.88333333333333
 20
-13.288424504457856
 30
0.0
 11
46.12916666666667
 21
-13.286080900066608
 31
0.0
  0
LINE
  5
270
330
17
100
AcDbEntity
  8
WALL
100
AcDbLine
 10
46.12916666666667
 20
-6.713919099933392
 30
0.0
 11
47.375
 21
-6.71899909825608
 31
0.0
  0
LINE
  5
271
330
17
100
AcDbEntity
  8
WALL
100
AcDbLine
 10
46.12916666666667
 20
-13.286080900066608
 30
0.0
 11
47.375
 21
-13.28100090174392
 31
0.0
  0
LINE
  5
272
330
17
100
AcDbEntity
  8
WALL
100
AcDbLine
 10
47.375
 20
-6.71899909825608
 30
0.0
 11
48.62083333333334
 21
-6.726696025913419
 31
0.0
  0
LINE
  5
273
330
17
100
AcDbEntity
  8
WALL
100
AcDbLine
 10
47.375
 20
-13.28100090174392
 30
0.0
 11
48.62083333333334
 21
-13.27330397408658
 31
0.0
  0
LINE
  5
274
330
17
100
AcDbEntity
  8
WALL
100
AcDbLine
 10
48.62083333333334
 20
-6.726696025913419
 30
0.0
 11
49.86666666666667
 21
-6.736897980754561
 31
0.0
  0
LINE
  5
275
330
17
100
AcDbEntity
  8
WALL
100
AcDbLine
 10
48.62083333333334
 20
-13.27330397408658
 30
0.0
 11
49.86666666666667
 21
-13.263102019245439
 31
0.0
  0
LINE
  5
276
330
17
100
AcDbEntity
  8
WALL
100
AcDbLine
 10
49.86666666666667
 20
-6.736897980754561
 30
0.0
 11
51.1125
 21
-6.749499921656723
 31
0.0
  0
LINE
  5
277
330
17
100
AcDbEntity
  8
WALL
100
AcDbLine
 10
49.86666666666667
 20
-13.263102019245439
 30
0.0
 11
51.1125
 21
-13.250500078343277
 31
0.0
  0
LINE
  5
278
330
17
100
AcDbEntity
  8
WALL
100
AcDbLine
 10
51.1125
 20
-6.749499921656723
 30
0.0
 11
52.358333333333334
 21
-6.764403062099561
 31
0.0
  0
LINE
  5
279
330
17
100
AcDbEntity
  8
WALL
100
AcDbLine
 10
51.1125
 20
-13.250500078343277
 30
0.0
 11
52.358333333333334
 21
-13.23559693790044
 31
0.0
  0
LINE
  5
27A
330
17
100
AcDbEntity
  8
WALL
100
AcDbLine
 10
52.358333333333334
 20
-6.764403062099561
 30
0.0
 11
53.604166666666664
 21
-6.781514343466036
 31
0.0
  0
LINE
  5
27B
330
17
100
AcDbEntity
  8
WALL
100
AcDbLine
 10
52.358333333333334
 20
-13.23559693790044
 30
0.0
 11
53.604166666666664
 21
-13.218485656533964
 31
0.0
  0
LINE
  5
27C
330
17
100
AcDbEntity
  8
WALL
100
AcDbLine
 10
53.604166666666664
 20
-6.781514343466036
 30
0.0
 11
54.85
 21
-6.800745975621327
 31
0.0
  0
LINE
  5
27D
330
17
100
AcDbEntity
  8
WALL
100
AcDbLine
 10
53.604166666666664
 20
-13.218485656533964
 30
0.0
 11
54.85
 21
-13.199254024378673
 31
0.0
  0
LINE
  5
27E
330
17
100
AcDbEntity
  8
WALL
100
AcDbLine
 10
54.85
 20
-6.800745975621327
 30
0.0
 11
56.09583333333333
 21
-6.8220150345552195
 31
0.0
  0
LINE
  5
27F
330
17
100
AcDbEntity
  8
WALL
100
AcDbLine
 10
54.85
 20
-13.199254024378673
 30
0.0
 11
56.09583333333333
 21
-13.17798496544478
 31
0.0
  0
LINE
  5
280
330
17
100
AcDbEntity
  8
WALL
100
AcDbLine
 10
56.09583333333333
 20
-6.8220150345552195
 30
0.0
 11
57.34166666666667
 21
-6.845243108657143
 31
0.0
  0
LINE
  5
281
330
17
100
AcDbEntity
  8
WALL
100
AcDbLine
 10
56.09583333333333
 20
-13.17798496544478
 30
0.0
 11
57.34166666666667
 21
-13.154756891342856
 31
0.0
  0
LINE
  5
282
330
17
100
AcDbEntity
  8
WALL
100
AcDbLine
 10
57.34166666666667
 20
-6.845243108657143
 30
0.0
 11
58.587500000000006
 21
-6.870355986626747
 31
0.0
  0
LINE
  5
283
330
17
100
AcDbEntity
  8
WALL
100
AcDbLine
 10
57.34166666666667
 20
-13.154756891342856
 30
0.0
 11
58.587500000000006
 21
-13.129644013373252
 31
0.0
  0
LINE
  5
284
330
17
100
AcDbEntity
  8
WALL
100
AcDbLine
 10
58.587500000000006
 20
-6.870355986626747
 30
0.0
 11
59.833333333333336
 21
-6.897283381182408
 31
0.0
  0
LINE
  5
285
330
17
100
AcDbEntity
  8
WALL
100
AcDbLine
 10
58.587500000000006
 20
-13.129644013373252
 30
0.0
 11
59.833333333333336
 21
-13.102716618817592
 31
0.0
  0
LINE
  5
286
330
17
100
AcDbEntity
  8
WALL
100
AcDbLine
 10
59.833333333333336
 20
-6.897283381182408
 30
0.0
 11
61.07916666666667
 21
-6.92595868367337
 31
0.0
  0
LINE
  5
287
330
17
100
AcDbEntity
  8
WALL
100
AcDbLine
 10
59.833333333333336
 20
-13.102716618817592
 30
0.0
 11
61.07916666666667
 21
-13.07404131632663
 31
0.0
  0
LINE
  5
288
330
17
100
AcDbEntity
  8
WALL
100
AcDbLine
 10
61.07916666666667
 20
-6.92595868367337
 30
0.0
 11
62.325
 21
-6.956318745472949
 31
0.0
  0
LINE
  5
289
330
17
100
AcDbEntity
  8
WALL
100
AcDbLine
 10
61.07916666666667
 20
-13.07404131632663
 30
0.0
 11
62.325
 21
-13.043681254527051
 31
0.0
  0
LINE
  5
28A
330
17
100
AcDbEntity
  8
WALL
100
AcDbLine
 10
62.325
 20
-6.956318745472949
 30
0.0
 11
63.57083333333333
 21
-6.988303682664785
 31
0.0
  0
LINE
  5
28B
330
17
100
AcDbEntity
  8
WALL
100
AcDbLine
 10
62.325
 20
-13.043681254527051
 30
0.0
 11
63.57083333333333
 21
-13.011696317335215
 31
0.0
  0
LINE
  5
28C
330
17
100
AcDbEntity
  8
WALL
100
AcDbLine
 10
63.57083333333333
 20
-6.988303682664785
 30
0.0
 11
64.81666666666666
 21
-7.021856701058644
 31
0.0
  0
LINE
  5
28D
330
17
100
AcDbEntity
  8
WALL
100
AcDbLine
 10
63.57083333333333
 20
-13.011696317335215
 30
0.0
 11
64.81666666666666
 21
-12.978143298941356
 31
0.0
  0
LINE
  5
28E
330
17
100
AcDbEntity
  8
WALL
100
AcDbLine
 10
64.81666666666666
 20
-7.021856701058644
 30
0.0
 11
66.0625
 21
-7.056923939007824
 31
0.0
  0
LINE
  5
28F
330
17
100
AcDbEntity
  8
WALL
100
AcDbLine
 10
64.81666666666666
 20
-12.978143298941356
 30
0.0
 11
66.0625
 21
-12.943076060992176
 31
0.0
  0
LINE
  5
290
330
17
100
AcDbEntity
  8
WALL
100
AcDbLine
 10
66.0625
 20
-7.056923939007824
 30
0.0
 11
67.30833333333334
 21
-7.093454325863511
 31
0.0
  0
LINE
  5
291
330
17
100
AcDbEntity
  8
WALL
100
AcDbLine
 10
66.0625
 20
-12.943076060992176
 30
0.0
 11
67.30833333333334
 21
-12.906545674136488
 31
0.0
  0
LINE
  5
292
330
17
100
AcDbEntity
  8
WALL
100
AcDbLine
 10
67.30833333333334
 20
-7.093454325863511
 30
0.0
 11
68.55416666666667
 21
-7.131399454205802
 31
0.0
  0
LINE
  5
293
330
17
100
AcDbEntity
  8
WALL
100
AcDbLine
 10
67.30833333333334
 20
-12.906545674136488
 30
0.0
 11
68.55416666666667
 21
-12.868600545794198
 31
0.0
  0
LINE
  5
294
330
17
100
AcDbEntity
  8
WALL
100
AcDbLine
 10
68.55416666666667
 20
-7.131399454205802
 30
0.0
 11
69.80000000000001
 21
-7.170713464247138
 31
0.0
  0
LINE
  5
295
330
17
100
AcDbEntity
  8
WALL
100
AcDbLine
 10
68.55416666666667
 20
-12.868600545794198
 30
0.0
 11
69.80000000000001
 21
-12.829286535752862
 31
0.0
  0
LINE
  5
296
330
17
100
AcDbEntity
  8
WALL
100
AcDbLine
 10
69.80000000000001
 20
-7.170713464247138
 30
0.0
 11
71.04583333333335
 21
-7.211352939020127
 31
0.0
  0
LINE
  5
297
330
17
100
AcDbEntity
  8
WALL
100
AcDbLine
 10
69.80000000000001
 20
-12.829286535752862
 30
0.0
 11
71.04583333333335
 21
-12.788647060979873
 31
0.0
  0
LINE
  5
298
330
17
100
AcDbEntity
  8
WALL
100
AcDbLine
 10
71.04583333333335
 20
-7.211352939020127
 30
0.0
 11
72.29166666666666
 21
-7.253276809144933
 31
0.0
  0
LINE
  5
299
330
17
100
AcDbEntity
  8
WALL
100
AcDbLine
 10
71.04583333333335
 20
-12.788647060979873
 30
0.0
 11
72.29166666666666
 21
-12.746723190855068
 31
0.0
  0
LINE
  5
29A
330
17
100
AcDbEntity
  8
WALL
100
AcDbLine
 10
72.29166666666666
 20
-7.253276809144933
 30
0.0
 11
73.5375
 21
-7.2964462661274165
 31
0.0
  0
LINE
  5
29B
330
17
100
AcDbEntity
  8
WALL
100
AcDbLine
 10
72.29166666666666
 20
-12.746723190855068
 30
0.0
 11
73.5375
 21
-12.703553733872583
 31
0.0
  0
LINE
  5
29C
330
17
100
AcDbEntity
  8
WALL
100
AcDbLine
 10
73.5375
 20
-7.2964462661274165
 30
0.0
 11
74.78333333333333
 21
-7.3408246832721975
 31
0.0
  0
LINE
  5
29D
330
17
100
AcDbEntity
  8
WALL
100
AcDbLine
 10
73.5375
 20
-12.703553733872583
 30
0.0
 11
74.78333333333333
 21
-12.659175316727802
 31
0.0
  0
LINE
  5
29E
330
17
100
AcDbEntity
  8
WALL
100
AcDbLine
 10
74.78333333333333
 20
-7.3408246832721975
 30
0.0
 11
76.02916666666667
 21
-7.386377543408837
 31
0.0
  0
LINE
  5
29F
330
17
100
AcDbEntity
  8
WALL
100
AcDbLine
 10
74.78333333333333
 20
-12.659175316727802
 30
0.0
 11
76.02916666666667
 21
-12.613622456591163
 31
0.0
  0
LINE
  5
2A0
330
17
100
AcDbEntity
  8
WALL
100
AcDbLine
 10
76.02916666666667
 20
-7.386377543408837
 30
0.0
 11
77.275
 21
-7.433072372727199
 31
0.0
  0
LINE
  5
2A1
330
17
100
AcDbEntity
  8
WALL
100
AcDbLine
 10
76.02916666666667
 20
-12.613622456591163
 30
0.0
 11
77.275
 21
-12.5669276272728
 31
0.0
  0
LINE
  5
2A2
330
17
100
AcDbEntity
  8
WALL
100
AcDbLine
 10
77.275
 20
-7.433072372727199
 30
0.0
 11
78.52083333333333
 21
-7.480878680102473
 31
0.0
  0
LINE
  5
2A3
330
17
100
AcDbEntity
  8
WALL
100
AcDbLine
 10
77.275
 20
-12.5669276272728
 30
0.0
 11
78.52083333333333
 21
-12.519121319897527
 31
0.0
  0
LINE
  5
2A4
330
17
100
AcDbEntity
  8
WALL
100
AcDbLine
 10
78.52083333333333
 20
-7.480878680102473
 30
0.0
 11
79.76666666666667
 21
-7.5297679013632095
 31
0.0
  0
LINE
  5
2A5
330
17
100
AcDbEntity
  8
WALL
100
AcDbLine
 10
78.52083333333333
 20
-12.519121319897527
 30
0.0
 11
79.76666666666667
 21
-12.47023209863679
 31
0.0
  0
LINE
  5
2A6
330
17
100
AcDbEntity
  8
WALL
100
AcDbLine
 10
79.76666666666667
 20
-7.5297679013632095
 30
0.0
 11
81.0125
 21
-7.579713348018929
 31
0.0
  0
LINE
  5
2A7
330
17
100
AcDbEntity
  8
WALL
100
AcDbLine
 10
79.76666666666667
 20
-12.47023209863679
 30
0.0
 11
81.0125
 21
-12.42028665198107
 31
0.0
  0
CIRCLE
  5
2A8
330
17
100
AcDbEntity
  8
SPAR
100
AcDbCircle
 10
38.75
 20
-10.0
 30
0.0
 40
1.55
  0
CIRCLE
  5
2A9
330
17
100
AcDbEntity
  8
SPAR
100
AcDbCircle
 10
38.75
 20
-10.0
 30
0.0
 40
2.05
  0
CIRCLE
  5
2AA
330
17
100
AcDbEntity
  8
SPAR
100
AcDbCircle
 10
79.0
 20
-10.0
 30
0.0
 40
0.8
  0
CIRCLE
  5
2AB
330
17
100
AcDbEntity
  8
SPAR
100
AcDbCircle
 10
79.0
 20
-10.0
 30
0.0
 40
1.2000000000000002
  0
LINE
  5
2AC
330
17
100
AcDbEntity
  8
SECTION
370
50
100
AcDbLine
 10
82.75
 20
-12.670332281346502
 30
0.0
 11
84.75
 21
-12.5742007207404
 31
0.0
  0
TEXT
  5
2AD
330
17
100
AcDbEntity
  8
SECTION
100
AcDbText
 10
86.75
 20
-14.5742007207404
 30
0.0
 40
1.3
  1
HINGE BOND2mm flat
 11
86.75
 21
-14.5742007207404
 31
0.0
100
AcDbText
  0
LINE
  5
2AE
330
17
100
AcDbEntity
  8
CENTERLINE
  6
CENTER
100
AcDbLine
 10
5.0
 20
-10.0
 30
0.0
 11
94.75
 21
-10.0
 31
0.0
  0
DIMENSION
  5
2AF
330
17
100
AcDbEntity
  8
0
100
AcDbDimension
280
0
  2
*D5
  3
COMP
 10
10.0
 20
-22.0
 30
0.0
 11
47.375
 21
-22.0
 31
0.0
 70
32
 71
5
  1
<>
100
AcDbAlignedDimension
 13
10.0
 23
-10.0
 33
0.0
 14
84.75
 24
-10.0
 34
0.0
 50
0.0
100
AcDbRotatedDimension
  0
DIMENSION
  5
2BF
330
17
100
AcDbEntity
  8
0
100
AcDbDimension
280
0
  2
*D6
  3
COMP
 10
32.5
 20
-13.738575552457732
 30
0.0
 11
30.1
 21
-10.0
 31
0.0
 70
32
 71
5
  1
<>
100
AcDbAlignedDimension
 13
44.5
 23
-13.738575552457732
 33
0.0
 14
44.5
 24
-6.261424447542268
 34
0.0
 50
90.0
100
AcDbRotatedDimension
1001
ACAD
1000
DSTYLE
1002
{
1070
140
1040
2.0
1002
}
  0
DIMENSION
  5
2CE
330
17
100
AcDbEntity
  8
0
100
AcDbDimension
280
0
  2
*D7
  3
COMP
 10
10.0
 20
1.738575552457732
 30
0.0
 11
24.375
 21
1.738575552457732
 31
0.0
 70
32
 71
5
  1
<>
100
AcDbAlignedDimension
 13
10.0
 23
-10.0
 33
0.0
 14
38.75
 24
-10.0
 34
0.0
 50
0.0
100
AcDbRotatedDimension
1001
ACAD
1000
DSTYLE
1002
{
1070
140
1040
1.8
1002
}
  0
DIMENSION
  5
2DE
330
17
100
AcDbEntity
  8
0
100
AcDbDimension
280
0
  2
*D8
  3
COMP
 10
10.0
 20
7.738575552457732
 30
0.0
 11
44.5
 21
7.738575552457732
 31
0.0
 70
32
 71
5
  1
<>
100
AcDbAlignedDimension
 13
10.0
 23
-10.0
 33
0.0
 14
79.0
 24
-10.0
 34
0.0
 50
0.0
100
AcDbRotatedDimension
1001
ACAD
1000
DSTYLE
1002
{
1070
140
1040
1.8
1002
}
  0
TEXT
  5
2EE
330
17
100
AcDbEntity
  8
TEXT
100
AcDbText
 10
10.0
 20
-32.0
 30
0.0
 40
3.0
  1
ROOT SECTION (y=0) -- HT-13 (6.5%)
 11
10.0
 21
-32.0
 31
0.0
100
AcDbText
  0
TEXT
  5
2EF
330
17
100
AcDbEntity
  8
SPAR
100
AcDbText
 10
41.75
 20
-8.0
 30
0.0
 40
1.3
  1
Main spar3.1mm ID
 11
41.75
 21
-8.0
 31
0.0
100
AcDbText
  0
TEXT
  5
2F0
330
17
100
AcDbEntity
  8
SPAR
100
AcDbText
 10
81.0
 20
-8.0
 30
0.0
 40
1.3
  1
Rear spar1.6mm ID
 11
81.0
 21
-8.0
 31
0.0
100
AcDbText
  0
TEXT
  5
2F1
330
17
100
AcDbEntity
  8
WALL
100
AcDbText
 10
58.3
 20
-7.75685466852536
 30
0.0
 40
1.3
  1
Wall: 0.45mm(vase mode)
 11
58.3
 21
-7.75685466852536
 31
0.0
100
AcDbText
  0
TEXT
  5
2F2
330
17
100
AcDbEntity
  8
TEXT
100
AcDbText
 10
86.75
 20
-9.4257992792596
 30
0.0
 40
1.3
  1
HINGE FACE(flat, 65% chord)
 11
86.75
 21
-9.4257992792596
 31
0.0
100
AcDbText
  0
LINE
  5
2F3
330
17
100
AcDbEntity
  8
OUTLINE
100
AcDbLine
 10
134.75
 20
-10.0
 30
0.0
 11
135.8787578629055
 21
-9.108736540174531
 31
0.0
  0
LINE
  5
2F4
330
17
100
AcDbEntity
  8
OUTLINE
100
AcDbLine
 10
134.75
 20
-10.0
 30
0.0
 11
135.8787578629055
 21
-10.891263459825469
 31
0.0
  0
LINE
  5
2F5
330
17
100
AcDbEntity
  8
OUTLINE
100
AcDbLine
 10
135.8787578629055
 20
-9.108736540174531
 30
0.0
 11
137.007515725811
 21
-8.766876520488225
 31
0.0
  0
LINE
  5
2F6
330
17
100
AcDbEntity
  8
OUTLINE
100
AcDbLine
 10
135.8787578629055
 20
-10.891263459825469
 30
0.0
 11
137.007515725811
 21
-11.233123479511775
 31
0.0
  0
LINE
  5
2F7
330
17
100
AcDbEntity
  8
OUTLINE
100
AcDbLine
 10
137.007515725811
 20
-8.766876520488225
 30
0.0
 11
138.13627358871648
 21
-8.517372054118622
 31
0.0
  0
LINE
  5
2F8
330
17
100
AcDbEntity
  8
OUTLINE
100
AcDbLine
 10
137.007515725811
 20
-11.233123479511775
 30
0.0
 11
138.13627358871648
 21
-11.482627945881378
 31
0.0
  0
LINE
  5
2F9
330
17
100
AcDbEntity
  8
OUTLINE
100
AcDbLine
 10
138.13627358871648
 20
-8.517372054118622
 30
0.0
 11
139.26503145162198
 21
-8.316751995331552
 31
0.0
  0
LINE
  5
2FA
330
17
100
AcDbEntity
  8
OUTLINE
100
AcDbLine
 10
138.13627358871648
 20
-11.482627945881378
 30
0.0
 11
139.26503145162198
 21
-11.683248004668448
 31
0.0
  0
LINE
  5
2FB
330
17
100
AcDbEntity
  8
OUTLINE
100
AcDbLine
 10
139.26503145162198
 20
-8.316751995331552
 30
0.0
 11
140.39378931452748
 21
-8.148140579937351
 31
0.0
  0
LINE
  5
2FC
330
17
100
AcDbEntity
  8
OUTLINE
100
AcDbLine
 10
139.26503145162198
 20
-11.683248004668448
 30
0.0
 11
140.39378931452748
 21
-11.851859420062649
 31
0.0
  0
LINE
  5
2FD
330
17
100
AcDbEntity
  8
OUTLINE
100
AcDbLine
 10
140.39378931452748
 20
-8.148140579937351
 30
0.0
 11
141.52254717743298
 21
-8.002853707995268
 31
0.0
  0
LINE
  5
2FE
330
17
100
AcDbEntity
  8
OUTLINE
100
AcDbLine
 10
140.39378931452748
 20
-11.851859420062649
 30
0.0
 11
141.52254717743298
 21
-11.997146292004732
 31
0.0
  0
LINE
  5
2FF
330
17
100
AcDbEntity
  8
OUTLINE
100
AcDbLine
 10
141.52254717743298
 20
-8.002853707995268
 30
0.0
 11
142.65130504033849
 21
-7.875708888833799
 31
0.0
  0
LINE
  5
300
330
17
100
AcDbEntity
  8
OUTLINE
100
AcDbLine
 10
141.52254717743298
 20
-11.997146292004732
 30
0.0
 11
142.65130504033849
 21
-12.124291111166201
 31
0.0
  0
LINE
  5
301
330
17
100
AcDbEntity
  8
OUTLINE
100
AcDbLine
 10
142.65130504033849
 20
-7.875708888833799
 30
0.0
 11
143.78006290324396
 21
-7.763309565688047
 31
0.0
  0
LINE
  5
302
330
17
100
AcDbEntity
  8
OUTLINE
100
AcDbLine
 10
142.65130504033849
 20
-12.124291111166201
 30
0.0
 11
143.78006290324396
 21
-12.236690434311953
 31
0.0
  0
LINE
  5
303
330
17
100
AcDbEntity
  8
OUTLINE
100
AcDbLine
 10
143.78006290324396
 20
-7.763309565688047
 30
0.0
 11
144.90882076614946
 21
-7.663279495310037
 31
0.0
  0
LINE
  5
304
330
17
100
AcDbEntity
  8
OUTLINE
100
AcDbLine
 10
143.78006290324396
 20
-12.236690434311953
 30
0.0
 11
144.90882076614946
 21
-12.336720504689964
 31
0.0
  0
LINE
  5
305
330
17
100
AcDbEntity
  8
OUTLINE
100
AcDbLine
 10
144.90882076614946
 20
-7.663279495310037
 30
0.0
 11
146.03757862905496
 21
-7.57387381230956
 31
0.0
  0
LINE
  5
306
330
17
100
AcDbEntity
  8
OUTLINE
100
AcDbLine
 10
144.90882076614946
 20
-12.336720504689964
 30
0.0
 11
146.03757862905496
 21
-12.42612618769044
 31
0.0
  0
LINE
  5
307
330
17
100
AcDbEntity
  8
OUTLINE
100
AcDbLine
 10
146.03757862905496
 20
-7.57387381230956
 30
0.0
 11
147.16633649196046
 21
-7.4937623495185095
 31
0.0
  0
LINE
  5
308
330
17
100
AcDbEntity
  8
OUTLINE
100
AcDbLine
 10
146.03757862905496
 20
-12.42612618769044
 30
0.0
 11
147.16633649196046
 21
-12.506237650481491
 31
0.0
  0
LINE
  5
309
330
17
100
AcDbEntity
  8
OUTLINE
100
AcDbLine
 10
147.16633649196046
 20
-7.4937623495185095
 30
0.0
 11
148.29509435486597
 21
-7.42190024185296
 31
0.0
  0
LINE
  5
30A
330
17
100
AcDbEntity
  8
OUTLINE
100
AcDbLine
 10
147.16633649196046
 20
-12.506237650481491
 30
0.0
 11
148.29509435486597
 21
-12.57809975814704
 31
0.0
  0
LINE
  5
30B
330
17
100
AcDbEntity
  8
OUTLINE
100
AcDbLine
 10
148.29509435486597
 20
-7.42190024185296
 30
0.0
 11
149.42385221777147
 21
-7.357446338637706
 31
0.0
  0
LINE
  5
30C
330
17
100
AcDbEntity
  8
OUTLINE
100
AcDbLine
 10
148.29509435486597
 20
-12.57809975814704
 30
0.0
 11
149.42385221777147
 21
-12.642553661362294
 31
0.0
  0
LINE
  5
30D
330
17
100
AcDbEntity
  8
OUTLINE
100
AcDbLine
 10
149.42385221777147
 20
-7.357446338637706
 30
0.0
 11
150.55261008067694
 21
-7.299709459044363
 31
0.0
  0
LINE
  5
30E
330
17
100
AcDbEntity
  8
OUTLINE
100
AcDbLine
 10
149.42385221777147
 20
-12.642553661362294
 30
0.0
 11
150.55261008067694
 21
-12.700290540955637
 31
0.0
  0
LINE
  5
30F
330
17
100
AcDbEntity
  8
OUTLINE
100
AcDbLine
 10
150.55261008067694
 20
-7.299709459044363
 30
0.0
 11
151.68136794358244
 21
-7.248111689212088
 31
0.0
  0
LINE
  5
310
330
17
100
AcDbEntity
  8
OUTLINE
100
AcDbLine
 10
150.55261008067694
 20
-12.700290540955637
 30
0.0
 11
151.68136794358244
 21
-12.751888310787912
 31
0.0
  0
LINE
  5
311
330
17
100
AcDbEntity
  8
OUTLINE
100
AcDbLine
 10
151.68136794358244
 20
-7.248111689212088
 30
0.0
 11
152.81012580648795
 21
-7.202162547976382
 31
0.0
  0
LINE
  5
312
330
17
100
AcDbEntity
  8
OUTLINE
100
AcDbLine
 10
151.68136794358244
 20
-12.751888310787912
 30
0.0
 11
152.81012580648795
 21
-12.797837452023618
 31
0.0
  0
LINE
  5
313
330
17
100
AcDbEntity
  8
OUTLINE
100
AcDbLine
 10
152.81012580648795
 20
-7.202162547976382
 30
0.0
 11
153.93888366939345
 21
-7.161440328666212
 31
0.0
  0
LINE
  5
314
330
17
100
AcDbEntity
  8
OUTLINE
100
AcDbLine
 10
152.81012580648795
 20
-12.797837452023618
 30
0.0
 11
153.93888366939345
 21
-12.838559671333787
 31
0.0
  0
LINE
  5
315
330
17
100
AcDbEntity
  8
OUTLINE
100
AcDbLine
 10
153.93888366939345
 20
-7.161440328666212
 30
0.0
 11
155.06764153229895
 21
-7.125578321369391
 31
0.0
  0
LINE
  5
316
330
17
100
AcDbEntity
  8
OUTLINE
100
AcDbLine
 10
153.93888366939345
 20
-12.838559671333787
 30
0.0
 11
155.06764153229895
 21
-12.87442167863061
 31
0.0
  0
LINE
  5
317
330
17
100
AcDbEntity
  8
OUTLINE
100
AcDbLine
 10
155.06764153229895
 20
-7.125578321369391
 30
0.0
 11
156.19639939520442
 21
-7.0942544405431125
 31
0.0
  0
LINE
  5
318
330
17
100
AcDbEntity
  8
OUTLINE
100
AcDbLine
 10
155.06764153229895
 20
-12.87442167863061
 30
0.0
 11
156.19639939520442
 21
-12.905745559456888
 31
0.0
  0
LINE
  5
319
330
17
100
AcDbEntity
  8
OUTLINE
100
AcDbLine
 10
156.19639939520442
 20
-7.0942544405431125
 30
0.0
 11
157.32515725810993
 21
-7.067183282487466
 31
0.0
  0
LINE
  5
31A
330
17
100
AcDbEntity
  8
OUTLINE
100
AcDbLine
 10
156.19639939520442
 20
-12.905745559456888
 30
0.0
 11
157.32515725810993
 21
-12.932816717512534
 31
0.0
  0
LINE
  5
31B
330
17
100
AcDbEntity
  8
OUTLINE
100
AcDbLine
 10
157.32515725810993
 20
-7.067183282487466
 30
0.0
 11
158.45391512101543
 21
-7.04410995118568
 31
0.0
  0
LINE
  5
31C
330
17
100
AcDbEntity
  8
OUTLINE
100
AcDbLine
 10
157.32515725810993
 20
-12.932816717512534
 30
0.0
 11
158.45391512101543
 21
-12.95589004881432
 31
0.0
  0
LINE
  5
31D
330
17
100
AcDbEntity
  8
OUTLINE
100
AcDbLine
 10
158.45391512101543
 20
-7.04410995118568
 30
0.0
 11
159.58267298392093
 21
-7.02480519385894
 31
0.0
  0
LINE
  5
31E
330
17
100
AcDbEntity
  8
OUTLINE
100
AcDbLine
 10
158.45391512101543
 20
-12.95589004881432
 30
0.0
 11
159.58267298392093
 21
-12.97519480614106
 31
0.0
  0
LINE
  5
31F
330
17
100
AcDbEntity
  8
OUTLINE
100
AcDbLine
 10
159.58267298392093
 20
-7.02480519385894
 30
0.0
 11
160.71143084682643
 21
-7.00906152187327
 31
0.0
  0
LINE
  5
320
330
17
100
AcDbEntity
  8
OUTLINE
100
AcDbLine
 10
159.58267298392093
 20
-12.97519480614106
 30
0.0
 11
160.71143084682643
 21
-12.99093847812673
 31
0.0
  0
LINE
  5
321
330
17
100
AcDbEntity
  8
OUTLINE
100
AcDbLine
 10
160.71143084682643
 20
-7.00906152187327
 30
0.0
 11
161.84018870973193
 21
-6.996690083503232
 31
0.0
  0
LINE
  5
322
330
17
100
AcDbEntity
  8
OUTLINE
100
AcDbLine
 10
160.71143084682643
 20
-12.99093847812673
 30
0.0
 11
161.84018870973193
 21
-13.003309916496768
 31
0.0
  0
LINE
  5
323
330
17
100
AcDbEntity
  8
OUTLINE
100
AcDbLine
 10
161.84018870973193
 20
-6.996690083503232
 30
0.0
 11
162.9689465726374
 21
-6.987518117760124
 31
0.0
  0
LINE
  5
324
330
17
100
AcDbEntity
  8
OUTLINE
100
AcDbLine
 10
161.84018870973193
 20
-13.003309916496768
 30
0.0
 11
162.9689465726374
 21
-13.012481882239875
 31
0.0
  0
LINE
  5
325
330
17
100
AcDbEntity
  8
OUTLINE
100
AcDbLine
 10
162.9689465726374
 20
-6.987518117760124
 30
0.0
 11
164.0977044355429
 21
-6.981386862533688
 31
0.0
  0
LINE
  5
326
330
17
100
AcDbEntity
  8
OUTLINE
100
AcDbLine
 10
162.9689465726374
 20
-13.012481882239875
 30
0.0
 11
164.0977044355429
 21
-13.018613137466312
 31
0.0
  0
LINE
  5
327
330
17
100
AcDbEntity
  8
OUTLINE
100
AcDbLine
 10
164.0977044355429
 20
-6.981386862533688
 30
0.0
 11
165.2264622984484
 21
-6.978149821731529
 31
0.0
  0
LINE
  5
328
330
17
100
AcDbEntity
  8
OUTLINE
100
AcDbLine
 10
164.0977044355429
 20
-13.018613137466312
 30
0.0
 11
165.2264622984484
 21
-13.02185017826847
 31
0.0
  0
LINE
  5
329
330
17
100
AcDbEntity
  8
OUTLINE
100
AcDbLine
 10
165.2264622984484
 20
-6.978149821731529
 30
0.0
 11
166.3552201613539
 21
-6.977671318869237
 31
0.0
  0
LINE
  5
32A
330
17
100
AcDbEntity
  8
OUTLINE
100
AcDbLine
 10
165.2264622984484
 20
-13.02185017826847
 30
0.0
 11
166.3552201613539
 21
-13.022328681130762
 31
0.0
  0
LINE
  5
32B
330
17
100
AcDbEntity
  8
OUTLINE
100
AcDbLine
 10
166.3552201613539
 20
-6.977671318869237
 30
0.0
 11
167.48397802425941
 21
-6.97982528127868
 31
0.0
  0
LINE
  5
32C
330
17
100
AcDbEntity
  8
OUTLINE
100
AcDbLine
 10
166.3552201613539
 20
-13.022328681130762
 30
0.0
 11
167.48397802425941
 21
-13.02017471872132
 31
0.0
  0
LINE
  5
32D
330
17
100
AcDbEntity
  8
OUTLINE
100
AcDbLine
 10
167.48397802425941
 20
-6.97982528127868
 30
0.0
 11
168.6127358871649
 21
-6.984494211524742
 31
0.0
  0
LINE
  5
32E
330
17
100
AcDbEntity
  8
OUTLINE
100
AcDbLine
 10
167.48397802425941
 20
-13.02017471872132
 30
0.0
 11
168.6127358871649
 21
-13.015505788475258
 31
0.0
  0
LINE
  5
32F
330
17
100
AcDbEntity
  8
OUTLINE
100
AcDbLine
 10
168.6127358871649
 20
-6.984494211524742
 30
0.0
 11
169.7414937500704
 21
-6.991568311959108
 31
0.0
  0
LINE
  5
330
330
17
100
AcDbEntity
  8
OUTLINE
100
AcDbLine
 10
168.6127358871649
 20
-13.015505788475258
 30
0.0
 11
169.7414937500704
 21
-13.008431688040892
 31
0.0
  0
LINE
  5
331
330
17
100
AcDbEntity
  8
OUTLINE
100
AcDbLine
 10
169.7414937500704
 20
-6.991568311959108
 30
0.0
 11
170.8702516129759
 21
-7.000944735434297
 31
0.0
  0
LINE
  5
332
330
17
100
AcDbEntity
  8
OUTLINE
100
AcDbLine
 10
169.7414937500704
 20
-13.008431688040892
 30
0.0
 11
170.8702516129759
 21
-12.999055264565703
 31
0.0
  0
LINE
  5
333
330
17
100
AcDbEntity
  8
OUTLINE
100
AcDbLine
 10
170.8702516129759
 20
-7.000944735434297
 30
0.0
 11
171.9990094758814
 21
-7.012526940643778
 31
0.0
  0
LINE
  5
334
330
17
100
AcDbEntity
  8
OUTLINE
100
AcDbLine
 10
170.8702516129759
 20
-12.999055264565703
 30
0.0
 11
171.9990094758814
 21
-12.987473059356223
 31
0.0
  0
LINE
  5
335
330
17
100
AcDbEntity
  8
OUTLINE
100
AcDbLine
 10
171.9990094758814
 20
-7.012526940643778
 30
0.0
 11
173.1277673387869
 21
-7.0262241347676655
 31
0.0
  0
LINE
  5
336
330
17
100
AcDbEntity
  8
OUTLINE
100
AcDbLine
 10
171.9990094758814
 20
-12.987473059356223
 30
0.0
 11
173.1277673387869
 21
-12.973775865232334
 31
0.0
  0
LINE
  5
337
330
17
100
AcDbEntity
  8
OUTLINE
100
AcDbLine
 10
173.1277673387869
 20
-7.0262241347676655
 30
0.0
 11
174.25652520169237
 21
-7.041950789393517
 31
0.0
  0
LINE
  5
338
330
17
100
AcDbEntity
  8
OUTLINE
100
AcDbLine
 10
173.1277673387869
 20
-12.973775865232334
 30
0.0
 11
174.25652520169237
 21
-12.958049210606482
 31
0.0
  0
LINE
  5
339
330
17
100
AcDbEntity
  8
OUTLINE
100
AcDbLine
 10
174.25652520169237
 20
-7.041950789393517
 30
0.0
 11
175.38528306459787
 21
-7.059626218271115
 31
0.0
  0
LINE
  5
33A
330
17
100
AcDbEntity
  8
OUTLINE
100
AcDbLine
 10
174.25652520169237
 20
-12.958049210606482
 30
0.0
 11
175.38528306459787
 21
-12.940373781728885
 31
0.0
  0
LINE
  5
33B
330
17
100
AcDbEntity
  8
OUTLINE
100
AcDbLine
 10
175.38528306459787
 20
-7.059626218271115
 30
0.0
 11
176.51404092750337
 21
-7.079174207513203
 31
0.0
  0
LINE
  5
33C
330
17
100
AcDbEntity
  8
OUTLINE
100
AcDbLine
 10
175.38528306459787
 20
-12.940373781728885
 30
0.0
 11
176.51404092750337
 21
-12.920825792486797
 31
0.0
  0
LINE
  5
33D
330
17
100
AcDbEntity
  8
OUTLINE
100
AcDbLine
 10
176.51404092750337
 20
-7.079174207513203
 30
0.0
 11
177.64279879040888
 21
-7.100522690493581
 31
0.0
  0
LINE
  5
33E
330
17
100
AcDbEntity
  8
OUTLINE
100
AcDbLine
 10
176.51404092750337
 20
-12.920825792486797
 30
0.0
 11
177.64279879040888
 21
-12.89947730950642
 31
0.0
  0
LINE
  5
33F
330
17
100
AcDbEntity
  8
OUTLINE
100
AcDbLine
 10
177.64279879040888
 20
-7.100522690493581
 30
0.0
 11
178.77155665331438
 21
-7.123603461011616
 31
0.0
  0
LINE
  5
340
330
17
100
AcDbEntity
  8
OUTLINE
100
AcDbLine
 10
177.64279879040888
 20
-12.89947730950642
 30
0.0
 11
178.77155665331438
 21
-12.876396538988384
 31
0.0
  0
LINE
  5
341
330
17
100
AcDbEntity
  8
OUTLINE
100
AcDbLine
 10
178.77155665331438
 20
-7.123603461011616
 30
0.0
 11
179.90031451621985
 21
-7.1483519193579665
 31
0.0
  0
LINE
  5
342
330
17
100
AcDbEntity
  8
OUTLINE
100
AcDbLine
 10
178.77155665331438
 20
-12.876396538988384
 30
0.0
 11
179.90031451621985
 21
-12.851648080642033
 31
0.0
  0
LINE
  5
343
330
17
100
AcDbEntity
  8
OUTLINE
100
AcDbLine
 10
179.90031451621985
 20
-7.1483519193579665
 30
0.0
 11
181.02907237912535
 21
-7.174706846783257
 31
0.0
  0
LINE
  5
344
330
17
100
AcDbEntity
  8
OUTLINE
100
AcDbLine
 10
179.90031451621985
 20
-12.851648080642033
 30
0.0
 11
181.02907237912535
 21
-12.825293153216743
 31
0.0
  0
LINE
  5
345
330
17
100
AcDbEntity
  8
OUTLINE
100
AcDbLine
 10
181.02907237912535
 20
-7.174706846783257
 30
0.0
 11
182.15783024203085
 21
-7.202610204580701
 31
0.0
  0
LINE
  5
346
330
17
100
AcDbEntity
  8
OUTLINE
100
AcDbLine
 10
181.02907237912535
 20
-12.825293153216743
 30
0.0
 11
182.15783024203085
 21
-12.7973897954193
 31
0.0
  0
LINE
  5
347
330
17
100
AcDbEntity
  8
OUTLINE
100
AcDbLine
 10
182.15783024203085
 20
-7.202610204580701
 30
0.0
 11
183.28658810493636
 21
-7.23200695457694
 31
0.0
  0
LINE
  5
348
330
17
100
AcDbEntity
  8
OUTLINE
100
AcDbLine
 10
182.15783024203085
 20
-12.7973897954193
 30
0.0
 11
183.28658810493636
 21
-12.76799304542306
 31
0.0
  0
LINE
  5
349
330
17
100
AcDbEntity
  8
OUTLINE
100
AcDbLine
 10
183.28658810493636
 20
-7.23200695457694
 30
0.0
 11
184.41534596784186
 21
-7.26284489830738
 31
0.0
  0
LINE
  5
34A
330
17
100
AcDbEntity
  8
OUTLINE
100
AcDbLine
 10
183.28658810493636
 20
-12.76799304542306
 30
0.0
 11
184.41534596784186
 21
-12.73715510169262
 31
0.0
  0
LINE
  5
34B
330
17
100
AcDbEntity
  8
OUTLINE
100
AcDbLine
 10
184.41534596784186
 20
-7.26284489830738
 30
0.0
 11
185.54410383074736
 21
-7.295074532552645
 31
0.0
  0
LINE
  5
34C
330
17
100
AcDbEntity
  8
OUTLINE
100
AcDbLine
 10
184.41534596784186
 20
-12.73715510169262
 30
0.0
 11
185.54410383074736
 21
-12.704925467447355
 31
0.0
  0
LINE
  5
34D
330
17
100
AcDbEntity
  8
OUTLINE
100
AcDbLine
 10
185.54410383074736
 20
-7.295074532552645
 30
0.0
 11
186.67286169365286
 21
-7.32864891924666
 31
0.0
  0
LINE
  5
34E
330
17
100
AcDbEntity
  8
OUTLINE
100
AcDbLine
 10
185.54410383074736
 20
-12.704925467447355
 30
0.0
 11
186.67286169365286
 21
-12.67135108075334
 31
0.0
  0
LINE
  5
34F
330
17
100
AcDbEntity
  8
OUTLINE
100
AcDbLine
 10
186.67286169365286
 20
-7.32864891924666
 30
0.0
 11
187.80161955655834
 21
-7.3635235680466025
 31
0.0
  0
LINE
  5
350
330
17
100
AcDbEntity
  8
OUTLINE
100
AcDbLine
 10
186.67286169365286
 20
-12.67135108075334
 30
0.0
 11
187.80161955655834
 21
-12.636476431953398
 31
0.0
  0
LINE
  5
351
330
17
100
AcDbEntity
  8
OUTLINE
100
AcDbLine
 10
187.80161955655834
 20
-7.3635235680466025
 30
0.0
 11
188.93037741946384
 21
-7.399656330090286
 31
0.0
  0
LINE
  5
352
330
17
100
AcDbEntity
  8
OUTLINE
100
AcDbLine
 10
187.80161955655834
 20
-12.636476431953398
 30
0.0
 11
188.93037741946384
 21
-12.600343669909714
 31
0.0
  0
LINE
  5
353
330
17
100
AcDbEntity
  8
OUTLINE
100
AcDbLine
 10
188.93037741946384
 20
-7.399656330090286
 30
0.0
 11
190.05913528236934
 21
-7.437007301665274
 31
0.0
  0
LINE
  5
354
330
17
100
AcDbEntity
  8
OUTLINE
100
AcDbLine
 10
188.93037741946384
 20
-12.600343669909714
 30
0.0
 11
190.05913528236934
 21
-12.562992698334726
 31
0.0
  0
LINE
  5
355
330
17
100
AcDbEntity
  8
OUTLINE
100
AcDbLine
 10
190.05913528236934
 20
-7.437007301665274
 30
0.0
 11
191.1878931452748
 21
-7.475538736682386
 31
0.0
  0
LINE
  5
356
330
17
100
AcDbEntity
  8
OUTLINE
100
AcDbLine
 10
190.05913528236934
 20
-12.562992698334726
 30
0.0
 11
191.1878931452748
 21
-12.524461263317614
 31
0.0
  0
LINE
  5
357
330
17
100
AcDbEntity
  8
OUTLINE
100
AcDbLine
 10
191.1878931452748
 20
-7.475538736682386
 30
0.0
 11
192.31665100818032
 21
-7.515214966989674
 31
0.0
  0
LINE
  5
358
330
17
100
AcDbEntity
  8
OUTLINE
100
AcDbLine
 10
191.1878931452748
 20
-12.524461263317614
 30
0.0
 11
192.31665100818032
 21
-12.484785033010326
 31
0.0
  0
LINE
  5
359
330
17
100
AcDbEntity
  8
OUTLINE
100
AcDbLine
 10
192.31665100818032
 20
-7.515214966989674
 30
0.0
 11
193.44540887108582
 21
-7.5560023296851035
 31
0.0
  0
LINE
  5
35A
330
17
100
AcDbEntity
  8
OUTLINE
100
AcDbLine
 10
192.31665100818032
 20
-12.484785033010326
 30
0.0
 11
193.44540887108582
 21
-12.443997670314896
 31
0.0
  0
LINE
  5
35B
330
17
100
AcDbEntity
  8
OUTLINE
100
AcDbLine
 10
193.44540887108582
 20
-7.5560023296851035
 30
0.0
 11
194.57416673399132
 21
-7.597869100691057
 31
0.0
  0
LINE
  5
35C
330
17
100
AcDbEntity
  8
OUTLINE
100
AcDbLine
 10
193.44540887108582
 20
-12.443997670314896
 30
0.0
 11
194.57416673399132
 21
-12.402130899308943
 31
0.0
  0
LINE
  5
35D
330
17
100
AcDbEntity
  8
OUTLINE
100
AcDbLine
 10
194.57416673399132
 20
-7.597869100691057
 30
0.0
 11
195.70292459689682
 21
-7.640785433943676
 31
0.0
  0
LINE
  5
35E
330
17
100
AcDbEntity
  8
OUTLINE
100
AcDbLine
 10
194.57416673399132
 20
-12.402130899308943
 30
0.0
 11
195.70292459689682
 21
-12.359214566056323
 31
0.0
  0
LINE
  5
35F
330
17
100
AcDbEntity
  8
OUTLINE
100
AcDbLine
 10
195.70292459689682
 20
-7.640785433943676
 30
0.0
 11
196.83168245980232
 21
-7.68472330562763
 31
0.0
  0
LINE
  5
360
330
17
100
AcDbEntity
  8
OUTLINE
100
AcDbLine
 10
195.70292459689682
 20
-12.359214566056323
 30
0.0
 11
196.83168245980232
 21
-12.31527669437237
 31
0.0
  0
LINE
  5
361
330
17
100
AcDbEntity
  8
OUTLINE
100
AcDbLine
 10
196.83168245980232
 20
-7.68472330562763
 30
0.0
 11
197.96044032270783
 21
-7.729656462953933
 31
0.0
  0
LINE
  5
362
330
17
100
AcDbEntity
  8
OUTLINE
100
AcDbLine
 10
196.83168245980232
 20
-12.31527669437237
 30
0.0
 11
197.96044032270783
 21
-12.270343537046067
 31
0.0
  0
LINE
  5
363
330
17
100
AcDbEntity
  8
OUTLINE
100
AcDbLine
 10
197.96044032270783
 20
-7.729656462953933
 30
0.0
 11
199.08919818561333
 21
-7.775560377036448
 31
0.0
  0
LINE
  5
364
330
17
100
AcDbEntity
  8
OUTLINE
100
AcDbLine
 10
197.96044032270783
 20
-12.270343537046067
 30
0.0
 11
199.08919818561333
 21
-12.224439622963551
 31
0.0
  0
LINE
  5
365
330
17
100
AcDbEntity
  8
OUTLINE
100
AcDbLine
 10
199.08919818561333
 20
-7.775560377036448
 30
0.0
 11
200.21795604851883
 21
-7.822412199473231
 31
0.0
  0
LINE
  5
366
330
17
100
AcDbEntity
  8
OUTLINE
100
AcDbLine
 10
199.08919818561333
 20
-12.224439622963551
 30
0.0
 11
200.21795604851883
 21
-12.17758780052677
 31
0.0
  0
LINE
  5
367
330
17
100
AcDbEntity
  8
OUTLINE
100
AcDbLine
 10
200.21795604851883
 20
-7.822412199473231
 30
0.0
 11
201.3467139114243
 21
-7.870190722282828
 31
0.0
  0
LINE
  5
368
330
17
100
AcDbEntity
  8
OUTLINE
100
AcDbLine
 10
200.21795604851883
 20
-12.17758780052677
 30
0.0
 11
201.3467139114243
 21
-12.129809277717172
 31
0.0
  0
LINE
  5
369
330
17
100
AcDbEntity
  8
OUTLINE
100
AcDbLine
 10
201.3467139114243
 20
-7.870190722282828
 30
0.0
 11
202.4754717743298
 21
-7.918876340883998
 31
0.0
  0
LINE
  5
36A
330
17
100
AcDbEntity
  8
OUTLINE
100
AcDbLine
 10
201.3467139114243
 20
-12.129809277717172
 30
0.0
 11
202.4754717743298
 21
-12.081123659116003
 31
0.0
  0
LINE
  5
36B
330
17
100
AcDbEntity
  8
OUTLINE
100
AcDbLine
 10
202.4754717743298
 20
-7.918876340883998
 30
0.0
 11
202.4754717743298
 21
-12.081123659116003
 31
0.0
  0
LINE
  5
36C
330
17
100
AcDbEntity
  8
OUTLINE
100
AcDbLine
 10
134.75
 20
-9.384946305593097
 30
0.0
 11
134.75
 21
-10.615053694406903
 31
0.0
  0
LINE
  5
36D
330
17
100
AcDbEntity
  8
WALL
100
AcDbLine
 10
138.13627358871648
 20
-8.738113079196557
 30
0.0
 11
139.26503145162198
 21
-8.567362332903476
 31
0.0
  0
LINE
  5
36E
330
17
100
AcDbEntity
  8
WALL
100
AcDbLine
 10
138.13627358871648
 20
-11.261886920803443
 30
0.0
 11
139.26503145162198
 21
-11.432637667096524
 31
0.0
  0
LINE
  5
36F
330
17
100
AcDbEntity
  8
WALL
100
AcDbLine
 10
139.26503145162198
 20
-8.567362332903476
 30
0.0
 11
140.39378931452748
 21
-8.423854623922843
 31
0.0
  0
LINE
  5
370
330
17
100
AcDbEntity
  8
WALL
100
AcDbLine
 10
139.26503145162198
 20
-11.432637667096524
 30
0.0
 11
140.39378931452748
 21
-11.576145376077157
 31
0.0
  0
LINE
  5
371
330
17
100
AcDbEntity
  8
WALL
100
AcDbLine
 10
140.39378931452748
 20
-8.423854623922843
 30
0.0
 11
141.52254717743298
 21
-8.30019878431895
 31
0.0
  0
LINE
  5
372
330
17
100
AcDbEntity
  8
WALL
100
AcDbLine
 10
140.39378931452748
 20
-11.576145376077157
 30
0.0
 11
141.52254717743298
 21
-11.69980121568105
 31
0.0
  0
LINE
  5
373
330
17
100
AcDbEntity
  8
WALL
100
AcDbLine
 10
141.52254717743298
 20
-8.30019878431895
 30
0.0
 11
142.65130504033849
 21
-8.191983918415826
 31
0.0
  0
LINE
  5
374
330
17
100
AcDbEntity
  8
WALL
100
AcDbLine
 10
141.52254717743298
 20
-11.69980121568105
 30
0.0
 11
142.65130504033849
 21
-11.808016081584174
 31
0.0
  0
LINE
  5
375
330
17
100
AcDbEntity
  8
WALL
100
AcDbLine
 10
142.65130504033849
 20
-8.191983918415826
 30
0.0
 11
143.78006290324396
 21
-8.096319165718569
 31
0.0
  0
LINE
  5
376
330
17
100
AcDbEntity
  8
WALL
100
AcDbLine
 10
142.65130504033849
 20
-11.808016081584174
 30
0.0
 11
143.78006290324396
 21
-11.903680834281431
 31
0.0
  0
LINE
  5
377
330
17
100
AcDbEntity
  8
WALL
100
AcDbLine
 10
143.78006290324396
 20
-8.096319165718569
 30
0.0
 11
144.90882076614946
 21
-8.011182069896446
 31
0.0
  0
LINE
  5
378
330
17
100
AcDbEntity
  8
WALL
100
AcDbLine
 10
143.78006290324396
 20
-11.903680834281431
 30
0.0
 11
144.90882076614946
 21
-11.988817930103554
 31
0.0
  0
LINE
  5
379
330
17
100
AcDbEntity
  8
WALL
100
AcDbLine
 10
144.90882076614946
 20
-8.011182069896446
 30
0.0
 11
146.03757862905496
 21
-7.9350875497997455
 31
0.0
  0
LINE
  5
37A
330
17
100
AcDbEntity
  8
WALL
100
AcDbLine
 10
144.90882076614946
 20
-11.988817930103554
 30
0.0
 11
146.03757862905496
 21
-12.064912450200254
 31
0.0
  0
LINE
  5
37B
330
17
100
AcDbEntity
  8
WALL
100
AcDbLine
 10
146.03757862905496
 20
-7.9350875497997455
 30
0.0
 11
147.16633649196046
 21
-7.866903480166307
 31
0.0
  0
LINE
  5
37C
330
17
100
AcDbEntity
  8
WALL
100
AcDbLine
 10
146.03757862905496
 20
-12.064912450200254
 30
0.0
 11
147.16633649196046
 21
-12.133096519833693
 31
0.0
  0
LINE
  5
37D
330
17
100
AcDbEntity
  8
WALL
100
AcDbLine
 10
147.16633649196046
 20
-7.866903480166307
 30
0.0
 11
148.29509435486597
 21
-7.805740560624399
 31
0.0
  0
LINE
  5
37E
330
17
100
AcDbEntity
  8
WALL
100
AcDbLine
 10
147.16633649196046
 20
-12.133096519833693
 30
0.0
 11
148.29509435486597
 21
-12.194259439375601
 31
0.0
  0
LINE
  5
37F
330
17
100
AcDbEntity
  8
WALL
100
AcDbLine
 10
148.29509435486597
 20
-7.805740560624399
 30
0.0
 11
149.42385221777147
 21
-7.750882875196306
 31
0.0
  0
LINE
  5
380
330
17
100
AcDbEntity
  8
WALL
100
AcDbLine
 10
148.29509435486597
 20
-12.194259439375601
 30
0.0
 11
149.42385221777147
 21
-12.249117124803693
 31
0.0
  0
LINE
  5
381
330
17
100
AcDbEntity
  8
WALL
100
AcDbLine
 10
149.42385221777147
 20
-7.750882875196306
 30
0.0
 11
150.55261008067694
 21
-7.701742149494195
 31
0.0
  0
LINE
  5
382
330
17
100
AcDbEntity
  8
WALL
100
AcDbLine
 10
149.42385221777147
 20
-12.249117124803693
 30
0.0
 11
150.55261008067694
 21
-12.298257850505806
 31
0.0
  0
LINE
  5
383
330
17
100
AcDbEntity
  8
WALL
100
AcDbLine
 10
150.55261008067694
 20
-7.701742149494195
 30
0.0
 11
151.68136794358244
 21
-7.657826512348109
 31
0.0
  0
LINE
  5
384
330
17
100
AcDbEntity
  8
WALL
100
AcDbLine
 10
150.55261008067694
 20
-12.298257850505806
 30
0.0
 11
151.68136794358244
 21
-12.342173487651891
 31
0.0
  0
LINE
  5
385
330
17
100
AcDbEntity
  8
WALL
100
AcDbLine
 10
151.68136794358244
 20
-7.657826512348109
 30
0.0
 11
152.81012580648795
 21
-7.618718507869602
 31
0.0
  0
LINE
  5
386
330
17
100
AcDbEntity
  8
WALL
100
AcDbLine
 10
151.68136794358244
 20
-12.342173487651891
 30
0.0
 11
152.81012580648795
 21
-12.381281492130398
 31
0.0
  0
LINE
  5
387
330
17
100
AcDbEntity
  8
WALL
100
AcDbLine
 10
152.81012580648795
 20
-7.618718507869602
 30
0.0
 11
153.93888366939345
 21
-7.584059215174937
 31
0.0
  0
LINE
  5
388
330
17
100
AcDbEntity
  8
WALL
100
AcDbLine
 10
152.81012580648795
 20
-12.381281492130398
 30
0.0
 11
153.93888366939345
 21
-12.415940784825063
 31
0.0
  0
LINE
  5
389
330
17
100
AcDbEntity
  8
WALL
100
AcDbLine
 10
153.93888366939345
 20
-7.584059215174937
 30
0.0
 11
155.06764153229895
 21
-7.553536521948137
 31
0.0
  0
LINE
  5
38A
330
17
100
AcDbEntity
  8
WALL
100
AcDbLine
 10
153.93888366939345
 20
-12.415940784825063
 30
0.0
 11
155.06764153229895
 21
-12.446463478051863
 31
0.0
  0
LINE
  5
38B
330
17
100
AcDbEntity
  8
WALL
100
AcDbLine
 10
155.06764153229895
 20
-7.553536521948137
 30
0.0
 11
156.19639939520442
 21
-7.526876296344479
 31
0.0
  0
LINE
  5
38C
330
17
100
AcDbEntity
  8
WALL
100
AcDbLine
 10
155.06764153229895
 20
-12.446463478051863
 30
0.0
 11
156.19639939520442
 21
-12.47312370365552
 31
0.0
  0
LINE
  5
38D
330
17
100
AcDbEntity
  8
WALL
100
AcDbLine
 10
156.19639939520442
 20
-7.526876296344479
 30
0.0
 11
157.32515725810993
 21
-7.503835626986858
 31
0.0
  0
LINE
  5
38E
330
17
100
AcDbEntity
  8
WALL
100
AcDbLine
 10
156.19639939520442
 20
-12.47312370365552
 30
0.0
 11
157.32515725810993
 21
-12.496164373013142
 31
0.0
  0
LINE
  5
38F
330
17
100
AcDbEntity
  8
WALL
100
AcDbLine
 10
157.32515725810993
 20
-7.503835626986858
 30
0.0
 11
158.45391512101543
 21
-7.484197568045658
 31
0.0
  0
LINE
  5
390
330
17
100
AcDbEntity
  8
WALL
100
AcDbLine
 10
157.32515725810993
 20
-12.496164373013142
 30
0.0
 11
158.45391512101543
 21
-12.515802431954342
 31
0.0
  0
LINE
  5
391
330
17
100
AcDbEntity
  8
WALL
100
AcDbLine
 10
158.45391512101543
 20
-7.484197568045658
 30
0.0
 11
159.58267298392093
 21
-7.467766999036373
 31
0.0
  0
LINE
  5
392
330
17
100
AcDbEntity
  8
WALL
100
AcDbLine
 10
158.45391512101543
 20
-12.515802431954342
 30
0.0
 11
159.58267298392093
 21
-12.532233000963627
 31
0.0
  0
LINE
  5
393
330
17
100
AcDbEntity
  8
WALL
100
AcDbLine
 10
159.58267298392093
 20
-7.467766999036373
 30
0.0
 11
160.71143084682643
 21
-7.454367323265169
 31
0.0
  0
LINE
  5
394
330
17
100
AcDbEntity
  8
WALL
100
AcDbLine
 10
159.58267298392093
 20
-12.532233000963627
 30
0.0
 11
160.71143084682643
 21
-12.545632676734831
 31
0.0
  0
LINE
  5
395
330
17
100
AcDbEntity
  8
WALL
100
AcDbLine
 10
160.71143084682643
 20
-7.454367323265169
 30
0.0
 11
161.84018870973193
 21
-7.443837806191082
 31
0.0
  0
LINE
  5
396
330
17
100
AcDbEntity
  8
WALL
100
AcDbLine
 10
160.71143084682643
 20
-12.545632676734831
 30
0.0
 11
161.84018870973193
 21
-12.556162193808918
 31
0.0
  0
LINE
  5
397
330
17
100
AcDbEntity
  8
WALL
100
AcDbLine
 10
161.84018870973193
 20
-7.443837806191082
 30
0.0
 11
162.9689465726374
 21
-7.436031408340942
 31
0.0
  0
LINE
  5
398
330
17
100
AcDbEntity
  8
WALL
100
AcDbLine
 10
161.84018870973193
 20
-12.556162193808918
 30
0.0
 11
162.9689465726374
 21
-12.563968591659059
 31
0.0
  0
LINE
  5
399
330
17
100
AcDbEntity
  8
WALL
100
AcDbLine
 10
162.9689465726374
 20
-7.436031408340942
 30
0.0
 11
164.0977044355429
 21
-7.430813004897353
 31
0.0
  0
LINE
  5
39A
330
17
100
AcDbEntity
  8
WALL
100
AcDbLine
 10
162.9689465726374
 20
-12.563968591659059
 30
0.0
 11
164.0977044355429
 21
-12.569186995102648
 31
0.0
  0
LINE
  5
39B
330
17
100
AcDbEntity
  8
WALL
100
AcDbLine
 10
164.0977044355429
 20
-7.430813004897353
 30
0.0
 11
165.2264622984484
 21
-7.428057910835019
 31
0.0
  0
LINE
  5
39C
330
17
100
AcDbEntity
  8
WALL
100
AcDbLine
 10
164.0977044355429
 20
-12.569186995102648
 30
0.0
 11
165.2264622984484
 21
-12.571942089164981
 31
0.0
  0
LINE
  5
39D
330
17
100
AcDbEntity
  8
WALL
100
AcDbLine
 10
165.2264622984484
 20
-7.428057910835019
 30
0.0
 11
166.3552201613539
 21
-7.427650649859551
 31
0.0
  0
LINE
  5
39E
330
17
100
AcDbEntity
  8
WALL
100
AcDbLine
 10
165.2264622984484
 20
-12.571942089164981
 30
0.0
 11
166.3552201613539
 21
-12.572349350140449
 31
0.0
  0
LINE
  5
39F
330
17
100
AcDbEntity
  8
WALL
100
AcDbLine
 10
166.3552201613539
 20
-7.427650649859551
 30
0.0
 11
167.48397802425941
 21
-7.429483919628902
 31
0.0
  0
LINE
  5
3A0
330
17
100
AcDbEntity
  8
WALL
100
AcDbLine
 10
166.3552201613539
 20
-12.572349350140449
 30
0.0
 11
167.48397802425941
 21
-12.570516080371098
 31
0.0
  0
LINE
  5
3A1
330
17
100
AcDbEntity
  8
WALL
100
AcDbLine
 10
167.48397802425941
 20
-7.429483919628902
 30
0.0
 11
168.6127358871649
 21
-7.433457716310676
 31
0.0
  0
LINE
  5
3A2
330
17
100
AcDbEntity
  8
WALL
100
AcDbLine
 10
167.48397802425941
 20
-12.570516080371098
 30
0.0
 11
168.6127358871649
 21
-12.566542283689323
 31
0.0
  0
LINE
  5
3A3
330
17
100
AcDbEntity
  8
WALL
100
AcDbLine
 10
168.6127358871649
 20
-7.433457716310676
 30
0.0
 11
169.7414937500704
 21
-7.439478589476716
 31
0.0
  0
LINE
  5
3A4
330
17
100
AcDbEntity
  8
WALL
100
AcDbLine
 10
168.6127358871649
 20
-12.566542283689323
 30
0.0
 11
169.7414937500704
 21
-12.560521410523284
 31
0.0
  0
LINE
  5
3A5
330
17
100
AcDbEntity
  8
WALL
100
AcDbLine
 10
169.7414937500704
 20
-7.439478589476716
 30
0.0
 11
170.8702516129759
 21
-7.447459004374548
 31
0.0
  0
LINE
  5
3A6
330
17
100
AcDbEntity
  8
WALL
100
AcDbLine
 10
169.7414937500704
 20
-12.560521410523284
 30
0.0
 11
170.8702516129759
 21
-12.552540995625453
 31
0.0
  0
LINE
  5
3A7
330
17
100
AcDbEntity
  8
WALL
100
AcDbLine
 10
170.8702516129759
 20
-7.447459004374548
 30
0.0
 11
171.9990094758814
 21
-7.457316793247681
 31
0.0
  0
LINE
  5
3A8
330
17
100
AcDbEntity
  8
WALL
100
AcDbLine
 10
170.8702516129759
 20
-12.552540995625453
 30
0.0
 11
171.9990094758814
 21
-12.542683206752319
 31
0.0
  0
LINE
  5
3A9
330
17
100
AcDbEntity
  8
WALL
100
AcDbLine
 10
171.9990094758814
 20
-7.457316793247681
 30
0.0
 11
173.1277673387869
 21
-7.468974680962973
 31
0.0
  0
LINE
  5
3AA
330
17
100
AcDbEntity
  8
WALL
100
AcDbLine
 10
171.9990094758814
 20
-12.542683206752319
 30
0.0
 11
173.1277673387869
 21
-12.531025319037028
 31
0.0
  0
LINE
  5
3AB
330
17
100
AcDbEntity
  8
WALL
100
AcDbLine
 10
173.1277673387869
 20
-7.468974680962973
 30
0.0
 11
174.25652520169237
 21
-7.4823598730035545
 31
0.0
  0
LINE
  5
3AC
330
17
100
AcDbEntity
  8
WALL
100
AcDbLine
 10
173.1277673387869
 20
-12.531025319037028
 30
0.0
 11
174.25652520169237
 21
-12.517640126996445
 31
0.0
  0
LINE
  5
3AD
330
17
100
AcDbEntity
  8
WALL
100
AcDbLine
 10
174.25652520169237
 20
-7.4823598730035545
 30
0.0
 11
175.38528306459787
 21
-7.497403696089577
 31
0.0
  0
LINE
  5
3AE
330
17
100
AcDbEntity
  8
WALL
100
AcDbLine
 10
174.25652520169237
 20
-12.517640126996445
 30
0.0
 11
175.38528306459787
 21
-12.502596303910423
 31
0.0
  0
LINE
  5
3AF
330
17
100
AcDbEntity
  8
WALL
100
AcDbLine
 10
175.38528306459787
 20
-7.497403696089577
 30
0.0
 11
176.51404092750337
 21
-7.514041283436505
 31
0.0
  0
LINE
  5
3B0
330
17
100
AcDbEntity
  8
WALL
100
AcDbLine
 10
175.38528306459787
 20
-12.502596303910423
 30
0.0
 11
176.51404092750337
 21
-12.485958716563495
 31
0.0
  0
LINE
  5
3B1
330
17
100
AcDbEntity
  8
WALL
100
AcDbLine
 10
176.51404092750337
 20
-7.514041283436505
 30
0.0
 11
177.64279879040888
 21
-7.532211298055998
 31
0.0
  0
LINE
  5
3B2
330
17
100
AcDbEntity
  8
WALL
100
AcDbLine
 10
176.51404092750337
 20
-12.485958716563495
 30
0.0
 11
177.64279879040888
 21
-12.467788701944002
 31
0.0
  0
LINE
  5
3B3
330
17
100
AcDbEntity
  8
WALL
100
AcDbLine
 10
177.64279879040888
 20
-7.532211298055998
 30
0.0
 11
178.77155665331438
 21
-7.551855688625919
 31
0.0
  0
LINE
  5
3B4
330
17
100
AcDbEntity
  8
WALL
100
AcDbLine
 10
177.64279879040888
 20
-12.467788701944002
 30
0.0
 11
178.77155665331438
 21
-12.448144311374081
 31
0.0
  0
LINE
  5
3B5
330
17
100
AcDbEntity
  8
WALL
100
AcDbLine
 10
178.77155665331438
 20
-7.551855688625919
 30
0.0
 11
179.90031451621985
 21
-7.572919473363056
 31
0.0
  0
LINE
  5
3B6
330
17
100
AcDbEntity
  8
WALL
100
AcDbLine
 10
178.77155665331438
 20
-12.448144311374081
 30
0.0
 11
179.90031451621985
 21
-12.427080526636944
 31
0.0
  0
LINE
  5
3B7
330
17
100
AcDbEntity
  8
WALL
100
AcDbLine
 10
179.90031451621985
 20
-7.572919473363056
 30
0.0
 11
181.02907237912535
 21
-7.595350548070021
 31
0.0
  0
LINE
  5
3B8
330
17
100
AcDbEntity
  8
WALL
100
AcDbLine
 10
179.90031451621985
 20
-12.427080526636944
 30
0.0
 11
181.02907237912535
 21
-12.404649451929979
 31
0.0
  0
LINE
  5
3B9
330
17
100
AcDbEntity
  8
WALL
100
AcDbLine
 10
181.02907237912535
 20
-7.595350548070021
 30
0.0
 11
182.15783024203085
 21
-7.619099515131451
 31
0.0
  0
LINE
  5
3BA
330
17
100
AcDbEntity
  8
WALL
100
AcDbLine
 10
181.02907237912535
 20
-12.404649451929979
 30
0.0
 11
182.15783024203085
 21
-12.38090048486855
 31
0.0
  0
LINE
  5
3BB
330
17
100
AcDbEntity
  8
WALL
100
AcDbLine
 10
182.15783024203085
 20
-7.619099515131451
 30
0.0
 11
183.28658810493636
 21
-7.64411953073107
 31
0.0
  0
LINE
  5
3BC
330
17
100
AcDbEntity
  8
WALL
100
AcDbLine
 10
182.15783024203085
 20
-12.38090048486855
 30
0.0
 11
183.28658810493636
 21
-12.35588046926893
 31
0.0
  0
LINE
  5
3BD
330
17
100
AcDbEntity
  8
WALL
100
AcDbLine
 10
183.28658810493636
 20
-7.64411953073107
 30
0.0
 11
184.41534596784186
 21
-7.670366167971393
 31
0.0
  0
LINE
  5
3BE
330
17
100
AcDbEntity
  8
WALL
100
AcDbLine
 10
183.28658810493636
 20
-12.35588046926893
 30
0.0
 11
184.41534596784186
 21
-12.329633832028607
 31
0.0
  0
LINE
  5
3BF
330
17
100
AcDbEntity
  8
WALL
100
AcDbLine
 10
184.41534596784186
 20
-7.670366167971393
 30
0.0
 11
185.54410383074736
 21
-7.697797293918639
 31
0.0
  0
LINE
  5
3C0
330
17
100
AcDbEntity
  8
WALL
100
AcDbLine
 10
184.41534596784186
 20
-12.329633832028607
 30
0.0
 11
185.54410383074736
 21
-12.30220270608136
 31
0.0
  0
LINE
  5
3C1
330
17
100
AcDbEntity
  8
WALL
100
AcDbLine
 10
185.54410383074736
 20
-7.697797293918639
 30
0.0
 11
186.67286169365286
 21
-7.726372958879541
 31
0.0
  0
LINE
  5
3C2
330
17
100
AcDbEntity
  8
WALL
100
AcDbLine
 10
185.54410383074736
 20
-12.30220270608136
 30
0.0
 11
186.67286169365286
 21
-12.27362704112046
 31
0.0
  0
LINE
  5
3C3
330
17
100
AcDbEntity
  8
WALL
100
AcDbLine
 10
186.67286169365286
 20
-7.726372958879541
 30
0.0
 11
187.80161955655834
 21
-7.756055296454864
 31
0.0
  0
LINE
  5
3C4
330
17
100
AcDbEntity
  8
WALL
100
AcDbLine
 10
186.67286169365286
 20
-12.27362704112046
 30
0.0
 11
187.80161955655834
 21
-12.243944703545136
 31
0.0
  0
LINE
  5
3C5
330
17
100
AcDbEntity
  8
WALL
100
AcDbLine
 10
187.80161955655834
 20
-7.756055296454864
 30
0.0
 11
188.93037741946384
 21
-7.7868084331147305
 31
0.0
  0
LINE
  5
3C6
330
17
100
AcDbEntity
  8
WALL
100
AcDbLine
 10
187.80161955655834
 20
-12.243944703545136
 30
0.0
 11
188.93037741946384
 21
-12.21319156688527
 31
0.0
  0
LINE
  5
3C7
330
17
100
AcDbEntity
  8
WALL
100
AcDbLine
 10
188.93037741946384
 20
-7.7868084331147305
 30
0.0
 11
190.05913528236934
 21
-7.818598406209942
 31
0.0
  0
LINE
  5
3C8
330
17
100
AcDbEntity
  8
WALL
100
AcDbLine
 10
188.93037741946384
 20
-12.21319156688527
 30
0.0
 11
190.05913528236934
 21
-12.181401593790058
 31
0.0
  0
LINE
  5
3C9
330
17
100
AcDbEntity
  8
WALL
100
AcDbLine
 10
190.05913528236934
 20
-7.818598406209942
 30
0.0
 11
191.1878931452748
 21
-7.8513930894768755
 31
0.0
  0
LINE
  5
3CA
330
17
100
AcDbEntity
  8
WALL
100
AcDbLine
 10
190.05913528236934
 20
-12.181401593790058
 30
0.0
 11
191.1878931452748
 21
-12.148606910523124
 31
0.0
  0
LINE
  5
3CB
330
17
100
AcDbEntity
  8
WALL
100
AcDbLine
 10
191.1878931452748
 20
-7.8513930894768755
 30
0.0
 11
192.31665100818032
 21
-7.8851621252154995
 31
0.0
  0
LINE
  5
3CC
330
17
100
AcDbEntity
  8
WALL
100
AcDbLine
 10
191.1878931452748
 20
-12.148606910523124
 30
0.0
 11
192.31665100818032
 21
-12.1148378747845
 31
0.0
  0
LINE
  5
3CD
330
17
100
AcDbEntity
  8
WALL
100
AcDbLine
 10
192.31665100818032
 20
-7.8851621252154995
 30
0.0
 11
193.44540887108582
 21
-7.91987686242412
 31
0.0
  0
LINE
  5
3CE
330
17
100
AcDbEntity
  8
WALL
100
AcDbLine
 10
192.31665100818032
 20
-12.1148378747845
 30
0.0
 11
193.44540887108582
 21
-12.08012313757588
 31
0.0
  0
LINE
  5
3CF
330
17
100
AcDbEntity
  8
WALL
100
AcDbLine
 10
193.44540887108582
 20
-7.91987686242412
 30
0.0
 11
194.57416673399132
 21
-7.955510300263631
 31
0.0
  0
LINE
  5
3D0
330
17
100
AcDbEntity
  8
WALL
100
AcDbLine
 10
193.44540887108582
 20
-12.08012313757588
 30
0.0
 11
194.57416673399132
 21
-12.044489699736369
 31
0.0
  0
LINE
  5
3D1
330
17
100
AcDbEntity
  8
WALL
100
AcDbLine
 10
194.57416673399132
 20
-7.955510300263631
 30
0.0
 11
195.70292459689682
 21
-7.992037036300653
 31
0.0
  0
LINE
  5
3D2
330
17
100
AcDbEntity
  8
WALL
100
AcDbLine
 10
194.57416673399132
 20
-12.044489699736369
 30
0.0
 11
195.70292459689682
 21
-12.007962963699347
 31
0.0
  0
LINE
  5
3D3
330
17
100
AcDbEntity
  8
WALL
100
AcDbLine
 10
195.70292459689682
 20
-7.992037036300653
 30
0.0
 11
196.83168245980232
 21
-8.02943321904491
 31
0.0
  0
LINE
  5
3D4
330
17
100
AcDbEntity
  8
WALL
100
AcDbLine
 10
195.70292459689682
 20
-12.007962963699347
 30
0.0
 11
196.83168245980232
 21
-11.97056678095509
 31
0.0
  0
LINE
  5
3D5
330
17
100
AcDbEntity
  8
WALL
100
AcDbLine
 10
196.83168245980232
 20
-8.02943321904491
 30
0.0
 11
197.96044032270783
 21
-8.067676504353253
 31
0.0
  0
LINE
  5
3D6
330
17
100
AcDbEntity
  8
WALL
100
AcDbLine
 10
196.83168245980232
 20
-11.97056678095509
 30
0.0
 11
197.96044032270783
 21
-11.932323495646747
 31
0.0
  0
LINE
  5
3D7
330
17
100
AcDbEntity
  8
WALL
100
AcDbLine
 10
197.96044032270783
 20
-8.067676504353253
 30
0.0
 11
199.08919818561333
 21
-8.106746015322154
 31
0.0
  0
LINE
  5
3D8
330
17
100
AcDbEntity
  8
WALL
100
AcDbLine
 10
197.96044032270783
 20
-11.932323495646747
 30
0.0
 11
199.08919818561333
 21
-11.893253984677846
 31
0.0
  0
CIRCLE
  5
3D9
330
17
100
AcDbEntity
  8
SPAR
100
AcDbCircle
 10
163.67024583657278
 20
-10.0
 30
0.0
 40
1.55
  0
CIRCLE
  5
3DA
330
17
100
AcDbEntity
  8
SPAR
100
AcDbCircle
 10
163.67024583657278
 20
-10.0
 30
0.0
 40
2.05
  0
LINE
  5
3DB
330
17
100
AcDbEntity
  8
CENTERLINE
  6
CENTER
100
AcDbLine
 10
129.75
 20
-10.0
 30
0.0
 11
210.4754717743298
 21
-10.0
 31
0.0
  0
DIMENSION
  5
3DC
330
17
100
AcDbEntity
  8
0
100
AcDbDimension
280
0
  2
*D9
  3
COMP
 10
134.75
 20
-20.0
 30
0.0
 11
168.6127358871649
 21
-20.0
 31
0.0
 70
32
 71
5
  1
<>
100
AcDbAlignedDimension
 13
134.75
 23
-10.0
 33
0.0
 14
202.4754717743298
 24
-10.0
 34
0.0
 50
0.0
100
AcDbRotatedDimension
1001
ACAD
1000
DSTYLE
1002
{
1070
140
1040
2.0
1002
}
  0
DIMENSION
  5
3EC
330
17
100
AcDbEntity
  8
0
100
AcDbDimension
280
0
  2
*D10
  3
COMP
 10
156.00791004969068
 20
-13.022467506486686
 30
0.0
 11
153.70791004969067
 21
-10.0
 31
0.0
 70
32
 71
5
  1
<>
100
AcDbAlignedDimension
 13
166.00791004969068
 23
-13.022467506486686
 33
0.0
 14
166.00791004969068
 24
-6.977532493513314
 34
0.0
 50
90.0
100
AcDbRotatedDimension
1001
ACAD
1000
DSTYLE
1002
{
1070
140
1040
1.8
1002
}
  0
TEXT
  5
3FB
330
17
100
AcDbEntity
  8
TEXT
100
AcDbText
 10
134.75
 20
-30.0
 30
0.0
 40
3.0
  1
SECTION A-A (y=107.5mm, 50% span)
 11
134.75
 21
-30.0
 31
0.0
100
AcDbText
  0
TEXT
  5
3FC
330
17
100
AcDbEntity
  8
TEXT
100
AcDbText
 10
134.75
 20
-36.0
 30
0.0
 40
1.5
  1
Blend: t/c=0.058 (5.8%)
 11
134.75
 21
-36.0
 31
0.0
100
AcDbText
  0
TEXT
  5
3FD
330
17
100
AcDbEntity
  8
TEXT
100
AcDbText
 10
134.75
 20
-40.0
 30
0.0
 40
1.5
  1
Chord=104.2mm
 11
134.75
 21
-40.0
 31
0.0
100
AcDbText
  0
TEXT
  5
3FE
330
17
100
AcDbEntity
  8
SPAR
100
AcDbText
 10
166.67024583657278
 20
-8.5
 30
0.0
 40
1.2
  1
Main spar@ 27.8% c
 11
166.67024583657278
 21
-8.5
 31
0.0
100
AcDbText
  0
LINE
  5
3FF
330
17
100
AcDbEntity
  8
OUTLINE
100
AcDbLine
 10
-20.0
 20
-50.0
 30
0.0
 11
280.0
 21
-50.0
 31
0.0
  0
LINE
  5
400
330
17
100
AcDbEntity
  8
OUTLINE
100
AcDbLine
 10
-20.0
 20
-80.0
 30
0.0
 11
280.0
 21
-80.0
 31
0.0
  0
LINE
  5
401
330
17
100
AcDbEntity
  8
OUTLINE
100
AcDbLine
 10
-20.0
 20
-50.0
 30
0.0
 11
-20.0
 21
-80.0
 31
0.0
  0
LINE
  5
402
330
17
100
AcDbEntity
  8
OUTLINE
100
AcDbLine
 10
280.0
 20
-50.0
 30
0.0
 11
280.0
 21
-80.0
 31
0.0
  0
LINE
  5
403
330
17
100
AcDbEntity
  8
OUTLINE
100
AcDbLine
 10
-20.0
 20
-58.0
 30
0.0
 11
280.0
 21
-58.0
 31
0.0
  0
LINE
  5
404
330
17
100
AcDbEntity
  8
OUTLINE
100
AcDbLine
 10
-20.0
 20
-66.0
 30
0.0
 11
280.0
 21
-66.0
 31
0.0
  0
LINE
  5
405
330
17
100
AcDbEntity
  8
OUTLINE
100
AcDbLine
 10
-20.0
 20
-73.0
 30
0.0
 11
280.0
 21
-73.0
 31
0.0
  0
TEXT
  5
406
330
17
100
AcDbEntity
  8
TEXT
100
AcDbText
 10
-15.0
 20
-57.0
 30
0.0
 40
4.0
  1
AEROFORGE -- HStab_Left (v4 spar-datum fix)
 11
-15.0
 21
-57.0
 31
0.0
100
AcDbText
  0
TEXT
  5
407
330
17
100
AcDbEntity
  8
TEXT
100
AcDbText
 10
-15.0
 20
-64.0
 30
0.0
 40
2.0
  1
Left stab half (LE to 65% chord hinge) | Superellipse n=2.3 | Span: 215.0mm | Root chord: 115.0mm
 11
-15.0
 21
-64.0
 31
0.0
100
AcDbText
  0
TEXT
  5
408
330
17
100
AcDbEntity
  8
TEXT
100
AcDbText
 10
-15.0
 20
-71.0
 30
0.0
 40
2.0
  1
LW-PLA 0.45mm vase mode | HT-13 root (6.5%) -> HT-12 tip (5.1%) | Main spar: 3.1mm bore | Rear spar: 1.6mm bore
 11
-15.0
 21
-71.0
 31
0.0
100
AcDbText
  0
TEXT
  5
409
330
17
100
AcDbEntity
  8
TEXT
100
AcDbText
 10
-15.0
 20
-78.0
 30
0.0
 40
2.0
  1
Scale: 1:1 | Date: 2026-03-29 | Material: LW-PLA 230C | Mass: 8.5g | Status: FOR APPROVAL | v4: spar-datum coordinate fix
 11
-15.0
 21
-78.0
 31
0.0
100
AcDbText
  0
ENDSEC
  0
SECTION
  2
OBJECTS
  0
DICTIONARY
  5
A
330
0
100
AcDbDictionary
281
1
  3
ACAD_COLOR
350
B
  3
ACAD_GROUP
350
C
  3
ACAD_LAYOUT
350
D
  3
ACAD_MATERIAL
350
E
  3
ACAD_MLEADERSTYLE
350
F
  3
ACAD_MLINESTYLE
350
10
  3
ACAD_PLOTSETTINGS
350
11
  3
ACAD_PLOTSTYLENAME
350
12
  3
ACAD_SCALELIST
350
14
  3
ACAD_TABLESTYLE
350
15
  3
ACAD_VISUALSTYLE
350
16
  3
EZDXF_META
350
2D
  0
DICTIONARY
  5
B
330
A
100
AcDbDictionary
281
1
  0
DICTIONARY
  5
C
330
A
100
AcDbDictionary
281
1
  0
DICTIONARY
  5
D
330
A
100
AcDbDictionary
281
1
  3
Model
350
1A
  3
Layout1
350
1E
  0
DICTIONARY
  5
E
330
A
100
AcDbDictionary
281
1
  3
ByBlock
350
1F
  3
ByLayer
350
20
  3
Global
350
21
  0
DICTIONARY
  5
F
330
A
100
AcDbDictionary
281
1
  3
Standard
350
2C
  0
DICTIONARY
  5
10
330
A
100
AcDbDictionary
281
1
  3
Standard
350
22
  0
DICTIONARY
  5
11
330
A
100
AcDbDictionary
281
1
  0
ACDBDICTIONARYWDFLT
  5
12
330
A
100
AcDbDictionary
281
1
  3
Normal
350
13
100
AcDbDictionaryWithDefault
340
13
  0
ACDBPLACEHOLDER
  5
13
330
12
  0
DICTIONARY
  5
14
330
A
100
AcDbDictionary
281
1
  0
DICTIONARY
  5
15
330
A
100
AcDbDictionary
281
1
  0
DICTIONARY
  5
16
330
A
100
AcDbDictionary
281
1
  3
2dWireframe
350
5A
  3
Basic
350
5B
  3
Brighten
350
5C
  3
ColorChange
350
5D
  3
Conceptual
350
5E
  3
Dim
350
5F
  3
EdgeColorOff
350
60
  3
Facepattern
350
61
  3
Flat
350
62
  3
FlatWithEdges
350
63
  3
Gouraud
350
64
  3
GouraudWithEdges
350
65
  3
Hidden
350
66
  3
JitterOff
350
67
  3
Linepattern
350
68
  3
Modeling
350
69
  3
OverhangOff
350
6A
  3
Realistic
350
6B
  3
Shaded
350
6C
  3
Shaded with edges
350
6D
  3
Shades of Gray
350
6E
  3
Sketchy
350
6F
  3
Thicken
350
70
  3
Wireframe
350
71
  3
X-Ray
350
72
  0
LAYOUT
  5
1A
330
D
100
AcDbPlotSettings
  1

  4
A3
  6

 40
7.5
 41
20.0
 42
7.5
 43
20.0
 44
420.0
 45
297.0
 46
0.0
 47
0.0
 48
0.0
 49
0.0
140
0.0
141
0.0
142
1.0
143
1.0
 70
1024
 72
1
 73
0
 74
5
  7

 75
16
 76
0
 77
2
 78
300
147
1.0
148
0.0
149
0.0
100
AcDbLayout
  1
Model
 70
1
 71
0
 10
0.0
 20
0.0
 11
420.0
 21
297.0
 12
0.0
 22
0.0
 32
0.0
 14
1e+20
 24
1e+20
 34
1e+20
 15
-1e+20
 25
-1e+20
 35
-1e+20
146
0.0
 13
0.0
 23
0.0
 33
0.0
 16
1.0
 26
0.0
 36
0.0
 17
0.0
 27
1.0
 37
0.0
 76
1
330
17
  0
LAYOUT
  5
1E
330
D
100
AcDbPlotSettings
  1

  4
A3
  6

 40
7.5
 41
20.0
 42
7.5
 43
20.0
 44
420.0
 45
297.0
 46
0.0
 47
0.0
 48
0.0
 49
0.0
140
0.0
141
0.0
142
1.0
143
1.0
 70
0
 72
1
 73
0
 74
5
  7

 75
16
 76
0
 77
2
 78
300
147
1.0
148
0.0
149
0.0
100
AcDbLayout
  1
Layout1
 70
1
 71
1
 10
0.0
 20
0.0
 11
420.0
 21
297.0
 12
0.0
 22
0.0
 32
0.0
 14
1e+20
 24
1e+20
 34
1e+20
 15
-1e+20
 25
-1e+20
 35
-1e+20
146
0.0
 13
0.0
 23
0.0
 33
0.0
 16
1.0
 26
0.0
 36
0.0
 17
0.0
 27
1.0
 37
0.0
 76
1
330
1B
  0
MATERIAL
  5
1F
102
{ACAD_REACTORS
330
E
102
}
330
E
100
AcDbMaterial
  1
ByBlock
  2

 70
0
 40
1.0
 71
1
 41
1.0
 91
-1023410177
 42
1.0
 72
1
  3

 73
1
 74
1
 75
1
 44
0.5
 73
0
 45
1.0
 46
1.0
 77
1
  4

 78
1
 79
1
170
1
 48
1.0
171
1
  6

172
1
173
1
174
1
140
1.0
141
1.0
175
1
  7

176
1
177
1
178
1
143
1.0
179
1
  8

270
1
271
1
272
1
145
1.0
146
1.0
273
1
  9

274
1
275
1
276
1
 42
1.0
 72
1
  3

 73
1
 74
1
 75
1
 94
63
  0
MATERIAL
  5
20
102
{ACAD_REACTORS
330
E
102
}
330
E
100
AcDbMaterial
  1
ByLayer
  2

 70
0
 40
1.0
 71
1
 41
1.0
 91
-1023410177
 42
1.0
 72
1
  3

 73
1
 74
1
 75
1
 44
0.5
 73
0
 45
1.0
 46
1.0
 77
1
  4

 78
1
 79
1
170
1
 48
1.0
171
1
  6

172
1
173
1
174
1
140
1.0
141
1.0
175
1
  7

176
1
177
1
178
1
143
1.0
179
1
  8

270
1
271
1
272
1
145
1.0
146
1.0
273
1
  9

274
1
275
1
276
1
 42
1.0
 72
1
  3

 73
1
 74
1
 75
1
 94
63
  0
MATERIAL
  5
21
102
{ACAD_REACTORS
330
E
102
}
330
E
100
AcDbMaterial
  1
Global
  2

 70
0
 40
1.0
 71
1
 41
1.0
 91
-1023410177
 42
1.0
 72
1
  3

 73
1
 74
1
 75
1
 44
0.5
 73
0
 45
1.0
 46
1.0
 77
1
  4

 78
1
 79
1
170
1
 48
1.0
171
1
  6

172
1
173
1
174
1
140
1.0
141
1.0
175
1
  7

176
1
177
1
178
1
143
1.0
179
1
  8

270
1
271
1
272
1
145
1.0
146
1.0
273
1
  9

274
1
275
1
276
1
 42
1.0
 72
1
  3

 73
1
 74
1
 75
1
 94
63
  0
MLINESTYLE
  5
22
102
{ACAD_REACTORS
330
10
102
}
330
10
100
AcDbMlineStyle
  2
Standard
 70
0
  3

 62
256
 51
90.0
 52
90.0
 71
2
 49
0.5
 62
256
  6
BYLAYER
 49
-0.5
 62
256
  6
BYLAYER
  0
MLEADERSTYLE
  5
2C
102
{ACAD_REACTORS
330
F
102
}
330
F
100
AcDbMLeaderStyle
179
2
170
2
171
1
172
0
 90
2
 40
0.0
 41
0.0
173
1
 91
-1056964608
 92
-2
290
1
 42
2.0
291
1
 43
8.0
  3
Standard
 44
4.0
300

342
29
174
1
175
1
176
0
178
1
 93
-1056964608
 45
4.0
292
0
297
0
 46
4.0
 94
-1056964608
 47
1.0
 49
1.0
140
1.0
294
1
141
0.0
177
0
142
1.0
295
0
296
0
143
3.75
271
0
272
9
273
9
  0
DICTIONARY
  5
2D
330
A
100
AcDbDictionary
280
1
281
1
  3
CREATED_BY_EZDXF
350
2E
  3
WRITTEN_BY_EZDXF
350
40C
  0
DICTIONARYVAR
  5
2E
330
2D
100
DictionaryVariables
280
0
  1
1.4.3 @ 2026-03-29T22:36:52.144705+00:00
  0
VISUALSTYLE
  5
5A
102
{ACAD_REACTORS
330
16
102
}
330
16
100
AcDbVisualStyle
  2
2dWireframe
 70
4
 90
0
 40
0.6
 62
7
290
0
291
0
  0
VISUALSTYLE
  5
5B
102
{ACAD_REACTORS
330
16
102
}
330
16
100
AcDbVisualStyle
  2
Basic
 70
7
 90
1
 40
0.6
 62
7
290
0
291
1
  0
VISUALSTYLE
  5
5C
102
{ACAD_REACTORS
330
16
102
}
330
16
100
AcDbVisualStyle
  2
Brighten
 70
12
 90
2
 40
0.6
 62
7
290
0
291
1
  0
VISUALSTYLE
  5
5D
102
{ACAD_REACTORS
330
16
102
}
330
16
100
AcDbVisualStyle
  2
ColorChange
 70
16
 90
2
 40
0.6
 62
8
290
0
291
1
  0
VISUALSTYLE
  5
5E
102
{ACAD_REACTORS
330
16
102
}
330
16
100
AcDbVisualStyle
  2
Conceptual
 70
9
 90
3
 40
0.6
 62
7
290
0
291
0
  0
VISUALSTYLE
  5
5F
102
{ACAD_REACTORS
330
16
102
}
330
16
100
AcDbVisualStyle
  2
Dim
 70
11
 90
2
 40
0.6
 62
7
290
0
291
1
  0
VISUALSTYLE
  5
60
102
{ACAD_REACTORS
330
16
102
}
330
16
100
AcDbVisualStyle
  2
EdgeColorOff
 70
22
 90
2
 40
0.6
 62
7
290
0
291
1
  0
VISUALSTYLE
  5
61
102
{ACAD_REACTORS
330
16
102
}
330
16
100
AcDbVisualStyle
  2
Facepattern
 70
15
 90
2
 40
0.6
 62
7
290
0
291
1
  0
VISUALSTYLE
  5
62
102
{ACAD_REACTORS
330
16
102
}
330
16
100
AcDbVisualStyle
  2
Flat
 70
0
 90
2
 40
0.6
 62
7
290
0
291
1
  0
VISUALSTYLE
  5
63
102
{ACAD_REACTORS
330
16
102
}
330
16
100
AcDbVisualStyle
  2
FlatWithEdges
 70
1
 90
2
 40
0.6
 62
7
290
0
291
1
  0
VISUALSTYLE
  5
64
102
{ACAD_REACTORS
330
16
102
}
330
16
100
AcDbVisualStyle
  2
Gouraud
 70
2
 90
2
 40
0.6
 62
7
290
0
291
1
  0
VISUALSTYLE
  5
65
102
{ACAD_REACTORS
330
16
102
}
330
16
100
AcDbVisualStyle
  2
GouraudWithEdges
 70
3
 90
2
 40
0.6
 62
7
290
0
291
1
  0
VISUALSTYLE
  5
66
102
{ACAD_REACTORS
330
16
102
}
330
16
100
AcDbVisualStyle
  2
Hidden
 70
6
 90
1
 40
0.6
 62
7
290
0
291
0
  0
VISUALSTYLE
  5
67
102
{ACAD_REACTORS
330
16
102
}
330
16
100
AcDbVisualStyle
  2
JitterOff
 70
20
 90
2
 40
0.6
 62
7
290
0
291
1
  0
VISUALSTYLE
  5
68
102
{ACAD_REACTORS
330
16
102
}
330
16
100
AcDbVisualStyle
  2
Linepattern
 70
14
 90
2
 40
0.6
 62
7
290
0
291
1
  0
VISUALSTYLE
  5
69
102
{ACAD_REACTORS
330
16
102
}
330
16
100
AcDbVisualStyle
  2
Modeling
 70
10
 90
2
 40
0.6
 62
7
290
0
291
0
  0
VISUALSTYLE
  5
6A
102
{ACAD_REACTORS
330
16
102
}
330
16
100
AcDbVisualStyle
  2
OverhangOff
 70
21
 90
2
 40
0.6
 62
7
290
0
291
1
  0
VISUALSTYLE
  5
6B
102
{ACAD_REACTORS
330
16
102
}
330
16
100
AcDbVisualStyle
  2
Realistic
 70
8
 90
2
 40
0.6
 62
7
290
0
291
0
  0
VISUALSTYLE
  5
6C
102
{ACAD_REACTORS
330
16
102
}
330
16
100
AcDbVisualStyle
  2
Shaded
 70
27
 90
2
 40
0.6
 62
7
290
0
291
0
  0
VISUALSTYLE
  5
6D
102
{ACAD_REACTORS
330
16
102
}
330
16
100
AcDbVisualStyle
  2
Shaded with edges
 70
26
 90
2
 40
0.6
 62
7
290
0
291
0
  0
VISUALSTYLE
  5
6E
102
{ACAD_REACTORS
330
16
102
}
330
16
100
AcDbVisualStyle
  2
Shades of Gray
 70
23
 90
2
 40
0.6
 62
7
290
0
291
0
  0
VISUALSTYLE
  5
6F
102
{ACAD_REACTORS
330
16
102
}
330
16
100
AcDbVisualStyle
  2
Sketchy
 70
24
 90
1
 40
0.6
 62
7
290
0
291
0
  0
VISUALSTYLE
  5
70
102
{ACAD_REACTORS
330
16
102
}
330
16
100
AcDbVisualStyle
  2
Thicken
 70
13
 90
2
 40
0.6
 62
7
290
0
291
1
  0
VISUALSTYLE
  5
71
102
{ACAD_REACTORS
330
16
102
}
330
16
100
AcDbVisualStyle
  2
Wireframe
 70
5
 90
0
 40
0.6
 62
7
290
0
291
0
  0
VISUALSTYLE
  5
72
102
{ACAD_REACTORS
330
16
102
}
330
16
100
AcDbVisualStyle
  2
X-Ray
 70
25
 90
2
 40
0.5
 62
7
290
0
291
0
  0
DICTIONARYVAR
  5
40C
330
2D
100
DictionaryVariables
280
0
  1
1.4.3 @ 2026-03-29T22:36:52.175247+00:00
  0
ENDSEC
  0
EOF
