  0
SECTION
  2
HEADER
  9
$ACADVER
  1
AC1024
  9
$ACADMAINTVER
 70
6
  9
$DWGCODEPAGE
  3
ANSI_1252
  9
$LASTSAVEDBY
  1
ezdxf
  9
$INSBASE
 10
0.0
 20
0.0
 30
0.0
  9
$EXTMIN
 10
1e+20
 20
1e+20
 30
1e+20
  9
$EXTMAX
 10
-1e+20
 20
-1e+20
 30
-1e+20
  9
$LIMMIN
 10
0.0
 20
0.0
  9
$LIMMAX
 10
420.0
 20
297.0
  9
$ORTHOMODE
 70
0
  9
$REGENMODE
 70
1
  9
$FILLMODE
 70
1
  9
$QTEXTMODE
 70
0
  9
$MIRRTEXT
 70
1
  9
$LTSCALE
 40
1.0
  9
$ATTMODE
 70
1
  9
$TEXTSIZE
 40
2.5
  9
$TRACEWID
 40
1.0
  9
$TEXTSTYLE
  7
OpenSans
  9
$CLAYER
  8
0
  9
$CELTYPE
  6
ByLayer
  9
$CECOLOR
 62
256
  9
$CELTSCALE
 40
1.0
  9
$DISPSILH
 70
0
  9
$DIMSCALE
 40
1.0
  9
$DIMASZ
 40
0.175
  9
$DIMEXO
 40
0.125
  9
$DIMDLI
 40
3.75
  9
$DIMRND
 40
0.0
  9
$DIMDLE
 40
0.0
  9
$DIMEXE
 40
0.375
  9
$DIMTP
 40
0.0
  9
$DIMTM
 40
0.0
  9
$DIMTXT
 40
0.25
  9
$DIMCEN
 40
2.5
  9
$DIMTSZ
 40
0.0
  9
$DIMTOL
 70
0
  9
$DIMLIM
 70
0
  9
$DIMTIH
 70
0
  9
$DIMTOH
 70
0
  9
$DIMSE1
 70
0
  9
$DIMSE2
 70
0
  9
$DIMTAD
 70
1
  9
$DIMZIN
 70
12
  9
$DIMBLK
  1
ARCHTICK
  9
$DIMASO
 70
1
  9
$DIMSHO
 70
1
  9
$DIMPOST
  1

  9
$DIMAPOST
  1

  9
$DIMALT
 70
0
  9
$DIMALTD
 70
3
  9
$DIMALTF
 40
0.03937007874
  9
$DIMLFAC
 40
100.0
  9
$DIMTOFL
 70
1
  9
$DIMTVP
 40
0.0
  9
$DIMTIX
 70
0
  9
$DIMSOXD
 70
0
  9
$DIMSAH
 70
0
  9
$DIMBLK1
  1

  9
$DIMBLK2
  1

  9
$DIMSTYLE
  2
EZDXF
  9
$DIMCLRD
 70
0
  9
$DIMCLRE
 70
0
  9
$DIMCLRT
 70
0
  9
$DIMTFAC
 40
0.5
  9
$DIMGAP
 40
0.1
  9
$DIMJUST
 70
0
  9
$DIMSD1
 70
0
  9
$DIMSD2
 70
0
  9
$DIMTOLJ
 70
0
  9
$DIMTZIN
 70
8
  9
$DIMALTZ
 70
0
  9
$DIMALTTZ
 70
0
  9
$DIMUPT
 70
1
  9
$DIMDEC
 70
2
  9
$DIMTDEC
 70
2
  9
$DIMALTU
 70
2
  9
$DIMALTTD
 70
3
  9
$DIMTXSTY
  7
OpenSansCondensed-Light
  9
$DIMAUNIT
 70
0
  9
$DIMADEC
 70
2
  9
$DIMALTRND
 40
0.0
  9
$DIMAZIN
 70
3
  9
$DIMDSEP
 70
46
  9
$DIMATFIT
 70
3
  9
$DIMFRAC
 70
0
  9
$DIMLDRBLK
  1

  9
$DIMLUNIT
 70
2
  9
$DIMLWD
 70
-2
  9
$DIMLWE
 70
-2
  9
$DIMTMOVE
 70
2
  9
$DIMFXL
 40
1.0
  9
$DIMFXLON
 70
0
  9
$DIMJOGANG
 40
0.785398163397
  9
$DIMTFILL
 70
0
  9
$DIMTFILLCLR
 70
0
  9
$DIMARCSYM
 70
0
  9
$DIMLTYPE
  6

  9
$DIMLTEX1
  6

  9
$DIMLTEX2
  6

  9
$DIMTXTDIRECTION
 70
0
  9
$LUNITS
 70
2
  9
$LUPREC
 70
4
  9
$SKETCHINC
 40
1.0
  9
$FILLETRAD
 40
10.0
  9
$AUNITS
 70
0
  9
$AUPREC
 70
2
  9
$MENU
  1
.
  9
$ELEVATION
 40
0.0
  9
$PELEVATION
 40
0.0
  9
$THICKNESS
 40
0.0
  9
$LIMCHECK
 70
0
  9
$CHAMFERA
 40
0.0
  9
$CHAMFERB
 40
0.0
  9
$CHAMFERC
 40
0.0
  9
$CHAMFERD
 40
0.0
  9
$SKPOLY
 70
0
  9
$TDCREATE
 40
2461129.022824074
  9
$TDUCREATE
 40
2458532.153996898
  9
$TDUPDATE
 40
2461129.022824074
  9
$TDUUPDATE
 40
2458532.1544311
  9
$TDINDWG
 40
0.0
  9
$TDUSRTIMER
 40
0.0
  9
$USRTIMER
 70
1
  9
$ANGBASE
 50
0.0
  9
$ANGDIR
 70
0
  9
$PDMODE
 70
0
  9
$PDSIZE
 40
0.0
  9
$PLINEWID
 40
0.0
  9
$SPLFRAME
 70
0
  9
$SPLINETYPE
 70
6
  9
$SPLINESEGS
 70
8
  9
$HANDSEED
  5
2D1
  9
$SURFTAB1
 70
6
  9
$SURFTAB2
 70
6
  9
$SURFTYPE
 70
6
  9
$SURFU
 70
6
  9
$SURFV
 70
6
  9
$UCSBASE
  2

  9
$UCSNAME
  2

  9
$UCSORG
 10
0.0
 20
0.0
 30
0.0
  9
$UCSXDIR
 10
1.0
 20
0.0
 30
0.0
  9
$UCSYDIR
 10
0.0
 20
1.0
 30
0.0
  9
$UCSORTHOREF
  2

  9
$UCSORTHOVIEW
 70
0
  9
$UCSORGTOP
 10
0.0
 20
0.0
 30
0.0
  9
$UCSORGBOTTOM
 10
0.0
 20
0.0
 30
0.0
  9
$UCSORGLEFT
 10
0.0
 20
0.0
 30
0.0
  9
$UCSORGRIGHT
 10
0.0
 20
0.0
 30
0.0
  9
$UCSORGFRONT
 10
0.0
 20
0.0
 30
0.0
  9
$UCSORGBACK
 10
0.0
 20
0.0
 30
0.0
  9
$PUCSBASE
  2

  9
$PUCSNAME
  2

  9
$PUCSORG
 10
0.0
 20
0.0
 30
0.0
  9
$PUCSXDIR
 10
1.0
 20
0.0
 30
0.0
  9
$PUCSYDIR
 10
0.0
 20
1.0
 30
0.0
  9
$PUCSORTHOREF
  2

  9
$PUCSORTHOVIEW
 70
0
  9
$PUCSORGTOP
 10
0.0
 20
0.0
 30
0.0
  9
$PUCSORGBOTTOM
 10
0.0
 20
0.0
 30
0.0
  9
$PUCSORGLEFT
 10
0.0
 20
0.0
 30
0.0
  9
$PUCSORGRIGHT
 10
0.0
 20
0.0
 30
0.0
  9
$PUCSORGFRONT
 10
0.0
 20
0.0
 30
0.0
  9
$PUCSORGBACK
 10
0.0
 20
0.0
 30
0.0
  9
$USERI1
 70
0
  9
$USERI2
 70
0
  9
$USERI3
 70
0
  9
$USERI4
 70
0
  9
$USERI5
 70
0
  9
$USERR1
 40
0.0
  9
$USERR2
 40
0.0
  9
$USERR3
 40
0.0
  9
$USERR4
 40
0.0
  9
$USERR5
 40
0.0
  9
$WORLDVIEW
 70
1
  9
$SHADEDGE
 70
3
  9
$SHADEDIF
 70
70
  9
$TILEMODE
 70
1
  9
$MAXACTVP
 70
64
  9
$PINSBASE
 10
0.0
 20
0.0
 30
0.0
  9
$PLIMCHECK
 70
0
  9
$PEXTMIN
 10
1e+20
 20
1e+20
 30
1e+20
  9
$PEXTMAX
 10
-1e+20
 20
-1e+20
 30
-1e+20
  9
$PLIMMIN
 10
0.0
 20
0.0
  9
$PLIMMAX
 10
420.0
 20
297.0
  9
$UNITMODE
 70
0
  9
$VISRETAIN
 70
1
  9
$PLINEGEN
 70
0
  9
$PSLTSCALE
 70
1
  9
$TREEDEPTH
 70
3020
  9
$CMLSTYLE
  2
Standard
  9
$CMLJUST
 70
0
  9
$CMLSCALE
 40
20.0
  9
$PROXYGRAPHICS
 70
1
  9
$MEASUREMENT
 70
1
  9
$CELWEIGHT
370
-1
  9
$ENDCAPS
280
0
  9
$JOINSTYLE
280
0
  9
$LWDISPLAY
290
0
  9
$INSUNITS
 70
6
  9
$HYPERLINKBASE
  1

  9
$STYLESHEET
  1

  9
$XEDIT
290
1
  9
$CEPSNTYPE
380
0
  9
$PSTYLEMODE
290
1
  9
$FINGERPRINTGUID
  2
{3AC1EA2A-4FBF-44C1-87E3-631E2C65B9F8}
  9
$VERSIONGUID
  2
{1E372987-BA3E-4ED8-80DA-B77140BA4FF0}
  9
$EXTNAMES
290
1
  9
$PSVPSCALE
 40
0.0
  9
$OLESTARTUP
290
0
  9
$SORTENTS
280
127
  9
$INDEXCTL
280
0
  9
$HIDETEXT
280
1
  9
$XCLIPFRAME
280
1
  9
$HALOGAP
280
0
  9
$OBSCOLOR
 70
257
  9
$OBSLTYPE
280
0
  9
$INTERSECTIONDISPLAY
280
0
  9
$INTERSECTIONCOLOR
 70
257
  9
$DIMASSOC
280
2
  9
$PROJECTNAME
  1

  9
$CAMERADISPLAY
290
0
  9
$LENSLENGTH
 40
50.0
  9
$CAMERAHEIGHT
 40
0.0
  9
$STEPSPERSEC
 40
24.0
  9
$STEPSIZE
 40
100.0
  9
$3DDWFPREC
 40
2.0
  9
$PSOLWIDTH
 40
0.005
  9
$PSOLHEIGHT
 40
0.08
  9
$LOFTANG1
 40
1.570796326795
  9
$LOFTANG2
 40
1.570796326795
  9
$LOFTMAG1
 40
0.0
  9
$LOFTMAG2
 40
0.0
  9
$LOFTPARAM
 70
7
  9
$LOFTNORMALS
280
1
  9
$LATITUDE
 40
37.795
  9
$LONGITUDE
 40
-122.394
  9
$NORTHDIRECTION
 40
0.0
  9
$TIMEZONE
 70
-8000
  9
$LIGHTGLYPHDISPLAY
280
1
  9
$TILEMODELIGHTSYNCH
280
1
  9
$CMATERIAL
347
20
  9
$SOLIDHIST
280
0
  9
$SHOWHIST
280
1
  9
$DWFFRAME
280
2
  9
$DGNFRAME
280
2
  9
$REALWORLDSCALE
290
1
  9
$INTERFERECOLOR
 62
256
  9
$CSHADOW
280
0
  9
$SHADOWPLANELOCATION
 40
0.0
  0
ENDSEC
  0
SECTION
  2
CLASSES
  0
CLASS
  1
ACDBDICTIONARYWDFLT
  2
AcDbDictionaryWithDefault
  3
ObjectDBX Classes
 90
0
 91
0
280
0
281
0
  0
CLASS
  1
SUN
  2
AcDbSun
  3
SCENEOE
 90
1153
 91
0
280
0
281
0
  0
CLASS
  1
VISUALSTYLE
  2
AcDbVisualStyle
  3
ObjectDBX Classes
 90
4095
 91
0
280
0
281
0
  0
CLASS
  1
MATERIAL
  2
AcDbMaterial
  3
ObjectDBX Classes
 90
1153
 91
0
280
0
281
0
  0
CLASS
  1
SCALE
  2
AcDbScale
  3
ObjectDBX Classes
 90
1153
 91
0
280
0
281
0
  0
CLASS
  1
TABLESTYLE
  2
AcDbTableStyle
  3
ObjectDBX Classes
 90
4095
 91
0
280
0
281
0
  0
CLASS
  1
MLEADERSTYLE
  2
AcDbMLeaderStyle
  3
ACDB_MLEADERSTYLE_CLASS
 90
4095
 91
0
280
0
281
0
  0
CLASS
  1
DICTIONARYVAR
  2
AcDbDictionaryVar
  3
ObjectDBX Classes
 90
0
 91
0
280
0
281
0
  0
CLASS
  1
CELLSTYLEMAP
  2
AcDbCellStyleMap
  3
ObjectDBX Classes
 90
1152
 91
0
280
0
281
0
  0
CLASS
  1
MENTALRAYRENDERSETTINGS
  2
AcDbMentalRayRenderSettings
  3
SCENEOE
 90
1024
 91
0
280
0
281
0
  0
CLASS
  1
ACDBDETAILVIEWSTYLE
  2
AcDbDetailViewStyle
  3
ObjectDBX Classes
 90
1025
 91
0
280
0
281
0
  0
CLASS
  1
ACDBSECTIONVIEWSTYLE
  2
AcDbSectionViewStyle
  3
ObjectDBX Classes
 90
1025
 91
0
280
0
281
0
  0
CLASS
  1
RASTERVARIABLES
  2
AcDbRasterVariables
  3
ISM
 90
0
 91
0
280
0
281
0
  0
CLASS
  1
LAYOUT
  2
AcDbLayout
  3
ObjectDBX Classes
 90
0
 91
0
280
0
281
0
  0
CLASS
  1
ACDBPLACEHOLDER
  2
AcDbPlaceHolder
  3
ObjectDBX Classes
 90
0
 91
0
280
0
281
0
  0
ENDSEC
  0
SECTION
  2
TABLES
  0
TABLE
  2
VPORT
  5
8
330
0
100
AcDbSymbolTable
 70
1
  0
VPORT
  5
23
330
8
100
AcDbSymbolTableRecord
100
AcDbViewportTableRecord
  2
*Active
 70
0
 10
0.0
 20
0.0
 11
1.0
 21
1.0
 12
0.0
 22
0.0
 13
0.0
 23
0.0
 14
0.5
 24
0.5
 15
0.5
 25
0.5
 16
0.0
 26
0.0
 36
1.0
 17
0.0
 27
0.0
 37
0.0
 40
1000.0
 41
1.34
 42
50.0
 43
0.0
 44
0.0
 50
0.0
 51
0.0
 71
0
 72
1000
 73
1
 74
3
 75
0
 76
0
 77
0
 78
0
281
0
 65
0
146
0.0
  0
ENDTAB
  0
TABLE
  2
LTYPE
  5
2
330
0
100
AcDbSymbolTable
 70
21
  0
LTYPE
  5
24
330
2
100
AcDbSymbolTableRecord
100
AcDbLinetypeTableRecord
  2
ByBlock
 70
0
  3

 72
65
 73
0
 40
0.0
  0
LTYPE
  5
25
330
2
100
AcDbSymbolTableRecord
100
AcDbLinetypeTableRecord
  2
ByLayer
 70
0
  3

 72
65
 73
0
 40
0.0
  0
LTYPE
  5
26
330
2
100
AcDbSymbolTableRecord
100
AcDbLinetypeTableRecord
  2
Continuous
 70
0
  3

 72
65
 73
0
 40
0.0
  0
LTYPE
  5
2F
330
2
100
AcDbSymbolTableRecord
100
AcDbLinetypeTableRecord
  2
CENTER
 70
0
  3
Center ____ _ ____ _ ____ _ ____ _ ____ _ ____
 72
65
 73
4
 40
5.08
 49
3.175
 74
0
 49
-0.635
 74
0
 49
0.635
 74
0
 49
-0.635
 74
0
  0
LTYPE
  5
30
330
2
100
AcDbSymbolTableRecord
100
AcDbLinetypeTableRecord
  2
CENTERX2
 70
0
  3
Center (2x) ________  __  ________  __  ________
 72
65
 73
4
 40
8.89
 49
6.35
 74
0
 49
-0.635
 74
0
 49
1.27
 74
0
 49
-0.635
 74
0
  0
LTYPE
  5
31
330
2
100
AcDbSymbolTableRecord
100
AcDbLinetypeTableRecord
  2
CENTER2
 70
0
  3
Center (.5x) ____ _ ____ _ ____ _ ____ _ ____
 72
65
 73
4
 40
2.54
 49
1.587
 74
0
 49
-0.318
 74
0
 49
0.318
 74
0
 49
-0.318
 74
0
  0
LTYPE
  5
32
330
2
100
AcDbSymbolTableRecord
100
AcDbLinetypeTableRecord
  2
DASHED
 70
0
  3
Dashed __ __ __ __ __ __ __ __ __ __ __ __ __ _
 72
65
 73
2
 40
1.524
 49
1.27
 74
0
 49
-0.254
 74
0
  0
LTYPE
  5
33
330
2
100
AcDbSymbolTableRecord
100
AcDbLinetypeTableRecord
  2
DASHEDX2
 70
0
  3
Dashed (2x) ____  ____  ____  ____  ____  ____
 72
65
 73
2
 40
3.048
 49
2.54
 74
0
 49
-0.508
 74
0
  0
LTYPE
  5
34
330
2
100
AcDbSymbolTableRecord
100
AcDbLinetypeTableRecord
  2
DASHED2
 70
0
  3
Dashed (.5x) _ _ _ _ _ _ _ _ _ _ _ _ _ _
 72
65
 73
2
 40
0.762
 49
0.635
 74
0
 49
-0.127
 74
0
  0
LTYPE
  5
35
330
2
100
AcDbSymbolTableRecord
100
AcDbLinetypeTableRecord
  2
PHANTOM
 70
0
  3
Phantom ______  __  __  ______  __  __  ______
 72
65
 73
6
 40
6.35
 49
3.175
 74
0
 49
-0.635
 74
0
 49
0.635
 74
0
 49
-0.635
 74
0
 49
0.635
 74
0
 49
-0.635
 74
0
  0
LTYPE
  5
36
330
2
100
AcDbSymbolTableRecord
100
AcDbLinetypeTableRecord
  2
PHANTOMX2
 70
0
  3
Phantom (2x)____________    ____    ____    ____________
 72
65
 73
6
 40
10.795
 49
6.35
 74
0
 49
-0.635
 74
0
 49
1.27
 74
0
 49
-0.635
 74
0
 49
1.27
 74
0
 49
-0.635
 74
0
  0
LTYPE
  5
37
330
2
100
AcDbSymbolTableRecord
100
AcDbLinetypeTableRecord
  2
PHANTOM2
 70
0
  3
Phantom (.5x) ___ _ _ ___ _ _ ___ _ _ ___ _ _ ___
 72
65
 73
6
 40
3.175
 49
1.587
 74
0
 49
-0.318
 74
0
 49
0.318
 74
0
 49
-0.318
 74
0
 49
0.318
 74
0
 49
-0.318
 74
0
  0
LTYPE
  5
38
330
2
100
AcDbSymbolTableRecord
100
AcDbLinetypeTableRecord
  2
DASHDOT
 70
0
  3
Dash dot __ . __ . __ . __ . __ . __ . __ . __
 72
65
 73
4
 40
3.556
 49
2.54
 74
0
 49
-0.508
 74
0
 49
0.0
 74
0
 49
-0.508
 74
0
  0
LTYPE
  5
39
330
2
100
AcDbSymbolTableRecord
100
AcDbLinetypeTableRecord
  2
DASHDOTX2
 70
0
  3
Dash dot (2x) ____  .  ____  .  ____  .  ____
 72
65
 73
4
 40
6.096
 49
5.08
 74
0
 49
-0.508
 74
0
 49
0.0
 74
0
 49
-0.508
 74
0
  0
LTYPE
  5
3A
330
2
100
AcDbSymbolTableRecord
100
AcDbLinetypeTableRecord
  2
DASHDOT2
 70
0
  3
Dash dot (.5x) _ . _ . _ . _ . _ . _ . _ . _
 72
65
 73
4
 40
1.778
 49
1.27
 74
0
 49
-0.254
 74
0
 49
0.0
 74
0
 49
-0.254
 74
0
  0
LTYPE
  5
3B
330
2
100
AcDbSymbolTableRecord
100
AcDbLinetypeTableRecord
  2
DOT
 70
0
  3
Dot .  .  .  .  .  .  .  .  .  .  .  .  .  .  .  .
 72
65
 73
2
 40
0.508
 49
0.0
 74
0
 49
-0.508
 74
0
  0
LTYPE
  5
3C
330
2
100
AcDbSymbolTableRecord
100
AcDbLinetypeTableRecord
  2
DOTX2
 70
0
  3
Dot (2x) .    .    .    .    .    .    .    . 
 72
65
 73
2
 40
1.016
 49
0.0
 74
0
 49
-1.016
 74
0
  0
LTYPE
  5
3D
330
2
100
AcDbSymbolTableRecord
100
AcDbLinetypeTableRecord
  2
DOT2
 70
0
  3
Dot (.5) . . . . . . . . . . . . . . . . . . . 
 72
65
 73
2
 40
0.254
 49
0.0
 74
0
 49
-0.254
 74
0
  0
LTYPE
  5
3E
330
2
100
AcDbSymbolTableRecord
100
AcDbLinetypeTableRecord
  2
DIVIDE
 70
0
  3
Divide __ . . __ . . __ . . __ . . __ . . __
 72
65
 73
6
 40
4.064
 49
2.54
 74
0
 49
-0.508
 74
0
 49
0.0
 74
0
 49
-0.508
 74
0
 49
0.0
 74
0
 49
-0.508
 74
0
  0
LTYPE
  5
3F
330
2
100
AcDbSymbolTableRecord
100
AcDbLinetypeTableRecord
  2
DIVIDEX2
 70
0
  3
Divide (2x) ____  . .  ____  . .  ____  . .  ____
 72
65
 73
6
 40
6.604
 49
5.08
 74
0
 49
-0.508
 74
0
 49
0.0
 74
0
 49
-0.508
 74
0
 49
0.0
 74
0
 49
-0.508
 74
0
  0
LTYPE
  5
40
330
2
100
AcDbSymbolTableRecord
100
AcDbLinetypeTableRecord
  2
DIVIDE2
 70
0
  3
Divide(.5x) _ . _ . _ . _ . _ . _ . _ . _
 72
65
 73
6
 40
2.032
 49
1.27
 74
0
 49
-0.254
 74
0
 49
0.0
 74
0
 49
-0.254
 74
0
 49
0.0
 74
0
 49
-0.254
 74
0
  0
ENDTAB
  0
TABLE
  2
LAYER
  5
1
330
0
100
AcDbSymbolTable
 70
10
  0
LAYER
  5
27
330
1
100
AcDbSymbolTableRecord
100
AcDbLayerTableRecord
  2
0
 70
0
 62
7
  6
Continuous
370
-3
390
13
347
21
  0
LAYER
  5
28
330
1
100
AcDbSymbolTableRecord
100
AcDbLayerTableRecord
  2
Defpoints
 70
0
 62
7
  6
Continuous
290
0
370
-3
390
13
347
21
  0
LAYER
  5
8B
330
1
100
AcDbSymbolTableRecord
100
AcDbLayerTableRecord
  2
OUTLINE
 70
0
 62
7
  6
Continuous
370
-3
390
13
347
21
  0
LAYER
  5
8C
330
1
100
AcDbSymbolTableRecord
100
AcDbLayerTableRecord
  2
STRUCTURE
 70
0
 62
3
  6
Continuous
370
-3
390
13
347
21
  0
LAYER
  5
8D
330
1
100
AcDbSymbolTableRecord
100
AcDbLayerTableRecord
  2
DIMENSION
 70
0
 62
1
  6
Continuous
370
-3
390
13
347
21
  0
LAYER
  5
8E
330
1
100
AcDbSymbolTableRecord
100
AcDbLayerTableRecord
  2
CENTERLINE
 70
0
 62
5
  6
Continuous
370
-3
390
13
347
21
  0
LAYER
  5
8F
330
1
100
AcDbSymbolTableRecord
100
AcDbLayerTableRecord
  2
SPAR
 70
0
 62
6
  6
Continuous
370
-3
390
13
347
21
  0
LAYER
  5
90
330
1
100
AcDbSymbolTableRecord
100
AcDbLayerTableRecord
  2
HIDDEN
 70
0
 62
8
  6
Continuous
370
-3
390
13
347
21
  0
LAYER
  5
91
330
1
100
AcDbSymbolTableRecord
100
AcDbLayerTableRecord
  2
TEXT
 70
0
 62
7
  6
Continuous
370
-3
390
13
347
21
  0
LAYER
  5
92
330
1
100
AcDbSymbolTableRecord
100
AcDbLayerTableRecord
  2
RIB
 70
0
 62
4
  6
Continuous
370
-3
390
13
347
21
  0
ENDTAB
  0
TABLE
  2
STYLE
  5
5
330
0
100
AcDbSymbolTable
 70
26
  0
STYLE
  5
29
330
5
100
AcDbSymbolTableRecord
100
AcDbTextStyleTableRecord
  2
Standard
 70
0
 40
0.0
 41
1.0
 50
0.0
 71
0
 42
2.5
  3
txt
  4

  0
STYLE
  5
41
330
5
100
AcDbSymbolTableRecord
100
AcDbTextStyleTableRecord
  2
OpenSans-Light
 70
0
 40
0.0
 41
1.0
 50
0.0
 71
0
 42
2.5
  3
OpenSans-Light.ttf
  4

  0
STYLE
  5
42
330
5
100
AcDbSymbolTableRecord
100
AcDbTextStyleTableRecord
  2
OpenSans-Light-Italic
 70
0
 40
0.0
 41
1.0
 50
0.0
 71
0
 42
2.5
  3
OpenSans-LightItalic.ttf
  4

  0
STYLE
  5
43
330
5
100
AcDbSymbolTableRecord
100
AcDbTextStyleTableRecord
  2
OpenSans
 70
0
 40
0.0
 41
1.0
 50
0.0
 71
0
 42
2.5
  3
OpenSans-Regular.ttf
  4

  0
STYLE
  5
44
330
5
100
AcDbSymbolTableRecord
100
AcDbTextStyleTableRecord
  2
OpenSans-Italic
 70
0
 40
0.0
 41
1.0
 50
0.0
 71
0
 42
2.5
  3
OpenSans-Italic.ttf
  4

  0
STYLE
  5
45
330
5
100
AcDbSymbolTableRecord
100
AcDbTextStyleTableRecord
  2
OpenSans-SemiBold
 70
0
 40
0.0
 41
1.0
 50
0.0
 71
0
 42
2.5
  3
OpenSans-SemiBold.ttf
  4

  0
STYLE
  5
46
330
5
100
AcDbSymbolTableRecord
100
AcDbTextStyleTableRecord
  2
OpenSans-SemiBoldItalic
 70
0
 40
0.0
 41
1.0
 50
0.0
 71
0
 42
2.5
  3
OpenSans-SemiBoldItalic.ttf
  4

  0
STYLE
  5
47
330
5
100
AcDbSymbolTableRecord
100
AcDbTextStyleTableRecord
  2
OpenSans-Bold
 70
0
 40
0.0
 41
1.0
 50
0.0
 71
0
 42
2.5
  3
OpenSans-Bold.ttf
  4

  0
STYLE
  5
48
330
5
100
AcDbSymbolTableRecord
100
AcDbTextStyleTableRecord
  2
OpenSans-BoldItalic
 70
0
 40
0.0
 41
1.0
 50
0.0
 71
0
 42
2.5
  3
OpenSans-BoldItalic.ttf
  4

  0
STYLE
  5
49
330
5
100
AcDbSymbolTableRecord
100
AcDbTextStyleTableRecord
  2
OpenSans-ExtraBold
 70
0
 40
0.0
 41
1.0
 50
0.0
 71
0
 42
2.5
  3
OpenSans-ExtraBold.ttf
  4

  0
STYLE
  5
4A
330
5
100
AcDbSymbolTableRecord
100
AcDbTextStyleTableRecord
  2
OpenSans-ExtraBoldItalic
 70
0
 40
0.0
 41
1.0
 50
0.0
 71
0
 42
2.5
  3
OpenSans-ExtraBoldItalic.ttf
  4

  0
STYLE
  5
4B
330
5
100
AcDbSymbolTableRecord
100
AcDbTextStyleTableRecord
  2
OpenSansCondensed-Bold
 70
0
 40
0.0
 41
1.0
 50
0.0
 71
0
 42
2.5
  3
OpenSansCondensed-Bold.ttf
  4

  0
STYLE
  5
4C
330
5
100
AcDbSymbolTableRecord
100
AcDbTextStyleTableRecord
  2
OpenSansCondensed-Light
 70
0
 40
0.0
 41
1.0
 50
0.0
 71
0
 42
2.5
  3
OpenSansCondensed-Light.ttf
  4

  0
STYLE
  5
4D
330
5
100
AcDbSymbolTableRecord
100
AcDbTextStyleTableRecord
  2
OpenSansCondensed-Italic
 70
0
 40
0.0
 41
1.0
 50
0.0
 71
0
 42
2.5
  3
OpenSansCondensed-LightItalic.ttf
  4

  0
STYLE
  5
4E
330
5
100
AcDbSymbolTableRecord
100
AcDbTextStyleTableRecord
  2
LiberationSans
 70
0
 40
0.0
 41
1.0
 50
0.0
 71
0
 42
2.5
  3
LiberationSans-Regular.ttf
  4

  0
STYLE
  5
4F
330
5
100
AcDbSymbolTableRecord
100
AcDbTextStyleTableRecord
  2
LiberationSans-Bold
 70
0
 40
0.0
 41
1.0
 50
0.0
 71
0
 42
2.5
  3
LiberationSans-Bold.ttf
  4

  0
STYLE
  5
50
330
5
100
AcDbSymbolTableRecord
100
AcDbTextStyleTableRecord
  2
LiberationSans-BoldItalic
 70
0
 40
0.0
 41
1.0
 50
0.0
 71
0
 42
2.5
  3
LiberationSans-BoldItalic.ttf
  4

  0
STYLE
  5
51
330
5
100
AcDbSymbolTableRecord
100
AcDbTextStyleTableRecord
  2
LiberationSans-Italic
 70
0
 40
0.0
 41
1.0
 50
0.0
 71
0
 42
2.5
  3
LiberationSans-Italic.ttf
  4

  0
STYLE
  5
52
330
5
100
AcDbSymbolTableRecord
100
AcDbTextStyleTableRecord
  2
LiberationSerif
 70
0
 40
0.0
 41
1.0
 50
0.0
 71
0
 42
2.5
  3
LiberationSerif-Regular.ttf
  4

  0
STYLE
  5
53
330
5
100
AcDbSymbolTableRecord
100
AcDbTextStyleTableRecord
  2
LiberationSerif-Bold
 70
0
 40
0.0
 41
1.0
 50
0.0
 71
0
 42
2.5
  3
LiberationSerif-Bold.ttf
  4

  0
STYLE
  5
54
330
5
100
AcDbSymbolTableRecord
100
AcDbTextStyleTableRecord
  2
LiberationSerif-BoldItalic
 70
0
 40
0.0
 41
1.0
 50
0.0
 71
0
 42
2.5
  3
LiberationSerif-BoldItalic.ttf
  4

  0
STYLE
  5
55
330
5
100
AcDbSymbolTableRecord
100
AcDbTextStyleTableRecord
  2
LiberationSerif-Italic
 70
0
 40
0.0
 41
1.0
 50
0.0
 71
0
 42
2.5
  3
LiberationSerif-Italic.ttf
  4

  0
STYLE
  5
56
330
5
100
AcDbSymbolTableRecord
100
AcDbTextStyleTableRecord
  2
LiberationMono
 70
0
 40
0.0
 41
1.0
 50
0.0
 71
0
 42
2.5
  3
LiberationMono-Regular.ttf
  4

  0
STYLE
  5
57
330
5
100
AcDbSymbolTableRecord
100
AcDbTextStyleTableRecord
  2
LiberationMono-Bold
 70
0
 40
0.0
 41
1.0
 50
0.0
 71
0
 42
2.5
  3
LiberationMono-Bold.ttf
  4

  0
STYLE
  5
58
330
5
100
AcDbSymbolTableRecord
100
AcDbTextStyleTableRecord
  2
LiberationMono-BoldItalic
 70
0
 40
0.0
 41
1.0
 50
0.0
 71
0
 42
2.5
  3
LiberationMono-BoldItalic.ttf
  4

  0
STYLE
  5
59
330
5
100
AcDbSymbolTableRecord
100
AcDbTextStyleTableRecord
  2
LiberationMono-Italic
 70
0
 40
0.0
 41
1.0
 50
0.0
 71
0
 42
2.5
  3
LiberationMono-Italic.ttf
  4

  0
ENDTAB
  0
TABLE
  2
VIEW
  5
7
330
0
100
AcDbSymbolTable
 70
0
  0
ENDTAB
  0
TABLE
  2
UCS
  5
6
330
0
100
AcDbSymbolTable
 70
0
  0
ENDTAB
  0
TABLE
  2
APPID
  5
3
330
0
100
AcDbSymbolTable
 70
3
  0
APPID
  5
2A
330
3
100
AcDbSymbolTableRecord
100
AcDbRegAppTableRecord
  2
ACAD
 70
0
  0
APPID
  5
2CE
330
3
100
AcDbSymbolTableRecord
100
AcDbRegAppTableRecord
  2
HATCHBACKGROUNDCOLOR
 70
0
  0
APPID
  5
2CF
330
3
100
AcDbSymbolTableRecord
100
AcDbRegAppTableRecord
  2
EZDXF
 70
0
  0
ENDTAB
  0
TABLE
  2
DIMSTYLE
  5
4
330
0
100
AcDbSymbolTable
 70
13
100
AcDbDimStyleTable
  0
DIMSTYLE
105
2B
330
4
100
AcDbSymbolTableRecord
100
AcDbDimStyleTableRecord
  2
Standard
 70
0
 40
1.0
 41
2.5
 42
0.625
 43
3.75
 44
1.25
 45
0.0
 46
0.0
 47
0.0
 48
0.0
 49
2.5
140
2.5
141
2.5
142
0.0
143
0.03937007874
144
1.0
145
0.0
146
1.0
147
0.625
148
0.0
 69
0
 70
0
 71
0
 72
0
 73
0
 74
0
 75
0
 76
0
 77
1
 78
8
 79
3
170
0
171
3
172
1
173
0
174
0
175
0
176
0
177
0
178
0
179
2
271
2
272
2
273
2
274
3
275
0
276
0
277
2
278
44
279
0
280
0
281
0
282
0
283
0
284
8
285
0
286
0
288
0
289
3
290
0
371
-2
372
-2
  0
DIMSTYLE
105
73
330
4
100
AcDbSymbolTableRecord
100
AcDbDimStyleTableRecord
  2
EZDXF
 70
0
 40
1.0
 41
0.175
 42
0.125
 43
3.75
 44
0.375
 45
0.0
 46
0.0
 47
0.0
 48
0.0
 49
2.5
140
0.25
141
2.5
142
0.0
143
0.03937007874
144
100.0
145
0.0
146
0.5
147
0.1
148
0.0
 69
0
 70
0
 71
0
 72
0
 73
0
 74
0
 75
0
 76
0
 77
1
 78
12
 79
3
170
0
171
3
172
1
173
0
174
0
175
0
176
0
177
0
178
0
179
2
271
2
272
2
273
2
274
3
275
0
276
0
277
2
278
46
279
2
280
0
281
0
282
0
283
0
284
8
285
0
286
0
288
1
289
3
290
0
340
4C
342
74
371
-2
372
-2
  0
DIMSTYLE
105
7C
330
4
100
AcDbSymbolTableRecord
100
AcDbDimStyleTableRecord
  2
EZ_M_100_H25_CM
 70
0
 40
1.0
 41
0.25
 42
0.125
 43
3.75
 44
0.375
 45
0.0
 46
0.0
 47
0.0
 48
0.0
 49
2.5
140
0.25
141
2.5
142
0.125
143
0.03937007874
144
100.0
145
0.0
146
0.5
147
0.1
148
0.0
 69
0
 70
0
 71
0
 72
0
 73
0
 74
0
 75
0
 76
0
 77
1
 78
12
 79
3
170
0
171
3
172
1
173
0
174
0
175
0
176
0
177
0
178
0
179
2
271
2
272
2
273
2
274
3
275
0
276
0
277
2
278
46
279
2
280
0
281
0
282
0
283
0
284
8
285
0
286
0
288
1
289
3
290
0
340
4C
371
-2
372
-2
  0
DIMSTYLE
105
7D
330
4
100
AcDbSymbolTableRecord
100
AcDbDimStyleTableRecord
  2
EZ_M_50_H25_CM
 70
0
 40
1.0
 41
0.125
 42
0.0625
 43
3.75
 44
0.1875
 45
0.0
 46
0.0
 47
0.0
 48
0.0
 49
2.5
140
0.125
141
2.5
142
0.0625
143
0.03937007874
144
100.0
145
0.0
146
0.5
147
0.05
148
0.0
 69
0
 70
0
 71
0
 72
0
 73
0
 74
0
 75
0
 76
0
 77
1
 78
12
 79
3
170
0
171
3
172
1
173
0
174
0
175
0
176
0
177
0
178
0
179
2
271
2
272
2
273
2
274
3
275
0
276
0
277
2
278
46
279
2
280
0
281
0
282
0
283
0
284
8
285
0
286
0
288
1
289
3
290
0
340
4C
371
-2
372
-2
  0
DIMSTYLE
105
7E
330
4
100
AcDbSymbolTableRecord
100
AcDbDimStyleTableRecord
  2
EZ_M_25_H25_CM
 70
0
 40
1.0
 41
0.0625
 42
0.03125
 43
3.75
 44
0.09375
 45
0.0
 46
0.0
 47
0.0
 48
0.0
 49
2.5
140
0.0625
141
2.5
142
0.03125
143
0.03937007874
144
100.0
145
0.0
146
0.5
147
0.025
148
0.0
 69
0
 70
0
 71
0
 72
0
 73
0
 74
0
 75
0
 76
0
 77
1
 78
12
 79
3
170
0
171
3
172
1
173
0
174
0
175
0
176
0
177
0
178
0
179
2
271
2
272
2
273
2
274
3
275
0
276
0
277
2
278
46
279
2
280
0
281
0
282
0
283
0
284
8
285
0
286
0
288
1
289
3
290
0
340
4C
371
-2
372
-2
  0
DIMSTYLE
105
7F
330
4
100
AcDbSymbolTableRecord
100
AcDbDimStyleTableRecord
  2
EZ_M_20_H25_CM
 70
0
 40
1.0
 41
0.05
 42
0.025
 43
3.75
 44
0.07500000000000001
 45
0.0
 46
0.0
 47
0.0
 48
0.0
 49
2.5
140
0.05
141
2.5
142
0.025
143
0.03937007874
144
100.0
145
0.0
146
0.5
147
0.020000000000000004
148
0.0
 69
0
 70
0
 71
0
 72
0
 73
0
 74
0
 75
0
 76
0
 77
1
 78
12
 79
3
170
0
171
3
172
1
173
0
174
0
175
0
176
0
177
0
178
0
179
2
271
2
272
2
273
2
274
3
275
0
276
0
277
2
278
46
279
2
280
0
281
0
282
0
283
0
284
8
285
0
286
0
288
1
289
3
290
0
340
4C
371
-2
372
-2
  0
DIMSTYLE
105
80
330
4
100
AcDbSymbolTableRecord
100
AcDbDimStyleTableRecord
  2
EZ_M_10_H25_CM
 70
0
 40
1.0
 41
0.025
 42
0.0125
 43
3.75
 44
0.037500000000000006
 45
0.0
 46
0.0
 47
0.0
 48
0.0
 49
2.5
140
0.025
141
2.5
142
0.0125
143
0.03937007874
144
100.0
145
0.0
146
0.5
147
0.010000000000000002
148
0.0
 69
0
 70
0
 71
0
 72
0
 73
0
 74
0
 75
0
 76
0
 77
1
 78
12
 79
3
170
0
171
3
172
1
173
0
174
0
175
0
176
0
177
0
178
0
179
2
271
2
272
2
273
2
274
3
275
0
276
0
277
2
278
46
279
2
280
0
281
0
282
0
283
0
284
8
285
0
286
0
288
1
289
3
290
0
340
4C
371
-2
372
-2
  0
DIMSTYLE
105
81
330
4
100
AcDbSymbolTableRecord
100
AcDbDimStyleTableRecord
  2
EZ_M_5_H25_CM
 70
0
 40
1.0
 41
0.0125
 42
0.00625
 43
3.75
 44
0.018750000000000003
 45
0.0
 46
0.0
 47
0.0
 48
0.0
 49
2.5
140
0.0125
141
2.5
142
0.00625
143
0.03937007874
144
100.0
145
0.0
146
0.5
147
0.005000000000000001
148
0.0
 69
0
 70
0
 71
0
 72
0
 73
0
 74
0
 75
0
 76
0
 77
1
 78
12
 79
3
170
0
171
3
172
1
173
0
174
0
175
0
176
0
177
0
178
0
179
2
271
2
272
2
273
2
274
3
275
0
276
0
277
2
278
46
279
2
280
0
281
0
282
0
283
0
284
8
285
0
286
0
288
1
289
3
290
0
340
4C
371
-2
372
-2
  0
DIMSTYLE
105
82
330
4
100
AcDbSymbolTableRecord
100
AcDbDimStyleTableRecord
  2
EZ_M_1_H25_CM
 70
0
 40
1.0
 41
0.0025
 42
0.00125
 43
3.75
 44
0.00375
 45
0.0
 46
0.0
 47
0.0
 48
0.0
 49
2.5
140
0.0025
141
2.5
142
0.00125
143
0.03937007874
144
100.0
145
0.0
146
0.5
147
0.001
148
0.0
 69
0
 70
0
 71
0
 72
0
 73
0
 74
0
 75
0
 76
0
 77
1
 78
12
 79
3
170
0
171
3
172
1
173
0
174
0
175
0
176
0
177
0
178
0
179
2
271
2
272
2
273
2
274
3
275
0
276
0
277
2
278
46
279
2
280
0
281
0
282
0
283
0
284
8
285
0
286
0
288
1
289
3
290
0
340
4C
371
-2
372
-2
  0
DIMSTYLE
105
83
330
4
100
AcDbSymbolTableRecord
100
AcDbDimStyleTableRecord
  2
EZ_RADIUS
 70
0
 40
1.0
 41
0.25
 42
0.125
 43
3.75
 44
0.375
 45
0.0
 46
0.0
 47
0.0
 48
0.0
 49
2.5
140
0.25
141
0.0
142
0.0
143
0.03937007874
144
100.0
145
0.0
146
0.5
147
0.1
148
0.0
 69
0
 70
0
 71
0
 72
0
 73
0
 74
0
 75
0
 76
0
 77
1
 78
12
 79
3
170
0
171
3
172
0
173
0
174
0
175
0
176
0
177
0
178
0
179
2
271
2
272
2
273
2
274
3
275
0
276
0
277
2
278
46
279
1
280
0
281
0
282
0
283
0
284
8
285
0
286
0
288
1
289
3
290
0
340
4C
342
84
371
-2
372
-2
  0
DIMSTYLE
105
88
330
4
100
AcDbSymbolTableRecord
100
AcDbDimStyleTableRecord
  2
EZ_RADIUS_INSIDE
 70
0
 40
1.0
 41
0.25
 42
0.125
 43
3.75
 44
0.375
 45
0.0
 46
0.0
 47
0.0
 48
0.0
 49
2.5
140
0.25
141
0.0
142
0.0
143
0.03937007874
144
100.0
145
0.0
146
0.5
147
0.1
148
0.0
 69
0
 70
0
 71
0
 72
0
 73
0
 74
0
 75
0
 76
0
 77
0
 78
12
 79
3
170
0
171
3
172
0
173
0
174
1
175
0
176
0
177
0
178
0
179
2
271
2
272
2
273
2
274
3
275
0
276
0
277
2
278
46
279
0
280
0
281
0
282
0
283
0
284
8
285
0
286
0
288
1
289
0
290
0
340
4C
342
84
371
-2
372
-2
  0
DIMSTYLE
105
89
330
4
100
AcDbSymbolTableRecord
100
AcDbDimStyleTableRecord
  2
EZ_CURVED
 70
0
 40
1.0
 41
0.25
 42
0.125
 43
3.75
 44
0.375
 45
0.0
 46
0.0
 47
0.0
 48
0.0
 49
2.5
140
0.25
141
2.5
142
0.0
143
0.03937007874
144
100.0
145
0.0
146
0.5
147
0.1
148
0.0
 69
0
 70
0
 71
0
 72
0
 73
0
 74
0
 75
0
 76
0
 77
1
 78
12
 79
2
 90
2
170
0
171
3
172
1
173
0
174
0
175
0
176
0
177
0
178
0
179
2
271
2
272
2
273
2
274
3
275
0
276
0
277
2
278
46
279
2
280
0
281
0
282
0
283
0
284
8
285
0
286
0
288
1
289
3
290
0
340
4C
371
-2
372
-2
  0
DIMSTYLE
105
8A
330
4
100
AcDbSymbolTableRecord
100
AcDbDimStyleTableRecord
  2
COMP
 70
0
 40
1.0
 41
1.5
 42
0.5
 43
3.75
 44
0.8
 45
0.0
 46
0.0
 47
0.0
 48
0.0
 49
2.5
140
2.5
141
2.5
142
0.0
143
0.03937007874
144
1.0
145
0.0
146
1.0
147
0.6
148
0.0
 69
0
 70
0
 71
0
 72
0
 73
0
 74
0
 75
0
 76
0
 77
1
 78
8
 79
3
170
0
171
3
172
1
173
0
174
0
175
0
176
0
177
0
178
0
179
2
271
2
272
2
273
2
274
3
275
0
276
0
277
2
278
44
279
0
280
0
281
0
282
0
283
0
284
8
285
0
286
0
288
0
289
3
290
0
371
-2
372
-2
  0
ENDTAB
  0
TABLE
  2
BLOCK_RECORD
  5
9
330
0
100
AcDbSymbolTable
 70
11
  0
BLOCK_RECORD
  5
17
330
9
100
AcDbSymbolTableRecord
100
AcDbBlockTableRecord
  2
*Model_Space
340
1A
 70
0
280
1
281
0
  0
BLOCK_RECORD
  5
1B
330
9
100
AcDbSymbolTableRecord
100
AcDbBlockTableRecord
  2
*Paper_Space
340
1E
 70
0
280
1
281
0
  0
BLOCK_RECORD
  5
74
330
9
100
AcDbSymbolTableRecord
100
AcDbBlockTableRecord
  2
_ARCHTICK
340
0
 70
0
280
1
281
0
  0
BLOCK_RECORD
  5
78
330
9
100
AcDbSymbolTableRecord
100
AcDbBlockTableRecord
  2
_CLOSEDFILLED
340
0
 70
0
280
1
281
0
  0
BLOCK_RECORD
  5
84
330
9
100
AcDbSymbolTableRecord
100
AcDbBlockTableRecord
  2
_CLOSEDBLANK
340
0
 70
0
280
1
281
0
  0
BLOCK_RECORD
  5
129
330
9
100
AcDbSymbolTableRecord
100
AcDbBlockTableRecord
  2
*D1
340
0
 70
0
280
1
281
0
  0
BLOCK_RECORD
  5
139
330
9
100
AcDbSymbolTableRecord
100
AcDbBlockTableRecord
  2
*D2
340
0
 70
0
280
1
281
0
  0
BLOCK_RECORD
  5
149
330
9
100
AcDbSymbolTableRecord
100
AcDbBlockTableRecord
  2
*D3
340
0
 70
0
280
1
281
0
  0
BLOCK_RECORD
  5
22C
330
9
100
AcDbSymbolTableRecord
100
AcDbBlockTableRecord
  2
*D4
340
0
 70
0
280
1
281
0
  0
BLOCK_RECORD
  5
23B
330
9
100
AcDbSymbolTableRecord
100
AcDbBlockTableRecord
  2
*D5
340
0
 70
0
280
1
281
0
  0
BLOCK_RECORD
  5
2B7
330
9
100
AcDbSymbolTableRecord
100
AcDbBlockTableRecord
  2
*D6
340
0
 70
0
280
1
281
0
  0
ENDTAB
  0
ENDSEC
  0
SECTION
  2
BLOCKS
  0
BLOCK
  5
18
330
17
100
AcDbEntity
  8
0
100
AcDbBlockBegin
  2
*Model_Space
 70
0
 10
0.0
 20
0.0
 30
0.0
  3
*Model_Space
  1

  0
ENDBLK
  5
19
330
17
100
AcDbEntity
  8
0
100
AcDbBlockEnd
  0
BLOCK
  5
1C
330
1B
100
AcDbEntity
  8
0
100
AcDbBlockBegin
  2
*Paper_Space
 70
0
 10
0.0
 20
0.0
 30
0.0
  3
*Paper_Space
  1

  0
ENDBLK
  5
1D
330
1B
100
AcDbEntity
  8
0
100
AcDbBlockEnd
  0
BLOCK
  5
75
330
74
100
AcDbEntity
  8
0
100
AcDbBlockBegin
  2
_ARCHTICK
 70
0
 10
0.0
 20
0.0
 30
0.0
  3
_ARCHTICK
  1

  0
LWPOLYLINE
  5
77
330
74
100
AcDbEntity
  8
0
  6
BYBLOCK
 62
0
100
AcDbPolyline
 90
2
 70
0
 43
0.15
 10
-0.5
 20
-0.5
 10
0.5
 20
0.5
  0
ENDBLK
  5
76
330
74
100
AcDbEntity
  8
0
100
AcDbBlockEnd
  0
BLOCK
  5
79
330
78
100
AcDbEntity
  8
0
100
AcDbBlockBegin
  2
_CLOSEDFILLED
 70
0
 10
0.0
 20
0.0
 30
0.0
  3
_CLOSEDFILLED
  1

  0
SOLID
  5
7B
330
78
100
AcDbEntity
  8
0
  6
BYBLOCK
 62
0
100
AcDbTrace
 10
-1.0
 20
0.16439898372402537
 30
0.0
 11
0.0
 21
0.0
 31
0.0
 12
-1.0
 22
-0.16439898372402537
 32
0.0
 13
-1.0
 23
-0.16439898372402537
 33
0.0
  0
ENDBLK
  5
7A
330
78
100
AcDbEntity
  8
0
100
AcDbBlockEnd
  0
BLOCK
  5
85
330
84
100
AcDbEntity
  8
0
100
AcDbBlockBegin
  2
_CLOSEDBLANK
 70
0
 10
0.0
 20
0.0
 30
0.0
  3
_CLOSEDBLANK
  1

  0
LWPOLYLINE
  5
87
330
84
100
AcDbEntity
  8
0
  6
BYBLOCK
 62
0
100
AcDbPolyline
 90
3
 70
1
 10
-1.0
 20
0.16439898372402537
 10
0.0
 20
0.0
 10
-1.0
 20
-0.16439898372402537
  0
ENDBLK
  5
86
330
84
100
AcDbEntity
  8
0
100
AcDbBlockEnd
  0
BLOCK
  5
12A
330
129
100
AcDbEntity
  8
0
100
AcDbBlockBegin
  2
*D1
 70
1
 10
0.0
 20
0.0
 30
0.0
  3
*D1
  1

  0
LINE
  5
12C
330
129
100
AcDbEntity
  8
0
100
AcDbLine
 10
29.5
 20
280.0
 30
0.0
 11
14.2
 21
280.0
 31
0.0
  0
LINE
  5
12D
330
129
100
AcDbEntity
  8
0
100
AcDbLine
 10
29.5
 20
65.0
 30
0.0
 11
14.2
 21
65.0
 31
0.0
  0
INSERT
  5
12E
330
129
100
AcDbEntity
  8
0
100
AcDbBlockReference
  2
_CLOSEDFILLED
 10
15.0
 20
280.0
 30
0.0
 41
1.5
 42
1.5
 50
270.0
  0
INSERT
  5
130
330
129
100
AcDbEntity
  8
0
100
AcDbBlockReference
  2
_CLOSEDFILLED
 10
15.0
 20
65.0
 30
0.0
 41
1.5
 42
1.5
 50
90.0
  0
LINE
  5
132
330
129
100
AcDbEntity
  8
0
100
AcDbLine
 10
15.0
 20
281.5
 30
0.0
 11
15.0
 21
176.25
 31
0.0
  0
LINE
  5
133
330
129
100
AcDbEntity
  8
0
100
AcDbLine
 10
15.0
 20
168.75
 30
0.0
 11
15.0
 21
63.5
 31
0.0
  0
MTEXT
  5
134
330
129
100
AcDbEntity
  8
0
100
AcDbMText
 10
15.0
 20
172.5
 30
0.0
 40
2.5
 71
5
  1
215
  7
OpenSansCondensed-Light
 50
90.0
  0
POINT
  5
135
330
129
100
AcDbEntity
  8
Defpoints
100
AcDbPoint
 10
15.0
 20
280.0
 30
0.0
  0
POINT
  5
136
330
129
100
AcDbEntity
  8
Defpoints
100
AcDbPoint
 10
30.0
 20
280.0
 30
0.0
  0
POINT
  5
137
330
129
100
AcDbEntity
  8
Defpoints
100
AcDbPoint
 10
30.0
 20
65.0
 30
0.0
  0
ENDBLK
  5
12B
330
129
100
AcDbEntity
  8
0
100
AcDbBlockEnd
  0
BLOCK
  5
13A
330
139
100
AcDbEntity
  8
0
100
AcDbBlockBegin
  2
*D2
 70
1
 10
0.0
 20
0.0
 30
0.0
  3
*D2
  1

  0
LINE
  5
13C
330
139
100
AcDbEntity
  8
0
100
AcDbLine
 10
30.0
 20
280.5
 30
0.0
 11
30.0
 21
290.8
 31
0.0
  0
LINE
  5
13D
330
139
100
AcDbEntity
  8
0
100
AcDbLine
 10
141.55
 20
280.5
 30
0.0
 11
141.55
 21
290.8
 31
0.0
  0
INSERT
  5
13E
330
139
100
AcDbEntity
  8
0
100
AcDbBlockReference
  2
_CLOSEDFILLED
 10
30.0
 20
290.0
 30
0.0
 41
1.5
 42
1.5
 50
180.0
  0
INSERT
  5
140
330
139
100
AcDbEntity
  8
0
100
AcDbBlockReference
  2
_CLOSEDFILLED
 10
141.55
 20
290.0
 30
0.0
 41
1.5
 42
1.5
  0
LINE
  5
142
330
139
100
AcDbEntity
  8
0
100
AcDbLine
 10
31.5
 20
290.0
 30
0.0
 11
78.275
 21
290.0
 31
0.0
  0
LINE
  5
143
330
139
100
AcDbEntity
  8
0
100
AcDbLine
 10
93.275
 20
290.0
 30
0.0
 11
140.05
 21
290.0
 31
0.0
  0
MTEXT
  5
144
330
139
100
AcDbEntity
  8
0
100
AcDbMText
 10
85.775
 20
290.0
 30
0.0
 40
2.5
 71
5
  1
111,55
  7
OpenSansCondensed-Light
  0
POINT
  5
145
330
139
100
AcDbEntity
  8
Defpoints
100
AcDbPoint
 10
30.0
 20
290.0
 30
0.0
  0
POINT
  5
146
330
139
100
AcDbEntity
  8
Defpoints
100
AcDbPoint
 10
30.0
 20
280.0
 30
0.0
  0
POINT
  5
147
330
139
100
AcDbEntity
  8
Defpoints
100
AcDbPoint
 10
141.55
 20
280.0
 30
0.0
  0
ENDBLK
  5
13B
330
139
100
AcDbEntity
  8
0
100
AcDbBlockEnd
  0
BLOCK
  5
14A
330
149
100
AcDbEntity
  8
0
100
AcDbBlockBegin
  2
*D3
 70
1
 10
0.0
 20
0.0
 30
0.0
  3
*D3
  1

  0
LINE
  5
14C
330
149
100
AcDbEntity
  8
0
100
AcDbLine
 10
37.25172
 20
70.54999999999998
 30
0.0
 11
37.25172
 21
69.24999999999999
 31
0.0
  0
LINE
  5
14D
330
149
100
AcDbEntity
  8
0
100
AcDbLine
 10
102.35812
 20
70.54999999999998
 30
0.0
 11
102.35812
 21
69.24999999999999
 31
0.0
  0
INSERT
  5
14E
330
149
100
AcDbEntity
  8
0
100
AcDbBlockReference
  2
_CLOSEDFILLED
 10
37.25172
 20
70.04999999999998
 30
0.0
 41
1.5
 42
1.5
 50
180.0
  0
INSERT
  5
150
330
149
100
AcDbEntity
  8
0
100
AcDbBlockReference
  2
_CLOSEDFILLED
 10
102.35812
 20
70.04999999999998
 30
0.0
 41
1.5
 42
1.5
  0
LINE
  5
152
330
149
100
AcDbEntity
  8
0
100
AcDbLine
 10
38.75172
 20
70.04999999999998
 30
0.0
 11
63.55492000000001
 21
70.04999999999998
 31
0.0
  0
LINE
  5
153
330
149
100
AcDbEntity
  8
0
100
AcDbLine
 10
76.05492000000001
 20
70.04999999999998
 30
0.0
 11
100.85812
 21
70.04999999999998
 31
0.0
  0
MTEXT
  5
154
330
149
100
AcDbEntity
  8
0
100
AcDbMText
 10
69.80492000000001
 20
70.04999999999998
 30
0.0
 40
2.5
 71
5
  1
65,11
  7
OpenSansCondensed-Light
  0
POINT
  5
155
330
149
100
AcDbEntity
  8
Defpoints
100
AcDbPoint
 10
37.25172
 20
70.04999999999998
 30
0.0
  0
POINT
  5
156
330
149
100
AcDbEntity
  8
Defpoints
100
AcDbPoint
 10
37.25172
 20
71.04999999999998
 30
0.0
  0
POINT
  5
157
330
149
100
AcDbEntity
  8
Defpoints
100
AcDbPoint
 10
102.35812
 20
71.04999999999998
 30
0.0
  0
ENDBLK
  5
14B
330
149
100
AcDbEntity
  8
0
100
AcDbBlockEnd
  0
BLOCK
  5
22D
330
22C
100
AcDbEntity
  8
0
100
AcDbBlockBegin
  2
*D4
 70
1
 10
0.0
 20
0.0
 30
0.0
  3
*D4
  1

  0
LINE
  5
22F
330
22C
100
AcDbEntity
  8
0
100
AcDbLine
 10
64.0
 20
10.686258977933385
 30
0.0
 11
53.7
 21
10.686258977933385
 31
0.0
  0
LINE
  5
230
330
22C
100
AcDbEntity
  8
0
100
AcDbLine
 10
64.0
 20
19.313741022066615
 30
0.0
 11
53.7
 21
19.313741022066615
 31
0.0
  0
INSERT
  5
231
330
22C
100
AcDbEntity
  8
0
100
AcDbBlockReference
  2
_CLOSEDFILLED
 10
54.5
 20
10.686258977933385
 30
0.0
 41
1.5
 42
1.5
 50
270.0
  0
INSERT
  5
233
330
22C
100
AcDbEntity
  8
0
100
AcDbBlockReference
  2
_CLOSEDFILLED
 10
54.5
 20
19.313741022066615
 30
0.0
 41
1.5
 42
1.5
 50
90.0
  0
LINE
  5
235
330
22C
100
AcDbEntity
  8
0
100
AcDbLine
 10
54.5
 20
12.186258977933385
 30
0.0
 11
54.5
 21
17.813741022066615
 31
0.0
  0
MTEXT
  5
236
330
22C
100
AcDbEntity
  8
0
100
AcDbMText
 10
52.1
 20
15.0
 30
0.0
 40
2.0
 71
5
  1
8,63
  7
OpenSansCondensed-Light
 50
90.0
  0
POINT
  5
237
330
22C
100
AcDbEntity
  8
Defpoints
100
AcDbPoint
 10
54.5
 20
10.686258977933385
 30
0.0
  0
POINT
  5
238
330
22C
100
AcDbEntity
  8
Defpoints
100
AcDbPoint
 10
64.5
 20
10.686258977933385
 30
0.0
  0
POINT
  5
239
330
22C
100
AcDbEntity
  8
Defpoints
100
AcDbPoint
 10
64.5
 20
19.313741022066615
 30
0.0
  0
ENDBLK
  5
22E
330
22C
100
AcDbEntity
  8
0
100
AcDbBlockEnd
  0
BLOCK
  5
23C
330
23B
100
AcDbEntity
  8
0
100
AcDbBlockBegin
  2
*D5
 70
1
 10
0.0
 20
0.0
 30
0.0
  3
*D5
  1

  0
LINE
  5
23E
330
23B
100
AcDbEntity
  8
0
100
AcDbLine
 10
30.0
 20
14.5
 30
0.0
 11
30.0
 21
4.2
 31
0.0
  0
LINE
  5
23F
330
23B
100
AcDbEntity
  8
0
100
AcDbLine
 10
141.55
 20
14.5
 30
0.0
 11
141.55
 21
4.2
 31
0.0
  0
INSERT
  5
240
330
23B
100
AcDbEntity
  8
0
100
AcDbBlockReference
  2
_CLOSEDFILLED
 10
30.0
 20
5.0
 30
0.0
 41
1.5
 42
1.5
 50
180.0
  0
INSERT
  5
242
330
23B
100
AcDbEntity
  8
0
100
AcDbBlockReference
  2
_CLOSEDFILLED
 10
141.55
 20
5.0
 30
0.0
 41
1.5
 42
1.5
  0
LINE
  5
244
330
23B
100
AcDbEntity
  8
0
100
AcDbLine
 10
31.5
 20
5.0
 30
0.0
 11
78.275
 21
5.0
 31
0.0
  0
LINE
  5
245
330
23B
100
AcDbEntity
  8
0
100
AcDbLine
 10
93.275
 20
5.0
 30
0.0
 11
140.05
 21
5.0
 31
0.0
  0
MTEXT
  5
246
330
23B
100
AcDbEntity
  8
0
100
AcDbMText
 10
85.775
 20
5.0
 30
0.0
 40
2.5
 71
5
  1
111,55
  7
OpenSansCondensed-Light
  0
POINT
  5
247
330
23B
100
AcDbEntity
  8
Defpoints
100
AcDbPoint
 10
30.0
 20
5.0
 30
0.0
  0
POINT
  5
248
330
23B
100
AcDbEntity
  8
Defpoints
100
AcDbPoint
 10
30.0
 20
15.0
 30
0.0
  0
POINT
  5
249
330
23B
100
AcDbEntity
  8
Defpoints
100
AcDbPoint
 10
141.55
 20
15.0
 30
0.0
  0
ENDBLK
  5
23D
330
23B
100
AcDbEntity
  8
0
100
AcDbBlockEnd
  0
BLOCK
  5
2B8
330
2B7
100
AcDbEntity
  8
0
100
AcDbBlockBegin
  2
*D6
 70
1
 10
0.0
 20
0.0
 30
0.0
  3
*D6
  1

  0
LINE
  5
2BA
330
2B7
100
AcDbEntity
  8
0
100
AcDbLine
 10
176.55
 20
14.5
 30
0.0
 11
176.55
 21
4.2
 31
0.0
  0
LINE
  5
2BB
330
2B7
100
AcDbEntity
  8
0
100
AcDbLine
 10
249.3
 20
14.5
 30
0.0
 11
249.3
 21
4.2
 31
0.0
  0
INSERT
  5
2BC
330
2B7
100
AcDbEntity
  8
0
100
AcDbBlockReference
  2
_CLOSEDFILLED
 10
176.55
 20
5.0
 30
0.0
 41
1.5
 42
1.5
 50
180.0
  0
INSERT
  5
2BE
330
2B7
100
AcDbEntity
  8
0
100
AcDbBlockReference
  2
_CLOSEDFILLED
 10
249.3
 20
5.0
 30
0.0
 41
1.5
 42
1.5
  0
LINE
  5
2C0
330
2B7
100
AcDbEntity
  8
0
100
AcDbLine
 10
178.05
 20
5.0
 30
0.0
 11
206.675
 21
5.0
 31
0.0
  0
LINE
  5
2C1
330
2B7
100
AcDbEntity
  8
0
100
AcDbLine
 10
219.175
 20
5.0
 30
0.0
 11
247.8
 21
5.0
 31
0.0
  0
MTEXT
  5
2C2
330
2B7
100
AcDbEntity
  8
0
100
AcDbMText
 10
212.925
 20
5.0
 30
0.0
 40
2.5
 71
5
  1
72,75
  7
OpenSansCondensed-Light
  0
POINT
  5
2C3
330
2B7
100
AcDbEntity
  8
Defpoints
100
AcDbPoint
 10
176.55
 20
5.0
 30
0.0
  0
POINT
  5
2C4
330
2B7
100
AcDbEntity
  8
Defpoints
100
AcDbPoint
 10
176.55
 20
15.0
 30
0.0
  0
POINT
  5
2C5
330
2B7
100
AcDbEntity
  8
Defpoints
100
AcDbPoint
 10
249.3
 20
15.0
 30
0.0
  0
ENDBLK
  5
2B9
330
2B7
100
AcDbEntity
  8
0
100
AcDbBlockEnd
  0
ENDSEC
  0
SECTION
  2
ENTITIES
  0
LINE
  5
93
330
17
100
AcDbEntity
  8
OUTLINE
100
AcDbLine
 10
30.0
 20
280.0
 30
0.0
 11
30.0
 21
273.335
 31
0.0
  0
LINE
  5
94
330
17
100
AcDbEntity
  8
OUTLINE
100
AcDbLine
 10
141.55
 20
280.0
 30
0.0
 11
140.3472
 21
273.335
 31
0.0
  0
LINE
  5
95
330
17
100
AcDbEntity
  8
OUTLINE
100
AcDbLine
 10
30.0
 20
273.335
 30
0.0
 11
30.0
 21
266.67
 31
0.0
  0
LINE
  5
96
330
17
100
AcDbEntity
  8
OUTLINE
100
AcDbLine
 10
140.3472
 20
273.335
 30
0.0
 11
139.1444
 21
266.67
 31
0.0
  0
LINE
  5
97
330
17
100
AcDbEntity
  8
OUTLINE
100
AcDbLine
 10
30.0
 20
266.67
 30
0.0
 11
30.0
 21
260.005
 31
0.0
  0
LINE
  5
98
330
17
100
AcDbEntity
  8
OUTLINE
100
AcDbLine
 10
139.1444
 20
266.67
 30
0.0
 11
137.9416
 21
260.005
 31
0.0
  0
LINE
  5
99
330
17
100
AcDbEntity
  8
OUTLINE
100
AcDbLine
 10
30.0
 20
260.005
 30
0.0
 11
30.0
 21
253.34
 31
0.0
  0
LINE
  5
9A
330
17
100
AcDbEntity
  8
OUTLINE
100
AcDbLine
 10
137.9416
 20
260.005
 30
0.0
 11
136.7388
 21
253.34
 31
0.0
  0
LINE
  5
9B
330
17
100
AcDbEntity
  8
OUTLINE
100
AcDbLine
 10
30.0
 20
253.34
 30
0.0
 11
30.0
 21
246.675
 31
0.0
  0
LINE
  5
9C
330
17
100
AcDbEntity
  8
OUTLINE
100
AcDbLine
 10
136.7388
 20
253.34
 30
0.0
 11
135.536
 21
246.675
 31
0.0
  0
LINE
  5
9D
330
17
100
AcDbEntity
  8
OUTLINE
100
AcDbLine
 10
30.0
 20
246.675
 30
0.0
 11
30.0
 21
240.01
 31
0.0
  0
LINE
  5
9E
330
17
100
AcDbEntity
  8
OUTLINE
100
AcDbLine
 10
135.536
 20
246.675
 30
0.0
 11
134.3332
 21
240.01
 31
0.0
  0
LINE
  5
9F
330
17
100
AcDbEntity
  8
OUTLINE
100
AcDbLine
 10
30.0
 20
240.01
 30
0.0
 11
30.0
 21
233.345
 31
0.0
  0
LINE
  5
A0
330
17
100
AcDbEntity
  8
OUTLINE
100
AcDbLine
 10
134.3332
 20
240.01
 30
0.0
 11
133.1304
 21
233.345
 31
0.0
  0
LINE
  5
A1
330
17
100
AcDbEntity
  8
OUTLINE
100
AcDbLine
 10
30.0
 20
233.345
 30
0.0
 11
30.0
 21
226.68
 31
0.0
  0
LINE
  5
A2
330
17
100
AcDbEntity
  8
OUTLINE
100
AcDbLine
 10
133.1304
 20
233.345
 30
0.0
 11
131.92759999999998
 21
226.68
 31
0.0
  0
LINE
  5
A3
330
17
100
AcDbEntity
  8
OUTLINE
100
AcDbLine
 10
30.0
 20
226.68
 30
0.0
 11
30.0
 21
220.015
 31
0.0
  0
LINE
  5
A4
330
17
100
AcDbEntity
  8
OUTLINE
100
AcDbLine
 10
131.92759999999998
 20
226.68
 30
0.0
 11
130.72480000000002
 21
220.015
 31
0.0
  0
LINE
  5
A5
330
17
100
AcDbEntity
  8
OUTLINE
100
AcDbLine
 10
30.0
 20
220.015
 30
0.0
 11
30.0
 21
213.35
 31
0.0
  0
LINE
  5
A6
330
17
100
AcDbEntity
  8
OUTLINE
100
AcDbLine
 10
130.72480000000002
 20
220.015
 30
0.0
 11
129.522
 21
213.35
 31
0.0
  0
LINE
  5
A7
330
17
100
AcDbEntity
  8
OUTLINE
100
AcDbLine
 10
30.0
 20
213.35
 30
0.0
 11
30.0
 21
206.685
 31
0.0
  0
LINE
  5
A8
330
17
100
AcDbEntity
  8
OUTLINE
100
AcDbLine
 10
129.522
 20
213.35
 30
0.0
 11
128.3192
 21
206.685
 31
0.0
  0
LINE
  5
A9
330
17
100
AcDbEntity
  8
OUTLINE
100
AcDbLine
 10
30.0
 20
206.685
 30
0.0
 11
30.0
 21
200.01999999999998
 31
0.0
  0
LINE
  5
AA
330
17
100
AcDbEntity
  8
OUTLINE
100
AcDbLine
 10
128.3192
 20
206.685
 30
0.0
 11
127.1164
 21
200.01999999999998
 31
0.0
  0
LINE
  5
AB
330
17
100
AcDbEntity
  8
OUTLINE
100
AcDbLine
 10
30.0
 20
200.01999999999998
 30
0.0
 11
30.0
 21
193.35500000000002
 31
0.0
  0
LINE
  5
AC
330
17
100
AcDbEntity
  8
OUTLINE
100
AcDbLine
 10
127.1164
 20
200.01999999999998
 30
0.0
 11
125.91359999999999
 21
193.35500000000002
 31
0.0
  0
LINE
  5
AD
330
17
100
AcDbEntity
  8
OUTLINE
100
AcDbLine
 10
30.0
 20
193.35500000000002
 30
0.0
 11
30.0
 21
186.69
 31
0.0
  0
LINE
  5
AE
330
17
100
AcDbEntity
  8
OUTLINE
100
AcDbLine
 10
125.91359999999999
 20
193.35500000000002
 30
0.0
 11
124.71079999999999
 21
186.69
 31
0.0
  0
LINE
  5
AF
330
17
100
AcDbEntity
  8
OUTLINE
100
AcDbLine
 10
30.0
 20
186.69
 30
0.0
 11
30.0
 21
180.02499999999998
 31
0.0
  0
LINE
  5
B0
330
17
100
AcDbEntity
  8
OUTLINE
100
AcDbLine
 10
124.71079999999999
 20
186.69
 30
0.0
 11
123.50800000000001
 21
180.02499999999998
 31
0.0
  0
LINE
  5
B1
330
17
100
AcDbEntity
  8
OUTLINE
100
AcDbLine
 10
30.0
 20
180.02499999999998
 30
0.0
 11
30.0
 21
173.35999999999999
 31
0.0
  0
LINE
  5
B2
330
17
100
AcDbEntity
  8
OUTLINE
100
AcDbLine
 10
123.50800000000001
 20
180.02499999999998
 30
0.0
 11
122.3052
 21
173.35999999999999
 31
0.0
  0
LINE
  5
B3
330
17
100
AcDbEntity
  8
OUTLINE
100
AcDbLine
 10
30.0
 20
173.35999999999999
 30
0.0
 11
30.0
 21
166.695
 31
0.0
  0
LINE
  5
B4
330
17
100
AcDbEntity
  8
OUTLINE
100
AcDbLine
 10
122.3052
 20
173.35999999999999
 30
0.0
 11
121.1024
 21
166.695
 31
0.0
  0
LINE
  5
B5
330
17
100
AcDbEntity
  8
OUTLINE
100
AcDbLine
 10
30.0
 20
166.695
 30
0.0
 11
30.0
 21
160.02999999999997
 31
0.0
  0
LINE
  5
B6
330
17
100
AcDbEntity
  8
OUTLINE
100
AcDbLine
 10
121.1024
 20
166.695
 30
0.0
 11
119.8996
 21
160.02999999999997
 31
0.0
  0
LINE
  5
B7
330
17
100
AcDbEntity
  8
OUTLINE
100
AcDbLine
 10
30.0
 20
160.02999999999997
 30
0.0
 11
30.0
 21
153.36499999999998
 31
0.0
  0
LINE
  5
B8
330
17
100
AcDbEntity
  8
OUTLINE
100
AcDbLine
 10
119.8996
 20
160.02999999999997
 30
0.0
 11
118.6968
 21
153.36499999999998
 31
0.0
  0
LINE
  5
B9
330
17
100
AcDbEntity
  8
OUTLINE
100
AcDbLine
 10
30.0
 20
153.36499999999998
 30
0.0
 11
30.0
 21
146.7
 31
0.0
  0
LINE
  5
BA
330
17
100
AcDbEntity
  8
OUTLINE
100
AcDbLine
 10
118.6968
 20
153.36499999999998
 30
0.0
 11
117.494
 21
146.7
 31
0.0
  0
LINE
  5
BB
330
17
100
AcDbEntity
  8
OUTLINE
100
AcDbLine
 10
30.0
 20
146.7
 30
0.0
 11
30.0
 21
140.035
 31
0.0
  0
LINE
  5
BC
330
17
100
AcDbEntity
  8
OUTLINE
100
AcDbLine
 10
117.494
 20
146.7
 30
0.0
 11
116.29119999999999
 21
140.035
 31
0.0
  0
LINE
  5
BD
330
17
100
AcDbEntity
  8
OUTLINE
100
AcDbLine
 10
30.0
 20
140.035
 30
0.0
 11
30.0
 21
133.36999999999998
 31
0.0
  0
LINE
  5
BE
330
17
100
AcDbEntity
  8
OUTLINE
100
AcDbLine
 10
116.29119999999999
 20
140.035
 30
0.0
 11
115.0884
 21
133.36999999999998
 31
0.0
  0
LINE
  5
BF
330
17
100
AcDbEntity
  8
OUTLINE
100
AcDbLine
 10
30.0
 20
133.36999999999998
 30
0.0
 11
30.0
 21
126.70500000000001
 31
0.0
  0
LINE
  5
C0
330
17
100
AcDbEntity
  8
OUTLINE
100
AcDbLine
 10
115.0884
 20
133.36999999999998
 30
0.0
 11
113.8856
 21
126.70500000000001
 31
0.0
  0
LINE
  5
C1
330
17
100
AcDbEntity
  8
OUTLINE
100
AcDbLine
 10
30.0
 20
126.70500000000001
 30
0.0
 11
30.0
 21
120.03999999999999
 31
0.0
  0
LINE
  5
C2
330
17
100
AcDbEntity
  8
OUTLINE
100
AcDbLine
 10
113.8856
 20
126.70500000000001
 30
0.0
 11
112.68279999999999
 21
120.03999999999999
 31
0.0
  0
LINE
  5
C3
330
17
100
AcDbEntity
  8
OUTLINE
100
AcDbLine
 10
30.0
 20
120.03999999999999
 30
0.0
 11
30.0
 21
113.375
 31
0.0
  0
LINE
  5
C4
330
17
100
AcDbEntity
  8
OUTLINE
100
AcDbLine
 10
112.68279999999999
 20
120.03999999999999
 30
0.0
 11
111.48
 21
113.375
 31
0.0
  0
LINE
  5
C5
330
17
100
AcDbEntity
  8
OUTLINE
100
AcDbLine
 10
30.0
 20
113.375
 30
0.0
 11
30.0
 21
106.71000000000001
 31
0.0
  0
LINE
  5
C6
330
17
100
AcDbEntity
  8
OUTLINE
100
AcDbLine
 10
111.48
 20
113.375
 30
0.0
 11
110.27720000000001
 21
106.71000000000001
 31
0.0
  0
LINE
  5
C7
330
17
100
AcDbEntity
  8
OUTLINE
100
AcDbLine
 10
30.0
 20
106.71000000000001
 30
0.0
 11
30.0
 21
100.04499999999999
 31
0.0
  0
LINE
  5
C8
330
17
100
AcDbEntity
  8
OUTLINE
100
AcDbLine
 10
110.27720000000001
 20
106.71000000000001
 30
0.0
 11
109.0744
 21
100.04499999999999
 31
0.0
  0
LINE
  5
C9
330
17
100
AcDbEntity
  8
OUTLINE
100
AcDbLine
 10
30.0
 20
100.04499999999999
 30
0.0
 11
30.0
 21
93.37999999999997
 31
0.0
  0
LINE
  5
CA
330
17
100
AcDbEntity
  8
OUTLINE
100
AcDbLine
 10
109.0744
 20
100.04499999999999
 30
0.0
 11
107.8716
 21
93.37999999999997
 31
0.0
  0
LINE
  5
CB
330
17
100
AcDbEntity
  8
OUTLINE
100
AcDbLine
 10
30.0
 20
93.37999999999997
 30
0.0
 11
30.0
 21
86.71499999999997
 31
0.0
  0
LINE
  5
CC
330
17
100
AcDbEntity
  8
OUTLINE
100
AcDbLine
 10
107.8716
 20
93.37999999999997
 30
0.0
 11
106.6688
 21
86.71499999999997
 31
0.0
  0
LINE
  5
CD
330
17
100
AcDbEntity
  8
OUTLINE
100
AcDbLine
 10
30.0
 20
86.71499999999997
 30
0.0
 11
30.0
 21
80.04999999999998
 31
0.0
  0
LINE
  5
CE
330
17
100
AcDbEntity
  8
OUTLINE
100
AcDbLine
 10
106.6688
 20
86.71499999999997
 30
0.0
 11
105.466
 21
80.04999999999998
 31
0.0
  0
LINE
  5
CF
330
17
100
AcDbEntity
  8
OUTLINE
100
AcDbLine
 10
30.0
 20
80.04999999999998
 30
0.0
 11
32.41724
 21
77.04999999999998
 31
0.0
  0
LINE
  5
D0
330
17
100
AcDbEntity
  8
OUTLINE
100
AcDbLine
 10
105.466
 20
80.04999999999998
 30
0.0
 11
104.43003999999999
 21
77.04999999999998
 31
0.0
  0
LINE
  5
D1
330
17
100
AcDbEntity
  8
OUTLINE
100
AcDbLine
 10
32.41724
 20
77.04999999999998
 30
0.0
 11
34.83448
 21
74.04999999999998
 31
0.0
  0
LINE
  5
D2
330
17
100
AcDbEntity
  8
OUTLINE
100
AcDbLine
 10
104.43003999999999
 20
77.04999999999998
 30
0.0
 11
103.39407999999999
 21
74.04999999999998
 31
0.0
  0
LINE
  5
D3
330
17
100
AcDbEntity
  8
OUTLINE
100
AcDbLine
 10
34.83448
 20
74.04999999999998
 30
0.0
 11
37.25172
 21
71.04999999999998
 31
0.0
  0
LINE
  5
D4
330
17
100
AcDbEntity
  8
OUTLINE
100
AcDbLine
 10
103.39407999999999
 20
74.04999999999998
 30
0.0
 11
102.35812
 21
71.04999999999998
 31
0.0
  0
LINE
  5
D5
330
17
100
AcDbEntity
  8
OUTLINE
100
AcDbLine
 10
37.25172
 20
71.04999999999998
 30
0.0
 11
39.66896
 21
68.04999999999998
 31
0.0
  0
LINE
  5
D6
330
17
100
AcDbEntity
  8
OUTLINE
100
AcDbLine
 10
102.35812
 20
71.04999999999998
 30
0.0
 11
101.32216
 21
68.04999999999998
 31
0.0
  0
LINE
  5
D7
330
17
100
AcDbEntity
  8
OUTLINE
100
AcDbLine
 10
39.66896
 20
68.04999999999998
 30
0.0
 11
42.0862
 21
65.04999999999998
 31
0.0
  0
LINE
  5
D8
330
17
100
AcDbEntity
  8
OUTLINE
100
AcDbLine
 10
101.32216
 20
68.04999999999998
 30
0.0
 11
100.2862
 21
65.04999999999998
 31
0.0
  0
LINE
  5
D9
330
17
100
AcDbEntity
  8
OUTLINE
100
AcDbLine
 10
30.0
 20
280.0
 30
0.0
 11
141.55
 21
280.0
 31
0.0
  0
LINE
  5
DA
330
17
100
AcDbEntity
  8
OUTLINE
100
AcDbLine
 10
42.0862
 20
65.04999999999998
 30
0.0
 11
100.2862
 21
65.04999999999998
 31
0.0
  0
LINE
  5
DB
330
17
100
AcDbEntity
  8
SPAR
100
AcDbLine
 10
58.75
 20
280.0
 30
0.0
 11
58.44
 21
273.335
 31
0.0
  0
LINE
  5
DC
330
17
100
AcDbEntity
  8
SPAR
100
AcDbLine
 10
58.44
 20
273.335
 30
0.0
 11
58.129999999999995
 21
266.67
 31
0.0
  0
LINE
  5
DD
330
17
100
AcDbEntity
  8
SPAR
100
AcDbLine
 10
58.129999999999995
 20
266.67
 30
0.0
 11
57.82
 21
260.005
 31
0.0
  0
LINE
  5
DE
330
17
100
AcDbEntity
  8
SPAR
100
AcDbLine
 10
57.82
 20
260.005
 30
0.0
 11
57.510000000000005
 21
253.34
 31
0.0
  0
LINE
  5
DF
330
17
100
AcDbEntity
  8
SPAR
100
AcDbLine
 10
57.510000000000005
 20
253.34
 30
0.0
 11
57.2
 21
246.675
 31
0.0
  0
LINE
  5
E0
330
17
100
AcDbEntity
  8
SPAR
100
AcDbLine
 10
57.2
 20
246.675
 30
0.0
 11
56.89
 21
240.01
 31
0.0
  0
LINE
  5
E1
330
17
100
AcDbEntity
  8
SPAR
100
AcDbLine
 10
56.89
 20
240.01
 30
0.0
 11
56.58
 21
233.345
 31
0.0
  0
LINE
  5
E2
330
17
100
AcDbEntity
  8
SPAR
100
AcDbLine
 10
56.58
 20
233.345
 30
0.0
 11
56.269999999999996
 21
226.68
 31
0.0
  0
LINE
  5
E3
330
17
100
AcDbEntity
  8
SPAR
100
AcDbLine
 10
56.269999999999996
 20
226.68
 30
0.0
 11
55.96
 21
220.015
 31
0.0
  0
LINE
  5
E4
330
17
100
AcDbEntity
  8
SPAR
100
AcDbLine
 10
55.96
 20
220.015
 30
0.0
 11
55.65
 21
213.35
 31
0.0
  0
LINE
  5
E5
330
17
100
AcDbEntity
  8
SPAR
100
AcDbLine
 10
55.65
 20
213.35
 30
0.0
 11
55.34
 21
206.685
 31
0.0
  0
LINE
  5
E6
330
17
100
AcDbEntity
  8
SPAR
100
AcDbLine
 10
55.34
 20
206.685
 30
0.0
 11
55.03
 21
200.01999999999998
 31
0.0
  0
LINE
  5
E7
330
17
100
AcDbEntity
  8
SPAR
100
AcDbLine
 10
55.03
 20
200.01999999999998
 30
0.0
 11
54.72
 21
193.35500000000002
 31
0.0
  0
LINE
  5
E8
330
17
100
AcDbEntity
  8
SPAR
100
AcDbLine
 10
54.72
 20
193.35500000000002
 30
0.0
 11
54.41
 21
186.69
 31
0.0
  0
LINE
  5
E9
330
17
100
AcDbEntity
  8
SPAR
100
AcDbLine
 10
54.41
 20
186.69
 30
0.0
 11
54.1
 21
180.02499999999998
 31
0.0
  0
LINE
  5
EA
330
17
100
AcDbEntity
  8
SPAR
100
AcDbLine
 10
54.1
 20
180.02499999999998
 30
0.0
 11
53.79
 21
173.35999999999999
 31
0.0
  0
LINE
  5
EB
330
17
100
AcDbEntity
  8
SPAR
100
AcDbLine
 10
53.79
 20
173.35999999999999
 30
0.0
 11
53.480000000000004
 21
166.695
 31
0.0
  0
LINE
  5
EC
330
17
100
AcDbEntity
  8
SPAR
100
AcDbLine
 10
53.480000000000004
 20
166.695
 30
0.0
 11
53.17
 21
160.02999999999997
 31
0.0
  0
LINE
  5
ED
330
17
100
AcDbEntity
  8
SPAR
100
AcDbLine
 10
53.17
 20
160.02999999999997
 30
0.0
 11
52.86
 21
153.36499999999998
 31
0.0
  0
LINE
  5
EE
330
17
100
AcDbEntity
  8
SPAR
100
AcDbLine
 10
52.86
 20
153.36499999999998
 30
0.0
 11
52.55
 21
146.7
 31
0.0
  0
LINE
  5
EF
330
17
100
AcDbEntity
  8
SPAR
100
AcDbLine
 10
52.55
 20
146.7
 30
0.0
 11
52.239999999999995
 21
140.035
 31
0.0
  0
LINE
  5
F0
330
17
100
AcDbEntity
  8
SPAR
100
AcDbLine
 10
52.239999999999995
 20
140.035
 30
0.0
 11
51.93
 21
133.36999999999998
 31
0.0
  0
LINE
  5
F1
330
17
100
AcDbEntity
  8
SPAR
100
AcDbLine
 10
51.93
 20
133.36999999999998
 30
0.0
 11
51.620000000000005
 21
126.70500000000001
 31
0.0
  0
LINE
  5
F2
330
17
100
AcDbEntity
  8
SPAR
100
AcDbLine
 10
51.620000000000005
 20
126.70500000000001
 30
0.0
 11
51.31
 21
120.03999999999999
 31
0.0
  0
LINE
  5
F3
330
17
100
AcDbEntity
  8
SPAR
100
AcDbLine
 10
51.31
 20
120.03999999999999
 30
0.0
 11
51.0
 21
113.375
 31
0.0
  0
LINE
  5
F4
330
17
100
AcDbEntity
  8
SPAR
100
AcDbLine
 10
51.0
 20
113.375
 30
0.0
 11
50.69
 21
106.71000000000001
 31
0.0
  0
LINE
  5
F5
330
17
100
AcDbEntity
  8
SPAR
100
AcDbLine
 10
50.69
 20
106.71000000000001
 30
0.0
 11
50.379999999999995
 21
100.04499999999999
 31
0.0
  0
LINE
  5
F6
330
17
100
AcDbEntity
  8
SPAR
100
AcDbLine
 10
50.379999999999995
 20
100.04499999999999
 30
0.0
 11
50.07
 21
93.37999999999997
 31
0.0
  0
LINE
  5
F7
330
17
100
AcDbEntity
  8
SPAR
100
AcDbLine
 10
50.07
 20
93.37999999999997
 30
0.0
 11
49.760000000000005
 21
86.71499999999997
 31
0.0
  0
LINE
  5
F8
330
17
100
AcDbEntity
  8
SPAR
100
AcDbLine
 10
49.760000000000005
 20
86.71499999999997
 30
0.0
 11
49.45
 21
80.04999999999998
 31
0.0
  0
LINE
  5
F9
330
17
100
AcDbEntity
  8
STRUCTURE
100
AcDbLine
 10
104.75
 20
280.0
 30
0.0
 11
103.944
 21
273.335
 31
0.0
  0
LINE
  5
FA
330
17
100
AcDbEntity
  8
STRUCTURE
100
AcDbLine
 10
103.944
 20
273.335
 30
0.0
 11
103.138
 21
266.67
 31
0.0
  0
LINE
  5
FB
330
17
100
AcDbEntity
  8
STRUCTURE
100
AcDbLine
 10
103.138
 20
266.67
 30
0.0
 11
102.33200000000001
 21
260.005
 31
0.0
  0
LINE
  5
FC
330
17
100
AcDbEntity
  8
STRUCTURE
100
AcDbLine
 10
102.33200000000001
 20
260.005
 30
0.0
 11
101.52600000000001
 21
253.34
 31
0.0
  0
LINE
  5
FD
330
17
100
AcDbEntity
  8
STRUCTURE
100
AcDbLine
 10
101.52600000000001
 20
253.34
 30
0.0
 11
100.72
 21
246.675
 31
0.0
  0
LINE
  5
FE
330
17
100
AcDbEntity
  8
STRUCTURE
100
AcDbLine
 10
100.72
 20
246.675
 30
0.0
 11
99.914
 21
240.01
 31
0.0
  0
LINE
  5
FF
330
17
100
AcDbEntity
  8
STRUCTURE
100
AcDbLine
 10
99.914
 20
240.01
 30
0.0
 11
99.108
 21
233.345
 31
0.0
  0
LINE
  5
100
330
17
100
AcDbEntity
  8
STRUCTURE
100
AcDbLine
 10
99.108
 20
233.345
 30
0.0
 11
98.302
 21
226.68
 31
0.0
  0
LINE
  5
101
330
17
100
AcDbEntity
  8
STRUCTURE
100
AcDbLine
 10
98.302
 20
226.68
 30
0.0
 11
97.49600000000001
 21
220.015
 31
0.0
  0
LINE
  5
102
330
17
100
AcDbEntity
  8
STRUCTURE
100
AcDbLine
 10
97.49600000000001
 20
220.015
 30
0.0
 11
96.69
 21
213.35
 31
0.0
  0
LINE
  5
103
330
17
100
AcDbEntity
  8
STRUCTURE
100
AcDbLine
 10
96.69
 20
213.35
 30
0.0
 11
95.884
 21
206.685
 31
0.0
  0
LINE
  5
104
330
17
100
AcDbEntity
  8
STRUCTURE
100
AcDbLine
 10
95.884
 20
206.685
 30
0.0
 11
95.078
 21
200.01999999999998
 31
0.0
  0
LINE
  5
105
330
17
100
AcDbEntity
  8
STRUCTURE
100
AcDbLine
 10
95.078
 20
200.01999999999998
 30
0.0
 11
94.272
 21
193.35500000000002
 31
0.0
  0
LINE
  5
106
330
17
100
AcDbEntity
  8
STRUCTURE
100
AcDbLine
 10
94.272
 20
193.35500000000002
 30
0.0
 11
93.46600000000001
 21
186.69
 31
0.0
  0
LINE
  5
107
330
17
100
AcDbEntity
  8
STRUCTURE
100
AcDbLine
 10
93.46600000000001
 20
186.69
 30
0.0
 11
92.66
 21
180.02499999999998
 31
0.0
  0
LINE
  5
108
330
17
100
AcDbEntity
  8
STRUCTURE
100
AcDbLine
 10
92.66
 20
180.02499999999998
 30
0.0
 11
91.854
 21
173.35999999999999
 31
0.0
  0
LINE
  5
109
330
17
100
AcDbEntity
  8
STRUCTURE
100
AcDbLine
 10
91.854
 20
173.35999999999999
 30
0.0
 11
91.048
 21
166.695
 31
0.0
  0
LINE
  5
10A
330
17
100
AcDbEntity
  8
STRUCTURE
100
AcDbLine
 10
91.048
 20
166.695
 30
0.0
 11
90.242
 21
160.02999999999997
 31
0.0
  0
LINE
  5
10B
330
17
100
AcDbEntity
  8
STRUCTURE
100
AcDbLine
 10
90.242
 20
160.02999999999997
 30
0.0
 11
89.436
 21
153.36499999999998
 31
0.0
  0
LINE
  5
10C
330
17
100
AcDbEntity
  8
STRUCTURE
100
AcDbLine
 10
89.436
 20
153.36499999999998
 30
0.0
 11
88.63
 21
146.7
 31
0.0
  0
LINE
  5
10D
330
17
100
AcDbEntity
  8
STRUCTURE
100
AcDbLine
 10
88.63
 20
146.7
 30
0.0
 11
87.824
 21
140.035
 31
0.0
  0
LINE
  5
10E
330
17
100
AcDbEntity
  8
STRUCTURE
100
AcDbLine
 10
87.824
 20
140.035
 30
0.0
 11
87.018
 21
133.36999999999998
 31
0.0
  0
LINE
  5
10F
330
17
100
AcDbEntity
  8
STRUCTURE
100
AcDbLine
 10
87.018
 20
133.36999999999998
 30
0.0
 11
86.212
 21
126.70500000000001
 31
0.0
  0
LINE
  5
110
330
17
100
AcDbEntity
  8
STRUCTURE
100
AcDbLine
 10
86.212
 20
126.70500000000001
 30
0.0
 11
85.406
 21
120.03999999999999
 31
0.0
  0
LINE
  5
111
330
17
100
AcDbEntity
  8
STRUCTURE
100
AcDbLine
 10
85.406
 20
120.03999999999999
 30
0.0
 11
84.6
 21
113.375
 31
0.0
  0
LINE
  5
112
330
17
100
AcDbEntity
  8
STRUCTURE
100
AcDbLine
 10
84.6
 20
113.375
 30
0.0
 11
83.79400000000001
 21
106.71000000000001
 31
0.0
  0
LINE
  5
113
330
17
100
AcDbEntity
  8
STRUCTURE
100
AcDbLine
 10
83.79400000000001
 20
106.71000000000001
 30
0.0
 11
82.988
 21
100.04499999999999
 31
0.0
  0
LINE
  5
114
330
17
100
AcDbEntity
  8
STRUCTURE
100
AcDbLine
 10
82.988
 20
100.04499999999999
 30
0.0
 11
82.182
 21
93.37999999999997
 31
0.0
  0
LINE
  5
115
330
17
100
AcDbEntity
  8
STRUCTURE
100
AcDbLine
 10
82.182
 20
93.37999999999997
 30
0.0
 11
81.376
 21
86.71499999999997
 31
0.0
  0
LINE
  5
116
330
17
100
AcDbEntity
  8
STRUCTURE
100
AcDbLine
 10
81.376
 20
86.71499999999997
 30
0.0
 11
80.57
 21
80.04999999999998
 31
0.0
  0
LINE
  5
117
330
17
100
AcDbEntity
  8
RIB
100
AcDbLine
 10
41.5
 20
280.0
 30
0.0
 11
87.75
 21
226.25
 31
0.0
  0
LINE
  5
118
330
17
100
AcDbEntity
  8
RIB
100
AcDbLine
 10
40.75581395348837
 20
240.0
 30
0.0
 11
83.65697674418605
 21
186.25
 31
0.0
  0
LINE
  5
119
330
17
100
AcDbEntity
  8
RIB
100
AcDbLine
 10
40.01162790697674
 20
200.0
 30
0.0
 11
79.5639534883721
 21
146.25
 31
0.0
  0
LINE
  5
11A
330
17
100
AcDbEntity
  8
RIB
100
AcDbLine
 10
39.26744186046511
 20
160.0
 30
0.0
 11
75.47093023255815
 21
106.25
 31
0.0
  0
LINE
  5
11B
330
17
100
AcDbEntity
  8
RIB
100
AcDbLine
 10
38.52325581395349
 20
120.0
 30
0.0
 11
72.78999999999999
 21
80.04999999999998
 31
0.0
  0
LINE
  5
11C
330
17
100
AcDbEntity
  8
RIB
100
AcDbLine
 10
91.20348837209303
 20
260.0
 30
0.0
 11
40.127906976744185
 21
206.25
 31
0.0
  0
LINE
  5
11D
330
17
100
AcDbEntity
  8
RIB
100
AcDbLine
 10
87.11046511627907
 20
220.0
 30
0.0
 11
39.383720930232556
 21
166.25
 31
0.0
  0
LINE
  5
11E
330
17
100
AcDbEntity
  8
RIB
100
AcDbLine
 10
83.01744186046511
 20
180.0
 30
0.0
 11
38.639534883720934
 21
126.25
 31
0.0
  0
LINE
  5
11F
330
17
100
AcDbEntity
  8
RIB
100
AcDbLine
 10
78.92441860465118
 20
140.0
 30
0.0
 11
37.895348837209305
 21
86.25
 31
0.0
  0
LINE
  5
120
330
17
100
AcDbEntity
  8
RIB
100
AcDbLine
 10
74.83139534883722
 20
100.0
 30
0.0
 11
37.78
 21
80.04999999999998
 31
0.0
  0
LINE
  5
121
330
17
100
AcDbEntity
  8
RIB
100
AcDbLine
 10
32.0
 20
280.0
 30
0.0
 11
139.55
 21
280.0
 31
0.0
  0
LINE
  5
122
330
17
100
AcDbEntity
  8
RIB
100
AcDbLine
 10
32.0
 20
226.25
 30
0.0
 11
129.85
 21
226.25
 31
0.0
  0
LINE
  5
123
330
17
100
AcDbEntity
  8
RIB
100
AcDbLine
 10
32.0
 20
172.5
 30
0.0
 11
120.14999999999999
 21
172.5
 31
0.0
  0
LINE
  5
124
330
17
100
AcDbEntity
  8
RIB
100
AcDbLine
 10
32.0
 20
118.75
 30
0.0
 11
110.45
 21
118.75
 31
0.0
  0
LINE
  5
125
330
17
100
AcDbEntity
  8
RIB
100
AcDbLine
 10
32.0
 20
80.04999999999998
 30
0.0
 11
103.466
 21
80.04999999999998
 31
0.0
  0
CIRCLE
  5
126
330
17
100
AcDbEntity
  8
SPAR
100
AcDbCircle
 10
58.75
 20
280.0
 30
0.0
 40
2.0
  0
CIRCLE
  5
127
330
17
100
AcDbEntity
  8
SPAR
100
AcDbCircle
 10
49.75
 20
86.5
 30
0.0
 40
1.8
  0
DIMENSION
  5
128
330
17
100
AcDbEntity
  8
0
100
AcDbDimension
280
0
  2
*D1
  3
COMP
 10
15.0
 20
280.0
 30
0.0
 11
15.0
 21
172.5
 31
0.0
 70
32
 71
5
  1
<>
100
AcDbAlignedDimension
 13
30.0
 23
280.0
 33
0.0
 14
30.0
 24
65.0
 34
0.0
 50
90.0
100
AcDbRotatedDimension
  0
DIMENSION
  5
138
330
17
100
AcDbEntity
  8
0
100
AcDbDimension
280
0
  2
*D2
  3
COMP
 10
30.0
 20
290.0
 30
0.0
 11
85.775
 21
290.0
 31
0.0
 70
32
 71
5
  1
<>
100
AcDbAlignedDimension
 13
30.0
 23
280.0
 33
0.0
 14
141.55
 24
280.0
 34
0.0
 50
0.0
100
AcDbRotatedDimension
  0
DIMENSION
  5
148
330
17
100
AcDbEntity
  8
0
100
AcDbDimension
280
0
  2
*D3
  3
COMP
 10
37.25172
 20
70.04999999999998
 30
0.0
 11
69.80492000000001
 21
70.04999999999998
 31
0.0
 70
32
 71
5
  1
<>
100
AcDbAlignedDimension
 13
37.25172
 23
71.04999999999998
 33
0.0
 14
102.35812
 24
71.04999999999998
 34
0.0
 50
0.0
100
AcDbRotatedDimension
  0
TEXT
  5
158
330
17
100
AcDbEntity
  8
TEXT
100
AcDbText
 10
30.0
 20
300.0
 30
0.0
 40
4.0
  1
TOP VIEW — INTERNAL STRUCTURE
 11
30.0
 21
300.0
 31
0.0
100
AcDbText
  0
TEXT
  5
159
330
17
100
AcDbEntity
  8
SPAR
100
AcDbText
 10
61.75
 20
265.0
 30
0.0
 40
2.0
  1
PIVOT CHANNEL(3.0mm CF)
 11
61.75
 21
265.0
 31
0.0
100
AcDbText
  0
TEXT
  5
15A
330
17
100
AcDbEntity
  8
STRUCTURE
100
AcDbText
 10
107.75
 20
240.0
 30
0.0
 40
1.8
  1
REAR SPARCHANNEL(2.0mm CF)
 11
107.75
 21
240.0
 31
0.0
100
AcDbText
  0
TEXT
  5
15B
330
17
100
AcDbEntity
  8
RIB
100
AcDbText
 10
70.25
 20
194.0
 30
0.0
 40
1.8
  1
DIAGONALRIB GRID(vase-modeslot technique)
 11
70.25
 21
194.0
 31
0.0
100
AcDbText
  0
TEXT
  5
15C
330
17
100
AcDbEntity
  8
TEXT
100
AcDbText
 10
70.0
 20
284.0
 30
0.0
 40
2.5
  1
ROOT
 11
70.0
 21
284.0
 31
0.0
100
AcDbText
  0
TEXT
  5
15D
330
17
100
AcDbEntity
  8
TEXT
100
AcDbText
 10
50.0
 20
60.0
 30
0.0
 40
2.5
  1
TIP
 11
50.0
 21
60.0
 31
0.0
100
AcDbText
  0
TEXT
  5
15E
330
17
100
AcDbEntity
  8
RIB
100
AcDbText
 10
146.55
 20
172.5
 30
0.0
 40
1.5
  1
CROSS RIBSat 0, 25, 50,75, 93% span
 11
146.55
 21
172.5
 31
0.0
100
AcDbText
  0
LINE
  5
15F
330
17
100
AcDbEntity
  8
OUTLINE
100
AcDbLine
 10
30.0
 20
15.0
 30
0.0
 11
32.231
 21
16.67233221484001
 31
0.0
  0
LINE
  5
160
330
17
100
AcDbEntity
  8
OUTLINE
100
AcDbLine
 10
30.0
 20
15.0
 30
0.0
 11
32.231
 21
13.327667785159989
 31
0.0
  0
LINE
  5
161
330
17
100
AcDbEntity
  8
OUTLINE
100
AcDbLine
 10
32.231
 20
16.67233221484001
 30
0.0
 11
34.462
 21
17.28910868736764
 31
0.0
  0
LINE
  5
162
330
17
100
AcDbEntity
  8
OUTLINE
100
AcDbLine
 10
32.231
 20
13.327667785159989
 30
0.0
 11
34.462
 21
12.71089131263236
 31
0.0
  0
LINE
  5
163
330
17
100
AcDbEntity
  8
OUTLINE
100
AcDbLine
 10
34.462
 20
17.28910868736764
 30
0.0
 11
36.693
 21
17.723640948092232
 31
0.0
  0
LINE
  5
164
330
17
100
AcDbEntity
  8
OUTLINE
100
AcDbLine
 10
34.462
 20
12.71089131263236
 30
0.0
 11
36.693
 21
12.276359051907768
 31
0.0
  0
LINE
  5
165
330
17
100
AcDbEntity
  8
OUTLINE
100
AcDbLine
 10
36.693
 20
17.723640948092232
 30
0.0
 11
38.924
 21
18.059334435711996
 31
0.0
  0
LINE
  5
166
330
17
100
AcDbEntity
  8
OUTLINE
100
AcDbLine
 10
36.693
 20
12.276359051907768
 30
0.0
 11
38.924
 21
11.940665564288006
 31
0.0
  0
LINE
  5
167
330
17
100
AcDbEntity
  8
OUTLINE
100
AcDbLine
 10
38.924
 20
18.059334435711996
 30
0.0
 11
41.155
 21
18.328786937253064
 31
0.0
  0
LINE
  5
168
330
17
100
AcDbEntity
  8
OUTLINE
100
AcDbLine
 10
38.924
 20
11.940665564288006
 30
0.0
 11
41.155
 21
11.671213062746938
 31
0.0
  0
LINE
  5
169
330
17
100
AcDbEntity
  8
OUTLINE
100
AcDbLine
 10
41.155
 20
18.328786937253064
 30
0.0
 11
43.386
 21
18.54893797811239
 31
0.0
  0
LINE
  5
16A
330
17
100
AcDbEntity
  8
OUTLINE
100
AcDbLine
 10
41.155
 20
11.671213062746938
 30
0.0
 11
43.386
 21
11.451062021887607
 31
0.0
  0
LINE
  5
16B
330
17
100
AcDbEntity
  8
OUTLINE
100
AcDbLine
 10
43.386
 20
18.54893797811239
 30
0.0
 11
45.617000000000004
 21
18.730026391289844
 31
0.0
  0
LINE
  5
16C
330
17
100
AcDbEntity
  8
OUTLINE
100
AcDbLine
 10
43.386
 20
11.451062021887607
 30
0.0
 11
45.617000000000004
 21
11.269973608710156
 31
0.0
  0
LINE
  5
16D
330
17
100
AcDbEntity
  8
OUTLINE
100
AcDbLine
 10
45.617000000000004
 20
18.730026391289844
 30
0.0
 11
47.848
 21
18.87886709791787
 31
0.0
  0
LINE
  5
16E
330
17
100
AcDbEntity
  8
OUTLINE
100
AcDbLine
 10
45.617000000000004
 20
11.269973608710156
 30
0.0
 11
47.848
 21
11.12113290208213
 31
0.0
  0
LINE
  5
16F
330
17
100
AcDbEntity
  8
OUTLINE
100
AcDbLine
 10
47.848
 20
18.87886709791787
 30
0.0
 11
50.079
 21
19.000313371067794
 31
0.0
  0
LINE
  5
170
330
17
100
AcDbEntity
  8
OUTLINE
100
AcDbLine
 10
47.848
 20
11.12113290208213
 30
0.0
 11
50.079
 21
10.999686628932206
 31
0.0
  0
LINE
  5
171
330
17
100
AcDbEntity
  8
OUTLINE
100
AcDbLine
 10
50.079
 20
19.000313371067794
 30
0.0
 11
52.31
 21
19.097999666720593
 31
0.0
  0
LINE
  5
172
330
17
100
AcDbEntity
  8
OUTLINE
100
AcDbLine
 10
50.079
 20
10.999686628932206
 30
0.0
 11
52.31
 21
10.902000333279407
 31
0.0
  0
LINE
  5
173
330
17
100
AcDbEntity
  8
OUTLINE
100
AcDbLine
 10
52.31
 20
19.097999666720593
 30
0.0
 11
54.541
 21
19.174755461738137
 31
0.0
  0
LINE
  5
174
330
17
100
AcDbEntity
  8
OUTLINE
100
AcDbLine
 10
52.31
 20
10.902000333279407
 30
0.0
 11
54.541
 21
10.825244538261863
 31
0.0
  0
LINE
  5
175
330
17
100
AcDbEntity
  8
OUTLINE
100
AcDbLine
 10
54.541
 20
19.174755461738137
 30
0.0
 11
56.772000000000006
 21
19.232852388463677
 31
0.0
  0
LINE
  5
176
330
17
100
AcDbEntity
  8
OUTLINE
100
AcDbLine
 10
54.541
 20
10.825244538261863
 30
0.0
 11
56.772000000000006
 21
10.767147611536323
 31
0.0
  0
LINE
  5
177
330
17
100
AcDbEntity
  8
OUTLINE
100
AcDbLine
 10
56.772000000000006
 20
19.232852388463677
 30
0.0
 11
59.003
 21
19.27416005960123
 31
0.0
  0
LINE
  5
178
330
17
100
AcDbEntity
  8
OUTLINE
100
AcDbLine
 10
56.772000000000006
 20
10.767147611536323
 30
0.0
 11
59.003
 21
10.725839940398771
 31
0.0
  0
LINE
  5
179
330
17
100
AcDbEntity
  8
OUTLINE
100
AcDbLine
 10
59.003
 20
19.27416005960123
 30
0.0
 11
61.234
 21
19.30024871533508
 31
0.0
  0
LINE
  5
17A
330
17
100
AcDbEntity
  8
OUTLINE
100
AcDbLine
 10
59.003
 20
10.725839940398771
 30
0.0
 11
61.234
 21
10.699751284664918
 31
0.0
  0
LINE
  5
17B
330
17
100
AcDbEntity
  8
OUTLINE
100
AcDbLine
 10
61.234
 20
19.30024871533508
 30
0.0
 11
63.464999999999996
 21
19.31245932241897
 31
0.0
  0
LINE
  5
17C
330
17
100
AcDbEntity
  8
OUTLINE
100
AcDbLine
 10
61.234
 20
10.699751284664918
 30
0.0
 11
63.464999999999996
 21
10.68754067758103
 31
0.0
  0
LINE
  5
17D
330
17
100
AcDbEntity
  8
OUTLINE
100
AcDbLine
 10
63.464999999999996
 20
19.31245932241897
 30
0.0
 11
65.696
 21
19.31195291523364
 31
0.0
  0
LINE
  5
17E
330
17
100
AcDbEntity
  8
OUTLINE
100
AcDbLine
 10
63.464999999999996
 20
10.68754067758103
 30
0.0
 11
65.696
 21
10.688047084766362
 31
0.0
  0
LINE
  5
17F
330
17
100
AcDbEntity
  8
OUTLINE
100
AcDbLine
 10
65.696
 20
19.31195291523364
 30
0.0
 11
67.92699999999999
 21
19.299746231220702
 31
0.0
  0
LINE
  5
180
330
17
100
AcDbEntity
  8
OUTLINE
100
AcDbLine
 10
65.696
 20
10.688047084766362
 30
0.0
 11
67.92699999999999
 21
10.700253768779298
 31
0.0
  0
LINE
  5
181
330
17
100
AcDbEntity
  8
OUTLINE
100
AcDbLine
 10
67.92699999999999
 20
19.299746231220702
 30
0.0
 11
70.158
 21
19.276738025075623
 31
0.0
  0
LINE
  5
182
330
17
100
AcDbEntity
  8
OUTLINE
100
AcDbLine
 10
67.92699999999999
 20
10.700253768779298
 30
0.0
 11
70.158
 21
10.723261974924375
 31
0.0
  0
LINE
  5
183
330
17
100
AcDbEntity
  8
OUTLINE
100
AcDbLine
 10
70.158
 20
19.276738025075623
 30
0.0
 11
72.389
 21
19.24372887904781
 31
0.0
  0
LINE
  5
184
330
17
100
AcDbEntity
  8
OUTLINE
100
AcDbLine
 10
70.158
 20
10.723261974924375
 30
0.0
 11
72.389
 21
10.756271120952189
 31
0.0
  0
LINE
  5
185
330
17
100
AcDbEntity
  8
OUTLINE
100
AcDbLine
 10
72.389
 20
19.24372887904781
 30
0.0
 11
74.62
 21
19.201436372428244
 31
0.0
  0
LINE
  5
186
330
17
100
AcDbEntity
  8
OUTLINE
100
AcDbLine
 10
72.389
 20
10.756271120952189
 30
0.0
 11
74.62
 21
10.798563627571756
 31
0.0
  0
LINE
  5
187
330
17
100
AcDbEntity
  8
OUTLINE
100
AcDbLine
 10
74.62
 20
19.201436372428244
 30
0.0
 11
76.851
 21
19.150506873620902
 31
0.0
  0
LINE
  5
188
330
17
100
AcDbEntity
  8
OUTLINE
100
AcDbLine
 10
74.62
 20
10.798563627571756
 30
0.0
 11
76.851
 21
10.849493126379098
 31
0.0
  0
LINE
  5
189
330
17
100
AcDbEntity
  8
OUTLINE
100
AcDbLine
 10
76.851
 20
19.150506873620902
 30
0.0
 11
79.082
 21
19.09152483078111
 31
0.0
  0
LINE
  5
18A
330
17
100
AcDbEntity
  8
OUTLINE
100
AcDbLine
 10
76.851
 20
10.849493126379098
 30
0.0
 11
79.082
 21
10.908475169218887
 31
0.0
  0
LINE
  5
18B
330
17
100
AcDbEntity
  8
OUTLINE
100
AcDbLine
 10
79.082
 20
19.09152483078111
 30
0.0
 11
81.31299999999999
 21
19.025020180522965
 31
0.0
  0
LINE
  5
18C
330
17
100
AcDbEntity
  8
OUTLINE
100
AcDbLine
 10
79.082
 20
10.908475169218887
 30
0.0
 11
81.31299999999999
 21
10.974979819477035
 31
0.0
  0
LINE
  5
18D
330
17
100
AcDbEntity
  8
OUTLINE
100
AcDbLine
 10
81.31299999999999
 20
19.025020180522965
 30
0.0
 11
83.54400000000001
 21
18.951474320650064
 31
0.0
  0
LINE
  5
18E
330
17
100
AcDbEntity
  8
OUTLINE
100
AcDbLine
 10
81.31299999999999
 20
10.974979819477035
 30
0.0
 11
83.54400000000001
 21
11.048525679349934
 31
0.0
  0
LINE
  5
18F
330
17
100
AcDbEntity
  8
OUTLINE
100
AcDbLine
 10
83.54400000000001
 20
18.951474320650064
 30
0.0
 11
85.775
 21
18.871324973107118
 31
0.0
  0
LINE
  5
190
330
17
100
AcDbEntity
  8
OUTLINE
100
AcDbLine
 10
83.54400000000001
 20
11.048525679349934
 30
0.0
 11
85.775
 21
11.128675026892882
 31
0.0
  0
LINE
  5
191
330
17
100
AcDbEntity
  8
OUTLINE
100
AcDbLine
 10
85.775
 20
18.871324973107118
 30
0.0
 11
88.006
 21
18.78497017923489
 31
0.0
  0
LINE
  5
192
330
17
100
AcDbEntity
  8
OUTLINE
100
AcDbLine
 10
85.775
 20
11.128675026892882
 30
0.0
 11
88.006
 21
11.21502982076511
 31
0.0
  0
LINE
  5
193
330
17
100
AcDbEntity
  8
OUTLINE
100
AcDbLine
 10
88.006
 20
18.78497017923489
 30
0.0
 11
90.237
 21
18.69277160937289
 31
0.0
  0
LINE
  5
194
330
17
100
AcDbEntity
  8
OUTLINE
100
AcDbLine
 10
88.006
 20
11.21502982076511
 30
0.0
 11
90.237
 21
11.30722839062711
 31
0.0
  0
LINE
  5
195
330
17
100
AcDbEntity
  8
OUTLINE
100
AcDbLine
 10
90.237
 20
18.69277160937289
 30
0.0
 11
92.468
 21
18.5950573253679
 31
0.0
  0
LINE
  5
196
330
17
100
AcDbEntity
  8
OUTLINE
100
AcDbLine
 10
90.237
 20
11.30722839062711
 30
0.0
 11
92.468
 21
11.404942674632101
 31
0.0
  0
LINE
  5
197
330
17
100
AcDbEntity
  8
OUTLINE
100
AcDbLine
 10
92.468
 20
18.5950573253679
 30
0.0
 11
94.699
 21
18.492124102623087
 31
0.0
  0
LINE
  5
198
330
17
100
AcDbEntity
  8
OUTLINE
100
AcDbLine
 10
92.468
 20
11.404942674632101
 30
0.0
 11
94.699
 21
11.50787589737691
 31
0.0
  0
LINE
  5
199
330
17
100
AcDbEntity
  8
OUTLINE
100
AcDbLine
 10
94.699
 20
18.492124102623087
 30
0.0
 11
96.92999999999999
 21
18.384239394596538
 31
0.0
  0
LINE
  5
19A
330
17
100
AcDbEntity
  8
OUTLINE
100
AcDbLine
 10
94.699
 20
11.50787589737691
 30
0.0
 11
96.92999999999999
 21
11.615760605403462
 31
0.0
  0
LINE
  5
19B
330
17
100
AcDbEntity
  8
OUTLINE
100
AcDbLine
 10
96.92999999999999
 20
18.384239394596538
 30
0.0
 11
99.161
 21
18.27164300482214
 31
0.0
  0
LINE
  5
19C
330
17
100
AcDbEntity
  8
OUTLINE
100
AcDbLine
 10
96.92999999999999
 20
11.615760605403462
 30
0.0
 11
99.161
 21
11.728356995177862
 31
0.0
  0
LINE
  5
19D
330
17
100
AcDbEntity
  8
OUTLINE
100
AcDbLine
 10
99.161
 20
18.27164300482214
 30
0.0
 11
101.392
 21
18.15454851797617
 31
0.0
  0
LINE
  5
19E
330
17
100
AcDbEntity
  8
OUTLINE
100
AcDbLine
 10
99.161
 20
11.728356995177862
 30
0.0
 11
101.392
 21
11.84545148202383
 31
0.0
  0
LINE
  5
19F
330
17
100
AcDbEntity
  8
OUTLINE
100
AcDbLine
 10
101.392
 20
18.15454851797617
 30
0.0
 11
103.623
 21
18.03314453111779
 31
0.0
  0
LINE
  5
1A0
330
17
100
AcDbEntity
  8
OUTLINE
100
AcDbLine
 10
101.392
 20
11.84545148202383
 30
0.0
 11
103.623
 21
11.966855468882207
 31
0.0
  0
LINE
  5
1A1
330
17
100
AcDbEntity
  8
OUTLINE
100
AcDbLine
 10
103.623
 20
18.03314453111779
 30
0.0
 11
105.854
 21
17.907595718183966
 31
0.0
  0
LINE
  5
1A2
330
17
100
AcDbEntity
  8
OUTLINE
100
AcDbLine
 10
103.623
 20
11.966855468882207
 30
0.0
 11
105.854
 21
12.092404281816032
 31
0.0
  0
LINE
  5
1A3
330
17
100
AcDbEntity
  8
OUTLINE
100
AcDbLine
 10
105.854
 20
17.907595718183966
 30
0.0
 11
108.085
 21
17.778043754535755
 31
0.0
  0
LINE
  5
1A4
330
17
100
AcDbEntity
  8
OUTLINE
100
AcDbLine
 10
105.854
 20
12.092404281816032
 30
0.0
 11
108.085
 21
12.221956245464245
 31
0.0
  0
LINE
  5
1A5
330
17
100
AcDbEntity
  8
OUTLINE
100
AcDbLine
 10
108.085
 20
17.778043754535755
 30
0.0
 11
110.316
 21
17.64460812340746
 31
0.0
  0
LINE
  5
1A6
330
17
100
AcDbEntity
  8
OUTLINE
100
AcDbLine
 10
108.085
 20
12.221956245464245
 30
0.0
 11
110.316
 21
12.355391876592542
 31
0.0
  0
LINE
  5
1A7
330
17
100
AcDbEntity
  8
OUTLINE
100
AcDbLine
 10
110.316
 20
17.64460812340746
 30
0.0
 11
112.547
 21
17.50738682218886
 31
0.0
  0
LINE
  5
1A8
330
17
100
AcDbEntity
  8
OUTLINE
100
AcDbLine
 10
110.316
 20
12.355391876592542
 30
0.0
 11
112.547
 21
12.492613177811139
 31
0.0
  0
LINE
  5
1A9
330
17
100
AcDbEntity
  8
OUTLINE
100
AcDbLine
 10
112.547
 20
17.50738682218886
 30
0.0
 11
114.77799999999999
 21
17.366456983339642
 31
0.0
  0
LINE
  5
1AA
330
17
100
AcDbEntity
  8
OUTLINE
100
AcDbLine
 10
112.547
 20
12.492613177811139
 30
0.0
 11
114.77799999999999
 21
12.63354301666036
 31
0.0
  0
LINE
  5
1AB
330
17
100
AcDbEntity
  8
OUTLINE
100
AcDbLine
 10
114.77799999999999
 20
17.366456983339642
 30
0.0
 11
117.00899999999999
 21
17.221875422218513
 31
0.0
  0
LINE
  5
1AC
330
17
100
AcDbEntity
  8
OUTLINE
100
AcDbLine
 10
114.77799999999999
 20
12.63354301666036
 30
0.0
 11
117.00899999999999
 21
12.778124577781487
 31
0.0
  0
LINE
  5
1AD
330
17
100
AcDbEntity
  8
OUTLINE
100
AcDbLine
 10
117.00899999999999
 20
17.221875422218513
 30
0.0
 11
119.24
 21
17.0736791220741
 31
0.0
  0
LINE
  5
1AE
330
17
100
AcDbEntity
  8
OUTLINE
100
AcDbLine
 10
117.00899999999999
 20
12.778124577781487
 30
0.0
 11
119.24
 21
12.9263208779259
 31
0.0
  0
LINE
  5
1AF
330
17
100
AcDbEntity
  8
OUTLINE
100
AcDbLine
 10
119.24
 20
17.0736791220741
 30
0.0
 11
121.47099999999999
 21
16.92188566478881
 31
0.0
  0
LINE
  5
1B0
330
17
100
AcDbEntity
  8
OUTLINE
100
AcDbLine
 10
119.24
 20
12.9263208779259
 30
0.0
 11
121.47099999999999
 21
13.07811433521119
 31
0.0
  0
LINE
  5
1B1
330
17
100
AcDbEntity
  8
OUTLINE
100
AcDbLine
 10
121.47099999999999
 20
16.92188566478881
 30
0.0
 11
123.70200000000001
 21
16.766493614612354
 31
0.0
  0
LINE
  5
1B2
330
17
100
AcDbEntity
  8
OUTLINE
100
AcDbLine
 10
121.47099999999999
 20
13.07811433521119
 30
0.0
 11
123.70200000000001
 21
13.233506385387644
 31
0.0
  0
LINE
  5
1B3
330
17
100
AcDbEntity
  8
OUTLINE
100
AcDbLine
 10
123.70200000000001
 20
16.766493614612354
 30
0.0
 11
125.933
 21
16.60748286100758
 31
0.0
  0
LINE
  5
1B4
330
17
100
AcDbEntity
  8
OUTLINE
100
AcDbLine
 10
123.70200000000001
 20
13.233506385387644
 30
0.0
 11
125.933
 21
13.39251713899242
 31
0.0
  0
LINE
  5
1B5
330
17
100
AcDbEntity
  8
OUTLINE
100
AcDbLine
 10
125.933
 20
16.60748286100758
 30
0.0
 11
128.164
 21
16.44481492581061
 31
0.0
  0
LINE
  5
1B6
330
17
100
AcDbEntity
  8
OUTLINE
100
AcDbLine
 10
125.933
 20
13.39251713899242
 30
0.0
 11
128.164
 21
13.555185074189387
 31
0.0
  0
LINE
  5
1B7
330
17
100
AcDbEntity
  8
OUTLINE
100
AcDbLine
 10
128.164
 20
16.44481492581061
 30
0.0
 11
130.39499999999998
 21
16.278433239142817
 31
0.0
  0
LINE
  5
1B8
330
17
100
AcDbEntity
  8
OUTLINE
100
AcDbLine
 10
128.164
 20
13.555185074189387
 30
0.0
 11
130.39499999999998
 21
13.721566760857185
 31
0.0
  0
LINE
  5
1B9
330
17
100
AcDbEntity
  8
OUTLINE
100
AcDbLine
 10
130.39499999999998
 20
16.278433239142817
 30
0.0
 11
132.62599999999998
 21
16.108263387874263
 31
0.0
  0
LINE
  5
1BA
330
17
100
AcDbEntity
  8
OUTLINE
100
AcDbLine
 10
130.39499999999998
 20
13.721566760857185
 30
0.0
 11
132.62599999999998
 21
13.891736612125735
 31
0.0
  0
LINE
  5
1BB
330
17
100
AcDbEntity
  8
OUTLINE
100
AcDbLine
 10
132.62599999999998
 20
16.108263387874263
 30
0.0
 11
134.857
 21
15.934213339904245
 31
0.0
  0
LINE
  5
1BC
330
17
100
AcDbEntity
  8
OUTLINE
100
AcDbLine
 10
132.62599999999998
 20
13.891736612125735
 30
0.0
 11
134.857
 21
14.065786660095755
 31
0.0
  0
LINE
  5
1BD
330
17
100
AcDbEntity
  8
OUTLINE
100
AcDbLine
 10
134.857
 20
15.934213339904245
 30
0.0
 11
137.08800000000002
 21
15.756173647074739
 31
0.0
  0
LINE
  5
1BE
330
17
100
AcDbEntity
  8
OUTLINE
100
AcDbLine
 10
134.857
 20
14.065786660095755
 30
0.0
 11
137.08800000000002
 21
14.243826352925261
 31
0.0
  0
LINE
  5
1BF
330
17
100
AcDbEntity
  8
OUTLINE
100
AcDbLine
 10
137.08800000000002
 20
15.756173647074739
 30
0.0
 11
139.31900000000002
 21
15.574017629153524
 31
0.0
  0
LINE
  5
1C0
330
17
100
AcDbEntity
  8
OUTLINE
100
AcDbLine
 10
137.08800000000002
 20
14.243826352925261
 30
0.0
 11
139.31900000000002
 21
14.425982370846476
 31
0.0
  0
LINE
  5
1C1
330
17
100
AcDbEntity
  8
OUTLINE
100
AcDbLine
 10
139.31900000000002
 20
15.574017629153524
 30
0.0
 11
141.55
 21
15.387601541001573
 31
0.0
  0
LINE
  5
1C2
330
17
100
AcDbEntity
  8
OUTLINE
100
AcDbLine
 10
139.31900000000002
 20
14.425982370846476
 30
0.0
 11
141.55
 21
14.612398458998427
 31
0.0
  0
LINE
  5
1C3
330
17
100
AcDbEntity
  8
OUTLINE
100
AcDbLine
 10
30.0
 20
15.877819975448054
 30
0.0
 11
30.0
 21
14.122180024551946
 31
0.0
  0
LINE
  5
1C4
330
17
100
AcDbEntity
  8
OUTLINE
100
AcDbLine
 10
141.55
 20
14.612398458998427
 30
0.0
 11
141.55
 21
15.387601541001573
 31
0.0
  0
LINE
  5
1C5
330
17
100
AcDbEntity
  8
HIDDEN
100
AcDbLine
 10
34.462
 20
17.05024517216406
 30
0.0
 11
36.693
 21
17.43943493611739
 31
0.0
  0
LINE
  5
1C6
330
17
100
AcDbEntity
  8
HIDDEN
100
AcDbLine
 10
34.462
 20
12.949754827835939
 30
0.0
 11
36.693
 21
12.56056506388261
 31
0.0
  0
LINE
  5
1C7
330
17
100
AcDbEntity
  8
HIDDEN
100
AcDbLine
 10
36.693
 20
17.43943493611739
 30
0.0
 11
38.924
 21
17.74009953807248
 31
0.0
  0
LINE
  5
1C8
330
17
100
AcDbEntity
  8
HIDDEN
100
AcDbLine
 10
36.693
 20
12.56056506388261
 30
0.0
 11
38.924
 21
12.259900461927518
 31
0.0
  0
LINE
  5
1C9
330
17
100
AcDbEntity
  8
HIDDEN
100
AcDbLine
 10
38.924
 20
17.74009953807248
 30
0.0
 11
41.155
 21
17.981435256844048
 31
0.0
  0
LINE
  5
1CA
330
17
100
AcDbEntity
  8
HIDDEN
100
AcDbLine
 10
38.924
 20
12.259900461927518
 30
0.0
 11
41.155
 21
12.018564743155954
 31
0.0
  0
LINE
  5
1CB
330
17
100
AcDbEntity
  8
HIDDEN
100
AcDbLine
 10
41.155
 20
17.981435256844048
 30
0.0
 11
43.386
 21
18.178614015178926
 31
0.0
  0
LINE
  5
1CC
330
17
100
AcDbEntity
  8
HIDDEN
100
AcDbLine
 10
41.155
 20
12.018564743155954
 30
0.0
 11
43.386
 21
11.821385984821074
 31
0.0
  0
LINE
  5
1CD
330
17
100
AcDbEntity
  8
HIDDEN
100
AcDbLine
 10
43.386
 20
18.178614015178926
 30
0.0
 11
45.617000000000004
 21
18.34080624611177
 31
0.0
  0
LINE
  5
1CE
330
17
100
AcDbEntity
  8
HIDDEN
100
AcDbLine
 10
43.386
 20
11.821385984821074
 30
0.0
 11
45.617000000000004
 21
11.659193753888227
 31
0.0
  0
LINE
  5
1CF
330
17
100
AcDbEntity
  8
HIDDEN
100
AcDbLine
 10
45.617000000000004
 20
18.34080624611177
 30
0.0
 11
47.848
 21
18.47411574856992
 31
0.0
  0
LINE
  5
1D0
330
17
100
AcDbEntity
  8
HIDDEN
100
AcDbLine
 10
45.617000000000004
 20
11.659193753888227
 30
0.0
 11
47.848
 21
11.525884251430082
 31
0.0
  0
LINE
  5
1D1
330
17
100
AcDbEntity
  8
HIDDEN
100
AcDbLine
 10
47.848
 20
18.47411574856992
 30
0.0
 11
50.079
 21
18.582889367130285
 31
0.0
  0
LINE
  5
1D2
330
17
100
AcDbEntity
  8
HIDDEN
100
AcDbLine
 10
47.848
 20
11.525884251430082
 30
0.0
 11
50.079
 21
11.417110632869717
 31
0.0
  0
LINE
  5
1D3
330
17
100
AcDbEntity
  8
HIDDEN
100
AcDbLine
 10
50.079
 20
18.582889367130285
 30
0.0
 11
52.31
 21
18.670382310193226
 31
0.0
  0
LINE
  5
1D4
330
17
100
AcDbEntity
  8
HIDDEN
100
AcDbLine
 10
50.079
 20
11.417110632869717
 30
0.0
 11
52.31
 21
11.329617689806772
 31
0.0
  0
LINE
  5
1D5
330
17
100
AcDbEntity
  8
HIDDEN
100
AcDbLine
 10
52.31
 20
18.670382310193226
 30
0.0
 11
54.541
 21
18.739128804861114
 31
0.0
  0
LINE
  5
1D6
330
17
100
AcDbEntity
  8
HIDDEN
100
AcDbLine
 10
52.31
 20
11.329617689806772
 30
0.0
 11
54.541
 21
11.260871195138886
 31
0.0
  0
LINE
  5
1D7
330
17
100
AcDbEntity
  8
HIDDEN
100
AcDbLine
 10
54.541
 20
18.739128804861114
 30
0.0
 11
56.772000000000006
 21
18.791163443580512
 31
0.0
  0
LINE
  5
1D8
330
17
100
AcDbEntity
  8
HIDDEN
100
AcDbLine
 10
54.541
 20
11.260871195138886
 30
0.0
 11
56.772000000000006
 21
11.208836556419488
 31
0.0
  0
LINE
  5
1D9
330
17
100
AcDbEntity
  8
HIDDEN
100
AcDbLine
 10
56.772000000000006
 20
18.791163443580512
 30
0.0
 11
59.003
 21
18.828160749034144
 31
0.0
  0
LINE
  5
1DA
330
17
100
AcDbEntity
  8
HIDDEN
100
AcDbLine
 10
56.772000000000006
 20
11.208836556419488
 30
0.0
 11
59.003
 21
11.171839250965856
 31
0.0
  0
LINE
  5
1DB
330
17
100
AcDbEntity
  8
HIDDEN
100
AcDbLine
 10
59.003
 20
18.828160749034144
 30
0.0
 11
61.234
 21
18.851527110256637
 31
0.0
  0
LINE
  5
1DC
330
17
100
AcDbEntity
  8
HIDDEN
100
AcDbLine
 10
59.003
 20
11.171839250965856
 30
0.0
 11
61.234
 21
11.148472889743362
 31
0.0
  0
LINE
  5
1DD
330
17
100
AcDbEntity
  8
HIDDEN
100
AcDbLine
 10
61.234
 20
18.851527110256637
 30
0.0
 11
63.464999999999996
 21
18.86246356703612
 31
0.0
  0
LINE
  5
1DE
330
17
100
AcDbEntity
  8
HIDDEN
100
AcDbLine
 10
61.234
 20
11.148472889743362
 30
0.0
 11
63.464999999999996
 21
11.137536432963879
 31
0.0
  0
LINE
  5
1DF
330
17
100
AcDbEntity
  8
HIDDEN
100
AcDbLine
 10
63.464999999999996
 20
18.86246356703612
 30
0.0
 11
65.696
 21
18.862010002339694
 31
0.0
  0
LINE
  5
1E0
330
17
100
AcDbEntity
  8
HIDDEN
100
AcDbLine
 10
63.464999999999996
 20
11.137536432963879
 30
0.0
 11
65.696
 21
11.137989997660307
 31
0.0
  0
LINE
  5
1E1
330
17
100
AcDbEntity
  8
HIDDEN
100
AcDbLine
 10
65.696
 20
18.862010002339694
 30
0.0
 11
67.92699999999999
 21
18.851077059267237
 31
0.0
  0
LINE
  5
1E2
330
17
100
AcDbEntity
  8
HIDDEN
100
AcDbLine
 10
65.696
 20
11.137989997660307
 30
0.0
 11
67.92699999999999
 21
11.148922940732763
 31
0.0
  0
LINE
  5
1E3
330
17
100
AcDbEntity
  8
HIDDEN
100
AcDbLine
 10
67.92699999999999
 20
18.851077059267237
 30
0.0
 11
70.158
 21
18.83046970941556
 31
0.0
  0
LINE
  5
1E4
330
17
100
AcDbEntity
  8
HIDDEN
100
AcDbLine
 10
67.92699999999999
 20
11.148922940732763
 30
0.0
 11
70.158
 21
11.16953029058444
 31
0.0
  0
LINE
  5
1E5
330
17
100
AcDbEntity
  8
HIDDEN
100
AcDbLine
 10
70.158
 20
18.83046970941556
 30
0.0
 11
72.389
 21
18.800904996016737
 31
0.0
  0
LINE
  5
1E6
330
17
100
AcDbEntity
  8
HIDDEN
100
AcDbLine
 10
70.158
 20
11.16953029058444
 30
0.0
 11
72.389
 21
11.199095003983263
 31
0.0
  0
LINE
  5
1E7
330
17
100
AcDbEntity
  8
HIDDEN
100
AcDbLine
 10
72.389
 20
18.800904996016737
 30
0.0
 11
74.62
 21
18.76302562052269
 31
0.0
  0
LINE
  5
1E8
330
17
100
AcDbEntity
  8
HIDDEN
100
AcDbLine
 10
72.389
 20
11.199095003983263
 30
0.0
 11
74.62
 21
11.236974379477312
 31
0.0
  0
LINE
  5
1E9
330
17
100
AcDbEntity
  8
HIDDEN
100
AcDbLine
 10
74.62
 20
18.76302562052269
 30
0.0
 11
76.851
 21
18.71741050419959
 31
0.0
  0
LINE
  5
1EA
330
17
100
AcDbEntity
  8
HIDDEN
100
AcDbLine
 10
74.62
 20
11.236974379477312
 30
0.0
 11
76.851
 21
11.28258949580041
 31
0.0
  0
LINE
  5
1EB
330
17
100
AcDbEntity
  8
HIDDEN
100
AcDbLine
 10
76.851
 20
18.71741050419959
 30
0.0
 11
79.082
 21
18.6645831093083
 31
0.0
  0
LINE
  5
1EC
330
17
100
AcDbEntity
  8
HIDDEN
100
AcDbLine
 10
76.851
 20
11.28258949580041
 30
0.0
 11
79.082
 21
11.335416890691699
 31
0.0
  0
LINE
  5
1ED
330
17
100
AcDbEntity
  8
HIDDEN
100
AcDbLine
 10
79.082
 20
18.6645831093083
 30
0.0
 11
81.31299999999999
 21
18.605018074729266
 31
0.0
  0
LINE
  5
1EE
330
17
100
AcDbEntity
  8
HIDDEN
100
AcDbLine
 10
79.082
 20
11.335416890691699
 30
0.0
 11
81.31299999999999
 21
11.394981925270734
 31
0.0
  0
LINE
  5
1EF
330
17
100
AcDbEntity
  8
HIDDEN
100
AcDbLine
 10
81.31299999999999
 20
18.605018074729266
 30
0.0
 11
83.54400000000001
 21
18.539146565451798
 31
0.0
  0
LINE
  5
1F0
330
17
100
AcDbEntity
  8
HIDDEN
100
AcDbLine
 10
81.31299999999999
 20
11.394981925270734
 30
0.0
 11
83.54400000000001
 21
11.460853434548202
 31
0.0
  0
LINE
  5
1F1
330
17
100
AcDbEntity
  8
HIDDEN
100
AcDbLine
 10
83.54400000000001
 20
18.539146565451798
 30
0.0
 11
85.775
 21
18.467360628087246
 31
0.0
  0
LINE
  5
1F2
330
17
100
AcDbEntity
  8
HIDDEN
100
AcDbLine
 10
83.54400000000001
 20
11.460853434548202
 30
0.0
 11
85.775
 21
11.532639371912754
 31
0.0
  0
LINE
  5
1F3
330
17
100
AcDbEntity
  8
HIDDEN
100
AcDbLine
 10
85.775
 20
18.467360628087246
 30
0.0
 11
88.006
 21
18.39001676922777
 31
0.0
  0
LINE
  5
1F4
330
17
100
AcDbEntity
  8
HIDDEN
100
AcDbLine
 10
85.775
 20
11.532639371912754
 30
0.0
 11
88.006
 21
11.60998323077223
 31
0.0
  0
LINE
  5
1F5
330
17
100
AcDbEntity
  8
HIDDEN
100
AcDbLine
 10
88.006
 20
18.39001676922777
 30
0.0
 11
90.237
 21
18.307438919699198
 31
0.0
  0
LINE
  5
1F6
330
17
100
AcDbEntity
  8
HIDDEN
100
AcDbLine
 10
88.006
 20
11.60998323077223
 30
0.0
 11
90.237
 21
11.692561080300802
 31
0.0
  0
LINE
  5
1F7
330
17
100
AcDbEntity
  8
HIDDEN
100
AcDbLine
 10
90.237
 20
18.307438919699198
 30
0.0
 11
92.468
 21
18.21992090880777
 31
0.0
  0
LINE
  5
1F8
330
17
100
AcDbEntity
  8
HIDDEN
100
AcDbLine
 10
90.237
 20
11.692561080300802
 30
0.0
 11
92.468
 21
11.78007909119223
 31
0.0
  0
LINE
  5
1F9
330
17
100
AcDbEntity
  8
HIDDEN
100
AcDbLine
 10
92.468
 20
18.21992090880777
 30
0.0
 11
94.699
 21
18.127728544088505
 31
0.0
  0
LINE
  5
1FA
330
17
100
AcDbEntity
  8
HIDDEN
100
AcDbLine
 10
92.468
 20
11.78007909119223
 30
0.0
 11
94.699
 21
11.872271455911495
 31
0.0
  0
LINE
  5
1FB
330
17
100
AcDbEntity
  8
HIDDEN
100
AcDbLine
 10
94.699
 20
18.127728544088505
 30
0.0
 11
96.92999999999999
 21
18.03110137081255
 31
0.0
  0
LINE
  5
1FC
330
17
100
AcDbEntity
  8
HIDDEN
100
AcDbLine
 10
94.699
 20
11.872271455911495
 30
0.0
 11
96.92999999999999
 21
11.96889862918745
 31
0.0
  0
LINE
  5
1FD
330
17
100
AcDbEntity
  8
HIDDEN
100
AcDbLine
 10
96.92999999999999
 20
18.03110137081255
 30
0.0
 11
99.161
 21
17.93025416953635
 31
0.0
  0
LINE
  5
1FE
330
17
100
AcDbEntity
  8
HIDDEN
100
AcDbLine
 10
96.92999999999999
 20
11.96889862918745
 30
0.0
 11
99.161
 21
12.06974583046365
 31
0.0
  0
LINE
  5
1FF
330
17
100
AcDbEntity
  8
HIDDEN
100
AcDbLine
 10
99.161
 20
17.93025416953635
 30
0.0
 11
101.392
 21
17.825378237839526
 31
0.0
  0
LINE
  5
200
330
17
100
AcDbEntity
  8
HIDDEN
100
AcDbLine
 10
99.161
 20
12.06974583046365
 30
0.0
 11
101.392
 21
12.174621762160474
 31
0.0
  0
LINE
  5
201
330
17
100
AcDbEntity
  8
HIDDEN
100
AcDbLine
 10
101.392
 20
17.825378237839526
 30
0.0
 11
103.623
 21
17.71664249308811
 31
0.0
  0
LINE
  5
202
330
17
100
AcDbEntity
  8
HIDDEN
100
AcDbLine
 10
101.392
 20
12.174621762160474
 30
0.0
 11
103.623
 21
12.28335750691189
 31
0.0
  0
LINE
  5
203
330
17
100
AcDbEntity
  8
HIDDEN
100
AcDbLine
 10
103.623
 20
17.71664249308811
 30
0.0
 11
105.854
 21
17.604194425851727
 31
0.0
  0
LINE
  5
204
330
17
100
AcDbEntity
  8
HIDDEN
100
AcDbLine
 10
103.623
 20
12.28335750691189
 30
0.0
 11
105.854
 21
12.395805574148273
 31
0.0
  0
LINE
  5
205
330
17
100
AcDbEntity
  8
HIDDEN
100
AcDbLine
 10
105.854
 20
17.604194425851727
 30
0.0
 11
108.085
 21
17.4881609279755
 31
0.0
  0
LINE
  5
206
330
17
100
AcDbEntity
  8
HIDDEN
100
AcDbLine
 10
105.854
 20
12.395805574148273
 30
0.0
 11
108.085
 21
12.511839072024499
 31
0.0
  0
LINE
  5
207
330
17
100
AcDbEntity
  8
HIDDEN
100
AcDbLine
 10
108.085
 20
17.4881609279755
 30
0.0
 11
110.316
 21
17.368649014877985
 31
0.0
  0
LINE
  5
208
330
17
100
AcDbEntity
  8
HIDDEN
100
AcDbLine
 10
108.085
 20
12.511839072024499
 30
0.0
 11
110.316
 21
12.631350985122015
 31
0.0
  0
LINE
  5
209
330
17
100
AcDbEntity
  8
HIDDEN
100
AcDbLine
 10
110.316
 20
17.368649014877985
 30
0.0
 11
112.547
 21
17.24574645813437
 31
0.0
  0
LINE
  5
20A
330
17
100
AcDbEntity
  8
HIDDEN
100
AcDbLine
 10
110.316
 20
12.631350985122015
 30
0.0
 11
112.547
 21
12.75425354186563
 31
0.0
  0
LINE
  5
20B
330
17
100
AcDbEntity
  8
HIDDEN
100
AcDbLine
 10
112.547
 20
17.24574645813437
 30
0.0
 11
114.77799999999999
 21
17.11952234159985
 31
0.0
  0
LINE
  5
20C
330
17
100
AcDbEntity
  8
HIDDEN
100
AcDbLine
 10
112.547
 20
12.75425354186563
 30
0.0
 11
114.77799999999999
 21
12.880477658400148
 31
0.0
  0
LINE
  5
20D
330
17
100
AcDbEntity
  8
HIDDEN
100
AcDbLine
 10
114.77799999999999
 20
17.11952234159985
 30
0.0
 11
117.00899999999999
 21
16.990027552073972
 31
0.0
  0
LINE
  5
20E
330
17
100
AcDbEntity
  8
HIDDEN
100
AcDbLine
 10
114.77799999999999
 20
12.880477658400148
 30
0.0
 11
117.00899999999999
 21
13.009972447926028
 31
0.0
  0
LINE
  5
20F
330
17
100
AcDbEntity
  8
HIDDEN
100
AcDbLine
 10
117.00899999999999
 20
16.990027552073972
 30
0.0
 11
119.24
 21
16.85729521368376
 31
0.0
  0
LINE
  5
210
330
17
100
AcDbEntity
  8
HIDDEN
100
AcDbLine
 10
117.00899999999999
 20
13.009972447926028
 30
0.0
 11
119.24
 21
13.14270478631624
 31
0.0
  0
LINE
  5
211
330
17
100
AcDbEntity
  8
HIDDEN
100
AcDbLine
 10
119.24
 20
16.85729521368376
 30
0.0
 11
121.47099999999999
 21
16.721341073680414
 31
0.0
  0
LINE
  5
212
330
17
100
AcDbEntity
  8
HIDDEN
100
AcDbLine
 10
119.24
 20
13.14270478631624
 30
0.0
 11
121.47099999999999
 21
13.278658926319586
 31
0.0
  0
LINE
  5
213
330
17
100
AcDbEntity
  8
HIDDEN
100
AcDbLine
 10
121.47099999999999
 20
16.721341073680414
 30
0.0
 11
123.70200000000001
 21
16.582163846131067
 31
0.0
  0
LINE
  5
214
330
17
100
AcDbEntity
  8
HIDDEN
100
AcDbLine
 10
121.47099999999999
 20
13.278658926319586
 30
0.0
 11
123.70200000000001
 21
13.417836153868933
 31
0.0
  0
LINE
  5
215
330
17
100
AcDbEntity
  8
HIDDEN
100
AcDbLine
 10
123.70200000000001
 20
16.582163846131067
 30
0.0
 11
125.933
 21
16.439745518989398
 31
0.0
  0
LINE
  5
216
330
17
100
AcDbEntity
  8
HIDDEN
100
AcDbLine
 10
123.70200000000001
 20
13.417836153868933
 30
0.0
 11
125.933
 21
13.560254481010602
 31
0.0
  0
LINE
  5
217
330
17
100
AcDbEntity
  8
HIDDEN
100
AcDbLine
 10
125.933
 20
16.439745518989398
 30
0.0
 11
128.164
 21
16.294051629204287
 31
0.0
  0
LINE
  5
218
330
17
100
AcDbEntity
  8
HIDDEN
100
AcDbLine
 10
125.933
 20
13.560254481010602
 30
0.0
 11
128.164
 21
13.705948370795712
 31
0.0
  0
LINE
  5
219
330
17
100
AcDbEntity
  8
HIDDEN
100
AcDbLine
 10
128.164
 20
16.294051629204287
 30
0.0
 11
130.39499999999998
 21
16.14503150984096
 31
0.0
  0
LINE
  5
21A
330
17
100
AcDbEntity
  8
HIDDEN
100
AcDbLine
 10
128.164
 20
13.705948370795712
 30
0.0
 11
130.39499999999998
 21
13.854968490159044
 31
0.0
  0
LINE
  5
21B
330
17
100
AcDbEntity
  8
HIDDEN
100
AcDbLine
 10
130.39499999999998
 20
16.14503150984096
 30
0.0
 11
132.62599999999998
 21
15.992618512617819
 31
0.0
  0
LINE
  5
21C
330
17
100
AcDbEntity
  8
HIDDEN
100
AcDbLine
 10
130.39499999999998
 20
13.854968490159044
 30
0.0
 11
132.62599999999998
 21
14.007381487382181
 31
0.0
  0
LINE
  5
21D
330
17
100
AcDbEntity
  8
HIDDEN
100
AcDbLine
 10
132.62599999999998
 20
15.992618512617819
 30
0.0
 11
134.857
 21
15.836730208783802
 31
0.0
  0
LINE
  5
21E
330
17
100
AcDbEntity
  8
HIDDEN
100
AcDbLine
 10
132.62599999999998
 20
14.007381487382181
 30
0.0
 11
134.857
 21
14.163269791216198
 31
0.0
  0
LINE
  5
21F
330
17
100
AcDbEntity
  8
HIDDEN
100
AcDbLine
 10
134.857
 20
15.836730208783802
 30
0.0
 11
137.08800000000002
 21
15.677268570858244
 31
0.0
  0
LINE
  5
220
330
17
100
AcDbEntity
  8
HIDDEN
100
AcDbLine
 10
134.857
 20
14.163269791216198
 30
0.0
 11
137.08800000000002
 21
14.322731429141756
 31
0.0
  0
LINE
  5
221
330
17
100
AcDbEntity
  8
HIDDEN
100
AcDbLine
 10
137.08800000000002
 20
15.677268570858244
 30
0.0
 11
139.31900000000002
 21
15.514120137415764
 31
0.0
  0
LINE
  5
222
330
17
100
AcDbEntity
  8
HIDDEN
100
AcDbLine
 10
137.08800000000002
 20
14.322731429141756
 30
0.0
 11
139.31900000000002
 21
14.485879862584236
 31
0.0
  0
CIRCLE
  5
223
330
17
100
AcDbEntity
  8
SPAR
100
AcDbCircle
 10
58.75
 20
15.0
 30
0.0
 40
1.5
  0
CIRCLE
  5
224
330
17
100
AcDbEntity
  8
SPAR
100
AcDbCircle
 10
58.75
 20
15.0
 30
0.0
 40
2.0
  0
CIRCLE
  5
225
330
17
100
AcDbEntity
  8
STRUCTURE
100
AcDbCircle
 10
104.75
 20
15.0
 30
0.0
 40
1.0
  0
CIRCLE
  5
226
330
17
100
AcDbEntity
  8
STRUCTURE
100
AcDbCircle
 10
104.75
 20
15.0
 30
0.0
 40
1.4
  0
LINE
  5
227
330
17
100
AcDbEntity
  8
RIB
100
AcDbLine
 10
47.25
 20
11.559053108095682
 30
0.0
 11
47.25
 21
18.440946891904318
 31
0.0
  0
LINE
  5
228
330
17
100
AcDbEntity
  8
RIB
100
AcDbLine
 10
76.0
 20
11.264311766826664
 30
0.0
 11
76.0
 21
18.735688233173338
 31
0.0
  0
LINE
  5
229
330
17
100
AcDbEntity
  8
RIB
100
AcDbLine
 10
93.25
 20
11.811874685884638
 30
0.0
 11
93.25
 21
18.18812531411536
 31
0.0
  0
LINE
  5
22A
330
17
100
AcDbEntity
  8
RIB
100
AcDbLine
 10
122.0
 20
13.311367800070828
 30
0.0
 11
122.0
 21
16.688632199929174
 31
0.0
  0
DIMENSION
  5
22B
330
17
100
AcDbEntity
  8
0
100
AcDbDimension
280
0
  2
*D4
  3
COMP
 10
54.5
 20
10.686258977933385
 30
0.0
 11
52.1
 21
15.0
 31
0.0
 70
32
 71
5
  1
<>
100
AcDbAlignedDimension
 13
64.5
 23
10.686258977933385
 33
0.0
 14
64.5
 24
19.313741022066615
 34
0.0
 50
90.0
100
AcDbRotatedDimension
1001
ACAD
1000
DSTYLE
1002
{
1070
140
1040
2.0
1002
}
  0
DIMENSION
  5
23A
330
17
100
AcDbEntity
  8
0
100
AcDbDimension
280
0
  2
*D5
  3
COMP
 10
30.0
 20
5.0
 30
0.0
 11
85.775
 21
5.0
 31
0.0
 70
32
 71
5
  1
<>
100
AcDbAlignedDimension
 13
30.0
 23
15.0
 33
0.0
 14
141.55
 24
15.0
 34
0.0
 50
0.0
100
AcDbRotatedDimension
  0
TEXT
  5
24A
330
17
100
AcDbEntity
  8
HIDDEN
100
AcDbText
 10
78.3
 20
18.01961871544663
 30
0.0
 40
1.5
  1
0.45mm wall(vase mode)
 11
78.3
 21
18.01961871544663
 31
0.0
100
AcDbText
  0
TEXT
  5
24B
330
17
100
AcDbEntity
  8
TEXT
100
AcDbText
 10
30.0
 20
-5.0
 30
0.0
 40
3.5
  1
ROOT SECTION — HT-14 (7.5%)
 11
30.0
 21
-5.0
 31
0.0
100
AcDbText
  0
TEXT
  5
24C
330
17
100
AcDbEntity
  8
SPAR
100
AcDbText
 10
62.75
 20
17.0
 30
0.0
 40
1.5
  1
Pivot: 3.0mm CF+ 0.5mm tube
 11
62.75
 21
17.0
 31
0.0
100
AcDbText
  0
TEXT
  5
24D
330
17
100
AcDbEntity
  8
STRUCTURE
100
AcDbText
 10
107.75
 20
17.0
 30
0.0
 40
1.5
  1
Rear: 2.0mm CF
 11
107.75
 21
17.0
 31
0.0
100
AcDbText
  0
LINE
  5
24E
330
17
100
AcDbEntity
  8
OUTLINE
100
AcDbLine
 10
176.55
 20
15.0
 30
0.0
 11
178.00500000000002
 21
15.945231251866094
 31
0.0
  0
LINE
  5
24F
330
17
100
AcDbEntity
  8
OUTLINE
100
AcDbLine
 10
176.55
 20
15.0
 30
0.0
 11
178.00500000000002
 21
14.054768748133906
 31
0.0
  0
LINE
  5
250
330
17
100
AcDbEntity
  8
OUTLINE
100
AcDbLine
 10
178.00500000000002
 20
15.945231251866094
 30
0.0
 11
179.46
 21
16.293844040686057
 31
0.0
  0
LINE
  5
251
330
17
100
AcDbEntity
  8
OUTLINE
100
AcDbLine
 10
178.00500000000002
 20
14.054768748133906
 30
0.0
 11
179.46
 21
13.706155959313941
 31
0.0
  0
LINE
  5
252
330
17
100
AcDbEntity
  8
OUTLINE
100
AcDbLine
 10
179.46
 20
16.293844040686057
 30
0.0
 11
180.91500000000002
 21
16.53944923153039
 31
0.0
  0
LINE
  5
253
330
17
100
AcDbEntity
  8
OUTLINE
100
AcDbLine
 10
179.46
 20
13.706155959313941
 30
0.0
 11
180.91500000000002
 21
13.460550768469608
 31
0.0
  0
LINE
  5
254
330
17
100
AcDbEntity
  8
OUTLINE
100
AcDbLine
 10
180.91500000000002
 20
16.53944923153039
 30
0.0
 11
182.37
 21
16.729189028880693
 31
0.0
  0
LINE
  5
255
330
17
100
AcDbEntity
  8
OUTLINE
100
AcDbLine
 10
180.91500000000002
 20
13.460550768469608
 30
0.0
 11
182.37
 21
13.270810971119307
 31
0.0
  0
LINE
  5
256
330
17
100
AcDbEntity
  8
OUTLINE
100
AcDbLine
 10
182.37
 20
16.729189028880693
 30
0.0
 11
183.82500000000002
 21
16.881488268882165
 31
0.0
  0
LINE
  5
257
330
17
100
AcDbEntity
  8
OUTLINE
100
AcDbLine
 10
182.37
 20
13.270810971119307
 30
0.0
 11
183.82500000000002
 21
13.118511731117835
 31
0.0
  0
LINE
  5
258
330
17
100
AcDbEntity
  8
OUTLINE
100
AcDbLine
 10
183.82500000000002
 20
16.881488268882165
 30
0.0
 11
185.28
 21
17.005921465889614
 31
0.0
  0
LINE
  5
259
330
17
100
AcDbEntity
  8
OUTLINE
100
AcDbLine
 10
183.82500000000002
 20
13.118511731117835
 30
0.0
 11
185.28
 21
12.994078534110386
 31
0.0
  0
LINE
  5
25A
330
17
100
AcDbEntity
  8
OUTLINE
100
AcDbLine
 10
185.28
 20
17.005921465889614
 30
0.0
 11
186.735
 21
17.108275786381217
 31
0.0
  0
LINE
  5
25B
330
17
100
AcDbEntity
  8
OUTLINE
100
AcDbLine
 10
185.28
 20
12.994078534110386
 30
0.0
 11
186.735
 21
12.891724213618785
 31
0.0
  0
LINE
  5
25C
330
17
100
AcDbEntity
  8
OUTLINE
100
AcDbLine
 10
186.735
 20
17.108275786381217
 30
0.0
 11
188.19
 21
17.192403142301405
 31
0.0
  0
LINE
  5
25D
330
17
100
AcDbEntity
  8
OUTLINE
100
AcDbLine
 10
186.735
 20
12.891724213618785
 30
0.0
 11
188.19
 21
12.807596857698595
 31
0.0
  0
LINE
  5
25E
330
17
100
AcDbEntity
  8
OUTLINE
100
AcDbLine
 10
188.19
 20
17.192403142301405
 30
0.0
 11
189.645
 21
17.26104668799484
 31
0.0
  0
LINE
  5
25F
330
17
100
AcDbEntity
  8
OUTLINE
100
AcDbLine
 10
188.19
 20
12.807596857698595
 30
0.0
 11
189.645
 21
12.73895331200516
 31
0.0
  0
LINE
  5
260
330
17
100
AcDbEntity
  8
OUTLINE
100
AcDbLine
 10
189.645
 20
17.26104668799484
 30
0.0
 11
191.10000000000002
 21
17.316260681189902
 31
0.0
  0
LINE
  5
261
330
17
100
AcDbEntity
  8
OUTLINE
100
AcDbLine
 10
189.645
 20
12.73895331200516
 30
0.0
 11
191.10000000000002
 21
12.6837393188101
 31
0.0
  0
LINE
  5
262
330
17
100
AcDbEntity
  8
OUTLINE
100
AcDbLine
 10
191.10000000000002
 20
17.316260681189902
 30
0.0
 11
192.555
 21
17.35964439141721
 31
0.0
  0
LINE
  5
263
330
17
100
AcDbEntity
  8
OUTLINE
100
AcDbLine
 10
191.10000000000002
 20
12.6837393188101
 30
0.0
 11
192.555
 21
12.64035560858279
 31
0.0
  0
LINE
  5
264
330
17
100
AcDbEntity
  8
OUTLINE
100
AcDbLine
 10
192.555
 20
17.35964439141721
 30
0.0
 11
194.01000000000002
 21
17.39248178478382
 31
0.0
  0
LINE
  5
265
330
17
100
AcDbEntity
  8
OUTLINE
100
AcDbLine
 10
192.555
 20
12.64035560858279
 30
0.0
 11
194.01000000000002
 21
12.607518215216182
 31
0.0
  0
LINE
  5
266
330
17
100
AcDbEntity
  8
OUTLINE
100
AcDbLine
 10
194.01000000000002
 20
17.39248178478382
 30
0.0
 11
195.465
 21
17.41582959890504
 31
0.0
  0
LINE
  5
267
330
17
100
AcDbEntity
  8
OUTLINE
100
AcDbLine
 10
194.01000000000002
 20
12.607518215216182
 30
0.0
 11
195.465
 21
12.584170401094958
 31
0.0
  0
LINE
  5
268
330
17
100
AcDbEntity
  8
OUTLINE
100
AcDbLine
 10
195.465
 20
17.41582959890504
 30
0.0
 11
196.92000000000002
 21
17.43057536084157
 31
0.0
  0
LINE
  5
269
330
17
100
AcDbEntity
  8
OUTLINE
100
AcDbLine
 10
195.465
 20
12.584170401094958
 30
0.0
 11
196.92000000000002
 21
12.56942463915843
 31
0.0
  0
LINE
  5
26A
330
17
100
AcDbEntity
  8
OUTLINE
100
AcDbLine
 10
196.92000000000002
 20
17.43057536084157
 30
0.0
 11
198.375
 21
17.437477008323768
 31
0.0
  0
LINE
  5
26B
330
17
100
AcDbEntity
  8
OUTLINE
100
AcDbLine
 10
196.92000000000002
 20
12.56942463915843
 30
0.0
 11
198.375
 21
12.562522991676234
 31
0.0
  0
LINE
  5
26C
330
17
100
AcDbEntity
  8
OUTLINE
100
AcDbLine
 10
198.375
 20
17.437477008323768
 30
0.0
 11
199.83
 21
17.437190778175534
 31
0.0
  0
LINE
  5
26D
330
17
100
AcDbEntity
  8
OUTLINE
100
AcDbLine
 10
198.375
 20
12.562522991676234
 30
0.0
 11
199.83
 21
12.562809221824466
 31
0.0
  0
LINE
  5
26E
330
17
100
AcDbEntity
  8
OUTLINE
100
AcDbLine
 10
199.83
 20
17.437190778175534
 30
0.0
 11
201.28500000000003
 21
17.430291348081266
 31
0.0
  0
LINE
  5
26F
330
17
100
AcDbEntity
  8
OUTLINE
100
AcDbLine
 10
199.83
 20
12.562809221824466
 30
0.0
 11
201.28500000000003
 21
12.569708651918734
 31
0.0
  0
LINE
  5
270
330
17
100
AcDbEntity
  8
OUTLINE
100
AcDbLine
 10
201.28500000000003
 20
17.430291348081266
 30
0.0
 11
202.74
 21
17.417286709825355
 31
0.0
  0
LINE
  5
271
330
17
100
AcDbEntity
  8
OUTLINE
100
AcDbLine
 10
201.28500000000003
 20
12.569708651918734
 30
0.0
 11
202.74
 21
12.582713290174647
 31
0.0
  0
LINE
  5
272
330
17
100
AcDbEntity
  8
OUTLINE
100
AcDbLine
 10
202.74
 20
17.417286709825355
 30
0.0
 11
204.19500000000002
 21
17.39862936641833
 31
0.0
  0
LINE
  5
273
330
17
100
AcDbEntity
  8
OUTLINE
100
AcDbLine
 10
202.74
 20
12.582713290174647
 30
0.0
 11
204.19500000000002
 21
12.601370633581672
 31
0.0
  0
LINE
  5
274
330
17
100
AcDbEntity
  8
OUTLINE
100
AcDbLine
 10
204.19500000000002
 20
17.39862936641833
 30
0.0
 11
205.65
 21
17.374724906155095
 31
0.0
  0
LINE
  5
275
330
17
100
AcDbEntity
  8
OUTLINE
100
AcDbLine
 10
204.19500000000002
 20
12.601370633581672
 30
0.0
 11
205.65
 21
12.625275093844905
 31
0.0
  0
LINE
  5
276
330
17
100
AcDbEntity
  8
OUTLINE
100
AcDbLine
 10
205.65
 20
17.374724906155095
 30
0.0
 11
207.10500000000002
 21
17.34593866769877
 31
0.0
  0
LINE
  5
277
330
17
100
AcDbEntity
  8
OUTLINE
100
AcDbLine
 10
205.65
 20
12.625275093844905
 30
0.0
 11
207.10500000000002
 21
12.654061332301229
 31
0.0
  0
LINE
  5
278
330
17
100
AcDbEntity
  8
OUTLINE
100
AcDbLine
 10
207.10500000000002
 20
17.34593866769877
 30
0.0
 11
208.56
 21
17.312600991311065
 31
0.0
  0
LINE
  5
279
330
17
100
AcDbEntity
  8
OUTLINE
100
AcDbLine
 10
207.10500000000002
 20
12.654061332301229
 30
0.0
 11
208.56
 21
12.687399008688937
 31
0.0
  0
LINE
  5
27A
330
17
100
AcDbEntity
  8
OUTLINE
100
AcDbLine
 10
208.56
 20
17.312600991311065
 30
0.0
 11
210.01500000000001
 21
17.275011406382546
 31
0.0
  0
LINE
  5
27B
330
17
100
AcDbEntity
  8
OUTLINE
100
AcDbLine
 10
208.56
 20
12.687399008688937
 30
0.0
 11
210.01500000000001
 21
12.724988593617454
 31
0.0
  0
LINE
  5
27C
330
17
100
AcDbEntity
  8
OUTLINE
100
AcDbLine
 10
210.01500000000001
 20
17.275011406382546
 30
0.0
 11
211.47000000000003
 21
17.23344200732395
 31
0.0
  0
LINE
  5
27D
330
17
100
AcDbEntity
  8
OUTLINE
100
AcDbLine
 10
210.01500000000001
 20
12.724988593617454
 30
0.0
 11
211.47000000000003
 21
12.76655799267605
 31
0.0
  0
LINE
  5
27E
330
17
100
AcDbEntity
  8
OUTLINE
100
AcDbLine
 10
211.47000000000003
 20
17.23344200732395
 30
0.0
 11
212.925
 21
17.18814020219098
 31
0.0
  0
LINE
  5
27F
330
17
100
AcDbEntity
  8
OUTLINE
100
AcDbLine
 10
211.47000000000003
 20
12.76655799267605
 30
0.0
 11
212.925
 21
12.81185979780902
 31
0.0
  0
LINE
  5
280
330
17
100
AcDbEntity
  8
OUTLINE
100
AcDbLine
 10
212.925
 20
17.18814020219098
 30
0.0
 11
214.38
 21
17.139330970871892
 31
0.0
  0
LINE
  5
281
330
17
100
AcDbEntity
  8
OUTLINE
100
AcDbLine
 10
212.925
 20
12.81185979780902
 30
0.0
 11
214.38
 21
12.860669029128108
 31
0.0
  0
LINE
  5
282
330
17
100
AcDbEntity
  8
OUTLINE
100
AcDbLine
 10
214.38
 20
17.139330970871892
 30
0.0
 11
215.835
 21
17.087218735732502
 31
0.0
  0
LINE
  5
283
330
17
100
AcDbEntity
  8
OUTLINE
100
AcDbLine
 10
214.38
 20
12.860669029128108
 30
0.0
 11
215.835
 21
12.912781264267496
 31
0.0
  0
LINE
  5
284
330
17
100
AcDbEntity
  8
OUTLINE
100
AcDbLine
 10
215.835
 20
17.087218735732502
 30
0.0
 11
217.29000000000002
 21
17.03198892303403
 31
0.0
  0
LINE
  5
285
330
17
100
AcDbEntity
  8
OUTLINE
100
AcDbLine
 10
215.835
 20
12.912781264267496
 30
0.0
 11
217.29000000000002
 21
12.96801107696597
 31
0.0
  0
LINE
  5
286
330
17
100
AcDbEntity
  8
OUTLINE
100
AcDbLine
 10
217.29000000000002
 20
17.03198892303403
 30
0.0
 11
218.745
 21
16.97380927539566
 31
0.0
  0
LINE
  5
287
330
17
100
AcDbEntity
  8
OUTLINE
100
AcDbLine
 10
217.29000000000002
 20
12.96801107696597
 30
0.0
 11
218.745
 21
13.02619072460434
 31
0.0
  0
LINE
  5
288
330
17
100
AcDbEntity
  8
OUTLINE
100
AcDbLine
 10
218.745
 20
16.97380927539566
 30
0.0
 11
220.20000000000002
 21
16.91283096216326
 31
0.0
  0
LINE
  5
289
330
17
100
AcDbEntity
  8
OUTLINE
100
AcDbLine
 10
218.745
 20
13.02619072460434
 30
0.0
 11
220.20000000000002
 21
13.08716903783674
 31
0.0
  0
LINE
  5
28A
330
17
100
AcDbEntity
  8
OUTLINE
100
AcDbLine
 10
220.20000000000002
 20
16.91283096216326
 30
0.0
 11
221.65500000000003
 21
16.849189524464688
 31
0.0
  0
LINE
  5
28B
330
17
100
AcDbEntity
  8
OUTLINE
100
AcDbLine
 10
220.20000000000002
 20
13.08716903783674
 30
0.0
 11
221.65500000000003
 21
13.150810475535312
 31
0.0
  0
LINE
  5
28C
330
17
100
AcDbEntity
  8
OUTLINE
100
AcDbLine
 10
221.65500000000003
 20
16.849189524464688
 30
0.0
 11
223.11
 21
16.783005684073487
 31
0.0
  0
LINE
  5
28D
330
17
100
AcDbEntity
  8
OUTLINE
100
AcDbLine
 10
221.65500000000003
 20
13.150810475535312
 30
0.0
 11
223.11
 21
13.216994315926511
 31
0.0
  0
LINE
  5
28E
330
17
100
AcDbEntity
  8
OUTLINE
100
AcDbLine
 10
223.11
 20
16.783005684073487
 30
0.0
 11
224.565
 21
16.714386039327447
 31
0.0
  0
LINE
  5
28F
330
17
100
AcDbEntity
  8
OUTLINE
100
AcDbLine
 10
223.11
 20
13.216994315926511
 30
0.0
 11
224.565
 21
13.285613960672551
 31
0.0
  0
LINE
  5
290
330
17
100
AcDbEntity
  8
OUTLINE
100
AcDbLine
 10
224.565
 20
16.714386039327447
 30
0.0
 11
226.02
 21
16.643423666799634
 31
0.0
  0
LINE
  5
291
330
17
100
AcDbEntity
  8
OUTLINE
100
AcDbLine
 10
224.565
 20
13.285613960672551
 30
0.0
 11
226.02
 21
13.356576333200366
 31
0.0
  0
LINE
  5
292
330
17
100
AcDbEntity
  8
OUTLINE
100
AcDbLine
 10
226.02
 20
16.643423666799634
 30
0.0
 11
227.47500000000002
 21
16.570198643868036
 31
0.0
  0
LINE
  5
293
330
17
100
AcDbEntity
  8
OUTLINE
100
AcDbLine
 10
226.02
 20
13.356576333200366
 30
0.0
 11
227.47500000000002
 21
13.429801356131964
 31
0.0
  0
LINE
  5
294
330
17
100
AcDbEntity
  8
OUTLINE
100
AcDbLine
 10
227.47500000000002
 20
16.570198643868036
 30
0.0
 11
228.93
 21
16.49477850453465
 31
0.0
  0
LINE
  5
295
330
17
100
AcDbEntity
  8
OUTLINE
100
AcDbLine
 10
227.47500000000002
 20
13.429801356131964
 30
0.0
 11
228.93
 21
13.50522149546535
 31
0.0
  0
LINE
  5
296
330
17
100
AcDbEntity
  8
OUTLINE
100
AcDbLine
 10
228.93
 20
16.49477850453465
 30
0.0
 11
230.38500000000002
 21
16.417218638628487
 31
0.0
  0
LINE
  5
297
330
17
100
AcDbEntity
  8
OUTLINE
100
AcDbLine
 10
228.93
 20
13.50522149546535
 30
0.0
 11
230.38500000000002
 21
13.582781361371513
 31
0.0
  0
LINE
  5
298
330
17
100
AcDbEntity
  8
OUTLINE
100
AcDbLine
 10
230.38500000000002
 20
16.417218638628487
 30
0.0
 11
231.84
 21
16.337562642757188
 31
0.0
  0
LINE
  5
299
330
17
100
AcDbEntity
  8
OUTLINE
100
AcDbLine
 10
230.38500000000002
 20
13.582781361371513
 30
0.0
 11
231.84
 21
13.662437357242812
 31
0.0
  0
LINE
  5
29A
330
17
100
AcDbEntity
  8
OUTLINE
100
AcDbLine
 10
231.84
 20
16.337562642757188
 30
0.0
 11
233.29500000000002
 21
16.255842629949594
 31
0.0
  0
LINE
  5
29B
330
17
100
AcDbEntity
  8
OUTLINE
100
AcDbLine
 10
231.84
 20
13.662437357242812
 30
0.0
 11
233.29500000000002
 21
13.744157370050406
 31
0.0
  0
LINE
  5
29C
330
17
100
AcDbEntity
  8
OUTLINE
100
AcDbLine
 10
233.29500000000002
 20
16.255842629949594
 30
0.0
 11
234.75
 21
16.172079503781013
 31
0.0
  0
LINE
  5
29D
330
17
100
AcDbEntity
  8
OUTLINE
100
AcDbLine
 10
233.29500000000002
 20
13.744157370050406
 30
0.0
 11
234.75
 21
13.827920496218987
 31
0.0
  0
LINE
  5
29E
330
17
100
AcDbEntity
  8
OUTLINE
100
AcDbLine
 10
234.75
 20
16.172079503781013
 30
0.0
 11
236.205
 21
16.086283201837155
 31
0.0
  0
LINE
  5
29F
330
17
100
AcDbEntity
  8
OUTLINE
100
AcDbLine
 10
234.75
 20
13.827920496218987
 30
0.0
 11
236.205
 21
13.913716798162847
 31
0.0
  0
LINE
  5
2A0
330
17
100
AcDbEntity
  8
OUTLINE
100
AcDbLine
 10
236.205
 20
16.086283201837155
 30
0.0
 11
237.66000000000003
 21
15.998452912606984
 31
0.0
  0
LINE
  5
2A1
330
17
100
AcDbEntity
  8
OUTLINE
100
AcDbLine
 10
236.205
 20
13.913716798162847
 30
0.0
 11
237.66000000000003
 21
14.001547087393016
 31
0.0
  0
LINE
  5
2A2
330
17
100
AcDbEntity
  8
OUTLINE
100
AcDbLine
 10
237.66000000000003
 20
15.998452912606984
 30
0.0
 11
239.115
 21
15.908577269265153
 31
0.0
  0
LINE
  5
2A3
330
17
100
AcDbEntity
  8
OUTLINE
100
AcDbLine
 10
237.66000000000003
 20
14.001547087393016
 30
0.0
 11
239.115
 21
14.091422730734847
 31
0.0
  0
LINE
  5
2A4
330
17
100
AcDbEntity
  8
OUTLINE
100
AcDbLine
 10
239.115
 20
15.908577269265153
 30
0.0
 11
240.57
 21
15.81663452328426
 31
0.0
  0
LINE
  5
2A5
330
17
100
AcDbEntity
  8
OUTLINE
100
AcDbLine
 10
239.115
 20
14.091422730734847
 30
0.0
 11
240.57
 21
14.18336547671574
 31
0.0
  0
LINE
  5
2A6
330
17
100
AcDbEntity
  8
OUTLINE
100
AcDbLine
 10
240.57
 20
15.81663452328426
 30
0.0
 11
242.025
 21
15.72259270038507
 31
0.0
  0
LINE
  5
2A7
330
17
100
AcDbEntity
  8
OUTLINE
100
AcDbLine
 10
240.57
 20
14.18336547671574
 30
0.0
 11
242.025
 21
14.27740729961493
 31
0.0
  0
LINE
  5
2A8
330
17
100
AcDbEntity
  8
OUTLINE
100
AcDbLine
 10
242.025
 20
15.72259270038507
 30
0.0
 11
243.48000000000002
 21
15.62640974097241
 31
0.0
  0
LINE
  5
2A9
330
17
100
AcDbEntity
  8
OUTLINE
100
AcDbLine
 10
242.025
 20
14.27740729961493
 30
0.0
 11
243.48000000000002
 21
14.37359025902759
 31
0.0
  0
LINE
  5
2AA
330
17
100
AcDbEntity
  8
OUTLINE
100
AcDbLine
 10
243.48000000000002
 20
15.62640974097241
 30
0.0
 11
244.935
 21
15.528033626902399
 31
0.0
  0
LINE
  5
2AB
330
17
100
AcDbEntity
  8
OUTLINE
100
AcDbLine
 10
243.48000000000002
 20
14.37359025902759
 30
0.0
 11
244.935
 21
14.471966373097601
 31
0.0
  0
LINE
  5
2AC
330
17
100
AcDbEntity
  8
OUTLINE
100
AcDbLine
 10
244.935
 20
15.528033626902399
 30
0.0
 11
246.39000000000001
 21
15.427402496172679
 31
0.0
  0
LINE
  5
2AD
330
17
100
AcDbEntity
  8
OUTLINE
100
AcDbLine
 10
244.935
 20
14.471966373097601
 30
0.0
 11
246.39000000000001
 21
14.572597503827321
 31
0.0
  0
LINE
  5
2AE
330
17
100
AcDbEntity
  8
OUTLINE
100
AcDbLine
 10
246.39000000000001
 20
15.427402496172679
 30
0.0
 11
247.84500000000003
 21
15.32444474691286
 31
0.0
  0
LINE
  5
2AF
330
17
100
AcDbEntity
  8
OUTLINE
100
AcDbLine
 10
246.39000000000001
 20
14.572597503827321
 30
0.0
 11
247.84500000000003
 21
14.67555525308714
 31
0.0
  0
LINE
  5
2B0
330
17
100
AcDbEntity
  8
OUTLINE
100
AcDbLine
 10
247.84500000000003
 20
15.32444474691286
 30
0.0
 11
249.3
 21
15.219079131870455
 31
0.0
  0
LINE
  5
2B1
330
17
100
AcDbEntity
  8
OUTLINE
100
AcDbLine
 10
247.84500000000003
 20
14.67555525308714
 30
0.0
 11
249.3
 21
14.780920868129545
 31
0.0
  0
LINE
  5
2B2
330
17
100
AcDbEntity
  8
OUTLINE
100
AcDbLine
 10
176.55
 20
15.496159116557596
 30
0.0
 11
176.55
 21
14.503840883442404
 31
0.0
  0
LINE
  5
2B3
330
17
100
AcDbEntity
  8
OUTLINE
100
AcDbLine
 10
249.3
 20
14.780920868129545
 30
0.0
 11
249.3
 21
15.219079131870455
 31
0.0
  0
CIRCLE
  5
2B4
330
17
100
AcDbEntity
  8
SPAR
100
AcDbCircle
 10
195.3
 20
15.0
 30
0.0
 40
1.5
  0
CIRCLE
  5
2B5
330
17
100
AcDbEntity
  8
STRUCTURE
100
AcDbCircle
 10
225.3
 20
15.0
 30
0.0
 40
1.0
  0
DIMENSION
  5
2B6
330
17
100
AcDbEntity
  8
0
100
AcDbDimension
280
0
  2
*D6
  3
COMP
 10
176.55
 20
5.0
 30
0.0
 11
212.925
 21
5.0
 31
0.0
 70
32
 71
5
  1
<>
100
AcDbAlignedDimension
 13
176.55
 23
15.0
 33
0.0
 14
249.3
 24
15.0
 34
0.0
 50
0.0
100
AcDbRotatedDimension
  0
TEXT
  5
2C6
330
17
100
AcDbEntity
  8
TEXT
100
AcDbText
 10
176.55
 20
-5.0
 30
0.0
 40
3.0
  1
TIP SECTION — HT-13 (6.5%)
 11
176.55
 21
-5.0
 31
0.0
100
AcDbText
  0
LINE
  5
2C7
330
17
100
AcDbEntity
  8
OUTLINE
100
AcDbLine
 10
0.0
 20
-30.0
 30
0.0
 11
260.0
 21
-30.0
 31
0.0
  0
LINE
  5
2C8
330
17
100
AcDbEntity
  8
OUTLINE
100
AcDbLine
 10
0.0
 20
-55.0
 30
0.0
 11
260.0
 21
-55.0
 31
0.0
  0
LINE
  5
2C9
330
17
100
AcDbEntity
  8
OUTLINE
100
AcDbLine
 10
0.0
 20
-30.0
 30
0.0
 11
0.0
 21
-55.0
 31
0.0
  0
LINE
  5
2CA
330
17
100
AcDbEntity
  8
OUTLINE
100
AcDbLine
 10
260.0
 20
-30.0
 30
0.0
 11
260.0
 21
-55.0
 31
0.0
  0
TEXT
  5
2CB
330
17
100
AcDbEntity
  8
TEXT
100
AcDbText
 10
5.0
 20
-36.0
 30
0.0
 40
4.0
  1
AEROFORGE — HStab_Left (PRINTED COMPONENT)
 11
5.0
 21
-36.0
 31
0.0
100
AcDbText
  0
TEXT
  5
2CC
330
17
100
AcDbEntity
  8
TEXT
100
AcDbText
 10
5.0
 20
-42.0
 30
0.0
 40
2.0
  1
Blend: HT-14 root → HT-13 tip | Span: 215.0mm | Root: 115.0mm | Tip: 75.0mm | Wall: 0.45mm vase mode
 11
5.0
 21
-42.0
 31
0.0
100
AcDbText
  0
TEXT
  5
2CD
330
17
100
AcDbEntity
  8
TEXT
100
AcDbText
 10
5.0
 20
-48.0
 30
0.0
 40
2.0
  1
LW-PLA 230°C | Pivot: 3.0mm channel | Rear spar: 2.0mm channel | Mass target: 10-12g | Status: FOR APPROVAL
 11
5.0
 21
-48.0
 31
0.0
100
AcDbText
  0
ENDSEC
  0
SECTION
  2
OBJECTS
  0
DICTIONARY
  5
A
330
0
100
AcDbDictionary
281
1
  3
ACAD_COLOR
350
B
  3
ACAD_GROUP
350
C
  3
ACAD_LAYOUT
350
D
  3
ACAD_MATERIAL
350
E
  3
ACAD_MLEADERSTYLE
350
F
  3
ACAD_MLINESTYLE
350
10
  3
ACAD_PLOTSETTINGS
350
11
  3
ACAD_PLOTSTYLENAME
350
12
  3
ACAD_SCALELIST
350
14
  3
ACAD_TABLESTYLE
350
15
  3
ACAD_VISUALSTYLE
350
16
  3
EZDXF_META
350
2D
  0
DICTIONARY
  5
B
330
A
100
AcDbDictionary
281
1
  0
DICTIONARY
  5
C
330
A
100
AcDbDictionary
281
1
  0
DICTIONARY
  5
D
330
A
100
AcDbDictionary
281
1
  3
Model
350
1A
  3
Layout1
350
1E
  0
DICTIONARY
  5
E
330
A
100
AcDbDictionary
281
1
  3
ByBlock
350
1F
  3
ByLayer
350
20
  3
Global
350
21
  0
DICTIONARY
  5
F
330
A
100
AcDbDictionary
281
1
  3
Standard
350
2C
  0
DICTIONARY
  5
10
330
A
100
AcDbDictionary
281
1
  3
Standard
350
22
  0
DICTIONARY
  5
11
330
A
100
AcDbDictionary
281
1
  0
ACDBDICTIONARYWDFLT
  5
12
330
A
100
AcDbDictionary
281
1
  3
Normal
350
13
100
AcDbDictionaryWithDefault
340
13
  0
ACDBPLACEHOLDER
  5
13
330
12
  0
DICTIONARY
  5
14
330
A
100
AcDbDictionary
281
1
  0
DICTIONARY
  5
15
330
A
100
AcDbDictionary
281
1
  0
DICTIONARY
  5
16
330
A
100
AcDbDictionary
281
1
  3
2dWireframe
350
5A
  3
Basic
350
5B
  3
Brighten
350
5C
  3
ColorChange
350
5D
  3
Conceptual
350
5E
  3
Dim
350
5F
  3
EdgeColorOff
350
60
  3
Facepattern
350
61
  3
Flat
350
62
  3
FlatWithEdges
350
63
  3
Gouraud
350
64
  3
GouraudWithEdges
350
65
  3
Hidden
350
66
  3
JitterOff
350
67
  3
Linepattern
350
68
  3
Modeling
350
69
  3
OverhangOff
350
6A
  3
Realistic
350
6B
  3
Shaded
350
6C
  3
Shaded with edges
350
6D
  3
Shades of Gray
350
6E
  3
Sketchy
350
6F
  3
Thicken
350
70
  3
Wireframe
350
71
  3
X-Ray
350
72
  0
LAYOUT
  5
1A
330
D
100
AcDbPlotSettings
  1

  4
A3
  6

 40
7.5
 41
20.0
 42
7.5
 43
20.0
 44
420.0
 45
297.0
 46
0.0
 47
0.0
 48
0.0
 49
0.0
140
0.0
141
0.0
142
1.0
143
1.0
 70
1024
 72
1
 73
0
 74
5
  7

 75
16
 76
0
 77
2
 78
300
147
1.0
148
0.0
149
0.0
100
AcDbLayout
  1
Model
 70
1
 71
0
 10
0.0
 20
0.0
 11
420.0
 21
297.0
 12
0.0
 22
0.0
 32
0.0
 14
1e+20
 24
1e+20
 34
1e+20
 15
-1e+20
 25
-1e+20
 35
-1e+20
146
0.0
 13
0.0
 23
0.0
 33
0.0
 16
1.0
 26
0.0
 36
0.0
 17
0.0
 27
1.0
 37
0.0
 76
1
330
17
  0
LAYOUT
  5
1E
330
D
100
AcDbPlotSettings
  1

  4
A3
  6

 40
7.5
 41
20.0
 42
7.5
 43
20.0
 44
420.0
 45
297.0
 46
0.0
 47
0.0
 48
0.0
 49
0.0
140
0.0
141
0.0
142
1.0
143
1.0
 70
0
 72
1
 73
0
 74
5
  7

 75
16
 76
0
 77
2
 78
300
147
1.0
148
0.0
149
0.0
100
AcDbLayout
  1
Layout1
 70
1
 71
1
 10
0.0
 20
0.0
 11
420.0
 21
297.0
 12
0.0
 22
0.0
 32
0.0
 14
1e+20
 24
1e+20
 34
1e+20
 15
-1e+20
 25
-1e+20
 35
-1e+20
146
0.0
 13
0.0
 23
0.0
 33
0.0
 16
1.0
 26
0.0
 36
0.0
 17
0.0
 27
1.0
 37
0.0
 76
1
330
1B
  0
MATERIAL
  5
1F
102
{ACAD_REACTORS
330
E
102
}
330
E
100
AcDbMaterial
  1
ByBlock
  2

 70
0
 40
1.0
 71
1
 41
1.0
 91
-1023410177
 42
1.0
 72
1
  3

 73
1
 74
1
 75
1
 44
0.5
 73
0
 45
1.0
 46
1.0
 77
1
  4

 78
1
 79
1
170
1
 48
1.0
171
1
  6

172
1
173
1
174
1
140
1.0
141
1.0
175
1
  7

176
1
177
1
178
1
143
1.0
179
1
  8

270
1
271
1
272
1
145
1.0
146
1.0
273
1
  9

274
1
275
1
276
1
 42
1.0
 72
1
  3

 73
1
 74
1
 75
1
 94
63
  0
MATERIAL
  5
20
102
{ACAD_REACTORS
330
E
102
}
330
E
100
AcDbMaterial
  1
ByLayer
  2

 70
0
 40
1.0
 71
1
 41
1.0
 91
-1023410177
 42
1.0
 72
1
  3

 73
1
 74
1
 75
1
 44
0.5
 73
0
 45
1.0
 46
1.0
 77
1
  4

 78
1
 79
1
170
1
 48
1.0
171
1
  6

172
1
173
1
174
1
140
1.0
141
1.0
175
1
  7

176
1
177
1
178
1
143
1.0
179
1
  8

270
1
271
1
272
1
145
1.0
146
1.0
273
1
  9

274
1
275
1
276
1
 42
1.0
 72
1
  3

 73
1
 74
1
 75
1
 94
63
  0
MATERIAL
  5
21
102
{ACAD_REACTORS
330
E
102
}
330
E
100
AcDbMaterial
  1
Global
  2

 70
0
 40
1.0
 71
1
 41
1.0
 91
-1023410177
 42
1.0
 72
1
  3

 73
1
 74
1
 75
1
 44
0.5
 73
0
 45
1.0
 46
1.0
 77
1
  4

 78
1
 79
1
170
1
 48
1.0
171
1
  6

172
1
173
1
174
1
140
1.0
141
1.0
175
1
  7

176
1
177
1
178
1
143
1.0
179
1
  8

270
1
271
1
272
1
145
1.0
146
1.0
273
1
  9

274
1
275
1
276
1
 42
1.0
 72
1
  3

 73
1
 74
1
 75
1
 94
63
  0
MLINESTYLE
  5
22
102
{ACAD_REACTORS
330
10
102
}
330
10
100
AcDbMlineStyle
  2
Standard
 70
0
  3

 62
256
 51
90.0
 52
90.0
 71
2
 49
0.5
 62
256
  6
BYLAYER
 49
-0.5
 62
256
  6
BYLAYER
  0
MLEADERSTYLE
  5
2C
102
{ACAD_REACTORS
330
F
102
}
330
F
100
AcDbMLeaderStyle
179
2
170
2
171
1
172
0
 90
2
 40
0.0
 41
0.0
173
1
 91
-1056964608
 92
-2
290
1
 42
2.0
291
1
 43
8.0
  3
Standard
 44
4.0
300

342
29
174
1
175
1
176
0
178
1
 93
-1056964608
 45
4.0
292
0
297
0
 46
4.0
 94
-1056964608
 47
1.0
 49
1.0
140
1.0
294
1
141
0.0
177
0
142
1.0
295
0
296
0
143
3.75
271
0
272
9
273
9
  0
DICTIONARY
  5
2D
330
A
100
AcDbDictionary
280
1
281
1
  3
CREATED_BY_EZDXF
350
2E
  3
WRITTEN_BY_EZDXF
350
2D0
  0
DICTIONARYVAR
  5
2E
330
2D
100
DictionaryVariables
280
0
  1
1.4.3 @ 2026-03-28T23:32:52.405617+00:00
  0
VISUALSTYLE
  5
5A
102
{ACAD_REACTORS
330
16
102
}
330
16
100
AcDbVisualStyle
  2
2dWireframe
 70
4
 90
0
 40
0.6
 62
7
290
0
291
0
  0
VISUALSTYLE
  5
5B
102
{ACAD_REACTORS
330
16
102
}
330
16
100
AcDbVisualStyle
  2
Basic
 70
7
 90
1
 40
0.6
 62
7
290
0
291
1
  0
VISUALSTYLE
  5
5C
102
{ACAD_REACTORS
330
16
102
}
330
16
100
AcDbVisualStyle
  2
Brighten
 70
12
 90
2
 40
0.6
 62
7
290
0
291
1
  0
VISUALSTYLE
  5
5D
102
{ACAD_REACTORS
330
16
102
}
330
16
100
AcDbVisualStyle
  2
ColorChange
 70
16
 90
2
 40
0.6
 62
8
290
0
291
1
  0
VISUALSTYLE
  5
5E
102
{ACAD_REACTORS
330
16
102
}
330
16
100
AcDbVisualStyle
  2
Conceptual
 70
9
 90
3
 40
0.6
 62
7
290
0
291
0
  0
VISUALSTYLE
  5
5F
102
{ACAD_REACTORS
330
16
102
}
330
16
100
AcDbVisualStyle
  2
Dim
 70
11
 90
2
 40
0.6
 62
7
290
0
291
1
  0
VISUALSTYLE
  5
60
102
{ACAD_REACTORS
330
16
102
}
330
16
100
AcDbVisualStyle
  2
EdgeColorOff
 70
22
 90
2
 40
0.6
 62
7
290
0
291
1
  0
VISUALSTYLE
  5
61
102
{ACAD_REACTORS
330
16
102
}
330
16
100
AcDbVisualStyle
  2
Facepattern
 70
15
 90
2
 40
0.6
 62
7
290
0
291
1
  0
VISUALSTYLE
  5
62
102
{ACAD_REACTORS
330
16
102
}
330
16
100
AcDbVisualStyle
  2
Flat
 70
0
 90
2
 40
0.6
 62
7
290
0
291
1
  0
VISUALSTYLE
  5
63
102
{ACAD_REACTORS
330
16
102
}
330
16
100
AcDbVisualStyle
  2
FlatWithEdges
 70
1
 90
2
 40
0.6
 62
7
290
0
291
1
  0
VISUALSTYLE
  5
64
102
{ACAD_REACTORS
330
16
102
}
330
16
100
AcDbVisualStyle
  2
Gouraud
 70
2
 90
2
 40
0.6
 62
7
290
0
291
1
  0
VISUALSTYLE
  5
65
102
{ACAD_REACTORS
330
16
102
}
330
16
100
AcDbVisualStyle
  2
GouraudWithEdges
 70
3
 90
2
 40
0.6
 62
7
290
0
291
1
  0
VISUALSTYLE
  5
66
102
{ACAD_REACTORS
330
16
102
}
330
16
100
AcDbVisualStyle
  2
Hidden
 70
6
 90
1
 40
0.6
 62
7
290
0
291
0
  0
VISUALSTYLE
  5
67
102
{ACAD_REACTORS
330
16
102
}
330
16
100
AcDbVisualStyle
  2
JitterOff
 70
20
 90
2
 40
0.6
 62
7
290
0
291
1
  0
VISUALSTYLE
  5
68
102
{ACAD_REACTORS
330
16
102
}
330
16
100
AcDbVisualStyle
  2
Linepattern
 70
14
 90
2
 40
0.6
 62
7
290
0
291
1
  0
VISUALSTYLE
  5
69
102
{ACAD_REACTORS
330
16
102
}
330
16
100
AcDbVisualStyle
  2
Modeling
 70
10
 90
2
 40
0.6
 62
7
290
0
291
0
  0
VISUALSTYLE
  5
6A
102
{ACAD_REACTORS
330
16
102
}
330
16
100
AcDbVisualStyle
  2
OverhangOff
 70
21
 90
2
 40
0.6
 62
7
290
0
291
1
  0
VISUALSTYLE
  5
6B
102
{ACAD_REACTORS
330
16
102
}
330
16
100
AcDbVisualStyle
  2
Realistic
 70
8
 90
2
 40
0.6
 62
7
290
0
291
0
  0
VISUALSTYLE
  5
6C
102
{ACAD_REACTORS
330
16
102
}
330
16
100
AcDbVisualStyle
  2
Shaded
 70
27
 90
2
 40
0.6
 62
7
290
0
291
0
  0
VISUALSTYLE
  5
6D
102
{ACAD_REACTORS
330
16
102
}
330
16
100
AcDbVisualStyle
  2
Shaded with edges
 70
26
 90
2
 40
0.6
 62
7
290
0
291
0
  0
VISUALSTYLE
  5
6E
102
{ACAD_REACTORS
330
16
102
}
330
16
100
AcDbVisualStyle
  2
Shades of Gray
 70
23
 90
2
 40
0.6
 62
7
290
0
291
0
  0
VISUALSTYLE
  5
6F
102
{ACAD_REACTORS
330
16
102
}
330
16
100
AcDbVisualStyle
  2
Sketchy
 70
24
 90
1
 40
0.6
 62
7
290
0
291
0
  0
VISUALSTYLE
  5
70
102
{ACAD_REACTORS
330
16
102
}
330
16
100
AcDbVisualStyle
  2
Thicken
 70
13
 90
2
 40
0.6
 62
7
290
0
291
1
  0
VISUALSTYLE
  5
71
102
{ACAD_REACTORS
330
16
102
}
330
16
100
AcDbVisualStyle
  2
Wireframe
 70
5
 90
0
 40
0.6
 62
7
290
0
291
0
  0
VISUALSTYLE
  5
72
102
{ACAD_REACTORS
330
16
102
}
330
16
100
AcDbVisualStyle
  2
X-Ray
 70
25
 90
2
 40
0.5
 62
7
290
0
291
0
  0
DICTIONARYVAR
  5
2D0
330
2D
100
DictionaryVariables
280
0
  1
1.4.3 @ 2026-03-28T23:32:52.425618+00:00
  0
ENDSEC
  0
EOF
